G04 #@! TF.GenerationSoftware,KiCad,Pcbnew,9.0.6*
G04 #@! TF.CreationDate,2026-03-19T13:41:58-04:00*
G04 #@! TF.ProjectId,FigCNC-Pro,46696743-4e43-42d5-9072-6f2e6b696361,rev?*
G04 #@! TF.SameCoordinates,Original*
G04 #@! TF.FileFunction,Legend,Top*
G04 #@! TF.FilePolarity,Positive*
%FSLAX46Y46*%
G04 Gerber Fmt 4.6, Leading zero omitted, Abs format (unit mm)*
G04 Created by KiCad (PCBNEW 9.0.6) date 2026-03-19 13:41:58*
%MOMM*%
%LPD*%
G01*
G04 APERTURE LIST*
G04 Aperture macros list*
%AMRoundRect*
0 Rectangle with rounded corners*
0 $1 Rounding radius*
0 $2 $3 $4 $5 $6 $7 $8 $9 X,Y pos of 4 corners*
0 Add a 4 corners polygon primitive as box body*
4,1,4,$2,$3,$4,$5,$6,$7,$8,$9,$2,$3,0*
0 Add four circle primitives for the rounded corners*
1,1,$1+$1,$2,$3*
1,1,$1+$1,$4,$5*
1,1,$1+$1,$6,$7*
1,1,$1+$1,$8,$9*
0 Add four rect primitives between the rounded corners*
20,1,$1+$1,$2,$3,$4,$5,0*
20,1,$1+$1,$4,$5,$6,$7,0*
20,1,$1+$1,$6,$7,$8,$9,0*
20,1,$1+$1,$8,$9,$2,$3,0*%
G04 Aperture macros list end*
%ADD10C,0.100000*%
%ADD11C,0.200000*%
%ADD12C,0.150000*%
%ADD13C,0.120000*%
%ADD14C,0.127000*%
%ADD15C,0.000000*%
%ADD16RoundRect,0.250000X-0.262500X-0.450000X0.262500X-0.450000X0.262500X0.450000X-0.262500X0.450000X0*%
%ADD17RoundRect,0.099250X-0.297750X0.812750X-0.297750X-0.812750X0.297750X-0.812750X0.297750X0.812750X0*%
%ADD18RoundRect,0.250000X0.450000X-0.262500X0.450000X0.262500X-0.450000X0.262500X-0.450000X-0.262500X0*%
%ADD19RoundRect,0.250000X0.262500X0.450000X-0.262500X0.450000X-0.262500X-0.450000X0.262500X-0.450000X0*%
%ADD20R,0.600000X1.550000*%
%ADD21R,3.100000X2.600000*%
%ADD22RoundRect,0.250000X0.475000X-0.250000X0.475000X0.250000X-0.475000X0.250000X-0.475000X-0.250000X0*%
%ADD23RoundRect,0.250000X0.325000X0.650000X-0.325000X0.650000X-0.325000X-0.650000X0.325000X-0.650000X0*%
%ADD24C,3.200000*%
%ADD25RoundRect,0.250001X-0.949999X-1.499999X0.949999X-1.499999X0.949999X1.499999X-0.949999X1.499999X0*%
%ADD26RoundRect,0.250000X0.250000X0.475000X-0.250000X0.475000X-0.250000X-0.475000X0.250000X-0.475000X0*%
%ADD27RoundRect,0.438500X-0.438500X0.828500X-0.438500X-0.828500X0.438500X-0.828500X0.438500X0.828500X0*%
%ADD28R,1.700000X1.700000*%
%ADD29C,1.700000*%
%ADD30RoundRect,0.250000X-1.050000X1.050000X-1.050000X-1.050000X1.050000X-1.050000X1.050000X1.050000X0*%
%ADD31C,2.600000*%
%ADD32RoundRect,0.250000X-0.250000X-0.475000X0.250000X-0.475000X0.250000X0.475000X-0.250000X0.475000X0*%
%ADD33RoundRect,0.250000X-0.450000X0.262500X-0.450000X-0.262500X0.450000X-0.262500X0.450000X0.262500X0*%
%ADD34R,3.500000X3.500000*%
%ADD35RoundRect,0.750000X-0.750000X-1.000000X0.750000X-1.000000X0.750000X1.000000X-0.750000X1.000000X0*%
%ADD36RoundRect,0.875000X-0.875000X-0.875000X0.875000X-0.875000X0.875000X0.875000X-0.875000X0.875000X0*%
%ADD37RoundRect,0.102000X-0.900000X-0.900000X0.900000X-0.900000X0.900000X0.900000X-0.900000X0.900000X0*%
%ADD38C,2.004000*%
%ADD39C,0.900000*%
%ADD40R,0.700000X1.600000*%
%ADD41R,1.200000X2.200000*%
%ADD42R,1.600000X1.400000*%
%ADD43R,1.200000X1.400000*%
%ADD44RoundRect,0.150000X0.825000X0.150000X-0.825000X0.150000X-0.825000X-0.150000X0.825000X-0.150000X0*%
%ADD45RoundRect,0.250000X-0.725000X0.600000X-0.725000X-0.600000X0.725000X-0.600000X0.725000X0.600000X0*%
%ADD46O,1.950000X1.700000*%
%ADD47RoundRect,0.250000X1.045000X-0.785000X1.045000X0.785000X-1.045000X0.785000X-1.045000X-0.785000X0*%
%ADD48RoundRect,0.249999X0.790001X1.550001X-0.790001X1.550001X-0.790001X-1.550001X0.790001X-1.550001X0*%
%ADD49O,2.080000X3.600000*%
G04 APERTURE END LIST*
D10*
X55108685Y-47775000D02*
X63858685Y-47775000D01*
X63858685Y-68775000D01*
X55108685Y-68775000D01*
X55108685Y-47775000D01*
D11*
X32743482Y-66138278D02*
X32172054Y-66138278D01*
X32457768Y-66138278D02*
X32457768Y-65138278D01*
X32457768Y-65138278D02*
X32362530Y-65281135D01*
X32362530Y-65281135D02*
X32267292Y-65376373D01*
X32267292Y-65376373D02*
X32172054Y-65423992D01*
X33124435Y-65233516D02*
X33172054Y-65185897D01*
X33172054Y-65185897D02*
X33267292Y-65138278D01*
X33267292Y-65138278D02*
X33505387Y-65138278D01*
X33505387Y-65138278D02*
X33600625Y-65185897D01*
X33600625Y-65185897D02*
X33648244Y-65233516D01*
X33648244Y-65233516D02*
X33695863Y-65328754D01*
X33695863Y-65328754D02*
X33695863Y-65423992D01*
X33695863Y-65423992D02*
X33648244Y-65566849D01*
X33648244Y-65566849D02*
X33076816Y-66138278D01*
X33076816Y-66138278D02*
X33695863Y-66138278D01*
X34124435Y-65757325D02*
X34886340Y-65757325D01*
X35267292Y-65138278D02*
X35886339Y-65138278D01*
X35886339Y-65138278D02*
X35553006Y-65519230D01*
X35553006Y-65519230D02*
X35695863Y-65519230D01*
X35695863Y-65519230D02*
X35791101Y-65566849D01*
X35791101Y-65566849D02*
X35838720Y-65614468D01*
X35838720Y-65614468D02*
X35886339Y-65709706D01*
X35886339Y-65709706D02*
X35886339Y-65947801D01*
X35886339Y-65947801D02*
X35838720Y-66043039D01*
X35838720Y-66043039D02*
X35791101Y-66090659D01*
X35791101Y-66090659D02*
X35695863Y-66138278D01*
X35695863Y-66138278D02*
X35410149Y-66138278D01*
X35410149Y-66138278D02*
X35314911Y-66090659D01*
X35314911Y-66090659D02*
X35267292Y-66043039D01*
X36743482Y-65138278D02*
X36553006Y-65138278D01*
X36553006Y-65138278D02*
X36457768Y-65185897D01*
X36457768Y-65185897D02*
X36410149Y-65233516D01*
X36410149Y-65233516D02*
X36314911Y-65376373D01*
X36314911Y-65376373D02*
X36267292Y-65566849D01*
X36267292Y-65566849D02*
X36267292Y-65947801D01*
X36267292Y-65947801D02*
X36314911Y-66043039D01*
X36314911Y-66043039D02*
X36362530Y-66090659D01*
X36362530Y-66090659D02*
X36457768Y-66138278D01*
X36457768Y-66138278D02*
X36648244Y-66138278D01*
X36648244Y-66138278D02*
X36743482Y-66090659D01*
X36743482Y-66090659D02*
X36791101Y-66043039D01*
X36791101Y-66043039D02*
X36838720Y-65947801D01*
X36838720Y-65947801D02*
X36838720Y-65709706D01*
X36838720Y-65709706D02*
X36791101Y-65614468D01*
X36791101Y-65614468D02*
X36743482Y-65566849D01*
X36743482Y-65566849D02*
X36648244Y-65519230D01*
X36648244Y-65519230D02*
X36457768Y-65519230D01*
X36457768Y-65519230D02*
X36362530Y-65566849D01*
X36362530Y-65566849D02*
X36314911Y-65614468D01*
X36314911Y-65614468D02*
X36267292Y-65709706D01*
X37124435Y-65138278D02*
X37457768Y-66138278D01*
X37457768Y-66138278D02*
X37791101Y-65138278D01*
X60379847Y-34703384D02*
X60379847Y-34036718D01*
X60379847Y-34036718D02*
X61379847Y-34703384D01*
X61379847Y-34703384D02*
X61379847Y-34036718D01*
X60998894Y-33655765D02*
X60998894Y-32893861D01*
X61332228Y-32465289D02*
X61379847Y-32322432D01*
X61379847Y-32322432D02*
X61379847Y-32084337D01*
X61379847Y-32084337D02*
X61332228Y-31989099D01*
X61332228Y-31989099D02*
X61284608Y-31941480D01*
X61284608Y-31941480D02*
X61189370Y-31893861D01*
X61189370Y-31893861D02*
X61094132Y-31893861D01*
X61094132Y-31893861D02*
X60998894Y-31941480D01*
X60998894Y-31941480D02*
X60951275Y-31989099D01*
X60951275Y-31989099D02*
X60903656Y-32084337D01*
X60903656Y-32084337D02*
X60856037Y-32274813D01*
X60856037Y-32274813D02*
X60808418Y-32370051D01*
X60808418Y-32370051D02*
X60760799Y-32417670D01*
X60760799Y-32417670D02*
X60665561Y-32465289D01*
X60665561Y-32465289D02*
X60570323Y-32465289D01*
X60570323Y-32465289D02*
X60475085Y-32417670D01*
X60475085Y-32417670D02*
X60427466Y-32370051D01*
X60427466Y-32370051D02*
X60379847Y-32274813D01*
X60379847Y-32274813D02*
X60379847Y-32036718D01*
X60379847Y-32036718D02*
X60427466Y-31893861D01*
X60379847Y-31608146D02*
X60379847Y-31036718D01*
X61379847Y-31322432D02*
X60379847Y-31322432D01*
X61379847Y-30703384D02*
X60379847Y-30703384D01*
X60379847Y-30703384D02*
X60379847Y-30322432D01*
X60379847Y-30322432D02*
X60427466Y-30227194D01*
X60427466Y-30227194D02*
X60475085Y-30179575D01*
X60475085Y-30179575D02*
X60570323Y-30131956D01*
X60570323Y-30131956D02*
X60713180Y-30131956D01*
X60713180Y-30131956D02*
X60808418Y-30179575D01*
X60808418Y-30179575D02*
X60856037Y-30227194D01*
X60856037Y-30227194D02*
X60903656Y-30322432D01*
X60903656Y-30322432D02*
X60903656Y-30703384D01*
X40380565Y-34931387D02*
X40856756Y-34931387D01*
X39856756Y-35264720D02*
X40380565Y-34931387D01*
X40380565Y-34931387D02*
X39856756Y-34598054D01*
X40856756Y-33740911D02*
X40856756Y-34312339D01*
X40856756Y-34026625D02*
X39856756Y-34026625D01*
X39856756Y-34026625D02*
X39999613Y-34121863D01*
X39999613Y-34121863D02*
X40094851Y-34217101D01*
X40094851Y-34217101D02*
X40142470Y-34312339D01*
X40475803Y-33312339D02*
X40475803Y-32550435D01*
X40856756Y-31598054D02*
X40856756Y-32074244D01*
X40856756Y-32074244D02*
X39856756Y-32074244D01*
X40856756Y-31264720D02*
X39856756Y-31264720D01*
X40856756Y-30788530D02*
X39856756Y-30788530D01*
X39856756Y-30788530D02*
X40571041Y-30455197D01*
X40571041Y-30455197D02*
X39856756Y-30121864D01*
X39856756Y-30121864D02*
X40856756Y-30121864D01*
X103467219Y-75405326D02*
X102467219Y-75405326D01*
X102467219Y-75405326D02*
X102467219Y-75024374D01*
X102467219Y-75024374D02*
X102514838Y-74929136D01*
X102514838Y-74929136D02*
X102562457Y-74881517D01*
X102562457Y-74881517D02*
X102657695Y-74833898D01*
X102657695Y-74833898D02*
X102800552Y-74833898D01*
X102800552Y-74833898D02*
X102895790Y-74881517D01*
X102895790Y-74881517D02*
X102943409Y-74929136D01*
X102943409Y-74929136D02*
X102991028Y-75024374D01*
X102991028Y-75024374D02*
X102991028Y-75405326D01*
X102943409Y-74405326D02*
X102943409Y-74071993D01*
X103467219Y-73929136D02*
X103467219Y-74405326D01*
X103467219Y-74405326D02*
X102467219Y-74405326D01*
X102467219Y-74405326D02*
X102467219Y-73929136D01*
X103467219Y-73500564D02*
X102467219Y-73500564D01*
X102467219Y-73500564D02*
X103467219Y-72929136D01*
X103467219Y-72929136D02*
X102467219Y-72929136D01*
X103467219Y-72452945D02*
X102467219Y-72452945D01*
X102467219Y-72452945D02*
X102467219Y-72214850D01*
X102467219Y-72214850D02*
X102514838Y-72071993D01*
X102514838Y-72071993D02*
X102610076Y-71976755D01*
X102610076Y-71976755D02*
X102705314Y-71929136D01*
X102705314Y-71929136D02*
X102895790Y-71881517D01*
X102895790Y-71881517D02*
X103038647Y-71881517D01*
X103038647Y-71881517D02*
X103229123Y-71929136D01*
X103229123Y-71929136D02*
X103324361Y-71976755D01*
X103324361Y-71976755D02*
X103419600Y-72071993D01*
X103419600Y-72071993D02*
X103467219Y-72214850D01*
X103467219Y-72214850D02*
X103467219Y-72452945D01*
X103181504Y-71500564D02*
X103181504Y-71024374D01*
X103467219Y-71595802D02*
X102467219Y-71262469D01*
X102467219Y-71262469D02*
X103467219Y-70929136D01*
X103467219Y-70595802D02*
X102467219Y-70595802D01*
X102467219Y-70595802D02*
X103467219Y-70024374D01*
X103467219Y-70024374D02*
X102467219Y-70024374D01*
X102467219Y-69691040D02*
X102467219Y-69119612D01*
X103467219Y-69405326D02*
X102467219Y-69405326D01*
X101814838Y-62806517D02*
X101767219Y-62901755D01*
X101767219Y-62901755D02*
X101767219Y-63044612D01*
X101767219Y-63044612D02*
X101814838Y-63187469D01*
X101814838Y-63187469D02*
X101910076Y-63282707D01*
X101910076Y-63282707D02*
X102005314Y-63330326D01*
X102005314Y-63330326D02*
X102195790Y-63377945D01*
X102195790Y-63377945D02*
X102338647Y-63377945D01*
X102338647Y-63377945D02*
X102529123Y-63330326D01*
X102529123Y-63330326D02*
X102624361Y-63282707D01*
X102624361Y-63282707D02*
X102719600Y-63187469D01*
X102719600Y-63187469D02*
X102767219Y-63044612D01*
X102767219Y-63044612D02*
X102767219Y-62949374D01*
X102767219Y-62949374D02*
X102719600Y-62806517D01*
X102719600Y-62806517D02*
X102671980Y-62758898D01*
X102671980Y-62758898D02*
X102338647Y-62758898D01*
X102338647Y-62758898D02*
X102338647Y-62949374D01*
X85667219Y-34550564D02*
X86667219Y-33883898D01*
X85667219Y-33883898D02*
X86667219Y-34550564D01*
X86286266Y-33502945D02*
X86286266Y-32741041D01*
X86667219Y-32264850D02*
X85667219Y-32264850D01*
X85667219Y-32264850D02*
X85667219Y-32026755D01*
X85667219Y-32026755D02*
X85714838Y-31883898D01*
X85714838Y-31883898D02*
X85810076Y-31788660D01*
X85810076Y-31788660D02*
X85905314Y-31741041D01*
X85905314Y-31741041D02*
X86095790Y-31693422D01*
X86095790Y-31693422D02*
X86238647Y-31693422D01*
X86238647Y-31693422D02*
X86429123Y-31741041D01*
X86429123Y-31741041D02*
X86524361Y-31788660D01*
X86524361Y-31788660D02*
X86619600Y-31883898D01*
X86619600Y-31883898D02*
X86667219Y-32026755D01*
X86667219Y-32026755D02*
X86667219Y-32264850D01*
X86667219Y-31264850D02*
X85667219Y-31264850D01*
X86667219Y-30217232D02*
X86191028Y-30550565D01*
X86667219Y-30788660D02*
X85667219Y-30788660D01*
X85667219Y-30788660D02*
X85667219Y-30407708D01*
X85667219Y-30407708D02*
X85714838Y-30312470D01*
X85714838Y-30312470D02*
X85762457Y-30264851D01*
X85762457Y-30264851D02*
X85857695Y-30217232D01*
X85857695Y-30217232D02*
X86000552Y-30217232D01*
X86000552Y-30217232D02*
X86095790Y-30264851D01*
X86095790Y-30264851D02*
X86143409Y-30312470D01*
X86143409Y-30312470D02*
X86191028Y-30407708D01*
X86191028Y-30407708D02*
X86191028Y-30788660D01*
X32554332Y-55217219D02*
X33173379Y-55217219D01*
X33173379Y-55217219D02*
X32840046Y-55598171D01*
X32840046Y-55598171D02*
X32982903Y-55598171D01*
X32982903Y-55598171D02*
X33078141Y-55645790D01*
X33078141Y-55645790D02*
X33125760Y-55693409D01*
X33125760Y-55693409D02*
X33173379Y-55788647D01*
X33173379Y-55788647D02*
X33173379Y-56026742D01*
X33173379Y-56026742D02*
X33125760Y-56121980D01*
X33125760Y-56121980D02*
X33078141Y-56169600D01*
X33078141Y-56169600D02*
X32982903Y-56217219D01*
X32982903Y-56217219D02*
X32697189Y-56217219D01*
X32697189Y-56217219D02*
X32601951Y-56169600D01*
X32601951Y-56169600D02*
X32554332Y-56121980D01*
X33459094Y-55217219D02*
X33792427Y-56217219D01*
X33792427Y-56217219D02*
X34125760Y-55217219D01*
X34363856Y-55217219D02*
X34982903Y-55217219D01*
X34982903Y-55217219D02*
X34649570Y-55598171D01*
X34649570Y-55598171D02*
X34792427Y-55598171D01*
X34792427Y-55598171D02*
X34887665Y-55645790D01*
X34887665Y-55645790D02*
X34935284Y-55693409D01*
X34935284Y-55693409D02*
X34982903Y-55788647D01*
X34982903Y-55788647D02*
X34982903Y-56026742D01*
X34982903Y-56026742D02*
X34935284Y-56121980D01*
X34935284Y-56121980D02*
X34887665Y-56169600D01*
X34887665Y-56169600D02*
X34792427Y-56217219D01*
X34792427Y-56217219D02*
X34506713Y-56217219D01*
X34506713Y-56217219D02*
X34411475Y-56169600D01*
X34411475Y-56169600D02*
X34363856Y-56121980D01*
X102550195Y-55302057D02*
X102074004Y-55635390D01*
X102550195Y-55873485D02*
X101550195Y-55873485D01*
X101550195Y-55873485D02*
X101550195Y-55492533D01*
X101550195Y-55492533D02*
X101597814Y-55397295D01*
X101597814Y-55397295D02*
X101645433Y-55349676D01*
X101645433Y-55349676D02*
X101740671Y-55302057D01*
X101740671Y-55302057D02*
X101883528Y-55302057D01*
X101883528Y-55302057D02*
X101978766Y-55349676D01*
X101978766Y-55349676D02*
X102026385Y-55397295D01*
X102026385Y-55397295D02*
X102074004Y-55492533D01*
X102074004Y-55492533D02*
X102074004Y-55873485D01*
X101550195Y-54968723D02*
X102550195Y-54302057D01*
X101550195Y-54302057D02*
X102550195Y-54968723D01*
X32593409Y-38379172D02*
X32641028Y-38236315D01*
X32641028Y-38236315D02*
X32688647Y-38188696D01*
X32688647Y-38188696D02*
X32783885Y-38141077D01*
X32783885Y-38141077D02*
X32926742Y-38141077D01*
X32926742Y-38141077D02*
X33021980Y-38188696D01*
X33021980Y-38188696D02*
X33069600Y-38236315D01*
X33069600Y-38236315D02*
X33117219Y-38331553D01*
X33117219Y-38331553D02*
X33117219Y-38712505D01*
X33117219Y-38712505D02*
X32117219Y-38712505D01*
X32117219Y-38712505D02*
X32117219Y-38379172D01*
X32117219Y-38379172D02*
X32164838Y-38283934D01*
X32164838Y-38283934D02*
X32212457Y-38236315D01*
X32212457Y-38236315D02*
X32307695Y-38188696D01*
X32307695Y-38188696D02*
X32402933Y-38188696D01*
X32402933Y-38188696D02*
X32498171Y-38236315D01*
X32498171Y-38236315D02*
X32545790Y-38283934D01*
X32545790Y-38283934D02*
X32593409Y-38379172D01*
X32593409Y-38379172D02*
X32593409Y-38712505D01*
X90917219Y-35250564D02*
X91917219Y-34583898D01*
X90917219Y-34583898D02*
X91917219Y-35250564D01*
X91536266Y-34202945D02*
X91536266Y-33441041D01*
X91869600Y-33012469D02*
X91917219Y-32869612D01*
X91917219Y-32869612D02*
X91917219Y-32631517D01*
X91917219Y-32631517D02*
X91869600Y-32536279D01*
X91869600Y-32536279D02*
X91821980Y-32488660D01*
X91821980Y-32488660D02*
X91726742Y-32441041D01*
X91726742Y-32441041D02*
X91631504Y-32441041D01*
X91631504Y-32441041D02*
X91536266Y-32488660D01*
X91536266Y-32488660D02*
X91488647Y-32536279D01*
X91488647Y-32536279D02*
X91441028Y-32631517D01*
X91441028Y-32631517D02*
X91393409Y-32821993D01*
X91393409Y-32821993D02*
X91345790Y-32917231D01*
X91345790Y-32917231D02*
X91298171Y-32964850D01*
X91298171Y-32964850D02*
X91202933Y-33012469D01*
X91202933Y-33012469D02*
X91107695Y-33012469D01*
X91107695Y-33012469D02*
X91012457Y-32964850D01*
X91012457Y-32964850D02*
X90964838Y-32917231D01*
X90964838Y-32917231D02*
X90917219Y-32821993D01*
X90917219Y-32821993D02*
X90917219Y-32583898D01*
X90917219Y-32583898D02*
X90964838Y-32441041D01*
X90917219Y-32155326D02*
X90917219Y-31583898D01*
X91917219Y-31869612D02*
X90917219Y-31869612D01*
X91917219Y-31250564D02*
X90917219Y-31250564D01*
X90917219Y-31250564D02*
X90917219Y-30869612D01*
X90917219Y-30869612D02*
X90964838Y-30774374D01*
X90964838Y-30774374D02*
X91012457Y-30726755D01*
X91012457Y-30726755D02*
X91107695Y-30679136D01*
X91107695Y-30679136D02*
X91250552Y-30679136D01*
X91250552Y-30679136D02*
X91345790Y-30726755D01*
X91345790Y-30726755D02*
X91393409Y-30774374D01*
X91393409Y-30774374D02*
X91441028Y-30869612D01*
X91441028Y-30869612D02*
X91441028Y-31250564D01*
X70791028Y-35314850D02*
X71267219Y-35314850D01*
X70267219Y-35648183D02*
X70791028Y-35314850D01*
X70791028Y-35314850D02*
X70267219Y-34981517D01*
X70362457Y-34695802D02*
X70314838Y-34648183D01*
X70314838Y-34648183D02*
X70267219Y-34552945D01*
X70267219Y-34552945D02*
X70267219Y-34314850D01*
X70267219Y-34314850D02*
X70314838Y-34219612D01*
X70314838Y-34219612D02*
X70362457Y-34171993D01*
X70362457Y-34171993D02*
X70457695Y-34124374D01*
X70457695Y-34124374D02*
X70552933Y-34124374D01*
X70552933Y-34124374D02*
X70695790Y-34171993D01*
X70695790Y-34171993D02*
X71267219Y-34743421D01*
X71267219Y-34743421D02*
X71267219Y-34124374D01*
X70886266Y-33695802D02*
X70886266Y-32933898D01*
X71219600Y-32505326D02*
X71267219Y-32362469D01*
X71267219Y-32362469D02*
X71267219Y-32124374D01*
X71267219Y-32124374D02*
X71219600Y-32029136D01*
X71219600Y-32029136D02*
X71171980Y-31981517D01*
X71171980Y-31981517D02*
X71076742Y-31933898D01*
X71076742Y-31933898D02*
X70981504Y-31933898D01*
X70981504Y-31933898D02*
X70886266Y-31981517D01*
X70886266Y-31981517D02*
X70838647Y-32029136D01*
X70838647Y-32029136D02*
X70791028Y-32124374D01*
X70791028Y-32124374D02*
X70743409Y-32314850D01*
X70743409Y-32314850D02*
X70695790Y-32410088D01*
X70695790Y-32410088D02*
X70648171Y-32457707D01*
X70648171Y-32457707D02*
X70552933Y-32505326D01*
X70552933Y-32505326D02*
X70457695Y-32505326D01*
X70457695Y-32505326D02*
X70362457Y-32457707D01*
X70362457Y-32457707D02*
X70314838Y-32410088D01*
X70314838Y-32410088D02*
X70267219Y-32314850D01*
X70267219Y-32314850D02*
X70267219Y-32076755D01*
X70267219Y-32076755D02*
X70314838Y-31933898D01*
X70267219Y-31648183D02*
X70267219Y-31076755D01*
X71267219Y-31362469D02*
X70267219Y-31362469D01*
X71267219Y-30743421D02*
X70267219Y-30743421D01*
X70267219Y-30743421D02*
X70267219Y-30362469D01*
X70267219Y-30362469D02*
X70314838Y-30267231D01*
X70314838Y-30267231D02*
X70362457Y-30219612D01*
X70362457Y-30219612D02*
X70457695Y-30171993D01*
X70457695Y-30171993D02*
X70600552Y-30171993D01*
X70600552Y-30171993D02*
X70695790Y-30219612D01*
X70695790Y-30219612D02*
X70743409Y-30267231D01*
X70743409Y-30267231D02*
X70791028Y-30362469D01*
X70791028Y-30362469D02*
X70791028Y-30743421D01*
X65891028Y-34964850D02*
X66367219Y-34964850D01*
X65367219Y-35298183D02*
X65891028Y-34964850D01*
X65891028Y-34964850D02*
X65367219Y-34631517D01*
X65462457Y-34345802D02*
X65414838Y-34298183D01*
X65414838Y-34298183D02*
X65367219Y-34202945D01*
X65367219Y-34202945D02*
X65367219Y-33964850D01*
X65367219Y-33964850D02*
X65414838Y-33869612D01*
X65414838Y-33869612D02*
X65462457Y-33821993D01*
X65462457Y-33821993D02*
X65557695Y-33774374D01*
X65557695Y-33774374D02*
X65652933Y-33774374D01*
X65652933Y-33774374D02*
X65795790Y-33821993D01*
X65795790Y-33821993D02*
X66367219Y-34393421D01*
X66367219Y-34393421D02*
X66367219Y-33774374D01*
X65986266Y-33345802D02*
X65986266Y-32583898D01*
X66367219Y-32107707D02*
X65367219Y-32107707D01*
X65367219Y-32107707D02*
X65367219Y-31869612D01*
X65367219Y-31869612D02*
X65414838Y-31726755D01*
X65414838Y-31726755D02*
X65510076Y-31631517D01*
X65510076Y-31631517D02*
X65605314Y-31583898D01*
X65605314Y-31583898D02*
X65795790Y-31536279D01*
X65795790Y-31536279D02*
X65938647Y-31536279D01*
X65938647Y-31536279D02*
X66129123Y-31583898D01*
X66129123Y-31583898D02*
X66224361Y-31631517D01*
X66224361Y-31631517D02*
X66319600Y-31726755D01*
X66319600Y-31726755D02*
X66367219Y-31869612D01*
X66367219Y-31869612D02*
X66367219Y-32107707D01*
X66367219Y-31107707D02*
X65367219Y-31107707D01*
X66367219Y-30060089D02*
X65891028Y-30393422D01*
X66367219Y-30631517D02*
X65367219Y-30631517D01*
X65367219Y-30631517D02*
X65367219Y-30250565D01*
X65367219Y-30250565D02*
X65414838Y-30155327D01*
X65414838Y-30155327D02*
X65462457Y-30107708D01*
X65462457Y-30107708D02*
X65557695Y-30060089D01*
X65557695Y-30060089D02*
X65700552Y-30060089D01*
X65700552Y-30060089D02*
X65795790Y-30107708D01*
X65795790Y-30107708D02*
X65843409Y-30155327D01*
X65843409Y-30155327D02*
X65891028Y-30250565D01*
X65891028Y-30250565D02*
X65891028Y-30631517D01*
X34917219Y-34550564D02*
X35917219Y-33883898D01*
X34917219Y-33883898D02*
X35917219Y-34550564D01*
X35536266Y-33502945D02*
X35536266Y-32741041D01*
X35917219Y-31788660D02*
X35917219Y-32264850D01*
X35917219Y-32264850D02*
X34917219Y-32264850D01*
X35917219Y-31455326D02*
X34917219Y-31455326D01*
X35917219Y-30979136D02*
X34917219Y-30979136D01*
X34917219Y-30979136D02*
X35631504Y-30645803D01*
X35631504Y-30645803D02*
X34917219Y-30312470D01*
X34917219Y-30312470D02*
X35917219Y-30312470D01*
G36*
X55925898Y-61341957D02*
G01*
X59413686Y-61963494D01*
X59413686Y-62565064D01*
X55925898Y-61943527D01*
X55925898Y-61341957D01*
G37*
G36*
X57418252Y-60444914D02*
G01*
X57977538Y-60544565D01*
X57977538Y-61870621D01*
X57418252Y-61770969D01*
X57418252Y-60444914D01*
G37*
G36*
X55925898Y-60037517D02*
G01*
X56486679Y-60137534D01*
X56486679Y-61605006D01*
X55925898Y-61504989D01*
X55925898Y-60037517D01*
G37*
G36*
X56828619Y-59227119D02*
G01*
X59413686Y-59687822D01*
X59413686Y-60267044D01*
X56828619Y-59806341D01*
X56828619Y-59227119D01*
G37*
G36*
X56153501Y-59722260D02*
G01*
X56016188Y-59675930D01*
X55904526Y-59589637D01*
X55831498Y-59474573D01*
X55806432Y-59335929D01*
X55818632Y-59241697D01*
X55851945Y-59170806D01*
X55904526Y-59117576D01*
X55973960Y-59081377D01*
X56055271Y-59065973D01*
X56153501Y-59072697D01*
X56290571Y-59119302D01*
X56402263Y-59206236D01*
X56475336Y-59321508D01*
X56500357Y-59459577D01*
X56488126Y-59554300D01*
X56454787Y-59625270D01*
X56402263Y-59678297D01*
X56332899Y-59714061D01*
X56251653Y-59729174D01*
X56153501Y-59722260D01*
G37*
G36*
X59333330Y-57275130D02*
G01*
X59562328Y-57331206D01*
X59761672Y-57410911D01*
X59935358Y-57513817D01*
X60087227Y-57639748D01*
X60212089Y-57783394D01*
X60311278Y-57946676D01*
X60381600Y-58121324D01*
X60424712Y-58310142D01*
X60439505Y-58515457D01*
X60428970Y-58651261D01*
X60396336Y-58794993D01*
X60340840Y-58933939D01*
X60261910Y-59059691D01*
X60158232Y-59167263D01*
X60031742Y-59247636D01*
X59626543Y-58921388D01*
X59749494Y-58835082D01*
X59841538Y-58727765D01*
X59898721Y-58601397D01*
X59918902Y-58447679D01*
X59901214Y-58297998D01*
X59850728Y-58171074D01*
X59767341Y-58060553D01*
X59651975Y-57968841D01*
X59511120Y-57900612D01*
X59337176Y-57854535D01*
X59179696Y-57826460D01*
X59252335Y-57891562D01*
X59366028Y-58044495D01*
X59437119Y-58214227D01*
X59461557Y-58406830D01*
X59449926Y-58538709D01*
X59416787Y-58652747D01*
X59363677Y-58751945D01*
X59246512Y-58880142D01*
X59088843Y-58978724D01*
X58901106Y-59044063D01*
X58673172Y-59079291D01*
X58429515Y-59080574D01*
X58152141Y-59047051D01*
X58102132Y-59038075D01*
X57815523Y-58971508D01*
X57563363Y-58881638D01*
X57335020Y-58765828D01*
X57146410Y-58632876D01*
X56990676Y-58478105D01*
X56876277Y-58308278D01*
X56804821Y-58123433D01*
X56780748Y-57924877D01*
X56784908Y-57875418D01*
X57322295Y-57875418D01*
X57337677Y-57984480D01*
X57383203Y-58083513D01*
X57454403Y-58172362D01*
X57549044Y-58252041D01*
X57661196Y-58319346D01*
X57796096Y-58378620D01*
X57942295Y-58425241D01*
X58102773Y-58460868D01*
X58152996Y-58469844D01*
X58310659Y-58491054D01*
X58451338Y-58496772D01*
X58584737Y-58486096D01*
X58696039Y-58459220D01*
X58791397Y-58413272D01*
X58860811Y-58350409D01*
X58903604Y-58270451D01*
X58919155Y-58163930D01*
X58898287Y-58013578D01*
X58839226Y-57891355D01*
X58744947Y-57787603D01*
X58667486Y-57735145D01*
X57571431Y-57539746D01*
X57503737Y-57562543D01*
X57427786Y-57611105D01*
X57370167Y-57679413D01*
X57335224Y-57763223D01*
X57322295Y-57875418D01*
X56784908Y-57875418D01*
X56792746Y-57782229D01*
X56825657Y-57668704D01*
X56876277Y-57578663D01*
X56948315Y-57500278D01*
X57037910Y-57436637D01*
X57075706Y-57419469D01*
X56828619Y-57352983D01*
X56828619Y-56828715D01*
X59333330Y-57275130D01*
G37*
G36*
X58257928Y-54854378D02*
G01*
X58257928Y-54254823D01*
X58485149Y-54322180D01*
X58692622Y-54413301D01*
X58882610Y-54528681D01*
X59050622Y-54666189D01*
X59192220Y-54823783D01*
X59308539Y-55003489D01*
X59392121Y-55196065D01*
X59443716Y-55408413D01*
X59461557Y-55643893D01*
X59447635Y-55829126D01*
X59408155Y-55988974D01*
X59345511Y-56127311D01*
X59256094Y-56253461D01*
X59145280Y-56359422D01*
X59011479Y-56447147D01*
X58861033Y-56513811D01*
X58686835Y-56562604D01*
X58484891Y-56592227D01*
X58279378Y-56600000D01*
X58049879Y-56587253D01*
X57793104Y-56551378D01*
X57551395Y-56508330D01*
X57181835Y-56420678D01*
X56858325Y-56299685D01*
X56658595Y-56197825D01*
X56483324Y-56085181D01*
X56330455Y-55961714D01*
X56195712Y-55823940D01*
X56084383Y-55676966D01*
X55995354Y-55519879D01*
X55930425Y-55354432D01*
X55891261Y-55181960D01*
X55878026Y-55000924D01*
X55897867Y-54760753D01*
X55952500Y-54567702D01*
X56036814Y-54412909D01*
X56156985Y-54277989D01*
X56301726Y-54174852D01*
X56474284Y-54100584D01*
X56662905Y-54055958D01*
X56873052Y-54037466D01*
X57109010Y-54047461D01*
X57109010Y-54647016D01*
X56903880Y-54635799D01*
X56746767Y-54654160D01*
X56654423Y-54685171D01*
X56580292Y-54731798D01*
X56521514Y-54795211D01*
X56466685Y-54916432D01*
X56445219Y-55102041D01*
X56462386Y-55248028D01*
X56512325Y-55377730D01*
X56595416Y-55494666D01*
X56716206Y-55602311D01*
X56865486Y-55693072D01*
X57060070Y-55776151D01*
X57277540Y-55842141D01*
X57545411Y-55899799D01*
X57792463Y-55943763D01*
X58056173Y-55981672D01*
X58268187Y-55995054D01*
X58463878Y-55984671D01*
X58613332Y-55951273D01*
X58737411Y-55890084D01*
X58824266Y-55803811D01*
X58875863Y-55693515D01*
X58895005Y-55542777D01*
X58875929Y-55362966D01*
X58823198Y-55220010D01*
X58734280Y-55096767D01*
X58610127Y-54995245D01*
X58456177Y-54916914D01*
X58257928Y-54854378D01*
G37*
G36*
X55925898Y-51009752D02*
G01*
X59413686Y-51631289D01*
X59413686Y-52231943D01*
X57075671Y-52988668D01*
X59413686Y-53405225D01*
X59413686Y-54006795D01*
X55925898Y-53385258D01*
X55925898Y-52783688D01*
X58266263Y-52025680D01*
X55925898Y-51608574D01*
X55925898Y-51009752D01*
G37*
G36*
X58257928Y-49144958D02*
G01*
X58257928Y-48545403D01*
X58485149Y-48612759D01*
X58692622Y-48703880D01*
X58882610Y-48819260D01*
X59050622Y-48956769D01*
X59192220Y-49114362D01*
X59308539Y-49294068D01*
X59392121Y-49486644D01*
X59443716Y-49698992D01*
X59461557Y-49934473D01*
X59447635Y-50119705D01*
X59408155Y-50279553D01*
X59345511Y-50417890D01*
X59256094Y-50544040D01*
X59145280Y-50650001D01*
X59011479Y-50737726D01*
X58861033Y-50804390D01*
X58686835Y-50853184D01*
X58484891Y-50882807D01*
X58279378Y-50890579D01*
X58049879Y-50877832D01*
X57793104Y-50841957D01*
X57551395Y-50798909D01*
X57181835Y-50711257D01*
X56858325Y-50590265D01*
X56658595Y-50488404D01*
X56483324Y-50375761D01*
X56330455Y-50252294D01*
X56195712Y-50114520D01*
X56084383Y-49967545D01*
X55995354Y-49810458D01*
X55930425Y-49645011D01*
X55891261Y-49472539D01*
X55878026Y-49291503D01*
X55897867Y-49051333D01*
X55952500Y-48858281D01*
X56036814Y-48703489D01*
X56156985Y-48568568D01*
X56301726Y-48465431D01*
X56474284Y-48391163D01*
X56662905Y-48346537D01*
X56873052Y-48328045D01*
X57109010Y-48338040D01*
X57109010Y-48937595D01*
X56903880Y-48926378D01*
X56746767Y-48944740D01*
X56654423Y-48975750D01*
X56580292Y-49022378D01*
X56521514Y-49085790D01*
X56466685Y-49207012D01*
X56445219Y-49392620D01*
X56462386Y-49538607D01*
X56512325Y-49668309D01*
X56595416Y-49785245D01*
X56716206Y-49892890D01*
X56865486Y-49983652D01*
X57060070Y-50066730D01*
X57277540Y-50132720D01*
X57545411Y-50190378D01*
X57792463Y-50234342D01*
X58056173Y-50272251D01*
X58268187Y-50285633D01*
X58463878Y-50275251D01*
X58613332Y-50241852D01*
X58737411Y-50180664D01*
X58824266Y-50094391D01*
X58875863Y-49984095D01*
X58895005Y-49833356D01*
X58875929Y-49653545D01*
X58823198Y-49510589D01*
X58734280Y-49387347D01*
X58610127Y-49285825D01*
X58456177Y-49207493D01*
X58257928Y-49144958D01*
G37*
X102467219Y-37153740D02*
X102467219Y-37629930D01*
X102467219Y-37629930D02*
X102943409Y-37677549D01*
X102943409Y-37677549D02*
X102895790Y-37629930D01*
X102895790Y-37629930D02*
X102848171Y-37534692D01*
X102848171Y-37534692D02*
X102848171Y-37296597D01*
X102848171Y-37296597D02*
X102895790Y-37201359D01*
X102895790Y-37201359D02*
X102943409Y-37153740D01*
X102943409Y-37153740D02*
X103038647Y-37106121D01*
X103038647Y-37106121D02*
X103276742Y-37106121D01*
X103276742Y-37106121D02*
X103371980Y-37153740D01*
X103371980Y-37153740D02*
X103419600Y-37201359D01*
X103419600Y-37201359D02*
X103467219Y-37296597D01*
X103467219Y-37296597D02*
X103467219Y-37534692D01*
X103467219Y-37534692D02*
X103419600Y-37629930D01*
X103419600Y-37629930D02*
X103371980Y-37677549D01*
X102467219Y-36820406D02*
X103467219Y-36487073D01*
X103467219Y-36487073D02*
X102467219Y-36153740D01*
X102467219Y-42998183D02*
X102467219Y-42426755D01*
X103467219Y-42712469D02*
X102467219Y-42712469D01*
X102467219Y-42188659D02*
X103467219Y-41521993D01*
X102467219Y-41521993D02*
X103467219Y-42188659D01*
X31991695Y-52954136D02*
X31991695Y-52420802D01*
X31991695Y-52420802D02*
X32791695Y-52954136D01*
X32791695Y-52954136D02*
X32791695Y-52420802D01*
X32486933Y-52116040D02*
X32486933Y-51506517D01*
X32791695Y-51125564D02*
X31991695Y-51125564D01*
X31991695Y-51125564D02*
X31991695Y-50820802D01*
X31991695Y-50820802D02*
X32029790Y-50744612D01*
X32029790Y-50744612D02*
X32067885Y-50706517D01*
X32067885Y-50706517D02*
X32144076Y-50668421D01*
X32144076Y-50668421D02*
X32258361Y-50668421D01*
X32258361Y-50668421D02*
X32334552Y-50706517D01*
X32334552Y-50706517D02*
X32372647Y-50744612D01*
X32372647Y-50744612D02*
X32410742Y-50820802D01*
X32410742Y-50820802D02*
X32410742Y-51125564D01*
X32791695Y-49868421D02*
X32410742Y-50135088D01*
X32791695Y-50325564D02*
X31991695Y-50325564D01*
X31991695Y-50325564D02*
X31991695Y-50020802D01*
X31991695Y-50020802D02*
X32029790Y-49944612D01*
X32029790Y-49944612D02*
X32067885Y-49906517D01*
X32067885Y-49906517D02*
X32144076Y-49868421D01*
X32144076Y-49868421D02*
X32258361Y-49868421D01*
X32258361Y-49868421D02*
X32334552Y-49906517D01*
X32334552Y-49906517D02*
X32372647Y-49944612D01*
X32372647Y-49944612D02*
X32410742Y-50020802D01*
X32410742Y-50020802D02*
X32410742Y-50325564D01*
X31991695Y-49373183D02*
X31991695Y-49220802D01*
X31991695Y-49220802D02*
X32029790Y-49144612D01*
X32029790Y-49144612D02*
X32105980Y-49068421D01*
X32105980Y-49068421D02*
X32258361Y-49030326D01*
X32258361Y-49030326D02*
X32525028Y-49030326D01*
X32525028Y-49030326D02*
X32677409Y-49068421D01*
X32677409Y-49068421D02*
X32753600Y-49144612D01*
X32753600Y-49144612D02*
X32791695Y-49220802D01*
X32791695Y-49220802D02*
X32791695Y-49373183D01*
X32791695Y-49373183D02*
X32753600Y-49449374D01*
X32753600Y-49449374D02*
X32677409Y-49525564D01*
X32677409Y-49525564D02*
X32525028Y-49563660D01*
X32525028Y-49563660D02*
X32258361Y-49563660D01*
X32258361Y-49563660D02*
X32105980Y-49525564D01*
X32105980Y-49525564D02*
X32029790Y-49449374D01*
X32029790Y-49449374D02*
X31991695Y-49373183D01*
X32372647Y-48420803D02*
X32410742Y-48306517D01*
X32410742Y-48306517D02*
X32448838Y-48268422D01*
X32448838Y-48268422D02*
X32525028Y-48230326D01*
X32525028Y-48230326D02*
X32639314Y-48230326D01*
X32639314Y-48230326D02*
X32715504Y-48268422D01*
X32715504Y-48268422D02*
X32753600Y-48306517D01*
X32753600Y-48306517D02*
X32791695Y-48382707D01*
X32791695Y-48382707D02*
X32791695Y-48687469D01*
X32791695Y-48687469D02*
X31991695Y-48687469D01*
X31991695Y-48687469D02*
X31991695Y-48420803D01*
X31991695Y-48420803D02*
X32029790Y-48344612D01*
X32029790Y-48344612D02*
X32067885Y-48306517D01*
X32067885Y-48306517D02*
X32144076Y-48268422D01*
X32144076Y-48268422D02*
X32220266Y-48268422D01*
X32220266Y-48268422D02*
X32296457Y-48306517D01*
X32296457Y-48306517D02*
X32334552Y-48344612D01*
X32334552Y-48344612D02*
X32372647Y-48420803D01*
X32372647Y-48420803D02*
X32372647Y-48687469D01*
X32372647Y-47887469D02*
X32372647Y-47620803D01*
X32791695Y-47506517D02*
X32791695Y-47887469D01*
X32791695Y-47887469D02*
X31991695Y-47887469D01*
X31991695Y-47887469D02*
X31991695Y-47506517D01*
X96643409Y-56171993D02*
X96643409Y-56505326D01*
X97167219Y-56505326D02*
X96167219Y-56505326D01*
X96167219Y-56505326D02*
X96167219Y-56029136D01*
X96167219Y-55791040D02*
X96167219Y-55219612D01*
X97167219Y-55505326D02*
X96167219Y-55505326D01*
X97167219Y-54886278D02*
X96167219Y-54886278D01*
X96167219Y-54886278D02*
X96167219Y-54648183D01*
X96167219Y-54648183D02*
X96214838Y-54505326D01*
X96214838Y-54505326D02*
X96310076Y-54410088D01*
X96310076Y-54410088D02*
X96405314Y-54362469D01*
X96405314Y-54362469D02*
X96595790Y-54314850D01*
X96595790Y-54314850D02*
X96738647Y-54314850D01*
X96738647Y-54314850D02*
X96929123Y-54362469D01*
X96929123Y-54362469D02*
X97024361Y-54410088D01*
X97024361Y-54410088D02*
X97119600Y-54505326D01*
X97119600Y-54505326D02*
X97167219Y-54648183D01*
X97167219Y-54648183D02*
X97167219Y-54886278D01*
X97167219Y-53886278D02*
X96167219Y-53886278D01*
X50061574Y-34535359D02*
X50061574Y-33868693D01*
X50061574Y-33868693D02*
X51061574Y-34535359D01*
X51061574Y-34535359D02*
X51061574Y-33868693D01*
X50680621Y-33487740D02*
X50680621Y-32725836D01*
X51061574Y-31773455D02*
X51061574Y-32249645D01*
X51061574Y-32249645D02*
X50061574Y-32249645D01*
X51061574Y-31440121D02*
X50061574Y-31440121D01*
X51061574Y-30963931D02*
X50061574Y-30963931D01*
X50061574Y-30963931D02*
X50775859Y-30630598D01*
X50775859Y-30630598D02*
X50061574Y-30297265D01*
X50061574Y-30297265D02*
X51061574Y-30297265D01*
X101550195Y-53476619D02*
X101550195Y-52905191D01*
X102550195Y-53190905D02*
X101550195Y-53190905D01*
X101550195Y-52667095D02*
X102550195Y-52000429D01*
X101550195Y-52000429D02*
X102550195Y-52667095D01*
X32164838Y-43556517D02*
X32117219Y-43651755D01*
X32117219Y-43651755D02*
X32117219Y-43794612D01*
X32117219Y-43794612D02*
X32164838Y-43937469D01*
X32164838Y-43937469D02*
X32260076Y-44032707D01*
X32260076Y-44032707D02*
X32355314Y-44080326D01*
X32355314Y-44080326D02*
X32545790Y-44127945D01*
X32545790Y-44127945D02*
X32688647Y-44127945D01*
X32688647Y-44127945D02*
X32879123Y-44080326D01*
X32879123Y-44080326D02*
X32974361Y-44032707D01*
X32974361Y-44032707D02*
X33069600Y-43937469D01*
X33069600Y-43937469D02*
X33117219Y-43794612D01*
X33117219Y-43794612D02*
X33117219Y-43699374D01*
X33117219Y-43699374D02*
X33069600Y-43556517D01*
X33069600Y-43556517D02*
X33021980Y-43508898D01*
X33021980Y-43508898D02*
X32688647Y-43508898D01*
X32688647Y-43508898D02*
X32688647Y-43699374D01*
X103467219Y-44908898D02*
X102991028Y-45242231D01*
X103467219Y-45480326D02*
X102467219Y-45480326D01*
X102467219Y-45480326D02*
X102467219Y-45099374D01*
X102467219Y-45099374D02*
X102514838Y-45004136D01*
X102514838Y-45004136D02*
X102562457Y-44956517D01*
X102562457Y-44956517D02*
X102657695Y-44908898D01*
X102657695Y-44908898D02*
X102800552Y-44908898D01*
X102800552Y-44908898D02*
X102895790Y-44956517D01*
X102895790Y-44956517D02*
X102943409Y-45004136D01*
X102943409Y-45004136D02*
X102991028Y-45099374D01*
X102991028Y-45099374D02*
X102991028Y-45480326D01*
X102467219Y-44575564D02*
X103467219Y-43908898D01*
X102467219Y-43908898D02*
X103467219Y-44575564D01*
X32743482Y-59935897D02*
X32648244Y-59888278D01*
X32648244Y-59888278D02*
X32505387Y-59888278D01*
X32505387Y-59888278D02*
X32362530Y-59935897D01*
X32362530Y-59935897D02*
X32267292Y-60031135D01*
X32267292Y-60031135D02*
X32219673Y-60126373D01*
X32219673Y-60126373D02*
X32172054Y-60316849D01*
X32172054Y-60316849D02*
X32172054Y-60459706D01*
X32172054Y-60459706D02*
X32219673Y-60650182D01*
X32219673Y-60650182D02*
X32267292Y-60745420D01*
X32267292Y-60745420D02*
X32362530Y-60840659D01*
X32362530Y-60840659D02*
X32505387Y-60888278D01*
X32505387Y-60888278D02*
X32600625Y-60888278D01*
X32600625Y-60888278D02*
X32743482Y-60840659D01*
X32743482Y-60840659D02*
X32791101Y-60793039D01*
X32791101Y-60793039D02*
X32791101Y-60459706D01*
X32791101Y-60459706D02*
X32600625Y-60459706D01*
X33219673Y-60888278D02*
X33219673Y-59888278D01*
X33219673Y-59888278D02*
X33791101Y-60888278D01*
X33791101Y-60888278D02*
X33791101Y-59888278D01*
X34267292Y-60888278D02*
X34267292Y-59888278D01*
X34267292Y-59888278D02*
X34505387Y-59888278D01*
X34505387Y-59888278D02*
X34648244Y-59935897D01*
X34648244Y-59935897D02*
X34743482Y-60031135D01*
X34743482Y-60031135D02*
X34791101Y-60126373D01*
X34791101Y-60126373D02*
X34838720Y-60316849D01*
X34838720Y-60316849D02*
X34838720Y-60459706D01*
X34838720Y-60459706D02*
X34791101Y-60650182D01*
X34791101Y-60650182D02*
X34743482Y-60745420D01*
X34743482Y-60745420D02*
X34648244Y-60840659D01*
X34648244Y-60840659D02*
X34505387Y-60888278D01*
X34505387Y-60888278D02*
X34267292Y-60888278D01*
G36*
X62082267Y-61671732D02*
G01*
X62082267Y-62167179D01*
X61762187Y-62100622D01*
X61762187Y-61605176D01*
X61751748Y-61495190D01*
X61723108Y-61409659D01*
X61676005Y-61337281D01*
X61614176Y-61281676D01*
X61540385Y-61241259D01*
X61456639Y-61215364D01*
X61369210Y-61205926D01*
X61290921Y-61214509D01*
X61221565Y-61243220D01*
X61167578Y-61294133D01*
X61133842Y-61365052D01*
X61120927Y-61471941D01*
X61120927Y-61828414D01*
X62793503Y-62176093D01*
X62793503Y-62577140D01*
X60800481Y-62162782D01*
X60800481Y-61405263D01*
X60810903Y-61254002D01*
X60839789Y-61130441D01*
X60884623Y-61029618D01*
X60948854Y-60940978D01*
X61025643Y-60874283D01*
X61116531Y-60827140D01*
X61216268Y-60800719D01*
X61327847Y-60794399D01*
X61454319Y-60810287D01*
X61578876Y-60846164D01*
X61689553Y-60898297D01*
X61788199Y-60966725D01*
X61874232Y-61050453D01*
X61946589Y-61148526D01*
X62005697Y-61262625D01*
X62047364Y-61384539D01*
X62073267Y-61520190D01*
X62082267Y-61671732D01*
G37*
G36*
X61638478Y-60172569D02*
G01*
X62793503Y-60412660D01*
X62793503Y-60797465D01*
X61316322Y-60490329D01*
X61316322Y-60127507D01*
X61638478Y-60172569D01*
G37*
G36*
X61306308Y-59668086D02*
G01*
X61671817Y-59749785D01*
X61664246Y-59815975D01*
X61660826Y-59886927D01*
X61666418Y-59965320D01*
X61682198Y-60031885D01*
X61708510Y-60092368D01*
X61743869Y-60143871D01*
X61788506Y-60187546D01*
X61843154Y-60223860D01*
X61904793Y-60251631D01*
X61976999Y-60272953D01*
X61953185Y-60345615D01*
X61813127Y-60309377D01*
X61688548Y-60262817D01*
X61573808Y-60203987D01*
X61477644Y-60137276D01*
X61396539Y-60059101D01*
X61338181Y-59975343D01*
X61301282Y-59882972D01*
X61288967Y-59783979D01*
X61293607Y-59720354D01*
X61306308Y-59668086D01*
G37*
G36*
X62041235Y-58350273D02*
G01*
X62069933Y-58356257D01*
X62226022Y-58400203D01*
X62368276Y-58463724D01*
X62497224Y-58546906D01*
X62607145Y-58646418D01*
X62697413Y-58762521D01*
X62764926Y-58893714D01*
X62806552Y-59036848D01*
X62820858Y-59196209D01*
X62814102Y-59304529D01*
X62795027Y-59397238D01*
X62764926Y-59476721D01*
X62721881Y-59549530D01*
X62669468Y-59609992D01*
X62607145Y-59659415D01*
X62498465Y-59712787D01*
X62368276Y-59742702D01*
X62228319Y-59747062D01*
X62069933Y-59725971D01*
X62041235Y-59719987D01*
X61883993Y-59675827D01*
X61741671Y-59612398D01*
X61612736Y-59529341D01*
X61503412Y-59430193D01*
X61413517Y-59314317D01*
X61345631Y-59182897D01*
X61303437Y-59039461D01*
X61294777Y-58944272D01*
X61596590Y-58944272D01*
X61605681Y-59021741D01*
X61632128Y-59089352D01*
X61673787Y-59149264D01*
X61729581Y-59202193D01*
X61795259Y-59246237D01*
X61871486Y-59283525D01*
X61953142Y-59312727D01*
X62041235Y-59335183D01*
X62069933Y-59341167D01*
X62161384Y-59355934D01*
X62243101Y-59360828D01*
X62320585Y-59355083D01*
X62384396Y-59338358D01*
X62438814Y-59308235D01*
X62479162Y-59264963D01*
X62504046Y-59209046D01*
X62513234Y-59132217D01*
X62504488Y-59054716D01*
X62479162Y-58987503D01*
X62438811Y-58927956D01*
X62384396Y-58875518D01*
X62319674Y-58831709D01*
X62243101Y-58794185D01*
X62160460Y-58764628D01*
X62069933Y-58741551D01*
X62041235Y-58735567D01*
X61952258Y-58721385D01*
X61871486Y-58716882D01*
X61794378Y-58722743D01*
X61729581Y-58739474D01*
X61673746Y-58769367D01*
X61632128Y-58812259D01*
X61606157Y-58867759D01*
X61596590Y-58944272D01*
X61294777Y-58944272D01*
X61288967Y-58880403D01*
X61295828Y-58771453D01*
X61315166Y-58678620D01*
X61345631Y-58599401D01*
X61388969Y-58526756D01*
X61441394Y-58466368D01*
X61503412Y-58416952D01*
X61611496Y-58363518D01*
X61741671Y-58333543D01*
X61881679Y-58329052D01*
X62041235Y-58350273D01*
G37*
X97669673Y-32467219D02*
X97669673Y-33276742D01*
X97669673Y-33276742D02*
X97717292Y-33371980D01*
X97717292Y-33371980D02*
X97764911Y-33419600D01*
X97764911Y-33419600D02*
X97860149Y-33467219D01*
X97860149Y-33467219D02*
X98050625Y-33467219D01*
X98050625Y-33467219D02*
X98145863Y-33419600D01*
X98145863Y-33419600D02*
X98193482Y-33371980D01*
X98193482Y-33371980D02*
X98241101Y-33276742D01*
X98241101Y-33276742D02*
X98241101Y-32467219D01*
X98669673Y-33181504D02*
X99145863Y-33181504D01*
X98574435Y-33467219D02*
X98907768Y-32467219D01*
X98907768Y-32467219D02*
X99241101Y-33467219D01*
X100145863Y-33467219D02*
X99812530Y-32991028D01*
X99574435Y-33467219D02*
X99574435Y-32467219D01*
X99574435Y-32467219D02*
X99955387Y-32467219D01*
X99955387Y-32467219D02*
X100050625Y-32514838D01*
X100050625Y-32514838D02*
X100098244Y-32562457D01*
X100098244Y-32562457D02*
X100145863Y-32657695D01*
X100145863Y-32657695D02*
X100145863Y-32800552D01*
X100145863Y-32800552D02*
X100098244Y-32895790D01*
X100098244Y-32895790D02*
X100050625Y-32943409D01*
X100050625Y-32943409D02*
X99955387Y-32991028D01*
X99955387Y-32991028D02*
X99574435Y-32991028D01*
X100431578Y-32467219D02*
X101003006Y-32467219D01*
X100717292Y-33467219D02*
X100717292Y-32467219D01*
X23415645Y-29991041D02*
X23453740Y-29876755D01*
X23453740Y-29876755D02*
X23453740Y-29686279D01*
X23453740Y-29686279D02*
X23415645Y-29610088D01*
X23415645Y-29610088D02*
X23377549Y-29571993D01*
X23377549Y-29571993D02*
X23301359Y-29533898D01*
X23301359Y-29533898D02*
X23225168Y-29533898D01*
X23225168Y-29533898D02*
X23148978Y-29571993D01*
X23148978Y-29571993D02*
X23110883Y-29610088D01*
X23110883Y-29610088D02*
X23072787Y-29686279D01*
X23072787Y-29686279D02*
X23034692Y-29838660D01*
X23034692Y-29838660D02*
X22996597Y-29914850D01*
X22996597Y-29914850D02*
X22958502Y-29952945D01*
X22958502Y-29952945D02*
X22882311Y-29991041D01*
X22882311Y-29991041D02*
X22806121Y-29991041D01*
X22806121Y-29991041D02*
X22729930Y-29952945D01*
X22729930Y-29952945D02*
X22691835Y-29914850D01*
X22691835Y-29914850D02*
X22653740Y-29838660D01*
X22653740Y-29838660D02*
X22653740Y-29648183D01*
X22653740Y-29648183D02*
X22691835Y-29533898D01*
X23453740Y-29191040D02*
X22653740Y-29191040D01*
X22653740Y-29191040D02*
X22653740Y-28886278D01*
X22653740Y-28886278D02*
X22691835Y-28810088D01*
X22691835Y-28810088D02*
X22729930Y-28771993D01*
X22729930Y-28771993D02*
X22806121Y-28733897D01*
X22806121Y-28733897D02*
X22920406Y-28733897D01*
X22920406Y-28733897D02*
X22996597Y-28771993D01*
X22996597Y-28771993D02*
X23034692Y-28810088D01*
X23034692Y-28810088D02*
X23072787Y-28886278D01*
X23072787Y-28886278D02*
X23072787Y-29191040D01*
X23453740Y-28391040D02*
X22653740Y-28391040D01*
X23453740Y-28010088D02*
X22653740Y-28010088D01*
X22653740Y-28010088D02*
X23453740Y-27552945D01*
X23453740Y-27552945D02*
X22653740Y-27552945D01*
X23453740Y-27171993D02*
X22653740Y-27171993D01*
X22653740Y-27171993D02*
X22653740Y-26981517D01*
X22653740Y-26981517D02*
X22691835Y-26867231D01*
X22691835Y-26867231D02*
X22768025Y-26791041D01*
X22768025Y-26791041D02*
X22844216Y-26752946D01*
X22844216Y-26752946D02*
X22996597Y-26714850D01*
X22996597Y-26714850D02*
X23110883Y-26714850D01*
X23110883Y-26714850D02*
X23263264Y-26752946D01*
X23263264Y-26752946D02*
X23339454Y-26791041D01*
X23339454Y-26791041D02*
X23415645Y-26867231D01*
X23415645Y-26867231D02*
X23453740Y-26981517D01*
X23453740Y-26981517D02*
X23453740Y-27171993D01*
X23453740Y-25991041D02*
X23453740Y-26371993D01*
X23453740Y-26371993D02*
X22653740Y-26371993D01*
X23034692Y-25724374D02*
X23034692Y-25457708D01*
X23453740Y-25343422D02*
X23453740Y-25724374D01*
X23453740Y-25724374D02*
X22653740Y-25724374D01*
X22653740Y-25724374D02*
X22653740Y-25343422D01*
X24741695Y-29495802D02*
X24360742Y-29762469D01*
X24741695Y-29952945D02*
X23941695Y-29952945D01*
X23941695Y-29952945D02*
X23941695Y-29648183D01*
X23941695Y-29648183D02*
X23979790Y-29571993D01*
X23979790Y-29571993D02*
X24017885Y-29533898D01*
X24017885Y-29533898D02*
X24094076Y-29495802D01*
X24094076Y-29495802D02*
X24208361Y-29495802D01*
X24208361Y-29495802D02*
X24284552Y-29533898D01*
X24284552Y-29533898D02*
X24322647Y-29571993D01*
X24322647Y-29571993D02*
X24360742Y-29648183D01*
X24360742Y-29648183D02*
X24360742Y-29952945D01*
X24703600Y-29191041D02*
X24741695Y-29076755D01*
X24741695Y-29076755D02*
X24741695Y-28886279D01*
X24741695Y-28886279D02*
X24703600Y-28810088D01*
X24703600Y-28810088D02*
X24665504Y-28771993D01*
X24665504Y-28771993D02*
X24589314Y-28733898D01*
X24589314Y-28733898D02*
X24513123Y-28733898D01*
X24513123Y-28733898D02*
X24436933Y-28771993D01*
X24436933Y-28771993D02*
X24398838Y-28810088D01*
X24398838Y-28810088D02*
X24360742Y-28886279D01*
X24360742Y-28886279D02*
X24322647Y-29038660D01*
X24322647Y-29038660D02*
X24284552Y-29114850D01*
X24284552Y-29114850D02*
X24246457Y-29152945D01*
X24246457Y-29152945D02*
X24170266Y-29191041D01*
X24170266Y-29191041D02*
X24094076Y-29191041D01*
X24094076Y-29191041D02*
X24017885Y-29152945D01*
X24017885Y-29152945D02*
X23979790Y-29114850D01*
X23979790Y-29114850D02*
X23941695Y-29038660D01*
X23941695Y-29038660D02*
X23941695Y-28848183D01*
X23941695Y-28848183D02*
X23979790Y-28733898D01*
X24208361Y-28048183D02*
X24741695Y-28048183D01*
X23903600Y-28238659D02*
X24475028Y-28429136D01*
X24475028Y-28429136D02*
X24475028Y-27933897D01*
X24284552Y-27514850D02*
X24246457Y-27591040D01*
X24246457Y-27591040D02*
X24208361Y-27629135D01*
X24208361Y-27629135D02*
X24132171Y-27667231D01*
X24132171Y-27667231D02*
X24094076Y-27667231D01*
X24094076Y-27667231D02*
X24017885Y-27629135D01*
X24017885Y-27629135D02*
X23979790Y-27591040D01*
X23979790Y-27591040D02*
X23941695Y-27514850D01*
X23941695Y-27514850D02*
X23941695Y-27362469D01*
X23941695Y-27362469D02*
X23979790Y-27286278D01*
X23979790Y-27286278D02*
X24017885Y-27248183D01*
X24017885Y-27248183D02*
X24094076Y-27210088D01*
X24094076Y-27210088D02*
X24132171Y-27210088D01*
X24132171Y-27210088D02*
X24208361Y-27248183D01*
X24208361Y-27248183D02*
X24246457Y-27286278D01*
X24246457Y-27286278D02*
X24284552Y-27362469D01*
X24284552Y-27362469D02*
X24284552Y-27514850D01*
X24284552Y-27514850D02*
X24322647Y-27591040D01*
X24322647Y-27591040D02*
X24360742Y-27629135D01*
X24360742Y-27629135D02*
X24436933Y-27667231D01*
X24436933Y-27667231D02*
X24589314Y-27667231D01*
X24589314Y-27667231D02*
X24665504Y-27629135D01*
X24665504Y-27629135D02*
X24703600Y-27591040D01*
X24703600Y-27591040D02*
X24741695Y-27514850D01*
X24741695Y-27514850D02*
X24741695Y-27362469D01*
X24741695Y-27362469D02*
X24703600Y-27286278D01*
X24703600Y-27286278D02*
X24665504Y-27248183D01*
X24665504Y-27248183D02*
X24589314Y-27210088D01*
X24589314Y-27210088D02*
X24436933Y-27210088D01*
X24436933Y-27210088D02*
X24360742Y-27248183D01*
X24360742Y-27248183D02*
X24322647Y-27286278D01*
X24322647Y-27286278D02*
X24284552Y-27362469D01*
X23941695Y-26486278D02*
X23941695Y-26867230D01*
X23941695Y-26867230D02*
X24322647Y-26905326D01*
X24322647Y-26905326D02*
X24284552Y-26867230D01*
X24284552Y-26867230D02*
X24246457Y-26791040D01*
X24246457Y-26791040D02*
X24246457Y-26600564D01*
X24246457Y-26600564D02*
X24284552Y-26524373D01*
X24284552Y-26524373D02*
X24322647Y-26486278D01*
X24322647Y-26486278D02*
X24398838Y-26448183D01*
X24398838Y-26448183D02*
X24589314Y-26448183D01*
X24589314Y-26448183D02*
X24665504Y-26486278D01*
X24665504Y-26486278D02*
X24703600Y-26524373D01*
X24703600Y-26524373D02*
X24741695Y-26600564D01*
X24741695Y-26600564D02*
X24741695Y-26791040D01*
X24741695Y-26791040D02*
X24703600Y-26867230D01*
X24703600Y-26867230D02*
X24665504Y-26905326D01*
X81291028Y-35314850D02*
X81767219Y-35314850D01*
X80767219Y-35648183D02*
X81291028Y-35314850D01*
X81291028Y-35314850D02*
X80767219Y-34981517D01*
X81767219Y-34124374D02*
X81767219Y-34695802D01*
X81767219Y-34410088D02*
X80767219Y-34410088D01*
X80767219Y-34410088D02*
X80910076Y-34505326D01*
X80910076Y-34505326D02*
X81005314Y-34600564D01*
X81005314Y-34600564D02*
X81052933Y-34695802D01*
X81386266Y-33695802D02*
X81386266Y-32933898D01*
X81719600Y-32505326D02*
X81767219Y-32362469D01*
X81767219Y-32362469D02*
X81767219Y-32124374D01*
X81767219Y-32124374D02*
X81719600Y-32029136D01*
X81719600Y-32029136D02*
X81671980Y-31981517D01*
X81671980Y-31981517D02*
X81576742Y-31933898D01*
X81576742Y-31933898D02*
X81481504Y-31933898D01*
X81481504Y-31933898D02*
X81386266Y-31981517D01*
X81386266Y-31981517D02*
X81338647Y-32029136D01*
X81338647Y-32029136D02*
X81291028Y-32124374D01*
X81291028Y-32124374D02*
X81243409Y-32314850D01*
X81243409Y-32314850D02*
X81195790Y-32410088D01*
X81195790Y-32410088D02*
X81148171Y-32457707D01*
X81148171Y-32457707D02*
X81052933Y-32505326D01*
X81052933Y-32505326D02*
X80957695Y-32505326D01*
X80957695Y-32505326D02*
X80862457Y-32457707D01*
X80862457Y-32457707D02*
X80814838Y-32410088D01*
X80814838Y-32410088D02*
X80767219Y-32314850D01*
X80767219Y-32314850D02*
X80767219Y-32076755D01*
X80767219Y-32076755D02*
X80814838Y-31933898D01*
X80767219Y-31648183D02*
X80767219Y-31076755D01*
X81767219Y-31362469D02*
X80767219Y-31362469D01*
X81767219Y-30743421D02*
X80767219Y-30743421D01*
X80767219Y-30743421D02*
X80767219Y-30362469D01*
X80767219Y-30362469D02*
X80814838Y-30267231D01*
X80814838Y-30267231D02*
X80862457Y-30219612D01*
X80862457Y-30219612D02*
X80957695Y-30171993D01*
X80957695Y-30171993D02*
X81100552Y-30171993D01*
X81100552Y-30171993D02*
X81195790Y-30219612D01*
X81195790Y-30219612D02*
X81243409Y-30267231D01*
X81243409Y-30267231D02*
X81291028Y-30362469D01*
X81291028Y-30362469D02*
X81291028Y-30743421D01*
X32750457Y-33627945D02*
X32750457Y-33151755D01*
X33036172Y-33723183D02*
X32036172Y-33389850D01*
X32036172Y-33389850D02*
X33036172Y-33056517D01*
X102514838Y-39706517D02*
X102467219Y-39801755D01*
X102467219Y-39801755D02*
X102467219Y-39944612D01*
X102467219Y-39944612D02*
X102514838Y-40087469D01*
X102514838Y-40087469D02*
X102610076Y-40182707D01*
X102610076Y-40182707D02*
X102705314Y-40230326D01*
X102705314Y-40230326D02*
X102895790Y-40277945D01*
X102895790Y-40277945D02*
X103038647Y-40277945D01*
X103038647Y-40277945D02*
X103229123Y-40230326D01*
X103229123Y-40230326D02*
X103324361Y-40182707D01*
X103324361Y-40182707D02*
X103419600Y-40087469D01*
X103419600Y-40087469D02*
X103467219Y-39944612D01*
X103467219Y-39944612D02*
X103467219Y-39849374D01*
X103467219Y-39849374D02*
X103419600Y-39706517D01*
X103419600Y-39706517D02*
X103371980Y-39658898D01*
X103371980Y-39658898D02*
X103038647Y-39658898D01*
X103038647Y-39658898D02*
X103038647Y-39849374D01*
X76041028Y-34964850D02*
X76517219Y-34964850D01*
X75517219Y-35298183D02*
X76041028Y-34964850D01*
X76041028Y-34964850D02*
X75517219Y-34631517D01*
X76517219Y-33774374D02*
X76517219Y-34345802D01*
X76517219Y-34060088D02*
X75517219Y-34060088D01*
X75517219Y-34060088D02*
X75660076Y-34155326D01*
X75660076Y-34155326D02*
X75755314Y-34250564D01*
X75755314Y-34250564D02*
X75802933Y-34345802D01*
X76136266Y-33345802D02*
X76136266Y-32583898D01*
X76517219Y-32107707D02*
X75517219Y-32107707D01*
X75517219Y-32107707D02*
X75517219Y-31869612D01*
X75517219Y-31869612D02*
X75564838Y-31726755D01*
X75564838Y-31726755D02*
X75660076Y-31631517D01*
X75660076Y-31631517D02*
X75755314Y-31583898D01*
X75755314Y-31583898D02*
X75945790Y-31536279D01*
X75945790Y-31536279D02*
X76088647Y-31536279D01*
X76088647Y-31536279D02*
X76279123Y-31583898D01*
X76279123Y-31583898D02*
X76374361Y-31631517D01*
X76374361Y-31631517D02*
X76469600Y-31726755D01*
X76469600Y-31726755D02*
X76517219Y-31869612D01*
X76517219Y-31869612D02*
X76517219Y-32107707D01*
X76517219Y-31107707D02*
X75517219Y-31107707D01*
X76517219Y-30060089D02*
X76041028Y-30393422D01*
X76517219Y-30631517D02*
X75517219Y-30631517D01*
X75517219Y-30631517D02*
X75517219Y-30250565D01*
X75517219Y-30250565D02*
X75564838Y-30155327D01*
X75564838Y-30155327D02*
X75612457Y-30107708D01*
X75612457Y-30107708D02*
X75707695Y-30060089D01*
X75707695Y-30060089D02*
X75850552Y-30060089D01*
X75850552Y-30060089D02*
X75945790Y-30107708D01*
X75945790Y-30107708D02*
X75993409Y-30155327D01*
X75993409Y-30155327D02*
X76041028Y-30250565D01*
X76041028Y-30250565D02*
X76041028Y-30631517D01*
X45451017Y-34888778D02*
X45927208Y-34888778D01*
X44927208Y-35222111D02*
X45451017Y-34888778D01*
X45451017Y-34888778D02*
X44927208Y-34555445D01*
X45022446Y-34269730D02*
X44974827Y-34222111D01*
X44974827Y-34222111D02*
X44927208Y-34126873D01*
X44927208Y-34126873D02*
X44927208Y-33888778D01*
X44927208Y-33888778D02*
X44974827Y-33793540D01*
X44974827Y-33793540D02*
X45022446Y-33745921D01*
X45022446Y-33745921D02*
X45117684Y-33698302D01*
X45117684Y-33698302D02*
X45212922Y-33698302D01*
X45212922Y-33698302D02*
X45355779Y-33745921D01*
X45355779Y-33745921D02*
X45927208Y-34317349D01*
X45927208Y-34317349D02*
X45927208Y-33698302D01*
X45546255Y-33269730D02*
X45546255Y-32507826D01*
X45927208Y-31555445D02*
X45927208Y-32031635D01*
X45927208Y-32031635D02*
X44927208Y-32031635D01*
X45927208Y-31222111D02*
X44927208Y-31222111D01*
X45927208Y-30745921D02*
X44927208Y-30745921D01*
X44927208Y-30745921D02*
X45641493Y-30412588D01*
X45641493Y-30412588D02*
X44927208Y-30079255D01*
X44927208Y-30079255D02*
X45927208Y-30079255D01*
X55103643Y-34474887D02*
X55103643Y-33808221D01*
X55103643Y-33808221D02*
X56103643Y-34474887D01*
X56103643Y-34474887D02*
X56103643Y-33808221D01*
X55722690Y-33427268D02*
X55722690Y-32665364D01*
X56103643Y-32189173D02*
X55103643Y-32189173D01*
X55103643Y-32189173D02*
X55103643Y-31951078D01*
X55103643Y-31951078D02*
X55151262Y-31808221D01*
X55151262Y-31808221D02*
X55246500Y-31712983D01*
X55246500Y-31712983D02*
X55341738Y-31665364D01*
X55341738Y-31665364D02*
X55532214Y-31617745D01*
X55532214Y-31617745D02*
X55675071Y-31617745D01*
X55675071Y-31617745D02*
X55865547Y-31665364D01*
X55865547Y-31665364D02*
X55960785Y-31712983D01*
X55960785Y-31712983D02*
X56056024Y-31808221D01*
X56056024Y-31808221D02*
X56103643Y-31951078D01*
X56103643Y-31951078D02*
X56103643Y-32189173D01*
X56103643Y-31189173D02*
X55103643Y-31189173D01*
X56103643Y-30141555D02*
X55627452Y-30474888D01*
X56103643Y-30712983D02*
X55103643Y-30712983D01*
X55103643Y-30712983D02*
X55103643Y-30332031D01*
X55103643Y-30332031D02*
X55151262Y-30236793D01*
X55151262Y-30236793D02*
X55198881Y-30189174D01*
X55198881Y-30189174D02*
X55294119Y-30141555D01*
X55294119Y-30141555D02*
X55436976Y-30141555D01*
X55436976Y-30141555D02*
X55532214Y-30189174D01*
X55532214Y-30189174D02*
X55579833Y-30236793D01*
X55579833Y-30236793D02*
X55627452Y-30332031D01*
X55627452Y-30332031D02*
X55627452Y-30712983D01*
D12*
X75657142Y-58554819D02*
X75323809Y-58078628D01*
X75085714Y-58554819D02*
X75085714Y-57554819D01*
X75085714Y-57554819D02*
X75466666Y-57554819D01*
X75466666Y-57554819D02*
X75561904Y-57602438D01*
X75561904Y-57602438D02*
X75609523Y-57650057D01*
X75609523Y-57650057D02*
X75657142Y-57745295D01*
X75657142Y-57745295D02*
X75657142Y-57888152D01*
X75657142Y-57888152D02*
X75609523Y-57983390D01*
X75609523Y-57983390D02*
X75561904Y-58031009D01*
X75561904Y-58031009D02*
X75466666Y-58078628D01*
X75466666Y-58078628D02*
X75085714Y-58078628D01*
X76609523Y-58554819D02*
X76038095Y-58554819D01*
X76323809Y-58554819D02*
X76323809Y-57554819D01*
X76323809Y-57554819D02*
X76228571Y-57697676D01*
X76228571Y-57697676D02*
X76133333Y-57792914D01*
X76133333Y-57792914D02*
X76038095Y-57840533D01*
X76942857Y-57554819D02*
X77561904Y-57554819D01*
X77561904Y-57554819D02*
X77228571Y-57935771D01*
X77228571Y-57935771D02*
X77371428Y-57935771D01*
X77371428Y-57935771D02*
X77466666Y-57983390D01*
X77466666Y-57983390D02*
X77514285Y-58031009D01*
X77514285Y-58031009D02*
X77561904Y-58126247D01*
X77561904Y-58126247D02*
X77561904Y-58364342D01*
X77561904Y-58364342D02*
X77514285Y-58459580D01*
X77514285Y-58459580D02*
X77466666Y-58507200D01*
X77466666Y-58507200D02*
X77371428Y-58554819D01*
X77371428Y-58554819D02*
X77085714Y-58554819D01*
X77085714Y-58554819D02*
X76990476Y-58507200D01*
X76990476Y-58507200D02*
X76942857Y-58459580D01*
X48316819Y-40716904D02*
X49126342Y-40716904D01*
X49126342Y-40716904D02*
X49221580Y-40669285D01*
X49221580Y-40669285D02*
X49269200Y-40621666D01*
X49269200Y-40621666D02*
X49316819Y-40526428D01*
X49316819Y-40526428D02*
X49316819Y-40335952D01*
X49316819Y-40335952D02*
X49269200Y-40240714D01*
X49269200Y-40240714D02*
X49221580Y-40193095D01*
X49221580Y-40193095D02*
X49126342Y-40145476D01*
X49126342Y-40145476D02*
X48316819Y-40145476D01*
X48650152Y-39240714D02*
X49316819Y-39240714D01*
X48269200Y-39478809D02*
X48983485Y-39716904D01*
X48983485Y-39716904D02*
X48983485Y-39097857D01*
X75657142Y-53654819D02*
X75323809Y-53178628D01*
X75085714Y-53654819D02*
X75085714Y-52654819D01*
X75085714Y-52654819D02*
X75466666Y-52654819D01*
X75466666Y-52654819D02*
X75561904Y-52702438D01*
X75561904Y-52702438D02*
X75609523Y-52750057D01*
X75609523Y-52750057D02*
X75657142Y-52845295D01*
X75657142Y-52845295D02*
X75657142Y-52988152D01*
X75657142Y-52988152D02*
X75609523Y-53083390D01*
X75609523Y-53083390D02*
X75561904Y-53131009D01*
X75561904Y-53131009D02*
X75466666Y-53178628D01*
X75466666Y-53178628D02*
X75085714Y-53178628D01*
X76609523Y-53654819D02*
X76038095Y-53654819D01*
X76323809Y-53654819D02*
X76323809Y-52654819D01*
X76323809Y-52654819D02*
X76228571Y-52797676D01*
X76228571Y-52797676D02*
X76133333Y-52892914D01*
X76133333Y-52892914D02*
X76038095Y-52940533D01*
X77085714Y-53654819D02*
X77276190Y-53654819D01*
X77276190Y-53654819D02*
X77371428Y-53607200D01*
X77371428Y-53607200D02*
X77419047Y-53559580D01*
X77419047Y-53559580D02*
X77514285Y-53416723D01*
X77514285Y-53416723D02*
X77561904Y-53226247D01*
X77561904Y-53226247D02*
X77561904Y-52845295D01*
X77561904Y-52845295D02*
X77514285Y-52750057D01*
X77514285Y-52750057D02*
X77466666Y-52702438D01*
X77466666Y-52702438D02*
X77371428Y-52654819D01*
X77371428Y-52654819D02*
X77180952Y-52654819D01*
X77180952Y-52654819D02*
X77085714Y-52702438D01*
X77085714Y-52702438D02*
X77038095Y-52750057D01*
X77038095Y-52750057D02*
X76990476Y-52845295D01*
X76990476Y-52845295D02*
X76990476Y-53083390D01*
X76990476Y-53083390D02*
X77038095Y-53178628D01*
X77038095Y-53178628D02*
X77085714Y-53226247D01*
X77085714Y-53226247D02*
X77180952Y-53273866D01*
X77180952Y-53273866D02*
X77371428Y-53273866D01*
X77371428Y-53273866D02*
X77466666Y-53226247D01*
X77466666Y-53226247D02*
X77514285Y-53178628D01*
X77514285Y-53178628D02*
X77561904Y-53083390D01*
X52683333Y-63804819D02*
X52350000Y-63328628D01*
X52111905Y-63804819D02*
X52111905Y-62804819D01*
X52111905Y-62804819D02*
X52492857Y-62804819D01*
X52492857Y-62804819D02*
X52588095Y-62852438D01*
X52588095Y-62852438D02*
X52635714Y-62900057D01*
X52635714Y-62900057D02*
X52683333Y-62995295D01*
X52683333Y-62995295D02*
X52683333Y-63138152D01*
X52683333Y-63138152D02*
X52635714Y-63233390D01*
X52635714Y-63233390D02*
X52588095Y-63281009D01*
X52588095Y-63281009D02*
X52492857Y-63328628D01*
X52492857Y-63328628D02*
X52111905Y-63328628D01*
X53064286Y-62900057D02*
X53111905Y-62852438D01*
X53111905Y-62852438D02*
X53207143Y-62804819D01*
X53207143Y-62804819D02*
X53445238Y-62804819D01*
X53445238Y-62804819D02*
X53540476Y-62852438D01*
X53540476Y-62852438D02*
X53588095Y-62900057D01*
X53588095Y-62900057D02*
X53635714Y-62995295D01*
X53635714Y-62995295D02*
X53635714Y-63090533D01*
X53635714Y-63090533D02*
X53588095Y-63233390D01*
X53588095Y-63233390D02*
X53016667Y-63804819D01*
X53016667Y-63804819D02*
X53635714Y-63804819D01*
X58857142Y-94204819D02*
X58523809Y-93728628D01*
X58285714Y-94204819D02*
X58285714Y-93204819D01*
X58285714Y-93204819D02*
X58666666Y-93204819D01*
X58666666Y-93204819D02*
X58761904Y-93252438D01*
X58761904Y-93252438D02*
X58809523Y-93300057D01*
X58809523Y-93300057D02*
X58857142Y-93395295D01*
X58857142Y-93395295D02*
X58857142Y-93538152D01*
X58857142Y-93538152D02*
X58809523Y-93633390D01*
X58809523Y-93633390D02*
X58761904Y-93681009D01*
X58761904Y-93681009D02*
X58666666Y-93728628D01*
X58666666Y-93728628D02*
X58285714Y-93728628D01*
X59238095Y-93300057D02*
X59285714Y-93252438D01*
X59285714Y-93252438D02*
X59380952Y-93204819D01*
X59380952Y-93204819D02*
X59619047Y-93204819D01*
X59619047Y-93204819D02*
X59714285Y-93252438D01*
X59714285Y-93252438D02*
X59761904Y-93300057D01*
X59761904Y-93300057D02*
X59809523Y-93395295D01*
X59809523Y-93395295D02*
X59809523Y-93490533D01*
X59809523Y-93490533D02*
X59761904Y-93633390D01*
X59761904Y-93633390D02*
X59190476Y-94204819D01*
X59190476Y-94204819D02*
X59809523Y-94204819D01*
X60761904Y-94204819D02*
X60190476Y-94204819D01*
X60476190Y-94204819D02*
X60476190Y-93204819D01*
X60476190Y-93204819D02*
X60380952Y-93347676D01*
X60380952Y-93347676D02*
X60285714Y-93442914D01*
X60285714Y-93442914D02*
X60190476Y-93490533D01*
X46838095Y-68229819D02*
X46838095Y-69039342D01*
X46838095Y-69039342D02*
X46885714Y-69134580D01*
X46885714Y-69134580D02*
X46933333Y-69182200D01*
X46933333Y-69182200D02*
X47028571Y-69229819D01*
X47028571Y-69229819D02*
X47219047Y-69229819D01*
X47219047Y-69229819D02*
X47314285Y-69182200D01*
X47314285Y-69182200D02*
X47361904Y-69134580D01*
X47361904Y-69134580D02*
X47409523Y-69039342D01*
X47409523Y-69039342D02*
X47409523Y-68229819D01*
X47838095Y-68325057D02*
X47885714Y-68277438D01*
X47885714Y-68277438D02*
X47980952Y-68229819D01*
X47980952Y-68229819D02*
X48219047Y-68229819D01*
X48219047Y-68229819D02*
X48314285Y-68277438D01*
X48314285Y-68277438D02*
X48361904Y-68325057D01*
X48361904Y-68325057D02*
X48409523Y-68420295D01*
X48409523Y-68420295D02*
X48409523Y-68515533D01*
X48409523Y-68515533D02*
X48361904Y-68658390D01*
X48361904Y-68658390D02*
X47790476Y-69229819D01*
X47790476Y-69229819D02*
X48409523Y-69229819D01*
X61491819Y-40716904D02*
X62301342Y-40716904D01*
X62301342Y-40716904D02*
X62396580Y-40669285D01*
X62396580Y-40669285D02*
X62444200Y-40621666D01*
X62444200Y-40621666D02*
X62491819Y-40526428D01*
X62491819Y-40526428D02*
X62491819Y-40335952D01*
X62491819Y-40335952D02*
X62444200Y-40240714D01*
X62444200Y-40240714D02*
X62396580Y-40193095D01*
X62396580Y-40193095D02*
X62301342Y-40145476D01*
X62301342Y-40145476D02*
X61491819Y-40145476D01*
X61491819Y-39240714D02*
X61491819Y-39431190D01*
X61491819Y-39431190D02*
X61539438Y-39526428D01*
X61539438Y-39526428D02*
X61587057Y-39574047D01*
X61587057Y-39574047D02*
X61729914Y-39669285D01*
X61729914Y-39669285D02*
X61920390Y-39716904D01*
X61920390Y-39716904D02*
X62301342Y-39716904D01*
X62301342Y-39716904D02*
X62396580Y-39669285D01*
X62396580Y-39669285D02*
X62444200Y-39621666D01*
X62444200Y-39621666D02*
X62491819Y-39526428D01*
X62491819Y-39526428D02*
X62491819Y-39335952D01*
X62491819Y-39335952D02*
X62444200Y-39240714D01*
X62444200Y-39240714D02*
X62396580Y-39193095D01*
X62396580Y-39193095D02*
X62301342Y-39145476D01*
X62301342Y-39145476D02*
X62063247Y-39145476D01*
X62063247Y-39145476D02*
X61968009Y-39193095D01*
X61968009Y-39193095D02*
X61920390Y-39240714D01*
X61920390Y-39240714D02*
X61872771Y-39335952D01*
X61872771Y-39335952D02*
X61872771Y-39526428D01*
X61872771Y-39526428D02*
X61920390Y-39621666D01*
X61920390Y-39621666D02*
X61968009Y-39669285D01*
X61968009Y-39669285D02*
X62063247Y-39716904D01*
X36933333Y-54609580D02*
X36885714Y-54657200D01*
X36885714Y-54657200D02*
X36742857Y-54704819D01*
X36742857Y-54704819D02*
X36647619Y-54704819D01*
X36647619Y-54704819D02*
X36504762Y-54657200D01*
X36504762Y-54657200D02*
X36409524Y-54561961D01*
X36409524Y-54561961D02*
X36361905Y-54466723D01*
X36361905Y-54466723D02*
X36314286Y-54276247D01*
X36314286Y-54276247D02*
X36314286Y-54133390D01*
X36314286Y-54133390D02*
X36361905Y-53942914D01*
X36361905Y-53942914D02*
X36409524Y-53847676D01*
X36409524Y-53847676D02*
X36504762Y-53752438D01*
X36504762Y-53752438D02*
X36647619Y-53704819D01*
X36647619Y-53704819D02*
X36742857Y-53704819D01*
X36742857Y-53704819D02*
X36885714Y-53752438D01*
X36885714Y-53752438D02*
X36933333Y-53800057D01*
X37790476Y-53704819D02*
X37600000Y-53704819D01*
X37600000Y-53704819D02*
X37504762Y-53752438D01*
X37504762Y-53752438D02*
X37457143Y-53800057D01*
X37457143Y-53800057D02*
X37361905Y-53942914D01*
X37361905Y-53942914D02*
X37314286Y-54133390D01*
X37314286Y-54133390D02*
X37314286Y-54514342D01*
X37314286Y-54514342D02*
X37361905Y-54609580D01*
X37361905Y-54609580D02*
X37409524Y-54657200D01*
X37409524Y-54657200D02*
X37504762Y-54704819D01*
X37504762Y-54704819D02*
X37695238Y-54704819D01*
X37695238Y-54704819D02*
X37790476Y-54657200D01*
X37790476Y-54657200D02*
X37838095Y-54609580D01*
X37838095Y-54609580D02*
X37885714Y-54514342D01*
X37885714Y-54514342D02*
X37885714Y-54276247D01*
X37885714Y-54276247D02*
X37838095Y-54181009D01*
X37838095Y-54181009D02*
X37790476Y-54133390D01*
X37790476Y-54133390D02*
X37695238Y-54085771D01*
X37695238Y-54085771D02*
X37504762Y-54085771D01*
X37504762Y-54085771D02*
X37409524Y-54133390D01*
X37409524Y-54133390D02*
X37361905Y-54181009D01*
X37361905Y-54181009D02*
X37314286Y-54276247D01*
X51445508Y-55913253D02*
X51397889Y-55960873D01*
X51397889Y-55960873D02*
X51255032Y-56008492D01*
X51255032Y-56008492D02*
X51159794Y-56008492D01*
X51159794Y-56008492D02*
X51016937Y-55960873D01*
X51016937Y-55960873D02*
X50921699Y-55865634D01*
X50921699Y-55865634D02*
X50874080Y-55770396D01*
X50874080Y-55770396D02*
X50826461Y-55579920D01*
X50826461Y-55579920D02*
X50826461Y-55437063D01*
X50826461Y-55437063D02*
X50874080Y-55246587D01*
X50874080Y-55246587D02*
X50921699Y-55151349D01*
X50921699Y-55151349D02*
X51016937Y-55056111D01*
X51016937Y-55056111D02*
X51159794Y-55008492D01*
X51159794Y-55008492D02*
X51255032Y-55008492D01*
X51255032Y-55008492D02*
X51397889Y-55056111D01*
X51397889Y-55056111D02*
X51445508Y-55103730D01*
X51778842Y-55008492D02*
X52397889Y-55008492D01*
X52397889Y-55008492D02*
X52064556Y-55389444D01*
X52064556Y-55389444D02*
X52207413Y-55389444D01*
X52207413Y-55389444D02*
X52302651Y-55437063D01*
X52302651Y-55437063D02*
X52350270Y-55484682D01*
X52350270Y-55484682D02*
X52397889Y-55579920D01*
X52397889Y-55579920D02*
X52397889Y-55818015D01*
X52397889Y-55818015D02*
X52350270Y-55913253D01*
X52350270Y-55913253D02*
X52302651Y-55960873D01*
X52302651Y-55960873D02*
X52207413Y-56008492D01*
X52207413Y-56008492D02*
X51921699Y-56008492D01*
X51921699Y-56008492D02*
X51826461Y-55960873D01*
X51826461Y-55960873D02*
X51778842Y-55913253D01*
X42333333Y-82954819D02*
X41857143Y-82954819D01*
X41857143Y-82954819D02*
X41857143Y-81954819D01*
X43190476Y-82954819D02*
X42619048Y-82954819D01*
X42904762Y-82954819D02*
X42904762Y-81954819D01*
X42904762Y-81954819D02*
X42809524Y-82097676D01*
X42809524Y-82097676D02*
X42714286Y-82192914D01*
X42714286Y-82192914D02*
X42619048Y-82240533D01*
X79053606Y-78759580D02*
X79005987Y-78807200D01*
X79005987Y-78807200D02*
X78863130Y-78854819D01*
X78863130Y-78854819D02*
X78767892Y-78854819D01*
X78767892Y-78854819D02*
X78625035Y-78807200D01*
X78625035Y-78807200D02*
X78529797Y-78711961D01*
X78529797Y-78711961D02*
X78482178Y-78616723D01*
X78482178Y-78616723D02*
X78434559Y-78426247D01*
X78434559Y-78426247D02*
X78434559Y-78283390D01*
X78434559Y-78283390D02*
X78482178Y-78092914D01*
X78482178Y-78092914D02*
X78529797Y-77997676D01*
X78529797Y-77997676D02*
X78625035Y-77902438D01*
X78625035Y-77902438D02*
X78767892Y-77854819D01*
X78767892Y-77854819D02*
X78863130Y-77854819D01*
X78863130Y-77854819D02*
X79005987Y-77902438D01*
X79005987Y-77902438D02*
X79053606Y-77950057D01*
X80005987Y-78854819D02*
X79434559Y-78854819D01*
X79720273Y-78854819D02*
X79720273Y-77854819D01*
X79720273Y-77854819D02*
X79625035Y-77997676D01*
X79625035Y-77997676D02*
X79529797Y-78092914D01*
X79529797Y-78092914D02*
X79434559Y-78140533D01*
X28533333Y-28379819D02*
X28200000Y-27903628D01*
X27961905Y-28379819D02*
X27961905Y-27379819D01*
X27961905Y-27379819D02*
X28342857Y-27379819D01*
X28342857Y-27379819D02*
X28438095Y-27427438D01*
X28438095Y-27427438D02*
X28485714Y-27475057D01*
X28485714Y-27475057D02*
X28533333Y-27570295D01*
X28533333Y-27570295D02*
X28533333Y-27713152D01*
X28533333Y-27713152D02*
X28485714Y-27808390D01*
X28485714Y-27808390D02*
X28438095Y-27856009D01*
X28438095Y-27856009D02*
X28342857Y-27903628D01*
X28342857Y-27903628D02*
X27961905Y-27903628D01*
X29390476Y-27379819D02*
X29200000Y-27379819D01*
X29200000Y-27379819D02*
X29104762Y-27427438D01*
X29104762Y-27427438D02*
X29057143Y-27475057D01*
X29057143Y-27475057D02*
X28961905Y-27617914D01*
X28961905Y-27617914D02*
X28914286Y-27808390D01*
X28914286Y-27808390D02*
X28914286Y-28189342D01*
X28914286Y-28189342D02*
X28961905Y-28284580D01*
X28961905Y-28284580D02*
X29009524Y-28332200D01*
X29009524Y-28332200D02*
X29104762Y-28379819D01*
X29104762Y-28379819D02*
X29295238Y-28379819D01*
X29295238Y-28379819D02*
X29390476Y-28332200D01*
X29390476Y-28332200D02*
X29438095Y-28284580D01*
X29438095Y-28284580D02*
X29485714Y-28189342D01*
X29485714Y-28189342D02*
X29485714Y-27951247D01*
X29485714Y-27951247D02*
X29438095Y-27856009D01*
X29438095Y-27856009D02*
X29390476Y-27808390D01*
X29390476Y-27808390D02*
X29295238Y-27760771D01*
X29295238Y-27760771D02*
X29104762Y-27760771D01*
X29104762Y-27760771D02*
X29009524Y-27808390D01*
X29009524Y-27808390D02*
X28961905Y-27856009D01*
X28961905Y-27856009D02*
X28914286Y-27951247D01*
X52683333Y-73954819D02*
X52350000Y-73478628D01*
X52111905Y-73954819D02*
X52111905Y-72954819D01*
X52111905Y-72954819D02*
X52492857Y-72954819D01*
X52492857Y-72954819D02*
X52588095Y-73002438D01*
X52588095Y-73002438D02*
X52635714Y-73050057D01*
X52635714Y-73050057D02*
X52683333Y-73145295D01*
X52683333Y-73145295D02*
X52683333Y-73288152D01*
X52683333Y-73288152D02*
X52635714Y-73383390D01*
X52635714Y-73383390D02*
X52588095Y-73431009D01*
X52588095Y-73431009D02*
X52492857Y-73478628D01*
X52492857Y-73478628D02*
X52111905Y-73478628D01*
X53635714Y-73954819D02*
X53064286Y-73954819D01*
X53350000Y-73954819D02*
X53350000Y-72954819D01*
X53350000Y-72954819D02*
X53254762Y-73097676D01*
X53254762Y-73097676D02*
X53159524Y-73192914D01*
X53159524Y-73192914D02*
X53064286Y-73240533D01*
X42109524Y-67562295D02*
X42109524Y-66762295D01*
X42109524Y-66762295D02*
X42300000Y-66762295D01*
X42300000Y-66762295D02*
X42414286Y-66800390D01*
X42414286Y-66800390D02*
X42490476Y-66876580D01*
X42490476Y-66876580D02*
X42528571Y-66952771D01*
X42528571Y-66952771D02*
X42566667Y-67105152D01*
X42566667Y-67105152D02*
X42566667Y-67219438D01*
X42566667Y-67219438D02*
X42528571Y-67371819D01*
X42528571Y-67371819D02*
X42490476Y-67448009D01*
X42490476Y-67448009D02*
X42414286Y-67524200D01*
X42414286Y-67524200D02*
X42300000Y-67562295D01*
X42300000Y-67562295D02*
X42109524Y-67562295D01*
X42871428Y-66838485D02*
X42909524Y-66800390D01*
X42909524Y-66800390D02*
X42985714Y-66762295D01*
X42985714Y-66762295D02*
X43176190Y-66762295D01*
X43176190Y-66762295D02*
X43252381Y-66800390D01*
X43252381Y-66800390D02*
X43290476Y-66838485D01*
X43290476Y-66838485D02*
X43328571Y-66914676D01*
X43328571Y-66914676D02*
X43328571Y-66990866D01*
X43328571Y-66990866D02*
X43290476Y-67105152D01*
X43290476Y-67105152D02*
X42833333Y-67562295D01*
X42833333Y-67562295D02*
X43328571Y-67562295D01*
X35183333Y-48404819D02*
X34850000Y-47928628D01*
X34611905Y-48404819D02*
X34611905Y-47404819D01*
X34611905Y-47404819D02*
X34992857Y-47404819D01*
X34992857Y-47404819D02*
X35088095Y-47452438D01*
X35088095Y-47452438D02*
X35135714Y-47500057D01*
X35135714Y-47500057D02*
X35183333Y-47595295D01*
X35183333Y-47595295D02*
X35183333Y-47738152D01*
X35183333Y-47738152D02*
X35135714Y-47833390D01*
X35135714Y-47833390D02*
X35088095Y-47881009D01*
X35088095Y-47881009D02*
X34992857Y-47928628D01*
X34992857Y-47928628D02*
X34611905Y-47928628D01*
X35516667Y-47404819D02*
X36135714Y-47404819D01*
X36135714Y-47404819D02*
X35802381Y-47785771D01*
X35802381Y-47785771D02*
X35945238Y-47785771D01*
X35945238Y-47785771D02*
X36040476Y-47833390D01*
X36040476Y-47833390D02*
X36088095Y-47881009D01*
X36088095Y-47881009D02*
X36135714Y-47976247D01*
X36135714Y-47976247D02*
X36135714Y-48214342D01*
X36135714Y-48214342D02*
X36088095Y-48309580D01*
X36088095Y-48309580D02*
X36040476Y-48357200D01*
X36040476Y-48357200D02*
X35945238Y-48404819D01*
X35945238Y-48404819D02*
X35659524Y-48404819D01*
X35659524Y-48404819D02*
X35564286Y-48357200D01*
X35564286Y-48357200D02*
X35516667Y-48309580D01*
X55191819Y-40716904D02*
X56001342Y-40716904D01*
X56001342Y-40716904D02*
X56096580Y-40669285D01*
X56096580Y-40669285D02*
X56144200Y-40621666D01*
X56144200Y-40621666D02*
X56191819Y-40526428D01*
X56191819Y-40526428D02*
X56191819Y-40335952D01*
X56191819Y-40335952D02*
X56144200Y-40240714D01*
X56144200Y-40240714D02*
X56096580Y-40193095D01*
X56096580Y-40193095D02*
X56001342Y-40145476D01*
X56001342Y-40145476D02*
X55191819Y-40145476D01*
X55191819Y-39193095D02*
X55191819Y-39669285D01*
X55191819Y-39669285D02*
X55668009Y-39716904D01*
X55668009Y-39716904D02*
X55620390Y-39669285D01*
X55620390Y-39669285D02*
X55572771Y-39574047D01*
X55572771Y-39574047D02*
X55572771Y-39335952D01*
X55572771Y-39335952D02*
X55620390Y-39240714D01*
X55620390Y-39240714D02*
X55668009Y-39193095D01*
X55668009Y-39193095D02*
X55763247Y-39145476D01*
X55763247Y-39145476D02*
X56001342Y-39145476D01*
X56001342Y-39145476D02*
X56096580Y-39193095D01*
X56096580Y-39193095D02*
X56144200Y-39240714D01*
X56144200Y-39240714D02*
X56191819Y-39335952D01*
X56191819Y-39335952D02*
X56191819Y-39574047D01*
X56191819Y-39574047D02*
X56144200Y-39669285D01*
X56144200Y-39669285D02*
X56096580Y-39716904D01*
X85400193Y-78854819D02*
X85066860Y-78378628D01*
X84828765Y-78854819D02*
X84828765Y-77854819D01*
X84828765Y-77854819D02*
X85209717Y-77854819D01*
X85209717Y-77854819D02*
X85304955Y-77902438D01*
X85304955Y-77902438D02*
X85352574Y-77950057D01*
X85352574Y-77950057D02*
X85400193Y-78045295D01*
X85400193Y-78045295D02*
X85400193Y-78188152D01*
X85400193Y-78188152D02*
X85352574Y-78283390D01*
X85352574Y-78283390D02*
X85304955Y-78331009D01*
X85304955Y-78331009D02*
X85209717Y-78378628D01*
X85209717Y-78378628D02*
X84828765Y-78378628D01*
X85733527Y-77854819D02*
X86400193Y-77854819D01*
X86400193Y-77854819D02*
X85971622Y-78854819D01*
X54354819Y-52442857D02*
X53878628Y-52776190D01*
X54354819Y-53014285D02*
X53354819Y-53014285D01*
X53354819Y-53014285D02*
X53354819Y-52633333D01*
X53354819Y-52633333D02*
X53402438Y-52538095D01*
X53402438Y-52538095D02*
X53450057Y-52490476D01*
X53450057Y-52490476D02*
X53545295Y-52442857D01*
X53545295Y-52442857D02*
X53688152Y-52442857D01*
X53688152Y-52442857D02*
X53783390Y-52490476D01*
X53783390Y-52490476D02*
X53831009Y-52538095D01*
X53831009Y-52538095D02*
X53878628Y-52633333D01*
X53878628Y-52633333D02*
X53878628Y-53014285D01*
X54354819Y-51490476D02*
X54354819Y-52061904D01*
X54354819Y-51776190D02*
X53354819Y-51776190D01*
X53354819Y-51776190D02*
X53497676Y-51871428D01*
X53497676Y-51871428D02*
X53592914Y-51966666D01*
X53592914Y-51966666D02*
X53640533Y-52061904D01*
X53783390Y-50919047D02*
X53735771Y-51014285D01*
X53735771Y-51014285D02*
X53688152Y-51061904D01*
X53688152Y-51061904D02*
X53592914Y-51109523D01*
X53592914Y-51109523D02*
X53545295Y-51109523D01*
X53545295Y-51109523D02*
X53450057Y-51061904D01*
X53450057Y-51061904D02*
X53402438Y-51014285D01*
X53402438Y-51014285D02*
X53354819Y-50919047D01*
X53354819Y-50919047D02*
X53354819Y-50728571D01*
X53354819Y-50728571D02*
X53402438Y-50633333D01*
X53402438Y-50633333D02*
X53450057Y-50585714D01*
X53450057Y-50585714D02*
X53545295Y-50538095D01*
X53545295Y-50538095D02*
X53592914Y-50538095D01*
X53592914Y-50538095D02*
X53688152Y-50585714D01*
X53688152Y-50585714D02*
X53735771Y-50633333D01*
X53735771Y-50633333D02*
X53783390Y-50728571D01*
X53783390Y-50728571D02*
X53783390Y-50919047D01*
X53783390Y-50919047D02*
X53831009Y-51014285D01*
X53831009Y-51014285D02*
X53878628Y-51061904D01*
X53878628Y-51061904D02*
X53973866Y-51109523D01*
X53973866Y-51109523D02*
X54164342Y-51109523D01*
X54164342Y-51109523D02*
X54259580Y-51061904D01*
X54259580Y-51061904D02*
X54307200Y-51014285D01*
X54307200Y-51014285D02*
X54354819Y-50919047D01*
X54354819Y-50919047D02*
X54354819Y-50728571D01*
X54354819Y-50728571D02*
X54307200Y-50633333D01*
X54307200Y-50633333D02*
X54259580Y-50585714D01*
X54259580Y-50585714D02*
X54164342Y-50538095D01*
X54164342Y-50538095D02*
X53973866Y-50538095D01*
X53973866Y-50538095D02*
X53878628Y-50585714D01*
X53878628Y-50585714D02*
X53831009Y-50633333D01*
X53831009Y-50633333D02*
X53783390Y-50728571D01*
X38683333Y-69359580D02*
X38635714Y-69407200D01*
X38635714Y-69407200D02*
X38492857Y-69454819D01*
X38492857Y-69454819D02*
X38397619Y-69454819D01*
X38397619Y-69454819D02*
X38254762Y-69407200D01*
X38254762Y-69407200D02*
X38159524Y-69311961D01*
X38159524Y-69311961D02*
X38111905Y-69216723D01*
X38111905Y-69216723D02*
X38064286Y-69026247D01*
X38064286Y-69026247D02*
X38064286Y-68883390D01*
X38064286Y-68883390D02*
X38111905Y-68692914D01*
X38111905Y-68692914D02*
X38159524Y-68597676D01*
X38159524Y-68597676D02*
X38254762Y-68502438D01*
X38254762Y-68502438D02*
X38397619Y-68454819D01*
X38397619Y-68454819D02*
X38492857Y-68454819D01*
X38492857Y-68454819D02*
X38635714Y-68502438D01*
X38635714Y-68502438D02*
X38683333Y-68550057D01*
X39540476Y-68788152D02*
X39540476Y-69454819D01*
X39302381Y-68407200D02*
X39064286Y-69121485D01*
X39064286Y-69121485D02*
X39683333Y-69121485D01*
X48357142Y-89004819D02*
X48023809Y-88528628D01*
X47785714Y-89004819D02*
X47785714Y-88004819D01*
X47785714Y-88004819D02*
X48166666Y-88004819D01*
X48166666Y-88004819D02*
X48261904Y-88052438D01*
X48261904Y-88052438D02*
X48309523Y-88100057D01*
X48309523Y-88100057D02*
X48357142Y-88195295D01*
X48357142Y-88195295D02*
X48357142Y-88338152D01*
X48357142Y-88338152D02*
X48309523Y-88433390D01*
X48309523Y-88433390D02*
X48261904Y-88481009D01*
X48261904Y-88481009D02*
X48166666Y-88528628D01*
X48166666Y-88528628D02*
X47785714Y-88528628D01*
X48738095Y-88100057D02*
X48785714Y-88052438D01*
X48785714Y-88052438D02*
X48880952Y-88004819D01*
X48880952Y-88004819D02*
X49119047Y-88004819D01*
X49119047Y-88004819D02*
X49214285Y-88052438D01*
X49214285Y-88052438D02*
X49261904Y-88100057D01*
X49261904Y-88100057D02*
X49309523Y-88195295D01*
X49309523Y-88195295D02*
X49309523Y-88290533D01*
X49309523Y-88290533D02*
X49261904Y-88433390D01*
X49261904Y-88433390D02*
X48690476Y-89004819D01*
X48690476Y-89004819D02*
X49309523Y-89004819D01*
X49928571Y-88004819D02*
X50023809Y-88004819D01*
X50023809Y-88004819D02*
X50119047Y-88052438D01*
X50119047Y-88052438D02*
X50166666Y-88100057D01*
X50166666Y-88100057D02*
X50214285Y-88195295D01*
X50214285Y-88195295D02*
X50261904Y-88385771D01*
X50261904Y-88385771D02*
X50261904Y-88623866D01*
X50261904Y-88623866D02*
X50214285Y-88814342D01*
X50214285Y-88814342D02*
X50166666Y-88909580D01*
X50166666Y-88909580D02*
X50119047Y-88957200D01*
X50119047Y-88957200D02*
X50023809Y-89004819D01*
X50023809Y-89004819D02*
X49928571Y-89004819D01*
X49928571Y-89004819D02*
X49833333Y-88957200D01*
X49833333Y-88957200D02*
X49785714Y-88909580D01*
X49785714Y-88909580D02*
X49738095Y-88814342D01*
X49738095Y-88814342D02*
X49690476Y-88623866D01*
X49690476Y-88623866D02*
X49690476Y-88385771D01*
X49690476Y-88385771D02*
X49738095Y-88195295D01*
X49738095Y-88195295D02*
X49785714Y-88100057D01*
X49785714Y-88100057D02*
X49833333Y-88052438D01*
X49833333Y-88052438D02*
X49928571Y-88004819D01*
X26216666Y-80372319D02*
X26216666Y-81086604D01*
X26216666Y-81086604D02*
X26169047Y-81229461D01*
X26169047Y-81229461D02*
X26073809Y-81324700D01*
X26073809Y-81324700D02*
X25930952Y-81372319D01*
X25930952Y-81372319D02*
X25835714Y-81372319D01*
X27216666Y-81372319D02*
X26645238Y-81372319D01*
X26930952Y-81372319D02*
X26930952Y-80372319D01*
X26930952Y-80372319D02*
X26835714Y-80515176D01*
X26835714Y-80515176D02*
X26740476Y-80610414D01*
X26740476Y-80610414D02*
X26645238Y-80658033D01*
X75657142Y-61004819D02*
X75323809Y-60528628D01*
X75085714Y-61004819D02*
X75085714Y-60004819D01*
X75085714Y-60004819D02*
X75466666Y-60004819D01*
X75466666Y-60004819D02*
X75561904Y-60052438D01*
X75561904Y-60052438D02*
X75609523Y-60100057D01*
X75609523Y-60100057D02*
X75657142Y-60195295D01*
X75657142Y-60195295D02*
X75657142Y-60338152D01*
X75657142Y-60338152D02*
X75609523Y-60433390D01*
X75609523Y-60433390D02*
X75561904Y-60481009D01*
X75561904Y-60481009D02*
X75466666Y-60528628D01*
X75466666Y-60528628D02*
X75085714Y-60528628D01*
X76609523Y-61004819D02*
X76038095Y-61004819D01*
X76323809Y-61004819D02*
X76323809Y-60004819D01*
X76323809Y-60004819D02*
X76228571Y-60147676D01*
X76228571Y-60147676D02*
X76133333Y-60242914D01*
X76133333Y-60242914D02*
X76038095Y-60290533D01*
X77228571Y-60004819D02*
X77323809Y-60004819D01*
X77323809Y-60004819D02*
X77419047Y-60052438D01*
X77419047Y-60052438D02*
X77466666Y-60100057D01*
X77466666Y-60100057D02*
X77514285Y-60195295D01*
X77514285Y-60195295D02*
X77561904Y-60385771D01*
X77561904Y-60385771D02*
X77561904Y-60623866D01*
X77561904Y-60623866D02*
X77514285Y-60814342D01*
X77514285Y-60814342D02*
X77466666Y-60909580D01*
X77466666Y-60909580D02*
X77419047Y-60957200D01*
X77419047Y-60957200D02*
X77323809Y-61004819D01*
X77323809Y-61004819D02*
X77228571Y-61004819D01*
X77228571Y-61004819D02*
X77133333Y-60957200D01*
X77133333Y-60957200D02*
X77085714Y-60909580D01*
X77085714Y-60909580D02*
X77038095Y-60814342D01*
X77038095Y-60814342D02*
X76990476Y-60623866D01*
X76990476Y-60623866D02*
X76990476Y-60385771D01*
X76990476Y-60385771D02*
X77038095Y-60195295D01*
X77038095Y-60195295D02*
X77085714Y-60100057D01*
X77085714Y-60100057D02*
X77133333Y-60052438D01*
X77133333Y-60052438D02*
X77228571Y-60004819D01*
X51204819Y-52442857D02*
X50728628Y-52776190D01*
X51204819Y-53014285D02*
X50204819Y-53014285D01*
X50204819Y-53014285D02*
X50204819Y-52633333D01*
X50204819Y-52633333D02*
X50252438Y-52538095D01*
X50252438Y-52538095D02*
X50300057Y-52490476D01*
X50300057Y-52490476D02*
X50395295Y-52442857D01*
X50395295Y-52442857D02*
X50538152Y-52442857D01*
X50538152Y-52442857D02*
X50633390Y-52490476D01*
X50633390Y-52490476D02*
X50681009Y-52538095D01*
X50681009Y-52538095D02*
X50728628Y-52633333D01*
X50728628Y-52633333D02*
X50728628Y-53014285D01*
X51204819Y-51490476D02*
X51204819Y-52061904D01*
X51204819Y-51776190D02*
X50204819Y-51776190D01*
X50204819Y-51776190D02*
X50347676Y-51871428D01*
X50347676Y-51871428D02*
X50442914Y-51966666D01*
X50442914Y-51966666D02*
X50490533Y-52061904D01*
X50204819Y-50585714D02*
X50204819Y-51061904D01*
X50204819Y-51061904D02*
X50681009Y-51109523D01*
X50681009Y-51109523D02*
X50633390Y-51061904D01*
X50633390Y-51061904D02*
X50585771Y-50966666D01*
X50585771Y-50966666D02*
X50585771Y-50728571D01*
X50585771Y-50728571D02*
X50633390Y-50633333D01*
X50633390Y-50633333D02*
X50681009Y-50585714D01*
X50681009Y-50585714D02*
X50776247Y-50538095D01*
X50776247Y-50538095D02*
X51014342Y-50538095D01*
X51014342Y-50538095D02*
X51109580Y-50585714D01*
X51109580Y-50585714D02*
X51157200Y-50633333D01*
X51157200Y-50633333D02*
X51204819Y-50728571D01*
X51204819Y-50728571D02*
X51204819Y-50966666D01*
X51204819Y-50966666D02*
X51157200Y-51061904D01*
X51157200Y-51061904D02*
X51109580Y-51109523D01*
X75657142Y-56104819D02*
X75323809Y-55628628D01*
X75085714Y-56104819D02*
X75085714Y-55104819D01*
X75085714Y-55104819D02*
X75466666Y-55104819D01*
X75466666Y-55104819D02*
X75561904Y-55152438D01*
X75561904Y-55152438D02*
X75609523Y-55200057D01*
X75609523Y-55200057D02*
X75657142Y-55295295D01*
X75657142Y-55295295D02*
X75657142Y-55438152D01*
X75657142Y-55438152D02*
X75609523Y-55533390D01*
X75609523Y-55533390D02*
X75561904Y-55581009D01*
X75561904Y-55581009D02*
X75466666Y-55628628D01*
X75466666Y-55628628D02*
X75085714Y-55628628D01*
X76609523Y-56104819D02*
X76038095Y-56104819D01*
X76323809Y-56104819D02*
X76323809Y-55104819D01*
X76323809Y-55104819D02*
X76228571Y-55247676D01*
X76228571Y-55247676D02*
X76133333Y-55342914D01*
X76133333Y-55342914D02*
X76038095Y-55390533D01*
X77466666Y-55104819D02*
X77276190Y-55104819D01*
X77276190Y-55104819D02*
X77180952Y-55152438D01*
X77180952Y-55152438D02*
X77133333Y-55200057D01*
X77133333Y-55200057D02*
X77038095Y-55342914D01*
X77038095Y-55342914D02*
X76990476Y-55533390D01*
X76990476Y-55533390D02*
X76990476Y-55914342D01*
X76990476Y-55914342D02*
X77038095Y-56009580D01*
X77038095Y-56009580D02*
X77085714Y-56057200D01*
X77085714Y-56057200D02*
X77180952Y-56104819D01*
X77180952Y-56104819D02*
X77371428Y-56104819D01*
X77371428Y-56104819D02*
X77466666Y-56057200D01*
X77466666Y-56057200D02*
X77514285Y-56009580D01*
X77514285Y-56009580D02*
X77561904Y-55914342D01*
X77561904Y-55914342D02*
X77561904Y-55676247D01*
X77561904Y-55676247D02*
X77514285Y-55581009D01*
X77514285Y-55581009D02*
X77466666Y-55533390D01*
X77466666Y-55533390D02*
X77371428Y-55485771D01*
X77371428Y-55485771D02*
X77180952Y-55485771D01*
X77180952Y-55485771D02*
X77085714Y-55533390D01*
X77085714Y-55533390D02*
X77038095Y-55581009D01*
X77038095Y-55581009D02*
X76990476Y-55676247D01*
X89178759Y-87027832D02*
X89750187Y-87027832D01*
X89750187Y-87027832D02*
X89864473Y-87058309D01*
X89864473Y-87058309D02*
X89940664Y-87119261D01*
X89940664Y-87119261D02*
X89978759Y-87210690D01*
X89978759Y-87210690D02*
X89978759Y-87271642D01*
X89521616Y-86631642D02*
X89483521Y-86692594D01*
X89483521Y-86692594D02*
X89445425Y-86723071D01*
X89445425Y-86723071D02*
X89369235Y-86753547D01*
X89369235Y-86753547D02*
X89331140Y-86753547D01*
X89331140Y-86753547D02*
X89254949Y-86723071D01*
X89254949Y-86723071D02*
X89216854Y-86692594D01*
X89216854Y-86692594D02*
X89178759Y-86631642D01*
X89178759Y-86631642D02*
X89178759Y-86509737D01*
X89178759Y-86509737D02*
X89216854Y-86448785D01*
X89216854Y-86448785D02*
X89254949Y-86418309D01*
X89254949Y-86418309D02*
X89331140Y-86387832D01*
X89331140Y-86387832D02*
X89369235Y-86387832D01*
X89369235Y-86387832D02*
X89445425Y-86418309D01*
X89445425Y-86418309D02*
X89483521Y-86448785D01*
X89483521Y-86448785D02*
X89521616Y-86509737D01*
X89521616Y-86509737D02*
X89521616Y-86631642D01*
X89521616Y-86631642D02*
X89559711Y-86692594D01*
X89559711Y-86692594D02*
X89597806Y-86723071D01*
X89597806Y-86723071D02*
X89673997Y-86753547D01*
X89673997Y-86753547D02*
X89826378Y-86753547D01*
X89826378Y-86753547D02*
X89902568Y-86723071D01*
X89902568Y-86723071D02*
X89940664Y-86692594D01*
X89940664Y-86692594D02*
X89978759Y-86631642D01*
X89978759Y-86631642D02*
X89978759Y-86509737D01*
X89978759Y-86509737D02*
X89940664Y-86448785D01*
X89940664Y-86448785D02*
X89902568Y-86418309D01*
X89902568Y-86418309D02*
X89826378Y-86387832D01*
X89826378Y-86387832D02*
X89673997Y-86387832D01*
X89673997Y-86387832D02*
X89597806Y-86418309D01*
X89597806Y-86418309D02*
X89559711Y-86448785D01*
X89559711Y-86448785D02*
X89521616Y-86509737D01*
X35183333Y-40004819D02*
X34850000Y-39528628D01*
X34611905Y-40004819D02*
X34611905Y-39004819D01*
X34611905Y-39004819D02*
X34992857Y-39004819D01*
X34992857Y-39004819D02*
X35088095Y-39052438D01*
X35088095Y-39052438D02*
X35135714Y-39100057D01*
X35135714Y-39100057D02*
X35183333Y-39195295D01*
X35183333Y-39195295D02*
X35183333Y-39338152D01*
X35183333Y-39338152D02*
X35135714Y-39433390D01*
X35135714Y-39433390D02*
X35088095Y-39481009D01*
X35088095Y-39481009D02*
X34992857Y-39528628D01*
X34992857Y-39528628D02*
X34611905Y-39528628D01*
X36088095Y-39004819D02*
X35611905Y-39004819D01*
X35611905Y-39004819D02*
X35564286Y-39481009D01*
X35564286Y-39481009D02*
X35611905Y-39433390D01*
X35611905Y-39433390D02*
X35707143Y-39385771D01*
X35707143Y-39385771D02*
X35945238Y-39385771D01*
X35945238Y-39385771D02*
X36040476Y-39433390D01*
X36040476Y-39433390D02*
X36088095Y-39481009D01*
X36088095Y-39481009D02*
X36135714Y-39576247D01*
X36135714Y-39576247D02*
X36135714Y-39814342D01*
X36135714Y-39814342D02*
X36088095Y-39909580D01*
X36088095Y-39909580D02*
X36040476Y-39957200D01*
X36040476Y-39957200D02*
X35945238Y-40004819D01*
X35945238Y-40004819D02*
X35707143Y-40004819D01*
X35707143Y-40004819D02*
X35611905Y-39957200D01*
X35611905Y-39957200D02*
X35564286Y-39909580D01*
X41848095Y-53704819D02*
X41848095Y-54514342D01*
X41848095Y-54514342D02*
X41895714Y-54609580D01*
X41895714Y-54609580D02*
X41943333Y-54657200D01*
X41943333Y-54657200D02*
X42038571Y-54704819D01*
X42038571Y-54704819D02*
X42229047Y-54704819D01*
X42229047Y-54704819D02*
X42324285Y-54657200D01*
X42324285Y-54657200D02*
X42371904Y-54609580D01*
X42371904Y-54609580D02*
X42419523Y-54514342D01*
X42419523Y-54514342D02*
X42419523Y-53704819D01*
X43038571Y-54133390D02*
X42943333Y-54085771D01*
X42943333Y-54085771D02*
X42895714Y-54038152D01*
X42895714Y-54038152D02*
X42848095Y-53942914D01*
X42848095Y-53942914D02*
X42848095Y-53895295D01*
X42848095Y-53895295D02*
X42895714Y-53800057D01*
X42895714Y-53800057D02*
X42943333Y-53752438D01*
X42943333Y-53752438D02*
X43038571Y-53704819D01*
X43038571Y-53704819D02*
X43229047Y-53704819D01*
X43229047Y-53704819D02*
X43324285Y-53752438D01*
X43324285Y-53752438D02*
X43371904Y-53800057D01*
X43371904Y-53800057D02*
X43419523Y-53895295D01*
X43419523Y-53895295D02*
X43419523Y-53942914D01*
X43419523Y-53942914D02*
X43371904Y-54038152D01*
X43371904Y-54038152D02*
X43324285Y-54085771D01*
X43324285Y-54085771D02*
X43229047Y-54133390D01*
X43229047Y-54133390D02*
X43038571Y-54133390D01*
X43038571Y-54133390D02*
X42943333Y-54181009D01*
X42943333Y-54181009D02*
X42895714Y-54228628D01*
X42895714Y-54228628D02*
X42848095Y-54323866D01*
X42848095Y-54323866D02*
X42848095Y-54514342D01*
X42848095Y-54514342D02*
X42895714Y-54609580D01*
X42895714Y-54609580D02*
X42943333Y-54657200D01*
X42943333Y-54657200D02*
X43038571Y-54704819D01*
X43038571Y-54704819D02*
X43229047Y-54704819D01*
X43229047Y-54704819D02*
X43324285Y-54657200D01*
X43324285Y-54657200D02*
X43371904Y-54609580D01*
X43371904Y-54609580D02*
X43419523Y-54514342D01*
X43419523Y-54514342D02*
X43419523Y-54323866D01*
X43419523Y-54323866D02*
X43371904Y-54228628D01*
X43371904Y-54228628D02*
X43324285Y-54181009D01*
X43324285Y-54181009D02*
X43229047Y-54133390D01*
X41666819Y-40716904D02*
X42476342Y-40716904D01*
X42476342Y-40716904D02*
X42571580Y-40669285D01*
X42571580Y-40669285D02*
X42619200Y-40621666D01*
X42619200Y-40621666D02*
X42666819Y-40526428D01*
X42666819Y-40526428D02*
X42666819Y-40335952D01*
X42666819Y-40335952D02*
X42619200Y-40240714D01*
X42619200Y-40240714D02*
X42571580Y-40193095D01*
X42571580Y-40193095D02*
X42476342Y-40145476D01*
X42476342Y-40145476D02*
X41666819Y-40145476D01*
X41666819Y-39764523D02*
X41666819Y-39145476D01*
X41666819Y-39145476D02*
X42047771Y-39478809D01*
X42047771Y-39478809D02*
X42047771Y-39335952D01*
X42047771Y-39335952D02*
X42095390Y-39240714D01*
X42095390Y-39240714D02*
X42143009Y-39193095D01*
X42143009Y-39193095D02*
X42238247Y-39145476D01*
X42238247Y-39145476D02*
X42476342Y-39145476D01*
X42476342Y-39145476D02*
X42571580Y-39193095D01*
X42571580Y-39193095D02*
X42619200Y-39240714D01*
X42619200Y-39240714D02*
X42666819Y-39335952D01*
X42666819Y-39335952D02*
X42666819Y-39621666D01*
X42666819Y-39621666D02*
X42619200Y-39716904D01*
X42619200Y-39716904D02*
X42571580Y-39764523D01*
X63757142Y-43504819D02*
X63423809Y-43028628D01*
X63185714Y-43504819D02*
X63185714Y-42504819D01*
X63185714Y-42504819D02*
X63566666Y-42504819D01*
X63566666Y-42504819D02*
X63661904Y-42552438D01*
X63661904Y-42552438D02*
X63709523Y-42600057D01*
X63709523Y-42600057D02*
X63757142Y-42695295D01*
X63757142Y-42695295D02*
X63757142Y-42838152D01*
X63757142Y-42838152D02*
X63709523Y-42933390D01*
X63709523Y-42933390D02*
X63661904Y-42981009D01*
X63661904Y-42981009D02*
X63566666Y-43028628D01*
X63566666Y-43028628D02*
X63185714Y-43028628D01*
X64138095Y-42600057D02*
X64185714Y-42552438D01*
X64185714Y-42552438D02*
X64280952Y-42504819D01*
X64280952Y-42504819D02*
X64519047Y-42504819D01*
X64519047Y-42504819D02*
X64614285Y-42552438D01*
X64614285Y-42552438D02*
X64661904Y-42600057D01*
X64661904Y-42600057D02*
X64709523Y-42695295D01*
X64709523Y-42695295D02*
X64709523Y-42790533D01*
X64709523Y-42790533D02*
X64661904Y-42933390D01*
X64661904Y-42933390D02*
X64090476Y-43504819D01*
X64090476Y-43504819D02*
X64709523Y-43504819D01*
X65090476Y-42600057D02*
X65138095Y-42552438D01*
X65138095Y-42552438D02*
X65233333Y-42504819D01*
X65233333Y-42504819D02*
X65471428Y-42504819D01*
X65471428Y-42504819D02*
X65566666Y-42552438D01*
X65566666Y-42552438D02*
X65614285Y-42600057D01*
X65614285Y-42600057D02*
X65661904Y-42695295D01*
X65661904Y-42695295D02*
X65661904Y-42790533D01*
X65661904Y-42790533D02*
X65614285Y-42933390D01*
X65614285Y-42933390D02*
X65042857Y-43504819D01*
X65042857Y-43504819D02*
X65661904Y-43504819D01*
X78935211Y-77454819D02*
X78601878Y-76978628D01*
X78363783Y-77454819D02*
X78363783Y-76454819D01*
X78363783Y-76454819D02*
X78744735Y-76454819D01*
X78744735Y-76454819D02*
X78839973Y-76502438D01*
X78839973Y-76502438D02*
X78887592Y-76550057D01*
X78887592Y-76550057D02*
X78935211Y-76645295D01*
X78935211Y-76645295D02*
X78935211Y-76788152D01*
X78935211Y-76788152D02*
X78887592Y-76883390D01*
X78887592Y-76883390D02*
X78839973Y-76931009D01*
X78839973Y-76931009D02*
X78744735Y-76978628D01*
X78744735Y-76978628D02*
X78363783Y-76978628D01*
X79792354Y-76788152D02*
X79792354Y-77454819D01*
X79554259Y-76407200D02*
X79316164Y-77121485D01*
X79316164Y-77121485D02*
X79935211Y-77121485D01*
X47704819Y-52442857D02*
X47228628Y-52776190D01*
X47704819Y-53014285D02*
X46704819Y-53014285D01*
X46704819Y-53014285D02*
X46704819Y-52633333D01*
X46704819Y-52633333D02*
X46752438Y-52538095D01*
X46752438Y-52538095D02*
X46800057Y-52490476D01*
X46800057Y-52490476D02*
X46895295Y-52442857D01*
X46895295Y-52442857D02*
X47038152Y-52442857D01*
X47038152Y-52442857D02*
X47133390Y-52490476D01*
X47133390Y-52490476D02*
X47181009Y-52538095D01*
X47181009Y-52538095D02*
X47228628Y-52633333D01*
X47228628Y-52633333D02*
X47228628Y-53014285D01*
X47704819Y-51490476D02*
X47704819Y-52061904D01*
X47704819Y-51776190D02*
X46704819Y-51776190D01*
X46704819Y-51776190D02*
X46847676Y-51871428D01*
X46847676Y-51871428D02*
X46942914Y-51966666D01*
X46942914Y-51966666D02*
X46990533Y-52061904D01*
X46800057Y-51109523D02*
X46752438Y-51061904D01*
X46752438Y-51061904D02*
X46704819Y-50966666D01*
X46704819Y-50966666D02*
X46704819Y-50728571D01*
X46704819Y-50728571D02*
X46752438Y-50633333D01*
X46752438Y-50633333D02*
X46800057Y-50585714D01*
X46800057Y-50585714D02*
X46895295Y-50538095D01*
X46895295Y-50538095D02*
X46990533Y-50538095D01*
X46990533Y-50538095D02*
X47133390Y-50585714D01*
X47133390Y-50585714D02*
X47704819Y-51157142D01*
X47704819Y-51157142D02*
X47704819Y-50538095D01*
X65201955Y-64477912D02*
X64868622Y-64001721D01*
X64630527Y-64477912D02*
X64630527Y-63477912D01*
X64630527Y-63477912D02*
X65011479Y-63477912D01*
X65011479Y-63477912D02*
X65106717Y-63525531D01*
X65106717Y-63525531D02*
X65154336Y-63573150D01*
X65154336Y-63573150D02*
X65201955Y-63668388D01*
X65201955Y-63668388D02*
X65201955Y-63811245D01*
X65201955Y-63811245D02*
X65154336Y-63906483D01*
X65154336Y-63906483D02*
X65106717Y-63954102D01*
X65106717Y-63954102D02*
X65011479Y-64001721D01*
X65011479Y-64001721D02*
X64630527Y-64001721D01*
X65678146Y-64477912D02*
X65868622Y-64477912D01*
X65868622Y-64477912D02*
X65963860Y-64430293D01*
X65963860Y-64430293D02*
X66011479Y-64382673D01*
X66011479Y-64382673D02*
X66106717Y-64239816D01*
X66106717Y-64239816D02*
X66154336Y-64049340D01*
X66154336Y-64049340D02*
X66154336Y-63668388D01*
X66154336Y-63668388D02*
X66106717Y-63573150D01*
X66106717Y-63573150D02*
X66059098Y-63525531D01*
X66059098Y-63525531D02*
X65963860Y-63477912D01*
X65963860Y-63477912D02*
X65773384Y-63477912D01*
X65773384Y-63477912D02*
X65678146Y-63525531D01*
X65678146Y-63525531D02*
X65630527Y-63573150D01*
X65630527Y-63573150D02*
X65582908Y-63668388D01*
X65582908Y-63668388D02*
X65582908Y-63906483D01*
X65582908Y-63906483D02*
X65630527Y-64001721D01*
X65630527Y-64001721D02*
X65678146Y-64049340D01*
X65678146Y-64049340D02*
X65773384Y-64096959D01*
X65773384Y-64096959D02*
X65963860Y-64096959D01*
X65963860Y-64096959D02*
X66059098Y-64049340D01*
X66059098Y-64049340D02*
X66106717Y-64001721D01*
X66106717Y-64001721D02*
X66154336Y-63906483D01*
X57583333Y-79459580D02*
X57535714Y-79507200D01*
X57535714Y-79507200D02*
X57392857Y-79554819D01*
X57392857Y-79554819D02*
X57297619Y-79554819D01*
X57297619Y-79554819D02*
X57154762Y-79507200D01*
X57154762Y-79507200D02*
X57059524Y-79411961D01*
X57059524Y-79411961D02*
X57011905Y-79316723D01*
X57011905Y-79316723D02*
X56964286Y-79126247D01*
X56964286Y-79126247D02*
X56964286Y-78983390D01*
X56964286Y-78983390D02*
X57011905Y-78792914D01*
X57011905Y-78792914D02*
X57059524Y-78697676D01*
X57059524Y-78697676D02*
X57154762Y-78602438D01*
X57154762Y-78602438D02*
X57297619Y-78554819D01*
X57297619Y-78554819D02*
X57392857Y-78554819D01*
X57392857Y-78554819D02*
X57535714Y-78602438D01*
X57535714Y-78602438D02*
X57583333Y-78650057D01*
X58488095Y-78554819D02*
X58011905Y-78554819D01*
X58011905Y-78554819D02*
X57964286Y-79031009D01*
X57964286Y-79031009D02*
X58011905Y-78983390D01*
X58011905Y-78983390D02*
X58107143Y-78935771D01*
X58107143Y-78935771D02*
X58345238Y-78935771D01*
X58345238Y-78935771D02*
X58440476Y-78983390D01*
X58440476Y-78983390D02*
X58488095Y-79031009D01*
X58488095Y-79031009D02*
X58535714Y-79126247D01*
X58535714Y-79126247D02*
X58535714Y-79364342D01*
X58535714Y-79364342D02*
X58488095Y-79459580D01*
X58488095Y-79459580D02*
X58440476Y-79507200D01*
X58440476Y-79507200D02*
X58345238Y-79554819D01*
X58345238Y-79554819D02*
X58107143Y-79554819D01*
X58107143Y-79554819D02*
X58011905Y-79507200D01*
X58011905Y-79507200D02*
X57964286Y-79459580D01*
X51473433Y-58241212D02*
X51425814Y-58288832D01*
X51425814Y-58288832D02*
X51282957Y-58336451D01*
X51282957Y-58336451D02*
X51187719Y-58336451D01*
X51187719Y-58336451D02*
X51044862Y-58288832D01*
X51044862Y-58288832D02*
X50949624Y-58193593D01*
X50949624Y-58193593D02*
X50902005Y-58098355D01*
X50902005Y-58098355D02*
X50854386Y-57907879D01*
X50854386Y-57907879D02*
X50854386Y-57765022D01*
X50854386Y-57765022D02*
X50902005Y-57574546D01*
X50902005Y-57574546D02*
X50949624Y-57479308D01*
X50949624Y-57479308D02*
X51044862Y-57384070D01*
X51044862Y-57384070D02*
X51187719Y-57336451D01*
X51187719Y-57336451D02*
X51282957Y-57336451D01*
X51282957Y-57336451D02*
X51425814Y-57384070D01*
X51425814Y-57384070D02*
X51473433Y-57431689D01*
X51854386Y-57431689D02*
X51902005Y-57384070D01*
X51902005Y-57384070D02*
X51997243Y-57336451D01*
X51997243Y-57336451D02*
X52235338Y-57336451D01*
X52235338Y-57336451D02*
X52330576Y-57384070D01*
X52330576Y-57384070D02*
X52378195Y-57431689D01*
X52378195Y-57431689D02*
X52425814Y-57526927D01*
X52425814Y-57526927D02*
X52425814Y-57622165D01*
X52425814Y-57622165D02*
X52378195Y-57765022D01*
X52378195Y-57765022D02*
X51806767Y-58336451D01*
X51806767Y-58336451D02*
X52425814Y-58336451D01*
X55666819Y-88666904D02*
X56476342Y-88666904D01*
X56476342Y-88666904D02*
X56571580Y-88619285D01*
X56571580Y-88619285D02*
X56619200Y-88571666D01*
X56619200Y-88571666D02*
X56666819Y-88476428D01*
X56666819Y-88476428D02*
X56666819Y-88285952D01*
X56666819Y-88285952D02*
X56619200Y-88190714D01*
X56619200Y-88190714D02*
X56571580Y-88143095D01*
X56571580Y-88143095D02*
X56476342Y-88095476D01*
X56476342Y-88095476D02*
X55666819Y-88095476D01*
X55666819Y-87714523D02*
X55666819Y-87047857D01*
X55666819Y-87047857D02*
X56666819Y-87476428D01*
D13*
G04 #@! TO.C,R13*
X72727000Y-57190000D02*
X73181128Y-57190000D01*
X72727000Y-58660000D02*
X73181128Y-58660000D01*
D14*
G04 #@! TO.C,U4*
X45050000Y-38400000D02*
X45050000Y-42800000D01*
X48050000Y-38400000D02*
X48050000Y-42800000D01*
D11*
X47875000Y-35785000D02*
G75*
G02*
X47675000Y-35785000I-100000J0D01*
G01*
X47675000Y-35785000D02*
G75*
G02*
X47875000Y-35785000I100000J0D01*
G01*
D13*
G04 #@! TO.C,R19*
X72727000Y-52290000D02*
X73181128Y-52290000D01*
X72727000Y-53760000D02*
X73181128Y-53760000D01*
G04 #@! TO.C,R2*
X52090000Y-65950640D02*
X52090000Y-65496512D01*
X53560000Y-65950640D02*
X53560000Y-65496512D01*
G04 #@! TO.C,R21*
X59727064Y-91365000D02*
X59272936Y-91365000D01*
X59727064Y-92835000D02*
X59272936Y-92835000D01*
D12*
G04 #@! TO.C,U2*
X45000000Y-65825000D02*
X45000000Y-61675000D01*
X50150000Y-65825000D02*
X50150000Y-61675000D01*
D13*
X45075000Y-66250000D02*
X44745000Y-66490000D01*
X44745000Y-66010000D01*
X45075000Y-66250000D01*
G36*
X45075000Y-66250000D02*
G01*
X44745000Y-66490000D01*
X44745000Y-66010000D01*
X45075000Y-66250000D01*
G37*
D14*
G04 #@! TO.C,U6*
X58225000Y-38400000D02*
X58225000Y-42800000D01*
X61225000Y-38400000D02*
X61225000Y-42800000D01*
D11*
X61050000Y-35785000D02*
G75*
G02*
X60850000Y-35785000I-100000J0D01*
G01*
X60850000Y-35785000D02*
G75*
G02*
X61050000Y-35785000I100000J0D01*
G01*
D13*
G04 #@! TO.C,C6*
X34265000Y-53461252D02*
X34265000Y-52938748D01*
X35735000Y-53461252D02*
X35735000Y-52938748D01*
G04 #@! TO.C,C3*
X48311252Y-54565000D02*
X46888748Y-54565000D01*
X48311252Y-56385000D02*
X46888748Y-56385000D01*
G04 #@! TO.C,L1*
X39390000Y-73590000D02*
X46710000Y-73590000D01*
X39390000Y-74990000D02*
X39390000Y-73590000D01*
X39390000Y-80410000D02*
X39390000Y-79010000D01*
X46710000Y-73590000D02*
X46710000Y-74990000D01*
X46710000Y-79010000D02*
X46710000Y-80410000D01*
X46710000Y-80410000D02*
X39390000Y-80410000D01*
G04 #@! TO.C,C1*
X79481525Y-79415000D02*
X78959021Y-79415000D01*
X79481525Y-80885000D02*
X78959021Y-80885000D01*
G04 #@! TO.C,R6*
X28472936Y-28840000D02*
X28927064Y-28840000D01*
X28472936Y-30310000D02*
X28927064Y-30310000D01*
G04 #@! TO.C,R1*
X52115000Y-71277064D02*
X52115000Y-70822936D01*
X53585000Y-71277064D02*
X53585000Y-70822936D01*
D14*
G04 #@! TO.C,D2*
X41240000Y-60225000D02*
X41240000Y-65425000D01*
X44160000Y-60225000D02*
X44160000Y-65425000D01*
D11*
X42800000Y-58825000D02*
G75*
G02*
X42600000Y-58825000I-100000J0D01*
G01*
X42600000Y-58825000D02*
G75*
G02*
X42800000Y-58825000I100000J0D01*
G01*
D13*
G04 #@! TO.C,R3*
X34072936Y-45465000D02*
X34527064Y-45465000D01*
X34072936Y-46935000D02*
X34527064Y-46935000D01*
D14*
G04 #@! TO.C,U5*
X51925000Y-38400000D02*
X51925000Y-42800000D01*
X54925000Y-38400000D02*
X54925000Y-42800000D01*
D11*
X54750000Y-35785000D02*
G75*
G02*
X54550000Y-35785000I-100000J0D01*
G01*
X54550000Y-35785000D02*
G75*
G02*
X54750000Y-35785000I100000J0D01*
G01*
D13*
G04 #@! TO.C,J6*
X98070000Y-61605000D02*
X98070000Y-48845000D01*
X98070000Y-64205000D02*
X98070000Y-62875000D01*
X99400000Y-64205000D02*
X98070000Y-64205000D01*
X100730000Y-48845000D02*
X98070000Y-48845000D01*
X100730000Y-61605000D02*
X98070000Y-61605000D01*
X100730000Y-61605000D02*
X100730000Y-48845000D01*
G04 #@! TO.C,R7*
X82827064Y-77665000D02*
X82372936Y-77665000D01*
X82827064Y-79135000D02*
X82372936Y-79135000D01*
D15*
G04 #@! TO.C,G\u002A\u002A\u002A*
G36*
X30110000Y-93975000D02*
G01*
X30110000Y-94995000D01*
X29824583Y-95000551D01*
X29704965Y-95001972D01*
X29620420Y-95000617D01*
X29566095Y-94996157D01*
X29537140Y-94988264D01*
X29529379Y-94980551D01*
X29527559Y-94956058D01*
X29526054Y-94895483D01*
X29524880Y-94802743D01*
X29524055Y-94681753D01*
X29523598Y-94536431D01*
X29523525Y-94370693D01*
X29523853Y-94188456D01*
X29524602Y-93993637D01*
X29524795Y-93955000D01*
X29530000Y-92955000D01*
X29820000Y-92955000D01*
X30110000Y-92955000D01*
X30110000Y-93975000D01*
G37*
G36*
X43305000Y-92949773D02*
G01*
X44110000Y-92955000D01*
X44115655Y-93180000D01*
X44121310Y-93405000D01*
X43600655Y-93405000D01*
X43080000Y-93405000D01*
X43080000Y-93575000D01*
X43080000Y-93745000D01*
X43540676Y-93745000D01*
X44001353Y-93745000D01*
X43995676Y-93960000D01*
X43990000Y-94175000D01*
X43535000Y-94180375D01*
X43080000Y-94185750D01*
X43080000Y-94365048D01*
X43080000Y-94544346D01*
X43615000Y-94549673D01*
X44150000Y-94555000D01*
X44150000Y-94775000D01*
X44150000Y-94995000D01*
X43325000Y-95000221D01*
X42500000Y-95005443D01*
X42500000Y-93974994D01*
X42500000Y-92944546D01*
X43305000Y-92949773D01*
G37*
G36*
X29260000Y-93174773D02*
G01*
X29260000Y-93405000D01*
X28740000Y-93405000D01*
X28220000Y-93405000D01*
X28220000Y-93625000D01*
X28220000Y-93845000D01*
X28680655Y-93845000D01*
X29141310Y-93845000D01*
X29135655Y-94070000D01*
X29130000Y-94295000D01*
X28675000Y-94300375D01*
X28220000Y-94305750D01*
X28220000Y-94655375D01*
X28220000Y-95005000D01*
X27939372Y-95005000D01*
X27818188Y-95003911D01*
X27732807Y-95000408D01*
X27679086Y-94994133D01*
X27652879Y-94984729D01*
X27649168Y-94980000D01*
X27647389Y-94955618D01*
X27645922Y-94895151D01*
X27644784Y-94802512D01*
X27643991Y-94681617D01*
X27643559Y-94536377D01*
X27643506Y-94370708D01*
X27643847Y-94188522D01*
X27644601Y-93993734D01*
X27644795Y-93955000D01*
X27650000Y-92955000D01*
X28455000Y-92949773D01*
X29260000Y-92944546D01*
X29260000Y-93174773D01*
G37*
G36*
X25074642Y-93570951D02*
G01*
X25160205Y-93652193D01*
X25247850Y-93735070D01*
X25327161Y-93809752D01*
X25386616Y-93865380D01*
X25503232Y-93973859D01*
X25386616Y-94083781D01*
X25325440Y-94141566D01*
X25245730Y-94217027D01*
X25157929Y-94300272D01*
X25074642Y-94379352D01*
X24879284Y-94565000D01*
X24689642Y-94565000D01*
X24608080Y-94564085D01*
X24544101Y-94561627D01*
X24506400Y-94558054D01*
X24500000Y-94555649D01*
X24513659Y-94539086D01*
X24550870Y-94500847D01*
X24605982Y-94446590D01*
X24673345Y-94381975D01*
X24674743Y-94380649D01*
X24759443Y-94300321D01*
X24848964Y-94215361D01*
X24930728Y-94137709D01*
X24976157Y-94094528D01*
X25102828Y-93974056D01*
X24966414Y-93845367D01*
X24831647Y-93718088D01*
X24723678Y-93615762D01*
X24640074Y-93536039D01*
X24578403Y-93476564D01*
X24536231Y-93434987D01*
X24511127Y-93408954D01*
X24500658Y-93396114D01*
X24500000Y-93394350D01*
X24518549Y-93390329D01*
X24568402Y-93387174D01*
X24640862Y-93385315D01*
X24689642Y-93385000D01*
X24879284Y-93385000D01*
X25074642Y-93570951D01*
G37*
G36*
X25903510Y-93597700D02*
G01*
X26013743Y-93688020D01*
X26114573Y-93770821D01*
X26201605Y-93842479D01*
X26270447Y-93899373D01*
X26316707Y-93937881D01*
X26335481Y-93953895D01*
X26339347Y-93968315D01*
X26325268Y-93992296D01*
X26289855Y-94029314D01*
X26229722Y-94082845D01*
X26141483Y-94156367D01*
X26125481Y-94169442D01*
X26020880Y-94254832D01*
X25906190Y-94348588D01*
X25794735Y-94439812D01*
X25699839Y-94517603D01*
X25692964Y-94523247D01*
X25495929Y-94685000D01*
X25262964Y-94684413D01*
X25030000Y-94683827D01*
X25090873Y-94629413D01*
X25124921Y-94600141D01*
X25184144Y-94550444D01*
X25262711Y-94485163D01*
X25354790Y-94409143D01*
X25454550Y-94327226D01*
X25469486Y-94315000D01*
X25568843Y-94233643D01*
X25660468Y-94158517D01*
X25738790Y-94094198D01*
X25798239Y-94045259D01*
X25833247Y-94016275D01*
X25836397Y-94013636D01*
X25885570Y-93972273D01*
X25726092Y-93843636D01*
X25599078Y-93740826D01*
X25476274Y-93640755D01*
X25361471Y-93546571D01*
X25258460Y-93461424D01*
X25171032Y-93388462D01*
X25102980Y-93330836D01*
X25058093Y-93291694D01*
X25040164Y-93274186D01*
X25040000Y-93273737D01*
X25058679Y-93270286D01*
X25109435Y-93267479D01*
X25184348Y-93265617D01*
X25268510Y-93265000D01*
X25497021Y-93265000D01*
X25903510Y-93597700D01*
G37*
G36*
X26270000Y-93105076D02*
G01*
X26570000Y-93324892D01*
X26759784Y-93464016D01*
X26919740Y-93581458D01*
X27052357Y-93679105D01*
X27160128Y-93758844D01*
X27245541Y-93822561D01*
X27311088Y-93872144D01*
X27359258Y-93909479D01*
X27392543Y-93936454D01*
X27413432Y-93954955D01*
X27424416Y-93966869D01*
X27427986Y-93974083D01*
X27428034Y-93975000D01*
X27412341Y-93991047D01*
X27367923Y-94027832D01*
X27298404Y-94082567D01*
X27207411Y-94152467D01*
X27098568Y-94234745D01*
X26975502Y-94326614D01*
X26849038Y-94420000D01*
X26270551Y-94845000D01*
X25975275Y-94845000D01*
X25871754Y-94843975D01*
X25784089Y-94841153D01*
X25719249Y-94836913D01*
X25684200Y-94831635D01*
X25680000Y-94828936D01*
X25695403Y-94812761D01*
X25738383Y-94776956D01*
X25804091Y-94725316D01*
X25887679Y-94661636D01*
X25984301Y-94589712D01*
X26005000Y-94574498D01*
X26207274Y-94425989D01*
X26378142Y-94300210D01*
X26518589Y-94196427D01*
X26629602Y-94113903D01*
X26712170Y-94051906D01*
X26767277Y-94009698D01*
X26795911Y-93986547D01*
X26800480Y-93982073D01*
X26798722Y-93975461D01*
X26786328Y-93961903D01*
X26760899Y-93939570D01*
X26720038Y-93906633D01*
X26661344Y-93861262D01*
X26582420Y-93801629D01*
X26480866Y-93725905D01*
X26354285Y-93632261D01*
X26200278Y-93518868D01*
X26016445Y-93383897D01*
X26005000Y-93375501D01*
X25906330Y-93302370D01*
X25819714Y-93236716D01*
X25749998Y-93182335D01*
X25702030Y-93143020D01*
X25680656Y-93122568D01*
X25680000Y-93121063D01*
X25698836Y-93115432D01*
X25750699Y-93110668D01*
X25828616Y-93107150D01*
X25925617Y-93105258D01*
X25975000Y-93105038D01*
X26270000Y-93105076D01*
G37*
G36*
X35908391Y-93536427D02*
G01*
X36266783Y-94128650D01*
X36313304Y-94051825D01*
X36335267Y-94015180D01*
X36374578Y-93949204D01*
X36428214Y-93858986D01*
X36493149Y-93749619D01*
X36566359Y-93626194D01*
X36644820Y-93493803D01*
X36664912Y-93459883D01*
X36970000Y-92944767D01*
X37210000Y-92949883D01*
X37450000Y-92955000D01*
X37455181Y-93980000D01*
X37460363Y-95005000D01*
X37190181Y-95005000D01*
X36920000Y-95005000D01*
X36920000Y-94471666D01*
X36919464Y-94331214D01*
X36917955Y-94205659D01*
X36915617Y-94100004D01*
X36912594Y-94019252D01*
X36909031Y-93968404D01*
X36905073Y-93952465D01*
X36905000Y-93952528D01*
X36890860Y-93972979D01*
X36859160Y-94022840D01*
X36812923Y-94097222D01*
X36755173Y-94191239D01*
X36688935Y-94300001D01*
X36640000Y-94380861D01*
X36390000Y-94795000D01*
X36260283Y-94795000D01*
X36130567Y-94795000D01*
X36070283Y-94700910D01*
X36039889Y-94652685D01*
X35993471Y-94578059D01*
X35935825Y-94484786D01*
X35871745Y-94380620D01*
X35820000Y-94296173D01*
X35758706Y-94197229D01*
X35703977Y-94111273D01*
X35659370Y-94043703D01*
X35628444Y-93999916D01*
X35615000Y-93985263D01*
X35610938Y-94004305D01*
X35607294Y-94058048D01*
X35604223Y-94141193D01*
X35601882Y-94248441D01*
X35600425Y-94374493D01*
X35600000Y-94495000D01*
X35600000Y-95005000D01*
X35339372Y-95005000D01*
X35222600Y-95003780D01*
X35141628Y-94999865D01*
X35092319Y-94992873D01*
X35070540Y-94982421D01*
X35069168Y-94980000D01*
X35067389Y-94955618D01*
X35065922Y-94895151D01*
X35064784Y-94802512D01*
X35063991Y-94681617D01*
X35063559Y-94536377D01*
X35063506Y-94370708D01*
X35063847Y-94188522D01*
X35064601Y-93993734D01*
X35064795Y-93955000D01*
X35070000Y-92955000D01*
X35310000Y-92949602D01*
X35550000Y-92944204D01*
X35908391Y-93536427D01*
G37*
G36*
X31698203Y-92916120D02*
G01*
X31892114Y-92950692D01*
X32073528Y-93011681D01*
X32235398Y-93097248D01*
X32370678Y-93205557D01*
X32380000Y-93215004D01*
X32450000Y-93287244D01*
X32350000Y-93376501D01*
X32281436Y-93437086D01*
X32209699Y-93499538D01*
X32166690Y-93536403D01*
X32083380Y-93607048D01*
X31952848Y-93517682D01*
X31811708Y-93441150D01*
X31668854Y-93400116D01*
X31528821Y-93392404D01*
X31396145Y-93415835D01*
X31275359Y-93468235D01*
X31171001Y-93547426D01*
X31087603Y-93651232D01*
X31029703Y-93777476D01*
X31001834Y-93923982D01*
X31000000Y-93975000D01*
X31017592Y-94130393D01*
X31068191Y-94266566D01*
X31148531Y-94380147D01*
X31255342Y-94467768D01*
X31385358Y-94526060D01*
X31535312Y-94551653D01*
X31560000Y-94552474D01*
X31647183Y-94549058D01*
X31734972Y-94538115D01*
X31785000Y-94527152D01*
X31880000Y-94499801D01*
X31880000Y-94212400D01*
X31880000Y-93925000D01*
X32140000Y-93925000D01*
X32400000Y-93925000D01*
X32400000Y-94353284D01*
X32400000Y-94781569D01*
X32305000Y-94838835D01*
X32228661Y-94882984D01*
X32162090Y-94915671D01*
X32091774Y-94942282D01*
X32004203Y-94968206D01*
X31934985Y-94986382D01*
X31844857Y-95005169D01*
X31738367Y-95020854D01*
X31626604Y-95032506D01*
X31520659Y-95039194D01*
X31431622Y-95039987D01*
X31370583Y-95033953D01*
X31370000Y-95033820D01*
X31328211Y-95024796D01*
X31264343Y-95011628D01*
X31220000Y-95002708D01*
X31061057Y-94953040D01*
X30903995Y-94870895D01*
X30758548Y-94763018D01*
X30634451Y-94636153D01*
X30576144Y-94556608D01*
X30496277Y-94410498D01*
X30445206Y-94259578D01*
X30419838Y-94092639D01*
X30415661Y-93975000D01*
X30433502Y-93763717D01*
X30486019Y-93571258D01*
X30571703Y-93399397D01*
X30689046Y-93249908D01*
X30836538Y-93124567D01*
X31012671Y-93025148D01*
X31215936Y-92953425D01*
X31301075Y-92933579D01*
X31498841Y-92909803D01*
X31698203Y-92916120D01*
G37*
G36*
X40855000Y-92945697D02*
G01*
X41074569Y-92947464D01*
X41258887Y-92952772D01*
X41412620Y-92962601D01*
X41540436Y-92977932D01*
X41647000Y-92999746D01*
X41736979Y-93029024D01*
X41815040Y-93066745D01*
X41885849Y-93113892D01*
X41954074Y-93171443D01*
X41961340Y-93178189D01*
X42052766Y-93275235D01*
X42115151Y-93372601D01*
X42153472Y-93481586D01*
X42172705Y-93613488D01*
X42175756Y-93665000D01*
X42172134Y-93829947D01*
X42143438Y-93969730D01*
X42086217Y-94091032D01*
X41997021Y-94200540D01*
X41872401Y-94304939D01*
X41830296Y-94334432D01*
X41808522Y-94351726D01*
X41804219Y-94370309D01*
X41819424Y-94400885D01*
X41851943Y-94448171D01*
X41915613Y-94539004D01*
X41981991Y-94634939D01*
X42047150Y-94730154D01*
X42107164Y-94818829D01*
X42158105Y-94895144D01*
X42196047Y-94953278D01*
X42217064Y-94987411D01*
X42220000Y-94993720D01*
X42201141Y-94997608D01*
X42149127Y-95000917D01*
X42070803Y-95003394D01*
X41973011Y-95004787D01*
X41913879Y-95005000D01*
X41607759Y-95005000D01*
X41422929Y-94735000D01*
X41238099Y-94465000D01*
X41079049Y-94465000D01*
X40920000Y-94465000D01*
X40920000Y-94735000D01*
X40920000Y-95005000D01*
X40630000Y-95005000D01*
X40340000Y-95005000D01*
X40340000Y-94009213D01*
X40920000Y-94009213D01*
X41155000Y-94002100D01*
X41264190Y-93997544D01*
X41342310Y-93990674D01*
X41398275Y-93980091D01*
X41441004Y-93964400D01*
X41460000Y-93954314D01*
X41537910Y-93887787D01*
X41583121Y-93799866D01*
X41593490Y-93694968D01*
X41592299Y-93681527D01*
X41576493Y-93595937D01*
X41545205Y-93534491D01*
X41489470Y-93481867D01*
X41465423Y-93464672D01*
X41430772Y-93443778D01*
X41392933Y-93429402D01*
X41342934Y-93419907D01*
X41271809Y-93413655D01*
X41170587Y-93409011D01*
X41157952Y-93408553D01*
X40920000Y-93400069D01*
X40920000Y-93704641D01*
X40920000Y-94009213D01*
X40340000Y-94009213D01*
X40340000Y-93975000D01*
X40340000Y-93704641D01*
X40340000Y-92945000D01*
X40855000Y-92945697D01*
G37*
G36*
X39000724Y-92918080D02*
G01*
X39084232Y-92922723D01*
X39153270Y-92932607D01*
X39220583Y-92949490D01*
X39290000Y-92972041D01*
X39487986Y-93058417D01*
X39655899Y-93170978D01*
X39794339Y-93310237D01*
X39903906Y-93476705D01*
X39920957Y-93510315D01*
X39994371Y-93696450D01*
X40030226Y-93878380D01*
X40029588Y-94062295D01*
X40024014Y-94108188D01*
X39975739Y-94314390D01*
X39894170Y-94499421D01*
X39781165Y-94661198D01*
X39638582Y-94797638D01*
X39468278Y-94906657D01*
X39272112Y-94986174D01*
X39230103Y-94998309D01*
X39157199Y-95012588D01*
X39059785Y-95024439D01*
X38951438Y-95032972D01*
X38845736Y-95037296D01*
X38756258Y-95036524D01*
X38710000Y-95032389D01*
X38545426Y-94993929D01*
X38382339Y-94932239D01*
X38232112Y-94852757D01*
X38106116Y-94760918D01*
X38068953Y-94725952D01*
X37949445Y-94589783D01*
X37863455Y-94455031D01*
X37806601Y-94311545D01*
X37774498Y-94149172D01*
X37764486Y-94020782D01*
X37765054Y-93971098D01*
X38347488Y-93971098D01*
X38361185Y-94112614D01*
X38401837Y-94245218D01*
X38468153Y-94359012D01*
X38496072Y-94391400D01*
X38607026Y-94479750D01*
X38735973Y-94535002D01*
X38876838Y-94556007D01*
X39023547Y-94541616D01*
X39125154Y-94510389D01*
X39202046Y-94464095D01*
X39279920Y-94391050D01*
X39348716Y-94302949D01*
X39398377Y-94211487D01*
X39409802Y-94179426D01*
X39438080Y-94024294D01*
X39432074Y-93872458D01*
X39393085Y-93731026D01*
X39322416Y-93607103D01*
X39299867Y-93579596D01*
X39196064Y-93484268D01*
X39081388Y-93425094D01*
X38948643Y-93398866D01*
X38890000Y-93396876D01*
X38741486Y-93414967D01*
X38613020Y-93467610D01*
X38505518Y-93554229D01*
X38419900Y-93674247D01*
X38406114Y-93700918D01*
X38362034Y-93830566D01*
X38347488Y-93971098D01*
X37765054Y-93971098D01*
X37766499Y-93844731D01*
X37790228Y-93692983D01*
X37838412Y-93554633D01*
X37913790Y-93418771D01*
X37916796Y-93414169D01*
X38034628Y-93260697D01*
X38168822Y-93138168D01*
X38326510Y-93041112D01*
X38494629Y-92970944D01*
X38569390Y-92946751D01*
X38635398Y-92930972D01*
X38705231Y-92921889D01*
X38791466Y-92917784D01*
X38890000Y-92916923D01*
X39000724Y-92918080D01*
G37*
G36*
X33714607Y-92945000D02*
G01*
X34002041Y-92945000D01*
X34030330Y-93012706D01*
X34045070Y-93046940D01*
X34073866Y-93112900D01*
X34114584Y-93205730D01*
X34165091Y-93320578D01*
X34223254Y-93452592D01*
X34286938Y-93596917D01*
X34331466Y-93697706D01*
X34442014Y-93947841D01*
X34537458Y-94163869D01*
X34618878Y-94348259D01*
X34687357Y-94503482D01*
X34743978Y-94632007D01*
X34789823Y-94736306D01*
X34825975Y-94818849D01*
X34853515Y-94882104D01*
X34873527Y-94928544D01*
X34887093Y-94960637D01*
X34895296Y-94980855D01*
X34899217Y-94991667D01*
X34900000Y-94995136D01*
X34881156Y-94998579D01*
X34829248Y-95001498D01*
X34751211Y-95003664D01*
X34653980Y-95004848D01*
X34601866Y-95005000D01*
X34303732Y-95005000D01*
X34242253Y-94857320D01*
X34210170Y-94779688D01*
X34181835Y-94710132D01*
X34162685Y-94662019D01*
X34160882Y-94657320D01*
X34140990Y-94605000D01*
X33705495Y-94605382D01*
X33270000Y-94605765D01*
X33193673Y-94805382D01*
X33117346Y-95005000D01*
X32819168Y-95005000D01*
X32520990Y-95005000D01*
X32538268Y-94960000D01*
X32550975Y-94929630D01*
X32577457Y-94868312D01*
X32615261Y-94781658D01*
X32661934Y-94675280D01*
X32715020Y-94554790D01*
X32754708Y-94465000D01*
X32819955Y-94317564D01*
X32896351Y-94144918D01*
X32896544Y-94144482D01*
X33466236Y-94144482D01*
X33475835Y-94154324D01*
X33503406Y-94160410D01*
X33554993Y-94163624D01*
X33636642Y-94164850D01*
X33707860Y-94165000D01*
X33803002Y-94164438D01*
X33881715Y-94162904D01*
X33936457Y-94160624D01*
X33959687Y-94157824D01*
X33960000Y-94157447D01*
X33952892Y-94137251D01*
X33933316Y-94086652D01*
X33903888Y-94012291D01*
X33867225Y-93920811D01*
X33847694Y-93872447D01*
X33807151Y-93772113D01*
X33771212Y-93682853D01*
X33742918Y-93612243D01*
X33725312Y-93567864D01*
X33721785Y-93558736D01*
X33710356Y-93563559D01*
X33687315Y-93601617D01*
X33654612Y-93668516D01*
X33614195Y-93759860D01*
X33568012Y-93871252D01*
X33518012Y-93998296D01*
X33468562Y-94130000D01*
X33466236Y-94144482D01*
X32896544Y-94144482D01*
X32978864Y-93958430D01*
X33062465Y-93769471D01*
X33142122Y-93589412D01*
X33190521Y-93479999D01*
X33427173Y-92944999D01*
X33714607Y-92945000D01*
G37*
D13*
G04 #@! TO.C,J3*
X22180000Y-31305000D02*
X31420000Y-31305000D01*
X22180000Y-33625000D02*
X22180000Y-31305000D01*
X22180000Y-46545000D02*
X22180000Y-34225000D01*
X22700000Y-31305000D02*
X22700000Y-46545000D01*
X23800000Y-31305000D02*
X23800000Y-46545000D01*
X31420000Y-31305000D02*
X31420000Y-46545000D01*
X31420000Y-46545000D02*
X22180000Y-46545000D01*
G04 #@! TO.C,R18*
X53165000Y-48877064D02*
X53165000Y-48422936D01*
X54635000Y-48877064D02*
X54635000Y-48422936D01*
G04 #@! TO.C,C4*
X41499450Y-68390000D02*
X42021954Y-68390000D01*
X41499450Y-69860000D02*
X42021954Y-69860000D01*
G04 #@! TO.C,R20*
X48265000Y-85697936D02*
X48265000Y-86152064D01*
X49735000Y-85697936D02*
X49735000Y-86152064D01*
G04 #@! TO.C,J1*
X24000000Y-70567500D02*
X35900000Y-70567500D01*
X24000000Y-79767500D02*
X24000000Y-70567500D01*
X30000000Y-79767500D02*
X24000000Y-79767500D01*
X35050000Y-70367500D02*
X36100000Y-70367500D01*
X35900000Y-70567500D02*
X35900000Y-73167500D01*
X35900000Y-77067500D02*
X35900000Y-79767500D01*
X35900000Y-79767500D02*
X34000000Y-79767500D01*
X36100000Y-71417500D02*
X36100000Y-70367500D01*
G04 #@! TO.C,R10*
X72697629Y-59805941D02*
X73151757Y-59805941D01*
X72697629Y-61275941D02*
X73151757Y-61275941D01*
G04 #@! TO.C,R15*
X50015000Y-48877064D02*
X50015000Y-48422936D01*
X51485000Y-48877064D02*
X51485000Y-48422936D01*
G04 #@! TO.C,R16*
X72727000Y-54740000D02*
X73181128Y-54740000D01*
X72727000Y-56210000D02*
X73181128Y-56210000D01*
G04 #@! TO.C,R17*
X52465000Y-33127064D02*
X52465000Y-32672936D01*
X53935000Y-33127064D02*
X53935000Y-32672936D01*
G04 #@! TO.C,J2*
X22180000Y-47655000D02*
X31420000Y-47655000D01*
X22180000Y-49975000D02*
X22180000Y-47655000D01*
X22180000Y-67895000D02*
X22180000Y-50575000D01*
X22700000Y-47655000D02*
X22700000Y-67895000D01*
X23800000Y-47655000D02*
X23800000Y-67895000D01*
X31420000Y-47655000D02*
X31420000Y-67895000D01*
X31420000Y-67895000D02*
X22180000Y-67895000D01*
D14*
G04 #@! TO.C,U1*
X66407500Y-91275000D02*
X66407500Y-45015000D01*
X67407500Y-44015000D02*
X71377500Y-44015000D01*
X71377500Y-37275000D02*
X89377500Y-37275000D01*
X71377500Y-44015000D02*
X71377500Y-37275000D01*
X89377500Y-37275000D02*
X89377500Y-44015000D01*
X89377500Y-44015000D02*
X93347500Y-44015000D01*
X94347500Y-91275000D02*
X94347500Y-45015000D01*
X67407500Y-92275000D02*
G75*
G02*
X66407500Y-91275000I-1J999999D01*
G01*
X94347500Y-91275000D02*
G75*
G02*
X93347500Y-92275000I-1000000J0D01*
G01*
D11*
X65977500Y-45310000D02*
G75*
G02*
X65777500Y-45310000I-100000J0D01*
G01*
X65777500Y-45310000D02*
G75*
G02*
X65977500Y-45310000I100000J0D01*
G01*
D12*
G04 #@! TO.C,J8*
X73915032Y-91209355D02*
X73915032Y-83959355D01*
X73915032Y-94448428D02*
X73915032Y-93970283D01*
X73915032Y-96937500D02*
X73915032Y-94437500D01*
X73915032Y-96937500D02*
X74930064Y-96937500D01*
X74930064Y-96937500D02*
X80430064Y-96937500D01*
X75180064Y-94437500D02*
X73915032Y-94437500D01*
X80430064Y-95737500D02*
X80430064Y-96937500D01*
X80430064Y-96937500D02*
X85930064Y-96937500D01*
X85865032Y-96937500D02*
X88665032Y-96937500D01*
X87165032Y-82459355D02*
X84415032Y-82459355D01*
X87265032Y-94437500D02*
X88665032Y-94437500D01*
X88665032Y-91209355D02*
X88665032Y-83959355D01*
X88665032Y-94437500D02*
X88665032Y-93959355D01*
X88665032Y-96937500D02*
X88665032Y-94437500D01*
D13*
G04 #@! TO.C,R5*
X34615000Y-37327064D02*
X34615000Y-36872936D01*
X36085000Y-37327064D02*
X36085000Y-36872936D01*
G04 #@! TO.C,U8*
X38190000Y-47665000D02*
X42310000Y-47665000D01*
X38190000Y-47760000D02*
X38190000Y-47665000D01*
X38190000Y-52785000D02*
X38190000Y-52690000D01*
X42310000Y-47665000D02*
X42310000Y-47760000D01*
X42310000Y-52690000D02*
X42310000Y-52785000D01*
X42310000Y-52785000D02*
X38190000Y-52785000D01*
X43090000Y-53025000D02*
X42610000Y-53025000D01*
X42850000Y-52695000D01*
X43090000Y-53025000D01*
G36*
X43090000Y-53025000D02*
G01*
X42610000Y-53025000D01*
X42850000Y-52695000D01*
X43090000Y-53025000D01*
G37*
G04 #@! TO.C,J7*
X95890000Y-65515000D02*
X95890000Y-78135000D01*
X95890000Y-78135000D02*
X101860000Y-78135000D01*
X96650000Y-66275000D02*
X96650000Y-71825000D01*
X96650000Y-77375000D02*
X96650000Y-71825000D01*
X99600000Y-65525000D02*
X99600000Y-66275000D01*
X99600000Y-66275000D02*
X96650000Y-66275000D01*
X99600000Y-77375000D02*
X96650000Y-77375000D01*
X99600000Y-78125000D02*
X99600000Y-77375000D01*
X101100000Y-65525000D02*
X101100000Y-67325000D01*
X101100000Y-67325000D02*
X101850000Y-67325000D01*
X101100000Y-68825000D02*
X101100000Y-74825000D01*
X101100000Y-74825000D02*
X101850000Y-74825000D01*
X101100000Y-76325000D02*
X101100000Y-78125000D01*
X101100000Y-78125000D02*
X101850000Y-78125000D01*
X101850000Y-65525000D02*
X101100000Y-65525000D01*
X101850000Y-67325000D02*
X101850000Y-65525000D01*
X101850000Y-68825000D02*
X101100000Y-68825000D01*
X101850000Y-74825000D02*
X101850000Y-68825000D01*
X101850000Y-76325000D02*
X101100000Y-76325000D01*
X101850000Y-78125000D02*
X101850000Y-76325000D01*
X101860000Y-65515000D02*
X95890000Y-65515000D01*
X101860000Y-78135000D02*
X101860000Y-65515000D01*
X102150000Y-65225000D02*
X100900000Y-65225000D01*
X102150000Y-66475000D02*
X102150000Y-65225000D01*
D15*
G04 #@! TO.C,G\u002A\u002A\u002A*
G36*
X58211721Y-63667363D02*
G01*
X58258713Y-63670360D01*
X58291391Y-63674960D01*
X58303525Y-63679067D01*
X58299618Y-63686456D01*
X58280308Y-63700729D01*
X58249252Y-63719342D01*
X58233079Y-63728107D01*
X58156355Y-63771855D01*
X58082714Y-63821358D01*
X58006849Y-63880460D01*
X57927278Y-63949545D01*
X57890398Y-63982337D01*
X57859615Y-64008749D01*
X57838086Y-64026139D01*
X57828970Y-64031865D01*
X57828923Y-64031830D01*
X57828734Y-64020354D01*
X57832031Y-63994828D01*
X57835257Y-63976144D01*
X57840142Y-63945438D01*
X57841840Y-63924703D01*
X57841081Y-63919947D01*
X57835280Y-63927189D01*
X57822867Y-63949870D01*
X57805930Y-63984028D01*
X57794228Y-64008895D01*
X57769028Y-64058081D01*
X57735858Y-64115453D01*
X57699826Y-64172427D01*
X57677991Y-64204203D01*
X57642400Y-64254660D01*
X57605287Y-64308498D01*
X57571943Y-64357988D01*
X57554600Y-64384470D01*
X57531942Y-64418861D01*
X57513920Y-64444647D01*
X57503278Y-64457967D01*
X57501650Y-64458894D01*
X57501800Y-64447582D01*
X57504613Y-64420136D01*
X57509549Y-64381447D01*
X57512591Y-64359785D01*
X57518822Y-64304430D01*
X57523561Y-64239015D01*
X57526070Y-64174729D01*
X57526284Y-64152459D01*
X57526156Y-64040823D01*
X57501453Y-64163091D01*
X57468722Y-64312188D01*
X57434298Y-64442841D01*
X57397306Y-64557854D01*
X57356868Y-64660033D01*
X57325452Y-64726591D01*
X57298936Y-64776844D01*
X57277169Y-64813991D01*
X57261345Y-64836236D01*
X57252655Y-64841781D01*
X57251381Y-64838227D01*
X57249732Y-64823825D01*
X57245807Y-64793257D01*
X57240245Y-64751421D01*
X57235432Y-64715959D01*
X57224758Y-64610216D01*
X57220562Y-64501129D01*
X57222840Y-64395809D01*
X57231587Y-64301367D01*
X57235741Y-64274658D01*
X57242487Y-64232752D01*
X57246780Y-64199500D01*
X57248024Y-64179899D01*
X57247428Y-64176859D01*
X57243133Y-64184422D01*
X57235286Y-64208482D01*
X57225179Y-64244828D01*
X57218426Y-64271352D01*
X57209328Y-64314184D01*
X57202401Y-64361561D01*
X57197552Y-64416049D01*
X57194690Y-64480215D01*
X57193724Y-64556626D01*
X57194562Y-64647848D01*
X57197112Y-64756449D01*
X57198965Y-64816963D01*
X57200356Y-64873798D01*
X57199754Y-64915607D01*
X57196462Y-64948586D01*
X57189783Y-64978935D01*
X57179021Y-65012850D01*
X57175957Y-65021631D01*
X57163977Y-65057974D01*
X57156603Y-65085092D01*
X57155092Y-65098189D01*
X57155712Y-65098713D01*
X57166811Y-65091642D01*
X57185102Y-65074271D01*
X57188392Y-65070763D01*
X57211875Y-65048392D01*
X57237113Y-65032538D01*
X57267936Y-65022390D01*
X57308173Y-65017140D01*
X57361657Y-65015980D01*
X57432217Y-65018100D01*
X57436841Y-65018303D01*
X57496340Y-65020144D01*
X57553109Y-65020464D01*
X57601340Y-65019322D01*
X57635227Y-65016781D01*
X57639450Y-65016165D01*
X57661034Y-65012335D01*
X57670868Y-65009299D01*
X57666970Y-65006443D01*
X57647357Y-65003156D01*
X57610047Y-64998824D01*
X57569518Y-64994547D01*
X57502009Y-64986024D01*
X57444270Y-64975851D01*
X57398249Y-64964695D01*
X57365894Y-64953224D01*
X57349151Y-64942102D01*
X57349969Y-64931998D01*
X57365675Y-64924777D01*
X57387435Y-64920045D01*
X57419742Y-64914466D01*
X57432125Y-64912594D01*
X57528325Y-64894127D01*
X57626395Y-64867111D01*
X57721027Y-64833510D01*
X57806908Y-64795289D01*
X57878730Y-64754411D01*
X57899936Y-64739561D01*
X57935089Y-64712193D01*
X57971816Y-64681802D01*
X58006354Y-64651739D01*
X58034942Y-64625353D01*
X58053818Y-64605993D01*
X58059417Y-64597575D01*
X58051816Y-64598902D01*
X58031879Y-64610888D01*
X58003904Y-64630944D01*
X58003598Y-64631177D01*
X57956214Y-64663433D01*
X57896649Y-64698483D01*
X57832107Y-64732539D01*
X57769793Y-64761813D01*
X57716910Y-64782517D01*
X57713875Y-64783507D01*
X57653501Y-64800277D01*
X57580915Y-64816455D01*
X57505134Y-64830185D01*
X57449157Y-64838052D01*
X57386449Y-64845467D01*
X57416578Y-64794003D01*
X57435631Y-64762584D01*
X57462233Y-64720171D01*
X57492148Y-64673473D01*
X57509492Y-64646850D01*
X57572277Y-64551162D01*
X57721457Y-64479526D01*
X57774934Y-64452959D01*
X57831068Y-64423548D01*
X57886875Y-64393036D01*
X57939371Y-64363166D01*
X57985570Y-64335681D01*
X58022489Y-64312324D01*
X58047143Y-64294838D01*
X58056548Y-64284966D01*
X58056264Y-64283980D01*
X58045575Y-64286527D01*
X58019919Y-64296665D01*
X57983444Y-64312669D01*
X57950799Y-64327809D01*
X57909958Y-64346424D01*
X57862246Y-64367033D01*
X57811544Y-64388101D01*
X57761734Y-64408092D01*
X57716695Y-64425472D01*
X57680310Y-64438705D01*
X57656459Y-64446257D01*
X57649012Y-64447178D01*
X57653428Y-64437398D01*
X57668834Y-64413829D01*
X57693056Y-64379382D01*
X57723923Y-64336971D01*
X57759263Y-64289507D01*
X57796901Y-64239903D01*
X57834667Y-64191069D01*
X57870388Y-64145919D01*
X57901890Y-64107364D01*
X57907547Y-64100637D01*
X57962223Y-64038476D01*
X58022205Y-63974493D01*
X58084395Y-63911649D01*
X58145695Y-63852902D01*
X58203008Y-63801211D01*
X58253234Y-63759535D01*
X58293277Y-63730834D01*
X58297325Y-63728358D01*
X58328288Y-63710705D01*
X58351109Y-63699245D01*
X58360759Y-63696462D01*
X58358900Y-63707728D01*
X58351120Y-63733409D01*
X58339078Y-63768053D01*
X58338473Y-63769705D01*
X58318700Y-63834224D01*
X58306455Y-63901774D01*
X58301406Y-63976830D01*
X58303220Y-64063871D01*
X58310054Y-64152116D01*
X58315588Y-64214568D01*
X58320212Y-64276401D01*
X58323501Y-64331211D01*
X58325030Y-64372594D01*
X58325088Y-64378839D01*
X58314898Y-64500204D01*
X58284767Y-64618755D01*
X58236014Y-64731209D01*
X58169958Y-64834280D01*
X58117786Y-64895297D01*
X58041013Y-64966529D01*
X57959492Y-65023605D01*
X57870693Y-65067389D01*
X57772088Y-65098746D01*
X57661147Y-65118543D01*
X57535341Y-65127644D01*
X57437441Y-65128121D01*
X57377313Y-65127336D01*
X57328061Y-65128362D01*
X57286610Y-65132726D01*
X57249882Y-65141957D01*
X57214800Y-65157582D01*
X57178286Y-65181130D01*
X57137264Y-65214129D01*
X57088656Y-65258107D01*
X57029385Y-65314591D01*
X56994936Y-65347860D01*
X56944599Y-65396797D01*
X56899723Y-65440951D01*
X56862473Y-65478149D01*
X56835013Y-65506219D01*
X56819508Y-65522986D01*
X56816849Y-65526654D01*
X56826208Y-65529989D01*
X56853255Y-65532326D01*
X56894440Y-65533717D01*
X56946213Y-65534214D01*
X57005025Y-65533870D01*
X57067326Y-65532738D01*
X57129564Y-65530871D01*
X57188192Y-65528320D01*
X57239658Y-65525139D01*
X57280413Y-65521381D01*
X57293908Y-65519577D01*
X57334788Y-65513449D01*
X57366464Y-65508996D01*
X57384021Y-65506896D01*
X57385990Y-65506867D01*
X57383663Y-65516709D01*
X57375963Y-65541792D01*
X57364405Y-65577236D01*
X57360873Y-65587788D01*
X57340788Y-65676182D01*
X57340511Y-65761509D01*
X57359999Y-65841533D01*
X57366137Y-65856419D01*
X57377320Y-65884570D01*
X57382138Y-65902835D01*
X57381025Y-65906747D01*
X57368547Y-65903356D01*
X57340578Y-65894191D01*
X57301604Y-65880757D01*
X57267328Y-65868597D01*
X57163705Y-65833931D01*
X57062065Y-65804658D01*
X56967056Y-65781931D01*
X56883322Y-65766902D01*
X56836729Y-65761777D01*
X56741363Y-65762424D01*
X56652175Y-65779559D01*
X56566414Y-65814271D01*
X56481327Y-65867649D01*
X56401255Y-65934201D01*
X56354830Y-65976110D01*
X56320278Y-66004791D01*
X56294529Y-66022143D01*
X56274515Y-66030066D01*
X56257166Y-66030463D01*
X56248906Y-66028544D01*
X56203177Y-66006389D01*
X56156192Y-65968593D01*
X56113413Y-65919692D01*
X56107090Y-65910801D01*
X56067390Y-65853159D01*
X56088126Y-65825386D01*
X56110592Y-65804376D01*
X56149534Y-65777583D01*
X56201545Y-65746758D01*
X56263216Y-65713651D01*
X56331139Y-65680012D01*
X56401905Y-65647593D01*
X56472107Y-65618144D01*
X56538336Y-65593416D01*
X56542531Y-65591977D01*
X56590688Y-65574264D01*
X56629949Y-65555841D01*
X56665300Y-65533270D01*
X56701730Y-65503113D01*
X56744225Y-65461929D01*
X56770763Y-65434611D01*
X56867993Y-65325750D01*
X56948558Y-65219403D01*
X57011838Y-65116694D01*
X57057216Y-65018749D01*
X57084073Y-64926693D01*
X57091899Y-64850160D01*
X57090344Y-64817774D01*
X57086137Y-64771222D01*
X57079966Y-64717340D01*
X57074254Y-64674775D01*
X57066250Y-64613199D01*
X57062410Y-64564062D01*
X57062531Y-64518992D01*
X57066408Y-64469617D01*
X57068761Y-64448521D01*
X57094618Y-64314277D01*
X57139175Y-64189747D01*
X57201758Y-64075882D01*
X57281692Y-63973629D01*
X57378306Y-63883938D01*
X57490924Y-63807756D01*
X57543762Y-63779556D01*
X57621318Y-63744346D01*
X57696800Y-63717514D01*
X57776105Y-63697555D01*
X57865137Y-63682965D01*
X57961986Y-63672883D01*
X58025547Y-63668729D01*
X58091069Y-63666474D01*
X58154483Y-63666043D01*
X58211721Y-63667363D01*
G37*
G36*
X60853938Y-63249619D02*
G01*
X61027407Y-63290187D01*
X61199697Y-63351674D01*
X61280634Y-63387930D01*
X61443504Y-63477330D01*
X61596450Y-63584955D01*
X61739014Y-63709990D01*
X61870736Y-63851618D01*
X61991157Y-64009023D01*
X62099818Y-64181389D01*
X62196259Y-64367900D01*
X62280023Y-64567741D01*
X62350649Y-64780094D01*
X62407678Y-65004143D01*
X62450652Y-65239074D01*
X62479112Y-65484069D01*
X62482276Y-65523996D01*
X62486162Y-65576923D01*
X62488889Y-65618755D01*
X62490444Y-65654258D01*
X62490813Y-65688197D01*
X62489982Y-65725338D01*
X62487939Y-65770447D01*
X62484668Y-65828290D01*
X62481247Y-65885486D01*
X62458825Y-66122024D01*
X62420741Y-66351766D01*
X62367601Y-66573506D01*
X62300014Y-66786040D01*
X62218587Y-66988161D01*
X62123929Y-67178663D01*
X62016646Y-67356341D01*
X61897346Y-67519989D01*
X61766638Y-67668401D01*
X61625129Y-67800372D01*
X61473427Y-67914696D01*
X61451045Y-67929460D01*
X61368369Y-67980581D01*
X61292475Y-68021434D01*
X61214643Y-68056309D01*
X61126150Y-68089490D01*
X61123917Y-68090269D01*
X60949821Y-68139764D01*
X60772212Y-68168428D01*
X60690041Y-68172012D01*
X60591631Y-68176305D01*
X60408619Y-68163437D01*
X60223717Y-68129868D01*
X60037466Y-68075642D01*
X59850405Y-68000802D01*
X59817487Y-67985522D01*
X59656255Y-67898967D01*
X59494733Y-67792325D01*
X59334071Y-67666724D01*
X59175418Y-67523292D01*
X59019924Y-67363159D01*
X58868739Y-67187451D01*
X58723013Y-66997297D01*
X58583897Y-66793826D01*
X58552216Y-66744086D01*
X58496372Y-66656910D01*
X58447711Y-66585080D01*
X58403566Y-66525098D01*
X58361271Y-66473465D01*
X58318159Y-66426682D01*
X58286162Y-66395037D01*
X58197237Y-66316051D01*
X58101274Y-66241656D01*
X58002198Y-66174336D01*
X57903937Y-66116576D01*
X57810418Y-66070862D01*
X57725568Y-66039679D01*
X57723872Y-66039188D01*
X57653032Y-66015121D01*
X57598899Y-65986955D01*
X57556919Y-65951035D01*
X57522539Y-65903709D01*
X57499177Y-65858906D01*
X57483632Y-65822289D01*
X57475500Y-65792768D01*
X57804247Y-65792768D01*
X57813740Y-65798165D01*
X57839436Y-65808115D01*
X57877164Y-65821093D01*
X57913125Y-65832604D01*
X58117089Y-65904599D01*
X58308301Y-65989644D01*
X58484882Y-66086788D01*
X58644949Y-66195081D01*
X58673932Y-66217301D01*
X58699149Y-66238756D01*
X58737178Y-66273427D01*
X58785961Y-66319331D01*
X58843439Y-66374485D01*
X58907552Y-66436906D01*
X58976242Y-66504612D01*
X59047449Y-66575620D01*
X59080095Y-66608454D01*
X59173934Y-66702599D01*
X59255278Y-66782952D01*
X59326147Y-66851258D01*
X59388561Y-66909267D01*
X59444538Y-66958727D01*
X59496099Y-67001383D01*
X59545263Y-67038985D01*
X59594048Y-67073280D01*
X59644475Y-67106015D01*
X59680806Y-67128320D01*
X59793583Y-67190411D01*
X59918537Y-67248827D01*
X59993104Y-67279331D01*
X60160751Y-67333934D01*
X60334888Y-67371135D01*
X60512367Y-67390853D01*
X60690041Y-67393008D01*
X60864761Y-67377518D01*
X61033381Y-67344302D01*
X61150147Y-67309049D01*
X61322548Y-67237675D01*
X61483155Y-67149065D01*
X61631151Y-67044194D01*
X61765715Y-66924039D01*
X61886032Y-66789576D01*
X61991282Y-66641780D01*
X62080647Y-66481629D01*
X62153309Y-66310097D01*
X62208449Y-66128161D01*
X62232056Y-66018387D01*
X62240097Y-65956161D01*
X62244635Y-65880239D01*
X62245819Y-65796289D01*
X62243795Y-65709980D01*
X62238711Y-65626979D01*
X62230715Y-65552955D01*
X62219952Y-65493578D01*
X62218240Y-65486783D01*
X62208029Y-65454598D01*
X62192353Y-65412998D01*
X62172897Y-65365650D01*
X62151343Y-65316224D01*
X62129374Y-65268390D01*
X62108672Y-65225815D01*
X62090920Y-65192170D01*
X62077801Y-65171122D01*
X62071174Y-65166124D01*
X62071071Y-65177848D01*
X62074521Y-65205621D01*
X62080865Y-65244651D01*
X62085550Y-65270253D01*
X62091985Y-65308818D01*
X62096852Y-65350284D01*
X62100333Y-65398182D01*
X62102607Y-65456041D01*
X62103857Y-65527394D01*
X62104263Y-65615771D01*
X62104259Y-65635632D01*
X62104000Y-65721442D01*
X62103219Y-65789711D01*
X62101678Y-65844160D01*
X62099136Y-65888510D01*
X62095354Y-65926484D01*
X62090092Y-65961801D01*
X62083111Y-65998184D01*
X62079955Y-66013070D01*
X62030177Y-66199426D01*
X61964386Y-66372236D01*
X61882987Y-66531084D01*
X61786387Y-66675553D01*
X61674990Y-66805226D01*
X61647032Y-66830666D01*
X61549201Y-66919686D01*
X61410000Y-67018108D01*
X61409425Y-67018515D01*
X61256067Y-67101297D01*
X61244823Y-67105775D01*
X61148515Y-67144126D01*
X61089532Y-67167614D01*
X61051097Y-67178217D01*
X60935149Y-67210204D01*
X60910753Y-67216934D01*
X60840288Y-67228558D01*
X60821521Y-67230303D01*
X60754934Y-67236496D01*
X60682878Y-67239712D01*
X60660750Y-67240699D01*
X60563800Y-67241116D01*
X60537253Y-67240147D01*
X60497461Y-67238694D01*
X60470142Y-67237697D01*
X60430814Y-67234289D01*
X60385840Y-67230392D01*
X60329362Y-67221747D01*
X60303556Y-67215269D01*
X60143460Y-67175080D01*
X60135524Y-67172155D01*
X60086798Y-67154195D01*
X59964533Y-67109130D01*
X59930838Y-67092429D01*
X59791707Y-67023467D01*
X59710649Y-66972296D01*
X59631153Y-66922112D01*
X60669588Y-66922112D01*
X60673764Y-66945378D01*
X60682878Y-66956666D01*
X60692519Y-66951381D01*
X60696127Y-66926495D01*
X60696169Y-66922112D01*
X60693271Y-66894797D01*
X60684377Y-66887181D01*
X60682878Y-66887558D01*
X60673228Y-66900240D01*
X60669588Y-66922112D01*
X59631153Y-66922112D01*
X59624107Y-66917664D01*
X59473019Y-66801533D01*
X59451193Y-66782274D01*
X60111405Y-66782274D01*
X60118279Y-66807084D01*
X60135524Y-66817415D01*
X60158074Y-66813414D01*
X60180862Y-66795226D01*
X60191254Y-66779976D01*
X60202926Y-66747773D01*
X60201333Y-66721758D01*
X60187031Y-66707153D01*
X60183420Y-66706190D01*
X60161809Y-66711429D01*
X60138518Y-66729965D01*
X60119680Y-66755316D01*
X60111430Y-66781003D01*
X60111405Y-66782274D01*
X59451193Y-66782274D01*
X59438921Y-66771446D01*
X59393249Y-66728836D01*
X59339021Y-66676644D01*
X59308204Y-66646308D01*
X60461283Y-66646308D01*
X60472489Y-66671820D01*
X60494423Y-66682768D01*
X60497461Y-66682890D01*
X60516594Y-66673761D01*
X60529256Y-66650885D01*
X60534577Y-66621030D01*
X60533847Y-66613448D01*
X60876914Y-66613448D01*
X60882938Y-66645659D01*
X60898162Y-66671892D01*
X60918307Y-66686760D01*
X60935149Y-66686828D01*
X60947593Y-66672012D01*
X60951783Y-66645615D01*
X60948072Y-66615500D01*
X60936812Y-66589532D01*
X60930470Y-66582244D01*
X60906154Y-66568516D01*
X60887828Y-66574324D01*
X60877951Y-66598236D01*
X60876914Y-66613448D01*
X60533847Y-66613448D01*
X60531681Y-66590963D01*
X60519699Y-66567452D01*
X60513058Y-66561938D01*
X60492557Y-66556965D01*
X60476498Y-66571391D01*
X60464052Y-66606021D01*
X60462953Y-66610725D01*
X60461283Y-66646308D01*
X59308204Y-66646308D01*
X59279257Y-66617813D01*
X59216975Y-66555287D01*
X59155194Y-66492007D01*
X59150626Y-66487272D01*
X59064412Y-66398751D01*
X58989569Y-66324127D01*
X58988437Y-66323048D01*
X60058245Y-66323048D01*
X60061383Y-66344971D01*
X60074977Y-66352688D01*
X60086798Y-66353297D01*
X60114706Y-66346511D01*
X60139028Y-66329328D01*
X60156808Y-66306502D01*
X60165093Y-66282792D01*
X60160927Y-66262955D01*
X60148617Y-66253763D01*
X60118750Y-66252424D01*
X60116624Y-66253462D01*
X60089506Y-66266706D01*
X60067225Y-66291750D01*
X60058246Y-66322696D01*
X60058245Y-66323048D01*
X58988437Y-66323048D01*
X58923576Y-66261198D01*
X58902651Y-66242456D01*
X60414059Y-66242456D01*
X60415242Y-66271313D01*
X60416651Y-66275540D01*
X60430814Y-66288730D01*
X60452804Y-66288399D01*
X60467443Y-66280429D01*
X60760708Y-66280429D01*
X60775276Y-66314720D01*
X60786988Y-66328130D01*
X60807278Y-66345274D01*
X60821521Y-66347258D01*
X60829517Y-66342293D01*
X60842477Y-66319195D01*
X60843145Y-66292558D01*
X61159908Y-66292558D01*
X61171342Y-66314315D01*
X61193319Y-66334673D01*
X61221196Y-66349090D01*
X61244823Y-66353297D01*
X61273237Y-66347186D01*
X61285046Y-66331172D01*
X61280172Y-66308728D01*
X61258537Y-66283329D01*
X61246588Y-66274101D01*
X61213382Y-66259593D01*
X61182429Y-66261146D01*
X61163660Y-66273940D01*
X61159908Y-66292558D01*
X60843145Y-66292558D01*
X60843279Y-66287229D01*
X60832020Y-66254905D01*
X60828466Y-66249342D01*
X60807646Y-66230804D01*
X60785465Y-66226692D01*
X60769142Y-66237505D01*
X60768763Y-66237756D01*
X60766414Y-66242529D01*
X60760708Y-66280429D01*
X60467443Y-66280429D01*
X60475431Y-66276080D01*
X60488292Y-66260266D01*
X60501018Y-66223572D01*
X60495968Y-66194289D01*
X60481492Y-66179400D01*
X60460892Y-66176807D01*
X60454774Y-66180737D01*
X60440425Y-66189953D01*
X60423634Y-66213586D01*
X60414059Y-66242456D01*
X58902651Y-66242456D01*
X58864302Y-66208108D01*
X59668068Y-66208108D01*
X59683383Y-66221651D01*
X59710649Y-66226557D01*
X59742539Y-66223162D01*
X59771725Y-66211802D01*
X59783429Y-66202830D01*
X59798492Y-66186114D01*
X59798797Y-66175977D01*
X59789767Y-66168236D01*
X61548898Y-66168236D01*
X61550249Y-66177809D01*
X61567312Y-66192609D01*
X61567998Y-66193148D01*
X61609520Y-66216906D01*
X61647032Y-66219816D01*
X61670128Y-66210004D01*
X61689778Y-66195797D01*
X61692945Y-66184829D01*
X61679978Y-66169532D01*
X61672314Y-66162334D01*
X61639832Y-66144930D01*
X61601213Y-66141843D01*
X61566161Y-66153586D01*
X61562974Y-66155825D01*
X61562056Y-66156470D01*
X61548898Y-66168236D01*
X59789767Y-66168236D01*
X59786713Y-66165618D01*
X59782828Y-66163945D01*
X59760924Y-66154514D01*
X59738429Y-66151287D01*
X59708964Y-66157422D01*
X59683771Y-66172657D01*
X59668734Y-66192242D01*
X59668068Y-66208108D01*
X58864302Y-66208108D01*
X58863913Y-66207760D01*
X58808060Y-66161609D01*
X58753498Y-66120543D01*
X58697707Y-66082359D01*
X58660128Y-66058375D01*
X58599597Y-66024357D01*
X60976239Y-66024357D01*
X60980954Y-66034954D01*
X60990029Y-66042051D01*
X61020110Y-66057694D01*
X61051097Y-66064026D01*
X61079176Y-66062368D01*
X61100534Y-66054043D01*
X61111355Y-66040375D01*
X61107828Y-66022686D01*
X61092213Y-66006607D01*
X61062689Y-65994591D01*
X61027378Y-65993583D01*
X60996535Y-66003277D01*
X60989395Y-66008728D01*
X60988131Y-66009693D01*
X60976239Y-66024357D01*
X58599597Y-66024357D01*
X58529573Y-65985004D01*
X58413758Y-65931926D01*
X60209002Y-65931926D01*
X60222493Y-65943993D01*
X60223042Y-65944417D01*
X60263251Y-65965007D01*
X60303556Y-65966700D01*
X60319514Y-65961487D01*
X60341127Y-65944530D01*
X60342144Y-65924173D01*
X60322485Y-65902605D01*
X60321681Y-65902037D01*
X60284708Y-65886832D01*
X60248248Y-65892830D01*
X60226878Y-65906743D01*
X60210193Y-65922169D01*
X60209002Y-65931926D01*
X58413758Y-65931926D01*
X58389663Y-65920883D01*
X58245263Y-65867684D01*
X58193720Y-65853152D01*
X59850487Y-65853152D01*
X59853744Y-65865379D01*
X59865830Y-65878541D01*
X59894552Y-65894900D01*
X59930838Y-65900234D01*
X59964797Y-65893854D01*
X59977511Y-65886310D01*
X59977974Y-65885792D01*
X60697744Y-65885792D01*
X60706654Y-65898572D01*
X60711892Y-65902584D01*
X60740240Y-65915237D01*
X60769142Y-65916160D01*
X60792045Y-65906591D01*
X60802397Y-65887766D01*
X60802489Y-65885486D01*
X60797730Y-65874245D01*
X61334092Y-65874245D01*
X61342762Y-65884028D01*
X61364260Y-65897234D01*
X61370896Y-65900527D01*
X61410000Y-65911607D01*
X61444860Y-65908105D01*
X61469593Y-65890812D01*
X61472136Y-65886957D01*
X61473143Y-65867693D01*
X61458429Y-65849189D01*
X61433196Y-65835998D01*
X61409705Y-65832325D01*
X61383450Y-65837368D01*
X61357070Y-65849601D01*
X61338394Y-65864682D01*
X61334092Y-65874245D01*
X60797730Y-65874245D01*
X60794238Y-65865996D01*
X60785672Y-65860043D01*
X60778109Y-65858689D01*
X60750449Y-65853737D01*
X60719329Y-65860450D01*
X60705846Y-65870688D01*
X60697744Y-65885792D01*
X59977974Y-65885792D01*
X59992204Y-65869869D01*
X59989201Y-65855612D01*
X59968246Y-65838864D01*
X59932848Y-65824607D01*
X59895866Y-65823504D01*
X59865690Y-65835527D01*
X59861509Y-65839202D01*
X59850487Y-65853152D01*
X58193720Y-65853152D01*
X58101236Y-65827077D01*
X57962447Y-65800733D01*
X57886646Y-65792674D01*
X57847895Y-65790603D01*
X57818935Y-65790409D01*
X57804850Y-65792086D01*
X57804247Y-65792768D01*
X57475500Y-65792768D01*
X57474594Y-65789480D01*
X57470444Y-65752021D01*
X57469558Y-65704069D01*
X57470636Y-65655606D01*
X57474796Y-65619867D01*
X57483847Y-65588352D01*
X57499597Y-65552559D01*
X57503489Y-65544588D01*
X57514815Y-65523940D01*
X59686123Y-65523940D01*
X59695587Y-65548831D01*
X59719421Y-65569426D01*
X59750782Y-65582940D01*
X59782828Y-65586586D01*
X59785659Y-65585601D01*
X60387839Y-65585601D01*
X60394778Y-65612880D01*
X60411922Y-65638137D01*
X60433758Y-65655503D01*
X60454774Y-65659114D01*
X60456406Y-65658575D01*
X60470148Y-65643511D01*
X60471254Y-65617999D01*
X60466554Y-65605210D01*
X61111504Y-65605210D01*
X61124646Y-65616878D01*
X61148515Y-65619684D01*
X61180619Y-65613870D01*
X61207240Y-65599033D01*
X61226077Y-65579085D01*
X61227218Y-65576328D01*
X61512475Y-65576328D01*
X61518350Y-65590611D01*
X61543406Y-65597391D01*
X61562974Y-65598257D01*
X61594639Y-65592832D01*
X61620515Y-65578843D01*
X61637669Y-65560229D01*
X61643163Y-65540930D01*
X61634062Y-65524886D01*
X61622062Y-65518967D01*
X61584858Y-65517371D01*
X61547877Y-65532620D01*
X61524986Y-65553606D01*
X61512475Y-65576328D01*
X61227218Y-65576328D01*
X61234830Y-65557935D01*
X61231199Y-65539494D01*
X61212883Y-65527671D01*
X61203657Y-65525938D01*
X61175709Y-65529787D01*
X61146983Y-65550102D01*
X61142613Y-65554358D01*
X61117495Y-65584397D01*
X61111504Y-65605210D01*
X60466554Y-65605210D01*
X60460318Y-65588239D01*
X60447990Y-65570652D01*
X60423370Y-65550594D01*
X60403007Y-65549384D01*
X60390332Y-65566169D01*
X60387839Y-65585601D01*
X59785659Y-65585601D01*
X59808717Y-65577578D01*
X59811581Y-65575029D01*
X59822520Y-65560593D01*
X59819755Y-65547270D01*
X59801699Y-65528247D01*
X59800417Y-65527071D01*
X59795725Y-65523881D01*
X60750137Y-65523881D01*
X60750443Y-65552311D01*
X60762087Y-65575029D01*
X60778109Y-65586224D01*
X60792324Y-65581694D01*
X60809269Y-65559589D01*
X60812418Y-65554493D01*
X60825076Y-65521480D01*
X60822598Y-65493419D01*
X60805958Y-65475393D01*
X60796676Y-65472337D01*
X60775486Y-65477265D01*
X60759229Y-65496655D01*
X60750137Y-65523881D01*
X59795725Y-65523881D01*
X59769502Y-65506054D01*
X59737610Y-65495708D01*
X59709794Y-65496171D01*
X59691109Y-65507583D01*
X59686123Y-65523940D01*
X57514815Y-65523940D01*
X57531497Y-65493529D01*
X57561028Y-65454751D01*
X57596736Y-65424462D01*
X57643276Y-65398870D01*
X57659680Y-65392341D01*
X60039084Y-65392341D01*
X60044515Y-65415389D01*
X60063138Y-65438374D01*
X60089119Y-65457430D01*
X60116624Y-65468692D01*
X60139819Y-65468294D01*
X60146845Y-65463747D01*
X60154079Y-65443135D01*
X60143931Y-65416934D01*
X60120571Y-65391493D01*
X60089350Y-65372017D01*
X60062586Y-65367568D01*
X60044350Y-65378102D01*
X60039084Y-65392341D01*
X57659680Y-65392341D01*
X57705304Y-65374182D01*
X57718222Y-65369628D01*
X57881235Y-65304225D01*
X58028590Y-65226574D01*
X60472895Y-65226574D01*
X60479841Y-65250298D01*
X60496779Y-65274258D01*
X60517866Y-65292302D01*
X60537253Y-65298281D01*
X60540328Y-65297520D01*
X60553323Y-65282419D01*
X60557806Y-65255405D01*
X60553698Y-65224091D01*
X60541742Y-65197525D01*
X60957521Y-65197525D01*
X60961218Y-65229537D01*
X60961970Y-65231614D01*
X60974145Y-65253561D01*
X60989395Y-65255795D01*
X61006461Y-65244904D01*
X61030792Y-65217318D01*
X61043899Y-65185743D01*
X61044685Y-65156163D01*
X61032058Y-65134559D01*
X61027231Y-65131395D01*
X61003654Y-65128620D01*
X60982002Y-65142057D01*
X60965537Y-65166695D01*
X60957521Y-65197525D01*
X60541742Y-65197525D01*
X60541401Y-65196767D01*
X60518808Y-65176030D01*
X60497129Y-65174523D01*
X60480482Y-65190454D01*
X60472985Y-65222031D01*
X60472895Y-65226574D01*
X58028590Y-65226574D01*
X58030241Y-65225704D01*
X58169590Y-65131679D01*
X58211481Y-65099033D01*
X58258221Y-65059669D01*
X58301518Y-65018942D01*
X58343332Y-64974367D01*
X58385620Y-64923458D01*
X58430340Y-64863730D01*
X58479450Y-64792698D01*
X58534909Y-64707878D01*
X58596055Y-64610987D01*
X58726491Y-64410905D01*
X58856367Y-64230526D01*
X58987158Y-64068388D01*
X59120340Y-63923027D01*
X59257388Y-63792982D01*
X59399780Y-63676789D01*
X59548989Y-63572986D01*
X59706493Y-63480110D01*
X59771179Y-63446182D01*
X59958166Y-63360985D01*
X60142133Y-63296778D01*
X60323387Y-63253550D01*
X60502235Y-63231289D01*
X60678983Y-63229982D01*
X60853938Y-63249619D01*
G37*
D13*
G04 #@! TO.C,R8*
X37415000Y-33127064D02*
X37415000Y-32672936D01*
X38885000Y-33127064D02*
X38885000Y-32672936D01*
G04 #@! TO.C,R11*
X42315000Y-33127064D02*
X42315000Y-32672936D01*
X43785000Y-33127064D02*
X43785000Y-32672936D01*
G04 #@! TO.C,R14*
X47565000Y-33127064D02*
X47565000Y-32672936D01*
X49035000Y-33127064D02*
X49035000Y-32672936D01*
G04 #@! TO.C,J5*
X95890000Y-34755000D02*
X95890000Y-47375000D01*
X95890000Y-47375000D02*
X101860000Y-47375000D01*
X96650000Y-35515000D02*
X96650000Y-41065000D01*
X96650000Y-46615000D02*
X96650000Y-41065000D01*
X99600000Y-34765000D02*
X99600000Y-35515000D01*
X99600000Y-35515000D02*
X96650000Y-35515000D01*
X99600000Y-46615000D02*
X96650000Y-46615000D01*
X99600000Y-47365000D02*
X99600000Y-46615000D01*
X101100000Y-34765000D02*
X101100000Y-36565000D01*
X101100000Y-36565000D02*
X101850000Y-36565000D01*
X101100000Y-38065000D02*
X101100000Y-44065000D01*
X101100000Y-44065000D02*
X101850000Y-44065000D01*
X101100000Y-45565000D02*
X101100000Y-47365000D01*
X101100000Y-47365000D02*
X101850000Y-47365000D01*
X101850000Y-34765000D02*
X101100000Y-34765000D01*
X101850000Y-36565000D02*
X101850000Y-34765000D01*
X101850000Y-38065000D02*
X101100000Y-38065000D01*
X101850000Y-44065000D02*
X101850000Y-38065000D01*
X101850000Y-45565000D02*
X101100000Y-45565000D01*
X101850000Y-47365000D02*
X101850000Y-45565000D01*
X101860000Y-34755000D02*
X95890000Y-34755000D01*
X101860000Y-47375000D02*
X101860000Y-34755000D01*
X102150000Y-34465000D02*
X100900000Y-34465000D01*
X102150000Y-35715000D02*
X102150000Y-34465000D01*
D14*
G04 #@! TO.C,U3*
X38400000Y-38400000D02*
X38400000Y-42800000D01*
X41400000Y-38400000D02*
X41400000Y-42800000D01*
D11*
X41225000Y-35785000D02*
G75*
G02*
X41025000Y-35785000I-100000J0D01*
G01*
X41025000Y-35785000D02*
G75*
G02*
X41225000Y-35785000I100000J0D01*
G01*
D13*
G04 #@! TO.C,R22*
X63665000Y-45727064D02*
X63665000Y-45272936D01*
X65135000Y-45727064D02*
X65135000Y-45272936D01*
G04 #@! TO.C,R4*
X76337248Y-76265000D02*
X75883120Y-76265000D01*
X76337248Y-77735000D02*
X75883120Y-77735000D01*
G04 #@! TO.C,R12*
X46678445Y-48877064D02*
X46678445Y-48422936D01*
X48148445Y-48877064D02*
X48148445Y-48422936D01*
G04 #@! TO.C,R9*
X64283622Y-61346029D02*
X64283622Y-61800157D01*
X65753622Y-61346029D02*
X65753622Y-61800157D01*
G04 #@! TO.C,C5*
X55490000Y-70025000D02*
X55490000Y-78090000D01*
X55490000Y-78090000D02*
X60010000Y-78090000D01*
X60010000Y-78090000D02*
X60010000Y-70025000D01*
G04 #@! TO.C,J4*
X31760000Y-17165000D02*
X31760000Y-29385000D01*
X31760000Y-18665000D02*
X94940000Y-18665000D01*
X31760000Y-20465000D02*
X31760000Y-18665000D01*
X31760000Y-29385000D02*
X94940000Y-29385000D01*
X34410000Y-17165000D02*
X34660000Y-18665000D01*
X34660000Y-18665000D02*
X36160000Y-18665000D01*
X36160000Y-18665000D02*
X36410000Y-17165000D01*
X36410000Y-17165000D02*
X34410000Y-17165000D01*
X39490000Y-17165000D02*
X39740000Y-18665000D01*
X39740000Y-18665000D02*
X41240000Y-18665000D01*
X41240000Y-18665000D02*
X41490000Y-17165000D01*
X41490000Y-17165000D02*
X39490000Y-17165000D01*
X44570000Y-17165000D02*
X44820000Y-18665000D01*
X44820000Y-18665000D02*
X46320000Y-18665000D01*
X46320000Y-18665000D02*
X46570000Y-17165000D01*
X46570000Y-17165000D02*
X44570000Y-17165000D01*
X49650000Y-17165000D02*
X49900000Y-18665000D01*
X49900000Y-18665000D02*
X51400000Y-18665000D01*
X51400000Y-18665000D02*
X51650000Y-17165000D01*
X51650000Y-17165000D02*
X49650000Y-17165000D01*
X54730000Y-17165000D02*
X54980000Y-18665000D01*
X54980000Y-18665000D02*
X56480000Y-18665000D01*
X56480000Y-18665000D02*
X56730000Y-17165000D01*
X56730000Y-17165000D02*
X54730000Y-17165000D01*
X59810000Y-17165000D02*
X60060000Y-18665000D01*
X60060000Y-18665000D02*
X61560000Y-18665000D01*
X61560000Y-18665000D02*
X61810000Y-17165000D01*
X61810000Y-17165000D02*
X59810000Y-17165000D01*
X64890000Y-17165000D02*
X65140000Y-18665000D01*
X65140000Y-18665000D02*
X66640000Y-18665000D01*
X66640000Y-18665000D02*
X66890000Y-17165000D01*
X66890000Y-17165000D02*
X64890000Y-17165000D01*
X69970000Y-17165000D02*
X70220000Y-18665000D01*
X70220000Y-18665000D02*
X71720000Y-18665000D01*
X71720000Y-18665000D02*
X71970000Y-17165000D01*
X71970000Y-17165000D02*
X69970000Y-17165000D01*
X75050000Y-17165000D02*
X75300000Y-18665000D01*
X75300000Y-18665000D02*
X76800000Y-18665000D01*
X76800000Y-18665000D02*
X77050000Y-17165000D01*
X77050000Y-17165000D02*
X75050000Y-17165000D01*
X80130000Y-17165000D02*
X80380000Y-18665000D01*
X80380000Y-18665000D02*
X81880000Y-18665000D01*
X81880000Y-18665000D02*
X82130000Y-17165000D01*
X82130000Y-17165000D02*
X80130000Y-17165000D01*
X85210000Y-17165000D02*
X85460000Y-18665000D01*
X85460000Y-18665000D02*
X86960000Y-18665000D01*
X86960000Y-18665000D02*
X87210000Y-17165000D01*
X87210000Y-17165000D02*
X85210000Y-17165000D01*
X90290000Y-17165000D02*
X90540000Y-18665000D01*
X90540000Y-18665000D02*
X92040000Y-18665000D01*
X90990000Y-30185000D02*
X91290000Y-29585000D01*
X91290000Y-29585000D02*
X91590000Y-30185000D01*
X91590000Y-30185000D02*
X90990000Y-30185000D01*
X92040000Y-18665000D02*
X92290000Y-17165000D01*
X92290000Y-17165000D02*
X90290000Y-17165000D01*
X94940000Y-17165000D02*
X31760000Y-17165000D01*
X94940000Y-18665000D02*
X94940000Y-20465000D01*
X94940000Y-20465000D02*
X31760000Y-20465000D01*
X94940000Y-29385000D02*
X94940000Y-17165000D01*
G04 #@! TO.C,C2*
X48311252Y-57015000D02*
X46888748Y-57015000D01*
X48311252Y-58835000D02*
X46888748Y-58835000D01*
D14*
G04 #@! TO.C,U7*
X52400000Y-86350000D02*
X52400000Y-90750000D01*
X55400000Y-86350000D02*
X55400000Y-90750000D01*
D11*
X55225000Y-83735000D02*
G75*
G02*
X55025000Y-83735000I-100000J0D01*
G01*
X55025000Y-83735000D02*
G75*
G02*
X55225000Y-83735000I100000J0D01*
G01*
G04 #@! TD*
%LPC*%
D16*
G04 #@! TO.C,R13*
X72041564Y-57925000D03*
X73866564Y-57925000D03*
G04 #@! TD*
D17*
G04 #@! TO.C,U4*
X47185000Y-37405000D03*
X45915000Y-37405000D03*
X45915000Y-43795000D03*
X47185000Y-43795000D03*
G04 #@! TD*
D16*
G04 #@! TO.C,R19*
X72041564Y-53025000D03*
X73866564Y-53025000D03*
G04 #@! TD*
D18*
G04 #@! TO.C,R2*
X52825000Y-66636076D03*
X52825000Y-64811076D03*
G04 #@! TD*
D19*
G04 #@! TO.C,R21*
X60412500Y-92100000D03*
X58587500Y-92100000D03*
G04 #@! TD*
D20*
G04 #@! TO.C,U2*
X45670000Y-66450000D03*
X46940000Y-66450000D03*
X48210000Y-66450000D03*
X49480000Y-66450000D03*
X49480000Y-61050000D03*
X48210000Y-61050000D03*
X46940000Y-61050000D03*
X45670000Y-61050000D03*
D21*
X47575000Y-63750000D03*
G04 #@! TD*
D17*
G04 #@! TO.C,U6*
X60360000Y-37405000D03*
X59090000Y-37405000D03*
X59090000Y-43795000D03*
X60360000Y-43795000D03*
G04 #@! TD*
D22*
G04 #@! TO.C,C6*
X35000000Y-54150000D03*
X35000000Y-52250000D03*
G04 #@! TD*
D23*
G04 #@! TO.C,C3*
X49075000Y-55475000D03*
X46125000Y-55475000D03*
G04 #@! TD*
D24*
G04 #@! TO.C,H3*
X26700000Y-87575000D03*
G04 #@! TD*
D25*
G04 #@! TO.C,L1*
X40050000Y-77000000D03*
X46050000Y-77000000D03*
G04 #@! TD*
D26*
G04 #@! TO.C,C1*
X80170273Y-80150000D03*
X78270273Y-80150000D03*
G04 #@! TD*
D16*
G04 #@! TO.C,R6*
X27787500Y-29575000D03*
X29612500Y-29575000D03*
G04 #@! TD*
D18*
G04 #@! TO.C,R1*
X52850000Y-71962500D03*
X52850000Y-70137500D03*
G04 #@! TD*
D27*
G04 #@! TO.C,D2*
X42700000Y-64960000D03*
X42700000Y-60690000D03*
G04 #@! TD*
D16*
G04 #@! TO.C,R3*
X33387500Y-46200000D03*
X35212500Y-46200000D03*
G04 #@! TD*
D24*
G04 #@! TO.C,H2*
X100200000Y-24825000D03*
G04 #@! TD*
D17*
G04 #@! TO.C,U5*
X54060000Y-37405000D03*
X52790000Y-37405000D03*
X52790000Y-43795000D03*
X54060000Y-43795000D03*
G04 #@! TD*
D28*
G04 #@! TO.C,J6*
X99400000Y-62875000D03*
D29*
X99400000Y-60335000D03*
X99400000Y-57795000D03*
X99400000Y-55255000D03*
X99400000Y-52715000D03*
X99400000Y-50175000D03*
G04 #@! TD*
D19*
G04 #@! TO.C,R7*
X83512500Y-78400000D03*
X81687500Y-78400000D03*
G04 #@! TD*
D30*
G04 #@! TO.C,J3*
X27300000Y-33925000D03*
D31*
X27300000Y-38925000D03*
X27300000Y-43925000D03*
G04 #@! TD*
D18*
G04 #@! TO.C,R18*
X53900000Y-49562500D03*
X53900000Y-47737500D03*
G04 #@! TD*
D32*
G04 #@! TO.C,C4*
X40810702Y-69125000D03*
X42710702Y-69125000D03*
G04 #@! TD*
D33*
G04 #@! TO.C,R20*
X49000000Y-85012500D03*
X49000000Y-86837500D03*
G04 #@! TD*
D34*
G04 #@! TO.C,J1*
X35000000Y-75167500D03*
D35*
X29000000Y-75167500D03*
D36*
X32000000Y-79867500D03*
G04 #@! TD*
D16*
G04 #@! TO.C,R10*
X72012193Y-60540941D03*
X73837193Y-60540941D03*
G04 #@! TD*
D18*
G04 #@! TO.C,R15*
X50750000Y-49562500D03*
X50750000Y-47737500D03*
G04 #@! TD*
D24*
G04 #@! TO.C,H1*
X26700000Y-24825000D03*
G04 #@! TD*
D16*
G04 #@! TO.C,R16*
X72041564Y-55475000D03*
X73866564Y-55475000D03*
G04 #@! TD*
D24*
G04 #@! TO.C,H4*
X100100000Y-87675000D03*
G04 #@! TD*
D18*
G04 #@! TO.C,R17*
X53200000Y-33812500D03*
X53200000Y-31987500D03*
G04 #@! TD*
D30*
G04 #@! TO.C,J2*
X27300000Y-50275000D03*
D31*
X27300000Y-55275000D03*
X27300000Y-60275000D03*
X27300000Y-65275000D03*
G04 #@! TD*
D37*
G04 #@! TO.C,U1*
X67677500Y-45310000D03*
D38*
X67677500Y-47850000D03*
X67677500Y-50390000D03*
X67677500Y-52930000D03*
X67677500Y-55470000D03*
X67677500Y-58010000D03*
X67677500Y-60550000D03*
X67677500Y-63090000D03*
X67677500Y-65630000D03*
X67677500Y-68170000D03*
X67677500Y-70710000D03*
X67677500Y-73250000D03*
X67677500Y-75790000D03*
X67677500Y-78330000D03*
X67677500Y-80870000D03*
X67677500Y-83410000D03*
X67677500Y-85950000D03*
X67677500Y-88490000D03*
X67677500Y-91030000D03*
X93077500Y-45310000D03*
X93077500Y-47850000D03*
X93077500Y-50390000D03*
X93077500Y-52930000D03*
X93077500Y-55470000D03*
X93077500Y-58010000D03*
X93077500Y-60550000D03*
X93077500Y-63090000D03*
X93077500Y-65630000D03*
X93077500Y-68170000D03*
X93077500Y-70710000D03*
X93077500Y-73250000D03*
X93077500Y-75790000D03*
X93077500Y-78330000D03*
X93077500Y-80870000D03*
X93077500Y-83410000D03*
X93077500Y-85950000D03*
X93077500Y-88490000D03*
X93077500Y-91030000D03*
G04 #@! TD*
D39*
G04 #@! TO.C,J8*
X84430064Y-92937500D03*
X76430064Y-92937500D03*
D40*
X83630064Y-82437500D03*
X82530064Y-82437500D03*
X81430064Y-82437500D03*
X80330064Y-82437500D03*
X79230064Y-82437500D03*
X78130064Y-82437500D03*
X77030064Y-82437500D03*
X75930064Y-82437500D03*
X74830064Y-82437500D03*
D41*
X89130064Y-92537500D03*
D42*
X88230064Y-82937500D03*
D41*
X73630064Y-92537500D03*
D43*
X73630064Y-82937500D03*
G04 #@! TD*
D18*
G04 #@! TO.C,R5*
X35350000Y-38012500D03*
X35350000Y-36187500D03*
G04 #@! TD*
D44*
G04 #@! TO.C,U8*
X42725000Y-52130000D03*
X42725000Y-50860000D03*
X42725000Y-49590000D03*
X42725000Y-48320000D03*
X37775000Y-48320000D03*
X37775000Y-49590000D03*
X37775000Y-50860000D03*
X37775000Y-52130000D03*
G04 #@! TD*
D45*
G04 #@! TO.C,J7*
X99400000Y-68075000D03*
D46*
X99400000Y-70575000D03*
X99400000Y-73075000D03*
X99400000Y-75575000D03*
G04 #@! TD*
D18*
G04 #@! TO.C,R8*
X38150000Y-33812500D03*
X38150000Y-31987500D03*
G04 #@! TD*
G04 #@! TO.C,R11*
X43050000Y-33812500D03*
X43050000Y-31987500D03*
G04 #@! TD*
G04 #@! TO.C,R14*
X48300000Y-33812500D03*
X48300000Y-31987500D03*
G04 #@! TD*
D45*
G04 #@! TO.C,J5*
X99400000Y-37315000D03*
D46*
X99400000Y-39815000D03*
X99400000Y-42315000D03*
X99400000Y-44815000D03*
G04 #@! TD*
D17*
G04 #@! TO.C,U3*
X40535000Y-37405000D03*
X39265000Y-37405000D03*
X39265000Y-43795000D03*
X40535000Y-43795000D03*
G04 #@! TD*
D18*
G04 #@! TO.C,R22*
X64400000Y-46412500D03*
X64400000Y-44587500D03*
G04 #@! TD*
D19*
G04 #@! TO.C,R4*
X77022684Y-77000000D03*
X75197684Y-77000000D03*
G04 #@! TD*
D18*
G04 #@! TO.C,R12*
X47413445Y-49562500D03*
X47413445Y-47737500D03*
G04 #@! TD*
D33*
G04 #@! TO.C,R9*
X65018622Y-60660593D03*
X65018622Y-62485593D03*
G04 #@! TD*
D47*
G04 #@! TO.C,C5*
X57750000Y-76795000D03*
X57750000Y-70555000D03*
G04 #@! TD*
D48*
G04 #@! TO.C,J4*
X91290000Y-27275000D03*
D49*
X86210000Y-27275000D03*
X81130000Y-27275000D03*
X76050000Y-27275000D03*
X70970000Y-27275000D03*
X65890000Y-27275000D03*
X60810000Y-27275000D03*
X55730000Y-27275000D03*
X50650000Y-27275000D03*
X45570000Y-27275000D03*
X40490000Y-27275000D03*
X35410000Y-27275000D03*
G04 #@! TD*
D23*
G04 #@! TO.C,C2*
X49075000Y-57925000D03*
X46125000Y-57925000D03*
G04 #@! TD*
D17*
G04 #@! TO.C,U7*
X54535000Y-85355000D03*
X53265000Y-85355000D03*
X53265000Y-91745000D03*
X54535000Y-91745000D03*
G04 #@! TD*
%LPD*%
M02*
