%TF.GenerationSoftware,KiCad,Pcbnew,9.0.6*%
%TF.CreationDate,2026-03-14T06:17:06-04:00*%
%TF.ProjectId,FigCNC,46696743-4e43-42e6-9b69-6361645f7063,rev?*%
%TF.SameCoordinates,Original*%
%TF.FileFunction,Legend,Top*%
%TF.FilePolarity,Positive*%
%FSLAX46Y46*%
G04 Gerber Fmt 4.6, Leading zero omitted, Abs format (unit mm)*
G04 Created by KiCad (PCBNEW 9.0.6) date 2026-03-14 06:17:06*
%MOMM*%
%LPD*%
G01*
G04 APERTURE LIST*
%ADD10C,0.100000*%
%ADD11C,0.200000*%
%ADD12C,0.150000*%
%ADD13C,0.120000*%
%ADD14C,0.127000*%
%ADD15C,0.000000*%
G04 APERTURE END LIST*
D10*
X99750000Y-83300000D02*
X108500000Y-83300000D01*
X108500000Y-104300000D01*
X99750000Y-104300000D01*
X99750000Y-83300000D01*
D11*
X77463585Y-101663278D02*
X76892157Y-101663278D01*
X77177871Y-101663278D02*
X77177871Y-100663278D01*
X77177871Y-100663278D02*
X77082633Y-100806135D01*
X77082633Y-100806135D02*
X76987395Y-100901373D01*
X76987395Y-100901373D02*
X76892157Y-100948992D01*
X77844538Y-100758516D02*
X77892157Y-100710897D01*
X77892157Y-100710897D02*
X77987395Y-100663278D01*
X77987395Y-100663278D02*
X78225490Y-100663278D01*
X78225490Y-100663278D02*
X78320728Y-100710897D01*
X78320728Y-100710897D02*
X78368347Y-100758516D01*
X78368347Y-100758516D02*
X78415966Y-100853754D01*
X78415966Y-100853754D02*
X78415966Y-100948992D01*
X78415966Y-100948992D02*
X78368347Y-101091849D01*
X78368347Y-101091849D02*
X77796919Y-101663278D01*
X77796919Y-101663278D02*
X78415966Y-101663278D01*
X78844538Y-101282325D02*
X79606443Y-101282325D01*
X79987395Y-100663278D02*
X80606442Y-100663278D01*
X80606442Y-100663278D02*
X80273109Y-101044230D01*
X80273109Y-101044230D02*
X80415966Y-101044230D01*
X80415966Y-101044230D02*
X80511204Y-101091849D01*
X80511204Y-101091849D02*
X80558823Y-101139468D01*
X80558823Y-101139468D02*
X80606442Y-101234706D01*
X80606442Y-101234706D02*
X80606442Y-101472801D01*
X80606442Y-101472801D02*
X80558823Y-101568039D01*
X80558823Y-101568039D02*
X80511204Y-101615659D01*
X80511204Y-101615659D02*
X80415966Y-101663278D01*
X80415966Y-101663278D02*
X80130252Y-101663278D01*
X80130252Y-101663278D02*
X80035014Y-101615659D01*
X80035014Y-101615659D02*
X79987395Y-101568039D01*
X81463585Y-100663278D02*
X81273109Y-100663278D01*
X81273109Y-100663278D02*
X81177871Y-100710897D01*
X81177871Y-100710897D02*
X81130252Y-100758516D01*
X81130252Y-100758516D02*
X81035014Y-100901373D01*
X81035014Y-100901373D02*
X80987395Y-101091849D01*
X80987395Y-101091849D02*
X80987395Y-101472801D01*
X80987395Y-101472801D02*
X81035014Y-101568039D01*
X81035014Y-101568039D02*
X81082633Y-101615659D01*
X81082633Y-101615659D02*
X81177871Y-101663278D01*
X81177871Y-101663278D02*
X81368347Y-101663278D01*
X81368347Y-101663278D02*
X81463585Y-101615659D01*
X81463585Y-101615659D02*
X81511204Y-101568039D01*
X81511204Y-101568039D02*
X81558823Y-101472801D01*
X81558823Y-101472801D02*
X81558823Y-101234706D01*
X81558823Y-101234706D02*
X81511204Y-101139468D01*
X81511204Y-101139468D02*
X81463585Y-101091849D01*
X81463585Y-101091849D02*
X81368347Y-101044230D01*
X81368347Y-101044230D02*
X81177871Y-101044230D01*
X81177871Y-101044230D02*
X81082633Y-101091849D01*
X81082633Y-101091849D02*
X81035014Y-101139468D01*
X81035014Y-101139468D02*
X80987395Y-101234706D01*
X81844538Y-100663278D02*
X82177871Y-101663278D01*
X82177871Y-101663278D02*
X82511204Y-100663278D01*
X104829847Y-70228384D02*
X104829847Y-69561718D01*
X104829847Y-69561718D02*
X105829847Y-70228384D01*
X105829847Y-70228384D02*
X105829847Y-69561718D01*
X105448894Y-69180765D02*
X105448894Y-68418861D01*
X105782228Y-67990289D02*
X105829847Y-67847432D01*
X105829847Y-67847432D02*
X105829847Y-67609337D01*
X105829847Y-67609337D02*
X105782228Y-67514099D01*
X105782228Y-67514099D02*
X105734608Y-67466480D01*
X105734608Y-67466480D02*
X105639370Y-67418861D01*
X105639370Y-67418861D02*
X105544132Y-67418861D01*
X105544132Y-67418861D02*
X105448894Y-67466480D01*
X105448894Y-67466480D02*
X105401275Y-67514099D01*
X105401275Y-67514099D02*
X105353656Y-67609337D01*
X105353656Y-67609337D02*
X105306037Y-67799813D01*
X105306037Y-67799813D02*
X105258418Y-67895051D01*
X105258418Y-67895051D02*
X105210799Y-67942670D01*
X105210799Y-67942670D02*
X105115561Y-67990289D01*
X105115561Y-67990289D02*
X105020323Y-67990289D01*
X105020323Y-67990289D02*
X104925085Y-67942670D01*
X104925085Y-67942670D02*
X104877466Y-67895051D01*
X104877466Y-67895051D02*
X104829847Y-67799813D01*
X104829847Y-67799813D02*
X104829847Y-67561718D01*
X104829847Y-67561718D02*
X104877466Y-67418861D01*
X104829847Y-67133146D02*
X104829847Y-66561718D01*
X105829847Y-66847432D02*
X104829847Y-66847432D01*
X105829847Y-66228384D02*
X104829847Y-66228384D01*
X104829847Y-66228384D02*
X104829847Y-65847432D01*
X104829847Y-65847432D02*
X104877466Y-65752194D01*
X104877466Y-65752194D02*
X104925085Y-65704575D01*
X104925085Y-65704575D02*
X105020323Y-65656956D01*
X105020323Y-65656956D02*
X105163180Y-65656956D01*
X105163180Y-65656956D02*
X105258418Y-65704575D01*
X105258418Y-65704575D02*
X105306037Y-65752194D01*
X105306037Y-65752194D02*
X105353656Y-65847432D01*
X105353656Y-65847432D02*
X105353656Y-66228384D01*
X84830565Y-70456387D02*
X85306756Y-70456387D01*
X84306756Y-70789720D02*
X84830565Y-70456387D01*
X84830565Y-70456387D02*
X84306756Y-70123054D01*
X85306756Y-69265911D02*
X85306756Y-69837339D01*
X85306756Y-69551625D02*
X84306756Y-69551625D01*
X84306756Y-69551625D02*
X84449613Y-69646863D01*
X84449613Y-69646863D02*
X84544851Y-69742101D01*
X84544851Y-69742101D02*
X84592470Y-69837339D01*
X84925803Y-68837339D02*
X84925803Y-68075435D01*
X85306756Y-67123054D02*
X85306756Y-67599244D01*
X85306756Y-67599244D02*
X84306756Y-67599244D01*
X85306756Y-66789720D02*
X84306756Y-66789720D01*
X85306756Y-66313530D02*
X84306756Y-66313530D01*
X84306756Y-66313530D02*
X85021041Y-65980197D01*
X85021041Y-65980197D02*
X84306756Y-65646864D01*
X84306756Y-65646864D02*
X85306756Y-65646864D01*
X147917219Y-110930326D02*
X146917219Y-110930326D01*
X146917219Y-110930326D02*
X146917219Y-110549374D01*
X146917219Y-110549374D02*
X146964838Y-110454136D01*
X146964838Y-110454136D02*
X147012457Y-110406517D01*
X147012457Y-110406517D02*
X147107695Y-110358898D01*
X147107695Y-110358898D02*
X147250552Y-110358898D01*
X147250552Y-110358898D02*
X147345790Y-110406517D01*
X147345790Y-110406517D02*
X147393409Y-110454136D01*
X147393409Y-110454136D02*
X147441028Y-110549374D01*
X147441028Y-110549374D02*
X147441028Y-110930326D01*
X147393409Y-109930326D02*
X147393409Y-109596993D01*
X147917219Y-109454136D02*
X147917219Y-109930326D01*
X147917219Y-109930326D02*
X146917219Y-109930326D01*
X146917219Y-109930326D02*
X146917219Y-109454136D01*
X147917219Y-109025564D02*
X146917219Y-109025564D01*
X146917219Y-109025564D02*
X147917219Y-108454136D01*
X147917219Y-108454136D02*
X146917219Y-108454136D01*
X147917219Y-107977945D02*
X146917219Y-107977945D01*
X146917219Y-107977945D02*
X146917219Y-107739850D01*
X146917219Y-107739850D02*
X146964838Y-107596993D01*
X146964838Y-107596993D02*
X147060076Y-107501755D01*
X147060076Y-107501755D02*
X147155314Y-107454136D01*
X147155314Y-107454136D02*
X147345790Y-107406517D01*
X147345790Y-107406517D02*
X147488647Y-107406517D01*
X147488647Y-107406517D02*
X147679123Y-107454136D01*
X147679123Y-107454136D02*
X147774361Y-107501755D01*
X147774361Y-107501755D02*
X147869600Y-107596993D01*
X147869600Y-107596993D02*
X147917219Y-107739850D01*
X147917219Y-107739850D02*
X147917219Y-107977945D01*
X147631504Y-107025564D02*
X147631504Y-106549374D01*
X147917219Y-107120802D02*
X146917219Y-106787469D01*
X146917219Y-106787469D02*
X147917219Y-106454136D01*
X147917219Y-106120802D02*
X146917219Y-106120802D01*
X146917219Y-106120802D02*
X147917219Y-105549374D01*
X147917219Y-105549374D02*
X146917219Y-105549374D01*
X146917219Y-105216040D02*
X146917219Y-104644612D01*
X147917219Y-104930326D02*
X146917219Y-104930326D01*
X130117219Y-70075564D02*
X131117219Y-69408898D01*
X130117219Y-69408898D02*
X131117219Y-70075564D01*
X130736266Y-69027945D02*
X130736266Y-68266041D01*
X131117219Y-67789850D02*
X130117219Y-67789850D01*
X130117219Y-67789850D02*
X130117219Y-67551755D01*
X130117219Y-67551755D02*
X130164838Y-67408898D01*
X130164838Y-67408898D02*
X130260076Y-67313660D01*
X130260076Y-67313660D02*
X130355314Y-67266041D01*
X130355314Y-67266041D02*
X130545790Y-67218422D01*
X130545790Y-67218422D02*
X130688647Y-67218422D01*
X130688647Y-67218422D02*
X130879123Y-67266041D01*
X130879123Y-67266041D02*
X130974361Y-67313660D01*
X130974361Y-67313660D02*
X131069600Y-67408898D01*
X131069600Y-67408898D02*
X131117219Y-67551755D01*
X131117219Y-67551755D02*
X131117219Y-67789850D01*
X131117219Y-66789850D02*
X130117219Y-66789850D01*
X131117219Y-65742232D02*
X130641028Y-66075565D01*
X131117219Y-66313660D02*
X130117219Y-66313660D01*
X130117219Y-66313660D02*
X130117219Y-65932708D01*
X130117219Y-65932708D02*
X130164838Y-65837470D01*
X130164838Y-65837470D02*
X130212457Y-65789851D01*
X130212457Y-65789851D02*
X130307695Y-65742232D01*
X130307695Y-65742232D02*
X130450552Y-65742232D01*
X130450552Y-65742232D02*
X130545790Y-65789851D01*
X130545790Y-65789851D02*
X130593409Y-65837470D01*
X130593409Y-65837470D02*
X130641028Y-65932708D01*
X130641028Y-65932708D02*
X130641028Y-66313660D01*
X76567219Y-92125564D02*
X76567219Y-91506517D01*
X76567219Y-91506517D02*
X76948171Y-91839850D01*
X76948171Y-91839850D02*
X76948171Y-91696993D01*
X76948171Y-91696993D02*
X76995790Y-91601755D01*
X76995790Y-91601755D02*
X77043409Y-91554136D01*
X77043409Y-91554136D02*
X77138647Y-91506517D01*
X77138647Y-91506517D02*
X77376742Y-91506517D01*
X77376742Y-91506517D02*
X77471980Y-91554136D01*
X77471980Y-91554136D02*
X77519600Y-91601755D01*
X77519600Y-91601755D02*
X77567219Y-91696993D01*
X77567219Y-91696993D02*
X77567219Y-91982707D01*
X77567219Y-91982707D02*
X77519600Y-92077945D01*
X77519600Y-92077945D02*
X77471980Y-92125564D01*
X76567219Y-91220802D02*
X77567219Y-90887469D01*
X77567219Y-90887469D02*
X76567219Y-90554136D01*
X76567219Y-90316040D02*
X76567219Y-89696993D01*
X76567219Y-89696993D02*
X76948171Y-90030326D01*
X76948171Y-90030326D02*
X76948171Y-89887469D01*
X76948171Y-89887469D02*
X76995790Y-89792231D01*
X76995790Y-89792231D02*
X77043409Y-89744612D01*
X77043409Y-89744612D02*
X77138647Y-89696993D01*
X77138647Y-89696993D02*
X77376742Y-89696993D01*
X77376742Y-89696993D02*
X77471980Y-89744612D01*
X77471980Y-89744612D02*
X77519600Y-89792231D01*
X77519600Y-89792231D02*
X77567219Y-89887469D01*
X77567219Y-89887469D02*
X77567219Y-90173183D01*
X77567219Y-90173183D02*
X77519600Y-90268421D01*
X77519600Y-90268421D02*
X77471980Y-90316040D01*
X147000195Y-90827057D02*
X146524004Y-91160390D01*
X147000195Y-91398485D02*
X146000195Y-91398485D01*
X146000195Y-91398485D02*
X146000195Y-91017533D01*
X146000195Y-91017533D02*
X146047814Y-90922295D01*
X146047814Y-90922295D02*
X146095433Y-90874676D01*
X146095433Y-90874676D02*
X146190671Y-90827057D01*
X146190671Y-90827057D02*
X146333528Y-90827057D01*
X146333528Y-90827057D02*
X146428766Y-90874676D01*
X146428766Y-90874676D02*
X146476385Y-90922295D01*
X146476385Y-90922295D02*
X146524004Y-91017533D01*
X146524004Y-91017533D02*
X146524004Y-91398485D01*
X146000195Y-90493723D02*
X147000195Y-89827057D01*
X146000195Y-89827057D02*
X147000195Y-90493723D01*
X76607611Y-74018458D02*
X76645706Y-73904172D01*
X76645706Y-73904172D02*
X76683802Y-73866077D01*
X76683802Y-73866077D02*
X76759992Y-73827981D01*
X76759992Y-73827981D02*
X76874278Y-73827981D01*
X76874278Y-73827981D02*
X76950468Y-73866077D01*
X76950468Y-73866077D02*
X76988564Y-73904172D01*
X76988564Y-73904172D02*
X77026659Y-73980362D01*
X77026659Y-73980362D02*
X77026659Y-74285124D01*
X77026659Y-74285124D02*
X76226659Y-74285124D01*
X76226659Y-74285124D02*
X76226659Y-74018458D01*
X76226659Y-74018458D02*
X76264754Y-73942267D01*
X76264754Y-73942267D02*
X76302849Y-73904172D01*
X76302849Y-73904172D02*
X76379040Y-73866077D01*
X76379040Y-73866077D02*
X76455230Y-73866077D01*
X76455230Y-73866077D02*
X76531421Y-73904172D01*
X76531421Y-73904172D02*
X76569516Y-73942267D01*
X76569516Y-73942267D02*
X76607611Y-74018458D01*
X76607611Y-74018458D02*
X76607611Y-74285124D01*
X135367219Y-70775564D02*
X136367219Y-70108898D01*
X135367219Y-70108898D02*
X136367219Y-70775564D01*
X135986266Y-69727945D02*
X135986266Y-68966041D01*
X136319600Y-68537469D02*
X136367219Y-68394612D01*
X136367219Y-68394612D02*
X136367219Y-68156517D01*
X136367219Y-68156517D02*
X136319600Y-68061279D01*
X136319600Y-68061279D02*
X136271980Y-68013660D01*
X136271980Y-68013660D02*
X136176742Y-67966041D01*
X136176742Y-67966041D02*
X136081504Y-67966041D01*
X136081504Y-67966041D02*
X135986266Y-68013660D01*
X135986266Y-68013660D02*
X135938647Y-68061279D01*
X135938647Y-68061279D02*
X135891028Y-68156517D01*
X135891028Y-68156517D02*
X135843409Y-68346993D01*
X135843409Y-68346993D02*
X135795790Y-68442231D01*
X135795790Y-68442231D02*
X135748171Y-68489850D01*
X135748171Y-68489850D02*
X135652933Y-68537469D01*
X135652933Y-68537469D02*
X135557695Y-68537469D01*
X135557695Y-68537469D02*
X135462457Y-68489850D01*
X135462457Y-68489850D02*
X135414838Y-68442231D01*
X135414838Y-68442231D02*
X135367219Y-68346993D01*
X135367219Y-68346993D02*
X135367219Y-68108898D01*
X135367219Y-68108898D02*
X135414838Y-67966041D01*
X135367219Y-67680326D02*
X135367219Y-67108898D01*
X136367219Y-67394612D02*
X135367219Y-67394612D01*
X136367219Y-66775564D02*
X135367219Y-66775564D01*
X135367219Y-66775564D02*
X135367219Y-66394612D01*
X135367219Y-66394612D02*
X135414838Y-66299374D01*
X135414838Y-66299374D02*
X135462457Y-66251755D01*
X135462457Y-66251755D02*
X135557695Y-66204136D01*
X135557695Y-66204136D02*
X135700552Y-66204136D01*
X135700552Y-66204136D02*
X135795790Y-66251755D01*
X135795790Y-66251755D02*
X135843409Y-66299374D01*
X135843409Y-66299374D02*
X135891028Y-66394612D01*
X135891028Y-66394612D02*
X135891028Y-66775564D01*
X115241028Y-70839850D02*
X115717219Y-70839850D01*
X114717219Y-71173183D02*
X115241028Y-70839850D01*
X115241028Y-70839850D02*
X114717219Y-70506517D01*
X114812457Y-70220802D02*
X114764838Y-70173183D01*
X114764838Y-70173183D02*
X114717219Y-70077945D01*
X114717219Y-70077945D02*
X114717219Y-69839850D01*
X114717219Y-69839850D02*
X114764838Y-69744612D01*
X114764838Y-69744612D02*
X114812457Y-69696993D01*
X114812457Y-69696993D02*
X114907695Y-69649374D01*
X114907695Y-69649374D02*
X115002933Y-69649374D01*
X115002933Y-69649374D02*
X115145790Y-69696993D01*
X115145790Y-69696993D02*
X115717219Y-70268421D01*
X115717219Y-70268421D02*
X115717219Y-69649374D01*
X115336266Y-69220802D02*
X115336266Y-68458898D01*
X115669600Y-68030326D02*
X115717219Y-67887469D01*
X115717219Y-67887469D02*
X115717219Y-67649374D01*
X115717219Y-67649374D02*
X115669600Y-67554136D01*
X115669600Y-67554136D02*
X115621980Y-67506517D01*
X115621980Y-67506517D02*
X115526742Y-67458898D01*
X115526742Y-67458898D02*
X115431504Y-67458898D01*
X115431504Y-67458898D02*
X115336266Y-67506517D01*
X115336266Y-67506517D02*
X115288647Y-67554136D01*
X115288647Y-67554136D02*
X115241028Y-67649374D01*
X115241028Y-67649374D02*
X115193409Y-67839850D01*
X115193409Y-67839850D02*
X115145790Y-67935088D01*
X115145790Y-67935088D02*
X115098171Y-67982707D01*
X115098171Y-67982707D02*
X115002933Y-68030326D01*
X115002933Y-68030326D02*
X114907695Y-68030326D01*
X114907695Y-68030326D02*
X114812457Y-67982707D01*
X114812457Y-67982707D02*
X114764838Y-67935088D01*
X114764838Y-67935088D02*
X114717219Y-67839850D01*
X114717219Y-67839850D02*
X114717219Y-67601755D01*
X114717219Y-67601755D02*
X114764838Y-67458898D01*
X114717219Y-67173183D02*
X114717219Y-66601755D01*
X115717219Y-66887469D02*
X114717219Y-66887469D01*
X115717219Y-66268421D02*
X114717219Y-66268421D01*
X114717219Y-66268421D02*
X114717219Y-65887469D01*
X114717219Y-65887469D02*
X114764838Y-65792231D01*
X114764838Y-65792231D02*
X114812457Y-65744612D01*
X114812457Y-65744612D02*
X114907695Y-65696993D01*
X114907695Y-65696993D02*
X115050552Y-65696993D01*
X115050552Y-65696993D02*
X115145790Y-65744612D01*
X115145790Y-65744612D02*
X115193409Y-65792231D01*
X115193409Y-65792231D02*
X115241028Y-65887469D01*
X115241028Y-65887469D02*
X115241028Y-66268421D01*
X110341028Y-70489850D02*
X110817219Y-70489850D01*
X109817219Y-70823183D02*
X110341028Y-70489850D01*
X110341028Y-70489850D02*
X109817219Y-70156517D01*
X109912457Y-69870802D02*
X109864838Y-69823183D01*
X109864838Y-69823183D02*
X109817219Y-69727945D01*
X109817219Y-69727945D02*
X109817219Y-69489850D01*
X109817219Y-69489850D02*
X109864838Y-69394612D01*
X109864838Y-69394612D02*
X109912457Y-69346993D01*
X109912457Y-69346993D02*
X110007695Y-69299374D01*
X110007695Y-69299374D02*
X110102933Y-69299374D01*
X110102933Y-69299374D02*
X110245790Y-69346993D01*
X110245790Y-69346993D02*
X110817219Y-69918421D01*
X110817219Y-69918421D02*
X110817219Y-69299374D01*
X110436266Y-68870802D02*
X110436266Y-68108898D01*
X110817219Y-67632707D02*
X109817219Y-67632707D01*
X109817219Y-67632707D02*
X109817219Y-67394612D01*
X109817219Y-67394612D02*
X109864838Y-67251755D01*
X109864838Y-67251755D02*
X109960076Y-67156517D01*
X109960076Y-67156517D02*
X110055314Y-67108898D01*
X110055314Y-67108898D02*
X110245790Y-67061279D01*
X110245790Y-67061279D02*
X110388647Y-67061279D01*
X110388647Y-67061279D02*
X110579123Y-67108898D01*
X110579123Y-67108898D02*
X110674361Y-67156517D01*
X110674361Y-67156517D02*
X110769600Y-67251755D01*
X110769600Y-67251755D02*
X110817219Y-67394612D01*
X110817219Y-67394612D02*
X110817219Y-67632707D01*
X110817219Y-66632707D02*
X109817219Y-66632707D01*
X110817219Y-65585089D02*
X110341028Y-65918422D01*
X110817219Y-66156517D02*
X109817219Y-66156517D01*
X109817219Y-66156517D02*
X109817219Y-65775565D01*
X109817219Y-65775565D02*
X109864838Y-65680327D01*
X109864838Y-65680327D02*
X109912457Y-65632708D01*
X109912457Y-65632708D02*
X110007695Y-65585089D01*
X110007695Y-65585089D02*
X110150552Y-65585089D01*
X110150552Y-65585089D02*
X110245790Y-65632708D01*
X110245790Y-65632708D02*
X110293409Y-65680327D01*
X110293409Y-65680327D02*
X110341028Y-65775565D01*
X110341028Y-65775565D02*
X110341028Y-66156517D01*
X79367219Y-70075564D02*
X80367219Y-69408898D01*
X79367219Y-69408898D02*
X80367219Y-70075564D01*
X79986266Y-69027945D02*
X79986266Y-68266041D01*
X80367219Y-67313660D02*
X80367219Y-67789850D01*
X80367219Y-67789850D02*
X79367219Y-67789850D01*
X80367219Y-66980326D02*
X79367219Y-66980326D01*
X80367219Y-66504136D02*
X79367219Y-66504136D01*
X79367219Y-66504136D02*
X80081504Y-66170803D01*
X80081504Y-66170803D02*
X79367219Y-65837470D01*
X79367219Y-65837470D02*
X80367219Y-65837470D01*
G36*
X100567213Y-96866957D02*
G01*
X104055001Y-97488494D01*
X104055001Y-98090064D01*
X100567213Y-97468527D01*
X100567213Y-96866957D01*
G37*
G36*
X102059567Y-95969914D02*
G01*
X102618853Y-96069565D01*
X102618853Y-97395621D01*
X102059567Y-97295969D01*
X102059567Y-95969914D01*
G37*
G36*
X100567213Y-95562517D02*
G01*
X101127994Y-95662534D01*
X101127994Y-97130006D01*
X100567213Y-97029989D01*
X100567213Y-95562517D01*
G37*
G36*
X101469934Y-94752119D02*
G01*
X104055001Y-95212822D01*
X104055001Y-95792044D01*
X101469934Y-95331341D01*
X101469934Y-94752119D01*
G37*
G36*
X100794816Y-95247260D02*
G01*
X100657503Y-95200930D01*
X100545841Y-95114637D01*
X100472813Y-94999573D01*
X100447747Y-94860929D01*
X100459947Y-94766697D01*
X100493260Y-94695806D01*
X100545841Y-94642576D01*
X100615275Y-94606377D01*
X100696586Y-94590973D01*
X100794816Y-94597697D01*
X100931886Y-94644302D01*
X101043578Y-94731236D01*
X101116651Y-94846508D01*
X101141672Y-94984577D01*
X101129441Y-95079300D01*
X101096102Y-95150270D01*
X101043578Y-95203297D01*
X100974214Y-95239061D01*
X100892968Y-95254174D01*
X100794816Y-95247260D01*
G37*
G36*
X103974645Y-92800130D02*
G01*
X104203643Y-92856206D01*
X104402987Y-92935911D01*
X104576673Y-93038817D01*
X104728542Y-93164748D01*
X104853404Y-93308394D01*
X104952593Y-93471676D01*
X105022915Y-93646324D01*
X105066027Y-93835142D01*
X105080820Y-94040457D01*
X105070285Y-94176261D01*
X105037651Y-94319993D01*
X104982155Y-94458939D01*
X104903225Y-94584691D01*
X104799547Y-94692263D01*
X104673057Y-94772636D01*
X104267858Y-94446388D01*
X104390809Y-94360082D01*
X104482853Y-94252765D01*
X104540036Y-94126397D01*
X104560217Y-93972679D01*
X104542529Y-93822998D01*
X104492043Y-93696074D01*
X104408656Y-93585553D01*
X104293290Y-93493841D01*
X104152435Y-93425612D01*
X103978491Y-93379535D01*
X103821011Y-93351460D01*
X103893650Y-93416562D01*
X104007343Y-93569495D01*
X104078434Y-93739227D01*
X104102872Y-93931830D01*
X104091241Y-94063709D01*
X104058102Y-94177747D01*
X104004992Y-94276945D01*
X103887827Y-94405142D01*
X103730158Y-94503724D01*
X103542421Y-94569063D01*
X103314487Y-94604291D01*
X103070830Y-94605574D01*
X102793456Y-94572051D01*
X102743447Y-94563075D01*
X102456838Y-94496508D01*
X102204678Y-94406638D01*
X101976335Y-94290828D01*
X101787725Y-94157876D01*
X101631991Y-94003105D01*
X101517592Y-93833278D01*
X101446136Y-93648433D01*
X101422063Y-93449877D01*
X101426223Y-93400418D01*
X101963610Y-93400418D01*
X101978992Y-93509480D01*
X102024518Y-93608513D01*
X102095718Y-93697362D01*
X102190359Y-93777041D01*
X102302511Y-93844346D01*
X102437411Y-93903620D01*
X102583610Y-93950241D01*
X102744088Y-93985868D01*
X102794311Y-93994844D01*
X102951974Y-94016054D01*
X103092653Y-94021772D01*
X103226052Y-94011096D01*
X103337354Y-93984220D01*
X103432712Y-93938272D01*
X103502126Y-93875409D01*
X103544919Y-93795451D01*
X103560470Y-93688930D01*
X103539602Y-93538578D01*
X103480541Y-93416355D01*
X103386262Y-93312603D01*
X103308801Y-93260145D01*
X102212746Y-93064746D01*
X102145052Y-93087543D01*
X102069101Y-93136105D01*
X102011482Y-93204413D01*
X101976539Y-93288223D01*
X101963610Y-93400418D01*
X101426223Y-93400418D01*
X101434061Y-93307229D01*
X101466972Y-93193704D01*
X101517592Y-93103663D01*
X101589630Y-93025278D01*
X101679225Y-92961637D01*
X101717021Y-92944469D01*
X101469934Y-92877983D01*
X101469934Y-92353715D01*
X103974645Y-92800130D01*
G37*
G36*
X102899243Y-90379378D02*
G01*
X102899243Y-89779823D01*
X103126464Y-89847180D01*
X103333937Y-89938301D01*
X103523925Y-90053681D01*
X103691937Y-90191189D01*
X103833535Y-90348783D01*
X103949854Y-90528489D01*
X104033436Y-90721065D01*
X104085031Y-90933413D01*
X104102872Y-91168893D01*
X104088950Y-91354126D01*
X104049470Y-91513974D01*
X103986826Y-91652311D01*
X103897409Y-91778461D01*
X103786595Y-91884422D01*
X103652794Y-91972147D01*
X103502348Y-92038811D01*
X103328150Y-92087604D01*
X103126206Y-92117227D01*
X102920693Y-92125000D01*
X102691194Y-92112253D01*
X102434419Y-92076378D01*
X102192710Y-92033330D01*
X101823150Y-91945678D01*
X101499640Y-91824685D01*
X101299910Y-91722825D01*
X101124639Y-91610181D01*
X100971770Y-91486714D01*
X100837027Y-91348940D01*
X100725698Y-91201966D01*
X100636669Y-91044879D01*
X100571740Y-90879432D01*
X100532576Y-90706960D01*
X100519341Y-90525924D01*
X100539182Y-90285753D01*
X100593815Y-90092702D01*
X100678129Y-89937909D01*
X100798300Y-89802989D01*
X100943041Y-89699852D01*
X101115599Y-89625584D01*
X101304220Y-89580958D01*
X101514367Y-89562466D01*
X101750325Y-89572461D01*
X101750325Y-90172016D01*
X101545195Y-90160799D01*
X101388082Y-90179160D01*
X101295738Y-90210171D01*
X101221607Y-90256798D01*
X101162829Y-90320211D01*
X101108000Y-90441432D01*
X101086534Y-90627041D01*
X101103701Y-90773028D01*
X101153640Y-90902730D01*
X101236731Y-91019666D01*
X101357521Y-91127311D01*
X101506801Y-91218072D01*
X101701385Y-91301151D01*
X101918855Y-91367141D01*
X102186726Y-91424799D01*
X102433778Y-91468763D01*
X102697488Y-91506672D01*
X102909502Y-91520054D01*
X103105193Y-91509671D01*
X103254647Y-91476273D01*
X103378726Y-91415084D01*
X103465581Y-91328811D01*
X103517178Y-91218515D01*
X103536320Y-91067777D01*
X103517244Y-90887966D01*
X103464513Y-90745010D01*
X103375595Y-90621767D01*
X103251442Y-90520245D01*
X103097492Y-90441914D01*
X102899243Y-90379378D01*
G37*
G36*
X100567213Y-86534752D02*
G01*
X104055001Y-87156289D01*
X104055001Y-87756943D01*
X101716986Y-88513668D01*
X104055001Y-88930225D01*
X104055001Y-89531795D01*
X100567213Y-88910258D01*
X100567213Y-88308688D01*
X102907578Y-87550680D01*
X100567213Y-87133574D01*
X100567213Y-86534752D01*
G37*
G36*
X102899243Y-84669958D02*
G01*
X102899243Y-84070403D01*
X103126464Y-84137759D01*
X103333937Y-84228880D01*
X103523925Y-84344260D01*
X103691937Y-84481769D01*
X103833535Y-84639362D01*
X103949854Y-84819068D01*
X104033436Y-85011644D01*
X104085031Y-85223992D01*
X104102872Y-85459473D01*
X104088950Y-85644705D01*
X104049470Y-85804553D01*
X103986826Y-85942890D01*
X103897409Y-86069040D01*
X103786595Y-86175001D01*
X103652794Y-86262726D01*
X103502348Y-86329390D01*
X103328150Y-86378184D01*
X103126206Y-86407807D01*
X102920693Y-86415579D01*
X102691194Y-86402832D01*
X102434419Y-86366957D01*
X102192710Y-86323909D01*
X101823150Y-86236257D01*
X101499640Y-86115265D01*
X101299910Y-86013404D01*
X101124639Y-85900761D01*
X100971770Y-85777294D01*
X100837027Y-85639520D01*
X100725698Y-85492545D01*
X100636669Y-85335458D01*
X100571740Y-85170011D01*
X100532576Y-84997539D01*
X100519341Y-84816503D01*
X100539182Y-84576333D01*
X100593815Y-84383281D01*
X100678129Y-84228489D01*
X100798300Y-84093568D01*
X100943041Y-83990431D01*
X101115599Y-83916163D01*
X101304220Y-83871537D01*
X101514367Y-83853045D01*
X101750325Y-83863040D01*
X101750325Y-84462595D01*
X101545195Y-84451378D01*
X101388082Y-84469740D01*
X101295738Y-84500750D01*
X101221607Y-84547378D01*
X101162829Y-84610790D01*
X101108000Y-84732012D01*
X101086534Y-84917620D01*
X101103701Y-85063607D01*
X101153640Y-85193309D01*
X101236731Y-85310245D01*
X101357521Y-85417890D01*
X101506801Y-85508652D01*
X101701385Y-85591730D01*
X101918855Y-85657720D01*
X102186726Y-85715378D01*
X102433778Y-85759342D01*
X102697488Y-85797251D01*
X102909502Y-85810633D01*
X103105193Y-85800251D01*
X103254647Y-85766852D01*
X103378726Y-85705664D01*
X103465581Y-85619391D01*
X103517178Y-85509095D01*
X103536320Y-85358356D01*
X103517244Y-85178545D01*
X103464513Y-85035589D01*
X103375595Y-84912347D01*
X103251442Y-84810825D01*
X103097492Y-84732493D01*
X102899243Y-84669958D01*
G37*
X145867219Y-73004136D02*
X145867219Y-73480326D01*
X145867219Y-73480326D02*
X146343409Y-73527945D01*
X146343409Y-73527945D02*
X146295790Y-73480326D01*
X146295790Y-73480326D02*
X146248171Y-73385088D01*
X146248171Y-73385088D02*
X146248171Y-73146993D01*
X146248171Y-73146993D02*
X146295790Y-73051755D01*
X146295790Y-73051755D02*
X146343409Y-73004136D01*
X146343409Y-73004136D02*
X146438647Y-72956517D01*
X146438647Y-72956517D02*
X146676742Y-72956517D01*
X146676742Y-72956517D02*
X146771980Y-73004136D01*
X146771980Y-73004136D02*
X146819600Y-73051755D01*
X146819600Y-73051755D02*
X146867219Y-73146993D01*
X146867219Y-73146993D02*
X146867219Y-73385088D01*
X146867219Y-73385088D02*
X146819600Y-73480326D01*
X146819600Y-73480326D02*
X146771980Y-73527945D01*
X145867219Y-72670802D02*
X146867219Y-72337469D01*
X146867219Y-72337469D02*
X145867219Y-72004136D01*
X145867219Y-78523183D02*
X145867219Y-77951755D01*
X146867219Y-78237469D02*
X145867219Y-78237469D01*
X145867219Y-77713659D02*
X146867219Y-77046993D01*
X145867219Y-77046993D02*
X146867219Y-77713659D01*
X76441695Y-88304136D02*
X76441695Y-87770802D01*
X76441695Y-87770802D02*
X77241695Y-88304136D01*
X77241695Y-88304136D02*
X77241695Y-87770802D01*
X76936933Y-87466040D02*
X76936933Y-86856517D01*
X77241695Y-86475564D02*
X76441695Y-86475564D01*
X76441695Y-86475564D02*
X76441695Y-86170802D01*
X76441695Y-86170802D02*
X76479790Y-86094612D01*
X76479790Y-86094612D02*
X76517885Y-86056517D01*
X76517885Y-86056517D02*
X76594076Y-86018421D01*
X76594076Y-86018421D02*
X76708361Y-86018421D01*
X76708361Y-86018421D02*
X76784552Y-86056517D01*
X76784552Y-86056517D02*
X76822647Y-86094612D01*
X76822647Y-86094612D02*
X76860742Y-86170802D01*
X76860742Y-86170802D02*
X76860742Y-86475564D01*
X77241695Y-85218421D02*
X76860742Y-85485088D01*
X77241695Y-85675564D02*
X76441695Y-85675564D01*
X76441695Y-85675564D02*
X76441695Y-85370802D01*
X76441695Y-85370802D02*
X76479790Y-85294612D01*
X76479790Y-85294612D02*
X76517885Y-85256517D01*
X76517885Y-85256517D02*
X76594076Y-85218421D01*
X76594076Y-85218421D02*
X76708361Y-85218421D01*
X76708361Y-85218421D02*
X76784552Y-85256517D01*
X76784552Y-85256517D02*
X76822647Y-85294612D01*
X76822647Y-85294612D02*
X76860742Y-85370802D01*
X76860742Y-85370802D02*
X76860742Y-85675564D01*
X76441695Y-84723183D02*
X76441695Y-84570802D01*
X76441695Y-84570802D02*
X76479790Y-84494612D01*
X76479790Y-84494612D02*
X76555980Y-84418421D01*
X76555980Y-84418421D02*
X76708361Y-84380326D01*
X76708361Y-84380326D02*
X76975028Y-84380326D01*
X76975028Y-84380326D02*
X77127409Y-84418421D01*
X77127409Y-84418421D02*
X77203600Y-84494612D01*
X77203600Y-84494612D02*
X77241695Y-84570802D01*
X77241695Y-84570802D02*
X77241695Y-84723183D01*
X77241695Y-84723183D02*
X77203600Y-84799374D01*
X77203600Y-84799374D02*
X77127409Y-84875564D01*
X77127409Y-84875564D02*
X76975028Y-84913660D01*
X76975028Y-84913660D02*
X76708361Y-84913660D01*
X76708361Y-84913660D02*
X76555980Y-84875564D01*
X76555980Y-84875564D02*
X76479790Y-84799374D01*
X76479790Y-84799374D02*
X76441695Y-84723183D01*
X76822647Y-83770803D02*
X76860742Y-83656517D01*
X76860742Y-83656517D02*
X76898838Y-83618422D01*
X76898838Y-83618422D02*
X76975028Y-83580326D01*
X76975028Y-83580326D02*
X77089314Y-83580326D01*
X77089314Y-83580326D02*
X77165504Y-83618422D01*
X77165504Y-83618422D02*
X77203600Y-83656517D01*
X77203600Y-83656517D02*
X77241695Y-83732707D01*
X77241695Y-83732707D02*
X77241695Y-84037469D01*
X77241695Y-84037469D02*
X76441695Y-84037469D01*
X76441695Y-84037469D02*
X76441695Y-83770803D01*
X76441695Y-83770803D02*
X76479790Y-83694612D01*
X76479790Y-83694612D02*
X76517885Y-83656517D01*
X76517885Y-83656517D02*
X76594076Y-83618422D01*
X76594076Y-83618422D02*
X76670266Y-83618422D01*
X76670266Y-83618422D02*
X76746457Y-83656517D01*
X76746457Y-83656517D02*
X76784552Y-83694612D01*
X76784552Y-83694612D02*
X76822647Y-83770803D01*
X76822647Y-83770803D02*
X76822647Y-84037469D01*
X76822647Y-83237469D02*
X76822647Y-82970803D01*
X77241695Y-82856517D02*
X77241695Y-83237469D01*
X77241695Y-83237469D02*
X76441695Y-83237469D01*
X76441695Y-83237469D02*
X76441695Y-82856517D01*
X141093409Y-91696993D02*
X141093409Y-92030326D01*
X141617219Y-92030326D02*
X140617219Y-92030326D01*
X140617219Y-92030326D02*
X140617219Y-91554136D01*
X140617219Y-91316040D02*
X140617219Y-90744612D01*
X141617219Y-91030326D02*
X140617219Y-91030326D01*
X141617219Y-90411278D02*
X140617219Y-90411278D01*
X140617219Y-90411278D02*
X140617219Y-90173183D01*
X140617219Y-90173183D02*
X140664838Y-90030326D01*
X140664838Y-90030326D02*
X140760076Y-89935088D01*
X140760076Y-89935088D02*
X140855314Y-89887469D01*
X140855314Y-89887469D02*
X141045790Y-89839850D01*
X141045790Y-89839850D02*
X141188647Y-89839850D01*
X141188647Y-89839850D02*
X141379123Y-89887469D01*
X141379123Y-89887469D02*
X141474361Y-89935088D01*
X141474361Y-89935088D02*
X141569600Y-90030326D01*
X141569600Y-90030326D02*
X141617219Y-90173183D01*
X141617219Y-90173183D02*
X141617219Y-90411278D01*
X141617219Y-89411278D02*
X140617219Y-89411278D01*
X94511574Y-70060359D02*
X94511574Y-69393693D01*
X94511574Y-69393693D02*
X95511574Y-70060359D01*
X95511574Y-70060359D02*
X95511574Y-69393693D01*
X95130621Y-69012740D02*
X95130621Y-68250836D01*
X95511574Y-67298455D02*
X95511574Y-67774645D01*
X95511574Y-67774645D02*
X94511574Y-67774645D01*
X95511574Y-66965121D02*
X94511574Y-66965121D01*
X95511574Y-66488931D02*
X94511574Y-66488931D01*
X94511574Y-66488931D02*
X95225859Y-66155598D01*
X95225859Y-66155598D02*
X94511574Y-65822265D01*
X94511574Y-65822265D02*
X95511574Y-65822265D01*
X146000195Y-89001619D02*
X146000195Y-88430191D01*
X147000195Y-88715905D02*
X146000195Y-88715905D01*
X146000195Y-88192095D02*
X147000195Y-87525429D01*
X146000195Y-87525429D02*
X147000195Y-88192095D01*
X76479790Y-80376048D02*
X76441695Y-80452238D01*
X76441695Y-80452238D02*
X76441695Y-80566524D01*
X76441695Y-80566524D02*
X76479790Y-80680810D01*
X76479790Y-80680810D02*
X76555980Y-80757000D01*
X76555980Y-80757000D02*
X76632171Y-80795095D01*
X76632171Y-80795095D02*
X76784552Y-80833191D01*
X76784552Y-80833191D02*
X76898838Y-80833191D01*
X76898838Y-80833191D02*
X77051219Y-80795095D01*
X77051219Y-80795095D02*
X77127409Y-80757000D01*
X77127409Y-80757000D02*
X77203600Y-80680810D01*
X77203600Y-80680810D02*
X77241695Y-80566524D01*
X77241695Y-80566524D02*
X77241695Y-80490333D01*
X77241695Y-80490333D02*
X77203600Y-80376048D01*
X77203600Y-80376048D02*
X77165504Y-80337952D01*
X77165504Y-80337952D02*
X76898838Y-80337952D01*
X76898838Y-80337952D02*
X76898838Y-80490333D01*
X146867219Y-80608898D02*
X146391028Y-80942231D01*
X146867219Y-81180326D02*
X145867219Y-81180326D01*
X145867219Y-81180326D02*
X145867219Y-80799374D01*
X145867219Y-80799374D02*
X145914838Y-80704136D01*
X145914838Y-80704136D02*
X145962457Y-80656517D01*
X145962457Y-80656517D02*
X146057695Y-80608898D01*
X146057695Y-80608898D02*
X146200552Y-80608898D01*
X146200552Y-80608898D02*
X146295790Y-80656517D01*
X146295790Y-80656517D02*
X146343409Y-80704136D01*
X146343409Y-80704136D02*
X146391028Y-80799374D01*
X146391028Y-80799374D02*
X146391028Y-81180326D01*
X145867219Y-80275564D02*
X146867219Y-79608898D01*
X145867219Y-79608898D02*
X146867219Y-80275564D01*
X77463585Y-95460897D02*
X77368347Y-95413278D01*
X77368347Y-95413278D02*
X77225490Y-95413278D01*
X77225490Y-95413278D02*
X77082633Y-95460897D01*
X77082633Y-95460897D02*
X76987395Y-95556135D01*
X76987395Y-95556135D02*
X76939776Y-95651373D01*
X76939776Y-95651373D02*
X76892157Y-95841849D01*
X76892157Y-95841849D02*
X76892157Y-95984706D01*
X76892157Y-95984706D02*
X76939776Y-96175182D01*
X76939776Y-96175182D02*
X76987395Y-96270420D01*
X76987395Y-96270420D02*
X77082633Y-96365659D01*
X77082633Y-96365659D02*
X77225490Y-96413278D01*
X77225490Y-96413278D02*
X77320728Y-96413278D01*
X77320728Y-96413278D02*
X77463585Y-96365659D01*
X77463585Y-96365659D02*
X77511204Y-96318039D01*
X77511204Y-96318039D02*
X77511204Y-95984706D01*
X77511204Y-95984706D02*
X77320728Y-95984706D01*
X77939776Y-96413278D02*
X77939776Y-95413278D01*
X77939776Y-95413278D02*
X78511204Y-96413278D01*
X78511204Y-96413278D02*
X78511204Y-95413278D01*
X78987395Y-96413278D02*
X78987395Y-95413278D01*
X78987395Y-95413278D02*
X79225490Y-95413278D01*
X79225490Y-95413278D02*
X79368347Y-95460897D01*
X79368347Y-95460897D02*
X79463585Y-95556135D01*
X79463585Y-95556135D02*
X79511204Y-95651373D01*
X79511204Y-95651373D02*
X79558823Y-95841849D01*
X79558823Y-95841849D02*
X79558823Y-95984706D01*
X79558823Y-95984706D02*
X79511204Y-96175182D01*
X79511204Y-96175182D02*
X79463585Y-96270420D01*
X79463585Y-96270420D02*
X79368347Y-96365659D01*
X79368347Y-96365659D02*
X79225490Y-96413278D01*
X79225490Y-96413278D02*
X78987395Y-96413278D01*
G36*
X106723582Y-97196732D02*
G01*
X106723582Y-97692179D01*
X106403502Y-97625622D01*
X106403502Y-97130176D01*
X106393063Y-97020190D01*
X106364423Y-96934659D01*
X106317320Y-96862281D01*
X106255491Y-96806676D01*
X106181700Y-96766259D01*
X106097954Y-96740364D01*
X106010525Y-96730926D01*
X105932236Y-96739509D01*
X105862880Y-96768220D01*
X105808893Y-96819133D01*
X105775157Y-96890052D01*
X105762242Y-96996941D01*
X105762242Y-97353414D01*
X107434818Y-97701093D01*
X107434818Y-98102140D01*
X105441796Y-97687782D01*
X105441796Y-96930263D01*
X105452218Y-96779002D01*
X105481104Y-96655441D01*
X105525938Y-96554618D01*
X105590169Y-96465978D01*
X105666958Y-96399283D01*
X105757846Y-96352140D01*
X105857583Y-96325719D01*
X105969162Y-96319399D01*
X106095634Y-96335287D01*
X106220191Y-96371164D01*
X106330868Y-96423297D01*
X106429514Y-96491725D01*
X106515547Y-96575453D01*
X106587904Y-96673526D01*
X106647012Y-96787625D01*
X106688679Y-96909539D01*
X106714582Y-97045190D01*
X106723582Y-97196732D01*
G37*
G36*
X106279793Y-95697569D02*
G01*
X107434818Y-95937660D01*
X107434818Y-96322465D01*
X105957637Y-96015329D01*
X105957637Y-95652507D01*
X106279793Y-95697569D01*
G37*
G36*
X105947623Y-95193086D02*
G01*
X106313132Y-95274785D01*
X106305561Y-95340975D01*
X106302141Y-95411927D01*
X106307733Y-95490320D01*
X106323513Y-95556885D01*
X106349825Y-95617368D01*
X106385184Y-95668871D01*
X106429821Y-95712546D01*
X106484469Y-95748860D01*
X106546108Y-95776631D01*
X106618314Y-95797953D01*
X106594500Y-95870615D01*
X106454442Y-95834377D01*
X106329863Y-95787817D01*
X106215123Y-95728987D01*
X106118959Y-95662276D01*
X106037854Y-95584101D01*
X105979496Y-95500343D01*
X105942597Y-95407972D01*
X105930282Y-95308979D01*
X105934922Y-95245354D01*
X105947623Y-95193086D01*
G37*
G36*
X106682550Y-93875273D02*
G01*
X106711248Y-93881257D01*
X106867337Y-93925203D01*
X107009591Y-93988724D01*
X107138539Y-94071906D01*
X107248460Y-94171418D01*
X107338728Y-94287521D01*
X107406241Y-94418714D01*
X107447867Y-94561848D01*
X107462173Y-94721209D01*
X107455417Y-94829529D01*
X107436342Y-94922238D01*
X107406241Y-95001721D01*
X107363196Y-95074530D01*
X107310783Y-95134992D01*
X107248460Y-95184415D01*
X107139780Y-95237787D01*
X107009591Y-95267702D01*
X106869634Y-95272062D01*
X106711248Y-95250971D01*
X106682550Y-95244987D01*
X106525308Y-95200827D01*
X106382986Y-95137398D01*
X106254051Y-95054341D01*
X106144727Y-94955193D01*
X106054832Y-94839317D01*
X105986946Y-94707897D01*
X105944752Y-94564461D01*
X105936092Y-94469272D01*
X106237905Y-94469272D01*
X106246996Y-94546741D01*
X106273443Y-94614352D01*
X106315102Y-94674264D01*
X106370896Y-94727193D01*
X106436574Y-94771237D01*
X106512801Y-94808525D01*
X106594457Y-94837727D01*
X106682550Y-94860183D01*
X106711248Y-94866167D01*
X106802699Y-94880934D01*
X106884416Y-94885828D01*
X106961900Y-94880083D01*
X107025711Y-94863358D01*
X107080129Y-94833235D01*
X107120477Y-94789963D01*
X107145361Y-94734046D01*
X107154549Y-94657217D01*
X107145803Y-94579716D01*
X107120477Y-94512503D01*
X107080126Y-94452956D01*
X107025711Y-94400518D01*
X106960989Y-94356709D01*
X106884416Y-94319185D01*
X106801775Y-94289628D01*
X106711248Y-94266551D01*
X106682550Y-94260567D01*
X106593573Y-94246385D01*
X106512801Y-94241882D01*
X106435693Y-94247743D01*
X106370896Y-94264474D01*
X106315061Y-94294367D01*
X106273443Y-94337259D01*
X106247472Y-94392759D01*
X106237905Y-94469272D01*
X105936092Y-94469272D01*
X105930282Y-94405403D01*
X105937143Y-94296453D01*
X105956481Y-94203620D01*
X105986946Y-94124401D01*
X106030284Y-94051756D01*
X106082709Y-93991368D01*
X106144727Y-93941952D01*
X106252811Y-93888518D01*
X106382986Y-93858543D01*
X106522994Y-93854052D01*
X106682550Y-93875273D01*
G37*
X140617219Y-78030326D02*
X141426742Y-78030326D01*
X141426742Y-78030326D02*
X141521980Y-77982707D01*
X141521980Y-77982707D02*
X141569600Y-77935088D01*
X141569600Y-77935088D02*
X141617219Y-77839850D01*
X141617219Y-77839850D02*
X141617219Y-77649374D01*
X141617219Y-77649374D02*
X141569600Y-77554136D01*
X141569600Y-77554136D02*
X141521980Y-77506517D01*
X141521980Y-77506517D02*
X141426742Y-77458898D01*
X141426742Y-77458898D02*
X140617219Y-77458898D01*
X141331504Y-77030326D02*
X141331504Y-76554136D01*
X141617219Y-77125564D02*
X140617219Y-76792231D01*
X140617219Y-76792231D02*
X141617219Y-76458898D01*
X141617219Y-75554136D02*
X141141028Y-75887469D01*
X141617219Y-76125564D02*
X140617219Y-76125564D01*
X140617219Y-76125564D02*
X140617219Y-75744612D01*
X140617219Y-75744612D02*
X140664838Y-75649374D01*
X140664838Y-75649374D02*
X140712457Y-75601755D01*
X140712457Y-75601755D02*
X140807695Y-75554136D01*
X140807695Y-75554136D02*
X140950552Y-75554136D01*
X140950552Y-75554136D02*
X141045790Y-75601755D01*
X141045790Y-75601755D02*
X141093409Y-75649374D01*
X141093409Y-75649374D02*
X141141028Y-75744612D01*
X141141028Y-75744612D02*
X141141028Y-76125564D01*
X140617219Y-75268421D02*
X140617219Y-74696993D01*
X141617219Y-74982707D02*
X140617219Y-74982707D01*
X67865645Y-65516041D02*
X67903740Y-65401755D01*
X67903740Y-65401755D02*
X67903740Y-65211279D01*
X67903740Y-65211279D02*
X67865645Y-65135088D01*
X67865645Y-65135088D02*
X67827549Y-65096993D01*
X67827549Y-65096993D02*
X67751359Y-65058898D01*
X67751359Y-65058898D02*
X67675168Y-65058898D01*
X67675168Y-65058898D02*
X67598978Y-65096993D01*
X67598978Y-65096993D02*
X67560883Y-65135088D01*
X67560883Y-65135088D02*
X67522787Y-65211279D01*
X67522787Y-65211279D02*
X67484692Y-65363660D01*
X67484692Y-65363660D02*
X67446597Y-65439850D01*
X67446597Y-65439850D02*
X67408502Y-65477945D01*
X67408502Y-65477945D02*
X67332311Y-65516041D01*
X67332311Y-65516041D02*
X67256121Y-65516041D01*
X67256121Y-65516041D02*
X67179930Y-65477945D01*
X67179930Y-65477945D02*
X67141835Y-65439850D01*
X67141835Y-65439850D02*
X67103740Y-65363660D01*
X67103740Y-65363660D02*
X67103740Y-65173183D01*
X67103740Y-65173183D02*
X67141835Y-65058898D01*
X67903740Y-64716040D02*
X67103740Y-64716040D01*
X67103740Y-64716040D02*
X67103740Y-64411278D01*
X67103740Y-64411278D02*
X67141835Y-64335088D01*
X67141835Y-64335088D02*
X67179930Y-64296993D01*
X67179930Y-64296993D02*
X67256121Y-64258897D01*
X67256121Y-64258897D02*
X67370406Y-64258897D01*
X67370406Y-64258897D02*
X67446597Y-64296993D01*
X67446597Y-64296993D02*
X67484692Y-64335088D01*
X67484692Y-64335088D02*
X67522787Y-64411278D01*
X67522787Y-64411278D02*
X67522787Y-64716040D01*
X67903740Y-63916040D02*
X67103740Y-63916040D01*
X67903740Y-63535088D02*
X67103740Y-63535088D01*
X67103740Y-63535088D02*
X67903740Y-63077945D01*
X67903740Y-63077945D02*
X67103740Y-63077945D01*
X67903740Y-62696993D02*
X67103740Y-62696993D01*
X67103740Y-62696993D02*
X67103740Y-62506517D01*
X67103740Y-62506517D02*
X67141835Y-62392231D01*
X67141835Y-62392231D02*
X67218025Y-62316041D01*
X67218025Y-62316041D02*
X67294216Y-62277946D01*
X67294216Y-62277946D02*
X67446597Y-62239850D01*
X67446597Y-62239850D02*
X67560883Y-62239850D01*
X67560883Y-62239850D02*
X67713264Y-62277946D01*
X67713264Y-62277946D02*
X67789454Y-62316041D01*
X67789454Y-62316041D02*
X67865645Y-62392231D01*
X67865645Y-62392231D02*
X67903740Y-62506517D01*
X67903740Y-62506517D02*
X67903740Y-62696993D01*
X67903740Y-61516041D02*
X67903740Y-61896993D01*
X67903740Y-61896993D02*
X67103740Y-61896993D01*
X67484692Y-61249374D02*
X67484692Y-60982708D01*
X67903740Y-60868422D02*
X67903740Y-61249374D01*
X67903740Y-61249374D02*
X67103740Y-61249374D01*
X67103740Y-61249374D02*
X67103740Y-60868422D01*
X69191695Y-65020802D02*
X68810742Y-65287469D01*
X69191695Y-65477945D02*
X68391695Y-65477945D01*
X68391695Y-65477945D02*
X68391695Y-65173183D01*
X68391695Y-65173183D02*
X68429790Y-65096993D01*
X68429790Y-65096993D02*
X68467885Y-65058898D01*
X68467885Y-65058898D02*
X68544076Y-65020802D01*
X68544076Y-65020802D02*
X68658361Y-65020802D01*
X68658361Y-65020802D02*
X68734552Y-65058898D01*
X68734552Y-65058898D02*
X68772647Y-65096993D01*
X68772647Y-65096993D02*
X68810742Y-65173183D01*
X68810742Y-65173183D02*
X68810742Y-65477945D01*
X69153600Y-64716041D02*
X69191695Y-64601755D01*
X69191695Y-64601755D02*
X69191695Y-64411279D01*
X69191695Y-64411279D02*
X69153600Y-64335088D01*
X69153600Y-64335088D02*
X69115504Y-64296993D01*
X69115504Y-64296993D02*
X69039314Y-64258898D01*
X69039314Y-64258898D02*
X68963123Y-64258898D01*
X68963123Y-64258898D02*
X68886933Y-64296993D01*
X68886933Y-64296993D02*
X68848838Y-64335088D01*
X68848838Y-64335088D02*
X68810742Y-64411279D01*
X68810742Y-64411279D02*
X68772647Y-64563660D01*
X68772647Y-64563660D02*
X68734552Y-64639850D01*
X68734552Y-64639850D02*
X68696457Y-64677945D01*
X68696457Y-64677945D02*
X68620266Y-64716041D01*
X68620266Y-64716041D02*
X68544076Y-64716041D01*
X68544076Y-64716041D02*
X68467885Y-64677945D01*
X68467885Y-64677945D02*
X68429790Y-64639850D01*
X68429790Y-64639850D02*
X68391695Y-64563660D01*
X68391695Y-64563660D02*
X68391695Y-64373183D01*
X68391695Y-64373183D02*
X68429790Y-64258898D01*
X68658361Y-63573183D02*
X69191695Y-63573183D01*
X68353600Y-63763659D02*
X68925028Y-63954136D01*
X68925028Y-63954136D02*
X68925028Y-63458897D01*
X68734552Y-63039850D02*
X68696457Y-63116040D01*
X68696457Y-63116040D02*
X68658361Y-63154135D01*
X68658361Y-63154135D02*
X68582171Y-63192231D01*
X68582171Y-63192231D02*
X68544076Y-63192231D01*
X68544076Y-63192231D02*
X68467885Y-63154135D01*
X68467885Y-63154135D02*
X68429790Y-63116040D01*
X68429790Y-63116040D02*
X68391695Y-63039850D01*
X68391695Y-63039850D02*
X68391695Y-62887469D01*
X68391695Y-62887469D02*
X68429790Y-62811278D01*
X68429790Y-62811278D02*
X68467885Y-62773183D01*
X68467885Y-62773183D02*
X68544076Y-62735088D01*
X68544076Y-62735088D02*
X68582171Y-62735088D01*
X68582171Y-62735088D02*
X68658361Y-62773183D01*
X68658361Y-62773183D02*
X68696457Y-62811278D01*
X68696457Y-62811278D02*
X68734552Y-62887469D01*
X68734552Y-62887469D02*
X68734552Y-63039850D01*
X68734552Y-63039850D02*
X68772647Y-63116040D01*
X68772647Y-63116040D02*
X68810742Y-63154135D01*
X68810742Y-63154135D02*
X68886933Y-63192231D01*
X68886933Y-63192231D02*
X69039314Y-63192231D01*
X69039314Y-63192231D02*
X69115504Y-63154135D01*
X69115504Y-63154135D02*
X69153600Y-63116040D01*
X69153600Y-63116040D02*
X69191695Y-63039850D01*
X69191695Y-63039850D02*
X69191695Y-62887469D01*
X69191695Y-62887469D02*
X69153600Y-62811278D01*
X69153600Y-62811278D02*
X69115504Y-62773183D01*
X69115504Y-62773183D02*
X69039314Y-62735088D01*
X69039314Y-62735088D02*
X68886933Y-62735088D01*
X68886933Y-62735088D02*
X68810742Y-62773183D01*
X68810742Y-62773183D02*
X68772647Y-62811278D01*
X68772647Y-62811278D02*
X68734552Y-62887469D01*
X68391695Y-62011278D02*
X68391695Y-62392230D01*
X68391695Y-62392230D02*
X68772647Y-62430326D01*
X68772647Y-62430326D02*
X68734552Y-62392230D01*
X68734552Y-62392230D02*
X68696457Y-62316040D01*
X68696457Y-62316040D02*
X68696457Y-62125564D01*
X68696457Y-62125564D02*
X68734552Y-62049373D01*
X68734552Y-62049373D02*
X68772647Y-62011278D01*
X68772647Y-62011278D02*
X68848838Y-61973183D01*
X68848838Y-61973183D02*
X69039314Y-61973183D01*
X69039314Y-61973183D02*
X69115504Y-62011278D01*
X69115504Y-62011278D02*
X69153600Y-62049373D01*
X69153600Y-62049373D02*
X69191695Y-62125564D01*
X69191695Y-62125564D02*
X69191695Y-62316040D01*
X69191695Y-62316040D02*
X69153600Y-62392230D01*
X69153600Y-62392230D02*
X69115504Y-62430326D01*
X125741028Y-70839850D02*
X126217219Y-70839850D01*
X125217219Y-71173183D02*
X125741028Y-70839850D01*
X125741028Y-70839850D02*
X125217219Y-70506517D01*
X126217219Y-69649374D02*
X126217219Y-70220802D01*
X126217219Y-69935088D02*
X125217219Y-69935088D01*
X125217219Y-69935088D02*
X125360076Y-70030326D01*
X125360076Y-70030326D02*
X125455314Y-70125564D01*
X125455314Y-70125564D02*
X125502933Y-70220802D01*
X125836266Y-69220802D02*
X125836266Y-68458898D01*
X126169600Y-68030326D02*
X126217219Y-67887469D01*
X126217219Y-67887469D02*
X126217219Y-67649374D01*
X126217219Y-67649374D02*
X126169600Y-67554136D01*
X126169600Y-67554136D02*
X126121980Y-67506517D01*
X126121980Y-67506517D02*
X126026742Y-67458898D01*
X126026742Y-67458898D02*
X125931504Y-67458898D01*
X125931504Y-67458898D02*
X125836266Y-67506517D01*
X125836266Y-67506517D02*
X125788647Y-67554136D01*
X125788647Y-67554136D02*
X125741028Y-67649374D01*
X125741028Y-67649374D02*
X125693409Y-67839850D01*
X125693409Y-67839850D02*
X125645790Y-67935088D01*
X125645790Y-67935088D02*
X125598171Y-67982707D01*
X125598171Y-67982707D02*
X125502933Y-68030326D01*
X125502933Y-68030326D02*
X125407695Y-68030326D01*
X125407695Y-68030326D02*
X125312457Y-67982707D01*
X125312457Y-67982707D02*
X125264838Y-67935088D01*
X125264838Y-67935088D02*
X125217219Y-67839850D01*
X125217219Y-67839850D02*
X125217219Y-67601755D01*
X125217219Y-67601755D02*
X125264838Y-67458898D01*
X125217219Y-67173183D02*
X125217219Y-66601755D01*
X126217219Y-66887469D02*
X125217219Y-66887469D01*
X126217219Y-66268421D02*
X125217219Y-66268421D01*
X125217219Y-66268421D02*
X125217219Y-65887469D01*
X125217219Y-65887469D02*
X125264838Y-65792231D01*
X125264838Y-65792231D02*
X125312457Y-65744612D01*
X125312457Y-65744612D02*
X125407695Y-65696993D01*
X125407695Y-65696993D02*
X125550552Y-65696993D01*
X125550552Y-65696993D02*
X125645790Y-65744612D01*
X125645790Y-65744612D02*
X125693409Y-65792231D01*
X125693409Y-65792231D02*
X125741028Y-65887469D01*
X125741028Y-65887469D02*
X125741028Y-66268421D01*
X77282076Y-67812880D02*
X77282076Y-67431927D01*
X77510648Y-67889070D02*
X76710648Y-67622403D01*
X76710648Y-67622403D02*
X77510648Y-67355737D01*
X145914838Y-75056517D02*
X145867219Y-75151755D01*
X145867219Y-75151755D02*
X145867219Y-75294612D01*
X145867219Y-75294612D02*
X145914838Y-75437469D01*
X145914838Y-75437469D02*
X146010076Y-75532707D01*
X146010076Y-75532707D02*
X146105314Y-75580326D01*
X146105314Y-75580326D02*
X146295790Y-75627945D01*
X146295790Y-75627945D02*
X146438647Y-75627945D01*
X146438647Y-75627945D02*
X146629123Y-75580326D01*
X146629123Y-75580326D02*
X146724361Y-75532707D01*
X146724361Y-75532707D02*
X146819600Y-75437469D01*
X146819600Y-75437469D02*
X146867219Y-75294612D01*
X146867219Y-75294612D02*
X146867219Y-75199374D01*
X146867219Y-75199374D02*
X146819600Y-75056517D01*
X146819600Y-75056517D02*
X146771980Y-75008898D01*
X146771980Y-75008898D02*
X146438647Y-75008898D01*
X146438647Y-75008898D02*
X146438647Y-75199374D01*
X120491028Y-70489850D02*
X120967219Y-70489850D01*
X119967219Y-70823183D02*
X120491028Y-70489850D01*
X120491028Y-70489850D02*
X119967219Y-70156517D01*
X120967219Y-69299374D02*
X120967219Y-69870802D01*
X120967219Y-69585088D02*
X119967219Y-69585088D01*
X119967219Y-69585088D02*
X120110076Y-69680326D01*
X120110076Y-69680326D02*
X120205314Y-69775564D01*
X120205314Y-69775564D02*
X120252933Y-69870802D01*
X120586266Y-68870802D02*
X120586266Y-68108898D01*
X120967219Y-67632707D02*
X119967219Y-67632707D01*
X119967219Y-67632707D02*
X119967219Y-67394612D01*
X119967219Y-67394612D02*
X120014838Y-67251755D01*
X120014838Y-67251755D02*
X120110076Y-67156517D01*
X120110076Y-67156517D02*
X120205314Y-67108898D01*
X120205314Y-67108898D02*
X120395790Y-67061279D01*
X120395790Y-67061279D02*
X120538647Y-67061279D01*
X120538647Y-67061279D02*
X120729123Y-67108898D01*
X120729123Y-67108898D02*
X120824361Y-67156517D01*
X120824361Y-67156517D02*
X120919600Y-67251755D01*
X120919600Y-67251755D02*
X120967219Y-67394612D01*
X120967219Y-67394612D02*
X120967219Y-67632707D01*
X120967219Y-66632707D02*
X119967219Y-66632707D01*
X120967219Y-65585089D02*
X120491028Y-65918422D01*
X120967219Y-66156517D02*
X119967219Y-66156517D01*
X119967219Y-66156517D02*
X119967219Y-65775565D01*
X119967219Y-65775565D02*
X120014838Y-65680327D01*
X120014838Y-65680327D02*
X120062457Y-65632708D01*
X120062457Y-65632708D02*
X120157695Y-65585089D01*
X120157695Y-65585089D02*
X120300552Y-65585089D01*
X120300552Y-65585089D02*
X120395790Y-65632708D01*
X120395790Y-65632708D02*
X120443409Y-65680327D01*
X120443409Y-65680327D02*
X120491028Y-65775565D01*
X120491028Y-65775565D02*
X120491028Y-66156517D01*
X89901017Y-70413778D02*
X90377208Y-70413778D01*
X89377208Y-70747111D02*
X89901017Y-70413778D01*
X89901017Y-70413778D02*
X89377208Y-70080445D01*
X89472446Y-69794730D02*
X89424827Y-69747111D01*
X89424827Y-69747111D02*
X89377208Y-69651873D01*
X89377208Y-69651873D02*
X89377208Y-69413778D01*
X89377208Y-69413778D02*
X89424827Y-69318540D01*
X89424827Y-69318540D02*
X89472446Y-69270921D01*
X89472446Y-69270921D02*
X89567684Y-69223302D01*
X89567684Y-69223302D02*
X89662922Y-69223302D01*
X89662922Y-69223302D02*
X89805779Y-69270921D01*
X89805779Y-69270921D02*
X90377208Y-69842349D01*
X90377208Y-69842349D02*
X90377208Y-69223302D01*
X89996255Y-68794730D02*
X89996255Y-68032826D01*
X90377208Y-67080445D02*
X90377208Y-67556635D01*
X90377208Y-67556635D02*
X89377208Y-67556635D01*
X90377208Y-66747111D02*
X89377208Y-66747111D01*
X90377208Y-66270921D02*
X89377208Y-66270921D01*
X89377208Y-66270921D02*
X90091493Y-65937588D01*
X90091493Y-65937588D02*
X89377208Y-65604255D01*
X89377208Y-65604255D02*
X90377208Y-65604255D01*
X99553643Y-69999887D02*
X99553643Y-69333221D01*
X99553643Y-69333221D02*
X100553643Y-69999887D01*
X100553643Y-69999887D02*
X100553643Y-69333221D01*
X100172690Y-68952268D02*
X100172690Y-68190364D01*
X100553643Y-67714173D02*
X99553643Y-67714173D01*
X99553643Y-67714173D02*
X99553643Y-67476078D01*
X99553643Y-67476078D02*
X99601262Y-67333221D01*
X99601262Y-67333221D02*
X99696500Y-67237983D01*
X99696500Y-67237983D02*
X99791738Y-67190364D01*
X99791738Y-67190364D02*
X99982214Y-67142745D01*
X99982214Y-67142745D02*
X100125071Y-67142745D01*
X100125071Y-67142745D02*
X100315547Y-67190364D01*
X100315547Y-67190364D02*
X100410785Y-67237983D01*
X100410785Y-67237983D02*
X100506024Y-67333221D01*
X100506024Y-67333221D02*
X100553643Y-67476078D01*
X100553643Y-67476078D02*
X100553643Y-67714173D01*
X100553643Y-66714173D02*
X99553643Y-66714173D01*
X100553643Y-65666555D02*
X100077452Y-65999888D01*
X100553643Y-66237983D02*
X99553643Y-66237983D01*
X99553643Y-66237983D02*
X99553643Y-65857031D01*
X99553643Y-65857031D02*
X99601262Y-65761793D01*
X99601262Y-65761793D02*
X99648881Y-65714174D01*
X99648881Y-65714174D02*
X99744119Y-65666555D01*
X99744119Y-65666555D02*
X99886976Y-65666555D01*
X99886976Y-65666555D02*
X99982214Y-65714174D01*
X99982214Y-65714174D02*
X100029833Y-65761793D01*
X100029833Y-65761793D02*
X100077452Y-65857031D01*
X100077452Y-65857031D02*
X100077452Y-66237983D01*
D12*
X91638095Y-81354819D02*
X91638095Y-82164342D01*
X91638095Y-82164342D02*
X91685714Y-82259580D01*
X91685714Y-82259580D02*
X91733333Y-82307200D01*
X91733333Y-82307200D02*
X91828571Y-82354819D01*
X91828571Y-82354819D02*
X92019047Y-82354819D01*
X92019047Y-82354819D02*
X92114285Y-82307200D01*
X92114285Y-82307200D02*
X92161904Y-82259580D01*
X92161904Y-82259580D02*
X92209523Y-82164342D01*
X92209523Y-82164342D02*
X92209523Y-81354819D01*
X93114285Y-81688152D02*
X93114285Y-82354819D01*
X92876190Y-81307200D02*
X92638095Y-82021485D01*
X92638095Y-82021485D02*
X93257142Y-82021485D01*
X97133333Y-98804819D02*
X96800000Y-98328628D01*
X96561905Y-98804819D02*
X96561905Y-97804819D01*
X96561905Y-97804819D02*
X96942857Y-97804819D01*
X96942857Y-97804819D02*
X97038095Y-97852438D01*
X97038095Y-97852438D02*
X97085714Y-97900057D01*
X97085714Y-97900057D02*
X97133333Y-97995295D01*
X97133333Y-97995295D02*
X97133333Y-98138152D01*
X97133333Y-98138152D02*
X97085714Y-98233390D01*
X97085714Y-98233390D02*
X97038095Y-98281009D01*
X97038095Y-98281009D02*
X96942857Y-98328628D01*
X96942857Y-98328628D02*
X96561905Y-98328628D01*
X97514286Y-97900057D02*
X97561905Y-97852438D01*
X97561905Y-97852438D02*
X97657143Y-97804819D01*
X97657143Y-97804819D02*
X97895238Y-97804819D01*
X97895238Y-97804819D02*
X97990476Y-97852438D01*
X97990476Y-97852438D02*
X98038095Y-97900057D01*
X98038095Y-97900057D02*
X98085714Y-97995295D01*
X98085714Y-97995295D02*
X98085714Y-98090533D01*
X98085714Y-98090533D02*
X98038095Y-98233390D01*
X98038095Y-98233390D02*
X97466667Y-98804819D01*
X97466667Y-98804819D02*
X98085714Y-98804819D01*
X91288095Y-103754819D02*
X91288095Y-104564342D01*
X91288095Y-104564342D02*
X91335714Y-104659580D01*
X91335714Y-104659580D02*
X91383333Y-104707200D01*
X91383333Y-104707200D02*
X91478571Y-104754819D01*
X91478571Y-104754819D02*
X91669047Y-104754819D01*
X91669047Y-104754819D02*
X91764285Y-104707200D01*
X91764285Y-104707200D02*
X91811904Y-104659580D01*
X91811904Y-104659580D02*
X91859523Y-104564342D01*
X91859523Y-104564342D02*
X91859523Y-103754819D01*
X92288095Y-103850057D02*
X92335714Y-103802438D01*
X92335714Y-103802438D02*
X92430952Y-103754819D01*
X92430952Y-103754819D02*
X92669047Y-103754819D01*
X92669047Y-103754819D02*
X92764285Y-103802438D01*
X92764285Y-103802438D02*
X92811904Y-103850057D01*
X92811904Y-103850057D02*
X92859523Y-103945295D01*
X92859523Y-103945295D02*
X92859523Y-104040533D01*
X92859523Y-104040533D02*
X92811904Y-104183390D01*
X92811904Y-104183390D02*
X92240476Y-104754819D01*
X92240476Y-104754819D02*
X92859523Y-104754819D01*
X104238095Y-81354819D02*
X104238095Y-82164342D01*
X104238095Y-82164342D02*
X104285714Y-82259580D01*
X104285714Y-82259580D02*
X104333333Y-82307200D01*
X104333333Y-82307200D02*
X104428571Y-82354819D01*
X104428571Y-82354819D02*
X104619047Y-82354819D01*
X104619047Y-82354819D02*
X104714285Y-82307200D01*
X104714285Y-82307200D02*
X104761904Y-82259580D01*
X104761904Y-82259580D02*
X104809523Y-82164342D01*
X104809523Y-82164342D02*
X104809523Y-81354819D01*
X105714285Y-81354819D02*
X105523809Y-81354819D01*
X105523809Y-81354819D02*
X105428571Y-81402438D01*
X105428571Y-81402438D02*
X105380952Y-81450057D01*
X105380952Y-81450057D02*
X105285714Y-81592914D01*
X105285714Y-81592914D02*
X105238095Y-81783390D01*
X105238095Y-81783390D02*
X105238095Y-82164342D01*
X105238095Y-82164342D02*
X105285714Y-82259580D01*
X105285714Y-82259580D02*
X105333333Y-82307200D01*
X105333333Y-82307200D02*
X105428571Y-82354819D01*
X105428571Y-82354819D02*
X105619047Y-82354819D01*
X105619047Y-82354819D02*
X105714285Y-82307200D01*
X105714285Y-82307200D02*
X105761904Y-82259580D01*
X105761904Y-82259580D02*
X105809523Y-82164342D01*
X105809523Y-82164342D02*
X105809523Y-81926247D01*
X105809523Y-81926247D02*
X105761904Y-81831009D01*
X105761904Y-81831009D02*
X105714285Y-81783390D01*
X105714285Y-81783390D02*
X105619047Y-81735771D01*
X105619047Y-81735771D02*
X105428571Y-81735771D01*
X105428571Y-81735771D02*
X105333333Y-81783390D01*
X105333333Y-81783390D02*
X105285714Y-81831009D01*
X105285714Y-81831009D02*
X105238095Y-81926247D01*
X81909580Y-89766666D02*
X81957200Y-89814285D01*
X81957200Y-89814285D02*
X82004819Y-89957142D01*
X82004819Y-89957142D02*
X82004819Y-90052380D01*
X82004819Y-90052380D02*
X81957200Y-90195237D01*
X81957200Y-90195237D02*
X81861961Y-90290475D01*
X81861961Y-90290475D02*
X81766723Y-90338094D01*
X81766723Y-90338094D02*
X81576247Y-90385713D01*
X81576247Y-90385713D02*
X81433390Y-90385713D01*
X81433390Y-90385713D02*
X81242914Y-90338094D01*
X81242914Y-90338094D02*
X81147676Y-90290475D01*
X81147676Y-90290475D02*
X81052438Y-90195237D01*
X81052438Y-90195237D02*
X81004819Y-90052380D01*
X81004819Y-90052380D02*
X81004819Y-89957142D01*
X81004819Y-89957142D02*
X81052438Y-89814285D01*
X81052438Y-89814285D02*
X81100057Y-89766666D01*
X81004819Y-88909523D02*
X81004819Y-89099999D01*
X81004819Y-89099999D02*
X81052438Y-89195237D01*
X81052438Y-89195237D02*
X81100057Y-89242856D01*
X81100057Y-89242856D02*
X81242914Y-89338094D01*
X81242914Y-89338094D02*
X81433390Y-89385713D01*
X81433390Y-89385713D02*
X81814342Y-89385713D01*
X81814342Y-89385713D02*
X81909580Y-89338094D01*
X81909580Y-89338094D02*
X81957200Y-89290475D01*
X81957200Y-89290475D02*
X82004819Y-89195237D01*
X82004819Y-89195237D02*
X82004819Y-89004761D01*
X82004819Y-89004761D02*
X81957200Y-88909523D01*
X81957200Y-88909523D02*
X81909580Y-88861904D01*
X81909580Y-88861904D02*
X81814342Y-88814285D01*
X81814342Y-88814285D02*
X81576247Y-88814285D01*
X81576247Y-88814285D02*
X81481009Y-88861904D01*
X81481009Y-88861904D02*
X81433390Y-88909523D01*
X81433390Y-88909523D02*
X81385771Y-89004761D01*
X81385771Y-89004761D02*
X81385771Y-89195237D01*
X81385771Y-89195237D02*
X81433390Y-89290475D01*
X81433390Y-89290475D02*
X81481009Y-89338094D01*
X81481009Y-89338094D02*
X81576247Y-89385713D01*
X96083333Y-91359580D02*
X96035714Y-91407200D01*
X96035714Y-91407200D02*
X95892857Y-91454819D01*
X95892857Y-91454819D02*
X95797619Y-91454819D01*
X95797619Y-91454819D02*
X95654762Y-91407200D01*
X95654762Y-91407200D02*
X95559524Y-91311961D01*
X95559524Y-91311961D02*
X95511905Y-91216723D01*
X95511905Y-91216723D02*
X95464286Y-91026247D01*
X95464286Y-91026247D02*
X95464286Y-90883390D01*
X95464286Y-90883390D02*
X95511905Y-90692914D01*
X95511905Y-90692914D02*
X95559524Y-90597676D01*
X95559524Y-90597676D02*
X95654762Y-90502438D01*
X95654762Y-90502438D02*
X95797619Y-90454819D01*
X95797619Y-90454819D02*
X95892857Y-90454819D01*
X95892857Y-90454819D02*
X96035714Y-90502438D01*
X96035714Y-90502438D02*
X96083333Y-90550057D01*
X96416667Y-90454819D02*
X97035714Y-90454819D01*
X97035714Y-90454819D02*
X96702381Y-90835771D01*
X96702381Y-90835771D02*
X96845238Y-90835771D01*
X96845238Y-90835771D02*
X96940476Y-90883390D01*
X96940476Y-90883390D02*
X96988095Y-90931009D01*
X96988095Y-90931009D02*
X97035714Y-91026247D01*
X97035714Y-91026247D02*
X97035714Y-91264342D01*
X97035714Y-91264342D02*
X96988095Y-91359580D01*
X96988095Y-91359580D02*
X96940476Y-91407200D01*
X96940476Y-91407200D02*
X96845238Y-91454819D01*
X96845238Y-91454819D02*
X96559524Y-91454819D01*
X96559524Y-91454819D02*
X96464286Y-91407200D01*
X96464286Y-91407200D02*
X96416667Y-91359580D01*
X87108333Y-108129819D02*
X86632143Y-108129819D01*
X86632143Y-108129819D02*
X86632143Y-107129819D01*
X87965476Y-108129819D02*
X87394048Y-108129819D01*
X87679762Y-108129819D02*
X87679762Y-107129819D01*
X87679762Y-107129819D02*
X87584524Y-107272676D01*
X87584524Y-107272676D02*
X87489286Y-107367914D01*
X87489286Y-107367914D02*
X87394048Y-107415533D01*
X131433333Y-106059580D02*
X131385714Y-106107200D01*
X131385714Y-106107200D02*
X131242857Y-106154819D01*
X131242857Y-106154819D02*
X131147619Y-106154819D01*
X131147619Y-106154819D02*
X131004762Y-106107200D01*
X131004762Y-106107200D02*
X130909524Y-106011961D01*
X130909524Y-106011961D02*
X130861905Y-105916723D01*
X130861905Y-105916723D02*
X130814286Y-105726247D01*
X130814286Y-105726247D02*
X130814286Y-105583390D01*
X130814286Y-105583390D02*
X130861905Y-105392914D01*
X130861905Y-105392914D02*
X130909524Y-105297676D01*
X130909524Y-105297676D02*
X131004762Y-105202438D01*
X131004762Y-105202438D02*
X131147619Y-105154819D01*
X131147619Y-105154819D02*
X131242857Y-105154819D01*
X131242857Y-105154819D02*
X131385714Y-105202438D01*
X131385714Y-105202438D02*
X131433333Y-105250057D01*
X132385714Y-106154819D02*
X131814286Y-106154819D01*
X132100000Y-106154819D02*
X132100000Y-105154819D01*
X132100000Y-105154819D02*
X132004762Y-105297676D01*
X132004762Y-105297676D02*
X131909524Y-105392914D01*
X131909524Y-105392914D02*
X131814286Y-105440533D01*
X72983333Y-63724819D02*
X72650000Y-63248628D01*
X72411905Y-63724819D02*
X72411905Y-62724819D01*
X72411905Y-62724819D02*
X72792857Y-62724819D01*
X72792857Y-62724819D02*
X72888095Y-62772438D01*
X72888095Y-62772438D02*
X72935714Y-62820057D01*
X72935714Y-62820057D02*
X72983333Y-62915295D01*
X72983333Y-62915295D02*
X72983333Y-63058152D01*
X72983333Y-63058152D02*
X72935714Y-63153390D01*
X72935714Y-63153390D02*
X72888095Y-63201009D01*
X72888095Y-63201009D02*
X72792857Y-63248628D01*
X72792857Y-63248628D02*
X72411905Y-63248628D01*
X73840476Y-62724819D02*
X73650000Y-62724819D01*
X73650000Y-62724819D02*
X73554762Y-62772438D01*
X73554762Y-62772438D02*
X73507143Y-62820057D01*
X73507143Y-62820057D02*
X73411905Y-62962914D01*
X73411905Y-62962914D02*
X73364286Y-63153390D01*
X73364286Y-63153390D02*
X73364286Y-63534342D01*
X73364286Y-63534342D02*
X73411905Y-63629580D01*
X73411905Y-63629580D02*
X73459524Y-63677200D01*
X73459524Y-63677200D02*
X73554762Y-63724819D01*
X73554762Y-63724819D02*
X73745238Y-63724819D01*
X73745238Y-63724819D02*
X73840476Y-63677200D01*
X73840476Y-63677200D02*
X73888095Y-63629580D01*
X73888095Y-63629580D02*
X73935714Y-63534342D01*
X73935714Y-63534342D02*
X73935714Y-63296247D01*
X73935714Y-63296247D02*
X73888095Y-63201009D01*
X73888095Y-63201009D02*
X73840476Y-63153390D01*
X73840476Y-63153390D02*
X73745238Y-63105771D01*
X73745238Y-63105771D02*
X73554762Y-63105771D01*
X73554762Y-63105771D02*
X73459524Y-63153390D01*
X73459524Y-63153390D02*
X73411905Y-63201009D01*
X73411905Y-63201009D02*
X73364286Y-63296247D01*
X97133333Y-111054819D02*
X96800000Y-110578628D01*
X96561905Y-111054819D02*
X96561905Y-110054819D01*
X96561905Y-110054819D02*
X96942857Y-110054819D01*
X96942857Y-110054819D02*
X97038095Y-110102438D01*
X97038095Y-110102438D02*
X97085714Y-110150057D01*
X97085714Y-110150057D02*
X97133333Y-110245295D01*
X97133333Y-110245295D02*
X97133333Y-110388152D01*
X97133333Y-110388152D02*
X97085714Y-110483390D01*
X97085714Y-110483390D02*
X97038095Y-110531009D01*
X97038095Y-110531009D02*
X96942857Y-110578628D01*
X96942857Y-110578628D02*
X96561905Y-110578628D01*
X98085714Y-111054819D02*
X97514286Y-111054819D01*
X97800000Y-111054819D02*
X97800000Y-110054819D01*
X97800000Y-110054819D02*
X97704762Y-110197676D01*
X97704762Y-110197676D02*
X97609524Y-110292914D01*
X97609524Y-110292914D02*
X97514286Y-110340533D01*
X83759524Y-99062295D02*
X83759524Y-98262295D01*
X83759524Y-98262295D02*
X83950000Y-98262295D01*
X83950000Y-98262295D02*
X84064286Y-98300390D01*
X84064286Y-98300390D02*
X84140476Y-98376580D01*
X84140476Y-98376580D02*
X84178571Y-98452771D01*
X84178571Y-98452771D02*
X84216667Y-98605152D01*
X84216667Y-98605152D02*
X84216667Y-98719438D01*
X84216667Y-98719438D02*
X84178571Y-98871819D01*
X84178571Y-98871819D02*
X84140476Y-98948009D01*
X84140476Y-98948009D02*
X84064286Y-99024200D01*
X84064286Y-99024200D02*
X83950000Y-99062295D01*
X83950000Y-99062295D02*
X83759524Y-99062295D01*
X84521428Y-98338485D02*
X84559524Y-98300390D01*
X84559524Y-98300390D02*
X84635714Y-98262295D01*
X84635714Y-98262295D02*
X84826190Y-98262295D01*
X84826190Y-98262295D02*
X84902381Y-98300390D01*
X84902381Y-98300390D02*
X84940476Y-98338485D01*
X84940476Y-98338485D02*
X84978571Y-98414676D01*
X84978571Y-98414676D02*
X84978571Y-98490866D01*
X84978571Y-98490866D02*
X84940476Y-98605152D01*
X84940476Y-98605152D02*
X84483333Y-99062295D01*
X84483333Y-99062295D02*
X84978571Y-99062295D01*
X79983333Y-79554819D02*
X79650000Y-79078628D01*
X79411905Y-79554819D02*
X79411905Y-78554819D01*
X79411905Y-78554819D02*
X79792857Y-78554819D01*
X79792857Y-78554819D02*
X79888095Y-78602438D01*
X79888095Y-78602438D02*
X79935714Y-78650057D01*
X79935714Y-78650057D02*
X79983333Y-78745295D01*
X79983333Y-78745295D02*
X79983333Y-78888152D01*
X79983333Y-78888152D02*
X79935714Y-78983390D01*
X79935714Y-78983390D02*
X79888095Y-79031009D01*
X79888095Y-79031009D02*
X79792857Y-79078628D01*
X79792857Y-79078628D02*
X79411905Y-79078628D01*
X80316667Y-78554819D02*
X80935714Y-78554819D01*
X80935714Y-78554819D02*
X80602381Y-78935771D01*
X80602381Y-78935771D02*
X80745238Y-78935771D01*
X80745238Y-78935771D02*
X80840476Y-78983390D01*
X80840476Y-78983390D02*
X80888095Y-79031009D01*
X80888095Y-79031009D02*
X80935714Y-79126247D01*
X80935714Y-79126247D02*
X80935714Y-79364342D01*
X80935714Y-79364342D02*
X80888095Y-79459580D01*
X80888095Y-79459580D02*
X80840476Y-79507200D01*
X80840476Y-79507200D02*
X80745238Y-79554819D01*
X80745238Y-79554819D02*
X80459524Y-79554819D01*
X80459524Y-79554819D02*
X80364286Y-79507200D01*
X80364286Y-79507200D02*
X80316667Y-79459580D01*
X97938095Y-81354819D02*
X97938095Y-82164342D01*
X97938095Y-82164342D02*
X97985714Y-82259580D01*
X97985714Y-82259580D02*
X98033333Y-82307200D01*
X98033333Y-82307200D02*
X98128571Y-82354819D01*
X98128571Y-82354819D02*
X98319047Y-82354819D01*
X98319047Y-82354819D02*
X98414285Y-82307200D01*
X98414285Y-82307200D02*
X98461904Y-82259580D01*
X98461904Y-82259580D02*
X98509523Y-82164342D01*
X98509523Y-82164342D02*
X98509523Y-81354819D01*
X99461904Y-81354819D02*
X98985714Y-81354819D01*
X98985714Y-81354819D02*
X98938095Y-81831009D01*
X98938095Y-81831009D02*
X98985714Y-81783390D01*
X98985714Y-81783390D02*
X99080952Y-81735771D01*
X99080952Y-81735771D02*
X99319047Y-81735771D01*
X99319047Y-81735771D02*
X99414285Y-81783390D01*
X99414285Y-81783390D02*
X99461904Y-81831009D01*
X99461904Y-81831009D02*
X99509523Y-81926247D01*
X99509523Y-81926247D02*
X99509523Y-82164342D01*
X99509523Y-82164342D02*
X99461904Y-82259580D01*
X99461904Y-82259580D02*
X99414285Y-82307200D01*
X99414285Y-82307200D02*
X99319047Y-82354819D01*
X99319047Y-82354819D02*
X99080952Y-82354819D01*
X99080952Y-82354819D02*
X98985714Y-82307200D01*
X98985714Y-82307200D02*
X98938095Y-82259580D01*
D11*
X146149838Y-99588095D02*
X146102219Y-99683333D01*
X146102219Y-99683333D02*
X146102219Y-99826190D01*
X146102219Y-99826190D02*
X146149838Y-99969047D01*
X146149838Y-99969047D02*
X146245076Y-100064285D01*
X146245076Y-100064285D02*
X146340314Y-100111904D01*
X146340314Y-100111904D02*
X146530790Y-100159523D01*
X146530790Y-100159523D02*
X146673647Y-100159523D01*
X146673647Y-100159523D02*
X146864123Y-100111904D01*
X146864123Y-100111904D02*
X146959361Y-100064285D01*
X146959361Y-100064285D02*
X147054600Y-99969047D01*
X147054600Y-99969047D02*
X147102219Y-99826190D01*
X147102219Y-99826190D02*
X147102219Y-99730952D01*
X147102219Y-99730952D02*
X147054600Y-99588095D01*
X147054600Y-99588095D02*
X147006980Y-99540476D01*
X147006980Y-99540476D02*
X146673647Y-99540476D01*
X146673647Y-99540476D02*
X146673647Y-99730952D01*
X147102219Y-99111904D02*
X146102219Y-99111904D01*
X146102219Y-99111904D02*
X147102219Y-98540476D01*
X147102219Y-98540476D02*
X146102219Y-98540476D01*
X147102219Y-98064285D02*
X146102219Y-98064285D01*
X146102219Y-98064285D02*
X146102219Y-97826190D01*
X146102219Y-97826190D02*
X146149838Y-97683333D01*
X146149838Y-97683333D02*
X146245076Y-97588095D01*
X146245076Y-97588095D02*
X146340314Y-97540476D01*
X146340314Y-97540476D02*
X146530790Y-97492857D01*
X146530790Y-97492857D02*
X146673647Y-97492857D01*
X146673647Y-97492857D02*
X146864123Y-97540476D01*
X146864123Y-97540476D02*
X146959361Y-97588095D01*
X146959361Y-97588095D02*
X147054600Y-97683333D01*
X147054600Y-97683333D02*
X147102219Y-97826190D01*
X147102219Y-97826190D02*
X147102219Y-98064285D01*
X147102219Y-96540476D02*
X147102219Y-97111904D01*
X147102219Y-96826190D02*
X146102219Y-96826190D01*
X146102219Y-96826190D02*
X146245076Y-96921428D01*
X146245076Y-96921428D02*
X146340314Y-97016666D01*
X146340314Y-97016666D02*
X146387933Y-97111904D01*
D12*
X85933333Y-103159580D02*
X85885714Y-103207200D01*
X85885714Y-103207200D02*
X85742857Y-103254819D01*
X85742857Y-103254819D02*
X85647619Y-103254819D01*
X85647619Y-103254819D02*
X85504762Y-103207200D01*
X85504762Y-103207200D02*
X85409524Y-103111961D01*
X85409524Y-103111961D02*
X85361905Y-103016723D01*
X85361905Y-103016723D02*
X85314286Y-102826247D01*
X85314286Y-102826247D02*
X85314286Y-102683390D01*
X85314286Y-102683390D02*
X85361905Y-102492914D01*
X85361905Y-102492914D02*
X85409524Y-102397676D01*
X85409524Y-102397676D02*
X85504762Y-102302438D01*
X85504762Y-102302438D02*
X85647619Y-102254819D01*
X85647619Y-102254819D02*
X85742857Y-102254819D01*
X85742857Y-102254819D02*
X85885714Y-102302438D01*
X85885714Y-102302438D02*
X85933333Y-102350057D01*
X86790476Y-102588152D02*
X86790476Y-103254819D01*
X86552381Y-102207200D02*
X86314286Y-102921485D01*
X86314286Y-102921485D02*
X86933333Y-102921485D01*
X68809523Y-116897319D02*
X68238095Y-116897319D01*
X68523809Y-116897319D02*
X68523809Y-115897319D01*
X68523809Y-115897319D02*
X68428571Y-116040176D01*
X68428571Y-116040176D02*
X68333333Y-116135414D01*
X68333333Y-116135414D02*
X68238095Y-116183033D01*
X69190476Y-115992557D02*
X69238095Y-115944938D01*
X69238095Y-115944938D02*
X69333333Y-115897319D01*
X69333333Y-115897319D02*
X69571428Y-115897319D01*
X69571428Y-115897319D02*
X69666666Y-115944938D01*
X69666666Y-115944938D02*
X69714285Y-115992557D01*
X69714285Y-115992557D02*
X69761904Y-116087795D01*
X69761904Y-116087795D02*
X69761904Y-116183033D01*
X69761904Y-116183033D02*
X69714285Y-116325890D01*
X69714285Y-116325890D02*
X69142857Y-116897319D01*
X69142857Y-116897319D02*
X69761904Y-116897319D01*
X70190476Y-116516366D02*
X70952381Y-116516366D01*
X71333333Y-115897319D02*
X71952380Y-115897319D01*
X71952380Y-115897319D02*
X71619047Y-116278271D01*
X71619047Y-116278271D02*
X71761904Y-116278271D01*
X71761904Y-116278271D02*
X71857142Y-116325890D01*
X71857142Y-116325890D02*
X71904761Y-116373509D01*
X71904761Y-116373509D02*
X71952380Y-116468747D01*
X71952380Y-116468747D02*
X71952380Y-116706842D01*
X71952380Y-116706842D02*
X71904761Y-116802080D01*
X71904761Y-116802080D02*
X71857142Y-116849700D01*
X71857142Y-116849700D02*
X71761904Y-116897319D01*
X71761904Y-116897319D02*
X71476190Y-116897319D01*
X71476190Y-116897319D02*
X71380952Y-116849700D01*
X71380952Y-116849700D02*
X71333333Y-116802080D01*
X72809523Y-115897319D02*
X72619047Y-115897319D01*
X72619047Y-115897319D02*
X72523809Y-115944938D01*
X72523809Y-115944938D02*
X72476190Y-115992557D01*
X72476190Y-115992557D02*
X72380952Y-116135414D01*
X72380952Y-116135414D02*
X72333333Y-116325890D01*
X72333333Y-116325890D02*
X72333333Y-116706842D01*
X72333333Y-116706842D02*
X72380952Y-116802080D01*
X72380952Y-116802080D02*
X72428571Y-116849700D01*
X72428571Y-116849700D02*
X72523809Y-116897319D01*
X72523809Y-116897319D02*
X72714285Y-116897319D01*
X72714285Y-116897319D02*
X72809523Y-116849700D01*
X72809523Y-116849700D02*
X72857142Y-116802080D01*
X72857142Y-116802080D02*
X72904761Y-116706842D01*
X72904761Y-116706842D02*
X72904761Y-116468747D01*
X72904761Y-116468747D02*
X72857142Y-116373509D01*
X72857142Y-116373509D02*
X72809523Y-116325890D01*
X72809523Y-116325890D02*
X72714285Y-116278271D01*
X72714285Y-116278271D02*
X72523809Y-116278271D01*
X72523809Y-116278271D02*
X72428571Y-116325890D01*
X72428571Y-116325890D02*
X72380952Y-116373509D01*
X72380952Y-116373509D02*
X72333333Y-116468747D01*
X73190476Y-115897319D02*
X73523809Y-116897319D01*
X73523809Y-116897319D02*
X73857142Y-115897319D01*
X79983333Y-72904819D02*
X79650000Y-72428628D01*
X79411905Y-72904819D02*
X79411905Y-71904819D01*
X79411905Y-71904819D02*
X79792857Y-71904819D01*
X79792857Y-71904819D02*
X79888095Y-71952438D01*
X79888095Y-71952438D02*
X79935714Y-72000057D01*
X79935714Y-72000057D02*
X79983333Y-72095295D01*
X79983333Y-72095295D02*
X79983333Y-72238152D01*
X79983333Y-72238152D02*
X79935714Y-72333390D01*
X79935714Y-72333390D02*
X79888095Y-72381009D01*
X79888095Y-72381009D02*
X79792857Y-72428628D01*
X79792857Y-72428628D02*
X79411905Y-72428628D01*
X80888095Y-71904819D02*
X80411905Y-71904819D01*
X80411905Y-71904819D02*
X80364286Y-72381009D01*
X80364286Y-72381009D02*
X80411905Y-72333390D01*
X80411905Y-72333390D02*
X80507143Y-72285771D01*
X80507143Y-72285771D02*
X80745238Y-72285771D01*
X80745238Y-72285771D02*
X80840476Y-72333390D01*
X80840476Y-72333390D02*
X80888095Y-72381009D01*
X80888095Y-72381009D02*
X80935714Y-72476247D01*
X80935714Y-72476247D02*
X80935714Y-72714342D01*
X80935714Y-72714342D02*
X80888095Y-72809580D01*
X80888095Y-72809580D02*
X80840476Y-72857200D01*
X80840476Y-72857200D02*
X80745238Y-72904819D01*
X80745238Y-72904819D02*
X80507143Y-72904819D01*
X80507143Y-72904819D02*
X80411905Y-72857200D01*
X80411905Y-72857200D02*
X80364286Y-72809580D01*
X83938095Y-88604819D02*
X83938095Y-89414342D01*
X83938095Y-89414342D02*
X83985714Y-89509580D01*
X83985714Y-89509580D02*
X84033333Y-89557200D01*
X84033333Y-89557200D02*
X84128571Y-89604819D01*
X84128571Y-89604819D02*
X84319047Y-89604819D01*
X84319047Y-89604819D02*
X84414285Y-89557200D01*
X84414285Y-89557200D02*
X84461904Y-89509580D01*
X84461904Y-89509580D02*
X84509523Y-89414342D01*
X84509523Y-89414342D02*
X84509523Y-88604819D01*
X85128571Y-89033390D02*
X85033333Y-88985771D01*
X85033333Y-88985771D02*
X84985714Y-88938152D01*
X84985714Y-88938152D02*
X84938095Y-88842914D01*
X84938095Y-88842914D02*
X84938095Y-88795295D01*
X84938095Y-88795295D02*
X84985714Y-88700057D01*
X84985714Y-88700057D02*
X85033333Y-88652438D01*
X85033333Y-88652438D02*
X85128571Y-88604819D01*
X85128571Y-88604819D02*
X85319047Y-88604819D01*
X85319047Y-88604819D02*
X85414285Y-88652438D01*
X85414285Y-88652438D02*
X85461904Y-88700057D01*
X85461904Y-88700057D02*
X85509523Y-88795295D01*
X85509523Y-88795295D02*
X85509523Y-88842914D01*
X85509523Y-88842914D02*
X85461904Y-88938152D01*
X85461904Y-88938152D02*
X85414285Y-88985771D01*
X85414285Y-88985771D02*
X85319047Y-89033390D01*
X85319047Y-89033390D02*
X85128571Y-89033390D01*
X85128571Y-89033390D02*
X85033333Y-89081009D01*
X85033333Y-89081009D02*
X84985714Y-89128628D01*
X84985714Y-89128628D02*
X84938095Y-89223866D01*
X84938095Y-89223866D02*
X84938095Y-89414342D01*
X84938095Y-89414342D02*
X84985714Y-89509580D01*
X84985714Y-89509580D02*
X85033333Y-89557200D01*
X85033333Y-89557200D02*
X85128571Y-89604819D01*
X85128571Y-89604819D02*
X85319047Y-89604819D01*
X85319047Y-89604819D02*
X85414285Y-89557200D01*
X85414285Y-89557200D02*
X85461904Y-89509580D01*
X85461904Y-89509580D02*
X85509523Y-89414342D01*
X85509523Y-89414342D02*
X85509523Y-89223866D01*
X85509523Y-89223866D02*
X85461904Y-89128628D01*
X85461904Y-89128628D02*
X85414285Y-89081009D01*
X85414285Y-89081009D02*
X85319047Y-89033390D01*
X84988095Y-81354819D02*
X84988095Y-82164342D01*
X84988095Y-82164342D02*
X85035714Y-82259580D01*
X85035714Y-82259580D02*
X85083333Y-82307200D01*
X85083333Y-82307200D02*
X85178571Y-82354819D01*
X85178571Y-82354819D02*
X85369047Y-82354819D01*
X85369047Y-82354819D02*
X85464285Y-82307200D01*
X85464285Y-82307200D02*
X85511904Y-82259580D01*
X85511904Y-82259580D02*
X85559523Y-82164342D01*
X85559523Y-82164342D02*
X85559523Y-81354819D01*
X85940476Y-81354819D02*
X86559523Y-81354819D01*
X86559523Y-81354819D02*
X86226190Y-81735771D01*
X86226190Y-81735771D02*
X86369047Y-81735771D01*
X86369047Y-81735771D02*
X86464285Y-81783390D01*
X86464285Y-81783390D02*
X86511904Y-81831009D01*
X86511904Y-81831009D02*
X86559523Y-81926247D01*
X86559523Y-81926247D02*
X86559523Y-82164342D01*
X86559523Y-82164342D02*
X86511904Y-82259580D01*
X86511904Y-82259580D02*
X86464285Y-82307200D01*
X86464285Y-82307200D02*
X86369047Y-82354819D01*
X86369047Y-82354819D02*
X86083333Y-82354819D01*
X86083333Y-82354819D02*
X85988095Y-82307200D01*
X85988095Y-82307200D02*
X85940476Y-82259580D01*
X103083333Y-115159580D02*
X103035714Y-115207200D01*
X103035714Y-115207200D02*
X102892857Y-115254819D01*
X102892857Y-115254819D02*
X102797619Y-115254819D01*
X102797619Y-115254819D02*
X102654762Y-115207200D01*
X102654762Y-115207200D02*
X102559524Y-115111961D01*
X102559524Y-115111961D02*
X102511905Y-115016723D01*
X102511905Y-115016723D02*
X102464286Y-114826247D01*
X102464286Y-114826247D02*
X102464286Y-114683390D01*
X102464286Y-114683390D02*
X102511905Y-114492914D01*
X102511905Y-114492914D02*
X102559524Y-114397676D01*
X102559524Y-114397676D02*
X102654762Y-114302438D01*
X102654762Y-114302438D02*
X102797619Y-114254819D01*
X102797619Y-114254819D02*
X102892857Y-114254819D01*
X102892857Y-114254819D02*
X103035714Y-114302438D01*
X103035714Y-114302438D02*
X103083333Y-114350057D01*
X103988095Y-114254819D02*
X103511905Y-114254819D01*
X103511905Y-114254819D02*
X103464286Y-114731009D01*
X103464286Y-114731009D02*
X103511905Y-114683390D01*
X103511905Y-114683390D02*
X103607143Y-114635771D01*
X103607143Y-114635771D02*
X103845238Y-114635771D01*
X103845238Y-114635771D02*
X103940476Y-114683390D01*
X103940476Y-114683390D02*
X103988095Y-114731009D01*
X103988095Y-114731009D02*
X104035714Y-114826247D01*
X104035714Y-114826247D02*
X104035714Y-115064342D01*
X104035714Y-115064342D02*
X103988095Y-115159580D01*
X103988095Y-115159580D02*
X103940476Y-115207200D01*
X103940476Y-115207200D02*
X103845238Y-115254819D01*
X103845238Y-115254819D02*
X103607143Y-115254819D01*
X103607143Y-115254819D02*
X103511905Y-115207200D01*
X103511905Y-115207200D02*
X103464286Y-115159580D01*
X96083333Y-93809580D02*
X96035714Y-93857200D01*
X96035714Y-93857200D02*
X95892857Y-93904819D01*
X95892857Y-93904819D02*
X95797619Y-93904819D01*
X95797619Y-93904819D02*
X95654762Y-93857200D01*
X95654762Y-93857200D02*
X95559524Y-93761961D01*
X95559524Y-93761961D02*
X95511905Y-93666723D01*
X95511905Y-93666723D02*
X95464286Y-93476247D01*
X95464286Y-93476247D02*
X95464286Y-93333390D01*
X95464286Y-93333390D02*
X95511905Y-93142914D01*
X95511905Y-93142914D02*
X95559524Y-93047676D01*
X95559524Y-93047676D02*
X95654762Y-92952438D01*
X95654762Y-92952438D02*
X95797619Y-92904819D01*
X95797619Y-92904819D02*
X95892857Y-92904819D01*
X95892857Y-92904819D02*
X96035714Y-92952438D01*
X96035714Y-92952438D02*
X96083333Y-93000057D01*
X96464286Y-93000057D02*
X96511905Y-92952438D01*
X96511905Y-92952438D02*
X96607143Y-92904819D01*
X96607143Y-92904819D02*
X96845238Y-92904819D01*
X96845238Y-92904819D02*
X96940476Y-92952438D01*
X96940476Y-92952438D02*
X96988095Y-93000057D01*
X96988095Y-93000057D02*
X97035714Y-93095295D01*
X97035714Y-93095295D02*
X97035714Y-93190533D01*
X97035714Y-93190533D02*
X96988095Y-93333390D01*
X96988095Y-93333390D02*
X96416667Y-93904819D01*
X96416667Y-93904819D02*
X97035714Y-93904819D01*
X99338095Y-129304819D02*
X99338095Y-130114342D01*
X99338095Y-130114342D02*
X99385714Y-130209580D01*
X99385714Y-130209580D02*
X99433333Y-130257200D01*
X99433333Y-130257200D02*
X99528571Y-130304819D01*
X99528571Y-130304819D02*
X99719047Y-130304819D01*
X99719047Y-130304819D02*
X99814285Y-130257200D01*
X99814285Y-130257200D02*
X99861904Y-130209580D01*
X99861904Y-130209580D02*
X99909523Y-130114342D01*
X99909523Y-130114342D02*
X99909523Y-129304819D01*
X100290476Y-129304819D02*
X100957142Y-129304819D01*
X100957142Y-129304819D02*
X100528571Y-130304819D01*
D13*
%TO.C,U4*%
X87705000Y-73305000D02*
X87705000Y-78605000D01*
X87705000Y-78605000D02*
X92905000Y-78605000D01*
X92905000Y-73305000D02*
X87705000Y-73305000D01*
X92905000Y-74955000D02*
X92905000Y-73305000D01*
X92905000Y-78605000D02*
X92905000Y-76955000D01*
X92905000Y-76955000D02*
G75*
G02*
X92905000Y-74955000I0J1000000D01*
G01*
%TO.C,R2*%
X96365000Y-102227064D02*
X96365000Y-100772936D01*
X98185000Y-102227064D02*
X98185000Y-100772936D01*
D12*
%TO.C,U2*%
X89450000Y-101350000D02*
X89450000Y-97200000D01*
X94600000Y-101350000D02*
X94600000Y-97200000D01*
D13*
X89525000Y-101775000D02*
X89195000Y-102015000D01*
X89195000Y-101535000D01*
X89525000Y-101775000D01*
G36*
X89525000Y-101775000D02*
G01*
X89195000Y-102015000D01*
X89195000Y-101535000D01*
X89525000Y-101775000D01*
G37*
%TO.C,U6*%
X100305000Y-73305000D02*
X100305000Y-78605000D01*
X100305000Y-78605000D02*
X105505000Y-78605000D01*
X105505000Y-73305000D02*
X100305000Y-73305000D01*
X105505000Y-74955000D02*
X105505000Y-73305000D01*
X105505000Y-78605000D02*
X105505000Y-76955000D01*
X105505000Y-76955000D02*
G75*
G02*
X105505000Y-74955000I0J1000000D01*
G01*
%TO.C,C6*%
X78540000Y-90311252D02*
X78540000Y-88888748D01*
X80360000Y-90311252D02*
X80360000Y-88888748D01*
%TO.C,C3*%
X93111252Y-90090000D02*
X91688748Y-90090000D01*
X93111252Y-91910000D02*
X91688748Y-91910000D01*
%TO.C,L1*%
X83575000Y-108425000D02*
X90975000Y-108425000D01*
X83575000Y-110725000D02*
X83575000Y-108425000D01*
X83575000Y-115825000D02*
X83575000Y-113525000D01*
X90975000Y-108425000D02*
X90975000Y-110725000D01*
X90975000Y-113525000D02*
X90975000Y-115825000D01*
X90975000Y-115825000D02*
X83575000Y-115825000D01*
%TO.C,C1*%
X130888748Y-107240000D02*
X132311252Y-107240000D01*
X130888748Y-109060000D02*
X132311252Y-109060000D01*
%TO.C,R6*%
X72422936Y-64190000D02*
X73877064Y-64190000D01*
X72422936Y-66010000D02*
X73877064Y-66010000D01*
%TO.C,R1*%
X96390000Y-107827064D02*
X96390000Y-106372936D01*
X98210000Y-107827064D02*
X98210000Y-106372936D01*
D14*
%TO.C,D2*%
X85690000Y-95750000D02*
X85690000Y-100950000D01*
X88610000Y-95750000D02*
X88610000Y-100950000D01*
D11*
X87250000Y-94350000D02*
G75*
G02*
X87050000Y-94350000I-100000J0D01*
G01*
X87050000Y-94350000D02*
G75*
G02*
X87250000Y-94350000I100000J0D01*
G01*
D13*
%TO.C,R3*%
X77317183Y-78071207D02*
X77317183Y-76617079D01*
X79137183Y-78071207D02*
X79137183Y-76617079D01*
%TO.C,U5*%
X94005000Y-73260000D02*
X94005000Y-78560000D01*
X94005000Y-78560000D02*
X99205000Y-78560000D01*
X99205000Y-73260000D02*
X94005000Y-73260000D01*
X99205000Y-74910000D02*
X99205000Y-73260000D01*
X99205000Y-78560000D02*
X99205000Y-76910000D01*
X99205000Y-76910000D02*
G75*
G02*
X99205000Y-74910000I0J1000000D01*
G01*
%TO.C,GND1*%
X142470000Y-97130000D02*
X142470000Y-84320000D01*
X145230000Y-84320000D02*
X142470000Y-84320000D01*
X145230000Y-97130000D02*
X142470000Y-97130000D01*
X145230000Y-97130000D02*
X145230000Y-84320000D01*
X145230000Y-98400000D02*
X145230000Y-99780000D01*
X145230000Y-99780000D02*
X143850000Y-99780000D01*
D15*
%TO.C,G\u002A\u002A\u002A*%
G36*
X74560000Y-129500000D02*
G01*
X74560000Y-130520000D01*
X74274583Y-130525551D01*
X74154965Y-130526972D01*
X74070420Y-130525617D01*
X74016095Y-130521157D01*
X73987140Y-130513264D01*
X73979379Y-130505551D01*
X73977559Y-130481058D01*
X73976054Y-130420483D01*
X73974880Y-130327743D01*
X73974055Y-130206753D01*
X73973598Y-130061431D01*
X73973525Y-129895693D01*
X73973853Y-129713456D01*
X73974602Y-129518637D01*
X73974795Y-129480000D01*
X73980000Y-128480000D01*
X74270000Y-128480000D01*
X74560000Y-128480000D01*
X74560000Y-129500000D01*
G37*
G36*
X87755000Y-128474773D02*
G01*
X88560000Y-128480000D01*
X88565655Y-128705000D01*
X88571310Y-128930000D01*
X88050655Y-128930000D01*
X87530000Y-128930000D01*
X87530000Y-129100000D01*
X87530000Y-129270000D01*
X87990676Y-129270000D01*
X88451353Y-129270000D01*
X88445676Y-129485000D01*
X88440000Y-129700000D01*
X87985000Y-129705375D01*
X87530000Y-129710750D01*
X87530000Y-129890048D01*
X87530000Y-130069346D01*
X88065000Y-130074673D01*
X88600000Y-130080000D01*
X88600000Y-130300000D01*
X88600000Y-130520000D01*
X87775000Y-130525221D01*
X86950000Y-130530443D01*
X86950000Y-129499994D01*
X86950000Y-128469546D01*
X87755000Y-128474773D01*
G37*
G36*
X73710000Y-128699773D02*
G01*
X73710000Y-128930000D01*
X73190000Y-128930000D01*
X72670000Y-128930000D01*
X72670000Y-129150000D01*
X72670000Y-129370000D01*
X73130655Y-129370000D01*
X73591310Y-129370000D01*
X73585655Y-129595000D01*
X73580000Y-129820000D01*
X73125000Y-129825375D01*
X72670000Y-129830750D01*
X72670000Y-130180375D01*
X72670000Y-130530000D01*
X72389372Y-130530000D01*
X72268188Y-130528911D01*
X72182807Y-130525408D01*
X72129086Y-130519133D01*
X72102879Y-130509729D01*
X72099168Y-130505000D01*
X72097389Y-130480618D01*
X72095922Y-130420151D01*
X72094784Y-130327512D01*
X72093991Y-130206617D01*
X72093559Y-130061377D01*
X72093506Y-129895708D01*
X72093847Y-129713522D01*
X72094601Y-129518734D01*
X72094795Y-129480000D01*
X72100000Y-128480000D01*
X72905000Y-128474773D01*
X73710000Y-128469546D01*
X73710000Y-128699773D01*
G37*
G36*
X69524642Y-129095951D02*
G01*
X69610205Y-129177193D01*
X69697850Y-129260070D01*
X69777161Y-129334752D01*
X69836616Y-129390380D01*
X69953232Y-129498859D01*
X69836616Y-129608781D01*
X69775440Y-129666566D01*
X69695730Y-129742027D01*
X69607929Y-129825272D01*
X69524642Y-129904352D01*
X69329284Y-130090000D01*
X69139642Y-130090000D01*
X69058080Y-130089085D01*
X68994101Y-130086627D01*
X68956400Y-130083054D01*
X68950000Y-130080649D01*
X68963659Y-130064086D01*
X69000870Y-130025847D01*
X69055982Y-129971590D01*
X69123345Y-129906975D01*
X69124743Y-129905649D01*
X69209443Y-129825321D01*
X69298964Y-129740361D01*
X69380728Y-129662709D01*
X69426157Y-129619528D01*
X69552828Y-129499056D01*
X69416414Y-129370367D01*
X69281647Y-129243088D01*
X69173678Y-129140762D01*
X69090074Y-129061039D01*
X69028403Y-129001564D01*
X68986231Y-128959987D01*
X68961127Y-128933954D01*
X68950658Y-128921114D01*
X68950000Y-128919350D01*
X68968549Y-128915329D01*
X69018402Y-128912174D01*
X69090862Y-128910315D01*
X69139642Y-128910000D01*
X69329284Y-128910000D01*
X69524642Y-129095951D01*
G37*
G36*
X70353510Y-129122700D02*
G01*
X70463743Y-129213020D01*
X70564573Y-129295821D01*
X70651605Y-129367479D01*
X70720447Y-129424373D01*
X70766707Y-129462881D01*
X70785481Y-129478895D01*
X70789347Y-129493315D01*
X70775268Y-129517296D01*
X70739855Y-129554314D01*
X70679722Y-129607845D01*
X70591483Y-129681367D01*
X70575481Y-129694442D01*
X70470880Y-129779832D01*
X70356190Y-129873588D01*
X70244735Y-129964812D01*
X70149839Y-130042603D01*
X70142964Y-130048247D01*
X69945929Y-130210000D01*
X69712964Y-130209413D01*
X69480000Y-130208827D01*
X69540873Y-130154413D01*
X69574921Y-130125141D01*
X69634144Y-130075444D01*
X69712711Y-130010163D01*
X69804790Y-129934143D01*
X69904550Y-129852226D01*
X69919486Y-129840000D01*
X70018843Y-129758643D01*
X70110468Y-129683517D01*
X70188790Y-129619198D01*
X70248239Y-129570259D01*
X70283247Y-129541275D01*
X70286397Y-129538636D01*
X70335570Y-129497273D01*
X70176092Y-129368636D01*
X70049078Y-129265826D01*
X69926274Y-129165755D01*
X69811471Y-129071571D01*
X69708460Y-128986424D01*
X69621032Y-128913462D01*
X69552980Y-128855836D01*
X69508093Y-128816694D01*
X69490164Y-128799186D01*
X69490000Y-128798737D01*
X69508679Y-128795286D01*
X69559435Y-128792479D01*
X69634348Y-128790617D01*
X69718510Y-128790000D01*
X69947021Y-128790000D01*
X70353510Y-129122700D01*
G37*
G36*
X70720000Y-128630076D02*
G01*
X71020000Y-128849892D01*
X71209784Y-128989016D01*
X71369740Y-129106458D01*
X71502357Y-129204105D01*
X71610128Y-129283844D01*
X71695541Y-129347561D01*
X71761088Y-129397144D01*
X71809258Y-129434479D01*
X71842543Y-129461454D01*
X71863432Y-129479955D01*
X71874416Y-129491869D01*
X71877986Y-129499083D01*
X71878034Y-129500000D01*
X71862341Y-129516047D01*
X71817923Y-129552832D01*
X71748404Y-129607567D01*
X71657411Y-129677467D01*
X71548568Y-129759745D01*
X71425502Y-129851614D01*
X71299038Y-129945000D01*
X70720551Y-130370000D01*
X70425275Y-130370000D01*
X70321754Y-130368975D01*
X70234089Y-130366153D01*
X70169249Y-130361913D01*
X70134200Y-130356635D01*
X70130000Y-130353936D01*
X70145403Y-130337761D01*
X70188383Y-130301956D01*
X70254091Y-130250316D01*
X70337679Y-130186636D01*
X70434301Y-130114712D01*
X70455000Y-130099498D01*
X70657274Y-129950989D01*
X70828142Y-129825210D01*
X70968589Y-129721427D01*
X71079602Y-129638903D01*
X71162170Y-129576906D01*
X71217277Y-129534698D01*
X71245911Y-129511547D01*
X71250480Y-129507073D01*
X71248722Y-129500461D01*
X71236328Y-129486903D01*
X71210899Y-129464570D01*
X71170038Y-129431633D01*
X71111344Y-129386262D01*
X71032420Y-129326629D01*
X70930866Y-129250905D01*
X70804285Y-129157261D01*
X70650278Y-129043868D01*
X70466445Y-128908897D01*
X70455000Y-128900501D01*
X70356330Y-128827370D01*
X70269714Y-128761716D01*
X70199998Y-128707335D01*
X70152030Y-128668020D01*
X70130656Y-128647568D01*
X70130000Y-128646063D01*
X70148836Y-128640432D01*
X70200699Y-128635668D01*
X70278616Y-128632150D01*
X70375617Y-128630258D01*
X70425000Y-128630038D01*
X70720000Y-128630076D01*
G37*
G36*
X80358391Y-129061427D02*
G01*
X80716783Y-129653650D01*
X80763304Y-129576825D01*
X80785267Y-129540180D01*
X80824578Y-129474204D01*
X80878214Y-129383986D01*
X80943149Y-129274619D01*
X81016359Y-129151194D01*
X81094820Y-129018803D01*
X81114912Y-128984883D01*
X81420000Y-128469767D01*
X81660000Y-128474883D01*
X81900000Y-128480000D01*
X81905181Y-129505000D01*
X81910363Y-130530000D01*
X81640181Y-130530000D01*
X81370000Y-130530000D01*
X81370000Y-129996666D01*
X81369464Y-129856214D01*
X81367955Y-129730659D01*
X81365617Y-129625004D01*
X81362594Y-129544252D01*
X81359031Y-129493404D01*
X81355073Y-129477465D01*
X81355000Y-129477528D01*
X81340860Y-129497979D01*
X81309160Y-129547840D01*
X81262923Y-129622222D01*
X81205173Y-129716239D01*
X81138935Y-129825001D01*
X81090000Y-129905861D01*
X80840000Y-130320000D01*
X80710283Y-130320000D01*
X80580567Y-130320000D01*
X80520283Y-130225910D01*
X80489889Y-130177685D01*
X80443471Y-130103059D01*
X80385825Y-130009786D01*
X80321745Y-129905620D01*
X80270000Y-129821173D01*
X80208706Y-129722229D01*
X80153977Y-129636273D01*
X80109370Y-129568703D01*
X80078444Y-129524916D01*
X80065000Y-129510263D01*
X80060938Y-129529305D01*
X80057294Y-129583048D01*
X80054223Y-129666193D01*
X80051882Y-129773441D01*
X80050425Y-129899493D01*
X80050000Y-130020000D01*
X80050000Y-130530000D01*
X79789372Y-130530000D01*
X79672600Y-130528780D01*
X79591628Y-130524865D01*
X79542319Y-130517873D01*
X79520540Y-130507421D01*
X79519168Y-130505000D01*
X79517389Y-130480618D01*
X79515922Y-130420151D01*
X79514784Y-130327512D01*
X79513991Y-130206617D01*
X79513559Y-130061377D01*
X79513506Y-129895708D01*
X79513847Y-129713522D01*
X79514601Y-129518734D01*
X79514795Y-129480000D01*
X79520000Y-128480000D01*
X79760000Y-128474602D01*
X80000000Y-128469204D01*
X80358391Y-129061427D01*
G37*
G36*
X76148203Y-128441120D02*
G01*
X76342114Y-128475692D01*
X76523528Y-128536681D01*
X76685398Y-128622248D01*
X76820678Y-128730557D01*
X76830000Y-128740004D01*
X76900000Y-128812244D01*
X76800000Y-128901501D01*
X76731436Y-128962086D01*
X76659699Y-129024538D01*
X76616690Y-129061403D01*
X76533380Y-129132048D01*
X76402848Y-129042682D01*
X76261708Y-128966150D01*
X76118854Y-128925116D01*
X75978821Y-128917404D01*
X75846145Y-128940835D01*
X75725359Y-128993235D01*
X75621001Y-129072426D01*
X75537603Y-129176232D01*
X75479703Y-129302476D01*
X75451834Y-129448982D01*
X75450000Y-129500000D01*
X75467592Y-129655393D01*
X75518191Y-129791566D01*
X75598531Y-129905147D01*
X75705342Y-129992768D01*
X75835358Y-130051060D01*
X75985312Y-130076653D01*
X76010000Y-130077474D01*
X76097183Y-130074058D01*
X76184972Y-130063115D01*
X76235000Y-130052152D01*
X76330000Y-130024801D01*
X76330000Y-129737400D01*
X76330000Y-129450000D01*
X76590000Y-129450000D01*
X76850000Y-129450000D01*
X76850000Y-129878284D01*
X76850000Y-130306569D01*
X76755000Y-130363835D01*
X76678661Y-130407984D01*
X76612090Y-130440671D01*
X76541774Y-130467282D01*
X76454203Y-130493206D01*
X76384985Y-130511382D01*
X76294857Y-130530169D01*
X76188367Y-130545854D01*
X76076604Y-130557506D01*
X75970659Y-130564194D01*
X75881622Y-130564987D01*
X75820583Y-130558953D01*
X75820000Y-130558820D01*
X75778211Y-130549796D01*
X75714343Y-130536628D01*
X75670000Y-130527708D01*
X75511057Y-130478040D01*
X75353995Y-130395895D01*
X75208548Y-130288018D01*
X75084451Y-130161153D01*
X75026144Y-130081608D01*
X74946277Y-129935498D01*
X74895206Y-129784578D01*
X74869838Y-129617639D01*
X74865661Y-129500000D01*
X74883502Y-129288717D01*
X74936019Y-129096258D01*
X75021703Y-128924397D01*
X75139046Y-128774908D01*
X75286538Y-128649567D01*
X75462671Y-128550148D01*
X75665936Y-128478425D01*
X75751075Y-128458579D01*
X75948841Y-128434803D01*
X76148203Y-128441120D01*
G37*
G36*
X85305000Y-128470697D02*
G01*
X85524569Y-128472464D01*
X85708887Y-128477772D01*
X85862620Y-128487601D01*
X85990436Y-128502932D01*
X86097000Y-128524746D01*
X86186979Y-128554024D01*
X86265040Y-128591745D01*
X86335849Y-128638892D01*
X86404074Y-128696443D01*
X86411340Y-128703189D01*
X86502766Y-128800235D01*
X86565151Y-128897601D01*
X86603472Y-129006586D01*
X86622705Y-129138488D01*
X86625756Y-129190000D01*
X86622134Y-129354947D01*
X86593438Y-129494730D01*
X86536217Y-129616032D01*
X86447021Y-129725540D01*
X86322401Y-129829939D01*
X86280296Y-129859432D01*
X86258522Y-129876726D01*
X86254219Y-129895309D01*
X86269424Y-129925885D01*
X86301943Y-129973171D01*
X86365613Y-130064004D01*
X86431991Y-130159939D01*
X86497150Y-130255154D01*
X86557164Y-130343829D01*
X86608105Y-130420144D01*
X86646047Y-130478278D01*
X86667064Y-130512411D01*
X86670000Y-130518720D01*
X86651141Y-130522608D01*
X86599127Y-130525917D01*
X86520803Y-130528394D01*
X86423011Y-130529787D01*
X86363879Y-130530000D01*
X86057759Y-130530000D01*
X85872929Y-130260000D01*
X85688099Y-129990000D01*
X85529049Y-129990000D01*
X85370000Y-129990000D01*
X85370000Y-130260000D01*
X85370000Y-130530000D01*
X85080000Y-130530000D01*
X84790000Y-130530000D01*
X84790000Y-129534213D01*
X85370000Y-129534213D01*
X85605000Y-129527100D01*
X85714190Y-129522544D01*
X85792310Y-129515674D01*
X85848275Y-129505091D01*
X85891004Y-129489400D01*
X85910000Y-129479314D01*
X85987910Y-129412787D01*
X86033121Y-129324866D01*
X86043490Y-129219968D01*
X86042299Y-129206527D01*
X86026493Y-129120937D01*
X85995205Y-129059491D01*
X85939470Y-129006867D01*
X85915423Y-128989672D01*
X85880772Y-128968778D01*
X85842933Y-128954402D01*
X85792934Y-128944907D01*
X85721809Y-128938655D01*
X85620587Y-128934011D01*
X85607952Y-128933553D01*
X85370000Y-128925069D01*
X85370000Y-129229641D01*
X85370000Y-129534213D01*
X84790000Y-129534213D01*
X84790000Y-129500000D01*
X84790000Y-129229641D01*
X84790000Y-128470000D01*
X85305000Y-128470697D01*
G37*
G36*
X83450724Y-128443080D02*
G01*
X83534232Y-128447723D01*
X83603270Y-128457607D01*
X83670583Y-128474490D01*
X83740000Y-128497041D01*
X83937986Y-128583417D01*
X84105899Y-128695978D01*
X84244339Y-128835237D01*
X84353906Y-129001705D01*
X84370957Y-129035315D01*
X84444371Y-129221450D01*
X84480226Y-129403380D01*
X84479588Y-129587295D01*
X84474014Y-129633188D01*
X84425739Y-129839390D01*
X84344170Y-130024421D01*
X84231165Y-130186198D01*
X84088582Y-130322638D01*
X83918278Y-130431657D01*
X83722112Y-130511174D01*
X83680103Y-130523309D01*
X83607199Y-130537588D01*
X83509785Y-130549439D01*
X83401438Y-130557972D01*
X83295736Y-130562296D01*
X83206258Y-130561524D01*
X83160000Y-130557389D01*
X82995426Y-130518929D01*
X82832339Y-130457239D01*
X82682112Y-130377757D01*
X82556116Y-130285918D01*
X82518953Y-130250952D01*
X82399445Y-130114783D01*
X82313455Y-129980031D01*
X82256601Y-129836545D01*
X82224498Y-129674172D01*
X82214486Y-129545782D01*
X82215054Y-129496098D01*
X82797488Y-129496098D01*
X82811185Y-129637614D01*
X82851837Y-129770218D01*
X82918153Y-129884012D01*
X82946072Y-129916400D01*
X83057026Y-130004750D01*
X83185973Y-130060002D01*
X83326838Y-130081007D01*
X83473547Y-130066616D01*
X83575154Y-130035389D01*
X83652046Y-129989095D01*
X83729920Y-129916050D01*
X83798716Y-129827949D01*
X83848377Y-129736487D01*
X83859802Y-129704426D01*
X83888080Y-129549294D01*
X83882074Y-129397458D01*
X83843085Y-129256026D01*
X83772416Y-129132103D01*
X83749867Y-129104596D01*
X83646064Y-129009268D01*
X83531388Y-128950094D01*
X83398643Y-128923866D01*
X83340000Y-128921876D01*
X83191486Y-128939967D01*
X83063020Y-128992610D01*
X82955518Y-129079229D01*
X82869900Y-129199247D01*
X82856114Y-129225918D01*
X82812034Y-129355566D01*
X82797488Y-129496098D01*
X82215054Y-129496098D01*
X82216499Y-129369731D01*
X82240228Y-129217983D01*
X82288412Y-129079633D01*
X82363790Y-128943771D01*
X82366796Y-128939169D01*
X82484628Y-128785697D01*
X82618822Y-128663168D01*
X82776510Y-128566112D01*
X82944629Y-128495944D01*
X83019390Y-128471751D01*
X83085398Y-128455972D01*
X83155231Y-128446889D01*
X83241466Y-128442784D01*
X83340000Y-128441923D01*
X83450724Y-128443080D01*
G37*
G36*
X78164607Y-128470000D02*
G01*
X78452041Y-128470000D01*
X78480330Y-128537706D01*
X78495070Y-128571940D01*
X78523866Y-128637900D01*
X78564584Y-128730730D01*
X78615091Y-128845578D01*
X78673254Y-128977592D01*
X78736938Y-129121917D01*
X78781466Y-129222706D01*
X78892014Y-129472841D01*
X78987458Y-129688869D01*
X79068878Y-129873259D01*
X79137357Y-130028482D01*
X79193978Y-130157007D01*
X79239823Y-130261306D01*
X79275975Y-130343849D01*
X79303515Y-130407104D01*
X79323527Y-130453544D01*
X79337093Y-130485637D01*
X79345296Y-130505855D01*
X79349217Y-130516667D01*
X79350000Y-130520136D01*
X79331156Y-130523579D01*
X79279248Y-130526498D01*
X79201211Y-130528664D01*
X79103980Y-130529848D01*
X79051866Y-130530000D01*
X78753732Y-130530000D01*
X78692253Y-130382320D01*
X78660170Y-130304688D01*
X78631835Y-130235132D01*
X78612685Y-130187019D01*
X78610882Y-130182320D01*
X78590990Y-130130000D01*
X78155495Y-130130382D01*
X77720000Y-130130765D01*
X77643673Y-130330382D01*
X77567346Y-130530000D01*
X77269168Y-130530000D01*
X76970990Y-130530000D01*
X76988268Y-130485000D01*
X77000975Y-130454630D01*
X77027457Y-130393312D01*
X77065261Y-130306658D01*
X77111934Y-130200280D01*
X77165020Y-130079790D01*
X77204708Y-129990000D01*
X77269955Y-129842564D01*
X77346351Y-129669918D01*
X77346544Y-129669482D01*
X77916236Y-129669482D01*
X77925835Y-129679324D01*
X77953406Y-129685410D01*
X78004993Y-129688624D01*
X78086642Y-129689850D01*
X78157860Y-129690000D01*
X78253002Y-129689438D01*
X78331715Y-129687904D01*
X78386457Y-129685624D01*
X78409687Y-129682824D01*
X78410000Y-129682447D01*
X78402892Y-129662251D01*
X78383316Y-129611652D01*
X78353888Y-129537291D01*
X78317225Y-129445811D01*
X78297694Y-129397447D01*
X78257151Y-129297113D01*
X78221212Y-129207853D01*
X78192918Y-129137243D01*
X78175312Y-129092864D01*
X78171785Y-129083736D01*
X78160356Y-129088559D01*
X78137315Y-129126617D01*
X78104612Y-129193516D01*
X78064195Y-129284860D01*
X78018012Y-129396252D01*
X77968012Y-129523296D01*
X77918562Y-129655000D01*
X77916236Y-129669482D01*
X77346544Y-129669482D01*
X77428864Y-129483430D01*
X77512465Y-129294471D01*
X77592122Y-129114412D01*
X77640521Y-129004999D01*
X77877173Y-128469999D01*
X78164607Y-128470000D01*
G37*
D13*
%TO.C,J2*%
X66630000Y-66830000D02*
X75870000Y-66830000D01*
X66630000Y-69150000D02*
X66630000Y-66830000D01*
X66630000Y-82070000D02*
X66630000Y-69750000D01*
X67150000Y-66830000D02*
X67150000Y-82070000D01*
X68250000Y-66830000D02*
X68250000Y-82070000D01*
X75870000Y-66830000D02*
X75870000Y-82070000D01*
X75870000Y-82070000D02*
X66630000Y-82070000D01*
X66630000Y-69450000D02*
X66020000Y-69890000D01*
X66020000Y-69010000D01*
X66630000Y-69450000D01*
G36*
X66630000Y-69450000D02*
G01*
X66020000Y-69890000D01*
X66020000Y-69010000D01*
X66630000Y-69450000D01*
G37*
%TO.C,C4*%
X85388748Y-103740000D02*
X86811252Y-103740000D01*
X85388748Y-105560000D02*
X86811252Y-105560000D01*
%TO.C,12-36V*%
X68450000Y-106092500D02*
X80350000Y-106092500D01*
X68450000Y-115292500D02*
X68450000Y-106092500D01*
X74450000Y-115292500D02*
X68450000Y-115292500D01*
X79500000Y-105892500D02*
X80550000Y-105892500D01*
X80350000Y-106092500D02*
X80350000Y-108692500D01*
X80350000Y-112592500D02*
X80350000Y-115292500D01*
X80350000Y-115292500D02*
X78450000Y-115292500D01*
X80550000Y-106942500D02*
X80550000Y-105892500D01*
%TO.C,J1*%
X66630000Y-83180000D02*
X75870000Y-83180000D01*
X66630000Y-85500000D02*
X66630000Y-83180000D01*
X66630000Y-103420000D02*
X66630000Y-86100000D01*
X67150000Y-83180000D02*
X67150000Y-103420000D01*
X68250000Y-83180000D02*
X68250000Y-103420000D01*
X75870000Y-83180000D02*
X75870000Y-103420000D01*
X75870000Y-103420000D02*
X66630000Y-103420000D01*
X66630000Y-85800000D02*
X66020000Y-86240000D01*
X66020000Y-85360000D01*
X66630000Y-85800000D01*
G36*
X66630000Y-85800000D02*
G01*
X66020000Y-86240000D01*
X66020000Y-85360000D01*
X66630000Y-85800000D01*
G37*
D14*
%TO.C,U1*%
X110857500Y-126800000D02*
X110857500Y-80540000D01*
X111857500Y-79540000D02*
X115827500Y-79540000D01*
X111857500Y-127800000D02*
X120777500Y-127800000D01*
X115827500Y-72800000D02*
X133827500Y-72800000D01*
X115827500Y-79540000D02*
X115827500Y-72800000D01*
X128877500Y-127800000D02*
X137797500Y-127800000D01*
X133827500Y-72800000D02*
X133827500Y-79540000D01*
X133827500Y-79540000D02*
X137797500Y-79540000D01*
X138797500Y-126800000D02*
X138797500Y-80540000D01*
X111857500Y-127800000D02*
G75*
G02*
X110857500Y-126800000I-1J999999D01*
G01*
X138797500Y-126800000D02*
G75*
G02*
X137797500Y-127800000I-1000000J0D01*
G01*
D11*
X110427500Y-80835000D02*
G75*
G02*
X110227500Y-80835000I-100000J0D01*
G01*
X110227500Y-80835000D02*
G75*
G02*
X110427500Y-80835000I100000J0D01*
G01*
D13*
%TO.C,R5*%
X77140000Y-71427064D02*
X77140000Y-69972936D01*
X78960000Y-71427064D02*
X78960000Y-69972936D01*
%TO.C,U8*%
X82640000Y-83190000D02*
X86760000Y-83190000D01*
X82640000Y-83285000D02*
X82640000Y-83190000D01*
X82640000Y-88310000D02*
X82640000Y-88215000D01*
X86760000Y-83190000D02*
X86760000Y-83285000D01*
X86760000Y-88215000D02*
X86760000Y-88310000D01*
X86760000Y-88310000D02*
X82640000Y-88310000D01*
X87540000Y-88550000D02*
X87060000Y-88550000D01*
X87300000Y-88220000D01*
X87540000Y-88550000D01*
G36*
X87540000Y-88550000D02*
G01*
X87060000Y-88550000D01*
X87300000Y-88220000D01*
X87540000Y-88550000D01*
G37*
%TO.C,J5*%
X140340000Y-101040000D02*
X140340000Y-113660000D01*
X140340000Y-113660000D02*
X146310000Y-113660000D01*
X141100000Y-101800000D02*
X141100000Y-107350000D01*
X141100000Y-112900000D02*
X141100000Y-107350000D01*
X144050000Y-101050000D02*
X144050000Y-101800000D01*
X144050000Y-101800000D02*
X141100000Y-101800000D01*
X144050000Y-112900000D02*
X141100000Y-112900000D01*
X144050000Y-113650000D02*
X144050000Y-112900000D01*
X145550000Y-101050000D02*
X145550000Y-102850000D01*
X145550000Y-102850000D02*
X146300000Y-102850000D01*
X145550000Y-104350000D02*
X145550000Y-110350000D01*
X145550000Y-110350000D02*
X146300000Y-110350000D01*
X145550000Y-111850000D02*
X145550000Y-113650000D01*
X145550000Y-113650000D02*
X146300000Y-113650000D01*
X146300000Y-101050000D02*
X145550000Y-101050000D01*
X146300000Y-102850000D02*
X146300000Y-101050000D01*
X146300000Y-104350000D02*
X145550000Y-104350000D01*
X146300000Y-110350000D02*
X146300000Y-104350000D01*
X146300000Y-111850000D02*
X145550000Y-111850000D01*
X146300000Y-113650000D02*
X146300000Y-111850000D01*
X146310000Y-101040000D02*
X140340000Y-101040000D01*
X146310000Y-113660000D02*
X146310000Y-101040000D01*
X146600000Y-100750000D02*
X145350000Y-100750000D01*
X146600000Y-102000000D02*
X146600000Y-100750000D01*
D15*
%TO.C,G\u002A\u002A\u002A*%
G36*
X102853036Y-99192363D02*
G01*
X102900028Y-99195360D01*
X102932706Y-99199960D01*
X102944840Y-99204067D01*
X102940933Y-99211456D01*
X102921623Y-99225729D01*
X102890567Y-99244342D01*
X102874394Y-99253107D01*
X102797670Y-99296855D01*
X102724029Y-99346358D01*
X102648164Y-99405460D01*
X102568593Y-99474545D01*
X102531713Y-99507337D01*
X102500930Y-99533749D01*
X102479401Y-99551139D01*
X102470285Y-99556865D01*
X102470238Y-99556830D01*
X102470049Y-99545354D01*
X102473346Y-99519828D01*
X102476572Y-99501144D01*
X102481457Y-99470438D01*
X102483155Y-99449703D01*
X102482396Y-99444947D01*
X102476595Y-99452189D01*
X102464182Y-99474870D01*
X102447245Y-99509028D01*
X102435543Y-99533895D01*
X102410343Y-99583081D01*
X102377173Y-99640453D01*
X102341141Y-99697427D01*
X102319306Y-99729203D01*
X102283715Y-99779660D01*
X102246602Y-99833498D01*
X102213258Y-99882988D01*
X102195915Y-99909470D01*
X102173257Y-99943861D01*
X102155235Y-99969647D01*
X102144593Y-99982967D01*
X102142965Y-99983894D01*
X102143115Y-99972582D01*
X102145928Y-99945136D01*
X102150864Y-99906447D01*
X102153906Y-99884785D01*
X102160137Y-99829430D01*
X102164876Y-99764015D01*
X102167385Y-99699729D01*
X102167599Y-99677459D01*
X102167471Y-99565823D01*
X102142768Y-99688091D01*
X102110037Y-99837188D01*
X102075613Y-99967841D01*
X102038621Y-100082854D01*
X101998183Y-100185033D01*
X101966767Y-100251591D01*
X101940251Y-100301844D01*
X101918484Y-100338991D01*
X101902660Y-100361236D01*
X101893970Y-100366781D01*
X101892696Y-100363227D01*
X101891047Y-100348825D01*
X101887122Y-100318257D01*
X101881560Y-100276421D01*
X101876747Y-100240959D01*
X101866073Y-100135216D01*
X101861877Y-100026129D01*
X101864155Y-99920809D01*
X101872902Y-99826367D01*
X101877056Y-99799658D01*
X101883802Y-99757752D01*
X101888095Y-99724500D01*
X101889339Y-99704899D01*
X101888743Y-99701859D01*
X101884448Y-99709422D01*
X101876601Y-99733482D01*
X101866494Y-99769828D01*
X101859741Y-99796352D01*
X101850643Y-99839184D01*
X101843716Y-99886561D01*
X101838867Y-99941049D01*
X101836005Y-100005215D01*
X101835039Y-100081626D01*
X101835877Y-100172848D01*
X101838427Y-100281449D01*
X101840280Y-100341963D01*
X101841671Y-100398798D01*
X101841069Y-100440607D01*
X101837777Y-100473586D01*
X101831098Y-100503935D01*
X101820336Y-100537850D01*
X101817272Y-100546631D01*
X101805292Y-100582974D01*
X101797918Y-100610092D01*
X101796407Y-100623189D01*
X101797027Y-100623713D01*
X101808126Y-100616642D01*
X101826417Y-100599271D01*
X101829707Y-100595763D01*
X101853190Y-100573392D01*
X101878428Y-100557538D01*
X101909251Y-100547390D01*
X101949488Y-100542140D01*
X102002972Y-100540980D01*
X102073532Y-100543100D01*
X102078156Y-100543303D01*
X102137655Y-100545144D01*
X102194424Y-100545464D01*
X102242655Y-100544322D01*
X102276542Y-100541781D01*
X102280765Y-100541165D01*
X102302349Y-100537335D01*
X102312183Y-100534299D01*
X102308285Y-100531443D01*
X102288672Y-100528156D01*
X102251362Y-100523824D01*
X102210833Y-100519547D01*
X102143324Y-100511024D01*
X102085585Y-100500851D01*
X102039564Y-100489695D01*
X102007209Y-100478224D01*
X101990466Y-100467102D01*
X101991284Y-100456998D01*
X102006990Y-100449777D01*
X102028750Y-100445045D01*
X102061057Y-100439466D01*
X102073440Y-100437594D01*
X102169640Y-100419127D01*
X102267710Y-100392111D01*
X102362342Y-100358510D01*
X102448223Y-100320289D01*
X102520045Y-100279411D01*
X102541251Y-100264561D01*
X102576404Y-100237193D01*
X102613131Y-100206802D01*
X102647669Y-100176739D01*
X102676257Y-100150353D01*
X102695133Y-100130993D01*
X102700732Y-100122575D01*
X102693131Y-100123902D01*
X102673194Y-100135888D01*
X102645219Y-100155944D01*
X102644913Y-100156177D01*
X102597529Y-100188433D01*
X102537964Y-100223483D01*
X102473422Y-100257539D01*
X102411108Y-100286813D01*
X102358225Y-100307517D01*
X102355190Y-100308507D01*
X102294816Y-100325277D01*
X102222230Y-100341455D01*
X102146449Y-100355185D01*
X102090472Y-100363052D01*
X102027764Y-100370467D01*
X102057893Y-100319003D01*
X102076946Y-100287584D01*
X102103548Y-100245171D01*
X102133463Y-100198473D01*
X102150807Y-100171850D01*
X102213592Y-100076162D01*
X102362772Y-100004526D01*
X102416249Y-99977959D01*
X102472383Y-99948548D01*
X102528190Y-99918036D01*
X102580686Y-99888166D01*
X102626885Y-99860681D01*
X102663804Y-99837324D01*
X102688458Y-99819838D01*
X102697863Y-99809966D01*
X102697579Y-99808980D01*
X102686890Y-99811527D01*
X102661234Y-99821665D01*
X102624759Y-99837669D01*
X102592114Y-99852809D01*
X102551273Y-99871424D01*
X102503561Y-99892033D01*
X102452859Y-99913101D01*
X102403049Y-99933092D01*
X102358010Y-99950472D01*
X102321625Y-99963705D01*
X102297774Y-99971257D01*
X102290327Y-99972178D01*
X102294743Y-99962398D01*
X102310149Y-99938829D01*
X102334371Y-99904382D01*
X102365238Y-99861971D01*
X102400578Y-99814507D01*
X102438216Y-99764903D01*
X102475982Y-99716069D01*
X102511703Y-99670919D01*
X102543205Y-99632364D01*
X102548862Y-99625637D01*
X102603538Y-99563476D01*
X102663520Y-99499493D01*
X102725710Y-99436649D01*
X102787010Y-99377902D01*
X102844323Y-99326211D01*
X102894549Y-99284535D01*
X102934592Y-99255834D01*
X102938640Y-99253358D01*
X102969603Y-99235705D01*
X102992424Y-99224245D01*
X103002074Y-99221462D01*
X103000215Y-99232728D01*
X102992435Y-99258409D01*
X102980393Y-99293053D01*
X102979788Y-99294705D01*
X102960015Y-99359224D01*
X102947770Y-99426774D01*
X102942721Y-99501830D01*
X102944535Y-99588871D01*
X102951369Y-99677116D01*
X102956903Y-99739568D01*
X102961527Y-99801401D01*
X102964816Y-99856211D01*
X102966345Y-99897594D01*
X102966403Y-99903839D01*
X102956213Y-100025204D01*
X102926082Y-100143755D01*
X102877329Y-100256209D01*
X102811273Y-100359280D01*
X102759101Y-100420297D01*
X102682328Y-100491529D01*
X102600807Y-100548605D01*
X102512008Y-100592389D01*
X102413403Y-100623746D01*
X102302462Y-100643543D01*
X102176656Y-100652644D01*
X102078756Y-100653121D01*
X102018628Y-100652336D01*
X101969376Y-100653362D01*
X101927925Y-100657726D01*
X101891197Y-100666957D01*
X101856115Y-100682582D01*
X101819601Y-100706130D01*
X101778579Y-100739129D01*
X101729971Y-100783107D01*
X101670700Y-100839591D01*
X101636251Y-100872860D01*
X101585914Y-100921797D01*
X101541038Y-100965951D01*
X101503788Y-101003149D01*
X101476328Y-101031219D01*
X101460823Y-101047986D01*
X101458164Y-101051654D01*
X101467523Y-101054989D01*
X101494570Y-101057326D01*
X101535755Y-101058717D01*
X101587528Y-101059214D01*
X101646340Y-101058870D01*
X101708641Y-101057738D01*
X101770879Y-101055871D01*
X101829507Y-101053320D01*
X101880973Y-101050139D01*
X101921728Y-101046381D01*
X101935223Y-101044577D01*
X101976103Y-101038449D01*
X102007779Y-101033996D01*
X102025336Y-101031896D01*
X102027305Y-101031867D01*
X102024978Y-101041709D01*
X102017278Y-101066792D01*
X102005720Y-101102236D01*
X102002188Y-101112788D01*
X101982103Y-101201182D01*
X101981826Y-101286509D01*
X102001314Y-101366533D01*
X102007452Y-101381419D01*
X102018635Y-101409570D01*
X102023453Y-101427835D01*
X102022340Y-101431747D01*
X102009862Y-101428356D01*
X101981893Y-101419191D01*
X101942919Y-101405757D01*
X101908643Y-101393597D01*
X101805020Y-101358931D01*
X101703380Y-101329658D01*
X101608371Y-101306931D01*
X101524637Y-101291902D01*
X101478044Y-101286777D01*
X101382678Y-101287424D01*
X101293490Y-101304559D01*
X101207729Y-101339271D01*
X101122642Y-101392649D01*
X101042570Y-101459201D01*
X100996145Y-101501110D01*
X100961593Y-101529791D01*
X100935844Y-101547143D01*
X100915830Y-101555066D01*
X100898481Y-101555463D01*
X100890221Y-101553544D01*
X100844492Y-101531389D01*
X100797507Y-101493593D01*
X100754728Y-101444692D01*
X100748405Y-101435801D01*
X100708705Y-101378159D01*
X100729441Y-101350386D01*
X100751907Y-101329376D01*
X100790849Y-101302583D01*
X100842860Y-101271758D01*
X100904531Y-101238651D01*
X100972454Y-101205012D01*
X101043220Y-101172593D01*
X101113422Y-101143144D01*
X101179651Y-101118416D01*
X101183846Y-101116977D01*
X101232003Y-101099264D01*
X101271264Y-101080841D01*
X101306615Y-101058270D01*
X101343045Y-101028113D01*
X101385540Y-100986929D01*
X101412078Y-100959611D01*
X101509308Y-100850750D01*
X101589873Y-100744403D01*
X101653153Y-100641694D01*
X101698531Y-100543749D01*
X101725388Y-100451693D01*
X101733214Y-100375160D01*
X101731659Y-100342774D01*
X101727452Y-100296222D01*
X101721281Y-100242340D01*
X101715569Y-100199775D01*
X101707565Y-100138199D01*
X101703725Y-100089062D01*
X101703846Y-100043992D01*
X101707723Y-99994617D01*
X101710076Y-99973521D01*
X101735933Y-99839277D01*
X101780490Y-99714747D01*
X101843073Y-99600882D01*
X101923007Y-99498629D01*
X102019621Y-99408938D01*
X102132239Y-99332756D01*
X102185077Y-99304556D01*
X102262633Y-99269346D01*
X102338115Y-99242514D01*
X102417420Y-99222555D01*
X102506452Y-99207965D01*
X102603301Y-99197883D01*
X102666862Y-99193729D01*
X102732384Y-99191474D01*
X102795798Y-99191043D01*
X102853036Y-99192363D01*
G37*
G36*
X105495253Y-98774619D02*
G01*
X105668722Y-98815187D01*
X105841012Y-98876674D01*
X105921949Y-98912930D01*
X106084819Y-99002330D01*
X106237765Y-99109955D01*
X106380329Y-99234990D01*
X106512051Y-99376618D01*
X106632472Y-99534023D01*
X106741133Y-99706389D01*
X106837574Y-99892900D01*
X106921338Y-100092741D01*
X106991964Y-100305094D01*
X107048993Y-100529143D01*
X107091967Y-100764074D01*
X107120427Y-101009069D01*
X107123591Y-101048996D01*
X107127477Y-101101923D01*
X107130204Y-101143755D01*
X107131759Y-101179258D01*
X107132128Y-101213197D01*
X107131297Y-101250338D01*
X107129254Y-101295447D01*
X107125983Y-101353290D01*
X107122562Y-101410486D01*
X107100140Y-101647024D01*
X107062056Y-101876766D01*
X107008916Y-102098506D01*
X106941329Y-102311040D01*
X106859902Y-102513161D01*
X106765244Y-102703663D01*
X106657961Y-102881341D01*
X106538661Y-103044989D01*
X106407953Y-103193401D01*
X106266444Y-103325372D01*
X106114742Y-103439696D01*
X106092360Y-103454460D01*
X106009684Y-103505581D01*
X105933790Y-103546434D01*
X105855958Y-103581309D01*
X105767465Y-103614490D01*
X105765232Y-103615269D01*
X105591136Y-103664764D01*
X105413527Y-103693428D01*
X105331356Y-103697012D01*
X105232946Y-103701305D01*
X105049934Y-103688437D01*
X104865032Y-103654868D01*
X104678781Y-103600642D01*
X104491720Y-103525802D01*
X104458802Y-103510522D01*
X104297570Y-103423967D01*
X104136048Y-103317325D01*
X103975386Y-103191724D01*
X103816733Y-103048292D01*
X103661239Y-102888159D01*
X103510054Y-102712451D01*
X103364328Y-102522297D01*
X103225212Y-102318826D01*
X103193531Y-102269086D01*
X103137687Y-102181910D01*
X103089026Y-102110080D01*
X103044881Y-102050098D01*
X103002586Y-101998465D01*
X102959474Y-101951682D01*
X102927477Y-101920037D01*
X102838552Y-101841051D01*
X102742589Y-101766656D01*
X102643513Y-101699336D01*
X102545252Y-101641576D01*
X102451733Y-101595862D01*
X102366883Y-101564679D01*
X102365187Y-101564188D01*
X102294347Y-101540121D01*
X102240214Y-101511955D01*
X102198234Y-101476035D01*
X102163854Y-101428709D01*
X102140492Y-101383906D01*
X102124947Y-101347289D01*
X102116815Y-101317768D01*
X102445562Y-101317768D01*
X102455055Y-101323165D01*
X102480751Y-101333115D01*
X102518479Y-101346093D01*
X102554440Y-101357604D01*
X102758404Y-101429599D01*
X102949616Y-101514644D01*
X103126197Y-101611788D01*
X103286264Y-101720081D01*
X103315247Y-101742301D01*
X103340464Y-101763756D01*
X103378493Y-101798427D01*
X103427276Y-101844331D01*
X103484754Y-101899485D01*
X103548867Y-101961906D01*
X103617557Y-102029612D01*
X103688764Y-102100620D01*
X103721410Y-102133454D01*
X103815249Y-102227599D01*
X103896593Y-102307952D01*
X103967462Y-102376258D01*
X104029876Y-102434267D01*
X104085853Y-102483727D01*
X104137414Y-102526383D01*
X104186578Y-102563985D01*
X104235363Y-102598280D01*
X104285790Y-102631015D01*
X104322121Y-102653320D01*
X104434898Y-102715411D01*
X104559852Y-102773827D01*
X104634419Y-102804331D01*
X104802066Y-102858934D01*
X104976203Y-102896135D01*
X105153682Y-102915853D01*
X105331356Y-102918008D01*
X105506076Y-102902518D01*
X105674696Y-102869302D01*
X105791462Y-102834049D01*
X105963863Y-102762675D01*
X106124470Y-102674065D01*
X106272466Y-102569194D01*
X106407030Y-102449039D01*
X106527347Y-102314576D01*
X106632597Y-102166780D01*
X106721962Y-102006629D01*
X106794624Y-101835097D01*
X106849764Y-101653161D01*
X106873371Y-101543387D01*
X106881412Y-101481161D01*
X106885950Y-101405239D01*
X106887134Y-101321289D01*
X106885110Y-101234980D01*
X106880026Y-101151979D01*
X106872030Y-101077955D01*
X106861267Y-101018578D01*
X106859555Y-101011783D01*
X106849344Y-100979598D01*
X106833668Y-100937998D01*
X106814212Y-100890650D01*
X106792658Y-100841224D01*
X106770689Y-100793390D01*
X106749987Y-100750815D01*
X106732235Y-100717170D01*
X106719116Y-100696122D01*
X106712489Y-100691124D01*
X106712386Y-100702848D01*
X106715836Y-100730621D01*
X106722180Y-100769651D01*
X106726865Y-100795253D01*
X106733300Y-100833818D01*
X106738167Y-100875284D01*
X106741648Y-100923182D01*
X106743922Y-100981041D01*
X106745172Y-101052394D01*
X106745578Y-101140771D01*
X106745574Y-101160632D01*
X106745315Y-101246442D01*
X106744534Y-101314711D01*
X106742993Y-101369160D01*
X106740451Y-101413510D01*
X106736669Y-101451484D01*
X106731407Y-101486801D01*
X106724426Y-101523184D01*
X106721270Y-101538070D01*
X106671492Y-101724426D01*
X106605701Y-101897236D01*
X106524302Y-102056084D01*
X106427702Y-102200553D01*
X106316305Y-102330226D01*
X106288347Y-102355666D01*
X106190516Y-102444686D01*
X106051315Y-102543108D01*
X106050740Y-102543515D01*
X105897382Y-102626297D01*
X105886138Y-102630775D01*
X105789830Y-102669126D01*
X105730847Y-102692614D01*
X105692412Y-102703217D01*
X105576464Y-102735204D01*
X105552068Y-102741934D01*
X105481603Y-102753558D01*
X105462836Y-102755303D01*
X105396249Y-102761496D01*
X105324193Y-102764712D01*
X105302065Y-102765699D01*
X105205115Y-102766116D01*
X105178568Y-102765147D01*
X105138776Y-102763694D01*
X105111457Y-102762697D01*
X105072129Y-102759289D01*
X105027155Y-102755392D01*
X104970677Y-102746747D01*
X104944871Y-102740269D01*
X104784775Y-102700080D01*
X104776839Y-102697155D01*
X104728113Y-102679195D01*
X104605848Y-102634130D01*
X104572153Y-102617429D01*
X104433022Y-102548467D01*
X104351964Y-102497296D01*
X104272468Y-102447112D01*
X105310903Y-102447112D01*
X105315079Y-102470378D01*
X105324193Y-102481666D01*
X105333834Y-102476381D01*
X105337442Y-102451495D01*
X105337484Y-102447112D01*
X105334586Y-102419797D01*
X105325692Y-102412181D01*
X105324193Y-102412558D01*
X105314543Y-102425240D01*
X105310903Y-102447112D01*
X104272468Y-102447112D01*
X104265422Y-102442664D01*
X104114334Y-102326533D01*
X104092508Y-102307274D01*
X104752720Y-102307274D01*
X104759594Y-102332084D01*
X104776839Y-102342415D01*
X104799389Y-102338414D01*
X104822177Y-102320226D01*
X104832569Y-102304976D01*
X104844241Y-102272773D01*
X104842648Y-102246758D01*
X104828346Y-102232153D01*
X104824735Y-102231190D01*
X104803124Y-102236429D01*
X104779833Y-102254965D01*
X104760995Y-102280316D01*
X104752745Y-102306003D01*
X104752720Y-102307274D01*
X104092508Y-102307274D01*
X104080236Y-102296446D01*
X104034564Y-102253836D01*
X103980336Y-102201644D01*
X103949519Y-102171308D01*
X105102598Y-102171308D01*
X105113804Y-102196820D01*
X105135738Y-102207768D01*
X105138776Y-102207890D01*
X105157909Y-102198761D01*
X105170571Y-102175885D01*
X105175892Y-102146030D01*
X105175162Y-102138448D01*
X105518229Y-102138448D01*
X105524253Y-102170659D01*
X105539477Y-102196892D01*
X105559622Y-102211760D01*
X105576464Y-102211828D01*
X105588908Y-102197012D01*
X105593098Y-102170615D01*
X105589387Y-102140500D01*
X105578127Y-102114532D01*
X105571785Y-102107244D01*
X105547469Y-102093516D01*
X105529143Y-102099324D01*
X105519266Y-102123236D01*
X105518229Y-102138448D01*
X105175162Y-102138448D01*
X105172996Y-102115963D01*
X105161014Y-102092452D01*
X105154373Y-102086938D01*
X105133872Y-102081965D01*
X105117813Y-102096391D01*
X105105367Y-102131021D01*
X105104268Y-102135725D01*
X105102598Y-102171308D01*
X103949519Y-102171308D01*
X103920572Y-102142813D01*
X103858290Y-102080287D01*
X103796509Y-102017007D01*
X103791941Y-102012272D01*
X103705727Y-101923751D01*
X103630884Y-101849127D01*
X103629752Y-101848048D01*
X104699560Y-101848048D01*
X104702698Y-101869971D01*
X104716292Y-101877688D01*
X104728113Y-101878297D01*
X104756021Y-101871511D01*
X104780343Y-101854328D01*
X104798123Y-101831502D01*
X104806408Y-101807792D01*
X104802242Y-101787955D01*
X104789932Y-101778763D01*
X104760065Y-101777424D01*
X104757939Y-101778462D01*
X104730821Y-101791706D01*
X104708540Y-101816750D01*
X104699561Y-101847696D01*
X104699560Y-101848048D01*
X103629752Y-101848048D01*
X103564891Y-101786198D01*
X103543966Y-101767456D01*
X105055374Y-101767456D01*
X105056557Y-101796313D01*
X105057966Y-101800540D01*
X105072129Y-101813730D01*
X105094119Y-101813399D01*
X105108758Y-101805429D01*
X105402023Y-101805429D01*
X105416591Y-101839720D01*
X105428303Y-101853130D01*
X105448593Y-101870274D01*
X105462836Y-101872258D01*
X105470832Y-101867293D01*
X105483792Y-101844195D01*
X105484460Y-101817558D01*
X105801223Y-101817558D01*
X105812657Y-101839315D01*
X105834634Y-101859673D01*
X105862511Y-101874090D01*
X105886138Y-101878297D01*
X105914552Y-101872186D01*
X105926361Y-101856172D01*
X105921487Y-101833728D01*
X105899852Y-101808329D01*
X105887903Y-101799101D01*
X105854697Y-101784593D01*
X105823744Y-101786146D01*
X105804975Y-101798940D01*
X105801223Y-101817558D01*
X105484460Y-101817558D01*
X105484594Y-101812229D01*
X105473335Y-101779905D01*
X105469781Y-101774342D01*
X105448961Y-101755804D01*
X105426780Y-101751692D01*
X105410457Y-101762505D01*
X105410078Y-101762756D01*
X105407729Y-101767529D01*
X105402023Y-101805429D01*
X105108758Y-101805429D01*
X105116746Y-101801080D01*
X105129607Y-101785266D01*
X105142333Y-101748572D01*
X105137283Y-101719289D01*
X105122807Y-101704400D01*
X105102207Y-101701807D01*
X105096089Y-101705737D01*
X105081740Y-101714953D01*
X105064949Y-101738586D01*
X105055374Y-101767456D01*
X103543966Y-101767456D01*
X103505617Y-101733108D01*
X104309383Y-101733108D01*
X104324698Y-101746651D01*
X104351964Y-101751557D01*
X104383854Y-101748162D01*
X104413040Y-101736802D01*
X104424744Y-101727830D01*
X104439807Y-101711114D01*
X104440112Y-101700977D01*
X104431082Y-101693236D01*
X106190213Y-101693236D01*
X106191564Y-101702809D01*
X106208627Y-101717609D01*
X106209313Y-101718148D01*
X106250835Y-101741906D01*
X106288347Y-101744816D01*
X106311443Y-101735004D01*
X106331093Y-101720797D01*
X106334260Y-101709829D01*
X106321293Y-101694532D01*
X106313629Y-101687334D01*
X106281147Y-101669930D01*
X106242528Y-101666843D01*
X106207476Y-101678586D01*
X106204289Y-101680825D01*
X106203371Y-101681470D01*
X106190213Y-101693236D01*
X104431082Y-101693236D01*
X104428028Y-101690618D01*
X104424143Y-101688945D01*
X104402239Y-101679514D01*
X104379744Y-101676287D01*
X104350279Y-101682422D01*
X104325086Y-101697657D01*
X104310049Y-101717242D01*
X104309383Y-101733108D01*
X103505617Y-101733108D01*
X103505228Y-101732760D01*
X103449375Y-101686609D01*
X103394813Y-101645543D01*
X103339022Y-101607359D01*
X103301443Y-101583375D01*
X103240912Y-101549357D01*
X105617554Y-101549357D01*
X105622269Y-101559954D01*
X105631344Y-101567051D01*
X105661425Y-101582694D01*
X105692412Y-101589026D01*
X105720491Y-101587368D01*
X105741849Y-101579043D01*
X105752670Y-101565375D01*
X105749143Y-101547686D01*
X105733528Y-101531607D01*
X105704004Y-101519591D01*
X105668693Y-101518583D01*
X105637850Y-101528277D01*
X105630710Y-101533728D01*
X105629446Y-101534693D01*
X105617554Y-101549357D01*
X103240912Y-101549357D01*
X103170888Y-101510004D01*
X103055073Y-101456926D01*
X104850317Y-101456926D01*
X104863808Y-101468993D01*
X104864357Y-101469417D01*
X104904566Y-101490007D01*
X104944871Y-101491700D01*
X104960829Y-101486487D01*
X104982442Y-101469530D01*
X104983459Y-101449173D01*
X104963800Y-101427605D01*
X104962996Y-101427037D01*
X104926023Y-101411832D01*
X104889563Y-101417830D01*
X104868193Y-101431743D01*
X104851508Y-101447169D01*
X104850317Y-101456926D01*
X103055073Y-101456926D01*
X103030978Y-101445883D01*
X102886578Y-101392684D01*
X102835035Y-101378152D01*
X104491802Y-101378152D01*
X104495059Y-101390379D01*
X104507145Y-101403541D01*
X104535867Y-101419900D01*
X104572153Y-101425234D01*
X104606112Y-101418854D01*
X104618826Y-101411310D01*
X104619289Y-101410792D01*
X105339059Y-101410792D01*
X105347969Y-101423572D01*
X105353207Y-101427584D01*
X105381555Y-101440237D01*
X105410457Y-101441160D01*
X105433360Y-101431591D01*
X105443712Y-101412766D01*
X105443804Y-101410486D01*
X105439045Y-101399245D01*
X105975407Y-101399245D01*
X105984077Y-101409028D01*
X106005575Y-101422234D01*
X106012211Y-101425527D01*
X106051315Y-101436607D01*
X106086175Y-101433105D01*
X106110908Y-101415812D01*
X106113451Y-101411957D01*
X106114458Y-101392693D01*
X106099744Y-101374189D01*
X106074511Y-101360998D01*
X106051020Y-101357325D01*
X106024765Y-101362368D01*
X105998385Y-101374601D01*
X105979709Y-101389682D01*
X105975407Y-101399245D01*
X105439045Y-101399245D01*
X105435553Y-101390996D01*
X105426987Y-101385043D01*
X105419424Y-101383689D01*
X105391764Y-101378737D01*
X105360644Y-101385450D01*
X105347161Y-101395688D01*
X105339059Y-101410792D01*
X104619289Y-101410792D01*
X104633519Y-101394869D01*
X104630516Y-101380612D01*
X104609561Y-101363864D01*
X104574163Y-101349607D01*
X104537181Y-101348504D01*
X104507005Y-101360527D01*
X104502824Y-101364202D01*
X104491802Y-101378152D01*
X102835035Y-101378152D01*
X102742551Y-101352077D01*
X102603762Y-101325733D01*
X102527961Y-101317674D01*
X102489210Y-101315603D01*
X102460250Y-101315409D01*
X102446165Y-101317086D01*
X102445562Y-101317768D01*
X102116815Y-101317768D01*
X102115909Y-101314480D01*
X102111759Y-101277021D01*
X102110873Y-101229069D01*
X102111951Y-101180606D01*
X102116111Y-101144867D01*
X102125162Y-101113352D01*
X102140912Y-101077559D01*
X102144804Y-101069588D01*
X102156130Y-101048940D01*
X104327438Y-101048940D01*
X104336902Y-101073831D01*
X104360736Y-101094426D01*
X104392097Y-101107940D01*
X104424143Y-101111586D01*
X104426974Y-101110601D01*
X105029154Y-101110601D01*
X105036093Y-101137880D01*
X105053237Y-101163137D01*
X105075073Y-101180503D01*
X105096089Y-101184114D01*
X105097721Y-101183575D01*
X105111463Y-101168511D01*
X105112569Y-101142999D01*
X105107869Y-101130210D01*
X105752819Y-101130210D01*
X105765961Y-101141878D01*
X105789830Y-101144684D01*
X105821934Y-101138870D01*
X105848555Y-101124033D01*
X105867392Y-101104085D01*
X105868533Y-101101328D01*
X106153790Y-101101328D01*
X106159665Y-101115611D01*
X106184721Y-101122391D01*
X106204289Y-101123257D01*
X106235954Y-101117832D01*
X106261830Y-101103843D01*
X106278984Y-101085229D01*
X106284478Y-101065930D01*
X106275377Y-101049886D01*
X106263377Y-101043967D01*
X106226173Y-101042371D01*
X106189192Y-101057620D01*
X106166301Y-101078606D01*
X106153790Y-101101328D01*
X105868533Y-101101328D01*
X105876145Y-101082935D01*
X105872514Y-101064494D01*
X105854198Y-101052671D01*
X105844972Y-101050938D01*
X105817024Y-101054787D01*
X105788298Y-101075102D01*
X105783928Y-101079358D01*
X105758810Y-101109397D01*
X105752819Y-101130210D01*
X105107869Y-101130210D01*
X105101633Y-101113239D01*
X105089305Y-101095652D01*
X105064685Y-101075594D01*
X105044322Y-101074384D01*
X105031647Y-101091169D01*
X105029154Y-101110601D01*
X104426974Y-101110601D01*
X104450032Y-101102578D01*
X104452896Y-101100029D01*
X104463835Y-101085593D01*
X104461070Y-101072270D01*
X104443014Y-101053247D01*
X104441732Y-101052071D01*
X104437040Y-101048881D01*
X105391452Y-101048881D01*
X105391758Y-101077311D01*
X105403402Y-101100029D01*
X105419424Y-101111224D01*
X105433639Y-101106694D01*
X105450584Y-101084589D01*
X105453733Y-101079493D01*
X105466391Y-101046480D01*
X105463913Y-101018419D01*
X105447273Y-101000393D01*
X105437991Y-100997337D01*
X105416801Y-101002265D01*
X105400544Y-101021655D01*
X105391452Y-101048881D01*
X104437040Y-101048881D01*
X104410817Y-101031054D01*
X104378925Y-101020708D01*
X104351109Y-101021171D01*
X104332424Y-101032583D01*
X104327438Y-101048940D01*
X102156130Y-101048940D01*
X102172812Y-101018529D01*
X102202343Y-100979751D01*
X102238051Y-100949462D01*
X102284591Y-100923870D01*
X102300995Y-100917341D01*
X104680399Y-100917341D01*
X104685830Y-100940389D01*
X104704453Y-100963374D01*
X104730434Y-100982430D01*
X104757939Y-100993692D01*
X104781134Y-100993294D01*
X104788160Y-100988747D01*
X104795394Y-100968135D01*
X104785246Y-100941934D01*
X104761886Y-100916493D01*
X104730665Y-100897017D01*
X104703901Y-100892568D01*
X104685665Y-100903102D01*
X104680399Y-100917341D01*
X102300995Y-100917341D01*
X102346619Y-100899182D01*
X102359537Y-100894628D01*
X102522550Y-100829225D01*
X102669905Y-100751574D01*
X105114210Y-100751574D01*
X105121156Y-100775298D01*
X105138094Y-100799258D01*
X105159181Y-100817302D01*
X105178568Y-100823281D01*
X105181643Y-100822520D01*
X105194638Y-100807419D01*
X105199121Y-100780405D01*
X105195013Y-100749091D01*
X105183057Y-100722525D01*
X105598836Y-100722525D01*
X105602533Y-100754537D01*
X105603285Y-100756614D01*
X105615460Y-100778561D01*
X105630710Y-100780795D01*
X105647776Y-100769904D01*
X105672107Y-100742318D01*
X105685214Y-100710743D01*
X105686000Y-100681163D01*
X105673373Y-100659559D01*
X105668546Y-100656395D01*
X105644969Y-100653620D01*
X105623317Y-100667057D01*
X105606852Y-100691695D01*
X105598836Y-100722525D01*
X105183057Y-100722525D01*
X105182716Y-100721767D01*
X105160123Y-100701030D01*
X105138444Y-100699523D01*
X105121797Y-100715454D01*
X105114300Y-100747031D01*
X105114210Y-100751574D01*
X102669905Y-100751574D01*
X102671556Y-100750704D01*
X102810905Y-100656679D01*
X102852796Y-100624033D01*
X102899536Y-100584669D01*
X102942833Y-100543942D01*
X102984647Y-100499367D01*
X103026935Y-100448458D01*
X103071655Y-100388730D01*
X103120765Y-100317698D01*
X103176224Y-100232878D01*
X103237370Y-100135987D01*
X103367806Y-99935905D01*
X103497682Y-99755526D01*
X103628473Y-99593388D01*
X103761655Y-99448027D01*
X103898703Y-99317982D01*
X104041095Y-99201789D01*
X104190304Y-99097986D01*
X104347808Y-99005110D01*
X104412494Y-98971182D01*
X104599481Y-98885985D01*
X104783448Y-98821778D01*
X104964702Y-98778550D01*
X105143550Y-98756289D01*
X105320298Y-98754982D01*
X105495253Y-98774619D01*
G37*
D13*
%TO.C,J4*%
X142470000Y-71460000D02*
X143850000Y-71460000D01*
X142470000Y-72840000D02*
X142470000Y-71460000D01*
X142470000Y-74110000D02*
X142470000Y-81840000D01*
X142470000Y-74110000D02*
X145230000Y-74110000D01*
X142470000Y-81840000D02*
X145230000Y-81840000D01*
X145230000Y-74110000D02*
X145230000Y-81840000D01*
%TO.C,U3*%
X81405000Y-73305000D02*
X81405000Y-78605000D01*
X81405000Y-78605000D02*
X86605000Y-78605000D01*
X86605000Y-73305000D02*
X81405000Y-73305000D01*
X86605000Y-74955000D02*
X86605000Y-73305000D01*
X86605000Y-78605000D02*
X86605000Y-76955000D01*
X86605000Y-76955000D02*
G75*
G02*
X86605000Y-74955000I0J1000000D01*
G01*
%TO.C,C5*%
X99840000Y-105790000D02*
X102190000Y-105790000D01*
X99840000Y-111545563D02*
X99840000Y-105790000D01*
X100904437Y-112610000D02*
X99840000Y-111545563D01*
X100904437Y-112610000D02*
X102190000Y-112610000D01*
X105595563Y-112610000D02*
X104310000Y-112610000D01*
X105595563Y-112610000D02*
X106660000Y-111545563D01*
X106660000Y-105790000D02*
X104310000Y-105790000D01*
X106660000Y-111545563D02*
X106660000Y-105790000D01*
%TO.C,J8*%
X76210000Y-52690000D02*
X76210000Y-64910000D01*
X76210000Y-54190000D02*
X139390000Y-54190000D01*
X76210000Y-55990000D02*
X76210000Y-54190000D01*
X76210000Y-64910000D02*
X139390000Y-64910000D01*
X78860000Y-52690000D02*
X79110000Y-54190000D01*
X79110000Y-54190000D02*
X80610000Y-54190000D01*
X80610000Y-54190000D02*
X80860000Y-52690000D01*
X80860000Y-52690000D02*
X78860000Y-52690000D01*
X83940000Y-52690000D02*
X84190000Y-54190000D01*
X84190000Y-54190000D02*
X85690000Y-54190000D01*
X85690000Y-54190000D02*
X85940000Y-52690000D01*
X85940000Y-52690000D02*
X83940000Y-52690000D01*
X89020000Y-52690000D02*
X89270000Y-54190000D01*
X89270000Y-54190000D02*
X90770000Y-54190000D01*
X90770000Y-54190000D02*
X91020000Y-52690000D01*
X91020000Y-52690000D02*
X89020000Y-52690000D01*
X94100000Y-52690000D02*
X94350000Y-54190000D01*
X94350000Y-54190000D02*
X95850000Y-54190000D01*
X95850000Y-54190000D02*
X96100000Y-52690000D01*
X96100000Y-52690000D02*
X94100000Y-52690000D01*
X99180000Y-52690000D02*
X99430000Y-54190000D01*
X99430000Y-54190000D02*
X100930000Y-54190000D01*
X100930000Y-54190000D02*
X101180000Y-52690000D01*
X101180000Y-52690000D02*
X99180000Y-52690000D01*
X104260000Y-52690000D02*
X104510000Y-54190000D01*
X104510000Y-54190000D02*
X106010000Y-54190000D01*
X106010000Y-54190000D02*
X106260000Y-52690000D01*
X106260000Y-52690000D02*
X104260000Y-52690000D01*
X109340000Y-52690000D02*
X109590000Y-54190000D01*
X109590000Y-54190000D02*
X111090000Y-54190000D01*
X111090000Y-54190000D02*
X111340000Y-52690000D01*
X111340000Y-52690000D02*
X109340000Y-52690000D01*
X114420000Y-52690000D02*
X114670000Y-54190000D01*
X114670000Y-54190000D02*
X116170000Y-54190000D01*
X116170000Y-54190000D02*
X116420000Y-52690000D01*
X116420000Y-52690000D02*
X114420000Y-52690000D01*
X119500000Y-52690000D02*
X119750000Y-54190000D01*
X119750000Y-54190000D02*
X121250000Y-54190000D01*
X121250000Y-54190000D02*
X121500000Y-52690000D01*
X121500000Y-52690000D02*
X119500000Y-52690000D01*
X124580000Y-52690000D02*
X124830000Y-54190000D01*
X124830000Y-54190000D02*
X126330000Y-54190000D01*
X126330000Y-54190000D02*
X126580000Y-52690000D01*
X126580000Y-52690000D02*
X124580000Y-52690000D01*
X129660000Y-52690000D02*
X129910000Y-54190000D01*
X129910000Y-54190000D02*
X131410000Y-54190000D01*
X131410000Y-54190000D02*
X131660000Y-52690000D01*
X131660000Y-52690000D02*
X129660000Y-52690000D01*
X134740000Y-52690000D02*
X134990000Y-54190000D01*
X134990000Y-54190000D02*
X136490000Y-54190000D01*
X135440000Y-65710000D02*
X135740000Y-65110000D01*
X135740000Y-65110000D02*
X136040000Y-65710000D01*
X136040000Y-65710000D02*
X135440000Y-65710000D01*
X136490000Y-54190000D02*
X136740000Y-52690000D01*
X136740000Y-52690000D02*
X134740000Y-52690000D01*
X139390000Y-52690000D02*
X76210000Y-52690000D01*
X139390000Y-54190000D02*
X139390000Y-55990000D01*
X139390000Y-55990000D02*
X76210000Y-55990000D01*
X139390000Y-64910000D02*
X139390000Y-52690000D01*
%TO.C,C2*%
X93111252Y-92540000D02*
X91688748Y-92540000D01*
X93111252Y-94360000D02*
X91688748Y-94360000D01*
%TO.C,U7*%
X95630000Y-121130000D02*
X95630000Y-126430000D01*
X95630000Y-126430000D02*
X100830000Y-126430000D01*
X100830000Y-121130000D02*
X95630000Y-121130000D01*
X100830000Y-122780000D02*
X100830000Y-121130000D01*
X100830000Y-126430000D02*
X100830000Y-124780000D01*
X100830000Y-124780000D02*
G75*
G02*
X100830000Y-122780000I0J1000000D01*
G01*
%TD*%
M02*
