G04 #@! TF.GenerationSoftware,KiCad,Pcbnew,9.0.6*
G04 #@! TF.CreationDate,2026-03-19T13:41:58-04:00*
G04 #@! TF.ProjectId,FigCNC-Pro,46696743-4e43-42d5-9072-6f2e6b696361,rev?*
G04 #@! TF.SameCoordinates,Original*
G04 #@! TF.FileFunction,Soldermask,Top*
G04 #@! TF.FilePolarity,Negative*
%FSLAX46Y46*%
G04 Gerber Fmt 4.6, Leading zero omitted, Abs format (unit mm)*
G04 Created by KiCad (PCBNEW 9.0.6) date 2026-03-19 13:41:58*
%MOMM*%
%LPD*%
G01*
G04 APERTURE LIST*
G04 Aperture macros list*
%AMRoundRect*
0 Rectangle with rounded corners*
0 $1 Rounding radius*
0 $2 $3 $4 $5 $6 $7 $8 $9 X,Y pos of 4 corners*
0 Add a 4 corners polygon primitive as box body*
4,1,4,$2,$3,$4,$5,$6,$7,$8,$9,$2,$3,0*
0 Add four circle primitives for the rounded corners*
1,1,$1+$1,$2,$3*
1,1,$1+$1,$4,$5*
1,1,$1+$1,$6,$7*
1,1,$1+$1,$8,$9*
0 Add four rect primitives between the rounded corners*
20,1,$1+$1,$2,$3,$4,$5,0*
20,1,$1+$1,$4,$5,$6,$7,0*
20,1,$1+$1,$6,$7,$8,$9,0*
20,1,$1+$1,$8,$9,$2,$3,0*%
G04 Aperture macros list end*
%ADD10RoundRect,0.250000X-0.262500X-0.450000X0.262500X-0.450000X0.262500X0.450000X-0.262500X0.450000X0*%
%ADD11RoundRect,0.099250X-0.297750X0.812750X-0.297750X-0.812750X0.297750X-0.812750X0.297750X0.812750X0*%
%ADD12RoundRect,0.250000X0.450000X-0.262500X0.450000X0.262500X-0.450000X0.262500X-0.450000X-0.262500X0*%
%ADD13RoundRect,0.250000X0.262500X0.450000X-0.262500X0.450000X-0.262500X-0.450000X0.262500X-0.450000X0*%
%ADD14R,0.600000X1.550000*%
%ADD15R,3.100000X2.600000*%
%ADD16RoundRect,0.250000X0.475000X-0.250000X0.475000X0.250000X-0.475000X0.250000X-0.475000X-0.250000X0*%
%ADD17RoundRect,0.250000X0.325000X0.650000X-0.325000X0.650000X-0.325000X-0.650000X0.325000X-0.650000X0*%
%ADD18C,3.200000*%
%ADD19RoundRect,0.250001X-0.949999X-1.499999X0.949999X-1.499999X0.949999X1.499999X-0.949999X1.499999X0*%
%ADD20RoundRect,0.250000X0.250000X0.475000X-0.250000X0.475000X-0.250000X-0.475000X0.250000X-0.475000X0*%
%ADD21RoundRect,0.438500X-0.438500X0.828500X-0.438500X-0.828500X0.438500X-0.828500X0.438500X0.828500X0*%
%ADD22R,1.700000X1.700000*%
%ADD23C,1.700000*%
%ADD24RoundRect,0.250000X-1.050000X1.050000X-1.050000X-1.050000X1.050000X-1.050000X1.050000X1.050000X0*%
%ADD25C,2.600000*%
%ADD26RoundRect,0.250000X-0.250000X-0.475000X0.250000X-0.475000X0.250000X0.475000X-0.250000X0.475000X0*%
%ADD27RoundRect,0.250000X-0.450000X0.262500X-0.450000X-0.262500X0.450000X-0.262500X0.450000X0.262500X0*%
%ADD28R,3.500000X3.500000*%
%ADD29RoundRect,0.750000X-0.750000X-1.000000X0.750000X-1.000000X0.750000X1.000000X-0.750000X1.000000X0*%
%ADD30RoundRect,0.875000X-0.875000X-0.875000X0.875000X-0.875000X0.875000X0.875000X-0.875000X0.875000X0*%
%ADD31RoundRect,0.102000X-0.900000X-0.900000X0.900000X-0.900000X0.900000X0.900000X-0.900000X0.900000X0*%
%ADD32C,2.004000*%
%ADD33C,0.900000*%
%ADD34R,0.700000X1.600000*%
%ADD35R,1.200000X2.200000*%
%ADD36R,1.600000X1.400000*%
%ADD37R,1.200000X1.400000*%
%ADD38RoundRect,0.150000X0.825000X0.150000X-0.825000X0.150000X-0.825000X-0.150000X0.825000X-0.150000X0*%
%ADD39RoundRect,0.250000X-0.725000X0.600000X-0.725000X-0.600000X0.725000X-0.600000X0.725000X0.600000X0*%
%ADD40O,1.950000X1.700000*%
%ADD41RoundRect,0.250000X1.045000X-0.785000X1.045000X0.785000X-1.045000X0.785000X-1.045000X-0.785000X0*%
%ADD42RoundRect,0.249999X0.790001X1.550001X-0.790001X1.550001X-0.790001X-1.550001X0.790001X-1.550001X0*%
%ADD43O,2.080000X3.600000*%
G04 APERTURE END LIST*
D10*
G04 #@! TO.C,R13*
X72041564Y-57925000D03*
X73866564Y-57925000D03*
G04 #@! TD*
D11*
G04 #@! TO.C,U4*
X47185000Y-37405000D03*
X45915000Y-37405000D03*
X45915000Y-43795000D03*
X47185000Y-43795000D03*
G04 #@! TD*
D10*
G04 #@! TO.C,R19*
X72041564Y-53025000D03*
X73866564Y-53025000D03*
G04 #@! TD*
D12*
G04 #@! TO.C,R2*
X52825000Y-66636076D03*
X52825000Y-64811076D03*
G04 #@! TD*
D13*
G04 #@! TO.C,R21*
X60412500Y-92100000D03*
X58587500Y-92100000D03*
G04 #@! TD*
D14*
G04 #@! TO.C,U2*
X45670000Y-66450000D03*
X46940000Y-66450000D03*
X48210000Y-66450000D03*
X49480000Y-66450000D03*
X49480000Y-61050000D03*
X48210000Y-61050000D03*
X46940000Y-61050000D03*
X45670000Y-61050000D03*
D15*
X47575000Y-63750000D03*
G04 #@! TD*
D11*
G04 #@! TO.C,U6*
X60360000Y-37405000D03*
X59090000Y-37405000D03*
X59090000Y-43795000D03*
X60360000Y-43795000D03*
G04 #@! TD*
D16*
G04 #@! TO.C,C6*
X35000000Y-54150000D03*
X35000000Y-52250000D03*
G04 #@! TD*
D17*
G04 #@! TO.C,C3*
X49075000Y-55475000D03*
X46125000Y-55475000D03*
G04 #@! TD*
D18*
G04 #@! TO.C,H3*
X26700000Y-87575000D03*
G04 #@! TD*
D19*
G04 #@! TO.C,L1*
X40050000Y-77000000D03*
X46050000Y-77000000D03*
G04 #@! TD*
D20*
G04 #@! TO.C,C1*
X80170273Y-80150000D03*
X78270273Y-80150000D03*
G04 #@! TD*
D10*
G04 #@! TO.C,R6*
X27787500Y-29575000D03*
X29612500Y-29575000D03*
G04 #@! TD*
D12*
G04 #@! TO.C,R1*
X52850000Y-71962500D03*
X52850000Y-70137500D03*
G04 #@! TD*
D21*
G04 #@! TO.C,D2*
X42700000Y-64960000D03*
X42700000Y-60690000D03*
G04 #@! TD*
D10*
G04 #@! TO.C,R3*
X33387500Y-46200000D03*
X35212500Y-46200000D03*
G04 #@! TD*
D18*
G04 #@! TO.C,H2*
X100200000Y-24825000D03*
G04 #@! TD*
D11*
G04 #@! TO.C,U5*
X54060000Y-37405000D03*
X52790000Y-37405000D03*
X52790000Y-43795000D03*
X54060000Y-43795000D03*
G04 #@! TD*
D22*
G04 #@! TO.C,J6*
X99400000Y-62875000D03*
D23*
X99400000Y-60335000D03*
X99400000Y-57795000D03*
X99400000Y-55255000D03*
X99400000Y-52715000D03*
X99400000Y-50175000D03*
G04 #@! TD*
D13*
G04 #@! TO.C,R7*
X83512500Y-78400000D03*
X81687500Y-78400000D03*
G04 #@! TD*
D24*
G04 #@! TO.C,J3*
X27300000Y-33925000D03*
D25*
X27300000Y-38925000D03*
X27300000Y-43925000D03*
G04 #@! TD*
D12*
G04 #@! TO.C,R18*
X53900000Y-49562500D03*
X53900000Y-47737500D03*
G04 #@! TD*
D26*
G04 #@! TO.C,C4*
X40810702Y-69125000D03*
X42710702Y-69125000D03*
G04 #@! TD*
D27*
G04 #@! TO.C,R20*
X49000000Y-85012500D03*
X49000000Y-86837500D03*
G04 #@! TD*
D28*
G04 #@! TO.C,J1*
X35000000Y-75167500D03*
D29*
X29000000Y-75167500D03*
D30*
X32000000Y-79867500D03*
G04 #@! TD*
D10*
G04 #@! TO.C,R10*
X72012193Y-60540941D03*
X73837193Y-60540941D03*
G04 #@! TD*
D12*
G04 #@! TO.C,R15*
X50750000Y-49562500D03*
X50750000Y-47737500D03*
G04 #@! TD*
D18*
G04 #@! TO.C,H1*
X26700000Y-24825000D03*
G04 #@! TD*
D10*
G04 #@! TO.C,R16*
X72041564Y-55475000D03*
X73866564Y-55475000D03*
G04 #@! TD*
D18*
G04 #@! TO.C,H4*
X100100000Y-87675000D03*
G04 #@! TD*
D12*
G04 #@! TO.C,R17*
X53200000Y-33812500D03*
X53200000Y-31987500D03*
G04 #@! TD*
D24*
G04 #@! TO.C,J2*
X27300000Y-50275000D03*
D25*
X27300000Y-55275000D03*
X27300000Y-60275000D03*
X27300000Y-65275000D03*
G04 #@! TD*
D31*
G04 #@! TO.C,U1*
X67677500Y-45310000D03*
D32*
X67677500Y-47850000D03*
X67677500Y-50390000D03*
X67677500Y-52930000D03*
X67677500Y-55470000D03*
X67677500Y-58010000D03*
X67677500Y-60550000D03*
X67677500Y-63090000D03*
X67677500Y-65630000D03*
X67677500Y-68170000D03*
X67677500Y-70710000D03*
X67677500Y-73250000D03*
X67677500Y-75790000D03*
X67677500Y-78330000D03*
X67677500Y-80870000D03*
X67677500Y-83410000D03*
X67677500Y-85950000D03*
X67677500Y-88490000D03*
X67677500Y-91030000D03*
X93077500Y-45310000D03*
X93077500Y-47850000D03*
X93077500Y-50390000D03*
X93077500Y-52930000D03*
X93077500Y-55470000D03*
X93077500Y-58010000D03*
X93077500Y-60550000D03*
X93077500Y-63090000D03*
X93077500Y-65630000D03*
X93077500Y-68170000D03*
X93077500Y-70710000D03*
X93077500Y-73250000D03*
X93077500Y-75790000D03*
X93077500Y-78330000D03*
X93077500Y-80870000D03*
X93077500Y-83410000D03*
X93077500Y-85950000D03*
X93077500Y-88490000D03*
X93077500Y-91030000D03*
G04 #@! TD*
D33*
G04 #@! TO.C,J8*
X84430064Y-92937500D03*
X76430064Y-92937500D03*
D34*
X83630064Y-82437500D03*
X82530064Y-82437500D03*
X81430064Y-82437500D03*
X80330064Y-82437500D03*
X79230064Y-82437500D03*
X78130064Y-82437500D03*
X77030064Y-82437500D03*
X75930064Y-82437500D03*
X74830064Y-82437500D03*
D35*
X89130064Y-92537500D03*
D36*
X88230064Y-82937500D03*
D35*
X73630064Y-92537500D03*
D37*
X73630064Y-82937500D03*
G04 #@! TD*
D12*
G04 #@! TO.C,R5*
X35350000Y-38012500D03*
X35350000Y-36187500D03*
G04 #@! TD*
D38*
G04 #@! TO.C,U8*
X42725000Y-52130000D03*
X42725000Y-50860000D03*
X42725000Y-49590000D03*
X42725000Y-48320000D03*
X37775000Y-48320000D03*
X37775000Y-49590000D03*
X37775000Y-50860000D03*
X37775000Y-52130000D03*
G04 #@! TD*
D39*
G04 #@! TO.C,J7*
X99400000Y-68075000D03*
D40*
X99400000Y-70575000D03*
X99400000Y-73075000D03*
X99400000Y-75575000D03*
G04 #@! TD*
D12*
G04 #@! TO.C,R8*
X38150000Y-33812500D03*
X38150000Y-31987500D03*
G04 #@! TD*
G04 #@! TO.C,R11*
X43050000Y-33812500D03*
X43050000Y-31987500D03*
G04 #@! TD*
G04 #@! TO.C,R14*
X48300000Y-33812500D03*
X48300000Y-31987500D03*
G04 #@! TD*
D39*
G04 #@! TO.C,J5*
X99400000Y-37315000D03*
D40*
X99400000Y-39815000D03*
X99400000Y-42315000D03*
X99400000Y-44815000D03*
G04 #@! TD*
D11*
G04 #@! TO.C,U3*
X40535000Y-37405000D03*
X39265000Y-37405000D03*
X39265000Y-43795000D03*
X40535000Y-43795000D03*
G04 #@! TD*
D12*
G04 #@! TO.C,R22*
X64400000Y-46412500D03*
X64400000Y-44587500D03*
G04 #@! TD*
D13*
G04 #@! TO.C,R4*
X77022684Y-77000000D03*
X75197684Y-77000000D03*
G04 #@! TD*
D12*
G04 #@! TO.C,R12*
X47413445Y-49562500D03*
X47413445Y-47737500D03*
G04 #@! TD*
D27*
G04 #@! TO.C,R9*
X65018622Y-60660593D03*
X65018622Y-62485593D03*
G04 #@! TD*
D41*
G04 #@! TO.C,C5*
X57750000Y-76795000D03*
X57750000Y-70555000D03*
G04 #@! TD*
D42*
G04 #@! TO.C,J4*
X91290000Y-27275000D03*
D43*
X86210000Y-27275000D03*
X81130000Y-27275000D03*
X76050000Y-27275000D03*
X70970000Y-27275000D03*
X65890000Y-27275000D03*
X60810000Y-27275000D03*
X55730000Y-27275000D03*
X50650000Y-27275000D03*
X45570000Y-27275000D03*
X40490000Y-27275000D03*
X35410000Y-27275000D03*
G04 #@! TD*
D17*
G04 #@! TO.C,C2*
X49075000Y-57925000D03*
X46125000Y-57925000D03*
G04 #@! TD*
D11*
G04 #@! TO.C,U7*
X54535000Y-85355000D03*
X53265000Y-85355000D03*
X53265000Y-91745000D03*
X54535000Y-91745000D03*
G04 #@! TD*
M02*
