%TF.GenerationSoftware,KiCad,Pcbnew,9.0.6*%
%TF.CreationDate,2026-03-14T06:17:06-04:00*%
%TF.ProjectId,FigCNC,46696743-4e43-42e6-9b69-6361645f7063,rev?*%
%TF.SameCoordinates,Original*%
%TF.FileFunction,Paste,Top*%
%TF.FilePolarity,Positive*%
%FSLAX46Y46*%
G04 Gerber Fmt 4.6, Leading zero omitted, Abs format (unit mm)*
G04 Created by KiCad (PCBNEW 9.0.6) date 2026-03-14 06:17:06*
%MOMM*%
%LPD*%
G01*
G04 APERTURE LIST*
G04 Aperture macros list*
%AMRoundRect*
0 Rectangle with rounded corners*
0 $1 Rounding radius*
0 $2 $3 $4 $5 $6 $7 $8 $9 X,Y pos of 4 corners*
0 Add a 4 corners polygon primitive as box body*
4,1,4,$2,$3,$4,$5,$6,$7,$8,$9,$2,$3,0*
0 Add four circle primitives for the rounded corners*
1,1,$1+$1,$2,$3*
1,1,$1+$1,$4,$5*
1,1,$1+$1,$6,$7*
1,1,$1+$1,$8,$9*
0 Add four rect primitives between the rounded corners*
20,1,$1+$1,$2,$3,$4,$5,0*
20,1,$1+$1,$4,$5,$6,$7,0*
20,1,$1+$1,$6,$7,$8,$9,0*
20,1,$1+$1,$8,$9,$2,$3,0*%
G04 Aperture macros list end*
%ADD10RoundRect,0.250000X0.625000X-0.400000X0.625000X0.400000X-0.625000X0.400000X-0.625000X-0.400000X0*%
%ADD11R,0.600000X1.550000*%
%ADD12R,3.100000X2.600000*%
%ADD13RoundRect,0.250000X0.650000X-0.412500X0.650000X0.412500X-0.650000X0.412500X-0.650000X-0.412500X0*%
%ADD14RoundRect,0.250000X0.412500X0.650000X-0.412500X0.650000X-0.412500X-0.650000X0.412500X-0.650000X0*%
%ADD15R,1.500000X2.200000*%
%ADD16RoundRect,0.250000X-0.412500X-0.650000X0.412500X-0.650000X0.412500X0.650000X-0.412500X0.650000X0*%
%ADD17RoundRect,0.250000X-0.400000X-0.625000X0.400000X-0.625000X0.400000X0.625000X-0.400000X0.625000X0*%
%ADD18RoundRect,0.387500X-0.387500X0.777500X-0.387500X-0.777500X0.387500X-0.777500X0.387500X0.777500X0*%
%ADD19RoundRect,0.150000X0.825000X0.150000X-0.825000X0.150000X-0.825000X-0.150000X0.825000X-0.150000X0*%
%ADD20RoundRect,0.250000X0.550000X-1.412500X0.550000X1.412500X-0.550000X1.412500X-0.550000X-1.412500X0*%
G04 APERTURE END LIST*
D10*
%TO.C,R2*%
X97275000Y-103050000D03*
X97275000Y-99950000D03*
%TD*%
D11*
%TO.C,U2*%
X90120000Y-101975000D03*
X91390000Y-101975000D03*
X92660000Y-101975000D03*
X93930000Y-101975000D03*
X93930000Y-96575000D03*
X92660000Y-96575000D03*
X91390000Y-96575000D03*
X90120000Y-96575000D03*
D12*
X92025000Y-99275000D03*
%TD*%
D13*
%TO.C,C6*%
X79450000Y-91162500D03*
X79450000Y-88037500D03*
%TD*%
D14*
%TO.C,C3*%
X93962500Y-91000000D03*
X90837500Y-91000000D03*
%TD*%
D15*
%TO.C,L1*%
X84075000Y-112125000D03*
X90475000Y-112125000D03*
%TD*%
D16*
%TO.C,C1*%
X130037500Y-108150000D03*
X133162500Y-108150000D03*
%TD*%
D17*
%TO.C,R6*%
X71600000Y-65100000D03*
X74700000Y-65100000D03*
%TD*%
D10*
%TO.C,R1*%
X97300000Y-108650000D03*
X97300000Y-105550000D03*
%TD*%
D18*
%TO.C,D2*%
X87150000Y-100485000D03*
X87150000Y-96215000D03*
%TD*%
D10*
%TO.C,R3*%
X78227183Y-78894143D03*
X78227183Y-75794143D03*
%TD*%
D16*
%TO.C,C4*%
X84537500Y-104650000D03*
X87662500Y-104650000D03*
%TD*%
D10*
%TO.C,R5*%
X78050000Y-72250000D03*
X78050000Y-69150000D03*
%TD*%
D19*
%TO.C,U8*%
X87175000Y-87655000D03*
X87175000Y-86385000D03*
X87175000Y-85115000D03*
X87175000Y-83845000D03*
X82225000Y-83845000D03*
X82225000Y-85115000D03*
X82225000Y-86385000D03*
X82225000Y-87655000D03*
%TD*%
D20*
%TO.C,C5*%
X103250000Y-111737500D03*
X103250000Y-106662500D03*
%TD*%
D14*
%TO.C,C2*%
X93962500Y-93450000D03*
X90837500Y-93450000D03*
%TD*%
M02*
