%TF.GenerationSoftware,KiCad,Pcbnew,9.0.6*%
%TF.CreationDate,2026-03-14T06:17:06-04:00*%
%TF.ProjectId,FigCNC,46696743-4e43-42e6-9b69-6361645f7063,rev?*%
%TF.SameCoordinates,Original*%
%TF.FileFunction,Copper,L1,Top*%
%TF.FilePolarity,Positive*%
%FSLAX46Y46*%
G04 Gerber Fmt 4.6, Leading zero omitted, Abs format (unit mm)*
G04 Created by KiCad (PCBNEW 9.0.6) date 2026-03-14 06:17:06*
%MOMM*%
%LPD*%
G01*
G04 APERTURE LIST*
G04 Aperture macros list*
%AMRoundRect*
0 Rectangle with rounded corners*
0 $1 Rounding radius*
0 $2 $3 $4 $5 $6 $7 $8 $9 X,Y pos of 4 corners*
0 Add a 4 corners polygon primitive as box body*
4,1,4,$2,$3,$4,$5,$6,$7,$8,$9,$2,$3,0*
0 Add four circle primitives for the rounded corners*
1,1,$1+$1,$2,$3*
1,1,$1+$1,$4,$5*
1,1,$1+$1,$6,$7*
1,1,$1+$1,$8,$9*
0 Add four rect primitives between the rounded corners*
20,1,$1+$1,$2,$3,$4,$5,0*
20,1,$1+$1,$4,$5,$6,$7,0*
20,1,$1+$1,$6,$7,$8,$9,0*
20,1,$1+$1,$8,$9,$2,$3,0*%
G04 Aperture macros list end*
%TA.AperFunction,ComponentPad*%
%ADD10RoundRect,0.250000X-0.550000X0.650000X-0.550000X-0.650000X0.550000X-0.650000X0.550000X0.650000X0*%
%TD*%
%TA.AperFunction,ComponentPad*%
%ADD11C,1.800000*%
%TD*%
%TA.AperFunction,SMDPad,CuDef*%
%ADD12RoundRect,0.250000X0.625000X-0.400000X0.625000X0.400000X-0.625000X0.400000X-0.625000X-0.400000X0*%
%TD*%
%TA.AperFunction,SMDPad,CuDef*%
%ADD13R,0.600000X1.550000*%
%TD*%
%TA.AperFunction,ComponentPad*%
%ADD14C,0.600000*%
%TD*%
%TA.AperFunction,SMDPad,CuDef*%
%ADD15R,3.100000X2.600000*%
%TD*%
%TA.AperFunction,SMDPad,CuDef*%
%ADD16R,4.500000X2.950000*%
%TD*%
%TA.AperFunction,SMDPad,CuDef*%
%ADD17RoundRect,0.250000X0.650000X-0.412500X0.650000X0.412500X-0.650000X0.412500X-0.650000X-0.412500X0*%
%TD*%
%TA.AperFunction,SMDPad,CuDef*%
%ADD18RoundRect,0.250000X0.412500X0.650000X-0.412500X0.650000X-0.412500X-0.650000X0.412500X-0.650000X0*%
%TD*%
%TA.AperFunction,SMDPad,CuDef*%
%ADD19R,1.500000X2.200000*%
%TD*%
%TA.AperFunction,SMDPad,CuDef*%
%ADD20RoundRect,0.250000X-0.412500X-0.650000X0.412500X-0.650000X0.412500X0.650000X-0.412500X0.650000X0*%
%TD*%
%TA.AperFunction,SMDPad,CuDef*%
%ADD21RoundRect,0.250000X-0.400000X-0.625000X0.400000X-0.625000X0.400000X0.625000X-0.400000X0.625000X0*%
%TD*%
%TA.AperFunction,SMDPad,CuDef*%
%ADD22RoundRect,0.387500X-0.387500X0.777500X-0.387500X-0.777500X0.387500X-0.777500X0.387500X0.777500X0*%
%TD*%
%TA.AperFunction,ComponentPad*%
%ADD23R,1.800000X1.800000*%
%TD*%
%TA.AperFunction,ComponentPad*%
%ADD24C,2.000000*%
%TD*%
%TA.AperFunction,ComponentPad*%
%ADD25RoundRect,0.250000X-1.050000X1.050000X-1.050000X-1.050000X1.050000X-1.050000X1.050000X1.050000X0*%
%TD*%
%TA.AperFunction,ComponentPad*%
%ADD26C,2.600000*%
%TD*%
%TA.AperFunction,ComponentPad*%
%ADD27R,3.500000X3.500000*%
%TD*%
%TA.AperFunction,ComponentPad*%
%ADD28RoundRect,0.750000X-0.750000X-1.000000X0.750000X-1.000000X0.750000X1.000000X-0.750000X1.000000X0*%
%TD*%
%TA.AperFunction,ComponentPad*%
%ADD29RoundRect,0.875000X-0.875000X-0.875000X0.875000X-0.875000X0.875000X0.875000X-0.875000X0.875000X0*%
%TD*%
%TA.AperFunction,SMDPad,CuDef*%
%ADD30RoundRect,0.150000X0.825000X0.150000X-0.825000X0.150000X-0.825000X-0.150000X0.825000X-0.150000X0*%
%TD*%
%TA.AperFunction,ComponentPad*%
%ADD31RoundRect,0.250000X-0.725000X0.600000X-0.725000X-0.600000X0.725000X-0.600000X0.725000X0.600000X0*%
%TD*%
%TA.AperFunction,ComponentPad*%
%ADD32O,1.950000X1.700000*%
%TD*%
%TA.AperFunction,SMDPad,CuDef*%
%ADD33RoundRect,0.250000X0.550000X-1.412500X0.550000X1.412500X-0.550000X1.412500X-0.550000X-1.412500X0*%
%TD*%
%TA.AperFunction,ComponentPad*%
%ADD34RoundRect,0.249999X0.790001X1.550001X-0.790001X1.550001X-0.790001X-1.550001X0.790001X-1.550001X0*%
%TD*%
%TA.AperFunction,ComponentPad*%
%ADD35O,2.080000X3.600000*%
%TD*%
%TA.AperFunction,ViaPad*%
%ADD36C,0.600000*%
%TD*%
%TA.AperFunction,Conductor*%
%ADD37C,0.700000*%
%TD*%
%TA.AperFunction,Conductor*%
%ADD38C,2.000000*%
%TD*%
%TA.AperFunction,Conductor*%
%ADD39C,1.000000*%
%TD*%
G04 APERTURE END LIST*
D10*
%TO.P,U4,1*%
%TO.N,/5V*%
X91575000Y-72145000D03*
D11*
%TO.P,U4,2*%
%TO.N,Net-(R11-Pad1)*%
X89035000Y-72145000D03*
%TO.P,U4,3*%
%TO.N,GND*%
X89035000Y-79765000D03*
%TO.P,U4,4*%
%TO.N,Net-(R12-Pad2)*%
X91575000Y-79765000D03*
%TD*%
D12*
%TO.P,R2,1*%
%TO.N,Net-(U2-VSENSE)*%
X97275000Y-103050000D03*
%TO.P,R2,2*%
%TO.N,GND*%
X97275000Y-99950000D03*
%TD*%
D13*
%TO.P,U2,1,BOOT*%
%TO.N,Net-(U2-BOOT)*%
X90120000Y-101975000D03*
%TO.P,U2,2,NC*%
%TO.N,unconnected-(U2-NC-Pad2)*%
X91390000Y-101975000D03*
%TO.P,U2,3,NC*%
%TO.N,unconnected-(U2-NC-Pad3)*%
X92660000Y-101975000D03*
%TO.P,U2,4,VSENSE*%
%TO.N,Net-(U2-VSENSE)*%
X93930000Y-101975000D03*
%TO.P,U2,5,EN*%
%TO.N,unconnected-(U2-EN-Pad5)*%
X93930000Y-96575000D03*
%TO.P,U2,6,GND*%
%TO.N,GND*%
X92660000Y-96575000D03*
%TO.P,U2,7,VIN*%
%TO.N,/VIN*%
X91390000Y-96575000D03*
%TO.P,U2,8,PH*%
%TO.N,Net-(U2-PH)*%
X90120000Y-96575000D03*
D14*
%TO.P,U2,9,GNDPAD*%
%TO.N,GND*%
X90225000Y-99875000D03*
X91425000Y-99875000D03*
X92725000Y-99875000D03*
X93825000Y-99875000D03*
D15*
X92025000Y-99275000D03*
D16*
X92025000Y-99275000D03*
D14*
X90225000Y-98675000D03*
X91425000Y-98675000D03*
X92725000Y-98675000D03*
X93825000Y-98675000D03*
%TD*%
D10*
%TO.P,U6,1*%
%TO.N,/5V*%
X104175000Y-72145000D03*
D11*
%TO.P,U6,2*%
%TO.N,Net-(R17-Pad1)*%
X101635000Y-72145000D03*
%TO.P,U6,3*%
%TO.N,GND*%
X101635000Y-79765000D03*
%TO.P,U6,4*%
%TO.N,Net-(R18-Pad2)*%
X104175000Y-79765000D03*
%TD*%
D17*
%TO.P,C6,1*%
%TO.N,GND*%
X79450000Y-91162500D03*
%TO.P,C6,2*%
%TO.N,VCC*%
X79450000Y-88037500D03*
%TD*%
D18*
%TO.P,C3,1*%
%TO.N,GND*%
X93962500Y-91000000D03*
%TO.P,C3,2*%
%TO.N,/VIN*%
X90837500Y-91000000D03*
%TD*%
D19*
%TO.P,L1,1,1*%
%TO.N,Net-(U2-PH)*%
X84075000Y-112125000D03*
%TO.P,L1,2,2*%
%TO.N,/5V*%
X90475000Y-112125000D03*
%TD*%
D20*
%TO.P,C1,1*%
%TO.N,VCC*%
X130037500Y-108150000D03*
%TO.P,C1,2*%
%TO.N,GND*%
X133162500Y-108150000D03*
%TD*%
D21*
%TO.P,R6,1*%
%TO.N,Net-(J2-Pin_2)*%
X71600000Y-65100000D03*
%TO.P,R6,2*%
%TO.N,GND*%
X74700000Y-65100000D03*
%TD*%
D12*
%TO.P,R1,1*%
%TO.N,/5V*%
X97300000Y-108650000D03*
%TO.P,R1,2*%
%TO.N,Net-(U2-VSENSE)*%
X97300000Y-105550000D03*
%TD*%
D22*
%TO.P,D2,A*%
%TO.N,GND*%
X87150000Y-100485000D03*
%TO.P,D2,C*%
%TO.N,Net-(U2-PH)*%
X87150000Y-96215000D03*
%TD*%
D12*
%TO.P,R3,1*%
%TO.N,Net-(J2-Pin_2)*%
X78227183Y-78894143D03*
%TO.P,R3,2*%
%TO.N,Net-(J2-Pin_1)*%
X78227183Y-75794143D03*
%TD*%
D10*
%TO.P,U5,1*%
%TO.N,/5V*%
X97875000Y-72100000D03*
D11*
%TO.P,U5,2*%
%TO.N,Net-(R14-Pad1)*%
X95335000Y-72100000D03*
%TO.P,U5,3*%
%TO.N,GND*%
X95335000Y-79720000D03*
%TO.P,U5,4*%
%TO.N,Net-(R15-Pad2)*%
X97875000Y-79720000D03*
%TD*%
D23*
%TO.P,GND1,1,Pin_1*%
%TO.N,GND*%
X143850000Y-98400000D03*
D24*
%TO.P,GND1,2,Pin_2*%
%TO.N,unconnected-(GND1-Pin_2-Pad2)*%
X143850000Y-95860000D03*
%TO.P,GND1,3,Pin_3*%
%TO.N,unconnected-(GND1-Pin_3-Pad3)*%
X143850000Y-93320000D03*
%TO.P,GND1,4,Pin_4*%
%TO.N,/RX*%
X143850000Y-90780000D03*
%TO.P,GND1,5,Pin_5*%
%TO.N,/TX*%
X143850000Y-88240000D03*
%TO.P,GND1,6,Pin_6*%
%TO.N,unconnected-(GND1-Pin_6-Pad6)*%
X143850000Y-85700000D03*
%TD*%
D25*
%TO.P,J2,1,Pin_1*%
%TO.N,Net-(J2-Pin_1)*%
X71750000Y-69450000D03*
D26*
%TO.P,J2,2,Pin_2*%
%TO.N,Net-(J2-Pin_2)*%
X71750000Y-74450000D03*
%TO.P,J2,3,Pin_3*%
%TO.N,GND*%
X71750000Y-79450000D03*
%TD*%
D20*
%TO.P,C4,1*%
%TO.N,Net-(U2-PH)*%
X84537500Y-104650000D03*
%TO.P,C4,2*%
%TO.N,Net-(U2-BOOT)*%
X87662500Y-104650000D03*
%TD*%
D27*
%TO.P,12-36V,1*%
%TO.N,/VIN*%
X79450000Y-110692500D03*
D28*
%TO.P,12-36V,2*%
%TO.N,GND*%
X73450000Y-110692500D03*
D29*
%TO.P,12-36V,3*%
%TO.N,N/C*%
X76450000Y-115392500D03*
%TD*%
D25*
%TO.P,J1,1,Pin_1*%
%TO.N,/Z-PROBE-IN*%
X71750000Y-85800000D03*
D26*
%TO.P,J1,2,Pin_2*%
%TO.N,VCC*%
X71750000Y-90800000D03*
%TO.P,J1,3,Pin_3*%
%TO.N,GND*%
X71750000Y-95800000D03*
%TO.P,J1,4,Pin_4*%
%TO.N,/VIN*%
X71750000Y-100800000D03*
%TD*%
D23*
%TO.P,U1,J2_1,3V3*%
%TO.N,VCC*%
X112127500Y-80835000D03*
D11*
%TO.P,U1,J2_2,EN*%
%TO.N,unconnected-(U1-EN-PadJ2_2)*%
X112127500Y-83375000D03*
%TO.P,U1,J2_3,SENSOR_VP*%
%TO.N,/Z-PROBE*%
X112127500Y-85915000D03*
%TO.P,U1,J2_4,SENSOR_VN*%
%TO.N,/Z-LIMIT*%
X112127500Y-88455000D03*
%TO.P,U1,J2_5,IO34*%
%TO.N,/Y2-LIMIT*%
X112127500Y-90995000D03*
%TO.P,U1,J2_6,IO35*%
%TO.N,/Y1-LIMIT*%
X112127500Y-93535000D03*
%TO.P,U1,J2_7,IO32*%
%TO.N,/X-LIMIT*%
X112127500Y-96075000D03*
%TO.P,U1,J2_8,IO33*%
%TO.N,/Z-DIR*%
X112127500Y-98615000D03*
%TO.P,U1,J2_9,IO25*%
%TO.N,/Z-STEP*%
X112127500Y-101155000D03*
%TO.P,U1,J2_10,IO26*%
%TO.N,/Y2-STEP*%
X112127500Y-103695000D03*
%TO.P,U1,J2_11,IO27*%
%TO.N,/Y-DIR*%
X112127500Y-106235000D03*
%TO.P,U1,J2_12,IO14*%
%TO.N,/Y1-STEP*%
X112127500Y-108775000D03*
%TO.P,U1,J2_13,IO12*%
%TO.N,unconnected-(U1-IO12-PadJ2_13)*%
X112127500Y-111315000D03*
%TO.P,U1,J2_14,GND_J2_14*%
%TO.N,GND*%
X112127500Y-113855000D03*
%TO.P,U1,J2_15,IO13*%
%TO.N,/X-DIR*%
X112127500Y-116395000D03*
%TO.P,U1,J2_16,SD2*%
%TO.N,unconnected-(U1-SD2-PadJ2_16)*%
X112127500Y-118935000D03*
%TO.P,U1,J2_17,SD3*%
%TO.N,unconnected-(U1-SD3-PadJ2_17)*%
X112127500Y-121475000D03*
%TO.P,U1,J2_18,CMD*%
%TO.N,unconnected-(U1-CMD-PadJ2_18)*%
X112127500Y-124015000D03*
%TO.P,U1,J2_19,EXT_5V*%
%TO.N,/5V*%
X112127500Y-126555000D03*
%TO.P,U1,J3_1,GND_J3_1*%
%TO.N,GND*%
X137527500Y-80835000D03*
%TO.P,U1,J3_2,IO23*%
%TO.N,/MOSI*%
X137527500Y-83375000D03*
%TO.P,U1,J3_3,IO22*%
%TO.N,/X-STEP*%
X137527500Y-85915000D03*
%TO.P,U1,J3_4,TXD0*%
%TO.N,/TX*%
X137527500Y-88455000D03*
%TO.P,U1,J3_5,RXD0*%
%TO.N,/RX*%
X137527500Y-90995000D03*
%TO.P,U1,J3_6,IO21*%
%TO.N,/RS485-DIR*%
X137527500Y-93535000D03*
%TO.P,U1,J3_7,GND_J3_7*%
%TO.N,unconnected-(U1-GND_J3_7-PadJ3_7)*%
X137527500Y-96075000D03*
%TO.P,U1,J3_8,IO19*%
%TO.N,/MISO*%
X137527500Y-98615000D03*
%TO.P,U1,J3_9,IO18*%
%TO.N,/SCK*%
X137527500Y-101155000D03*
%TO.P,U1,J3_10,IO5*%
%TO.N,/CS_SD*%
X137527500Y-103695000D03*
%TO.P,U1,J3_11,IO17*%
%TO.N,/PENDANT-TX*%
X137527500Y-106235000D03*
%TO.P,U1,J3_12,IO16*%
%TO.N,/PENDANT-RX*%
X137527500Y-108775000D03*
%TO.P,U1,J3_13,IO4*%
%TO.N,/RS485-RX*%
X137527500Y-111315000D03*
%TO.P,U1,J3_14,IO0*%
%TO.N,unconnected-(U1-IO0-PadJ3_14)*%
X137527500Y-113855000D03*
%TO.P,U1,J3_15,IO2*%
%TO.N,unconnected-(U1-IO2-PadJ3_15)*%
X137527500Y-116395000D03*
%TO.P,U1,J3_16,IO15*%
%TO.N,/RS485-TX*%
X137527500Y-118935000D03*
%TO.P,U1,J3_17,SD1*%
%TO.N,unconnected-(U1-SD1-PadJ3_17)*%
X137527500Y-121475000D03*
%TO.P,U1,J3_18,SD0*%
%TO.N,unconnected-(U1-SD0-PadJ3_18)*%
X137527500Y-124015000D03*
%TO.P,U1,J3_19,CLK*%
%TO.N,unconnected-(U1-CLK-PadJ3_19)*%
X137527500Y-126555000D03*
%TD*%
D12*
%TO.P,R5,1*%
%TO.N,Net-(J2-Pin_1)*%
X78050000Y-72250000D03*
%TO.P,R5,2*%
%TO.N,VCC*%
X78050000Y-69150000D03*
%TD*%
D30*
%TO.P,U8,1,RO*%
%TO.N,/RS485-RX*%
X87175000Y-87655000D03*
%TO.P,U8,2,~{RE}*%
%TO.N,/RS485-DIR*%
X87175000Y-86385000D03*
%TO.P,U8,3,DE*%
X87175000Y-85115000D03*
%TO.P,U8,4,DI*%
%TO.N,/RS485-TX*%
X87175000Y-83845000D03*
%TO.P,U8,5,GND*%
%TO.N,GND*%
X82225000Y-83845000D03*
%TO.P,U8,6,A*%
%TO.N,Net-(J2-Pin_1)*%
X82225000Y-85115000D03*
%TO.P,U8,7,B*%
%TO.N,Net-(J2-Pin_2)*%
X82225000Y-86385000D03*
%TO.P,U8,8,VCC*%
%TO.N,VCC*%
X82225000Y-87655000D03*
%TD*%
D31*
%TO.P,J5,1,Pin_1*%
%TO.N,/5V*%
X143850000Y-103600000D03*
D32*
%TO.P,J5,2,Pin_2*%
%TO.N,GND*%
X143850000Y-106100000D03*
%TO.P,J5,3,Pin_3*%
%TO.N,/PENDANT-TX*%
X143850000Y-108600000D03*
%TO.P,J5,4,Pin_4*%
%TO.N,/PENDANT-RX*%
X143850000Y-111100000D03*
%TD*%
D23*
%TO.P,J4,1,Pin_1*%
%TO.N,/5V*%
X143850000Y-72840000D03*
D24*
%TO.P,J4,2,Pin_2*%
%TO.N,GND*%
X143850000Y-75380000D03*
%TO.P,J4,3,Pin_3*%
%TO.N,/TX*%
X143850000Y-77920000D03*
%TO.P,J4,4,Pin_4*%
%TO.N,/RX*%
X143850000Y-80460000D03*
%TD*%
D10*
%TO.P,U3,1*%
%TO.N,/5V*%
X85275000Y-72145000D03*
D11*
%TO.P,U3,2*%
%TO.N,Net-(R8-Pad1)*%
X82735000Y-72145000D03*
%TO.P,U3,3*%
%TO.N,GND*%
X82735000Y-79765000D03*
%TO.P,U3,4*%
%TO.N,Net-(R9-Pad2)*%
X85275000Y-79765000D03*
%TD*%
D33*
%TO.P,C5,1*%
%TO.N,/5V*%
X103250000Y-111737500D03*
%TO.P,C5,2*%
%TO.N,GND*%
X103250000Y-106662500D03*
%TD*%
D34*
%TO.P,J8,1,Pin_1*%
%TO.N,/X-STEP*%
X135740000Y-62800000D03*
D35*
%TO.P,J8,2,Pin_2*%
%TO.N,/X-DIR*%
X130660000Y-62800000D03*
%TO.P,J8,3,Pin_3*%
%TO.N,/Y1-STEP*%
X125580000Y-62800000D03*
%TO.P,J8,4,Pin_4*%
%TO.N,/Y-DIR*%
X120500000Y-62800000D03*
%TO.P,J8,5,Pin_5*%
%TO.N,/Y2-STEP*%
X115420000Y-62800000D03*
%TO.P,J8,6,Pin_6*%
%TO.N,/Y-DIR*%
X110340000Y-62800000D03*
%TO.P,J8,7,Pin_7*%
%TO.N,/Z-STEP*%
X105260000Y-62800000D03*
%TO.P,J8,8,Pin_8*%
%TO.N,/Z-DIR*%
X100180000Y-62800000D03*
%TO.P,J8,9,Pin_9*%
%TO.N,/Z-LIMIT-INPUT*%
X95100000Y-62800000D03*
%TO.P,J8,10,Pin_10*%
%TO.N,/Y2-LIMIT-INPUT*%
X90020000Y-62800000D03*
%TO.P,J8,11,Pin_11*%
%TO.N,/Y1-LIMIT-INPUT*%
X84940000Y-62800000D03*
%TO.P,J8,12,Pin_12*%
%TO.N,/X-LIMIT-INPUT*%
X79860000Y-62800000D03*
%TD*%
D18*
%TO.P,C2,1*%
%TO.N,GND*%
X93962500Y-93450000D03*
%TO.P,C2,2*%
%TO.N,/VIN*%
X90837500Y-93450000D03*
%TD*%
D10*
%TO.P,U7,1*%
%TO.N,/5V*%
X99500000Y-119970000D03*
D11*
%TO.P,U7,2*%
%TO.N,Net-(R20-Pad1)*%
X96960000Y-119970000D03*
%TO.P,U7,3*%
%TO.N,GND*%
X96960000Y-127590000D03*
%TO.P,U7,4*%
%TO.N,Net-(R21-Pad2)*%
X99500000Y-127590000D03*
%TD*%
D36*
%TO.N,/Z-PROBE*%
X108150000Y-128800000D03*
%TO.N,GND*%
X131950000Y-114100000D03*
%TO.N,VCC*%
X77700000Y-85050000D03*
X107450000Y-78750000D03*
X128450000Y-110250000D03*
X75250000Y-69650000D03*
%TD*%
D37*
%TO.N,Net-(J2-Pin_1)*%
X78050000Y-72450000D02*
X77350000Y-73150000D01*
X79800000Y-77500000D02*
X79750000Y-77500000D01*
X75583040Y-73150000D02*
X78227183Y-75794143D01*
X81250001Y-85115000D02*
X79800000Y-83664999D01*
X79750000Y-77316960D02*
X78227183Y-75794143D01*
X79750000Y-77500000D02*
X79750000Y-77316960D01*
X78050000Y-72250000D02*
X78050000Y-72450000D01*
X78050000Y-75800000D02*
X78050000Y-75750000D01*
X77350000Y-73150000D02*
X75450000Y-73150000D01*
X79800000Y-83664999D02*
X79800000Y-77500000D01*
X75450000Y-73150000D02*
X71750000Y-69450000D01*
X75450000Y-73150000D02*
X75583040Y-73150000D01*
X82225000Y-85115000D02*
X81250001Y-85115000D01*
D38*
%TO.N,/VIN*%
X88900000Y-92400000D02*
X82950000Y-92400000D01*
X79450000Y-95900000D02*
X79450000Y-96600000D01*
X79450000Y-96600000D02*
X79450000Y-110692500D01*
X75250000Y-100800000D02*
X79450000Y-96600000D01*
X82950000Y-92400000D02*
X79450000Y-95900000D01*
X71750000Y-100800000D02*
X75250000Y-100800000D01*
D37*
%TO.N,Net-(J2-Pin_2)*%
X74300000Y-77000000D02*
X76200000Y-78900000D01*
X74235488Y-76935488D02*
X70285488Y-76935488D01*
X78750000Y-85050000D02*
X80085000Y-86385000D01*
X71750000Y-74450000D02*
X74300000Y-77000000D01*
X76200000Y-78900000D02*
X76205857Y-78894143D01*
X68600000Y-68100000D02*
X71600000Y-65100000D01*
X68600000Y-75250000D02*
X68600000Y-68100000D01*
X78050000Y-78900000D02*
X78750000Y-79600000D01*
X76205857Y-78894143D02*
X78227183Y-78894143D01*
X80085000Y-86385000D02*
X82225000Y-86385000D01*
X70285488Y-76935488D02*
X68600000Y-75250000D01*
X74300000Y-77000000D02*
X74235488Y-76935488D01*
X78750000Y-79600000D02*
X78750000Y-85050000D01*
%TO.N,Net-(U2-BOOT)*%
X90120000Y-103780000D02*
X89250000Y-104650000D01*
X89250000Y-104650000D02*
X87662500Y-104650000D01*
X90120000Y-101975000D02*
X90120000Y-103780000D01*
%TO.N,/Z-PROBE*%
X113565000Y-85915000D02*
X114450000Y-86800000D01*
X112127500Y-85915000D02*
X112312500Y-86100000D01*
X112127500Y-85915000D02*
X113565000Y-85915000D01*
X114450000Y-86800000D02*
X114450000Y-127750000D01*
X113400000Y-128800000D02*
X108150000Y-128800000D01*
X114450000Y-127750000D02*
X113400000Y-128800000D01*
D39*
%TO.N,/5V*%
X107800000Y-124250000D02*
X110105000Y-126555000D01*
X110105000Y-126555000D02*
X112127500Y-126555000D01*
X107800000Y-112350000D02*
X107800000Y-124250000D01*
D37*
X97850000Y-109200000D02*
X105700000Y-109200000D01*
X105700000Y-109200000D02*
X107100000Y-110600000D01*
X97300000Y-108650000D02*
X97850000Y-109200000D01*
D39*
X107100000Y-111650000D02*
X107800000Y-112350000D01*
D37*
X107100000Y-110600000D02*
X107100000Y-111650000D01*
%TO.N,GND*%
X134750000Y-128100000D02*
X134750000Y-114100000D01*
X143850000Y-98400000D02*
X145950000Y-100500000D01*
X133350000Y-82600000D02*
X135115000Y-80835000D01*
X135115000Y-80835000D02*
X137527500Y-80835000D01*
X140350000Y-121450000D02*
X140350000Y-127750000D01*
X140350000Y-127750000D02*
X138950000Y-129150000D01*
X133350000Y-101150000D02*
X133350000Y-82600000D01*
X145950000Y-117950000D02*
X145250000Y-118650000D01*
X145250000Y-118650000D02*
X143150000Y-118650000D01*
X134750000Y-114100000D02*
X134750000Y-102550000D01*
X135800000Y-129150000D02*
X134750000Y-128100000D01*
X145950000Y-100500000D02*
X145950000Y-117950000D01*
X134750000Y-114100000D02*
X131950000Y-114100000D01*
X138950000Y-129150000D02*
X135800000Y-129150000D01*
X134750000Y-102550000D02*
X133350000Y-101150000D01*
X143150000Y-118650000D02*
X140350000Y-121450000D01*
%TO.N,VCC*%
X78400000Y-88037500D02*
X79450000Y-88037500D01*
X130037500Y-108150000D02*
X130037500Y-108662500D01*
X78050000Y-69150000D02*
X75800000Y-69150000D01*
X82225000Y-87655000D02*
X79832500Y-87655000D01*
X77500000Y-85250000D02*
X77500000Y-87137500D01*
X77700000Y-85050000D02*
X77500000Y-85050000D01*
X77500000Y-87137500D02*
X78400000Y-88037500D01*
X128450000Y-109737500D02*
X130037500Y-108150000D01*
X77700000Y-85050000D02*
X77500000Y-85250000D01*
X128450000Y-88900000D02*
X128450000Y-110250000D01*
X79832500Y-87655000D02*
X79450000Y-88037500D01*
X107450000Y-78750000D02*
X118300000Y-78750000D01*
X77500000Y-85050000D02*
X71750000Y-90800000D01*
X118300000Y-78750000D02*
X128450000Y-88900000D01*
X82217500Y-87662500D02*
X82225000Y-87655000D01*
X128450000Y-110250000D02*
X128450000Y-109737500D01*
X75250000Y-69650000D02*
X75300000Y-69650000D01*
X75300000Y-69650000D02*
X75800000Y-69150000D01*
%TO.N,/RS485-TX*%
X80850000Y-81200000D02*
X80850000Y-70000000D01*
X82250000Y-82600000D02*
X80850000Y-81200000D01*
X84700000Y-66150000D02*
X137550000Y-66150000D01*
X80850000Y-70000000D02*
X84700000Y-66150000D01*
X141400000Y-70000000D02*
X141400000Y-115062500D01*
X87175000Y-83845000D02*
X85595000Y-83845000D01*
X137550000Y-66150000D02*
X141400000Y-70000000D01*
X84350000Y-82600000D02*
X82250000Y-82600000D01*
X85595000Y-83845000D02*
X84350000Y-82600000D01*
X141400000Y-115062500D02*
X137527500Y-118935000D01*
%TO.N,Net-(U2-VSENSE)*%
X97275000Y-103050000D02*
X97275000Y-104300000D01*
X93930000Y-101975000D02*
X93930000Y-103030000D01*
X97275000Y-104300000D02*
X97275000Y-105525000D01*
X93930000Y-103030000D02*
X95200000Y-104300000D01*
X97275000Y-105525000D02*
X97300000Y-105550000D01*
X95200000Y-104300000D02*
X97275000Y-104300000D01*
%TO.N,/RS485-RX*%
X86800000Y-82250000D02*
X86800000Y-68250000D01*
X87150000Y-82600000D02*
X87900522Y-82600000D01*
X137527500Y-111315000D02*
X140350000Y-108492500D01*
X86800000Y-82250000D02*
X87150000Y-82600000D01*
X140350000Y-108492500D02*
X140350000Y-70574206D01*
X87900522Y-82600000D02*
X89250000Y-83949478D01*
X89250000Y-86554999D02*
X88149999Y-87655000D01*
X89250000Y-83949478D02*
X89250000Y-86554999D01*
X140350000Y-70574206D02*
X137325794Y-67550000D01*
X88149999Y-87655000D02*
X87175000Y-87655000D01*
X86800000Y-68250000D02*
X87500000Y-67550000D01*
X137325794Y-67550000D02*
X87500000Y-67550000D01*
%TO.N,/RS485-DIR*%
X86759478Y-86100000D02*
X85649000Y-87210478D01*
X139300000Y-71050000D02*
X139300000Y-93100000D01*
X86100000Y-88900000D02*
X91350000Y-88900000D01*
X93800000Y-69650000D02*
X94500000Y-68950000D01*
X137200000Y-68950000D02*
X139300000Y-71050000D01*
X139300000Y-93100000D02*
X138865000Y-93535000D01*
X87175000Y-86100000D02*
X87175000Y-86385000D01*
X91350000Y-88900000D02*
X93800000Y-86450000D01*
X87175000Y-85115000D02*
X87175000Y-86100000D01*
X94500000Y-68950000D02*
X137200000Y-68950000D01*
X85649000Y-87210478D02*
X85649000Y-88449000D01*
X138865000Y-93535000D02*
X137527500Y-93535000D01*
X87175000Y-86100000D02*
X86759478Y-86100000D01*
X93800000Y-86450000D02*
X93800000Y-69650000D01*
X85649000Y-88449000D02*
X86100000Y-88900000D01*
%TD*%
%TA.AperFunction,Conductor*%
%TO.N,GND*%
G36*
X104650000Y-108349500D02*
G01*
X99750000Y-108349500D01*
X99750000Y-100800000D01*
X94530836Y-100800000D01*
X94472335Y-100756206D01*
X94472328Y-100756202D01*
X94337486Y-100705910D01*
X94337485Y-100705909D01*
X94337483Y-100705909D01*
X94277873Y-100699500D01*
X94277863Y-100699500D01*
X93582129Y-100699500D01*
X93582123Y-100699501D01*
X93522516Y-100705908D01*
X93387671Y-100756202D01*
X93387665Y-100756205D01*
X93369309Y-100769947D01*
X93303844Y-100794363D01*
X93235571Y-100779510D01*
X93220691Y-100769947D01*
X93202334Y-100756205D01*
X93202328Y-100756202D01*
X93067486Y-100705910D01*
X93067485Y-100705909D01*
X93067483Y-100705909D01*
X93007873Y-100699500D01*
X93007863Y-100699500D01*
X92312129Y-100699500D01*
X92312123Y-100699501D01*
X92252516Y-100705908D01*
X92117671Y-100756202D01*
X92117665Y-100756205D01*
X92099309Y-100769947D01*
X92033844Y-100794363D01*
X91965571Y-100779510D01*
X91950691Y-100769947D01*
X91932334Y-100756205D01*
X91932328Y-100756202D01*
X91797486Y-100705910D01*
X91797485Y-100705909D01*
X91797483Y-100705909D01*
X91737873Y-100699500D01*
X91737863Y-100699500D01*
X91042129Y-100699500D01*
X91042123Y-100699501D01*
X90982516Y-100705908D01*
X90847671Y-100756202D01*
X90847665Y-100756205D01*
X90829309Y-100769947D01*
X90763844Y-100794363D01*
X90695571Y-100779510D01*
X90680691Y-100769947D01*
X90662334Y-100756205D01*
X90662328Y-100756202D01*
X90527486Y-100705910D01*
X90527485Y-100705909D01*
X90527483Y-100705909D01*
X90467873Y-100699500D01*
X90467863Y-100699500D01*
X89772129Y-100699500D01*
X89772123Y-100699501D01*
X89712516Y-100705908D01*
X89577671Y-100756202D01*
X89577664Y-100756206D01*
X89519163Y-100800000D01*
X88200000Y-100800000D01*
X88200000Y-101850000D01*
X86100000Y-101850000D01*
X86100000Y-98350000D01*
X88550000Y-98350000D01*
X88562057Y-97650000D01*
X89415408Y-97644701D01*
X89462452Y-97707544D01*
X89462455Y-97707547D01*
X89577664Y-97793793D01*
X89577671Y-97793797D01*
X89622618Y-97810561D01*
X89712517Y-97844091D01*
X89772127Y-97850500D01*
X90467872Y-97850499D01*
X90527483Y-97844091D01*
X90575757Y-97826086D01*
X90662329Y-97793797D01*
X90662329Y-97793796D01*
X90662331Y-97793796D01*
X90680688Y-97780053D01*
X90746150Y-97755635D01*
X90814424Y-97770485D01*
X90829308Y-97780050D01*
X90847665Y-97793793D01*
X90847669Y-97793796D01*
X90847670Y-97793797D01*
X90922155Y-97821577D01*
X90982517Y-97844091D01*
X91042127Y-97850500D01*
X91737872Y-97850499D01*
X91797483Y-97844091D01*
X91932331Y-97793796D01*
X92047546Y-97707546D01*
X92107101Y-97627989D01*
X92362979Y-97626402D01*
X92371624Y-95752135D01*
X93129500Y-95752135D01*
X93129500Y-97397870D01*
X93129501Y-97397876D01*
X93135908Y-97457483D01*
X93186202Y-97592328D01*
X93186206Y-97592335D01*
X93272452Y-97707544D01*
X93272455Y-97707547D01*
X93387664Y-97793793D01*
X93387671Y-97793797D01*
X93432618Y-97810561D01*
X93522517Y-97844091D01*
X93582127Y-97850500D01*
X94277872Y-97850499D01*
X94337483Y-97844091D01*
X94472331Y-97793796D01*
X94587546Y-97707546D01*
X94673796Y-97592331D01*
X94724091Y-97457483D01*
X94730500Y-97397873D01*
X94730499Y-95752128D01*
X94724091Y-95692517D01*
X94673796Y-95557669D01*
X94673795Y-95557668D01*
X94673793Y-95557664D01*
X94587547Y-95442455D01*
X94587544Y-95442452D01*
X94472335Y-95356206D01*
X94472328Y-95356202D01*
X94337486Y-95305910D01*
X94337485Y-95305909D01*
X94337483Y-95305909D01*
X94277873Y-95299500D01*
X94277863Y-95299500D01*
X93582129Y-95299500D01*
X93582123Y-95299501D01*
X93522516Y-95305908D01*
X93387671Y-95356202D01*
X93387664Y-95356206D01*
X93272455Y-95442452D01*
X93272452Y-95442455D01*
X93186206Y-95557664D01*
X93186202Y-95557671D01*
X93135908Y-95692517D01*
X93129501Y-95752116D01*
X93129501Y-95752123D01*
X93129500Y-95752135D01*
X92371624Y-95752135D01*
X92400000Y-89600000D01*
X104650000Y-89600000D01*
X104650000Y-108349500D01*
G37*
%TD.AperFunction*%
%TD*%
%TA.AperFunction,Conductor*%
%TO.N,Net-(U2-PH)*%
G36*
X88493039Y-94869685D02*
G01*
X88538794Y-94922489D01*
X88550000Y-94974000D01*
X88550000Y-95200000D01*
X90176000Y-95200000D01*
X90243039Y-95219685D01*
X90288794Y-95272489D01*
X90300000Y-95324000D01*
X90300000Y-97175500D01*
X90280315Y-97242539D01*
X90227511Y-97288294D01*
X90176000Y-97299500D01*
X89827395Y-97299500D01*
X89760356Y-97279815D01*
X89746777Y-97269716D01*
X89686059Y-97217761D01*
X89686053Y-97217757D01*
X89554807Y-97158801D01*
X89412272Y-97139211D01*
X89412269Y-97139211D01*
X89229408Y-97140346D01*
X88558907Y-97144510D01*
X88498741Y-97148481D01*
X88360018Y-97186631D01*
X88237652Y-97262324D01*
X88237650Y-97262326D01*
X88203852Y-97300000D01*
X88200000Y-97300000D01*
X88200000Y-97304294D01*
X88168301Y-97339629D01*
X88141573Y-97369421D01*
X88079557Y-97499253D01*
X88072052Y-97545757D01*
X88041937Y-97608804D01*
X87982518Y-97645561D01*
X87949636Y-97650000D01*
X85750000Y-97650000D01*
X85750000Y-97943608D01*
X85730315Y-98010647D01*
X85719713Y-98024810D01*
X85674750Y-98076700D01*
X85674744Y-98076709D01*
X85614976Y-98207580D01*
X85614975Y-98207585D01*
X85594500Y-98349999D01*
X85594500Y-101850002D01*
X85599644Y-101921940D01*
X85628338Y-102019660D01*
X85640181Y-102059992D01*
X85717969Y-102181032D01*
X85717971Y-102181034D01*
X85719711Y-102183042D01*
X85720817Y-102185464D01*
X85722763Y-102188492D01*
X85722327Y-102188771D01*
X85748737Y-102246597D01*
X85750000Y-102264247D01*
X85750000Y-115726000D01*
X85730315Y-115793039D01*
X85677511Y-115838794D01*
X85626000Y-115850000D01*
X83074000Y-115850000D01*
X83006961Y-115830315D01*
X82961206Y-115777511D01*
X82950000Y-115726000D01*
X82950000Y-94974000D01*
X82969685Y-94906961D01*
X83022489Y-94861206D01*
X83074000Y-94850000D01*
X88426000Y-94850000D01*
X88493039Y-94869685D01*
G37*
%TD.AperFunction*%
%TD*%
%TA.AperFunction,Conductor*%
%TO.N,/VIN*%
G36*
X91621400Y-89733247D02*
G01*
X91676577Y-89776110D01*
X91699822Y-89842000D01*
X91700000Y-89848637D01*
X91700000Y-97175500D01*
X91680315Y-97242539D01*
X91627511Y-97288294D01*
X91576000Y-97299500D01*
X91124000Y-97299500D01*
X91056961Y-97279815D01*
X91011206Y-97227011D01*
X91000000Y-97175500D01*
X91000000Y-94500000D01*
X90074000Y-94500000D01*
X90006961Y-94480315D01*
X89961206Y-94427511D01*
X89950000Y-94376000D01*
X89950000Y-94150000D01*
X88674000Y-94150000D01*
X88606961Y-94130315D01*
X88561206Y-94077511D01*
X88550000Y-94026000D01*
X88550000Y-89874500D01*
X88569685Y-89807461D01*
X88622489Y-89761706D01*
X88674000Y-89750500D01*
X91433768Y-89750500D01*
X91433768Y-89750499D01*
X91551809Y-89727020D01*
X91621400Y-89733247D01*
G37*
%TD.AperFunction*%
%TD*%
%TA.AperFunction,Conductor*%
%TO.N,GND*%
G36*
X113278566Y-114652514D02*
G01*
X113278566Y-114652513D01*
X113324886Y-114588760D01*
X113365015Y-114510004D01*
X113412990Y-114459208D01*
X113480810Y-114442413D01*
X113546945Y-114464950D01*
X113590397Y-114519665D01*
X113599500Y-114566299D01*
X113599500Y-115682597D01*
X113579815Y-115749636D01*
X113527011Y-115795391D01*
X113457853Y-115805335D01*
X113394297Y-115776310D01*
X113365016Y-115738893D01*
X113325314Y-115660976D01*
X113195747Y-115482641D01*
X113195743Y-115482636D01*
X113039863Y-115326756D01*
X113039858Y-115326752D01*
X112899819Y-115225008D01*
X112857153Y-115169678D01*
X112851174Y-115100065D01*
X112883779Y-115038270D01*
X112899819Y-115024372D01*
X112925013Y-115006066D01*
X112925014Y-115006066D01*
X112216085Y-114297138D01*
X112301194Y-114274333D01*
X112403806Y-114215090D01*
X112487590Y-114131306D01*
X112546833Y-114028694D01*
X112569637Y-113943585D01*
X113278566Y-114652514D01*
G37*
%TD.AperFunction*%
%TA.AperFunction,Conductor*%
G36*
X113546946Y-111926054D02*
G01*
X113590397Y-111980769D01*
X113599500Y-112027402D01*
X113599500Y-113143700D01*
X113579815Y-113210739D01*
X113527011Y-113256494D01*
X113457853Y-113266438D01*
X113394297Y-113237413D01*
X113365015Y-113199995D01*
X113324888Y-113121243D01*
X113278566Y-113057485D01*
X113278565Y-113057485D01*
X112569637Y-113766413D01*
X112546833Y-113681306D01*
X112487590Y-113578694D01*
X112403806Y-113494910D01*
X112301194Y-113435667D01*
X112216083Y-113412861D01*
X112925013Y-112703932D01*
X112899819Y-112685628D01*
X112857153Y-112630298D01*
X112851174Y-112560685D01*
X112883779Y-112498889D01*
X112899813Y-112484994D01*
X113039865Y-112383242D01*
X113195742Y-112227365D01*
X113325315Y-112049022D01*
X113365015Y-111971106D01*
X113412990Y-111920311D01*
X113480811Y-111903516D01*
X113546946Y-111926054D01*
G37*
%TD.AperFunction*%
%TA.AperFunction,Conductor*%
G36*
X89281401Y-100857372D02*
G01*
X89281402Y-100857376D01*
X89331344Y-100991275D01*
X89336328Y-101060967D01*
X89331346Y-101077938D01*
X89325908Y-101092517D01*
X89319512Y-101152014D01*
X89319501Y-101152123D01*
X89319500Y-101152135D01*
X89319500Y-101660449D01*
X89310062Y-101707896D01*
X89302184Y-101726918D01*
X89302183Y-101726922D01*
X89302182Y-101726925D01*
X89302181Y-101726925D01*
X89269500Y-101891228D01*
X89269500Y-103376349D01*
X89249815Y-103443388D01*
X89233181Y-103464030D01*
X88965864Y-103731346D01*
X88904541Y-103764831D01*
X88834849Y-103759847D01*
X88778916Y-103717975D01*
X88760478Y-103682669D01*
X88759814Y-103680666D01*
X88667712Y-103531344D01*
X88543656Y-103407288D01*
X88394334Y-103315186D01*
X88227797Y-103260001D01*
X88227795Y-103260000D01*
X88125010Y-103249500D01*
X87199998Y-103249500D01*
X87199980Y-103249501D01*
X87097203Y-103260000D01*
X87097200Y-103260001D01*
X86930668Y-103315185D01*
X86930663Y-103315187D01*
X86781342Y-103407289D01*
X86657289Y-103531342D01*
X86565187Y-103680663D01*
X86565186Y-103680667D01*
X86523913Y-103805221D01*
X86510001Y-103847204D01*
X86510000Y-103847205D01*
X86502858Y-103917120D01*
X86476462Y-103981811D01*
X86419281Y-104021963D01*
X86349470Y-104024826D01*
X86289193Y-103989492D01*
X86257588Y-103927179D01*
X86255500Y-103904517D01*
X86255500Y-102264248D01*
X86254210Y-102228153D01*
X86252908Y-102209957D01*
X86267755Y-102141683D01*
X86317157Y-102092275D01*
X86385429Y-102077418D01*
X86432888Y-102090619D01*
X86442697Y-102095617D01*
X86622901Y-102143902D01*
X86700382Y-102149999D01*
X86899999Y-102149999D01*
X86900000Y-102149998D01*
X86900000Y-101850000D01*
X87400000Y-101850000D01*
X87400000Y-102149999D01*
X87599609Y-102149999D01*
X87599627Y-102149998D01*
X87677098Y-102143902D01*
X87857306Y-102095616D01*
X88023531Y-102010919D01*
X88168513Y-101893513D01*
X88285919Y-101748531D01*
X88370616Y-101582306D01*
X88418902Y-101402098D01*
X88424999Y-101324624D01*
X88425000Y-101324612D01*
X88425000Y-100800000D01*
X89275232Y-100800000D01*
X89281401Y-100857372D01*
G37*
%TD.AperFunction*%
%TA.AperFunction,Conductor*%
G36*
X88550000Y-98350000D02*
G01*
X86113726Y-98350000D01*
X86116394Y-98339974D01*
X86120966Y-98331989D01*
X86124391Y-98327740D01*
X86134993Y-98313577D01*
X86155567Y-98283944D01*
X86183486Y-98222811D01*
X86186310Y-98217880D01*
X86207574Y-98197460D01*
X86226877Y-98175184D01*
X86232487Y-98173536D01*
X86236706Y-98169486D01*
X86265629Y-98163805D01*
X86293916Y-98155500D01*
X87949622Y-98155500D01*
X87949636Y-98155500D01*
X88017264Y-98150956D01*
X88017270Y-98150955D01*
X88017272Y-98150955D01*
X88021346Y-98150404D01*
X88050146Y-98146517D01*
X88116566Y-98132964D01*
X88248453Y-98075455D01*
X88307872Y-98038698D01*
X88418213Y-97946364D01*
X88498073Y-97826681D01*
X88528188Y-97763634D01*
X88528190Y-97763629D01*
X88536682Y-97736446D01*
X88561200Y-97699699D01*
X88550000Y-98350000D01*
G37*
%TD.AperFunction*%
%TA.AperFunction,Conductor*%
G36*
X89150237Y-97646348D02*
G01*
X88654231Y-97649427D01*
X88654258Y-97649426D01*
X89150233Y-97646347D01*
X89150237Y-97646348D01*
G37*
%TD.AperFunction*%
%TA.AperFunction,Conductor*%
G36*
X88635000Y-79817661D02*
G01*
X88662259Y-79919394D01*
X88714920Y-80010606D01*
X88789394Y-80085080D01*
X88880606Y-80137741D01*
X88982339Y-80165000D01*
X88988553Y-80165000D01*
X88237485Y-80916065D01*
X88237485Y-80916066D01*
X88301243Y-80962388D01*
X88497589Y-81062432D01*
X88707164Y-81130526D01*
X88924819Y-81165000D01*
X89145181Y-81165000D01*
X89362835Y-81130526D01*
X89572410Y-81062432D01*
X89768760Y-80962386D01*
X89832513Y-80916066D01*
X89832514Y-80916066D01*
X89081447Y-80165000D01*
X89087661Y-80165000D01*
X89189394Y-80137741D01*
X89280606Y-80085080D01*
X89355080Y-80010606D01*
X89407741Y-79919394D01*
X89435000Y-79817661D01*
X89435000Y-79811448D01*
X90186066Y-80562514D01*
X90186066Y-80562513D01*
X90204372Y-80537319D01*
X90259701Y-80494653D01*
X90329315Y-80488674D01*
X90391110Y-80521279D01*
X90405008Y-80537319D01*
X90506752Y-80677358D01*
X90506756Y-80677363D01*
X90662636Y-80833243D01*
X90662641Y-80833247D01*
X90776632Y-80916065D01*
X90840978Y-80962815D01*
X90969375Y-81028237D01*
X91037393Y-81062895D01*
X91037396Y-81062896D01*
X91091208Y-81080380D01*
X91247049Y-81131015D01*
X91464778Y-81165500D01*
X91464779Y-81165500D01*
X91685221Y-81165500D01*
X91685222Y-81165500D01*
X91902951Y-81131015D01*
X92112606Y-81062895D01*
X92309022Y-80962815D01*
X92487365Y-80833242D01*
X92643242Y-80677365D01*
X92725182Y-80564582D01*
X92780511Y-80521918D01*
X92850124Y-80515939D01*
X92911920Y-80548544D01*
X92946277Y-80609383D01*
X92949500Y-80637469D01*
X92949500Y-86046349D01*
X92929815Y-86113388D01*
X92913181Y-86134030D01*
X91034030Y-88013181D01*
X90972707Y-88046666D01*
X90946349Y-88049500D01*
X89257650Y-88049500D01*
X89190611Y-88029815D01*
X89144856Y-87977011D01*
X89134912Y-87907853D01*
X89163937Y-87844297D01*
X89169969Y-87837819D01*
X89910623Y-87097164D01*
X89910626Y-87097161D01*
X89928562Y-87070318D01*
X90003703Y-86957862D01*
X90018487Y-86922171D01*
X90067816Y-86803081D01*
X90100500Y-86638766D01*
X90100500Y-83865711D01*
X90067816Y-83701396D01*
X90024540Y-83596919D01*
X90003704Y-83546615D01*
X89910626Y-83407316D01*
X89910622Y-83407312D01*
X89910620Y-83407309D01*
X89910619Y-83407308D01*
X88442687Y-81939375D01*
X88442683Y-81939372D01*
X88303391Y-81846299D01*
X88303379Y-81846292D01*
X88156611Y-81785501D01*
X88156604Y-81785496D01*
X88156604Y-81785498D01*
X88148608Y-81782185D01*
X88148597Y-81782182D01*
X87984293Y-81749500D01*
X87984289Y-81749500D01*
X87774500Y-81749500D01*
X87707461Y-81729815D01*
X87661706Y-81677011D01*
X87650500Y-81625500D01*
X87650500Y-80622854D01*
X87670185Y-80555815D01*
X87722989Y-80510060D01*
X87792147Y-80500116D01*
X87855703Y-80529141D01*
X87874819Y-80549970D01*
X87883932Y-80562513D01*
X88635000Y-79811445D01*
X88635000Y-79817661D01*
G37*
%TD.AperFunction*%
%TA.AperFunction,Conductor*%
G36*
X83886066Y-80562514D02*
G01*
X83886066Y-80562513D01*
X83904372Y-80537319D01*
X83959701Y-80494653D01*
X84029315Y-80488674D01*
X84091110Y-80521279D01*
X84105008Y-80537319D01*
X84206752Y-80677358D01*
X84206756Y-80677363D01*
X84362636Y-80833243D01*
X84362641Y-80833247D01*
X84476632Y-80916065D01*
X84540978Y-80962815D01*
X84669375Y-81028237D01*
X84737393Y-81062895D01*
X84737396Y-81062896D01*
X84791208Y-81080380D01*
X84947049Y-81131015D01*
X85164778Y-81165500D01*
X85164779Y-81165500D01*
X85385221Y-81165500D01*
X85385222Y-81165500D01*
X85602951Y-81131015D01*
X85787184Y-81071154D01*
X85857023Y-81069160D01*
X85916856Y-81105240D01*
X85947684Y-81167941D01*
X85949500Y-81189086D01*
X85949500Y-82333771D01*
X85982181Y-82498074D01*
X85982184Y-82498083D01*
X85996514Y-82532678D01*
X86046292Y-82652856D01*
X86046299Y-82652869D01*
X86142757Y-82797227D01*
X86141696Y-82797935D01*
X86145439Y-82806749D01*
X86156045Y-82818989D01*
X86158813Y-82838241D01*
X86166418Y-82856149D01*
X86163683Y-82872114D01*
X86165989Y-82888147D01*
X86157907Y-82905842D01*
X86154624Y-82925016D01*
X86143693Y-82936968D01*
X86136964Y-82951703D01*
X86120599Y-82962219D01*
X86107471Y-82976575D01*
X86091191Y-82981118D01*
X86078186Y-82989477D01*
X86043251Y-82994500D01*
X85998651Y-82994500D01*
X85931612Y-82974815D01*
X85910970Y-82958181D01*
X84892165Y-81939375D01*
X84892161Y-81939372D01*
X84752869Y-81846299D01*
X84752857Y-81846292D01*
X84606089Y-81785501D01*
X84606082Y-81785496D01*
X84606082Y-81785498D01*
X84598086Y-81782185D01*
X84598075Y-81782182D01*
X84433771Y-81749500D01*
X84433767Y-81749500D01*
X82653651Y-81749500D01*
X82586612Y-81729815D01*
X82565970Y-81713181D01*
X82144534Y-81291745D01*
X82111049Y-81230422D01*
X82116033Y-81160730D01*
X82157905Y-81104797D01*
X82223369Y-81080380D01*
X82270533Y-81086133D01*
X82407164Y-81130526D01*
X82624819Y-81165000D01*
X82845181Y-81165000D01*
X83062835Y-81130526D01*
X83272410Y-81062432D01*
X83468760Y-80962386D01*
X83532513Y-80916066D01*
X83532514Y-80916066D01*
X82781447Y-80165000D01*
X82787661Y-80165000D01*
X82889394Y-80137741D01*
X82980606Y-80085080D01*
X83055080Y-80010606D01*
X83107741Y-79919394D01*
X83135000Y-79817661D01*
X83135000Y-79811448D01*
X83886066Y-80562514D01*
G37*
%TD.AperFunction*%
%TA.AperFunction,Conductor*%
G36*
X87855703Y-72909992D02*
G01*
X87874815Y-72930815D01*
X87950938Y-73035591D01*
X87966758Y-73057365D01*
X88122636Y-73213243D01*
X88122641Y-73213247D01*
X88276602Y-73325105D01*
X88300978Y-73342815D01*
X88409480Y-73398100D01*
X88497393Y-73442895D01*
X88497396Y-73442896D01*
X88568548Y-73466014D01*
X88707049Y-73511015D01*
X88924778Y-73545500D01*
X88924779Y-73545500D01*
X89145221Y-73545500D01*
X89145222Y-73545500D01*
X89362951Y-73511015D01*
X89572606Y-73442895D01*
X89769022Y-73342815D01*
X89947365Y-73213242D01*
X90103242Y-73057365D01*
X90110978Y-73046717D01*
X90166305Y-73004049D01*
X90235918Y-72998066D01*
X90297715Y-73030669D01*
X90329004Y-73080591D01*
X90333253Y-73093412D01*
X90340186Y-73114334D01*
X90432288Y-73263656D01*
X90556344Y-73387712D01*
X90705666Y-73479814D01*
X90872203Y-73534999D01*
X90974991Y-73545500D01*
X92175008Y-73545499D01*
X92277797Y-73534999D01*
X92444334Y-73479814D01*
X92593656Y-73387712D01*
X92717712Y-73263656D01*
X92719960Y-73260010D01*
X92722155Y-73258035D01*
X92722193Y-73257989D01*
X92722201Y-73257995D01*
X92771904Y-73213286D01*
X92840866Y-73202061D01*
X92904950Y-73229901D01*
X92943808Y-73287968D01*
X92949500Y-73325105D01*
X92949500Y-78892530D01*
X92929815Y-78959569D01*
X92877011Y-79005324D01*
X92807853Y-79015268D01*
X92744297Y-78986243D01*
X92725182Y-78965415D01*
X92643247Y-78852641D01*
X92643243Y-78852636D01*
X92487363Y-78696756D01*
X92487358Y-78696752D01*
X92309025Y-78567187D01*
X92309024Y-78567186D01*
X92309022Y-78567185D01*
X92221542Y-78522611D01*
X92112606Y-78467104D01*
X92112603Y-78467103D01*
X91902952Y-78398985D01*
X91794086Y-78381742D01*
X91685222Y-78364500D01*
X91464778Y-78364500D01*
X91392201Y-78375995D01*
X91247047Y-78398985D01*
X91037396Y-78467103D01*
X91037393Y-78467104D01*
X90840974Y-78567187D01*
X90662641Y-78696752D01*
X90662636Y-78696756D01*
X90506756Y-78852636D01*
X90405008Y-78992681D01*
X90349678Y-79035346D01*
X90280065Y-79041325D01*
X90218270Y-79008719D01*
X90204371Y-78992680D01*
X90186066Y-78967485D01*
X90186065Y-78967485D01*
X89435000Y-79718551D01*
X89435000Y-79712339D01*
X89407741Y-79610606D01*
X89355080Y-79519394D01*
X89280606Y-79444920D01*
X89189394Y-79392259D01*
X89087661Y-79365000D01*
X89081445Y-79365000D01*
X89832513Y-78613932D01*
X89768756Y-78567611D01*
X89572410Y-78467567D01*
X89362835Y-78399473D01*
X89145181Y-78365000D01*
X88924819Y-78365000D01*
X88707164Y-78399473D01*
X88497589Y-78467567D01*
X88301233Y-78567616D01*
X88237485Y-78613931D01*
X88237485Y-78613932D01*
X88988553Y-79365000D01*
X88982339Y-79365000D01*
X88880606Y-79392259D01*
X88789394Y-79444920D01*
X88714920Y-79519394D01*
X88662259Y-79610606D01*
X88635000Y-79712339D01*
X88635000Y-79718553D01*
X87883932Y-78967485D01*
X87883930Y-78967485D01*
X87874818Y-78980028D01*
X87849836Y-78999292D01*
X87826011Y-79019937D01*
X87822388Y-79020457D01*
X87819489Y-79022694D01*
X87788068Y-79025392D01*
X87756853Y-79029881D01*
X87753521Y-79028359D01*
X87749875Y-79028673D01*
X87721984Y-79013957D01*
X87693297Y-79000856D01*
X87691317Y-78997776D01*
X87688080Y-78996068D01*
X87672573Y-78968609D01*
X87655523Y-78942078D01*
X87654816Y-78937165D01*
X87653723Y-78935229D01*
X87650500Y-78907143D01*
X87650500Y-73003705D01*
X87670185Y-72936666D01*
X87722989Y-72890911D01*
X87792147Y-72880967D01*
X87855703Y-72909992D01*
G37*
%TD.AperFunction*%
%TA.AperFunction,Conductor*%
G36*
X83912651Y-73000065D02*
G01*
X83935918Y-72998066D01*
X83946738Y-73003774D01*
X83958900Y-73005098D01*
X83977062Y-73019772D01*
X83997715Y-73030669D01*
X84005068Y-73042402D01*
X84013247Y-73049010D01*
X84029004Y-73080591D01*
X84033253Y-73093412D01*
X84040186Y-73114334D01*
X84132288Y-73263656D01*
X84256344Y-73387712D01*
X84405666Y-73479814D01*
X84572203Y-73534999D01*
X84674991Y-73545500D01*
X85825500Y-73545499D01*
X85892539Y-73565184D01*
X85938294Y-73617987D01*
X85949500Y-73669499D01*
X85949500Y-78340913D01*
X85929815Y-78407952D01*
X85877011Y-78453707D01*
X85807853Y-78463651D01*
X85787182Y-78458844D01*
X85602952Y-78398985D01*
X85494086Y-78381742D01*
X85385222Y-78364500D01*
X85164778Y-78364500D01*
X85092201Y-78375995D01*
X84947047Y-78398985D01*
X84737396Y-78467103D01*
X84737393Y-78467104D01*
X84540974Y-78567187D01*
X84362641Y-78696752D01*
X84362636Y-78696756D01*
X84206756Y-78852636D01*
X84105008Y-78992681D01*
X84049678Y-79035346D01*
X83980065Y-79041325D01*
X83918270Y-79008719D01*
X83904371Y-78992680D01*
X83886066Y-78967485D01*
X83886065Y-78967485D01*
X83135000Y-79718551D01*
X83135000Y-79712339D01*
X83107741Y-79610606D01*
X83055080Y-79519394D01*
X82980606Y-79444920D01*
X82889394Y-79392259D01*
X82787661Y-79365000D01*
X82781446Y-79365000D01*
X83532513Y-78613932D01*
X83468756Y-78567611D01*
X83272410Y-78467567D01*
X83062835Y-78399473D01*
X82845181Y-78365000D01*
X82624819Y-78365000D01*
X82407164Y-78399473D01*
X82197589Y-78467567D01*
X82001236Y-78567615D01*
X81897385Y-78643067D01*
X81831579Y-78666547D01*
X81763525Y-78650721D01*
X81714830Y-78600615D01*
X81700500Y-78542749D01*
X81700500Y-73367869D01*
X81720185Y-73300830D01*
X81772989Y-73255075D01*
X81842147Y-73245131D01*
X81897385Y-73267551D01*
X82000978Y-73342815D01*
X82109480Y-73398100D01*
X82197393Y-73442895D01*
X82197396Y-73442896D01*
X82268548Y-73466014D01*
X82407049Y-73511015D01*
X82624778Y-73545500D01*
X82624779Y-73545500D01*
X82845221Y-73545500D01*
X82845222Y-73545500D01*
X83062951Y-73511015D01*
X83272606Y-73442895D01*
X83469022Y-73342815D01*
X83647365Y-73213242D01*
X83803242Y-73057365D01*
X83810978Y-73046717D01*
X83820665Y-73039246D01*
X83826921Y-73028734D01*
X83847813Y-73018309D01*
X83866305Y-73004049D01*
X83878494Y-73003001D01*
X83889440Y-72997540D01*
X83912651Y-73000065D01*
G37*
%TD.AperFunction*%
%TA.AperFunction,Conductor*%
G36*
X143379415Y-75574923D02*
G01*
X143445899Y-75690078D01*
X143539922Y-75784101D01*
X143655077Y-75850585D01*
X143716508Y-75867045D01*
X142980893Y-76602658D01*
X142982448Y-76622405D01*
X142968084Y-76690783D01*
X142931717Y-76732451D01*
X142872490Y-76775482D01*
X142705485Y-76942487D01*
X142705485Y-76942488D01*
X142705483Y-76942490D01*
X142677532Y-76980961D01*
X142566657Y-77133566D01*
X142484985Y-77293857D01*
X142437010Y-77344653D01*
X142369189Y-77361448D01*
X142303054Y-77338911D01*
X142259603Y-77284195D01*
X142250500Y-77237562D01*
X142250500Y-76061335D01*
X142270185Y-75994296D01*
X142322989Y-75948541D01*
X142392147Y-75938597D01*
X142455703Y-75967622D01*
X142484985Y-76005040D01*
X142567087Y-76166174D01*
X142627338Y-76249104D01*
X142627340Y-76249105D01*
X143362954Y-75513491D01*
X143379415Y-75574923D01*
G37*
%TD.AperFunction*%
%TA.AperFunction,Conductor*%
G36*
X142455703Y-73890335D02*
G01*
X142490682Y-73940715D01*
X142506202Y-73982328D01*
X142506206Y-73982335D01*
X142592452Y-74097544D01*
X142592455Y-74097547D01*
X142707664Y-74183793D01*
X142707671Y-74183797D01*
X142752618Y-74200561D01*
X142842517Y-74234091D01*
X142902127Y-74240500D01*
X143012693Y-74240499D01*
X143079730Y-74260183D01*
X143100372Y-74276818D01*
X143716508Y-74892954D01*
X143655077Y-74909415D01*
X143539922Y-74975899D01*
X143445899Y-75069922D01*
X143379415Y-75185077D01*
X143362954Y-75246508D01*
X142627340Y-74510894D01*
X142567084Y-74593830D01*
X142484985Y-74754959D01*
X142437010Y-74805755D01*
X142369189Y-74822550D01*
X142303054Y-74800012D01*
X142259603Y-74745297D01*
X142250500Y-74698664D01*
X142250500Y-73984048D01*
X142270185Y-73917009D01*
X142322989Y-73871254D01*
X142392147Y-73861310D01*
X142455703Y-73890335D01*
G37*
%TD.AperFunction*%
%TA.AperFunction,Conductor*%
G36*
X148693039Y-53219685D02*
G01*
X148738794Y-53272489D01*
X148750000Y-53324000D01*
X148750000Y-131826000D01*
X148730315Y-131893039D01*
X148677511Y-131938794D01*
X148626000Y-131950000D01*
X67324000Y-131950000D01*
X67256961Y-131930315D01*
X67211206Y-131877511D01*
X67200000Y-131826000D01*
X67200000Y-127479818D01*
X95560000Y-127479818D01*
X95560000Y-127700181D01*
X95594473Y-127917835D01*
X95662567Y-128127410D01*
X95762611Y-128323756D01*
X95808932Y-128387513D01*
X96560000Y-127636445D01*
X96560000Y-127642661D01*
X96587259Y-127744394D01*
X96639920Y-127835606D01*
X96714394Y-127910080D01*
X96805606Y-127962741D01*
X96907339Y-127990000D01*
X96913553Y-127990000D01*
X96162485Y-128741065D01*
X96162485Y-128741066D01*
X96226243Y-128787388D01*
X96422589Y-128887432D01*
X96632164Y-128955526D01*
X96849819Y-128990000D01*
X97070181Y-128990000D01*
X97287835Y-128955526D01*
X97497410Y-128887432D01*
X97693760Y-128787386D01*
X97757513Y-128741066D01*
X97757514Y-128741066D01*
X97006447Y-127990000D01*
X97012661Y-127990000D01*
X97114394Y-127962741D01*
X97205606Y-127910080D01*
X97280080Y-127835606D01*
X97332741Y-127744394D01*
X97360000Y-127642661D01*
X97360000Y-127636448D01*
X98111066Y-128387514D01*
X98111066Y-128387513D01*
X98129372Y-128362319D01*
X98184701Y-128319653D01*
X98254315Y-128313674D01*
X98316110Y-128346279D01*
X98330008Y-128362319D01*
X98431752Y-128502358D01*
X98431756Y-128502363D01*
X98587636Y-128658243D01*
X98587641Y-128658247D01*
X98667446Y-128716228D01*
X98765978Y-128787815D01*
X98894375Y-128853237D01*
X98962393Y-128887895D01*
X98962396Y-128887896D01*
X99027488Y-128909045D01*
X99172049Y-128956015D01*
X99389778Y-128990500D01*
X99389779Y-128990500D01*
X99610221Y-128990500D01*
X99610222Y-128990500D01*
X99827951Y-128956015D01*
X100037606Y-128887895D01*
X100234022Y-128787815D01*
X100412365Y-128658242D01*
X100568242Y-128502365D01*
X100697815Y-128324022D01*
X100797895Y-128127606D01*
X100866015Y-127917951D01*
X100900500Y-127700222D01*
X100900500Y-127479778D01*
X100866015Y-127262049D01*
X100831955Y-127157221D01*
X100797896Y-127052396D01*
X100797895Y-127052393D01*
X100763237Y-126984375D01*
X100697815Y-126855978D01*
X100651685Y-126792485D01*
X100568247Y-126677641D01*
X100568243Y-126677636D01*
X100412363Y-126521756D01*
X100412358Y-126521752D01*
X100234025Y-126392187D01*
X100234024Y-126392186D01*
X100234022Y-126392185D01*
X100171096Y-126360122D01*
X100037606Y-126292104D01*
X100037603Y-126292103D01*
X99827952Y-126223985D01*
X99719086Y-126206742D01*
X99610222Y-126189500D01*
X99389778Y-126189500D01*
X99317201Y-126200995D01*
X99172047Y-126223985D01*
X98962396Y-126292103D01*
X98962393Y-126292104D01*
X98765974Y-126392187D01*
X98587641Y-126521752D01*
X98587636Y-126521756D01*
X98431756Y-126677636D01*
X98330008Y-126817681D01*
X98274678Y-126860346D01*
X98205065Y-126866325D01*
X98143270Y-126833719D01*
X98129371Y-126817680D01*
X98111066Y-126792485D01*
X98111065Y-126792485D01*
X97360000Y-127543551D01*
X97360000Y-127537339D01*
X97332741Y-127435606D01*
X97280080Y-127344394D01*
X97205606Y-127269920D01*
X97114394Y-127217259D01*
X97012661Y-127190000D01*
X97006445Y-127190000D01*
X97757513Y-126438932D01*
X97693756Y-126392611D01*
X97497410Y-126292567D01*
X97287835Y-126224473D01*
X97070181Y-126190000D01*
X96849819Y-126190000D01*
X96632164Y-126224473D01*
X96422589Y-126292567D01*
X96226233Y-126392616D01*
X96162485Y-126438931D01*
X96162485Y-126438932D01*
X96913553Y-127190000D01*
X96907339Y-127190000D01*
X96805606Y-127217259D01*
X96714394Y-127269920D01*
X96639920Y-127344394D01*
X96587259Y-127435606D01*
X96560000Y-127537339D01*
X96560000Y-127543553D01*
X95808932Y-126792485D01*
X95808931Y-126792485D01*
X95762616Y-126856233D01*
X95662567Y-127052589D01*
X95594473Y-127262164D01*
X95560000Y-127479818D01*
X67200000Y-127479818D01*
X67200000Y-122978711D01*
X69299500Y-122978711D01*
X69299500Y-123221288D01*
X69331161Y-123461785D01*
X69393947Y-123696104D01*
X69430445Y-123784217D01*
X69486776Y-123920212D01*
X69608064Y-124130289D01*
X69608066Y-124130292D01*
X69608067Y-124130293D01*
X69755733Y-124322736D01*
X69755739Y-124322743D01*
X69927256Y-124494260D01*
X69927263Y-124494266D01*
X69989262Y-124541839D01*
X70119711Y-124641936D01*
X70329788Y-124763224D01*
X70553900Y-124856054D01*
X70788211Y-124918838D01*
X70968586Y-124942584D01*
X71028711Y-124950500D01*
X71028712Y-124950500D01*
X71271289Y-124950500D01*
X71319388Y-124944167D01*
X71511789Y-124918838D01*
X71746100Y-124856054D01*
X71970212Y-124763224D01*
X72180289Y-124641936D01*
X72372738Y-124494265D01*
X72544265Y-124322738D01*
X72691936Y-124130289D01*
X72813224Y-123920212D01*
X72906054Y-123696100D01*
X72968838Y-123461789D01*
X73000500Y-123221288D01*
X73000500Y-122978712D01*
X72996292Y-122946752D01*
X72992584Y-122918586D01*
X72968838Y-122738211D01*
X72906054Y-122503900D01*
X72813224Y-122279788D01*
X72691936Y-122069711D01*
X72544265Y-121877262D01*
X72544260Y-121877256D01*
X72372743Y-121705739D01*
X72372736Y-121705733D01*
X72180293Y-121558067D01*
X72180292Y-121558066D01*
X72180289Y-121558064D01*
X71970212Y-121436776D01*
X71970205Y-121436773D01*
X71746104Y-121343947D01*
X71511785Y-121281161D01*
X71271289Y-121249500D01*
X71271288Y-121249500D01*
X71028712Y-121249500D01*
X71028711Y-121249500D01*
X70788214Y-121281161D01*
X70553895Y-121343947D01*
X70329794Y-121436773D01*
X70329785Y-121436777D01*
X70119706Y-121558067D01*
X69927263Y-121705733D01*
X69927256Y-121705739D01*
X69755739Y-121877256D01*
X69755733Y-121877263D01*
X69608067Y-122069706D01*
X69486777Y-122279785D01*
X69486773Y-122279794D01*
X69393947Y-122503895D01*
X69331161Y-122738214D01*
X69299500Y-122978711D01*
X67200000Y-122978711D01*
X67200000Y-119859778D01*
X95559500Y-119859778D01*
X95559500Y-120080221D01*
X95593985Y-120297952D01*
X95662103Y-120507603D01*
X95662104Y-120507606D01*
X95720499Y-120622209D01*
X95744854Y-120670009D01*
X95762187Y-120704025D01*
X95891752Y-120882358D01*
X95891756Y-120882363D01*
X96047636Y-121038243D01*
X96047641Y-121038247D01*
X96197393Y-121147047D01*
X96225978Y-121167815D01*
X96354375Y-121233237D01*
X96422393Y-121267895D01*
X96422396Y-121267896D01*
X96463223Y-121281161D01*
X96632049Y-121336015D01*
X96849778Y-121370500D01*
X96849779Y-121370500D01*
X97070221Y-121370500D01*
X97070222Y-121370500D01*
X97287951Y-121336015D01*
X97497606Y-121267895D01*
X97694022Y-121167815D01*
X97872365Y-121038242D01*
X98028242Y-120882365D01*
X98035978Y-120871717D01*
X98091305Y-120829049D01*
X98160918Y-120823066D01*
X98222715Y-120855669D01*
X98254004Y-120905591D01*
X98265184Y-120939329D01*
X98265186Y-120939334D01*
X98357288Y-121088656D01*
X98481344Y-121212712D01*
X98630666Y-121304814D01*
X98797203Y-121359999D01*
X98899991Y-121370500D01*
X100100008Y-121370499D01*
X100202797Y-121359999D01*
X100369334Y-121304814D01*
X100518656Y-121212712D01*
X100642712Y-121088656D01*
X100734814Y-120939334D01*
X100789999Y-120772797D01*
X100800500Y-120670009D01*
X100800499Y-119269992D01*
X100797024Y-119235978D01*
X100789999Y-119167203D01*
X100789998Y-119167200D01*
X100769837Y-119106359D01*
X100734814Y-119000666D01*
X100642712Y-118851344D01*
X100518656Y-118727288D01*
X100369334Y-118635186D01*
X100202797Y-118580001D01*
X100202795Y-118580000D01*
X100100010Y-118569500D01*
X98899998Y-118569500D01*
X98899981Y-118569501D01*
X98797203Y-118580000D01*
X98797200Y-118580001D01*
X98630668Y-118635185D01*
X98630663Y-118635187D01*
X98481342Y-118727289D01*
X98357289Y-118851342D01*
X98265187Y-119000663D01*
X98265185Y-119000668D01*
X98254006Y-119034406D01*
X98214233Y-119091851D01*
X98149717Y-119118674D01*
X98080941Y-119106359D01*
X98035981Y-119068287D01*
X98028246Y-119057641D01*
X98028242Y-119057635D01*
X97872365Y-118901758D01*
X97872363Y-118901756D01*
X97872358Y-118901752D01*
X97694025Y-118772187D01*
X97694024Y-118772186D01*
X97694022Y-118772185D01*
X97605908Y-118727288D01*
X97497606Y-118672104D01*
X97497603Y-118672103D01*
X97287952Y-118603985D01*
X97136516Y-118580000D01*
X97070222Y-118569500D01*
X96849778Y-118569500D01*
X96783484Y-118580000D01*
X96632047Y-118603985D01*
X96422396Y-118672103D01*
X96422393Y-118672104D01*
X96225974Y-118772187D01*
X96047641Y-118901752D01*
X96047636Y-118901756D01*
X95891756Y-119057636D01*
X95891752Y-119057641D01*
X95762187Y-119235974D01*
X95662104Y-119432393D01*
X95662103Y-119432396D01*
X95593985Y-119642047D01*
X95559500Y-119859778D01*
X67200000Y-119859778D01*
X67200000Y-109628303D01*
X71450000Y-109628303D01*
X71450000Y-110442500D01*
X72950000Y-110442500D01*
X72950000Y-110942500D01*
X71450001Y-110942500D01*
X71450001Y-111756697D01*
X71460400Y-111888832D01*
X71515377Y-112107019D01*
X71608428Y-112311874D01*
X71608431Y-112311880D01*
X71736559Y-112496823D01*
X71736569Y-112496835D01*
X71895664Y-112655930D01*
X71895676Y-112655940D01*
X72080619Y-112784068D01*
X72080625Y-112784071D01*
X72285480Y-112877122D01*
X72503667Y-112932099D01*
X72635810Y-112942499D01*
X73199999Y-112942499D01*
X73200000Y-112942498D01*
X73200000Y-112125512D01*
X73257007Y-112158425D01*
X73384174Y-112192500D01*
X73515826Y-112192500D01*
X73642993Y-112158425D01*
X73700000Y-112125512D01*
X73700000Y-112942499D01*
X74264182Y-112942499D01*
X74264197Y-112942498D01*
X74396332Y-112932099D01*
X74614519Y-112877122D01*
X74819374Y-112784071D01*
X74819380Y-112784068D01*
X75004323Y-112655940D01*
X75004335Y-112655930D01*
X75163430Y-112496835D01*
X75163440Y-112496823D01*
X75291568Y-112311880D01*
X75291571Y-112311874D01*
X75384622Y-112107019D01*
X75439599Y-111888832D01*
X75449999Y-111756696D01*
X75450000Y-111756684D01*
X75450000Y-110942500D01*
X73950000Y-110942500D01*
X73950000Y-110442500D01*
X75449999Y-110442500D01*
X75449999Y-109628317D01*
X75449998Y-109628302D01*
X75439599Y-109496167D01*
X75384622Y-109277980D01*
X75291571Y-109073125D01*
X75291568Y-109073119D01*
X75163440Y-108888176D01*
X75163430Y-108888164D01*
X75004335Y-108729069D01*
X75004323Y-108729059D01*
X74819380Y-108600931D01*
X74819374Y-108600928D01*
X74614519Y-108507877D01*
X74396332Y-108452900D01*
X74264196Y-108442500D01*
X73700000Y-108442500D01*
X73700000Y-109259488D01*
X73642993Y-109226575D01*
X73515826Y-109192500D01*
X73384174Y-109192500D01*
X73257007Y-109226575D01*
X73200000Y-109259488D01*
X73200000Y-108442500D01*
X72635817Y-108442500D01*
X72635802Y-108442501D01*
X72503667Y-108452900D01*
X72285480Y-108507877D01*
X72080625Y-108600928D01*
X72080619Y-108600931D01*
X71895676Y-108729059D01*
X71895664Y-108729069D01*
X71736569Y-108888164D01*
X71736559Y-108888176D01*
X71608431Y-109073119D01*
X71608428Y-109073125D01*
X71515377Y-109277980D01*
X71460400Y-109496167D01*
X71450000Y-109628303D01*
X67200000Y-109628303D01*
X67200000Y-95682014D01*
X69950000Y-95682014D01*
X69950000Y-95917985D01*
X69980799Y-96151914D01*
X70041870Y-96379837D01*
X70132160Y-96597819D01*
X70132165Y-96597828D01*
X70250144Y-96802171D01*
X70250145Y-96802172D01*
X70312721Y-96883723D01*
X71148958Y-96047487D01*
X71173978Y-96107890D01*
X71245112Y-96214351D01*
X71335649Y-96304888D01*
X71442110Y-96376022D01*
X71502511Y-96401041D01*
X70666275Y-97237277D01*
X70747827Y-97299854D01*
X70747828Y-97299855D01*
X70952171Y-97417834D01*
X70952180Y-97417839D01*
X71170163Y-97508129D01*
X71170161Y-97508129D01*
X71398085Y-97569200D01*
X71632014Y-97599999D01*
X71632029Y-97600000D01*
X71867971Y-97600000D01*
X71867985Y-97599999D01*
X72101914Y-97569200D01*
X72329837Y-97508129D01*
X72547819Y-97417839D01*
X72547828Y-97417834D01*
X72752181Y-97299850D01*
X72833723Y-97237279D01*
X72833723Y-97237276D01*
X71997487Y-96401041D01*
X72057890Y-96376022D01*
X72164351Y-96304888D01*
X72254888Y-96214351D01*
X72326022Y-96107890D01*
X72351041Y-96047487D01*
X73187276Y-96883723D01*
X73187279Y-96883723D01*
X73249850Y-96802181D01*
X73367834Y-96597828D01*
X73367839Y-96597819D01*
X73458129Y-96379837D01*
X73519200Y-96151914D01*
X73549999Y-95917985D01*
X73550000Y-95917971D01*
X73550000Y-95682028D01*
X73549999Y-95682014D01*
X73519200Y-95448085D01*
X73458129Y-95220162D01*
X73367839Y-95002180D01*
X73367834Y-95002171D01*
X73249855Y-94797828D01*
X73249854Y-94797827D01*
X73187277Y-94716275D01*
X72351041Y-95552511D01*
X72326022Y-95492110D01*
X72254888Y-95385649D01*
X72164351Y-95295112D01*
X72057890Y-95223978D01*
X71997488Y-95198958D01*
X72833723Y-94362721D01*
X72752172Y-94300145D01*
X72752171Y-94300144D01*
X72547828Y-94182165D01*
X72547819Y-94182160D01*
X72329836Y-94091870D01*
X72329838Y-94091870D01*
X72101914Y-94030799D01*
X71867985Y-94000000D01*
X71632014Y-94000000D01*
X71398085Y-94030799D01*
X71170162Y-94091870D01*
X70952180Y-94182160D01*
X70952171Y-94182165D01*
X70747828Y-94300144D01*
X70747818Y-94300150D01*
X70666275Y-94362720D01*
X70666275Y-94362721D01*
X71502512Y-95198958D01*
X71442110Y-95223978D01*
X71335649Y-95295112D01*
X71245112Y-95385649D01*
X71173978Y-95492110D01*
X71148958Y-95552512D01*
X70312721Y-94716275D01*
X70312720Y-94716275D01*
X70250150Y-94797818D01*
X70250144Y-94797828D01*
X70132165Y-95002171D01*
X70132160Y-95002180D01*
X70041870Y-95220162D01*
X69980799Y-95448085D01*
X69950000Y-95682014D01*
X67200000Y-95682014D01*
X67200000Y-84699983D01*
X69949500Y-84699983D01*
X69949500Y-86900001D01*
X69949501Y-86900018D01*
X69960000Y-87002796D01*
X69960001Y-87002799D01*
X70015185Y-87169331D01*
X70015187Y-87169336D01*
X70047218Y-87221267D01*
X70107288Y-87318656D01*
X70231344Y-87442712D01*
X70380666Y-87534814D01*
X70547203Y-87589999D01*
X70649991Y-87600500D01*
X72850008Y-87600499D01*
X72952797Y-87589999D01*
X73119334Y-87534814D01*
X73268656Y-87442712D01*
X73392712Y-87318656D01*
X73484814Y-87169334D01*
X73539999Y-87002797D01*
X73550500Y-86900009D01*
X73550499Y-84699992D01*
X73546701Y-84662816D01*
X73539999Y-84597203D01*
X73539998Y-84597200D01*
X73484814Y-84430666D01*
X73392712Y-84281344D01*
X73268656Y-84157288D01*
X73167672Y-84095001D01*
X73119336Y-84065187D01*
X73119331Y-84065185D01*
X73117862Y-84064698D01*
X72952797Y-84010001D01*
X72952795Y-84010000D01*
X72850010Y-83999500D01*
X70649998Y-83999500D01*
X70649981Y-83999501D01*
X70547203Y-84010000D01*
X70547200Y-84010001D01*
X70380668Y-84065185D01*
X70380663Y-84065187D01*
X70231342Y-84157289D01*
X70107289Y-84281342D01*
X70015187Y-84430663D01*
X70015185Y-84430668D01*
X70011018Y-84443243D01*
X69960001Y-84597203D01*
X69960001Y-84597204D01*
X69960000Y-84597204D01*
X69949500Y-84699983D01*
X67200000Y-84699983D01*
X67200000Y-68016228D01*
X67749500Y-68016228D01*
X67749500Y-75333771D01*
X67782182Y-75498074D01*
X67782185Y-75498086D01*
X67800961Y-75543414D01*
X67800962Y-75543416D01*
X67846296Y-75652863D01*
X67846297Y-75652866D01*
X67939372Y-75792161D01*
X67939375Y-75792165D01*
X69743322Y-77596112D01*
X69743326Y-77596115D01*
X69882625Y-77689192D01*
X69882627Y-77689193D01*
X69882631Y-77689195D01*
X69954373Y-77718910D01*
X69992072Y-77734525D01*
X70037406Y-77753304D01*
X70201716Y-77785987D01*
X70201720Y-77785988D01*
X70201721Y-77785988D01*
X70369255Y-77785988D01*
X70596467Y-77785988D01*
X70663506Y-77805673D01*
X70709261Y-77858477D01*
X70719205Y-77927635D01*
X70690180Y-77991191D01*
X70671953Y-78008364D01*
X70666275Y-78012720D01*
X70666275Y-78012721D01*
X71502512Y-78848958D01*
X71442110Y-78873978D01*
X71335649Y-78945112D01*
X71245112Y-79035649D01*
X71173978Y-79142110D01*
X71148958Y-79202512D01*
X70312721Y-78366275D01*
X70312720Y-78366275D01*
X70250150Y-78447818D01*
X70250144Y-78447828D01*
X70132165Y-78652171D01*
X70132160Y-78652180D01*
X70041870Y-78870162D01*
X69980799Y-79098085D01*
X69950000Y-79332014D01*
X69950000Y-79567985D01*
X69980799Y-79801914D01*
X70041870Y-80029837D01*
X70132160Y-80247819D01*
X70132165Y-80247828D01*
X70250144Y-80452171D01*
X70250145Y-80452172D01*
X70312721Y-80533723D01*
X71148958Y-79697487D01*
X71173978Y-79757890D01*
X71245112Y-79864351D01*
X71335649Y-79954888D01*
X71442110Y-80026022D01*
X71502511Y-80051041D01*
X70666275Y-80887277D01*
X70747827Y-80949854D01*
X70747828Y-80949855D01*
X70952171Y-81067834D01*
X70952180Y-81067839D01*
X71170163Y-81158129D01*
X71170161Y-81158129D01*
X71398085Y-81219200D01*
X71632014Y-81249999D01*
X71632029Y-81250000D01*
X71867971Y-81250000D01*
X71867985Y-81249999D01*
X72101914Y-81219200D01*
X72329837Y-81158129D01*
X72547819Y-81067839D01*
X72547828Y-81067834D01*
X72752181Y-80949850D01*
X72833723Y-80887279D01*
X72833723Y-80887276D01*
X71997487Y-80051041D01*
X72057890Y-80026022D01*
X72164351Y-79954888D01*
X72254888Y-79864351D01*
X72326022Y-79757890D01*
X72351041Y-79697487D01*
X73187276Y-80533723D01*
X73187279Y-80533723D01*
X73249850Y-80452181D01*
X73367834Y-80247828D01*
X73367839Y-80247819D01*
X73458129Y-80029837D01*
X73519200Y-79801914D01*
X73549999Y-79567985D01*
X73550000Y-79567971D01*
X73550000Y-79332028D01*
X73549999Y-79332014D01*
X73519200Y-79098085D01*
X73458129Y-78870162D01*
X73367839Y-78652180D01*
X73367834Y-78652171D01*
X73249855Y-78447828D01*
X73249854Y-78447827D01*
X73187277Y-78366275D01*
X72351041Y-79202511D01*
X72326022Y-79142110D01*
X72254888Y-79035649D01*
X72164351Y-78945112D01*
X72057890Y-78873978D01*
X71997488Y-78848958D01*
X72833723Y-78012721D01*
X72828045Y-78008364D01*
X72786843Y-77951936D01*
X72782688Y-77882189D01*
X72816901Y-77821269D01*
X72878618Y-77788517D01*
X72903532Y-77785988D01*
X73831837Y-77785988D01*
X73898876Y-77805673D01*
X73919518Y-77822307D01*
X75539373Y-79442162D01*
X75600914Y-79503703D01*
X75657839Y-79560628D01*
X75797133Y-79653702D01*
X75797135Y-79653702D01*
X75797137Y-79653704D01*
X75951919Y-79717816D01*
X75951921Y-79717816D01*
X75951926Y-79717818D01*
X76116228Y-79750499D01*
X76116232Y-79750500D01*
X76116233Y-79750500D01*
X76283767Y-79750500D01*
X76301233Y-79747025D01*
X76325424Y-79744643D01*
X76939952Y-79744643D01*
X77006991Y-79764328D01*
X77027633Y-79780961D01*
X77133527Y-79886855D01*
X77282849Y-79978957D01*
X77449386Y-80034142D01*
X77552174Y-80044643D01*
X77775500Y-80044642D01*
X77842539Y-80064326D01*
X77888294Y-80117130D01*
X77899500Y-80168642D01*
X77899500Y-84075500D01*
X77879815Y-84142539D01*
X77827011Y-84188294D01*
X77775500Y-84199500D01*
X77416228Y-84199500D01*
X77251925Y-84232182D01*
X77251917Y-84232184D01*
X77214066Y-84247863D01*
X77214065Y-84247863D01*
X77097136Y-84296296D01*
X77097133Y-84296297D01*
X76957838Y-84389372D01*
X76957834Y-84389375D01*
X72322114Y-89025095D01*
X72260791Y-89058580D01*
X72202340Y-89057189D01*
X72102014Y-89030307D01*
X72102008Y-89030306D01*
X72102003Y-89030305D01*
X71868020Y-88999501D01*
X71868017Y-88999500D01*
X71868011Y-88999500D01*
X71631989Y-88999500D01*
X71631983Y-88999500D01*
X71631979Y-88999501D01*
X71397989Y-89030306D01*
X71170006Y-89091394D01*
X70951954Y-89181714D01*
X70951943Y-89181719D01*
X70747545Y-89299730D01*
X70560302Y-89443406D01*
X70560295Y-89443412D01*
X70393412Y-89610295D01*
X70393406Y-89610302D01*
X70249730Y-89797545D01*
X70131719Y-90001943D01*
X70131714Y-90001954D01*
X70041394Y-90220006D01*
X69980306Y-90447989D01*
X69949501Y-90681979D01*
X69949500Y-90681995D01*
X69949500Y-90918004D01*
X69949501Y-90918020D01*
X69980306Y-91152010D01*
X70041394Y-91379993D01*
X70131714Y-91598045D01*
X70131719Y-91598056D01*
X70167927Y-91660769D01*
X70249727Y-91802450D01*
X70249729Y-91802453D01*
X70249730Y-91802454D01*
X70393406Y-91989697D01*
X70393412Y-91989704D01*
X70560295Y-92156587D01*
X70560302Y-92156593D01*
X70584923Y-92175485D01*
X70747550Y-92300273D01*
X70860211Y-92365318D01*
X70951943Y-92418280D01*
X70951948Y-92418282D01*
X70951951Y-92418284D01*
X71170007Y-92508606D01*
X71397986Y-92569693D01*
X71631989Y-92600500D01*
X71631996Y-92600500D01*
X71868004Y-92600500D01*
X71868011Y-92600500D01*
X72102014Y-92569693D01*
X72329993Y-92508606D01*
X72548049Y-92418284D01*
X72752450Y-92300273D01*
X72939699Y-92156592D01*
X73106592Y-91989699D01*
X73250273Y-91802450D01*
X73352732Y-91624986D01*
X78050001Y-91624986D01*
X78060494Y-91727697D01*
X78115641Y-91894119D01*
X78115643Y-91894124D01*
X78207684Y-92043345D01*
X78331654Y-92167315D01*
X78480875Y-92259356D01*
X78480880Y-92259358D01*
X78647302Y-92314505D01*
X78647309Y-92314506D01*
X78750019Y-92324999D01*
X79199999Y-92324999D01*
X79700000Y-92324999D01*
X80149972Y-92324999D01*
X80149986Y-92324998D01*
X80252697Y-92314505D01*
X80419119Y-92259358D01*
X80419124Y-92259356D01*
X80568345Y-92167315D01*
X80692315Y-92043345D01*
X80784356Y-91894124D01*
X80784358Y-91894119D01*
X80839505Y-91727697D01*
X80839506Y-91727690D01*
X80849999Y-91624986D01*
X80850000Y-91624973D01*
X80850000Y-91412500D01*
X79700000Y-91412500D01*
X79700000Y-92324999D01*
X79199999Y-92324999D01*
X79200000Y-92324998D01*
X79200000Y-91412500D01*
X78050001Y-91412500D01*
X78050001Y-91624986D01*
X73352732Y-91624986D01*
X73368284Y-91598049D01*
X73458606Y-91379993D01*
X73519693Y-91152014D01*
X73550500Y-90918011D01*
X73550500Y-90700013D01*
X78050000Y-90700013D01*
X78050000Y-90912500D01*
X79200000Y-90912500D01*
X79700000Y-90912500D01*
X80849999Y-90912500D01*
X80849999Y-90700028D01*
X80849998Y-90700013D01*
X80839505Y-90597302D01*
X80784358Y-90430880D01*
X80784356Y-90430875D01*
X80692315Y-90281654D01*
X80568345Y-90157684D01*
X80419124Y-90065643D01*
X80419119Y-90065641D01*
X80252697Y-90010494D01*
X80252690Y-90010493D01*
X80149986Y-90000000D01*
X79700000Y-90000000D01*
X79700000Y-90912500D01*
X79200000Y-90912500D01*
X79200000Y-90000000D01*
X78750028Y-90000000D01*
X78750012Y-90000001D01*
X78647302Y-90010494D01*
X78480880Y-90065641D01*
X78480875Y-90065643D01*
X78331654Y-90157684D01*
X78207684Y-90281654D01*
X78115643Y-90430875D01*
X78115641Y-90430880D01*
X78060494Y-90597302D01*
X78060493Y-90597309D01*
X78050000Y-90700013D01*
X73550500Y-90700013D01*
X73550500Y-90681989D01*
X73519693Y-90447986D01*
X73492810Y-90347657D01*
X73494473Y-90277807D01*
X73524902Y-90227885D01*
X76465888Y-87286900D01*
X76527209Y-87253417D01*
X76596901Y-87258401D01*
X76652834Y-87300273D01*
X76675183Y-87350389D01*
X76682184Y-87385582D01*
X76689163Y-87402431D01*
X76746292Y-87540356D01*
X76746299Y-87540369D01*
X76839372Y-87679661D01*
X76839375Y-87679665D01*
X77857830Y-88698119D01*
X77857831Y-88698120D01*
X77857834Y-88698122D01*
X77857838Y-88698126D01*
X77997137Y-88791204D01*
X77997142Y-88791206D01*
X78106580Y-88836536D01*
X78106585Y-88836537D01*
X78127792Y-88845322D01*
X78136779Y-88849045D01*
X78191181Y-88892889D01*
X78194859Y-88898506D01*
X78205849Y-88916324D01*
X78207288Y-88918656D01*
X78331344Y-89042712D01*
X78480666Y-89134814D01*
X78647203Y-89189999D01*
X78749991Y-89200500D01*
X80150008Y-89200499D01*
X80252797Y-89189999D01*
X80419334Y-89134814D01*
X80568656Y-89042712D01*
X80692712Y-88918656D01*
X80784814Y-88769334D01*
X80839999Y-88602797D01*
X80839999Y-88602795D01*
X80842128Y-88596371D01*
X80843480Y-88596819D01*
X80873126Y-88542105D01*
X80934339Y-88508420D01*
X80961092Y-88505500D01*
X82083816Y-88505500D01*
X82108007Y-88507882D01*
X82110708Y-88508420D01*
X82133732Y-88513000D01*
X82133733Y-88513000D01*
X82301268Y-88513000D01*
X82301269Y-88512999D01*
X82381036Y-88497133D01*
X82465573Y-88480318D01*
X82465576Y-88480316D01*
X82465581Y-88480316D01*
X82502705Y-88464939D01*
X82550157Y-88455500D01*
X83115686Y-88455500D01*
X83115694Y-88455500D01*
X83152569Y-88452598D01*
X83152571Y-88452597D01*
X83152573Y-88452597D01*
X83194191Y-88440505D01*
X83310398Y-88406744D01*
X83451865Y-88323081D01*
X83568081Y-88206865D01*
X83651744Y-88065398D01*
X83694744Y-87917393D01*
X83697597Y-87907573D01*
X83697598Y-87907567D01*
X83700499Y-87870701D01*
X83700500Y-87870694D01*
X83700500Y-87439306D01*
X83697598Y-87402431D01*
X83651744Y-87244602D01*
X83568081Y-87103135D01*
X83568078Y-87103132D01*
X83563298Y-87096969D01*
X83565750Y-87095066D01*
X83539155Y-87046421D01*
X83544104Y-86976726D01*
X83564940Y-86944304D01*
X83563298Y-86943031D01*
X83568075Y-86936870D01*
X83568081Y-86936865D01*
X83651744Y-86795398D01*
X83697598Y-86637569D01*
X83700500Y-86600694D01*
X83700500Y-86169306D01*
X83697598Y-86132431D01*
X83692065Y-86113388D01*
X83651745Y-85974606D01*
X83651744Y-85974603D01*
X83651744Y-85974602D01*
X83568081Y-85833135D01*
X83568078Y-85833132D01*
X83563298Y-85826969D01*
X83565750Y-85825066D01*
X83539155Y-85776421D01*
X83544104Y-85706726D01*
X83564940Y-85674304D01*
X83563298Y-85673031D01*
X83568075Y-85666870D01*
X83568081Y-85666865D01*
X83651744Y-85525398D01*
X83697598Y-85367569D01*
X83700500Y-85330694D01*
X83700500Y-84899306D01*
X83697598Y-84862431D01*
X83695175Y-84854092D01*
X83651745Y-84704606D01*
X83651744Y-84704603D01*
X83651744Y-84704602D01*
X83568081Y-84563135D01*
X83568078Y-84563132D01*
X83563298Y-84556969D01*
X83565635Y-84555155D01*
X83538798Y-84506050D01*
X83543756Y-84436356D01*
X83564554Y-84403998D01*
X83562903Y-84402717D01*
X83567686Y-84396550D01*
X83651281Y-84255198D01*
X83697100Y-84097486D01*
X83697295Y-84095001D01*
X83697295Y-84095000D01*
X82349000Y-84095000D01*
X82281961Y-84075315D01*
X82236206Y-84022511D01*
X82225000Y-83971000D01*
X82225000Y-83719000D01*
X82244685Y-83651961D01*
X82297489Y-83606206D01*
X82349000Y-83595000D01*
X83697295Y-83595000D01*
X83697295Y-83594999D01*
X83696603Y-83586192D01*
X83699014Y-83586002D01*
X83699987Y-83576766D01*
X83697124Y-83556853D01*
X83703574Y-83542729D01*
X83705201Y-83527290D01*
X83717790Y-83511599D01*
X83726149Y-83493297D01*
X83739211Y-83484902D01*
X83748927Y-83472794D01*
X83768000Y-83466400D01*
X83784927Y-83455523D01*
X83812117Y-83451613D01*
X83815174Y-83450589D01*
X83819862Y-83450500D01*
X83946349Y-83450500D01*
X84013388Y-83470185D01*
X84034030Y-83486819D01*
X85052834Y-84505624D01*
X85052838Y-84505627D01*
X85192132Y-84598701D01*
X85192133Y-84598701D01*
X85192137Y-84598704D01*
X85280564Y-84635331D01*
X85346918Y-84662816D01*
X85483527Y-84689989D01*
X85511228Y-84695499D01*
X85511232Y-84695500D01*
X85511233Y-84695500D01*
X85585747Y-84695500D01*
X85652786Y-84715185D01*
X85698541Y-84767989D01*
X85708485Y-84837147D01*
X85704824Y-84854092D01*
X85702402Y-84862426D01*
X85702401Y-84862432D01*
X85699500Y-84899298D01*
X85699500Y-85330701D01*
X85702401Y-85367567D01*
X85702402Y-85367573D01*
X85748254Y-85525393D01*
X85748255Y-85525396D01*
X85831920Y-85666867D01*
X85833894Y-85669412D01*
X85834820Y-85671771D01*
X85835890Y-85673580D01*
X85835598Y-85673752D01*
X85859428Y-85734448D01*
X85845748Y-85802966D01*
X85823595Y-85833092D01*
X84988375Y-86668312D01*
X84988372Y-86668316D01*
X84895299Y-86807608D01*
X84895292Y-86807621D01*
X84863242Y-86885000D01*
X84831185Y-86962391D01*
X84831182Y-86962403D01*
X84798500Y-87126706D01*
X84798500Y-88532771D01*
X84831182Y-88697075D01*
X84831182Y-88697077D01*
X84831183Y-88697081D01*
X84831184Y-88697082D01*
X84845752Y-88732251D01*
X84895296Y-88851863D01*
X84895297Y-88851866D01*
X84988372Y-88991161D01*
X84988375Y-88991165D01*
X85439374Y-89442162D01*
X85557838Y-89560626D01*
X85697137Y-89653703D01*
X85851918Y-89717816D01*
X86011834Y-89749625D01*
X86016228Y-89750499D01*
X86016232Y-89750500D01*
X86016233Y-89750500D01*
X87920500Y-89750500D01*
X87987539Y-89770185D01*
X88033294Y-89822989D01*
X88044500Y-89874500D01*
X88044500Y-90775500D01*
X88024815Y-90842539D01*
X87972011Y-90888294D01*
X87920500Y-90899500D01*
X82831903Y-90899500D01*
X82598630Y-90936447D01*
X82446993Y-90985716D01*
X82446992Y-90985717D01*
X82374007Y-91009432D01*
X82374001Y-91009434D01*
X82163565Y-91116657D01*
X81972488Y-91255484D01*
X78305484Y-94922488D01*
X78166657Y-95113565D01*
X78112920Y-95219031D01*
X78059434Y-95324003D01*
X78059433Y-95324005D01*
X78059432Y-95324008D01*
X78053919Y-95340976D01*
X77986446Y-95548631D01*
X77949500Y-95781902D01*
X77949500Y-95927111D01*
X77929815Y-95994150D01*
X77913181Y-96014792D01*
X74664792Y-99263181D01*
X74603469Y-99296666D01*
X74577111Y-99299500D01*
X72785283Y-99299500D01*
X72723283Y-99282887D01*
X72548056Y-99181719D01*
X72548045Y-99181714D01*
X72329993Y-99091394D01*
X72102010Y-99030306D01*
X71868020Y-98999501D01*
X71868017Y-98999500D01*
X71868011Y-98999500D01*
X71631989Y-98999500D01*
X71631983Y-98999500D01*
X71631979Y-98999501D01*
X71397989Y-99030306D01*
X71170006Y-99091394D01*
X70951954Y-99181714D01*
X70951943Y-99181719D01*
X70747545Y-99299730D01*
X70560302Y-99443406D01*
X70560295Y-99443412D01*
X70393412Y-99610295D01*
X70393406Y-99610302D01*
X70249730Y-99797545D01*
X70249727Y-99797549D01*
X70249727Y-99797550D01*
X70242014Y-99810909D01*
X70131719Y-100001943D01*
X70131714Y-100001954D01*
X70041394Y-100220006D01*
X69980306Y-100447989D01*
X69949501Y-100681979D01*
X69949500Y-100681995D01*
X69949500Y-100918004D01*
X69949501Y-100918020D01*
X69980306Y-101152010D01*
X70041394Y-101379993D01*
X70131714Y-101598045D01*
X70131719Y-101598056D01*
X70195137Y-101707898D01*
X70249727Y-101802450D01*
X70249729Y-101802453D01*
X70249730Y-101802454D01*
X70393406Y-101989697D01*
X70393412Y-101989704D01*
X70560295Y-102156587D01*
X70560302Y-102156593D01*
X70647161Y-102223242D01*
X70747550Y-102300273D01*
X70878918Y-102376118D01*
X70951943Y-102418280D01*
X70951948Y-102418282D01*
X70951951Y-102418284D01*
X71170007Y-102508606D01*
X71397986Y-102569693D01*
X71631989Y-102600500D01*
X71631996Y-102600500D01*
X71868004Y-102600500D01*
X71868011Y-102600500D01*
X72102014Y-102569693D01*
X72329993Y-102508606D01*
X72548049Y-102418284D01*
X72661445Y-102352815D01*
X72723283Y-102317113D01*
X72785283Y-102300500D01*
X75368097Y-102300500D01*
X75601368Y-102263553D01*
X75644615Y-102249501D01*
X75825992Y-102190568D01*
X76036434Y-102083343D01*
X76227510Y-101944517D01*
X77737819Y-100434208D01*
X77799142Y-100400723D01*
X77868834Y-100405707D01*
X77924767Y-100447579D01*
X77949184Y-100513043D01*
X77949500Y-100521889D01*
X77949500Y-108318000D01*
X77929815Y-108385039D01*
X77877011Y-108430794D01*
X77825501Y-108442000D01*
X77652130Y-108442000D01*
X77652123Y-108442001D01*
X77592516Y-108448408D01*
X77457671Y-108498702D01*
X77457664Y-108498706D01*
X77342455Y-108584952D01*
X77342452Y-108584955D01*
X77256206Y-108700164D01*
X77256202Y-108700171D01*
X77205908Y-108835017D01*
X77199501Y-108894616D01*
X77199501Y-108894623D01*
X77199500Y-108894635D01*
X77199500Y-112490370D01*
X77199501Y-112490376D01*
X77205908Y-112549983D01*
X77256202Y-112684828D01*
X77256206Y-112684835D01*
X77342452Y-112800044D01*
X77342455Y-112800047D01*
X77457664Y-112886293D01*
X77457673Y-112886298D01*
X77504937Y-112903926D01*
X77560871Y-112945796D01*
X77585289Y-113011260D01*
X77570438Y-113079533D01*
X77521033Y-113128939D01*
X77455028Y-113143933D01*
X77418657Y-113142001D01*
X77418628Y-113142000D01*
X77418622Y-113142000D01*
X75481378Y-113142000D01*
X75481370Y-113142000D01*
X75481347Y-113142001D01*
X75428756Y-113144795D01*
X75428755Y-113144795D01*
X75198878Y-113189254D01*
X75198876Y-113189254D01*
X75198874Y-113189255D01*
X75141945Y-113210739D01*
X74979810Y-113271925D01*
X74777868Y-113390429D01*
X74777861Y-113390434D01*
X74598858Y-113541356D01*
X74598856Y-113541358D01*
X74447934Y-113720361D01*
X74447929Y-113720368D01*
X74329425Y-113922310D01*
X74276958Y-114061340D01*
X74246755Y-114141374D01*
X74246754Y-114141376D01*
X74246754Y-114141378D01*
X74202295Y-114371255D01*
X74202295Y-114371256D01*
X74199501Y-114423847D01*
X74199500Y-114423886D01*
X74199500Y-116361113D01*
X74199501Y-116361152D01*
X74202295Y-116413743D01*
X74202295Y-116413744D01*
X74246754Y-116643621D01*
X74246755Y-116643626D01*
X74295326Y-116772332D01*
X74329425Y-116862689D01*
X74447929Y-117064631D01*
X74447934Y-117064638D01*
X74598856Y-117243641D01*
X74598858Y-117243643D01*
X74777861Y-117394565D01*
X74777868Y-117394570D01*
X74979810Y-117513074D01*
X75198874Y-117595745D01*
X75428759Y-117640205D01*
X75481378Y-117643000D01*
X75481386Y-117643000D01*
X77418614Y-117643000D01*
X77418622Y-117643000D01*
X77471241Y-117640205D01*
X77701126Y-117595745D01*
X77920190Y-117513074D01*
X78122132Y-117394570D01*
X78301142Y-117243642D01*
X78416010Y-117107402D01*
X78452065Y-117064638D01*
X78452065Y-117064637D01*
X78452070Y-117064632D01*
X78570574Y-116862690D01*
X78653245Y-116643626D01*
X78697705Y-116413741D01*
X78700500Y-116361122D01*
X78700500Y-114423878D01*
X78697705Y-114371259D01*
X78653245Y-114141374D01*
X78570574Y-113922310D01*
X78452070Y-113720368D01*
X78452065Y-113720361D01*
X78301143Y-113541358D01*
X78301141Y-113541356D01*
X78122138Y-113390434D01*
X78122131Y-113390429D01*
X77920189Y-113271925D01*
X77822513Y-113235064D01*
X77701126Y-113189255D01*
X77701121Y-113189254D01*
X77701116Y-113189252D01*
X77698470Y-113188740D01*
X77697451Y-113188213D01*
X77696050Y-113187817D01*
X77696130Y-113187531D01*
X77636392Y-113156677D01*
X77601503Y-113096141D01*
X77604881Y-113026353D01*
X77645452Y-112969470D01*
X77710337Y-112943552D01*
X77722009Y-112942999D01*
X81247872Y-112942999D01*
X81307483Y-112936591D01*
X81442331Y-112886296D01*
X81557546Y-112800046D01*
X81643796Y-112684831D01*
X81694091Y-112549983D01*
X81700500Y-112490373D01*
X81700499Y-108894628D01*
X81694091Y-108835017D01*
X81654571Y-108729059D01*
X81643797Y-108700171D01*
X81643793Y-108700164D01*
X81557547Y-108584955D01*
X81557544Y-108584952D01*
X81442335Y-108498706D01*
X81442328Y-108498702D01*
X81307482Y-108448408D01*
X81307483Y-108448408D01*
X81247883Y-108442001D01*
X81247881Y-108442000D01*
X81247873Y-108442000D01*
X81247865Y-108442000D01*
X81074500Y-108442000D01*
X81007461Y-108422315D01*
X80961706Y-108369511D01*
X80950500Y-108318000D01*
X80950500Y-96572889D01*
X80970185Y-96505850D01*
X80986819Y-96485208D01*
X82232819Y-95239208D01*
X82294142Y-95205723D01*
X82363834Y-95210707D01*
X82419767Y-95252579D01*
X82444184Y-95318043D01*
X82444500Y-95326889D01*
X82444500Y-115726000D01*
X82444501Y-115726009D01*
X82456052Y-115833450D01*
X82456054Y-115833462D01*
X82467260Y-115884972D01*
X82501383Y-115987497D01*
X82501386Y-115987503D01*
X82579171Y-116108537D01*
X82579179Y-116108548D01*
X82624923Y-116161340D01*
X82624926Y-116161343D01*
X82624930Y-116161347D01*
X82733664Y-116255567D01*
X82733667Y-116255568D01*
X82733668Y-116255569D01*
X82827925Y-116298616D01*
X82864541Y-116315338D01*
X82931580Y-116335023D01*
X82931584Y-116335024D01*
X83074000Y-116355500D01*
X83074003Y-116355500D01*
X85625990Y-116355500D01*
X85626000Y-116355500D01*
X85733456Y-116343947D01*
X85784967Y-116332741D01*
X85819197Y-116321347D01*
X85887497Y-116298616D01*
X85887501Y-116298613D01*
X85887504Y-116298613D01*
X86008543Y-116220825D01*
X86061347Y-116175070D01*
X86155567Y-116066336D01*
X86215338Y-115935459D01*
X86235023Y-115868420D01*
X86235024Y-115868416D01*
X86255500Y-115726000D01*
X86255500Y-105395473D01*
X86275185Y-105328434D01*
X86327989Y-105282679D01*
X86397147Y-105272735D01*
X86460703Y-105301760D01*
X86498477Y-105360538D01*
X86502858Y-105382872D01*
X86510000Y-105452796D01*
X86510001Y-105452799D01*
X86555345Y-105589636D01*
X86565186Y-105619334D01*
X86657288Y-105768656D01*
X86781344Y-105892712D01*
X86930666Y-105984814D01*
X87097203Y-106039999D01*
X87199991Y-106050500D01*
X88125008Y-106050499D01*
X88125016Y-106050498D01*
X88125019Y-106050498D01*
X88181302Y-106044748D01*
X88227797Y-106039999D01*
X88394334Y-105984814D01*
X88543656Y-105892712D01*
X88667712Y-105768656D01*
X88759814Y-105619334D01*
X88771028Y-105585494D01*
X88810801Y-105528050D01*
X88875317Y-105501228D01*
X88888733Y-105500500D01*
X89333768Y-105500500D01*
X89333769Y-105500499D01*
X89388538Y-105489605D01*
X89498074Y-105467818D01*
X89498078Y-105467816D01*
X89498082Y-105467816D01*
X89526685Y-105455967D01*
X89543408Y-105449040D01*
X89543409Y-105449039D01*
X89543415Y-105449037D01*
X89652863Y-105403704D01*
X89792162Y-105310627D01*
X90780627Y-104322162D01*
X90873704Y-104182863D01*
X90937816Y-104028081D01*
X90938837Y-104022951D01*
X90970500Y-103863767D01*
X90970500Y-103374499D01*
X90990185Y-103307460D01*
X91042989Y-103261705D01*
X91094495Y-103250499D01*
X91737872Y-103250499D01*
X91797483Y-103244091D01*
X91809503Y-103239608D01*
X91932329Y-103193797D01*
X91932329Y-103193796D01*
X91932331Y-103193796D01*
X91950688Y-103180053D01*
X92016150Y-103155635D01*
X92084424Y-103170485D01*
X92099308Y-103180050D01*
X92117669Y-103193796D01*
X92117670Y-103193797D01*
X92192155Y-103221577D01*
X92252517Y-103244091D01*
X92312127Y-103250500D01*
X93007872Y-103250499D01*
X93007875Y-103250499D01*
X93011121Y-103250325D01*
X93079118Y-103266392D01*
X93127634Y-103316671D01*
X93132320Y-103326695D01*
X93176296Y-103432863D01*
X93176297Y-103432866D01*
X93269372Y-103572161D01*
X93269375Y-103572165D01*
X94657830Y-104960619D01*
X94657831Y-104960620D01*
X94657834Y-104960622D01*
X94657838Y-104960626D01*
X94797137Y-105053704D01*
X94908887Y-105099992D01*
X94951918Y-105117816D01*
X95116228Y-105150499D01*
X95116232Y-105150500D01*
X95116233Y-105150500D01*
X95800500Y-105150500D01*
X95867539Y-105170185D01*
X95913294Y-105222989D01*
X95924500Y-105274500D01*
X95924500Y-106000001D01*
X95924501Y-106000019D01*
X95935000Y-106102796D01*
X95935001Y-106102799D01*
X95990185Y-106269331D01*
X95990187Y-106269336D01*
X95998827Y-106283343D01*
X96082288Y-106418656D01*
X96206344Y-106542712D01*
X96355666Y-106634814D01*
X96522203Y-106689999D01*
X96624991Y-106700500D01*
X97975008Y-106700499D01*
X98077797Y-106689999D01*
X98244334Y-106634814D01*
X98393656Y-106542712D01*
X98517712Y-106418656D01*
X98609814Y-106269334D01*
X98664999Y-106102797D01*
X98675500Y-106000009D01*
X98675499Y-105099992D01*
X98664999Y-104997203D01*
X98609814Y-104830666D01*
X98517712Y-104681344D01*
X98393656Y-104557288D01*
X98244334Y-104465186D01*
X98244328Y-104465184D01*
X98210494Y-104453972D01*
X98190462Y-104440102D01*
X98168297Y-104429980D01*
X98162248Y-104420567D01*
X98153050Y-104414199D01*
X98143696Y-104391700D01*
X98130523Y-104371202D01*
X98128063Y-104354098D01*
X98126228Y-104349683D01*
X98125500Y-104336267D01*
X98125500Y-104255448D01*
X98145185Y-104188409D01*
X98197989Y-104142654D01*
X98210488Y-104137744D01*
X98219334Y-104134814D01*
X98368656Y-104042712D01*
X98492712Y-103918656D01*
X98584814Y-103769334D01*
X98639999Y-103602797D01*
X98650500Y-103500009D01*
X98650499Y-102599992D01*
X98639999Y-102497203D01*
X98584814Y-102330666D01*
X98492712Y-102181344D01*
X98368656Y-102057288D01*
X98244472Y-101980691D01*
X98219336Y-101965187D01*
X98219331Y-101965185D01*
X98160387Y-101945653D01*
X98052797Y-101910001D01*
X98052795Y-101910000D01*
X97950010Y-101899500D01*
X96599998Y-101899500D01*
X96599981Y-101899501D01*
X96497203Y-101910000D01*
X96497200Y-101910001D01*
X96330668Y-101965185D01*
X96330663Y-101965187D01*
X96181342Y-102057289D01*
X96057289Y-102181342D01*
X95965187Y-102330663D01*
X95965185Y-102330668D01*
X95948834Y-102380012D01*
X95910001Y-102497203D01*
X95910001Y-102497204D01*
X95910000Y-102497204D01*
X95899500Y-102599983D01*
X95899500Y-102599991D01*
X95899500Y-102982597D01*
X95899501Y-103325500D01*
X95896950Y-103334186D01*
X95898239Y-103343147D01*
X95887261Y-103367183D01*
X95879817Y-103392539D01*
X95872974Y-103398467D01*
X95869214Y-103406703D01*
X95846982Y-103420989D01*
X95827013Y-103438294D01*
X95816497Y-103440581D01*
X95810436Y-103444477D01*
X95775501Y-103449500D01*
X95603650Y-103449500D01*
X95536611Y-103429815D01*
X95515969Y-103413181D01*
X94816819Y-102714030D01*
X94783334Y-102652707D01*
X94780500Y-102626349D01*
X94780500Y-101891232D01*
X94780499Y-101891228D01*
X94762840Y-101802450D01*
X94747816Y-101726918D01*
X94739939Y-101707901D01*
X94739938Y-101707898D01*
X94730499Y-101660446D01*
X94730499Y-101152129D01*
X94730498Y-101152123D01*
X94730497Y-101152116D01*
X94724091Y-101092517D01*
X94718655Y-101077944D01*
X94713670Y-101008254D01*
X94718655Y-100991276D01*
X94768597Y-100857376D01*
X94768598Y-100857372D01*
X94774767Y-100800000D01*
X96046369Y-100800000D01*
X96057684Y-100818345D01*
X96181654Y-100942315D01*
X96330875Y-101034356D01*
X96330880Y-101034358D01*
X96497302Y-101089505D01*
X96497309Y-101089506D01*
X96600019Y-101099999D01*
X97024999Y-101099999D01*
X97025000Y-101099998D01*
X97025000Y-100800000D01*
X97525000Y-100800000D01*
X97525000Y-101099999D01*
X97949972Y-101099999D01*
X97949986Y-101099998D01*
X98052697Y-101089505D01*
X98219119Y-101034358D01*
X98219124Y-101034356D01*
X98368345Y-100942315D01*
X98492315Y-100818345D01*
X98503630Y-100800000D01*
X99750000Y-100800000D01*
X99750000Y-108349500D01*
X98799499Y-108349500D01*
X98732460Y-108329815D01*
X98686705Y-108277011D01*
X98675499Y-108225500D01*
X98675499Y-108199998D01*
X98675498Y-108199981D01*
X98664999Y-108097203D01*
X98664998Y-108097200D01*
X98652318Y-108058935D01*
X98609814Y-107930666D01*
X98517712Y-107781344D01*
X98393656Y-107657288D01*
X98251967Y-107569894D01*
X98244336Y-107565187D01*
X98244331Y-107565185D01*
X98242862Y-107564698D01*
X98077797Y-107510001D01*
X98077795Y-107510000D01*
X97975010Y-107499500D01*
X96624998Y-107499500D01*
X96624981Y-107499501D01*
X96522203Y-107510000D01*
X96522200Y-107510001D01*
X96355668Y-107565185D01*
X96355663Y-107565187D01*
X96206342Y-107657289D01*
X96082289Y-107781342D01*
X95990187Y-107930663D01*
X95990186Y-107930666D01*
X95935001Y-108097203D01*
X95935001Y-108097204D01*
X95935000Y-108097204D01*
X95924500Y-108199983D01*
X95924500Y-109100001D01*
X95924501Y-109100019D01*
X95935000Y-109202796D01*
X95935001Y-109202799D01*
X95990185Y-109369331D01*
X95990187Y-109369336D01*
X96005708Y-109394500D01*
X96082288Y-109518656D01*
X96206344Y-109642712D01*
X96355666Y-109734814D01*
X96522203Y-109789999D01*
X96624991Y-109800500D01*
X97196348Y-109800499D01*
X97263387Y-109820183D01*
X97284029Y-109836818D01*
X97307837Y-109860626D01*
X97391514Y-109916537D01*
X97447137Y-109953703D01*
X97601918Y-110017816D01*
X97766228Y-110050499D01*
X97766232Y-110050500D01*
X97766233Y-110050500D01*
X99470500Y-110050500D01*
X99479185Y-110053050D01*
X99488147Y-110051762D01*
X99512187Y-110062740D01*
X99537539Y-110070185D01*
X99543466Y-110077025D01*
X99551703Y-110080787D01*
X99565992Y-110103021D01*
X99583294Y-110122989D01*
X99585581Y-110133503D01*
X99589477Y-110139565D01*
X99594500Y-110174500D01*
X99594500Y-110320500D01*
X99574815Y-110387539D01*
X99522011Y-110433294D01*
X99470500Y-110444500D01*
X89724000Y-110444500D01*
X89723991Y-110444500D01*
X89723990Y-110444501D01*
X89616549Y-110456052D01*
X89616537Y-110456054D01*
X89565027Y-110467260D01*
X89462502Y-110501383D01*
X89462496Y-110501386D01*
X89341462Y-110579171D01*
X89341451Y-110579179D01*
X89288659Y-110624923D01*
X89194433Y-110733664D01*
X89194430Y-110733668D01*
X89134664Y-110864534D01*
X89114976Y-110931582D01*
X89107002Y-110987047D01*
X89094500Y-111074000D01*
X89094500Y-113626000D01*
X89094501Y-113626009D01*
X89106052Y-113733450D01*
X89106054Y-113733462D01*
X89117260Y-113784972D01*
X89151383Y-113887497D01*
X89151386Y-113887503D01*
X89229171Y-114008537D01*
X89229179Y-114008548D01*
X89274923Y-114061340D01*
X89274926Y-114061343D01*
X89274930Y-114061347D01*
X89383664Y-114155567D01*
X89514541Y-114215338D01*
X89581580Y-114235023D01*
X89581584Y-114235024D01*
X89724000Y-114255500D01*
X106675500Y-114255500D01*
X106742539Y-114275185D01*
X106788294Y-114327989D01*
X106799500Y-114379500D01*
X106799500Y-124348541D01*
X106799500Y-124348543D01*
X106799499Y-124348543D01*
X106837947Y-124541829D01*
X106837950Y-124541839D01*
X106913364Y-124723907D01*
X106913371Y-124723920D01*
X107022859Y-124887780D01*
X107022860Y-124887781D01*
X107022861Y-124887782D01*
X107162218Y-125027139D01*
X107162219Y-125027139D01*
X107169286Y-125034206D01*
X107169285Y-125034206D01*
X107169288Y-125034208D01*
X109327860Y-127192781D01*
X109327861Y-127192782D01*
X109404999Y-127269920D01*
X109467219Y-127332140D01*
X109631079Y-127441628D01*
X109631092Y-127441635D01*
X109759833Y-127494961D01*
X109802744Y-127512735D01*
X109813164Y-127517051D01*
X109909812Y-127536275D01*
X109958135Y-127545887D01*
X110006458Y-127555500D01*
X110006459Y-127555500D01*
X110006460Y-127555500D01*
X110203540Y-127555500D01*
X111096031Y-127555500D01*
X111118519Y-127562103D01*
X111141855Y-127564278D01*
X111154693Y-127572725D01*
X111163070Y-127575185D01*
X111172460Y-127581855D01*
X111178388Y-127586495D01*
X111215135Y-127623242D01*
X111357224Y-127726475D01*
X111358987Y-127727855D01*
X111378069Y-127754523D01*
X111398109Y-127780511D01*
X111398306Y-127782805D01*
X111399645Y-127784677D01*
X111401280Y-127817439D01*
X111404088Y-127850125D01*
X111403014Y-127852160D01*
X111403129Y-127854460D01*
X111386790Y-127882909D01*
X111371483Y-127911920D01*
X111369478Y-127913052D01*
X111368332Y-127915048D01*
X111339211Y-127930144D01*
X111310644Y-127946277D01*
X111307366Y-127946653D01*
X111306302Y-127947205D01*
X111304235Y-127947012D01*
X111282558Y-127949500D01*
X108066228Y-127949500D01*
X107901925Y-127982182D01*
X107901917Y-127982184D01*
X107747139Y-128046295D01*
X107607837Y-128139373D01*
X107489373Y-128257837D01*
X107396295Y-128397139D01*
X107332184Y-128551917D01*
X107332182Y-128551925D01*
X107299500Y-128716228D01*
X107299500Y-128883771D01*
X107332182Y-129048074D01*
X107332184Y-129048082D01*
X107396295Y-129202860D01*
X107489373Y-129342162D01*
X107607837Y-129460626D01*
X107700494Y-129522537D01*
X107747137Y-129553703D01*
X107747138Y-129553703D01*
X107747139Y-129553704D01*
X107782201Y-129568227D01*
X107901918Y-129617816D01*
X108066228Y-129650499D01*
X108066232Y-129650500D01*
X108066233Y-129650500D01*
X113483768Y-129650500D01*
X113483769Y-129650499D01*
X113538538Y-129639605D01*
X113648074Y-129617818D01*
X113648078Y-129617816D01*
X113648082Y-129617816D01*
X113693415Y-129599037D01*
X113802863Y-129553704D01*
X113942162Y-129460627D01*
X114519022Y-128883767D01*
X114871294Y-128531495D01*
X120149499Y-128531495D01*
X120176418Y-128666822D01*
X120176421Y-128666832D01*
X120229221Y-128794304D01*
X120229228Y-128794317D01*
X120305885Y-128909041D01*
X120305888Y-128909045D01*
X120403454Y-129006611D01*
X120403458Y-129006614D01*
X120518182Y-129083271D01*
X120518195Y-129083278D01*
X120645667Y-129136078D01*
X120645672Y-129136080D01*
X120645676Y-129136080D01*
X120645677Y-129136081D01*
X120781004Y-129163000D01*
X120781007Y-129163000D01*
X120918995Y-129163000D01*
X121010041Y-129144889D01*
X121054328Y-129136080D01*
X121181811Y-129083275D01*
X121296542Y-129006614D01*
X121394114Y-128909042D01*
X121470775Y-128794311D01*
X121523580Y-128666828D01*
X121546437Y-128551918D01*
X121550500Y-128531495D01*
X128149499Y-128531495D01*
X128176418Y-128666822D01*
X128176421Y-128666832D01*
X128229221Y-128794304D01*
X128229228Y-128794317D01*
X128305885Y-128909041D01*
X128305888Y-128909045D01*
X128403454Y-129006611D01*
X128403458Y-129006614D01*
X128518182Y-129083271D01*
X128518195Y-129083278D01*
X128645667Y-129136078D01*
X128645672Y-129136080D01*
X128645676Y-129136080D01*
X128645677Y-129136081D01*
X128781004Y-129163000D01*
X128781007Y-129163000D01*
X128918995Y-129163000D01*
X129010041Y-129144889D01*
X129054328Y-129136080D01*
X129181811Y-129083275D01*
X129296542Y-129006614D01*
X129394114Y-128909042D01*
X129470775Y-128794311D01*
X129523580Y-128666828D01*
X129546437Y-128551918D01*
X129550500Y-128531495D01*
X129550500Y-128393504D01*
X129523581Y-128258177D01*
X129523580Y-128258176D01*
X129523580Y-128258172D01*
X129479960Y-128152863D01*
X129470778Y-128130695D01*
X129470771Y-128130682D01*
X129394114Y-128015958D01*
X129394111Y-128015954D01*
X129296545Y-127918388D01*
X129296541Y-127918385D01*
X129181817Y-127841728D01*
X129181804Y-127841721D01*
X129054332Y-127788921D01*
X129054322Y-127788918D01*
X128918995Y-127762000D01*
X128918993Y-127762000D01*
X128781007Y-127762000D01*
X128781005Y-127762000D01*
X128645677Y-127788918D01*
X128645667Y-127788921D01*
X128518195Y-127841721D01*
X128518182Y-127841728D01*
X128403458Y-127918385D01*
X128403454Y-127918388D01*
X128305888Y-128015954D01*
X128305885Y-128015958D01*
X128229228Y-128130682D01*
X128229221Y-128130695D01*
X128176421Y-128258167D01*
X128176418Y-128258177D01*
X128149500Y-128393504D01*
X128149500Y-128393507D01*
X128149500Y-128531493D01*
X128149500Y-128531495D01*
X128149499Y-128531495D01*
X121550500Y-128531495D01*
X121550500Y-128393504D01*
X121523581Y-128258177D01*
X121523580Y-128258176D01*
X121523580Y-128258172D01*
X121479960Y-128152863D01*
X121470778Y-128130695D01*
X121470771Y-128130682D01*
X121394114Y-128015958D01*
X121394111Y-128015954D01*
X121296545Y-127918388D01*
X121296541Y-127918385D01*
X121181817Y-127841728D01*
X121181804Y-127841721D01*
X121054332Y-127788921D01*
X121054322Y-127788918D01*
X120918995Y-127762000D01*
X120918993Y-127762000D01*
X120781007Y-127762000D01*
X120781005Y-127762000D01*
X120645677Y-127788918D01*
X120645667Y-127788921D01*
X120518195Y-127841721D01*
X120518182Y-127841728D01*
X120403458Y-127918385D01*
X120403454Y-127918388D01*
X120305888Y-128015954D01*
X120305885Y-128015958D01*
X120229228Y-128130682D01*
X120229221Y-128130695D01*
X120176421Y-128258167D01*
X120176418Y-128258177D01*
X120149500Y-128393504D01*
X120149500Y-128393507D01*
X120149500Y-128531493D01*
X120149500Y-128531495D01*
X120149499Y-128531495D01*
X114871294Y-128531495D01*
X115110620Y-128292169D01*
X115110621Y-128292166D01*
X115110626Y-128292162D01*
X115203704Y-128152863D01*
X115221235Y-128110536D01*
X115235759Y-128075474D01*
X115235759Y-128075472D01*
X115247844Y-128046297D01*
X115267816Y-127998082D01*
X115300500Y-127833767D01*
X115300500Y-86716233D01*
X115267816Y-86551918D01*
X115234395Y-86471233D01*
X115226678Y-86452603D01*
X115221682Y-86440541D01*
X115203704Y-86397137D01*
X115203702Y-86397135D01*
X115203702Y-86397133D01*
X115110627Y-86257838D01*
X115110624Y-86257834D01*
X114107165Y-85254375D01*
X114107161Y-85254372D01*
X113967869Y-85161299D01*
X113967856Y-85161292D01*
X113853846Y-85114069D01*
X113853844Y-85114068D01*
X113813086Y-85097185D01*
X113813074Y-85097182D01*
X113648771Y-85064500D01*
X113648767Y-85064500D01*
X113303871Y-85064500D01*
X113236832Y-85044815D01*
X113203554Y-85013387D01*
X113195746Y-85002641D01*
X113195742Y-85002635D01*
X113039865Y-84846758D01*
X113039863Y-84846756D01*
X113039858Y-84846752D01*
X112900245Y-84745318D01*
X112857579Y-84689989D01*
X112851600Y-84620375D01*
X112884205Y-84558580D01*
X112900245Y-84544682D01*
X113039858Y-84443247D01*
X113039856Y-84443247D01*
X113039865Y-84443242D01*
X113195742Y-84287365D01*
X113325315Y-84109022D01*
X113425395Y-83912606D01*
X113493515Y-83702951D01*
X113528000Y-83485222D01*
X113528000Y-83264778D01*
X113493515Y-83047049D01*
X113447635Y-82905842D01*
X113425396Y-82837396D01*
X113425395Y-82837393D01*
X113390737Y-82769375D01*
X113325315Y-82640978D01*
X113246631Y-82532678D01*
X113195747Y-82462641D01*
X113195743Y-82462636D01*
X113145571Y-82412464D01*
X113112086Y-82351141D01*
X113117070Y-82281449D01*
X113158942Y-82225516D01*
X113189920Y-82208601D01*
X113269826Y-82178798D01*
X113269826Y-82178797D01*
X113269831Y-82178796D01*
X113385046Y-82092546D01*
X113471296Y-81977331D01*
X113521591Y-81842483D01*
X113528000Y-81782873D01*
X113527999Y-79887128D01*
X113521591Y-79827517D01*
X113514720Y-79809094D01*
X113499331Y-79767832D01*
X113494347Y-79698141D01*
X113527833Y-79636818D01*
X113589156Y-79603334D01*
X113615513Y-79600500D01*
X117896349Y-79600500D01*
X117963388Y-79620185D01*
X117984030Y-79636819D01*
X127563181Y-89215970D01*
X127596666Y-89277293D01*
X127599500Y-89303651D01*
X127599500Y-110333771D01*
X127632182Y-110498074D01*
X127632184Y-110498082D01*
X127696295Y-110652860D01*
X127789373Y-110792162D01*
X127907837Y-110910626D01*
X128000494Y-110972537D01*
X128047137Y-111003703D01*
X128201918Y-111067816D01*
X128366228Y-111100499D01*
X128366232Y-111100500D01*
X128366233Y-111100500D01*
X128533768Y-111100500D01*
X128533769Y-111100499D01*
X128698082Y-111067816D01*
X128852863Y-111003703D01*
X128992162Y-110910626D01*
X129110626Y-110792162D01*
X129203703Y-110652863D01*
X129267816Y-110498082D01*
X129300500Y-110333767D01*
X129300500Y-110141150D01*
X129320185Y-110074111D01*
X129336815Y-110053473D01*
X129803470Y-109586817D01*
X129864793Y-109553333D01*
X129891151Y-109550499D01*
X130500002Y-109550499D01*
X130500008Y-109550499D01*
X130602797Y-109539999D01*
X130769334Y-109484814D01*
X130918656Y-109392712D01*
X131042712Y-109268656D01*
X131134814Y-109119334D01*
X131189999Y-108952797D01*
X131200500Y-108850009D01*
X131200500Y-108849986D01*
X132000001Y-108849986D01*
X132010494Y-108952697D01*
X132065641Y-109119119D01*
X132065643Y-109119124D01*
X132157684Y-109268345D01*
X132281654Y-109392315D01*
X132430875Y-109484356D01*
X132430880Y-109484358D01*
X132597302Y-109539505D01*
X132597309Y-109539506D01*
X132700019Y-109549999D01*
X132912499Y-109549999D01*
X133412500Y-109549999D01*
X133624972Y-109549999D01*
X133624986Y-109549998D01*
X133727697Y-109539505D01*
X133894119Y-109484358D01*
X133894124Y-109484356D01*
X134043345Y-109392315D01*
X134167315Y-109268345D01*
X134259356Y-109119124D01*
X134259358Y-109119119D01*
X134314505Y-108952697D01*
X134314506Y-108952690D01*
X134324999Y-108849986D01*
X134325000Y-108849973D01*
X134325000Y-108400000D01*
X133412500Y-108400000D01*
X133412500Y-109549999D01*
X132912499Y-109549999D01*
X132912500Y-109549998D01*
X132912500Y-108400000D01*
X132000001Y-108400000D01*
X132000001Y-108849986D01*
X131200500Y-108849986D01*
X131200499Y-108140211D01*
X131200499Y-107450026D01*
X132000000Y-107450026D01*
X132000000Y-107900000D01*
X132912500Y-107900000D01*
X133412500Y-107900000D01*
X134324999Y-107900000D01*
X134324999Y-107450028D01*
X134324998Y-107450008D01*
X134314505Y-107347302D01*
X134259358Y-107180880D01*
X134259356Y-107180875D01*
X134167315Y-107031654D01*
X134043345Y-106907684D01*
X133894124Y-106815643D01*
X133894119Y-106815641D01*
X133727697Y-106760494D01*
X133727690Y-106760493D01*
X133624986Y-106750000D01*
X133412500Y-106750000D01*
X133412500Y-107900000D01*
X132912500Y-107900000D01*
X132912500Y-106750000D01*
X132700029Y-106750000D01*
X132700012Y-106750001D01*
X132597302Y-106760494D01*
X132430880Y-106815641D01*
X132430875Y-106815643D01*
X132281654Y-106907684D01*
X132157684Y-107031654D01*
X132065643Y-107180875D01*
X132065641Y-107180880D01*
X132010494Y-107347302D01*
X132010493Y-107347309D01*
X132000001Y-107450008D01*
X132000000Y-107450026D01*
X131200499Y-107450026D01*
X131200499Y-107449998D01*
X131200498Y-107449981D01*
X131189999Y-107347203D01*
X131189998Y-107347200D01*
X131175432Y-107303242D01*
X131134814Y-107180666D01*
X131042712Y-107031344D01*
X130918656Y-106907288D01*
X130782839Y-106823516D01*
X130769336Y-106815187D01*
X130769331Y-106815185D01*
X130746311Y-106807557D01*
X130602797Y-106760001D01*
X130602795Y-106760000D01*
X130500010Y-106749500D01*
X129574998Y-106749500D01*
X129574980Y-106749501D01*
X129472203Y-106760000D01*
X129472202Y-106760001D01*
X129463502Y-106762884D01*
X129393674Y-106765284D01*
X129333632Y-106729552D01*
X129302441Y-106667031D01*
X129300500Y-106645177D01*
X129300500Y-88816232D01*
X129300499Y-88816228D01*
X129298279Y-88805065D01*
X129267816Y-88651918D01*
X129242735Y-88591368D01*
X129203704Y-88497137D01*
X129203702Y-88497135D01*
X129203702Y-88497133D01*
X129110627Y-88357838D01*
X129110624Y-88357834D01*
X118842165Y-78089375D01*
X118842161Y-78089372D01*
X118702866Y-77996297D01*
X118702863Y-77996296D01*
X118589886Y-77949500D01*
X118548082Y-77932184D01*
X118548074Y-77932182D01*
X118383771Y-77899500D01*
X118383767Y-77899500D01*
X107366233Y-77899500D01*
X107366228Y-77899500D01*
X107201925Y-77932182D01*
X107201917Y-77932184D01*
X107047139Y-77996295D01*
X106907837Y-78089373D01*
X106789373Y-78207837D01*
X106696295Y-78347139D01*
X106632184Y-78501917D01*
X106632182Y-78501925D01*
X106599500Y-78666228D01*
X106599500Y-78833771D01*
X106632182Y-78998074D01*
X106632184Y-78998082D01*
X106696295Y-79152860D01*
X106789373Y-79292162D01*
X106907837Y-79410626D01*
X106966765Y-79450000D01*
X107047137Y-79503703D01*
X107201918Y-79567816D01*
X107356616Y-79598587D01*
X107366228Y-79600499D01*
X107366232Y-79600500D01*
X107366233Y-79600500D01*
X110639487Y-79600500D01*
X110706526Y-79620185D01*
X110752281Y-79672989D01*
X110762225Y-79742147D01*
X110755669Y-79767832D01*
X110733409Y-79827514D01*
X110733408Y-79827516D01*
X110728369Y-79874394D01*
X110727001Y-79887123D01*
X110727000Y-79887135D01*
X110727000Y-81782870D01*
X110727001Y-81782876D01*
X110733408Y-81842483D01*
X110783702Y-81977328D01*
X110783706Y-81977335D01*
X110869952Y-82092544D01*
X110869955Y-82092547D01*
X110985164Y-82178793D01*
X110985171Y-82178797D01*
X111065080Y-82208601D01*
X111121014Y-82250472D01*
X111145431Y-82315936D01*
X111130580Y-82384209D01*
X111109429Y-82412463D01*
X111059256Y-82462636D01*
X111059252Y-82462641D01*
X110929687Y-82640974D01*
X110829604Y-82837393D01*
X110829603Y-82837396D01*
X110761485Y-83047047D01*
X110727000Y-83264778D01*
X110727000Y-83485221D01*
X110761485Y-83702952D01*
X110829603Y-83912603D01*
X110829604Y-83912606D01*
X110885605Y-84022511D01*
X110922540Y-84095000D01*
X110929687Y-84109025D01*
X111059252Y-84287358D01*
X111059256Y-84287363D01*
X111215136Y-84443243D01*
X111215141Y-84443247D01*
X111354754Y-84544682D01*
X111397420Y-84600012D01*
X111403399Y-84669625D01*
X111370793Y-84731420D01*
X111354754Y-84745318D01*
X111215141Y-84846752D01*
X111215136Y-84846756D01*
X111059256Y-85002636D01*
X111059252Y-85002641D01*
X110929687Y-85180974D01*
X110829604Y-85377393D01*
X110829603Y-85377396D01*
X110761485Y-85587047D01*
X110727000Y-85804778D01*
X110727000Y-86025221D01*
X110761485Y-86242952D01*
X110829603Y-86452603D01*
X110829604Y-86452606D01*
X110880211Y-86551925D01*
X110924461Y-86638770D01*
X110929687Y-86649025D01*
X111059252Y-86827358D01*
X111059256Y-86827363D01*
X111215136Y-86983243D01*
X111215141Y-86983247D01*
X111354754Y-87084682D01*
X111397420Y-87140012D01*
X111403399Y-87209625D01*
X111370793Y-87271420D01*
X111354754Y-87285318D01*
X111215141Y-87386752D01*
X111215136Y-87386756D01*
X111059256Y-87542636D01*
X111059252Y-87542641D01*
X110929687Y-87720974D01*
X110829604Y-87917393D01*
X110829603Y-87917396D01*
X110761485Y-88127047D01*
X110730437Y-88323076D01*
X110727000Y-88344778D01*
X110727000Y-88565222D01*
X110732951Y-88602797D01*
X110761485Y-88782952D01*
X110829603Y-88992603D01*
X110829604Y-88992606D01*
X110889985Y-89111107D01*
X110925962Y-89181716D01*
X110929687Y-89189025D01*
X111059252Y-89367358D01*
X111059256Y-89367363D01*
X111215136Y-89523243D01*
X111215141Y-89523247D01*
X111354754Y-89624682D01*
X111397420Y-89680012D01*
X111403399Y-89749625D01*
X111370793Y-89811420D01*
X111354754Y-89825318D01*
X111215141Y-89926752D01*
X111215136Y-89926756D01*
X111059256Y-90082636D01*
X111059252Y-90082641D01*
X110929687Y-90260974D01*
X110829604Y-90457393D01*
X110829603Y-90457396D01*
X110761485Y-90667047D01*
X110727000Y-90884778D01*
X110727000Y-91105221D01*
X110761485Y-91322952D01*
X110829603Y-91532603D01*
X110829604Y-91532606D01*
X110867029Y-91606054D01*
X110929006Y-91727690D01*
X110929687Y-91729025D01*
X111059252Y-91907358D01*
X111059256Y-91907363D01*
X111215136Y-92063243D01*
X111215141Y-92063247D01*
X111354754Y-92164682D01*
X111397420Y-92220012D01*
X111403399Y-92289625D01*
X111370793Y-92351420D01*
X111354754Y-92365318D01*
X111215141Y-92466752D01*
X111215136Y-92466756D01*
X111059256Y-92622636D01*
X111059252Y-92622641D01*
X110929687Y-92800974D01*
X110829604Y-92997393D01*
X110829603Y-92997396D01*
X110761485Y-93207047D01*
X110727000Y-93424778D01*
X110727000Y-93645221D01*
X110761485Y-93862952D01*
X110829603Y-94072603D01*
X110829604Y-94072606D01*
X110869032Y-94149986D01*
X110923846Y-94257563D01*
X110929687Y-94269025D01*
X111059252Y-94447358D01*
X111059256Y-94447363D01*
X111215136Y-94603243D01*
X111215141Y-94603247D01*
X111354754Y-94704682D01*
X111397420Y-94760012D01*
X111403399Y-94829625D01*
X111370793Y-94891420D01*
X111354754Y-94905318D01*
X111215141Y-95006752D01*
X111215136Y-95006756D01*
X111059256Y-95162636D01*
X111059252Y-95162641D01*
X110929687Y-95340974D01*
X110829604Y-95537393D01*
X110829603Y-95537396D01*
X110761485Y-95747047D01*
X110727000Y-95964778D01*
X110727000Y-96185221D01*
X110761485Y-96402952D01*
X110829603Y-96612603D01*
X110829604Y-96612606D01*
X110867029Y-96686054D01*
X110926199Y-96802181D01*
X110929687Y-96809025D01*
X111059252Y-96987358D01*
X111059256Y-96987363D01*
X111215136Y-97143243D01*
X111215141Y-97143247D01*
X111354754Y-97244682D01*
X111397420Y-97300012D01*
X111403399Y-97369625D01*
X111370793Y-97431420D01*
X111354754Y-97445318D01*
X111215141Y-97546752D01*
X111215136Y-97546756D01*
X111059256Y-97702636D01*
X111059252Y-97702641D01*
X110929687Y-97880974D01*
X110829604Y-98077393D01*
X110829603Y-98077396D01*
X110761485Y-98287047D01*
X110747905Y-98372787D01*
X110727000Y-98504778D01*
X110727000Y-98725222D01*
X110739493Y-98804101D01*
X110761485Y-98942952D01*
X110829603Y-99152603D01*
X110829604Y-99152606D01*
X110864692Y-99221468D01*
X110929076Y-99347827D01*
X110929687Y-99349025D01*
X111059252Y-99527358D01*
X111059256Y-99527363D01*
X111215136Y-99683243D01*
X111215141Y-99683247D01*
X111354754Y-99784682D01*
X111397420Y-99840012D01*
X111403399Y-99909625D01*
X111370793Y-99971420D01*
X111354754Y-99985318D01*
X111215141Y-100086752D01*
X111215136Y-100086756D01*
X111059256Y-100242636D01*
X111059252Y-100242641D01*
X110929687Y-100420974D01*
X110829604Y-100617393D01*
X110829603Y-100617396D01*
X110761485Y-100827047D01*
X110740797Y-100957669D01*
X110727000Y-101044778D01*
X110727000Y-101265222D01*
X110736408Y-101324624D01*
X110761485Y-101482952D01*
X110829603Y-101692603D01*
X110829604Y-101692606D01*
X110867029Y-101766054D01*
X110908699Y-101847836D01*
X110929687Y-101889025D01*
X111059252Y-102067358D01*
X111059256Y-102067363D01*
X111215136Y-102223243D01*
X111215141Y-102223247D01*
X111354754Y-102324682D01*
X111397420Y-102380012D01*
X111403399Y-102449625D01*
X111370793Y-102511420D01*
X111354754Y-102525318D01*
X111215141Y-102626752D01*
X111215136Y-102626756D01*
X111059256Y-102782636D01*
X111059252Y-102782641D01*
X110929687Y-102960974D01*
X110829604Y-103157393D01*
X110829603Y-103157396D01*
X110761485Y-103367047D01*
X110740426Y-103500009D01*
X110727000Y-103584778D01*
X110727000Y-103805222D01*
X110736273Y-103863767D01*
X110761485Y-104022952D01*
X110829603Y-104232603D01*
X110829604Y-104232606D01*
X110875238Y-104322165D01*
X110928047Y-104425808D01*
X110929687Y-104429025D01*
X111059252Y-104607358D01*
X111059256Y-104607363D01*
X111215136Y-104763243D01*
X111215141Y-104763247D01*
X111354754Y-104864682D01*
X111397420Y-104920012D01*
X111403399Y-104989625D01*
X111370793Y-105051420D01*
X111354754Y-105065318D01*
X111215141Y-105166752D01*
X111215136Y-105166756D01*
X111059256Y-105322636D01*
X111059252Y-105322641D01*
X110929687Y-105500974D01*
X110829604Y-105697393D01*
X110829603Y-105697396D01*
X110761485Y-105907047D01*
X110727000Y-106124778D01*
X110727000Y-106345221D01*
X110761485Y-106562952D01*
X110829603Y-106772603D01*
X110829604Y-106772606D01*
X110929687Y-106969025D01*
X111059252Y-107147358D01*
X111059256Y-107147363D01*
X111215136Y-107303243D01*
X111215141Y-107303247D01*
X111354754Y-107404682D01*
X111397420Y-107460012D01*
X111403399Y-107529625D01*
X111370793Y-107591420D01*
X111354754Y-107605318D01*
X111215141Y-107706752D01*
X111215136Y-107706756D01*
X111059256Y-107862636D01*
X111059252Y-107862641D01*
X110929687Y-108040974D01*
X110829604Y-108237393D01*
X110829603Y-108237396D01*
X110761485Y-108447047D01*
X110727000Y-108664778D01*
X110727000Y-108885221D01*
X110761485Y-109102952D01*
X110829603Y-109312603D01*
X110829604Y-109312606D01*
X110881766Y-109414977D01*
X110922942Y-109495789D01*
X110929687Y-109509025D01*
X111059252Y-109687358D01*
X111059256Y-109687363D01*
X111215136Y-109843243D01*
X111215141Y-109843247D01*
X111354754Y-109944682D01*
X111397420Y-110000012D01*
X111403399Y-110069625D01*
X111370793Y-110131420D01*
X111354754Y-110145318D01*
X111215141Y-110246752D01*
X111215136Y-110246756D01*
X111059256Y-110402636D01*
X111059252Y-110402641D01*
X110929687Y-110580974D01*
X110829604Y-110777393D01*
X110829603Y-110777396D01*
X110761485Y-110987047D01*
X110727000Y-111204778D01*
X110727000Y-111425221D01*
X110761485Y-111642952D01*
X110829603Y-111852603D01*
X110829604Y-111852606D01*
X110929687Y-112049025D01*
X111059252Y-112227358D01*
X111059256Y-112227363D01*
X111215140Y-112383247D01*
X111355179Y-112484990D01*
X111397845Y-112540319D01*
X111403824Y-112609933D01*
X111371219Y-112671728D01*
X111355179Y-112685626D01*
X111329985Y-112703930D01*
X111329985Y-112703932D01*
X112038914Y-113412861D01*
X111953806Y-113435667D01*
X111851194Y-113494910D01*
X111767410Y-113578694D01*
X111708167Y-113681306D01*
X111685361Y-113766414D01*
X110976432Y-113057485D01*
X110976431Y-113057485D01*
X110930116Y-113121233D01*
X110830067Y-113317589D01*
X110761973Y-113527164D01*
X110727500Y-113744818D01*
X110727500Y-113965181D01*
X110761973Y-114182835D01*
X110830067Y-114392410D01*
X110930111Y-114588756D01*
X110976432Y-114652513D01*
X111685361Y-113943584D01*
X111708167Y-114028694D01*
X111767410Y-114131306D01*
X111851194Y-114215090D01*
X111953806Y-114274333D01*
X112038914Y-114297137D01*
X111329985Y-115006065D01*
X111329985Y-115006066D01*
X111355180Y-115024371D01*
X111397846Y-115079701D01*
X111403825Y-115149314D01*
X111371220Y-115211110D01*
X111355181Y-115225008D01*
X111215136Y-115326756D01*
X111059256Y-115482636D01*
X111059252Y-115482641D01*
X110929687Y-115660974D01*
X110829604Y-115857393D01*
X110829603Y-115857396D01*
X110761485Y-116067047D01*
X110727000Y-116284778D01*
X110727000Y-116505221D01*
X110761485Y-116722952D01*
X110829603Y-116932603D01*
X110829604Y-116932606D01*
X110929687Y-117129025D01*
X111059252Y-117307358D01*
X111059256Y-117307363D01*
X111215136Y-117463243D01*
X111215141Y-117463247D01*
X111354754Y-117564682D01*
X111397420Y-117620012D01*
X111403399Y-117689625D01*
X111370793Y-117751420D01*
X111354754Y-117765318D01*
X111215141Y-117866752D01*
X111215136Y-117866756D01*
X111059256Y-118022636D01*
X111059252Y-118022641D01*
X110929687Y-118200974D01*
X110829604Y-118397393D01*
X110829603Y-118397396D01*
X110761485Y-118607047D01*
X110727000Y-118824778D01*
X110727000Y-119045221D01*
X110761485Y-119262952D01*
X110829603Y-119472603D01*
X110829604Y-119472606D01*
X110867029Y-119546054D01*
X110915941Y-119642049D01*
X110929687Y-119669025D01*
X111059252Y-119847358D01*
X111059256Y-119847363D01*
X111215136Y-120003243D01*
X111215141Y-120003247D01*
X111354754Y-120104682D01*
X111397420Y-120160012D01*
X111403399Y-120229625D01*
X111370793Y-120291420D01*
X111354754Y-120305318D01*
X111215141Y-120406752D01*
X111215136Y-120406756D01*
X111059256Y-120562636D01*
X111059252Y-120562641D01*
X110929687Y-120740974D01*
X110829604Y-120937393D01*
X110829603Y-120937396D01*
X110761485Y-121147047D01*
X110727000Y-121364778D01*
X110727000Y-121585221D01*
X110761485Y-121802952D01*
X110829603Y-122012603D01*
X110829604Y-122012606D01*
X110929687Y-122209025D01*
X111059252Y-122387358D01*
X111059256Y-122387363D01*
X111215136Y-122543243D01*
X111215141Y-122543247D01*
X111354754Y-122644682D01*
X111397420Y-122700012D01*
X111403399Y-122769625D01*
X111370793Y-122831420D01*
X111354754Y-122845318D01*
X111215141Y-122946752D01*
X111215136Y-122946756D01*
X111059256Y-123102636D01*
X111059252Y-123102641D01*
X110929687Y-123280974D01*
X110829604Y-123477393D01*
X110829603Y-123477396D01*
X110761485Y-123687047D01*
X110727000Y-123904778D01*
X110727000Y-124125221D01*
X110761485Y-124342952D01*
X110829603Y-124552603D01*
X110829604Y-124552606D01*
X110867029Y-124626054D01*
X110926074Y-124741936D01*
X110929687Y-124749025D01*
X111059252Y-124927358D01*
X111059256Y-124927363D01*
X111215136Y-125083243D01*
X111215141Y-125083247D01*
X111354754Y-125184682D01*
X111370620Y-125205258D01*
X111389389Y-125223231D01*
X111391611Y-125232479D01*
X111397420Y-125240012D01*
X111399643Y-125265898D01*
X111405716Y-125291166D01*
X111402585Y-125300149D01*
X111403399Y-125309625D01*
X111391274Y-125332602D01*
X111382722Y-125357144D01*
X111373337Y-125366597D01*
X111370793Y-125371420D01*
X111358311Y-125382635D01*
X111356535Y-125384025D01*
X111215135Y-125486758D01*
X111178393Y-125523499D01*
X111172473Y-125528135D01*
X111146714Y-125538383D01*
X111122389Y-125551666D01*
X111109973Y-125553000D01*
X111107553Y-125553964D01*
X111105229Y-125553510D01*
X111096031Y-125554500D01*
X110570783Y-125554500D01*
X110503744Y-125534815D01*
X110483102Y-125518181D01*
X108836819Y-123871898D01*
X108803334Y-123810575D01*
X108800500Y-123784217D01*
X108800500Y-112251456D01*
X108783583Y-112166414D01*
X108783583Y-112166413D01*
X108762052Y-112058170D01*
X108762051Y-112058164D01*
X108713866Y-111941836D01*
X108686632Y-111876086D01*
X108671439Y-111853348D01*
X108667594Y-111845292D01*
X108663399Y-111819253D01*
X108655520Y-111794089D01*
X108655500Y-111791878D01*
X108655500Y-110024010D01*
X108655500Y-110024000D01*
X108643947Y-109916544D01*
X108632741Y-109865033D01*
X108631274Y-109860626D01*
X108598616Y-109762502D01*
X108598613Y-109762496D01*
X108528714Y-109653733D01*
X108520825Y-109641457D01*
X108510992Y-109630109D01*
X108475076Y-109588659D01*
X108475072Y-109588656D01*
X108475070Y-109588653D01*
X108366336Y-109494433D01*
X108366333Y-109494431D01*
X108366331Y-109494430D01*
X108235465Y-109434664D01*
X108235460Y-109434662D01*
X108235459Y-109434662D01*
X108168420Y-109414977D01*
X108168422Y-109414977D01*
X108168417Y-109414976D01*
X108120944Y-109408150D01*
X108026000Y-109394500D01*
X108025998Y-109394500D01*
X107148651Y-109394500D01*
X107081612Y-109374815D01*
X107060970Y-109358181D01*
X106242165Y-108539375D01*
X106242161Y-108539372D01*
X106102866Y-108446297D01*
X106102863Y-108446296D01*
X105986461Y-108398081D01*
X105986459Y-108398080D01*
X105948086Y-108382185D01*
X105948074Y-108382182D01*
X105783771Y-108349500D01*
X105783767Y-108349500D01*
X104664376Y-108349500D01*
X104650000Y-108345278D01*
X104650000Y-89600000D01*
X92400000Y-89600000D01*
X92373709Y-95300000D01*
X92329500Y-95300000D01*
X92262461Y-95280315D01*
X92216706Y-95227511D01*
X92205500Y-95176000D01*
X92205500Y-89848646D01*
X92205500Y-89848637D01*
X92205318Y-89835085D01*
X92205140Y-89828448D01*
X92204597Y-89814941D01*
X92176527Y-89673826D01*
X92173640Y-89665643D01*
X92153286Y-89607947D01*
X92153285Y-89607945D01*
X92153282Y-89607936D01*
X92089583Y-89486162D01*
X92075954Y-89417636D01*
X92101535Y-89352618D01*
X92111771Y-89341016D01*
X94460626Y-86992162D01*
X94553704Y-86852863D01*
X94617816Y-86698082D01*
X94623737Y-86668316D01*
X94650500Y-86533767D01*
X94650500Y-81140311D01*
X94670185Y-81073272D01*
X94722989Y-81027517D01*
X94792147Y-81017573D01*
X94812818Y-81022380D01*
X95007164Y-81085526D01*
X95224819Y-81120000D01*
X95445181Y-81120000D01*
X95662835Y-81085526D01*
X95872410Y-81017432D01*
X96068760Y-80917386D01*
X96132513Y-80871066D01*
X96132514Y-80871066D01*
X95381447Y-80120000D01*
X95387661Y-80120000D01*
X95489394Y-80092741D01*
X95580606Y-80040080D01*
X95655080Y-79965606D01*
X95707741Y-79874394D01*
X95735000Y-79772661D01*
X95735000Y-79766448D01*
X96486066Y-80517514D01*
X96486066Y-80517513D01*
X96504372Y-80492319D01*
X96559701Y-80449653D01*
X96629315Y-80443674D01*
X96691110Y-80476279D01*
X96705008Y-80492319D01*
X96806752Y-80632358D01*
X96806756Y-80632363D01*
X96962636Y-80788243D01*
X96962641Y-80788247D01*
X97108535Y-80894244D01*
X97140978Y-80917815D01*
X97228453Y-80962386D01*
X97337393Y-81017895D01*
X97337396Y-81017896D01*
X97432277Y-81048724D01*
X97547049Y-81086015D01*
X97764778Y-81120500D01*
X97764779Y-81120500D01*
X97985221Y-81120500D01*
X97985222Y-81120500D01*
X98202951Y-81086015D01*
X98412606Y-81017895D01*
X98609022Y-80917815D01*
X98787365Y-80788242D01*
X98943242Y-80632365D01*
X99072815Y-80454022D01*
X99172895Y-80257606D01*
X99241015Y-80047951D01*
X99275500Y-79830222D01*
X99275500Y-79654818D01*
X100235000Y-79654818D01*
X100235000Y-79875181D01*
X100269473Y-80092835D01*
X100337567Y-80302410D01*
X100437611Y-80498756D01*
X100483932Y-80562513D01*
X101235000Y-79811445D01*
X101235000Y-79817661D01*
X101262259Y-79919394D01*
X101314920Y-80010606D01*
X101389394Y-80085080D01*
X101480606Y-80137741D01*
X101582339Y-80165000D01*
X101588553Y-80165000D01*
X100837485Y-80916065D01*
X100837485Y-80916066D01*
X100901243Y-80962388D01*
X101097589Y-81062432D01*
X101307164Y-81130526D01*
X101524819Y-81165000D01*
X101745181Y-81165000D01*
X101962835Y-81130526D01*
X102172410Y-81062432D01*
X102368760Y-80962386D01*
X102432513Y-80916066D01*
X102432514Y-80916066D01*
X101681447Y-80165000D01*
X101687661Y-80165000D01*
X101789394Y-80137741D01*
X101880606Y-80085080D01*
X101955080Y-80010606D01*
X102007741Y-79919394D01*
X102035000Y-79817661D01*
X102035000Y-79811448D01*
X102786066Y-80562514D01*
X102786066Y-80562513D01*
X102804372Y-80537319D01*
X102859701Y-80494653D01*
X102929315Y-80488674D01*
X102991110Y-80521279D01*
X103005008Y-80537319D01*
X103106752Y-80677358D01*
X103106756Y-80677363D01*
X103262636Y-80833243D01*
X103262641Y-80833247D01*
X103376632Y-80916065D01*
X103440978Y-80962815D01*
X103569375Y-81028237D01*
X103637393Y-81062895D01*
X103637396Y-81062896D01*
X103691208Y-81080380D01*
X103847049Y-81131015D01*
X104064778Y-81165500D01*
X104064779Y-81165500D01*
X104285221Y-81165500D01*
X104285222Y-81165500D01*
X104502951Y-81131015D01*
X104712606Y-81062895D01*
X104909022Y-80962815D01*
X105087365Y-80833242D01*
X105243242Y-80677365D01*
X105372815Y-80499022D01*
X105472895Y-80302606D01*
X105541015Y-80092951D01*
X105575500Y-79875222D01*
X105575500Y-79654778D01*
X105541015Y-79437049D01*
X105475363Y-79234989D01*
X105472896Y-79227396D01*
X105472895Y-79227393D01*
X105407008Y-79098085D01*
X105372815Y-79030978D01*
X105348909Y-78998074D01*
X105243247Y-78852641D01*
X105243243Y-78852636D01*
X105087363Y-78696756D01*
X105087358Y-78696752D01*
X104909025Y-78567187D01*
X104909024Y-78567186D01*
X104909022Y-78567185D01*
X104821542Y-78522611D01*
X104712606Y-78467104D01*
X104712603Y-78467103D01*
X104502952Y-78398985D01*
X104394086Y-78381742D01*
X104285222Y-78364500D01*
X104064778Y-78364500D01*
X103992201Y-78375995D01*
X103847047Y-78398985D01*
X103637396Y-78467103D01*
X103637393Y-78467104D01*
X103440974Y-78567187D01*
X103262641Y-78696752D01*
X103262636Y-78696756D01*
X103106756Y-78852636D01*
X103005008Y-78992681D01*
X102949678Y-79035346D01*
X102880065Y-79041325D01*
X102818270Y-79008719D01*
X102804371Y-78992680D01*
X102786066Y-78967485D01*
X102786065Y-78967485D01*
X102035000Y-79718551D01*
X102035000Y-79712339D01*
X102007741Y-79610606D01*
X101955080Y-79519394D01*
X101880606Y-79444920D01*
X101789394Y-79392259D01*
X101687661Y-79365000D01*
X101681445Y-79365000D01*
X102432513Y-78613932D01*
X102368756Y-78567611D01*
X102172410Y-78467567D01*
X101962835Y-78399473D01*
X101745181Y-78365000D01*
X101524819Y-78365000D01*
X101307164Y-78399473D01*
X101097589Y-78467567D01*
X100901233Y-78567616D01*
X100837485Y-78613931D01*
X100837485Y-78613932D01*
X101588553Y-79365000D01*
X101582339Y-79365000D01*
X101480606Y-79392259D01*
X101389394Y-79444920D01*
X101314920Y-79519394D01*
X101262259Y-79610606D01*
X101235000Y-79712339D01*
X101235000Y-79718553D01*
X100483932Y-78967485D01*
X100483931Y-78967485D01*
X100437616Y-79031233D01*
X100337567Y-79227589D01*
X100269473Y-79437164D01*
X100235000Y-79654818D01*
X99275500Y-79654818D01*
X99275500Y-79609778D01*
X99241015Y-79392049D01*
X99183368Y-79214626D01*
X99172896Y-79182396D01*
X99172895Y-79182393D01*
X99112832Y-79064515D01*
X99072815Y-78985978D01*
X99040920Y-78942078D01*
X98943247Y-78807641D01*
X98943243Y-78807636D01*
X98787363Y-78651756D01*
X98787358Y-78651752D01*
X98609025Y-78522187D01*
X98609024Y-78522186D01*
X98609022Y-78522185D01*
X98545155Y-78489643D01*
X98412606Y-78422104D01*
X98412603Y-78422103D01*
X98202952Y-78353985D01*
X98094086Y-78336742D01*
X97985222Y-78319500D01*
X97764778Y-78319500D01*
X97692201Y-78330995D01*
X97547047Y-78353985D01*
X97337396Y-78422103D01*
X97337393Y-78422104D01*
X97140974Y-78522187D01*
X96962641Y-78651752D01*
X96962636Y-78651756D01*
X96806756Y-78807636D01*
X96705008Y-78947681D01*
X96649678Y-78990346D01*
X96580065Y-78996325D01*
X96518270Y-78963719D01*
X96504371Y-78947680D01*
X96486066Y-78922485D01*
X96486065Y-78922485D01*
X95735000Y-79673551D01*
X95735000Y-79667339D01*
X95707741Y-79565606D01*
X95655080Y-79474394D01*
X95580606Y-79399920D01*
X95489394Y-79347259D01*
X95387661Y-79320000D01*
X95381446Y-79320000D01*
X96132513Y-78568932D01*
X96068756Y-78522611D01*
X95872410Y-78422567D01*
X95662835Y-78354473D01*
X95445181Y-78320000D01*
X95224819Y-78320000D01*
X95007162Y-78354473D01*
X94812817Y-78417619D01*
X94742976Y-78419614D01*
X94683144Y-78383533D01*
X94652316Y-78320832D01*
X94650500Y-78299688D01*
X94650500Y-73520838D01*
X94670185Y-73453799D01*
X94722989Y-73408044D01*
X94792147Y-73398100D01*
X94812817Y-73402907D01*
X95007046Y-73466014D01*
X95007049Y-73466015D01*
X95224778Y-73500500D01*
X95224779Y-73500500D01*
X95445221Y-73500500D01*
X95445222Y-73500500D01*
X95662951Y-73466015D01*
X95872606Y-73397895D01*
X96069022Y-73297815D01*
X96247365Y-73168242D01*
X96403242Y-73012365D01*
X96410978Y-73001717D01*
X96466305Y-72959049D01*
X96535918Y-72953066D01*
X96597715Y-72985669D01*
X96629004Y-73035591D01*
X96640184Y-73069329D01*
X96640187Y-73069336D01*
X96655034Y-73093406D01*
X96732288Y-73218656D01*
X96856344Y-73342712D01*
X97005666Y-73434814D01*
X97172203Y-73489999D01*
X97274991Y-73500500D01*
X98475008Y-73500499D01*
X98577797Y-73489999D01*
X98744334Y-73434814D01*
X98893656Y-73342712D01*
X99017712Y-73218656D01*
X99109814Y-73069334D01*
X99164999Y-72902797D01*
X99175500Y-72800009D01*
X99175499Y-72034778D01*
X100234500Y-72034778D01*
X100234500Y-72255221D01*
X100268985Y-72472952D01*
X100337103Y-72682603D01*
X100337104Y-72682606D01*
X100395499Y-72797209D01*
X100419854Y-72845009D01*
X100437187Y-72879025D01*
X100566752Y-73057358D01*
X100566756Y-73057363D01*
X100722636Y-73213243D01*
X100722641Y-73213247D01*
X100876602Y-73325105D01*
X100900978Y-73342815D01*
X101009480Y-73398100D01*
X101097393Y-73442895D01*
X101097396Y-73442896D01*
X101168548Y-73466014D01*
X101307049Y-73511015D01*
X101524778Y-73545500D01*
X101524779Y-73545500D01*
X101745221Y-73545500D01*
X101745222Y-73545500D01*
X101962951Y-73511015D01*
X102172606Y-73442895D01*
X102369022Y-73342815D01*
X102547365Y-73213242D01*
X102703242Y-73057365D01*
X102710978Y-73046717D01*
X102766305Y-73004049D01*
X102835918Y-72998066D01*
X102897715Y-73030669D01*
X102929004Y-73080591D01*
X102933253Y-73093412D01*
X102940186Y-73114334D01*
X103032288Y-73263656D01*
X103156344Y-73387712D01*
X103305666Y-73479814D01*
X103472203Y-73534999D01*
X103574991Y-73545500D01*
X104775008Y-73545499D01*
X104877797Y-73534999D01*
X105044334Y-73479814D01*
X105193656Y-73387712D01*
X105317712Y-73263656D01*
X105409814Y-73114334D01*
X105464999Y-72947797D01*
X105475500Y-72845009D01*
X105475499Y-71444992D01*
X105472024Y-71410978D01*
X105464999Y-71342203D01*
X105464998Y-71342200D01*
X105446646Y-71286818D01*
X105409814Y-71175666D01*
X105317712Y-71026344D01*
X105193656Y-70902288D01*
X105059169Y-70819336D01*
X105044336Y-70810187D01*
X105044331Y-70810185D01*
X105019941Y-70802103D01*
X104877797Y-70755001D01*
X104877795Y-70755000D01*
X104775010Y-70744500D01*
X103574998Y-70744500D01*
X103574981Y-70744501D01*
X103472203Y-70755000D01*
X103472200Y-70755001D01*
X103305668Y-70810185D01*
X103305663Y-70810187D01*
X103156342Y-70902289D01*
X103032289Y-71026342D01*
X102940187Y-71175663D01*
X102940185Y-71175668D01*
X102929006Y-71209406D01*
X102889233Y-71266851D01*
X102824717Y-71293674D01*
X102755941Y-71281359D01*
X102710981Y-71243287D01*
X102708592Y-71239999D01*
X102703242Y-71232635D01*
X102547365Y-71076758D01*
X102547363Y-71076756D01*
X102547358Y-71076752D01*
X102369025Y-70947187D01*
X102369024Y-70947186D01*
X102369022Y-70947185D01*
X102280908Y-70902288D01*
X102172606Y-70847104D01*
X102172603Y-70847103D01*
X101962952Y-70778985D01*
X101793269Y-70752110D01*
X101745222Y-70744500D01*
X101524778Y-70744500D01*
X101476731Y-70752110D01*
X101307047Y-70778985D01*
X101097396Y-70847103D01*
X101097393Y-70847104D01*
X100900974Y-70947187D01*
X100722641Y-71076752D01*
X100722636Y-71076756D01*
X100566756Y-71232636D01*
X100566752Y-71232641D01*
X100437187Y-71410974D01*
X100337104Y-71607393D01*
X100337103Y-71607396D01*
X100268985Y-71817047D01*
X100234500Y-72034778D01*
X99175499Y-72034778D01*
X99175499Y-71399992D01*
X99172968Y-71375219D01*
X99164999Y-71297203D01*
X99164998Y-71297200D01*
X99143605Y-71232641D01*
X99109814Y-71130666D01*
X99017712Y-70981344D01*
X98893656Y-70857288D01*
X98744334Y-70765186D01*
X98577797Y-70710001D01*
X98577795Y-70710000D01*
X98475010Y-70699500D01*
X97274998Y-70699500D01*
X97274981Y-70699501D01*
X97172203Y-70710000D01*
X97172200Y-70710001D01*
X97005668Y-70765185D01*
X97005663Y-70765187D01*
X96856342Y-70857289D01*
X96732289Y-70981342D01*
X96640187Y-71130663D01*
X96640185Y-71130668D01*
X96629006Y-71164406D01*
X96589233Y-71221851D01*
X96524717Y-71248674D01*
X96455941Y-71236359D01*
X96410981Y-71198287D01*
X96403241Y-71187634D01*
X96247363Y-71031756D01*
X96247358Y-71031752D01*
X96069025Y-70902187D01*
X96069024Y-70902186D01*
X96069022Y-70902185D01*
X95960919Y-70847103D01*
X95872606Y-70802104D01*
X95872603Y-70802103D01*
X95662952Y-70733985D01*
X95511516Y-70710000D01*
X95445222Y-70699500D01*
X95224778Y-70699500D01*
X95181232Y-70706397D01*
X95007045Y-70733985D01*
X94812817Y-70797093D01*
X94742976Y-70799088D01*
X94683144Y-70763007D01*
X94652316Y-70700306D01*
X94650500Y-70679162D01*
X94650500Y-70053650D01*
X94659144Y-70024209D01*
X94665668Y-69994223D01*
X94669422Y-69989207D01*
X94670185Y-69986611D01*
X94686819Y-69965969D01*
X94815969Y-69836819D01*
X94877292Y-69803334D01*
X94903650Y-69800500D01*
X136796349Y-69800500D01*
X136863388Y-69820185D01*
X136884030Y-69836819D01*
X138413181Y-71365969D01*
X138446666Y-71427292D01*
X138449500Y-71453650D01*
X138449500Y-79531548D01*
X138429815Y-79598587D01*
X138377011Y-79644342D01*
X138307853Y-79654286D01*
X138265937Y-79639163D01*
X138265601Y-79639825D01*
X138064910Y-79537567D01*
X137855335Y-79469473D01*
X137637681Y-79435000D01*
X137417319Y-79435000D01*
X137199664Y-79469473D01*
X136990089Y-79537567D01*
X136793733Y-79637616D01*
X136729985Y-79683931D01*
X136729985Y-79683932D01*
X137438914Y-80392861D01*
X137353806Y-80415667D01*
X137251194Y-80474910D01*
X137167410Y-80558694D01*
X137108167Y-80661306D01*
X137085361Y-80746414D01*
X136376432Y-80037485D01*
X136376431Y-80037485D01*
X136330116Y-80101233D01*
X136230067Y-80297589D01*
X136161973Y-80507164D01*
X136127500Y-80724818D01*
X136127500Y-80945181D01*
X136161973Y-81162835D01*
X136230067Y-81372410D01*
X136330111Y-81568756D01*
X136376432Y-81632513D01*
X137085361Y-80923584D01*
X137108167Y-81008694D01*
X137167410Y-81111306D01*
X137251194Y-81195090D01*
X137353806Y-81254333D01*
X137438913Y-81277137D01*
X136729985Y-81986065D01*
X136729985Y-81986066D01*
X136755180Y-82004371D01*
X136797846Y-82059701D01*
X136803825Y-82129314D01*
X136771220Y-82191110D01*
X136755181Y-82205008D01*
X136615136Y-82306756D01*
X136459256Y-82462636D01*
X136459252Y-82462641D01*
X136329687Y-82640974D01*
X136229604Y-82837393D01*
X136229603Y-82837396D01*
X136161485Y-83047047D01*
X136127000Y-83264778D01*
X136127000Y-83485221D01*
X136161485Y-83702952D01*
X136229603Y-83912603D01*
X136229604Y-83912606D01*
X136285605Y-84022511D01*
X136322540Y-84095000D01*
X136329687Y-84109025D01*
X136459252Y-84287358D01*
X136459256Y-84287363D01*
X136615136Y-84443243D01*
X136615141Y-84443247D01*
X136754754Y-84544682D01*
X136797420Y-84600012D01*
X136803399Y-84669625D01*
X136770793Y-84731420D01*
X136754754Y-84745318D01*
X136615141Y-84846752D01*
X136615136Y-84846756D01*
X136459256Y-85002636D01*
X136459252Y-85002641D01*
X136329687Y-85180974D01*
X136229604Y-85377393D01*
X136229603Y-85377396D01*
X136161485Y-85587047D01*
X136127000Y-85804778D01*
X136127000Y-86025221D01*
X136161485Y-86242952D01*
X136229603Y-86452603D01*
X136229604Y-86452606D01*
X136280211Y-86551925D01*
X136324461Y-86638770D01*
X136329687Y-86649025D01*
X136459252Y-86827358D01*
X136459256Y-86827363D01*
X136615136Y-86983243D01*
X136615141Y-86983247D01*
X136754754Y-87084682D01*
X136797420Y-87140012D01*
X136803399Y-87209625D01*
X136770793Y-87271420D01*
X136754754Y-87285318D01*
X136615141Y-87386752D01*
X136615136Y-87386756D01*
X136459256Y-87542636D01*
X136459252Y-87542641D01*
X136329687Y-87720974D01*
X136229604Y-87917393D01*
X136229603Y-87917396D01*
X136161485Y-88127047D01*
X136130437Y-88323076D01*
X136127000Y-88344778D01*
X136127000Y-88565222D01*
X136132951Y-88602797D01*
X136161485Y-88782952D01*
X136229603Y-88992603D01*
X136229604Y-88992606D01*
X136289985Y-89111107D01*
X136325962Y-89181716D01*
X136329687Y-89189025D01*
X136459252Y-89367358D01*
X136459256Y-89367363D01*
X136615136Y-89523243D01*
X136615141Y-89523247D01*
X136754754Y-89624682D01*
X136797420Y-89680012D01*
X136803399Y-89749625D01*
X136770793Y-89811420D01*
X136754754Y-89825318D01*
X136615141Y-89926752D01*
X136615136Y-89926756D01*
X136459256Y-90082636D01*
X136459252Y-90082641D01*
X136329687Y-90260974D01*
X136229604Y-90457393D01*
X136229603Y-90457396D01*
X136161485Y-90667047D01*
X136127000Y-90884778D01*
X136127000Y-91105221D01*
X136161485Y-91322952D01*
X136229603Y-91532603D01*
X136229604Y-91532606D01*
X136267029Y-91606054D01*
X136329006Y-91727690D01*
X136329687Y-91729025D01*
X136459252Y-91907358D01*
X136459256Y-91907363D01*
X136615136Y-92063243D01*
X136615141Y-92063247D01*
X136754754Y-92164682D01*
X136797420Y-92220012D01*
X136803399Y-92289625D01*
X136770793Y-92351420D01*
X136754754Y-92365318D01*
X136615141Y-92466752D01*
X136615136Y-92466756D01*
X136459256Y-92622636D01*
X136459252Y-92622641D01*
X136329687Y-92800974D01*
X136229604Y-92997393D01*
X136229603Y-92997396D01*
X136161485Y-93207047D01*
X136127000Y-93424778D01*
X136127000Y-93645221D01*
X136161485Y-93862952D01*
X136229603Y-94072603D01*
X136229604Y-94072606D01*
X136269032Y-94149986D01*
X136323846Y-94257563D01*
X136329687Y-94269025D01*
X136459252Y-94447358D01*
X136459256Y-94447363D01*
X136615136Y-94603243D01*
X136615141Y-94603247D01*
X136754754Y-94704682D01*
X136797420Y-94760012D01*
X136803399Y-94829625D01*
X136770793Y-94891420D01*
X136754754Y-94905318D01*
X136615141Y-95006752D01*
X136615136Y-95006756D01*
X136459256Y-95162636D01*
X136459252Y-95162641D01*
X136329687Y-95340974D01*
X136229604Y-95537393D01*
X136229603Y-95537396D01*
X136161485Y-95747047D01*
X136127000Y-95964778D01*
X136127000Y-96185221D01*
X136161485Y-96402952D01*
X136229603Y-96612603D01*
X136229604Y-96612606D01*
X136267029Y-96686054D01*
X136326199Y-96802181D01*
X136329687Y-96809025D01*
X136459252Y-96987358D01*
X136459256Y-96987363D01*
X136615136Y-97143243D01*
X136615141Y-97143247D01*
X136754754Y-97244682D01*
X136797420Y-97300012D01*
X136803399Y-97369625D01*
X136770793Y-97431420D01*
X136754754Y-97445318D01*
X136615141Y-97546752D01*
X136615136Y-97546756D01*
X136459256Y-97702636D01*
X136459252Y-97702641D01*
X136329687Y-97880974D01*
X136229604Y-98077393D01*
X136229603Y-98077396D01*
X136161485Y-98287047D01*
X136147905Y-98372787D01*
X136127000Y-98504778D01*
X136127000Y-98725222D01*
X136139493Y-98804101D01*
X136161485Y-98942952D01*
X136229603Y-99152603D01*
X136229604Y-99152606D01*
X136264692Y-99221468D01*
X136329076Y-99347827D01*
X136329687Y-99349025D01*
X136459252Y-99527358D01*
X136459256Y-99527363D01*
X136615136Y-99683243D01*
X136615141Y-99683247D01*
X136754754Y-99784682D01*
X136797420Y-99840012D01*
X136803399Y-99909625D01*
X136770793Y-99971420D01*
X136754754Y-99985318D01*
X136615141Y-100086752D01*
X136615136Y-100086756D01*
X136459256Y-100242636D01*
X136459252Y-100242641D01*
X136329687Y-100420974D01*
X136229604Y-100617393D01*
X136229603Y-100617396D01*
X136161485Y-100827047D01*
X136140797Y-100957669D01*
X136127000Y-101044778D01*
X136127000Y-101265222D01*
X136136408Y-101324624D01*
X136161485Y-101482952D01*
X136229603Y-101692603D01*
X136229604Y-101692606D01*
X136267029Y-101766054D01*
X136308699Y-101847836D01*
X136329687Y-101889025D01*
X136459252Y-102067358D01*
X136459256Y-102067363D01*
X136615136Y-102223243D01*
X136615141Y-102223247D01*
X136754754Y-102324682D01*
X136797420Y-102380012D01*
X136803399Y-102449625D01*
X136770793Y-102511420D01*
X136754754Y-102525318D01*
X136615141Y-102626752D01*
X136615136Y-102626756D01*
X136459256Y-102782636D01*
X136459252Y-102782641D01*
X136329687Y-102960974D01*
X136229604Y-103157393D01*
X136229603Y-103157396D01*
X136161485Y-103367047D01*
X136140426Y-103500009D01*
X136127000Y-103584778D01*
X136127000Y-103805222D01*
X136136273Y-103863767D01*
X136161485Y-104022952D01*
X136229603Y-104232603D01*
X136229604Y-104232606D01*
X136275238Y-104322165D01*
X136328047Y-104425808D01*
X136329687Y-104429025D01*
X136459252Y-104607358D01*
X136459256Y-104607363D01*
X136615136Y-104763243D01*
X136615141Y-104763247D01*
X136754754Y-104864682D01*
X136797420Y-104920012D01*
X136803399Y-104989625D01*
X136770793Y-105051420D01*
X136754754Y-105065318D01*
X136615141Y-105166752D01*
X136615136Y-105166756D01*
X136459256Y-105322636D01*
X136459252Y-105322641D01*
X136329687Y-105500974D01*
X136229604Y-105697393D01*
X136229603Y-105697396D01*
X136161485Y-105907047D01*
X136127000Y-106124778D01*
X136127000Y-106345221D01*
X136161485Y-106562952D01*
X136229603Y-106772603D01*
X136229604Y-106772606D01*
X136329687Y-106969025D01*
X136459252Y-107147358D01*
X136459256Y-107147363D01*
X136615136Y-107303243D01*
X136615141Y-107303247D01*
X136754754Y-107404682D01*
X136797420Y-107460012D01*
X136803399Y-107529625D01*
X136770793Y-107591420D01*
X136754754Y-107605318D01*
X136615141Y-107706752D01*
X136615136Y-107706756D01*
X136459256Y-107862636D01*
X136459252Y-107862641D01*
X136329687Y-108040974D01*
X136229604Y-108237393D01*
X136229603Y-108237396D01*
X136161485Y-108447047D01*
X136127000Y-108664778D01*
X136127000Y-108885221D01*
X136161485Y-109102952D01*
X136229603Y-109312603D01*
X136229604Y-109312606D01*
X136281766Y-109414977D01*
X136322942Y-109495789D01*
X136329687Y-109509025D01*
X136459252Y-109687358D01*
X136459256Y-109687363D01*
X136615136Y-109843243D01*
X136615141Y-109843247D01*
X136754754Y-109944682D01*
X136797420Y-110000012D01*
X136803399Y-110069625D01*
X136770793Y-110131420D01*
X136754754Y-110145318D01*
X136615141Y-110246752D01*
X136615136Y-110246756D01*
X136459256Y-110402636D01*
X136459252Y-110402641D01*
X136329687Y-110580974D01*
X136229604Y-110777393D01*
X136229603Y-110777396D01*
X136161485Y-110987047D01*
X136127000Y-111204778D01*
X136127000Y-111425221D01*
X136161485Y-111642952D01*
X136229603Y-111852603D01*
X136229604Y-111852606D01*
X136329687Y-112049025D01*
X136459252Y-112227358D01*
X136459256Y-112227363D01*
X136615136Y-112383243D01*
X136615141Y-112383247D01*
X136754754Y-112484682D01*
X136797420Y-112540012D01*
X136803399Y-112609625D01*
X136770793Y-112671420D01*
X136754754Y-112685318D01*
X136615141Y-112786752D01*
X136615136Y-112786756D01*
X136459256Y-112942636D01*
X136459252Y-112942641D01*
X136329687Y-113120974D01*
X136229604Y-113317393D01*
X136229603Y-113317396D01*
X136161485Y-113527047D01*
X136145811Y-113626009D01*
X136127000Y-113744778D01*
X136127000Y-113965222D01*
X136133861Y-114008543D01*
X136161485Y-114182952D01*
X136229603Y-114392603D01*
X136229604Y-114392606D01*
X136266466Y-114464950D01*
X136329549Y-114588756D01*
X136329687Y-114589025D01*
X136459252Y-114767358D01*
X136459256Y-114767363D01*
X136615136Y-114923243D01*
X136615141Y-114923247D01*
X136754754Y-115024682D01*
X136797420Y-115080012D01*
X136803399Y-115149625D01*
X136770793Y-115211420D01*
X136754754Y-115225318D01*
X136615141Y-115326752D01*
X136615136Y-115326756D01*
X136459256Y-115482636D01*
X136459252Y-115482641D01*
X136329687Y-115660974D01*
X136229604Y-115857393D01*
X136229603Y-115857396D01*
X136161485Y-116067047D01*
X136127000Y-116284778D01*
X136127000Y-116505221D01*
X136161485Y-116722952D01*
X136229603Y-116932603D01*
X136229604Y-116932606D01*
X136329687Y-117129025D01*
X136459252Y-117307358D01*
X136459256Y-117307363D01*
X136615136Y-117463243D01*
X136615141Y-117463247D01*
X136754754Y-117564682D01*
X136797420Y-117620012D01*
X136803399Y-117689625D01*
X136770793Y-117751420D01*
X136754754Y-117765318D01*
X136615141Y-117866752D01*
X136615136Y-117866756D01*
X136459256Y-118022636D01*
X136459252Y-118022641D01*
X136329687Y-118200974D01*
X136229604Y-118397393D01*
X136229603Y-118397396D01*
X136161485Y-118607047D01*
X136127000Y-118824778D01*
X136127000Y-119045221D01*
X136161485Y-119262952D01*
X136229603Y-119472603D01*
X136229604Y-119472606D01*
X136267029Y-119546054D01*
X136315941Y-119642049D01*
X136329687Y-119669025D01*
X136459252Y-119847358D01*
X136459256Y-119847363D01*
X136615136Y-120003243D01*
X136615141Y-120003247D01*
X136754754Y-120104682D01*
X136797420Y-120160012D01*
X136803399Y-120229625D01*
X136770793Y-120291420D01*
X136754754Y-120305318D01*
X136615141Y-120406752D01*
X136615136Y-120406756D01*
X136459256Y-120562636D01*
X136459252Y-120562641D01*
X136329687Y-120740974D01*
X136229604Y-120937393D01*
X136229603Y-120937396D01*
X136161485Y-121147047D01*
X136127000Y-121364778D01*
X136127000Y-121585221D01*
X136161485Y-121802952D01*
X136229603Y-122012603D01*
X136229604Y-122012606D01*
X136329687Y-122209025D01*
X136459252Y-122387358D01*
X136459256Y-122387363D01*
X136615136Y-122543243D01*
X136615141Y-122543247D01*
X136754754Y-122644682D01*
X136797420Y-122700012D01*
X136803399Y-122769625D01*
X136770793Y-122831420D01*
X136754754Y-122845318D01*
X136615141Y-122946752D01*
X136615136Y-122946756D01*
X136459256Y-123102636D01*
X136459252Y-123102641D01*
X136329687Y-123280974D01*
X136229604Y-123477393D01*
X136229603Y-123477396D01*
X136161485Y-123687047D01*
X136127000Y-123904778D01*
X136127000Y-124125221D01*
X136161485Y-124342952D01*
X136229603Y-124552603D01*
X136229604Y-124552606D01*
X136267029Y-124626054D01*
X136326074Y-124741936D01*
X136329687Y-124749025D01*
X136459252Y-124927358D01*
X136459256Y-124927363D01*
X136615136Y-125083243D01*
X136615141Y-125083247D01*
X136754754Y-125184682D01*
X136797420Y-125240012D01*
X136803399Y-125309625D01*
X136770793Y-125371420D01*
X136754754Y-125385318D01*
X136615141Y-125486752D01*
X136615136Y-125486756D01*
X136459256Y-125642636D01*
X136459252Y-125642641D01*
X136329687Y-125820974D01*
X136229604Y-126017393D01*
X136229603Y-126017396D01*
X136161485Y-126227047D01*
X136127000Y-126444778D01*
X136127000Y-126665221D01*
X136161485Y-126882952D01*
X136229603Y-127092603D01*
X136229604Y-127092606D01*
X136297622Y-127226096D01*
X136315941Y-127262049D01*
X136329687Y-127289025D01*
X136459252Y-127467358D01*
X136459256Y-127467363D01*
X136615136Y-127623243D01*
X136615141Y-127623247D01*
X136759123Y-127727855D01*
X136793478Y-127752815D01*
X136920308Y-127817439D01*
X136989893Y-127852895D01*
X136989896Y-127852896D01*
X137082269Y-127882909D01*
X137199549Y-127921015D01*
X137417278Y-127955500D01*
X137417279Y-127955500D01*
X137637721Y-127955500D01*
X137637722Y-127955500D01*
X137855451Y-127921015D01*
X138065106Y-127852895D01*
X138261522Y-127752815D01*
X138439865Y-127623242D01*
X138595742Y-127467365D01*
X138725315Y-127289022D01*
X138825395Y-127092606D01*
X138893515Y-126882951D01*
X138928000Y-126665222D01*
X138928000Y-126444778D01*
X138893515Y-126227049D01*
X138825395Y-126017394D01*
X138825395Y-126017393D01*
X138765015Y-125898893D01*
X138725315Y-125820978D01*
X138708760Y-125798192D01*
X138595747Y-125642641D01*
X138595743Y-125642636D01*
X138439863Y-125486756D01*
X138439858Y-125486752D01*
X138300245Y-125385318D01*
X138257579Y-125329989D01*
X138251600Y-125260375D01*
X138284205Y-125198580D01*
X138300245Y-125184682D01*
X138439858Y-125083247D01*
X138439856Y-125083247D01*
X138439865Y-125083242D01*
X138595742Y-124927365D01*
X138725315Y-124749022D01*
X138825395Y-124552606D01*
X138893515Y-124342951D01*
X138928000Y-124125222D01*
X138928000Y-123904778D01*
X138893515Y-123687049D01*
X138825395Y-123477394D01*
X138825395Y-123477393D01*
X138725315Y-123280978D01*
X138628366Y-123147538D01*
X138628365Y-123147535D01*
X138595747Y-123102641D01*
X138595743Y-123102636D01*
X138571818Y-123078711D01*
X142699500Y-123078711D01*
X142699500Y-123321288D01*
X142731161Y-123561785D01*
X142793947Y-123796104D01*
X142886773Y-124020205D01*
X142886776Y-124020212D01*
X143008064Y-124230289D01*
X143008066Y-124230292D01*
X143008067Y-124230293D01*
X143155733Y-124422736D01*
X143155739Y-124422743D01*
X143327256Y-124594260D01*
X143327262Y-124594265D01*
X143519711Y-124741936D01*
X143729788Y-124863224D01*
X143953900Y-124956054D01*
X144188211Y-125018838D01*
X144368586Y-125042584D01*
X144428711Y-125050500D01*
X144428712Y-125050500D01*
X144671289Y-125050500D01*
X144719388Y-125044167D01*
X144911789Y-125018838D01*
X145146100Y-124956054D01*
X145370212Y-124863224D01*
X145580289Y-124741936D01*
X145772738Y-124594265D01*
X145944265Y-124422738D01*
X146091936Y-124230289D01*
X146213224Y-124020212D01*
X146306054Y-123796100D01*
X146368838Y-123561789D01*
X146400500Y-123321288D01*
X146400500Y-123078712D01*
X146368838Y-122838211D01*
X146306054Y-122603900D01*
X146213224Y-122379788D01*
X146091936Y-122169711D01*
X146023337Y-122080311D01*
X145944266Y-121977263D01*
X145944260Y-121977256D01*
X145772743Y-121805739D01*
X145772736Y-121805733D01*
X145580293Y-121658067D01*
X145580292Y-121658066D01*
X145580289Y-121658064D01*
X145370212Y-121536776D01*
X145370205Y-121536773D01*
X145146104Y-121443947D01*
X144911785Y-121381161D01*
X144671289Y-121349500D01*
X144671288Y-121349500D01*
X144428712Y-121349500D01*
X144428711Y-121349500D01*
X144188214Y-121381161D01*
X143953895Y-121443947D01*
X143729794Y-121536773D01*
X143729785Y-121536777D01*
X143519706Y-121658067D01*
X143327263Y-121805733D01*
X143327256Y-121805739D01*
X143155739Y-121977256D01*
X143155733Y-121977263D01*
X143008067Y-122169706D01*
X142886777Y-122379785D01*
X142886773Y-122379794D01*
X142793947Y-122603895D01*
X142731161Y-122838214D01*
X142699500Y-123078711D01*
X138571818Y-123078711D01*
X138439863Y-122946756D01*
X138439858Y-122946752D01*
X138300245Y-122845318D01*
X138257579Y-122789989D01*
X138251600Y-122720375D01*
X138284205Y-122658580D01*
X138300245Y-122644682D01*
X138439858Y-122543247D01*
X138439856Y-122543247D01*
X138439865Y-122543242D01*
X138595742Y-122387365D01*
X138725315Y-122209022D01*
X138825395Y-122012606D01*
X138893515Y-121802951D01*
X138928000Y-121585222D01*
X138928000Y-121364778D01*
X138893515Y-121147049D01*
X138826026Y-120939336D01*
X138825396Y-120937396D01*
X138825395Y-120937393D01*
X138784080Y-120856310D01*
X138725315Y-120740978D01*
X138698465Y-120704022D01*
X138595747Y-120562641D01*
X138595743Y-120562636D01*
X138439863Y-120406756D01*
X138439858Y-120406752D01*
X138300245Y-120305318D01*
X138257579Y-120249989D01*
X138251600Y-120180375D01*
X138284205Y-120118580D01*
X138300245Y-120104682D01*
X138439858Y-120003247D01*
X138439856Y-120003247D01*
X138439865Y-120003242D01*
X138595742Y-119847365D01*
X138725315Y-119669022D01*
X138825395Y-119472606D01*
X138893515Y-119262951D01*
X138928000Y-119045222D01*
X138928000Y-118824778D01*
X138925921Y-118811653D01*
X138934875Y-118742361D01*
X138960710Y-118704577D01*
X142060627Y-115604662D01*
X142153704Y-115465363D01*
X142199035Y-115355918D01*
X142199037Y-115355917D01*
X142217815Y-115310584D01*
X142217818Y-115310574D01*
X142250499Y-115146271D01*
X142250500Y-115146268D01*
X142250500Y-111697359D01*
X142270185Y-111630320D01*
X142322989Y-111584565D01*
X142392147Y-111574621D01*
X142455703Y-111603646D01*
X142484984Y-111641063D01*
X142543896Y-111756684D01*
X142569951Y-111807820D01*
X142694890Y-111979786D01*
X142845213Y-112130109D01*
X143017179Y-112255048D01*
X143017181Y-112255049D01*
X143017184Y-112255051D01*
X143206588Y-112351557D01*
X143408757Y-112417246D01*
X143618713Y-112450500D01*
X143618714Y-112450500D01*
X144081286Y-112450500D01*
X144081287Y-112450500D01*
X144291243Y-112417246D01*
X144493412Y-112351557D01*
X144682816Y-112255051D01*
X144720926Y-112227363D01*
X144854786Y-112130109D01*
X144854788Y-112130106D01*
X144854792Y-112130104D01*
X145005104Y-111979792D01*
X145005106Y-111979788D01*
X145005109Y-111979786D01*
X145130048Y-111807820D01*
X145130047Y-111807820D01*
X145130051Y-111807816D01*
X145226557Y-111618412D01*
X145292246Y-111416243D01*
X145325500Y-111206287D01*
X145325500Y-110993713D01*
X145292246Y-110783757D01*
X145226557Y-110581588D01*
X145130051Y-110392184D01*
X145130049Y-110392181D01*
X145130048Y-110392179D01*
X145005109Y-110220213D01*
X144854792Y-110069896D01*
X144854419Y-110069625D01*
X144690204Y-109950316D01*
X144647540Y-109894989D01*
X144641561Y-109825376D01*
X144674166Y-109763580D01*
X144690199Y-109749686D01*
X144854792Y-109630104D01*
X145005104Y-109479792D01*
X145005106Y-109479788D01*
X145005109Y-109479786D01*
X145130048Y-109307820D01*
X145130047Y-109307820D01*
X145130051Y-109307816D01*
X145226557Y-109118412D01*
X145292246Y-108916243D01*
X145325500Y-108706287D01*
X145325500Y-108493713D01*
X145292246Y-108283757D01*
X145226557Y-108081588D01*
X145130051Y-107892184D01*
X145130049Y-107892181D01*
X145130048Y-107892179D01*
X145005109Y-107720213D01*
X144854790Y-107569894D01*
X144854785Y-107569890D01*
X144689781Y-107450008D01*
X144647115Y-107394678D01*
X144641136Y-107325065D01*
X144673741Y-107263270D01*
X144689781Y-107249371D01*
X144854466Y-107129721D01*
X145004723Y-106979464D01*
X145004727Y-106979459D01*
X145129620Y-106807557D01*
X145226095Y-106618217D01*
X145291757Y-106416129D01*
X145291757Y-106416126D01*
X145302231Y-106350000D01*
X144254146Y-106350000D01*
X144292630Y-106283343D01*
X144325000Y-106162535D01*
X144325000Y-106037465D01*
X144292630Y-105916657D01*
X144254146Y-105850000D01*
X145302231Y-105850000D01*
X145291757Y-105783873D01*
X145291757Y-105783870D01*
X145226095Y-105581782D01*
X145129620Y-105392442D01*
X145004727Y-105220540D01*
X145004723Y-105220535D01*
X144865856Y-105081668D01*
X144832371Y-105020345D01*
X144837355Y-104950653D01*
X144879227Y-104894720D01*
X144888441Y-104888448D01*
X144894331Y-104884814D01*
X144894334Y-104884814D01*
X145043656Y-104792712D01*
X145167712Y-104668656D01*
X145259814Y-104519334D01*
X145314999Y-104352797D01*
X145325500Y-104250009D01*
X145325499Y-102949992D01*
X145314999Y-102847203D01*
X145259814Y-102680666D01*
X145167712Y-102531344D01*
X145043656Y-102407288D01*
X144932262Y-102338580D01*
X144894336Y-102315187D01*
X144894331Y-102315185D01*
X144892862Y-102314698D01*
X144727797Y-102260001D01*
X144727795Y-102260000D01*
X144625010Y-102249500D01*
X143074998Y-102249500D01*
X143074981Y-102249501D01*
X142972203Y-102260000D01*
X142972200Y-102260001D01*
X142805668Y-102315185D01*
X142805663Y-102315187D01*
X142656342Y-102407289D01*
X142532289Y-102531342D01*
X142532288Y-102531344D01*
X142489633Y-102600500D01*
X142480039Y-102616054D01*
X142428091Y-102662778D01*
X142359128Y-102674001D01*
X142295046Y-102646157D01*
X142256190Y-102588089D01*
X142250500Y-102550957D01*
X142250500Y-99542618D01*
X142270185Y-99475579D01*
X142322989Y-99429824D01*
X142392147Y-99419880D01*
X142455703Y-99448905D01*
X142490682Y-99499286D01*
X142506644Y-99542084D01*
X142506649Y-99542093D01*
X142592809Y-99657187D01*
X142592812Y-99657190D01*
X142707906Y-99743350D01*
X142707913Y-99743354D01*
X142842620Y-99793596D01*
X142842627Y-99793598D01*
X142902155Y-99799999D01*
X142902172Y-99800000D01*
X143600000Y-99800000D01*
X143600000Y-98838786D01*
X143655077Y-98870585D01*
X143783515Y-98905000D01*
X143916485Y-98905000D01*
X144044923Y-98870585D01*
X144100000Y-98838786D01*
X144100000Y-99800000D01*
X144797828Y-99800000D01*
X144797844Y-99799999D01*
X144857372Y-99793598D01*
X144857379Y-99793596D01*
X144992086Y-99743354D01*
X144992093Y-99743350D01*
X145107187Y-99657190D01*
X145107190Y-99657187D01*
X145193350Y-99542093D01*
X145193354Y-99542086D01*
X145243596Y-99407379D01*
X145243598Y-99407372D01*
X145249999Y-99347844D01*
X145250000Y-99347827D01*
X145250000Y-98650000D01*
X144288787Y-98650000D01*
X144320585Y-98594923D01*
X144355000Y-98466485D01*
X144355000Y-98333515D01*
X144320585Y-98205077D01*
X144288787Y-98150000D01*
X145250000Y-98150000D01*
X145250000Y-97452172D01*
X145249999Y-97452155D01*
X145243598Y-97392627D01*
X145243596Y-97392620D01*
X145193354Y-97257913D01*
X145193350Y-97257906D01*
X145107190Y-97142812D01*
X145107187Y-97142809D01*
X144984989Y-97051331D01*
X144986763Y-97048960D01*
X144947885Y-97010068D01*
X144933045Y-96941792D01*
X144957474Y-96876332D01*
X144969035Y-96862991D01*
X144994517Y-96837510D01*
X145133343Y-96646433D01*
X145240568Y-96435992D01*
X145313553Y-96211368D01*
X145322970Y-96151914D01*
X145350500Y-95978097D01*
X145350500Y-95741902D01*
X145313553Y-95508631D01*
X145264169Y-95356645D01*
X145240568Y-95284008D01*
X145240566Y-95284005D01*
X145240566Y-95284003D01*
X145178725Y-95162635D01*
X145133343Y-95073567D01*
X144994517Y-94882490D01*
X144827510Y-94715483D01*
X144792872Y-94690317D01*
X144750207Y-94634989D01*
X144744228Y-94565375D01*
X144776833Y-94503580D01*
X144792873Y-94489682D01*
X144827510Y-94464517D01*
X144994517Y-94297510D01*
X145133343Y-94106433D01*
X145240568Y-93895992D01*
X145313553Y-93671368D01*
X145317694Y-93645221D01*
X145350500Y-93438097D01*
X145350500Y-93201902D01*
X145313553Y-92968631D01*
X145259077Y-92800974D01*
X145240568Y-92744008D01*
X145240566Y-92744005D01*
X145240566Y-92744003D01*
X145133342Y-92533566D01*
X144994517Y-92342490D01*
X144827510Y-92175483D01*
X144792872Y-92150317D01*
X144750207Y-92094989D01*
X144744228Y-92025375D01*
X144776833Y-91963580D01*
X144792873Y-91949682D01*
X144827510Y-91924517D01*
X144994517Y-91757510D01*
X145133343Y-91566433D01*
X145240568Y-91355992D01*
X145313553Y-91131368D01*
X145317694Y-91105221D01*
X145350500Y-90898097D01*
X145350500Y-90661902D01*
X145313553Y-90428631D01*
X145248325Y-90227883D01*
X145240568Y-90204008D01*
X145240566Y-90204005D01*
X145240566Y-90204003D01*
X145178725Y-90082635D01*
X145133343Y-89993567D01*
X144994517Y-89802490D01*
X144827510Y-89635483D01*
X144792872Y-89610317D01*
X144750207Y-89554989D01*
X144744228Y-89485375D01*
X144776833Y-89423580D01*
X144792873Y-89409682D01*
X144827510Y-89384517D01*
X144994517Y-89217510D01*
X145133343Y-89026433D01*
X145240568Y-88815992D01*
X145313553Y-88591368D01*
X145317694Y-88565221D01*
X145350500Y-88358097D01*
X145350500Y-88121902D01*
X145313553Y-87888631D01*
X145259077Y-87720974D01*
X145240568Y-87664008D01*
X145240566Y-87664005D01*
X145240566Y-87664003D01*
X145133342Y-87453566D01*
X145125455Y-87442710D01*
X144994517Y-87262490D01*
X144827510Y-87095483D01*
X144792872Y-87070317D01*
X144750207Y-87014989D01*
X144744228Y-86945375D01*
X144776833Y-86883580D01*
X144792873Y-86869682D01*
X144827510Y-86844517D01*
X144994517Y-86677510D01*
X145133343Y-86486433D01*
X145240568Y-86275992D01*
X145313553Y-86051368D01*
X145325711Y-85974606D01*
X145350500Y-85818097D01*
X145350500Y-85581902D01*
X145313553Y-85348631D01*
X145259077Y-85180974D01*
X145240568Y-85124008D01*
X145240566Y-85124005D01*
X145240566Y-85124003D01*
X145133342Y-84913566D01*
X144994517Y-84722490D01*
X144827510Y-84555483D01*
X144636433Y-84416657D01*
X144425996Y-84309433D01*
X144201368Y-84236446D01*
X143968097Y-84199500D01*
X143968092Y-84199500D01*
X143731908Y-84199500D01*
X143731903Y-84199500D01*
X143498631Y-84236446D01*
X143274003Y-84309433D01*
X143063566Y-84416657D01*
X142954550Y-84495862D01*
X142872490Y-84555483D01*
X142872488Y-84555485D01*
X142872487Y-84555485D01*
X142705485Y-84722487D01*
X142705485Y-84722488D01*
X142705483Y-84722490D01*
X142672426Y-84767989D01*
X142566657Y-84913566D01*
X142484985Y-85073857D01*
X142437010Y-85124653D01*
X142369189Y-85141448D01*
X142303054Y-85118911D01*
X142259603Y-85064195D01*
X142250500Y-85017562D01*
X142250500Y-81142437D01*
X142270185Y-81075398D01*
X142322989Y-81029643D01*
X142392147Y-81019699D01*
X142455703Y-81048724D01*
X142484984Y-81086140D01*
X142566657Y-81246433D01*
X142705483Y-81437510D01*
X142872490Y-81604517D01*
X143063567Y-81743343D01*
X143141143Y-81782870D01*
X143274003Y-81850566D01*
X143274005Y-81850566D01*
X143274008Y-81850568D01*
X143394412Y-81889689D01*
X143498631Y-81923553D01*
X143731903Y-81960500D01*
X143731908Y-81960500D01*
X143968097Y-81960500D01*
X144201368Y-81923553D01*
X144425992Y-81850568D01*
X144636433Y-81743343D01*
X144827510Y-81604517D01*
X144994517Y-81437510D01*
X145133343Y-81246433D01*
X145240568Y-81035992D01*
X145313553Y-80811368D01*
X145319193Y-80775756D01*
X145350500Y-80578097D01*
X145350500Y-80341902D01*
X145313553Y-80108631D01*
X145253281Y-79923134D01*
X145240568Y-79884008D01*
X145240566Y-79884005D01*
X145240566Y-79884003D01*
X145138624Y-79683932D01*
X145133343Y-79673567D01*
X144994517Y-79482490D01*
X144827510Y-79315483D01*
X144792872Y-79290317D01*
X144750207Y-79234989D01*
X144744228Y-79165375D01*
X144776833Y-79103580D01*
X144792873Y-79089682D01*
X144827510Y-79064517D01*
X144994517Y-78897510D01*
X145133343Y-78706433D01*
X145240568Y-78495992D01*
X145313553Y-78271368D01*
X145342378Y-78089374D01*
X145350500Y-78038097D01*
X145350500Y-77801902D01*
X145313553Y-77568631D01*
X145279689Y-77464412D01*
X145240568Y-77344008D01*
X145240566Y-77344005D01*
X145240566Y-77344003D01*
X145133342Y-77133566D01*
X144994517Y-76942490D01*
X144827510Y-76775483D01*
X144768282Y-76732451D01*
X144725617Y-76677122D01*
X144717550Y-76622404D01*
X144719104Y-76602657D01*
X143983491Y-75867045D01*
X144044923Y-75850585D01*
X144160078Y-75784101D01*
X144254101Y-75690078D01*
X144320585Y-75574923D01*
X144337045Y-75513492D01*
X145072658Y-76249105D01*
X145072658Y-76249104D01*
X145132914Y-76166169D01*
X145132918Y-76166163D01*
X145240102Y-75955802D01*
X145313065Y-75731247D01*
X145350000Y-75498052D01*
X145350000Y-75261947D01*
X145313065Y-75028752D01*
X145240102Y-74804197D01*
X145132914Y-74593828D01*
X145072658Y-74510894D01*
X145072658Y-74510893D01*
X144337045Y-75246507D01*
X144320585Y-75185077D01*
X144254101Y-75069922D01*
X144160078Y-74975899D01*
X144044923Y-74909415D01*
X143983492Y-74892954D01*
X144599627Y-74276818D01*
X144660950Y-74243333D01*
X144687307Y-74240499D01*
X144797872Y-74240499D01*
X144857483Y-74234091D01*
X144992331Y-74183796D01*
X145107546Y-74097546D01*
X145193796Y-73982331D01*
X145244091Y-73847483D01*
X145250500Y-73787873D01*
X145250499Y-71892128D01*
X145244091Y-71832517D01*
X145239286Y-71819635D01*
X145193797Y-71697671D01*
X145193793Y-71697664D01*
X145107547Y-71582455D01*
X145107544Y-71582452D01*
X144992335Y-71496206D01*
X144992328Y-71496202D01*
X144857482Y-71445908D01*
X144857483Y-71445908D01*
X144797883Y-71439501D01*
X144797881Y-71439500D01*
X144797873Y-71439500D01*
X144797864Y-71439500D01*
X142902129Y-71439500D01*
X142902123Y-71439501D01*
X142842516Y-71445908D01*
X142707671Y-71496202D01*
X142707664Y-71496206D01*
X142592455Y-71582452D01*
X142592452Y-71582455D01*
X142506206Y-71697664D01*
X142506202Y-71697671D01*
X142490682Y-71739284D01*
X142448811Y-71795218D01*
X142383346Y-71819635D01*
X142315073Y-71804783D01*
X142265668Y-71755378D01*
X142250500Y-71695951D01*
X142250500Y-69916232D01*
X142250499Y-69916228D01*
X142217817Y-69751925D01*
X142217816Y-69751918D01*
X142193064Y-69692162D01*
X142153704Y-69597137D01*
X142060626Y-69457838D01*
X142060622Y-69457834D01*
X142060620Y-69457831D01*
X142060619Y-69457830D01*
X138092165Y-65489375D01*
X138092161Y-65489372D01*
X137952866Y-65396297D01*
X137952863Y-65396296D01*
X137836461Y-65348081D01*
X137836459Y-65348080D01*
X137798086Y-65332185D01*
X137798074Y-65332182D01*
X137633771Y-65299500D01*
X137633767Y-65299500D01*
X136818989Y-65299500D01*
X136751950Y-65279815D01*
X136706195Y-65227011D01*
X136696251Y-65157853D01*
X136725276Y-65094297D01*
X136779983Y-65057794D01*
X136849335Y-65034814D01*
X136998656Y-64942712D01*
X137122712Y-64818656D01*
X137214814Y-64669335D01*
X137269999Y-64502798D01*
X137280500Y-64400010D01*
X137280500Y-61199990D01*
X137269999Y-61097202D01*
X137214814Y-60930665D01*
X137122712Y-60781344D01*
X136998656Y-60657288D01*
X136849335Y-60565186D01*
X136682798Y-60510001D01*
X136682796Y-60510000D01*
X136580017Y-60499500D01*
X136580010Y-60499500D01*
X134899990Y-60499500D01*
X134899982Y-60499500D01*
X134797203Y-60510000D01*
X134797202Y-60510001D01*
X134714669Y-60537349D01*
X134630667Y-60565185D01*
X134630662Y-60565187D01*
X134481342Y-60657289D01*
X134357289Y-60781342D01*
X134265187Y-60930662D01*
X134265186Y-60930665D01*
X134210001Y-61097202D01*
X134210001Y-61097203D01*
X134210000Y-61097203D01*
X134199500Y-61199982D01*
X134199500Y-64400017D01*
X134210000Y-64502796D01*
X134265185Y-64669332D01*
X134265186Y-64669335D01*
X134357288Y-64818656D01*
X134481344Y-64942712D01*
X134630665Y-65034814D01*
X134700015Y-65057794D01*
X134757460Y-65097567D01*
X134784283Y-65162083D01*
X134771968Y-65230858D01*
X134724425Y-65282058D01*
X134661011Y-65299500D01*
X131074440Y-65299500D01*
X131007401Y-65279815D01*
X130961646Y-65227011D01*
X130951702Y-65157853D01*
X130980727Y-65094297D01*
X131036122Y-65057569D01*
X131251344Y-64987639D01*
X131251344Y-64987638D01*
X131251347Y-64987638D01*
X131467398Y-64877554D01*
X131663569Y-64735028D01*
X131835028Y-64563569D01*
X131977554Y-64367398D01*
X132087638Y-64151347D01*
X132162568Y-63920735D01*
X132191907Y-63735494D01*
X132200500Y-63681245D01*
X132200500Y-61918754D01*
X132172862Y-61744260D01*
X132162568Y-61679265D01*
X132087638Y-61448653D01*
X131977554Y-61232602D01*
X131932220Y-61170205D01*
X131835033Y-61036437D01*
X131835029Y-61036432D01*
X131663567Y-60864970D01*
X131663562Y-60864966D01*
X131467401Y-60722448D01*
X131467400Y-60722447D01*
X131467398Y-60722446D01*
X131339519Y-60657288D01*
X131251344Y-60612360D01*
X131020736Y-60537432D01*
X130781245Y-60499500D01*
X130781240Y-60499500D01*
X130538760Y-60499500D01*
X130538755Y-60499500D01*
X130299263Y-60537432D01*
X130068655Y-60612360D01*
X129852598Y-60722448D01*
X129656437Y-60864966D01*
X129656432Y-60864970D01*
X129484970Y-61036432D01*
X129484966Y-61036437D01*
X129342448Y-61232598D01*
X129232360Y-61448655D01*
X129157432Y-61679263D01*
X129119500Y-61918754D01*
X129119500Y-63681245D01*
X129157432Y-63920736D01*
X129232360Y-64151344D01*
X129287404Y-64259372D01*
X129319468Y-64322302D01*
X129342448Y-64367401D01*
X129484966Y-64563562D01*
X129484970Y-64563567D01*
X129656432Y-64735029D01*
X129656437Y-64735033D01*
X129771537Y-64818657D01*
X129852602Y-64877554D01*
X130068653Y-64987638D01*
X130068655Y-64987639D01*
X130283878Y-65057569D01*
X130341553Y-65097006D01*
X130368752Y-65161365D01*
X130356838Y-65230211D01*
X130309594Y-65281687D01*
X130245560Y-65299500D01*
X125994440Y-65299500D01*
X125927401Y-65279815D01*
X125881646Y-65227011D01*
X125871702Y-65157853D01*
X125900727Y-65094297D01*
X125956122Y-65057569D01*
X126171344Y-64987639D01*
X126171344Y-64987638D01*
X126171347Y-64987638D01*
X126387398Y-64877554D01*
X126583569Y-64735028D01*
X126755028Y-64563569D01*
X126897554Y-64367398D01*
X127007638Y-64151347D01*
X127082568Y-63920735D01*
X127111907Y-63735494D01*
X127120500Y-63681245D01*
X127120500Y-61918754D01*
X127092862Y-61744260D01*
X127082568Y-61679265D01*
X127007638Y-61448653D01*
X126897554Y-61232602D01*
X126852220Y-61170205D01*
X126755033Y-61036437D01*
X126755029Y-61036432D01*
X126583567Y-60864970D01*
X126583562Y-60864966D01*
X126387401Y-60722448D01*
X126387400Y-60722447D01*
X126387398Y-60722446D01*
X126259519Y-60657288D01*
X126171344Y-60612360D01*
X125940736Y-60537432D01*
X125701245Y-60499500D01*
X125701240Y-60499500D01*
X125458760Y-60499500D01*
X125458755Y-60499500D01*
X125219263Y-60537432D01*
X124988655Y-60612360D01*
X124772598Y-60722448D01*
X124576437Y-60864966D01*
X124576432Y-60864970D01*
X124404970Y-61036432D01*
X124404966Y-61036437D01*
X124262448Y-61232598D01*
X124152360Y-61448655D01*
X124077432Y-61679263D01*
X124039500Y-61918754D01*
X124039500Y-63681245D01*
X124077432Y-63920736D01*
X124152360Y-64151344D01*
X124207404Y-64259372D01*
X124239468Y-64322302D01*
X124262448Y-64367401D01*
X124404966Y-64563562D01*
X124404970Y-64563567D01*
X124576432Y-64735029D01*
X124576437Y-64735033D01*
X124691537Y-64818657D01*
X124772602Y-64877554D01*
X124988653Y-64987638D01*
X124988655Y-64987639D01*
X125203878Y-65057569D01*
X125261553Y-65097006D01*
X125288752Y-65161365D01*
X125276838Y-65230211D01*
X125229594Y-65281687D01*
X125165560Y-65299500D01*
X120914440Y-65299500D01*
X120847401Y-65279815D01*
X120801646Y-65227011D01*
X120791702Y-65157853D01*
X120820727Y-65094297D01*
X120876122Y-65057569D01*
X121091344Y-64987639D01*
X121091344Y-64987638D01*
X121091347Y-64987638D01*
X121307398Y-64877554D01*
X121503569Y-64735028D01*
X121675028Y-64563569D01*
X121817554Y-64367398D01*
X121927638Y-64151347D01*
X122002568Y-63920735D01*
X122031907Y-63735494D01*
X122040500Y-63681245D01*
X122040500Y-61918754D01*
X122012862Y-61744260D01*
X122002568Y-61679265D01*
X121927638Y-61448653D01*
X121817554Y-61232602D01*
X121772220Y-61170205D01*
X121675033Y-61036437D01*
X121675029Y-61036432D01*
X121503567Y-60864970D01*
X121503562Y-60864966D01*
X121307401Y-60722448D01*
X121307400Y-60722447D01*
X121307398Y-60722446D01*
X121179519Y-60657288D01*
X121091344Y-60612360D01*
X120860736Y-60537432D01*
X120621245Y-60499500D01*
X120621240Y-60499500D01*
X120378760Y-60499500D01*
X120378755Y-60499500D01*
X120139263Y-60537432D01*
X119908655Y-60612360D01*
X119692598Y-60722448D01*
X119496437Y-60864966D01*
X119496432Y-60864970D01*
X119324970Y-61036432D01*
X119324966Y-61036437D01*
X119182448Y-61232598D01*
X119072360Y-61448655D01*
X118997432Y-61679263D01*
X118959500Y-61918754D01*
X118959500Y-63681245D01*
X118997432Y-63920736D01*
X119072360Y-64151344D01*
X119127404Y-64259372D01*
X119159468Y-64322302D01*
X119182448Y-64367401D01*
X119324966Y-64563562D01*
X119324970Y-64563567D01*
X119496432Y-64735029D01*
X119496437Y-64735033D01*
X119611537Y-64818657D01*
X119692602Y-64877554D01*
X119908653Y-64987638D01*
X119908655Y-64987639D01*
X120123878Y-65057569D01*
X120181553Y-65097006D01*
X120208752Y-65161365D01*
X120196838Y-65230211D01*
X120149594Y-65281687D01*
X120085560Y-65299500D01*
X115834440Y-65299500D01*
X115767401Y-65279815D01*
X115721646Y-65227011D01*
X115711702Y-65157853D01*
X115740727Y-65094297D01*
X115796122Y-65057569D01*
X116011344Y-64987639D01*
X116011344Y-64987638D01*
X116011347Y-64987638D01*
X116227398Y-64877554D01*
X116423569Y-64735028D01*
X116595028Y-64563569D01*
X116737554Y-64367398D01*
X116847638Y-64151347D01*
X116922568Y-63920735D01*
X116951907Y-63735494D01*
X116960500Y-63681245D01*
X116960500Y-61918754D01*
X116932862Y-61744260D01*
X116922568Y-61679265D01*
X116847638Y-61448653D01*
X116737554Y-61232602D01*
X116692220Y-61170205D01*
X116595033Y-61036437D01*
X116595029Y-61036432D01*
X116423567Y-60864970D01*
X116423562Y-60864966D01*
X116227401Y-60722448D01*
X116227400Y-60722447D01*
X116227398Y-60722446D01*
X116099519Y-60657288D01*
X116011344Y-60612360D01*
X115780736Y-60537432D01*
X115541245Y-60499500D01*
X115541240Y-60499500D01*
X115298760Y-60499500D01*
X115298755Y-60499500D01*
X115059263Y-60537432D01*
X114828655Y-60612360D01*
X114612598Y-60722448D01*
X114416437Y-60864966D01*
X114416432Y-60864970D01*
X114244970Y-61036432D01*
X114244966Y-61036437D01*
X114102448Y-61232598D01*
X113992360Y-61448655D01*
X113917432Y-61679263D01*
X113879500Y-61918754D01*
X113879500Y-63681245D01*
X113917432Y-63920736D01*
X113992360Y-64151344D01*
X114047404Y-64259372D01*
X114079468Y-64322302D01*
X114102448Y-64367401D01*
X114244966Y-64563562D01*
X114244970Y-64563567D01*
X114416432Y-64735029D01*
X114416437Y-64735033D01*
X114531537Y-64818657D01*
X114612602Y-64877554D01*
X114828653Y-64987638D01*
X114828655Y-64987639D01*
X115043878Y-65057569D01*
X115101553Y-65097006D01*
X115128752Y-65161365D01*
X115116838Y-65230211D01*
X115069594Y-65281687D01*
X115005560Y-65299500D01*
X110754440Y-65299500D01*
X110687401Y-65279815D01*
X110641646Y-65227011D01*
X110631702Y-65157853D01*
X110660727Y-65094297D01*
X110716122Y-65057569D01*
X110931344Y-64987639D01*
X110931344Y-64987638D01*
X110931347Y-64987638D01*
X111147398Y-64877554D01*
X111343569Y-64735028D01*
X111515028Y-64563569D01*
X111657554Y-64367398D01*
X111767638Y-64151347D01*
X111842568Y-63920735D01*
X111871907Y-63735494D01*
X111880500Y-63681245D01*
X111880500Y-61918754D01*
X111852862Y-61744260D01*
X111842568Y-61679265D01*
X111767638Y-61448653D01*
X111657554Y-61232602D01*
X111612220Y-61170205D01*
X111515033Y-61036437D01*
X111515029Y-61036432D01*
X111343567Y-60864970D01*
X111343562Y-60864966D01*
X111147401Y-60722448D01*
X111147400Y-60722447D01*
X111147398Y-60722446D01*
X111019519Y-60657288D01*
X110931344Y-60612360D01*
X110700736Y-60537432D01*
X110461245Y-60499500D01*
X110461240Y-60499500D01*
X110218760Y-60499500D01*
X110218755Y-60499500D01*
X109979263Y-60537432D01*
X109748655Y-60612360D01*
X109532598Y-60722448D01*
X109336437Y-60864966D01*
X109336432Y-60864970D01*
X109164970Y-61036432D01*
X109164966Y-61036437D01*
X109022448Y-61232598D01*
X108912360Y-61448655D01*
X108837432Y-61679263D01*
X108799500Y-61918754D01*
X108799500Y-63681245D01*
X108837432Y-63920736D01*
X108912360Y-64151344D01*
X108967404Y-64259372D01*
X108999468Y-64322302D01*
X109022448Y-64367401D01*
X109164966Y-64563562D01*
X109164970Y-64563567D01*
X109336432Y-64735029D01*
X109336437Y-64735033D01*
X109451537Y-64818657D01*
X109532602Y-64877554D01*
X109748653Y-64987638D01*
X109748655Y-64987639D01*
X109963878Y-65057569D01*
X110021553Y-65097006D01*
X110048752Y-65161365D01*
X110036838Y-65230211D01*
X109989594Y-65281687D01*
X109925560Y-65299500D01*
X105674440Y-65299500D01*
X105607401Y-65279815D01*
X105561646Y-65227011D01*
X105551702Y-65157853D01*
X105580727Y-65094297D01*
X105636122Y-65057569D01*
X105851344Y-64987639D01*
X105851344Y-64987638D01*
X105851347Y-64987638D01*
X106067398Y-64877554D01*
X106263569Y-64735028D01*
X106435028Y-64563569D01*
X106577554Y-64367398D01*
X106687638Y-64151347D01*
X106762568Y-63920735D01*
X106791907Y-63735494D01*
X106800500Y-63681245D01*
X106800500Y-61918754D01*
X106772862Y-61744260D01*
X106762568Y-61679265D01*
X106687638Y-61448653D01*
X106577554Y-61232602D01*
X106532220Y-61170205D01*
X106435033Y-61036437D01*
X106435029Y-61036432D01*
X106263567Y-60864970D01*
X106263562Y-60864966D01*
X106067401Y-60722448D01*
X106067400Y-60722447D01*
X106067398Y-60722446D01*
X105939519Y-60657288D01*
X105851344Y-60612360D01*
X105620736Y-60537432D01*
X105381245Y-60499500D01*
X105381240Y-60499500D01*
X105138760Y-60499500D01*
X105138755Y-60499500D01*
X104899263Y-60537432D01*
X104668655Y-60612360D01*
X104452598Y-60722448D01*
X104256437Y-60864966D01*
X104256432Y-60864970D01*
X104084970Y-61036432D01*
X104084966Y-61036437D01*
X103942448Y-61232598D01*
X103832360Y-61448655D01*
X103757432Y-61679263D01*
X103719500Y-61918754D01*
X103719500Y-63681245D01*
X103757432Y-63920736D01*
X103832360Y-64151344D01*
X103887404Y-64259372D01*
X103919468Y-64322302D01*
X103942448Y-64367401D01*
X104084966Y-64563562D01*
X104084970Y-64563567D01*
X104256432Y-64735029D01*
X104256437Y-64735033D01*
X104371537Y-64818657D01*
X104452602Y-64877554D01*
X104668653Y-64987638D01*
X104668655Y-64987639D01*
X104883878Y-65057569D01*
X104941553Y-65097006D01*
X104968752Y-65161365D01*
X104956838Y-65230211D01*
X104909594Y-65281687D01*
X104845560Y-65299500D01*
X100594440Y-65299500D01*
X100527401Y-65279815D01*
X100481646Y-65227011D01*
X100471702Y-65157853D01*
X100500727Y-65094297D01*
X100556122Y-65057569D01*
X100771344Y-64987639D01*
X100771344Y-64987638D01*
X100771347Y-64987638D01*
X100987398Y-64877554D01*
X101183569Y-64735028D01*
X101355028Y-64563569D01*
X101497554Y-64367398D01*
X101607638Y-64151347D01*
X101682568Y-63920735D01*
X101711907Y-63735494D01*
X101720500Y-63681245D01*
X101720500Y-61918754D01*
X101692862Y-61744260D01*
X101682568Y-61679265D01*
X101607638Y-61448653D01*
X101497554Y-61232602D01*
X101452220Y-61170205D01*
X101355033Y-61036437D01*
X101355029Y-61036432D01*
X101183567Y-60864970D01*
X101183562Y-60864966D01*
X100987401Y-60722448D01*
X100987400Y-60722447D01*
X100987398Y-60722446D01*
X100859519Y-60657288D01*
X100771344Y-60612360D01*
X100540736Y-60537432D01*
X100301245Y-60499500D01*
X100301240Y-60499500D01*
X100058760Y-60499500D01*
X100058755Y-60499500D01*
X99819263Y-60537432D01*
X99588655Y-60612360D01*
X99372598Y-60722448D01*
X99176437Y-60864966D01*
X99176432Y-60864970D01*
X99004970Y-61036432D01*
X99004966Y-61036437D01*
X98862448Y-61232598D01*
X98752360Y-61448655D01*
X98677432Y-61679263D01*
X98639500Y-61918754D01*
X98639500Y-63681245D01*
X98677432Y-63920736D01*
X98752360Y-64151344D01*
X98807404Y-64259372D01*
X98839468Y-64322302D01*
X98862448Y-64367401D01*
X99004966Y-64563562D01*
X99004970Y-64563567D01*
X99176432Y-64735029D01*
X99176437Y-64735033D01*
X99291537Y-64818657D01*
X99372602Y-64877554D01*
X99588653Y-64987638D01*
X99588655Y-64987639D01*
X99803878Y-65057569D01*
X99861553Y-65097006D01*
X99888752Y-65161365D01*
X99876838Y-65230211D01*
X99829594Y-65281687D01*
X99765560Y-65299500D01*
X95514440Y-65299500D01*
X95447401Y-65279815D01*
X95401646Y-65227011D01*
X95391702Y-65157853D01*
X95420727Y-65094297D01*
X95476122Y-65057569D01*
X95691344Y-64987639D01*
X95691344Y-64987638D01*
X95691347Y-64987638D01*
X95907398Y-64877554D01*
X96103569Y-64735028D01*
X96275028Y-64563569D01*
X96417554Y-64367398D01*
X96527638Y-64151347D01*
X96602568Y-63920735D01*
X96631907Y-63735494D01*
X96640500Y-63681245D01*
X96640500Y-61918754D01*
X96612862Y-61744260D01*
X96602568Y-61679265D01*
X96527638Y-61448653D01*
X96417554Y-61232602D01*
X96372220Y-61170205D01*
X96275033Y-61036437D01*
X96275029Y-61036432D01*
X96103567Y-60864970D01*
X96103562Y-60864966D01*
X95907401Y-60722448D01*
X95907400Y-60722447D01*
X95907398Y-60722446D01*
X95779519Y-60657288D01*
X95691344Y-60612360D01*
X95460736Y-60537432D01*
X95221245Y-60499500D01*
X95221240Y-60499500D01*
X94978760Y-60499500D01*
X94978755Y-60499500D01*
X94739263Y-60537432D01*
X94508655Y-60612360D01*
X94292598Y-60722448D01*
X94096437Y-60864966D01*
X94096432Y-60864970D01*
X93924970Y-61036432D01*
X93924966Y-61036437D01*
X93782448Y-61232598D01*
X93672360Y-61448655D01*
X93597432Y-61679263D01*
X93559500Y-61918754D01*
X93559500Y-63681245D01*
X93597432Y-63920736D01*
X93672360Y-64151344D01*
X93727404Y-64259372D01*
X93759468Y-64322302D01*
X93782448Y-64367401D01*
X93924966Y-64563562D01*
X93924970Y-64563567D01*
X94096432Y-64735029D01*
X94096437Y-64735033D01*
X94211537Y-64818657D01*
X94292602Y-64877554D01*
X94508653Y-64987638D01*
X94508655Y-64987639D01*
X94723878Y-65057569D01*
X94781553Y-65097006D01*
X94808752Y-65161365D01*
X94796838Y-65230211D01*
X94749594Y-65281687D01*
X94685560Y-65299500D01*
X90434440Y-65299500D01*
X90367401Y-65279815D01*
X90321646Y-65227011D01*
X90311702Y-65157853D01*
X90340727Y-65094297D01*
X90396122Y-65057569D01*
X90611344Y-64987639D01*
X90611344Y-64987638D01*
X90611347Y-64987638D01*
X90827398Y-64877554D01*
X91023569Y-64735028D01*
X91195028Y-64563569D01*
X91337554Y-64367398D01*
X91447638Y-64151347D01*
X91522568Y-63920735D01*
X91551907Y-63735494D01*
X91560500Y-63681245D01*
X91560500Y-61918754D01*
X91532862Y-61744260D01*
X91522568Y-61679265D01*
X91447638Y-61448653D01*
X91337554Y-61232602D01*
X91292220Y-61170205D01*
X91195033Y-61036437D01*
X91195029Y-61036432D01*
X91023567Y-60864970D01*
X91023562Y-60864966D01*
X90827401Y-60722448D01*
X90827400Y-60722447D01*
X90827398Y-60722446D01*
X90699519Y-60657288D01*
X90611344Y-60612360D01*
X90380736Y-60537432D01*
X90141245Y-60499500D01*
X90141240Y-60499500D01*
X89898760Y-60499500D01*
X89898755Y-60499500D01*
X89659263Y-60537432D01*
X89428655Y-60612360D01*
X89212598Y-60722448D01*
X89016437Y-60864966D01*
X89016432Y-60864970D01*
X88844970Y-61036432D01*
X88844966Y-61036437D01*
X88702448Y-61232598D01*
X88592360Y-61448655D01*
X88517432Y-61679263D01*
X88479500Y-61918754D01*
X88479500Y-63681245D01*
X88517432Y-63920736D01*
X88592360Y-64151344D01*
X88647404Y-64259372D01*
X88679468Y-64322302D01*
X88702448Y-64367401D01*
X88844966Y-64563562D01*
X88844970Y-64563567D01*
X89016432Y-64735029D01*
X89016437Y-64735033D01*
X89131537Y-64818657D01*
X89212602Y-64877554D01*
X89428653Y-64987638D01*
X89428655Y-64987639D01*
X89643878Y-65057569D01*
X89701553Y-65097006D01*
X89728752Y-65161365D01*
X89716838Y-65230211D01*
X89669594Y-65281687D01*
X89605560Y-65299500D01*
X85354440Y-65299500D01*
X85287401Y-65279815D01*
X85241646Y-65227011D01*
X85231702Y-65157853D01*
X85260727Y-65094297D01*
X85316122Y-65057569D01*
X85531344Y-64987639D01*
X85531344Y-64987638D01*
X85531347Y-64987638D01*
X85747398Y-64877554D01*
X85943569Y-64735028D01*
X86115028Y-64563569D01*
X86257554Y-64367398D01*
X86367638Y-64151347D01*
X86442568Y-63920735D01*
X86471907Y-63735494D01*
X86480500Y-63681245D01*
X86480500Y-61918754D01*
X86452862Y-61744260D01*
X86442568Y-61679265D01*
X86367638Y-61448653D01*
X86257554Y-61232602D01*
X86212220Y-61170205D01*
X86115033Y-61036437D01*
X86115029Y-61036432D01*
X85943567Y-60864970D01*
X85943562Y-60864966D01*
X85747401Y-60722448D01*
X85747400Y-60722447D01*
X85747398Y-60722446D01*
X85619519Y-60657288D01*
X85531344Y-60612360D01*
X85300736Y-60537432D01*
X85061245Y-60499500D01*
X85061240Y-60499500D01*
X84818760Y-60499500D01*
X84818755Y-60499500D01*
X84579263Y-60537432D01*
X84348655Y-60612360D01*
X84132598Y-60722448D01*
X83936437Y-60864966D01*
X83936432Y-60864970D01*
X83764970Y-61036432D01*
X83764966Y-61036437D01*
X83622448Y-61232598D01*
X83512360Y-61448655D01*
X83437432Y-61679263D01*
X83399500Y-61918754D01*
X83399500Y-63681245D01*
X83437432Y-63920736D01*
X83512360Y-64151344D01*
X83567404Y-64259372D01*
X83599468Y-64322302D01*
X83622448Y-64367401D01*
X83764966Y-64563562D01*
X83764970Y-64563567D01*
X83936432Y-64735029D01*
X83936437Y-64735033D01*
X84051537Y-64818657D01*
X84132602Y-64877554D01*
X84348653Y-64987638D01*
X84348655Y-64987639D01*
X84468272Y-65026504D01*
X84579265Y-65062568D01*
X84579267Y-65062568D01*
X84583996Y-65063704D01*
X84583611Y-65065305D01*
X84640251Y-65092138D01*
X84677198Y-65151440D01*
X84676219Y-65221303D01*
X84637625Y-65279546D01*
X84581935Y-65306321D01*
X84451923Y-65332182D01*
X84451913Y-65332185D01*
X84413538Y-65348081D01*
X84297143Y-65396292D01*
X84297137Y-65396295D01*
X84297137Y-65396296D01*
X84157840Y-65489373D01*
X84157831Y-65489379D01*
X84157830Y-65489380D01*
X80189375Y-69457834D01*
X80189372Y-69457838D01*
X80096297Y-69597133D01*
X80096296Y-69597136D01*
X80056936Y-69692161D01*
X80056936Y-69692162D01*
X80032184Y-69751917D01*
X80032182Y-69751925D01*
X79999500Y-69916228D01*
X79999500Y-76064309D01*
X79993261Y-76085554D01*
X79991682Y-76107643D01*
X79983609Y-76118426D01*
X79979815Y-76131348D01*
X79963081Y-76145847D01*
X79949810Y-76163576D01*
X79937189Y-76168283D01*
X79927011Y-76177103D01*
X79905093Y-76180254D01*
X79884346Y-76187993D01*
X79871185Y-76185130D01*
X79857853Y-76187047D01*
X79837709Y-76177847D01*
X79816073Y-76173141D01*
X79798347Y-76159872D01*
X79794297Y-76158022D01*
X79787819Y-76151990D01*
X79639001Y-76003172D01*
X79605516Y-75941849D01*
X79602682Y-75915491D01*
X79602682Y-75344141D01*
X79602681Y-75344124D01*
X79592182Y-75241346D01*
X79592181Y-75241343D01*
X79573536Y-75185077D01*
X79536997Y-75074809D01*
X79444895Y-74925487D01*
X79320839Y-74801431D01*
X79171517Y-74709329D01*
X79004980Y-74654144D01*
X79004978Y-74654143D01*
X78902199Y-74643643D01*
X78902192Y-74643643D01*
X78330834Y-74643643D01*
X78263795Y-74623958D01*
X78243153Y-74607324D01*
X77731820Y-74095991D01*
X77698335Y-74034668D01*
X77703319Y-73964976D01*
X77745191Y-73909043D01*
X77750611Y-73905207D01*
X77752856Y-73903706D01*
X77752863Y-73903704D01*
X77892162Y-73810627D01*
X78265970Y-73436817D01*
X78327293Y-73403333D01*
X78353651Y-73400499D01*
X78725002Y-73400499D01*
X78725008Y-73400499D01*
X78827797Y-73389999D01*
X78994334Y-73334814D01*
X79143656Y-73242712D01*
X79267712Y-73118656D01*
X79359814Y-72969334D01*
X79414999Y-72802797D01*
X79425500Y-72700009D01*
X79425499Y-71799992D01*
X79425011Y-71795218D01*
X79414999Y-71697203D01*
X79414998Y-71697200D01*
X79414584Y-71695951D01*
X79359814Y-71530666D01*
X79267712Y-71381344D01*
X79143656Y-71257288D01*
X78994334Y-71165186D01*
X78827797Y-71110001D01*
X78827795Y-71110000D01*
X78725010Y-71099500D01*
X77374998Y-71099500D01*
X77374981Y-71099501D01*
X77272203Y-71110000D01*
X77272200Y-71110001D01*
X77105668Y-71165185D01*
X77105663Y-71165187D01*
X76956342Y-71257289D01*
X76832289Y-71381342D01*
X76740187Y-71530663D01*
X76740186Y-71530666D01*
X76685001Y-71697203D01*
X76685001Y-71697204D01*
X76685000Y-71697204D01*
X76674500Y-71799983D01*
X76674500Y-71799991D01*
X76674500Y-72034778D01*
X76674501Y-72175500D01*
X76654817Y-72242539D01*
X76602013Y-72288294D01*
X76550501Y-72299500D01*
X75853650Y-72299500D01*
X75786611Y-72279815D01*
X75765969Y-72263181D01*
X73586818Y-70084030D01*
X73553333Y-70022707D01*
X73550499Y-69996349D01*
X73550499Y-69566228D01*
X74399500Y-69566228D01*
X74399500Y-69733771D01*
X74432182Y-69898074D01*
X74432184Y-69898082D01*
X74496295Y-70052860D01*
X74589373Y-70192162D01*
X74707837Y-70310626D01*
X74746727Y-70336611D01*
X74847137Y-70403703D01*
X74847138Y-70403703D01*
X74847139Y-70403704D01*
X74882201Y-70418227D01*
X75001918Y-70467816D01*
X75166228Y-70500499D01*
X75166232Y-70500500D01*
X75166233Y-70500500D01*
X75383768Y-70500500D01*
X75383769Y-70500499D01*
X75438538Y-70489605D01*
X75548074Y-70467818D01*
X75548078Y-70467816D01*
X75548082Y-70467816D01*
X75593415Y-70449037D01*
X75702863Y-70403704D01*
X75842162Y-70310627D01*
X76115970Y-70036819D01*
X76177293Y-70003334D01*
X76203651Y-70000500D01*
X76762769Y-70000500D01*
X76829808Y-70020185D01*
X76850450Y-70036818D01*
X76956344Y-70142712D01*
X77105666Y-70234814D01*
X77272203Y-70289999D01*
X77374991Y-70300500D01*
X78725008Y-70300499D01*
X78827797Y-70289999D01*
X78994334Y-70234814D01*
X79143656Y-70142712D01*
X79267712Y-70018656D01*
X79359814Y-69869334D01*
X79414999Y-69702797D01*
X79425500Y-69600009D01*
X79425499Y-68699992D01*
X79414999Y-68597203D01*
X79359814Y-68430666D01*
X79267712Y-68281344D01*
X79143656Y-68157288D01*
X79050888Y-68100069D01*
X78994336Y-68065187D01*
X78994331Y-68065185D01*
X78992862Y-68064698D01*
X78827797Y-68010001D01*
X78827795Y-68010000D01*
X78725010Y-67999500D01*
X77374998Y-67999500D01*
X77374981Y-67999501D01*
X77272203Y-68010000D01*
X77272200Y-68010001D01*
X77105668Y-68065185D01*
X77105663Y-68065187D01*
X76956345Y-68157287D01*
X76850450Y-68263182D01*
X76789127Y-68296666D01*
X76762769Y-68299500D01*
X75716228Y-68299500D01*
X75551925Y-68332182D01*
X75551913Y-68332185D01*
X75513538Y-68348080D01*
X75513539Y-68348081D01*
X75397133Y-68396297D01*
X75257838Y-68489372D01*
X75257834Y-68489375D01*
X74867153Y-68880056D01*
X74848363Y-68895477D01*
X74707838Y-68989373D01*
X74707834Y-68989376D01*
X74589373Y-69107837D01*
X74496295Y-69247139D01*
X74432184Y-69401917D01*
X74432182Y-69401925D01*
X74399500Y-69566228D01*
X73550499Y-69566228D01*
X73550499Y-68349998D01*
X73550498Y-68349981D01*
X73539999Y-68247203D01*
X73539998Y-68247200D01*
X73510204Y-68157288D01*
X73484814Y-68080666D01*
X73392712Y-67931344D01*
X73268656Y-67807288D01*
X73119334Y-67715186D01*
X72952797Y-67660001D01*
X72952795Y-67660000D01*
X72850010Y-67649500D01*
X70649998Y-67649500D01*
X70649980Y-67649501D01*
X70554894Y-67659215D01*
X70486201Y-67646445D01*
X70435317Y-67598564D01*
X70418397Y-67530774D01*
X70440813Y-67464598D01*
X70454612Y-67448176D01*
X71390970Y-66511818D01*
X71452293Y-66478333D01*
X71478651Y-66475499D01*
X72050002Y-66475499D01*
X72050008Y-66475499D01*
X72152797Y-66464999D01*
X72319334Y-66409814D01*
X72468656Y-66317712D01*
X72592712Y-66193656D01*
X72684814Y-66044334D01*
X72739999Y-65877797D01*
X72750500Y-65775009D01*
X72750500Y-65774986D01*
X73550001Y-65774986D01*
X73560494Y-65877697D01*
X73615641Y-66044119D01*
X73615643Y-66044124D01*
X73707684Y-66193345D01*
X73831654Y-66317315D01*
X73980875Y-66409356D01*
X73980880Y-66409358D01*
X74147302Y-66464505D01*
X74147309Y-66464506D01*
X74250019Y-66474999D01*
X74449999Y-66474999D01*
X74950000Y-66474999D01*
X75149972Y-66474999D01*
X75149986Y-66474998D01*
X75252697Y-66464505D01*
X75419119Y-66409358D01*
X75419124Y-66409356D01*
X75568345Y-66317315D01*
X75692315Y-66193345D01*
X75784356Y-66044124D01*
X75784358Y-66044119D01*
X75839505Y-65877697D01*
X75839506Y-65877690D01*
X75849999Y-65774986D01*
X75850000Y-65774973D01*
X75850000Y-65350000D01*
X74950000Y-65350000D01*
X74950000Y-66474999D01*
X74449999Y-66474999D01*
X74450000Y-66474998D01*
X74450000Y-65350000D01*
X73550001Y-65350000D01*
X73550001Y-65774986D01*
X72750500Y-65774986D01*
X72750499Y-65097567D01*
X72750499Y-64425013D01*
X73550000Y-64425013D01*
X73550000Y-64850000D01*
X74450000Y-64850000D01*
X74950000Y-64850000D01*
X75849999Y-64850000D01*
X75849999Y-64425028D01*
X75849998Y-64425013D01*
X75839505Y-64322302D01*
X75784358Y-64155880D01*
X75784356Y-64155875D01*
X75692315Y-64006654D01*
X75568345Y-63882684D01*
X75419124Y-63790643D01*
X75419119Y-63790641D01*
X75252697Y-63735494D01*
X75252690Y-63735493D01*
X75149986Y-63725000D01*
X74950000Y-63725000D01*
X74950000Y-64850000D01*
X74450000Y-64850000D01*
X74450000Y-63725000D01*
X74250029Y-63725000D01*
X74250012Y-63725001D01*
X74147302Y-63735494D01*
X73980880Y-63790641D01*
X73980875Y-63790643D01*
X73831654Y-63882684D01*
X73707684Y-64006654D01*
X73615643Y-64155875D01*
X73615641Y-64155880D01*
X73560494Y-64322302D01*
X73560493Y-64322309D01*
X73550000Y-64425013D01*
X72750499Y-64425013D01*
X72750499Y-64424998D01*
X72750498Y-64424981D01*
X72739999Y-64322203D01*
X72739998Y-64322200D01*
X72684814Y-64155666D01*
X72592712Y-64006344D01*
X72468656Y-63882288D01*
X72319334Y-63790186D01*
X72152797Y-63735001D01*
X72152795Y-63735000D01*
X72050010Y-63724500D01*
X71149998Y-63724500D01*
X71149980Y-63724501D01*
X71047203Y-63735000D01*
X71047200Y-63735001D01*
X70880668Y-63790185D01*
X70880663Y-63790187D01*
X70731342Y-63882289D01*
X70607289Y-64006342D01*
X70515187Y-64155663D01*
X70515185Y-64155668D01*
X70515115Y-64155880D01*
X70460001Y-64322203D01*
X70460001Y-64322204D01*
X70460000Y-64322204D01*
X70449500Y-64424983D01*
X70449500Y-64996348D01*
X70429815Y-65063387D01*
X70413181Y-65084029D01*
X67939375Y-67557834D01*
X67939372Y-67557838D01*
X67846299Y-67697130D01*
X67846292Y-67697143D01*
X67804484Y-67798080D01*
X67782185Y-67851913D01*
X67782182Y-67851925D01*
X67749500Y-68016228D01*
X67200000Y-68016228D01*
X67200000Y-60228711D01*
X69299500Y-60228711D01*
X69299500Y-60471288D01*
X69331161Y-60711785D01*
X69393947Y-60946104D01*
X69486773Y-61170205D01*
X69486776Y-61170212D01*
X69608064Y-61380289D01*
X69608066Y-61380292D01*
X69608067Y-61380293D01*
X69755733Y-61572736D01*
X69755739Y-61572743D01*
X69927256Y-61744260D01*
X69927262Y-61744265D01*
X70119711Y-61891936D01*
X70329788Y-62013224D01*
X70553900Y-62106054D01*
X70788211Y-62168838D01*
X70968586Y-62192584D01*
X71028711Y-62200500D01*
X71028712Y-62200500D01*
X71271289Y-62200500D01*
X71319388Y-62194167D01*
X71511789Y-62168838D01*
X71746100Y-62106054D01*
X71970212Y-62013224D01*
X72133839Y-61918754D01*
X78319500Y-61918754D01*
X78319500Y-63681245D01*
X78357432Y-63920736D01*
X78432360Y-64151344D01*
X78487404Y-64259372D01*
X78519468Y-64322302D01*
X78542448Y-64367401D01*
X78684966Y-64563562D01*
X78684970Y-64563567D01*
X78856432Y-64735029D01*
X78856437Y-64735033D01*
X78971537Y-64818657D01*
X79052602Y-64877554D01*
X79268653Y-64987638D01*
X79268655Y-64987639D01*
X79383959Y-65025103D01*
X79499265Y-65062568D01*
X79610186Y-65080136D01*
X79738755Y-65100500D01*
X79738760Y-65100500D01*
X79981245Y-65100500D01*
X80097347Y-65082110D01*
X80220735Y-65062568D01*
X80451347Y-64987638D01*
X80667398Y-64877554D01*
X80863569Y-64735028D01*
X81035028Y-64563569D01*
X81177554Y-64367398D01*
X81287638Y-64151347D01*
X81362568Y-63920735D01*
X81391907Y-63735494D01*
X81400500Y-63681245D01*
X81400500Y-61918754D01*
X81372862Y-61744260D01*
X81362568Y-61679265D01*
X81287638Y-61448653D01*
X81177554Y-61232602D01*
X81132220Y-61170205D01*
X81035033Y-61036437D01*
X81035029Y-61036432D01*
X80863567Y-60864970D01*
X80863562Y-60864966D01*
X80667401Y-60722448D01*
X80667400Y-60722447D01*
X80667398Y-60722446D01*
X80539519Y-60657288D01*
X80451344Y-60612360D01*
X80220736Y-60537432D01*
X79981245Y-60499500D01*
X79981240Y-60499500D01*
X79738760Y-60499500D01*
X79738755Y-60499500D01*
X79499263Y-60537432D01*
X79268655Y-60612360D01*
X79052598Y-60722448D01*
X78856437Y-60864966D01*
X78856432Y-60864970D01*
X78684970Y-61036432D01*
X78684966Y-61036437D01*
X78542448Y-61232598D01*
X78432360Y-61448655D01*
X78357432Y-61679263D01*
X78319500Y-61918754D01*
X72133839Y-61918754D01*
X72180289Y-61891936D01*
X72372738Y-61744265D01*
X72544265Y-61572738D01*
X72691936Y-61380289D01*
X72813224Y-61170212D01*
X72906054Y-60946100D01*
X72968838Y-60711789D01*
X73000500Y-60471288D01*
X73000500Y-60228712D01*
X73000500Y-60228711D01*
X142799500Y-60228711D01*
X142799500Y-60471288D01*
X142831161Y-60711785D01*
X142893947Y-60946104D01*
X142986773Y-61170205D01*
X142986776Y-61170212D01*
X143108064Y-61380289D01*
X143108066Y-61380292D01*
X143108067Y-61380293D01*
X143255733Y-61572736D01*
X143255739Y-61572743D01*
X143427256Y-61744260D01*
X143427262Y-61744265D01*
X143619711Y-61891936D01*
X143829788Y-62013224D01*
X144053900Y-62106054D01*
X144288211Y-62168838D01*
X144468586Y-62192584D01*
X144528711Y-62200500D01*
X144528712Y-62200500D01*
X144771289Y-62200500D01*
X144819388Y-62194167D01*
X145011789Y-62168838D01*
X145246100Y-62106054D01*
X145470212Y-62013224D01*
X145680289Y-61891936D01*
X145872738Y-61744265D01*
X146044265Y-61572738D01*
X146191936Y-61380289D01*
X146313224Y-61170212D01*
X146406054Y-60946100D01*
X146468838Y-60711789D01*
X146500500Y-60471288D01*
X146500500Y-60228712D01*
X146468838Y-59988211D01*
X146406054Y-59753900D01*
X146313224Y-59529788D01*
X146191936Y-59319711D01*
X146044265Y-59127262D01*
X146044260Y-59127256D01*
X145872743Y-58955739D01*
X145872736Y-58955733D01*
X145680293Y-58808067D01*
X145680292Y-58808066D01*
X145680289Y-58808064D01*
X145470212Y-58686776D01*
X145470205Y-58686773D01*
X145246104Y-58593947D01*
X145011785Y-58531161D01*
X144771289Y-58499500D01*
X144771288Y-58499500D01*
X144528712Y-58499500D01*
X144528711Y-58499500D01*
X144288214Y-58531161D01*
X144053895Y-58593947D01*
X143829794Y-58686773D01*
X143829785Y-58686777D01*
X143619706Y-58808067D01*
X143427263Y-58955733D01*
X143427256Y-58955739D01*
X143255739Y-59127256D01*
X143255733Y-59127263D01*
X143108067Y-59319706D01*
X142986777Y-59529785D01*
X142986773Y-59529794D01*
X142893947Y-59753895D01*
X142831161Y-59988214D01*
X142799500Y-60228711D01*
X73000500Y-60228711D01*
X72968838Y-59988211D01*
X72906054Y-59753900D01*
X72813224Y-59529788D01*
X72691936Y-59319711D01*
X72544265Y-59127262D01*
X72544260Y-59127256D01*
X72372743Y-58955739D01*
X72372736Y-58955733D01*
X72180293Y-58808067D01*
X72180292Y-58808066D01*
X72180289Y-58808064D01*
X71970212Y-58686776D01*
X71970205Y-58686773D01*
X71746104Y-58593947D01*
X71511785Y-58531161D01*
X71271289Y-58499500D01*
X71271288Y-58499500D01*
X71028712Y-58499500D01*
X71028711Y-58499500D01*
X70788214Y-58531161D01*
X70553895Y-58593947D01*
X70329794Y-58686773D01*
X70329785Y-58686777D01*
X70119706Y-58808067D01*
X69927263Y-58955733D01*
X69927256Y-58955739D01*
X69755739Y-59127256D01*
X69755733Y-59127263D01*
X69608067Y-59319706D01*
X69486777Y-59529785D01*
X69486773Y-59529794D01*
X69393947Y-59753895D01*
X69331161Y-59988214D01*
X69299500Y-60228711D01*
X67200000Y-60228711D01*
X67200000Y-53324000D01*
X67219685Y-53256961D01*
X67272489Y-53211206D01*
X67324000Y-53200000D01*
X148626000Y-53200000D01*
X148693039Y-53219685D01*
G37*
%TD.AperFunction*%
%TD*%
%TA.AperFunction,Conductor*%
%TO.N,/5V*%
G36*
X108093039Y-109919685D02*
G01*
X108138794Y-109972489D01*
X108150000Y-110024000D01*
X108150000Y-113626000D01*
X108130315Y-113693039D01*
X108077511Y-113738794D01*
X108026000Y-113750000D01*
X89724000Y-113750000D01*
X89656961Y-113730315D01*
X89611206Y-113677511D01*
X89600000Y-113626000D01*
X89600000Y-111074000D01*
X89619685Y-111006961D01*
X89672489Y-110961206D01*
X89724000Y-110950000D01*
X100100000Y-110950000D01*
X100100000Y-110024000D01*
X100119685Y-109956961D01*
X100172489Y-109911206D01*
X100224000Y-109900000D01*
X108026000Y-109900000D01*
X108093039Y-109919685D01*
G37*
%TD.AperFunction*%
%TD*%
M02*
