M48
; DRILL file {KiCad 9.0.6} date 2026-03-14T06:17:14-0400
; FORMAT={-:-/ absolute / metric / decimal}
; #@! TF.CreationDate,2026-03-14T06:17:14-04:00
; #@! TF.GenerationSoftware,Kicad,Pcbnew,9.0.6
; #@! TF.FileFunction,Plated,1,2,PTH
FMAT,2
METRIC
; #@! TA.AperFunction,Plated,PTH,ViaDrill
T1C0.300
; #@! TA.AperFunction,Plated,PTH,ComponentDrill
T2C0.300
; #@! TA.AperFunction,Plated,PTH,ComponentDrill
T3C0.800
; #@! TA.AperFunction,Plated,PTH,ComponentDrill
T4C0.900
; #@! TA.AperFunction,Plated,PTH,ComponentDrill
T5C0.950
; #@! TA.AperFunction,Plated,PTH,ComponentDrill
T6C1.000
; #@! TA.AperFunction,Plated,PTH,ComponentDrill
T7C1.010
; #@! TA.AperFunction,Plated,PTH,ComponentDrill
T8C1.300
; #@! TA.AperFunction,Plated,PTH,ComponentDrill
T9C1.400
%
G90
G05
T1
X75.25Y-69.65
X77.7Y-85.05
X107.45Y-78.75
X108.15Y-128.8
X128.45Y-110.25
X131.95Y-114.1
T2
X90.225Y-98.675
X90.225Y-99.875
X91.425Y-98.675
X91.425Y-99.875
X92.725Y-98.675
X92.725Y-99.875
X93.825Y-98.675
X93.825Y-99.875
T3
X82.735Y-72.145
X82.735Y-79.765
X85.275Y-72.145
X85.275Y-79.765
X89.035Y-72.145
X89.035Y-79.765
X91.575Y-72.145
X91.575Y-79.765
X95.335Y-72.1
X95.335Y-79.72
X96.96Y-119.97
X96.96Y-127.59
X97.875Y-72.1
X97.875Y-79.72
X99.5Y-119.97
X99.5Y-127.59
X101.635Y-72.145
X101.635Y-79.765
X104.175Y-72.145
X104.175Y-79.765
T4
X112.127Y-80.835
X112.127Y-83.375
X112.127Y-85.915
X112.127Y-88.455
X112.127Y-90.995
X112.127Y-93.535
X112.127Y-96.075
X112.127Y-98.615
X112.127Y-101.155
X112.127Y-103.695
X112.127Y-106.235
X112.127Y-108.775
X112.127Y-111.315
X112.127Y-113.855
X112.127Y-116.395
X112.127Y-118.935
X112.127Y-121.475
X112.127Y-124.015
X112.127Y-126.555
X137.528Y-80.835
X137.528Y-83.375
X137.528Y-85.915
X137.528Y-88.455
X137.528Y-90.995
X137.528Y-93.535
X137.528Y-96.075
X137.528Y-98.615
X137.528Y-101.155
X137.528Y-103.695
X137.528Y-106.235
X137.528Y-108.775
X137.528Y-111.315
X137.528Y-113.855
X137.528Y-116.395
X137.528Y-118.935
X137.528Y-121.475
X137.528Y-124.015
X137.528Y-126.555
T5
X143.85Y-103.6
X143.85Y-106.1
X143.85Y-108.6
X143.85Y-111.1
T7
X143.85Y-72.84
X143.85Y-75.38
X143.85Y-77.92
X143.85Y-80.46
X143.85Y-85.7
X143.85Y-88.24
X143.85Y-90.78
X143.85Y-93.32
X143.85Y-95.86
X143.85Y-98.4
T8
X71.75Y-69.45
X71.75Y-74.45
X71.75Y-79.45
X71.75Y-85.8
X71.75Y-90.8
X71.75Y-95.8
X71.75Y-100.8
T9
X79.86Y-62.8
X84.94Y-62.8
X90.02Y-62.8
X95.1Y-62.8
X100.18Y-62.8
X105.26Y-62.8
X110.34Y-62.8
X115.42Y-62.8
X120.5Y-62.8
X125.58Y-62.8
X130.66Y-62.8
X135.74Y-62.8
T6
G00X73.45Y-109.692
M15
G01X73.45Y-111.692
M16
G05
G00X75.45Y-115.392
M15
G01X77.45Y-115.392
M16
G05
G00X79.45Y-109.692
M15
G01X79.45Y-111.692
M16
G05
M30
