G04 #@! TF.GenerationSoftware,KiCad,Pcbnew,9.0.6*
G04 #@! TF.CreationDate,2026-03-19T13:41:58-04:00*
G04 #@! TF.ProjectId,FigCNC-Pro,46696743-4e43-42d5-9072-6f2e6b696361,rev?*
G04 #@! TF.SameCoordinates,Original*
G04 #@! TF.FileFunction,Soldermask,Bot*
G04 #@! TF.FilePolarity,Negative*
%FSLAX46Y46*%
G04 Gerber Fmt 4.6, Leading zero omitted, Abs format (unit mm)*
G04 Created by KiCad (PCBNEW 9.0.6) date 2026-03-19 13:41:58*
%MOMM*%
%LPD*%
G01*
G04 APERTURE LIST*
G04 Aperture macros list*
%AMRoundRect*
0 Rectangle with rounded corners*
0 $1 Rounding radius*
0 $2 $3 $4 $5 $6 $7 $8 $9 X,Y pos of 4 corners*
0 Add a 4 corners polygon primitive as box body*
4,1,4,$2,$3,$4,$5,$6,$7,$8,$9,$2,$3,0*
0 Add four circle primitives for the rounded corners*
1,1,$1+$1,$2,$3*
1,1,$1+$1,$4,$5*
1,1,$1+$1,$6,$7*
1,1,$1+$1,$8,$9*
0 Add four rect primitives between the rounded corners*
20,1,$1+$1,$2,$3,$4,$5,0*
20,1,$1+$1,$4,$5,$6,$7,0*
20,1,$1+$1,$6,$7,$8,$9,0*
20,1,$1+$1,$8,$9,$2,$3,0*%
G04 Aperture macros list end*
%ADD10C,3.200000*%
%ADD11R,1.700000X1.700000*%
%ADD12C,1.700000*%
%ADD13RoundRect,0.250000X-1.050000X1.050000X-1.050000X-1.050000X1.050000X-1.050000X1.050000X1.050000X0*%
%ADD14C,2.600000*%
%ADD15R,3.500000X3.500000*%
%ADD16RoundRect,0.750000X-0.750000X-1.000000X0.750000X-1.000000X0.750000X1.000000X-0.750000X1.000000X0*%
%ADD17RoundRect,0.875000X-0.875000X-0.875000X0.875000X-0.875000X0.875000X0.875000X-0.875000X0.875000X0*%
%ADD18RoundRect,0.102000X-0.900000X-0.900000X0.900000X-0.900000X0.900000X0.900000X-0.900000X0.900000X0*%
%ADD19C,2.004000*%
%ADD20C,0.900000*%
%ADD21RoundRect,0.250000X-0.725000X0.600000X-0.725000X-0.600000X0.725000X-0.600000X0.725000X0.600000X0*%
%ADD22O,1.950000X1.700000*%
%ADD23RoundRect,0.249999X0.790001X1.550001X-0.790001X1.550001X-0.790001X-1.550001X0.790001X-1.550001X0*%
%ADD24O,2.080000X3.600000*%
G04 APERTURE END LIST*
D10*
G04 #@! TO.C,H3*
X26700000Y-87575000D03*
G04 #@! TD*
G04 #@! TO.C,H2*
X100200000Y-24825000D03*
G04 #@! TD*
D11*
G04 #@! TO.C,J6*
X99400000Y-62875000D03*
D12*
X99400000Y-60335000D03*
X99400000Y-57795000D03*
X99400000Y-55255000D03*
X99400000Y-52715000D03*
X99400000Y-50175000D03*
G04 #@! TD*
D13*
G04 #@! TO.C,J3*
X27300000Y-33925000D03*
D14*
X27300000Y-38925000D03*
X27300000Y-43925000D03*
G04 #@! TD*
D15*
G04 #@! TO.C,J1*
X35000000Y-75167500D03*
D16*
X29000000Y-75167500D03*
D17*
X32000000Y-79867500D03*
G04 #@! TD*
D10*
G04 #@! TO.C,H1*
X26700000Y-24825000D03*
G04 #@! TD*
G04 #@! TO.C,H4*
X100100000Y-87675000D03*
G04 #@! TD*
D13*
G04 #@! TO.C,J2*
X27300000Y-50275000D03*
D14*
X27300000Y-55275000D03*
X27300000Y-60275000D03*
X27300000Y-65275000D03*
G04 #@! TD*
D18*
G04 #@! TO.C,U1*
X67677500Y-45310000D03*
D19*
X67677500Y-47850000D03*
X67677500Y-50390000D03*
X67677500Y-52930000D03*
X67677500Y-55470000D03*
X67677500Y-58010000D03*
X67677500Y-60550000D03*
X67677500Y-63090000D03*
X67677500Y-65630000D03*
X67677500Y-68170000D03*
X67677500Y-70710000D03*
X67677500Y-73250000D03*
X67677500Y-75790000D03*
X67677500Y-78330000D03*
X67677500Y-80870000D03*
X67677500Y-83410000D03*
X67677500Y-85950000D03*
X67677500Y-88490000D03*
X67677500Y-91030000D03*
X93077500Y-45310000D03*
X93077500Y-47850000D03*
X93077500Y-50390000D03*
X93077500Y-52930000D03*
X93077500Y-55470000D03*
X93077500Y-58010000D03*
X93077500Y-60550000D03*
X93077500Y-63090000D03*
X93077500Y-65630000D03*
X93077500Y-68170000D03*
X93077500Y-70710000D03*
X93077500Y-73250000D03*
X93077500Y-75790000D03*
X93077500Y-78330000D03*
X93077500Y-80870000D03*
X93077500Y-83410000D03*
X93077500Y-85950000D03*
X93077500Y-88490000D03*
X93077500Y-91030000D03*
G04 #@! TD*
D20*
G04 #@! TO.C,J8*
X84430064Y-92937500D03*
X76430064Y-92937500D03*
G04 #@! TD*
D21*
G04 #@! TO.C,J7*
X99400000Y-68075000D03*
D22*
X99400000Y-70575000D03*
X99400000Y-73075000D03*
X99400000Y-75575000D03*
G04 #@! TD*
D21*
G04 #@! TO.C,J5*
X99400000Y-37315000D03*
D22*
X99400000Y-39815000D03*
X99400000Y-42315000D03*
X99400000Y-44815000D03*
G04 #@! TD*
D23*
G04 #@! TO.C,J4*
X91290000Y-27275000D03*
D24*
X86210000Y-27275000D03*
X81130000Y-27275000D03*
X76050000Y-27275000D03*
X70970000Y-27275000D03*
X65890000Y-27275000D03*
X60810000Y-27275000D03*
X55730000Y-27275000D03*
X50650000Y-27275000D03*
X45570000Y-27275000D03*
X40490000Y-27275000D03*
X35410000Y-27275000D03*
G04 #@! TD*
M02*
