M48
; DRILL file {KiCad 9.0.6} date 2026-03-19T13:41:58-0400
; FORMAT={-:-/ absolute / metric / decimal}
; #@! TF.CreationDate,2026-03-19T13:41:58-04:00
; #@! TF.GenerationSoftware,Kicad,Pcbnew,9.0.6
; #@! TF.FileFunction,Plated,1,2,PTH
FMAT,2
METRIC
; #@! TA.AperFunction,Plated,PTH,ViaDrill
T1C0.300
; #@! TA.AperFunction,Plated,PTH,ComponentDrill
T2C0.300
; #@! TA.AperFunction,Plated,PTH,ComponentDrill
T3C0.900
; #@! TA.AperFunction,Plated,PTH,ComponentDrill
T4C0.950
; #@! TA.AperFunction,Plated,PTH,ComponentDrill
T5C1.000
; #@! TA.AperFunction,Plated,PTH,ComponentDrill
T6C1.300
; #@! TA.AperFunction,Plated,PTH,ComponentDrill
T7C1.400
%
G90
G05
T1
X23.002Y-37.528
X23.016Y-35.058
X23.016Y-40.012
X23.017Y-32.428
X23.276Y-62.482
X23.294Y-64.973
X23.306Y-54.981
X23.345Y-69.958
X23.359Y-77.483
X23.363Y-57.503
X23.366Y-67.446
X23.382Y-52.468
X23.385Y-42.518
X23.4Y-20.008
X23.4Y-60.006
X23.414Y-50.03
X23.415Y-22.438
X23.42Y-45.0
X23.42Y-48.072
X23.421Y-75.049
X23.43Y-72.493
X23.471Y-87.555
X23.53Y-82.527
X23.543Y-80.388
X23.543Y-85.053
X23.574Y-95.046
X23.591Y-92.5
X23.635Y-90.016
X23.664Y-24.921
X23.674Y-30.507
X24.969Y-18.254
X25.202Y-95.645
X25.284Y-42.681
X25.486Y-45.54
X25.591Y-82.577
X25.909Y-62.099
X25.989Y-58.303
X26.017Y-77.592
X26.066Y-75.194
X26.114Y-72.602
X26.335Y-20.166
X26.711Y-91.741
X26.997Y-84.031
X27.0Y-68.0
X27.372Y-79.624
X27.488Y-95.635
X27.538Y-18.331
X28.348Y-71.993
X28.497Y-85.625
X28.795Y-45.795
X29.023Y-62.071
X29.184Y-58.638
X29.201Y-81.687
X29.595Y-31.871
X29.665Y-69.565
X29.845Y-91.451
X29.955Y-27.486
X29.985Y-18.331
X29.999Y-95.645
X30.0Y-22.5
X30.044Y-87.359
X30.44Y-55.374
X30.632Y-57.599
X30.8Y-34.125
X30.89Y-72.078
X31.0Y-61.0
X31.123Y-83.562
X31.292Y-30.339
X31.653Y-75.171
X32.0Y-68.0
X32.435Y-88.531
X32.472Y-18.245
X32.499Y-95.564
X32.5Y-20.0
X32.5Y-25.0
X32.523Y-32.161
X32.811Y-85.297
X32.94Y-54.165
X33.25Y-49.525
X34.0Y-58.0
X34.255Y-91.567
X34.624Y-83.135
X34.967Y-88.625
X34.978Y-18.272
X35.0Y-22.5
X35.0Y-79.0
X35.014Y-85.297
X35.038Y-95.605
X36.345Y-33.265
X36.51Y-30.792
X37.0Y-46.5
X37.163Y-82.218
X37.5Y-20.0
X37.5Y-25.0
X37.51Y-18.222
X37.546Y-85.297
X37.546Y-88.719
X37.578Y-95.645
X37.755Y-43.79
X38.786Y-83.558
X39.0Y-54.0
X39.013Y-91.741
X39.412Y-30.458
X39.532Y-46.567
X39.644Y-48.351
X39.997Y-95.645
X40.0Y-22.5
X40.0Y-51.0
X40.03Y-85.25
X40.03Y-88.625
X40.095Y-18.241
X40.182Y-40.459
X40.25Y-39.2
X40.757Y-54.72
X41.184Y-83.77
X41.472Y-30.642
X41.487Y-34.81
X41.65Y-46.55
X42.227Y-77.5
X42.261Y-73.626
X42.261Y-75.299
X42.297Y-70.81
X42.491Y-18.222
X42.495Y-95.677
X42.5Y-20.0
X42.5Y-25.0
X42.515Y-85.297
X42.515Y-88.719
X42.672Y-81.082
X42.764Y-63.316
X43.247Y-36.975
X43.417Y-72.959
X43.441Y-79.3
X43.549Y-40.159
X43.592Y-76.152
X43.793Y-83.628
X43.946Y-91.625
X43.973Y-70.407
X44.082Y-67.305
X44.368Y-30.35
X44.48Y-81.113
X44.651Y-71.92
X44.765Y-32.891
X44.958Y-73.968
X45.0Y-22.5
X45.0Y-85.343
X45.0Y-88.578
X45.0Y-95.636
X45.183Y-18.266
X45.868Y-45.605
X46.011Y-69.962
X46.123Y-73.028
X46.435Y-81.113
X46.567Y-32.945
X46.676Y-30.44
X46.967Y-83.628
X46.969Y-88.578
X47.05Y-68.391
X47.245Y-73.934
X47.438Y-85.39
X47.481Y-18.225
X47.484Y-95.677
X47.5Y-20.0
X47.5Y-25.0
X47.5Y-92.5
X47.757Y-71.578
X48.687Y-81.163
X48.781Y-72.944
X49.368Y-18.239
X49.395Y-69.496
X49.541Y-30.476
X49.902Y-32.855
X49.916Y-37.062
X49.968Y-95.636
X50.0Y-22.5
X50.0Y-90.0
X50.288Y-55.484
X50.351Y-74.036
X50.403Y-58.388
X50.45Y-46.292
X50.863Y-70.076
X51.0Y-60.0
X51.068Y-72.739
X51.087Y-81.113
X51.234Y-62.5
X51.234Y-64.445
X51.294Y-43.921
X51.47Y-32.963
X51.654Y-91.772
X51.758Y-30.584
X52.486Y-18.211
X52.493Y-95.657
X52.5Y-20.0
X52.5Y-25.0
X52.862Y-62.229
X53.0Y-60.0
X53.224Y-93.548
X53.319Y-89.945
X53.391Y-55.112
X53.512Y-81.138
X53.934Y-58.234
X54.494Y-30.236
X54.496Y-18.27
X54.558Y-64.354
X54.59Y-67.764
X54.694Y-59.99
X54.774Y-69.724
X54.835Y-72.083
X54.873Y-82.029
X54.998Y-95.636
X55.0Y-22.5
X55.0Y-46.0
X56.098Y-58.275
X56.288Y-63.59
X56.545Y-79.881
X56.552Y-37.367
X56.689Y-67.726
X56.901Y-82.845
X56.936Y-32.439
X57.0Y-90.0
X57.272Y-93.638
X57.451Y-18.256
X57.5Y-20.0
X57.5Y-25.0
X57.5Y-44.0
X57.53Y-95.605
X57.676Y-55.261
X57.745Y-72.175
X58.54Y-81.608
X58.731Y-45.558
X58.81Y-68.094
X59.213Y-34.606
X59.484Y-30.334
X59.566Y-18.242
X60.0Y-22.5
X60.005Y-95.633
X60.209Y-80.089
X60.657Y-55.484
X60.808Y-71.011
X61.512Y-93.726
X61.6Y-57.75
X61.6Y-84.0
X62.108Y-33.037
X62.11Y-63.309
X62.37Y-72.144
X62.459Y-18.239
X62.5Y-20.0
X62.5Y-25.0
X62.508Y-95.633
X62.571Y-92.446
X62.65Y-38.15
X63.234Y-64.464
X63.234Y-67.96
X63.302Y-58.391
X63.35Y-70.092
X63.7Y-43.4
X63.985Y-30.144
X64.655Y-18.25
X64.779Y-92.578
X64.978Y-35.952
X65.0Y-22.5
X65.011Y-95.688
X65.66Y-94.16
X66.987Y-92.843
X67.172Y-32.774
X67.4Y-38.374
X67.489Y-18.25
X67.5Y-20.0
X67.514Y-95.633
X68.386Y-30.245
X68.405Y-25.181
X68.822Y-94.209
X68.943Y-35.253
X69.372Y-92.269
X69.704Y-18.267
X70.0Y-22.5
X70.0Y-75.0
X70.0Y-77.5
X70.016Y-95.578
X71.236Y-93.8
X71.403Y-92.137
X72.456Y-95.603
X72.482Y-18.252
X72.5Y-20.0
X72.5Y-25.0
X73.042Y-43.999
X73.344Y-30.245
X73.445Y-34.646
X74.305Y-38.086
X74.55Y-78.4
X74.784Y-18.252
X74.994Y-95.666
X75.0Y-22.5
X76.311Y-47.302
X77.5Y-95.603
X77.5Y-20.0
X77.5Y-25.0
X77.502Y-18.25
X78.064Y-91.837
X78.504Y-30.295
X78.657Y-94.259
X78.706Y-34.899
X78.706Y-37.883
X79.07Y-75.776
X79.897Y-18.262
X79.974Y-95.634
X80.0Y-22.5
X80.0Y-92.5
X80.15Y-78.4
X80.336Y-74.632
X81.55Y-80.15
X81.82Y-93.863
X82.413Y-91.936
X82.483Y-18.264
X82.5Y-20.0
X82.5Y-25.0
X82.544Y-95.698
X83.512Y-30.447
X83.562Y-38.086
X83.613Y-34.899
X84.961Y-18.264
X84.986Y-95.666
X85.0Y-22.5
X85.032Y-91.59
X85.971Y-93.715
X87.439Y-18.264
X87.493Y-95.666
X87.5Y-20.0
X87.5Y-25.0
X87.5Y-92.5
X87.637Y-38.01
X87.776Y-30.23
X87.776Y-34.954
X88.0Y-44.0
X88.0Y-47.0
X88.0Y-50.0
X88.0Y-53.0
X88.0Y-56.0
X88.0Y-59.0
X88.0Y-62.0
X89.953Y-18.237
X90.0Y-22.5
X90.03Y-95.634
X90.045Y-32.638
X90.402Y-47.056
X91.0Y-45.0
X91.11Y-37.593
X91.319Y-94.631
X92.495Y-18.237
X92.5Y-20.0
X92.536Y-95.698
X93.055Y-31.249
X93.359Y-24.963
X93.934Y-94.631
X94.074Y-34.907
X94.074Y-38.149
X94.313Y-27.926
X94.51Y-18.26
X95.009Y-95.626
X95.856Y-22.533
X96.358Y-29.97
X96.695Y-94.002
X96.899Y-33.488
X97.229Y-36.524
X97.486Y-18.306
X97.5Y-20.0
X97.5Y-27.5
X97.5Y-82.5
X97.5Y-85.0
X97.5Y-87.5
X97.5Y-91.87
X97.513Y-95.659
X97.63Y-39.018
X99.408Y-93.555
X99.951Y-95.593
X99.959Y-18.168
X99.989Y-80.488
X100.0Y-30.0
X100.747Y-82.677
X101.5Y-39.87
X101.564Y-63.875
X101.569Y-58.761
X101.884Y-93.393
X102.477Y-18.214
X102.521Y-95.56
X103.312Y-84.95
X103.312Y-89.926
X103.312Y-92.496
X103.35Y-79.949
X103.35Y-82.5
X103.37Y-22.473
X103.378Y-87.454
X103.387Y-77.434
X103.447Y-24.996
X103.458Y-67.457
X103.462Y-19.977
X103.496Y-27.473
X103.496Y-29.95
X103.515Y-74.959
X103.568Y-32.427
X103.899Y-65.024
X103.903Y-59.982
X103.914Y-37.477
X103.914Y-42.475
X103.916Y-72.612
X103.927Y-57.47
X103.935Y-62.478
X103.936Y-52.489
X103.936Y-54.956
X103.939Y-34.978
X103.939Y-40.001
X103.939Y-44.974
X103.939Y-47.473
X103.944Y-69.995
X103.962Y-49.997
T2
X45.775Y-63.15
X45.775Y-64.35
X46.975Y-63.15
X46.975Y-64.35
X48.275Y-63.15
X48.275Y-64.35
X49.375Y-63.15
X49.375Y-64.35
T3
X67.677Y-45.31
X67.677Y-47.85
X67.677Y-50.39
X67.677Y-52.93
X67.677Y-55.47
X67.677Y-58.01
X67.677Y-60.55
X67.677Y-63.09
X67.677Y-65.63
X67.677Y-68.17
X67.677Y-70.71
X67.677Y-73.25
X67.677Y-75.79
X67.677Y-78.33
X67.677Y-80.87
X67.677Y-83.41
X67.677Y-85.95
X67.677Y-88.49
X67.677Y-91.03
X93.078Y-45.31
X93.078Y-47.85
X93.078Y-50.39
X93.078Y-52.93
X93.078Y-55.47
X93.078Y-58.01
X93.078Y-60.55
X93.078Y-63.09
X93.078Y-65.63
X93.078Y-68.17
X93.078Y-70.71
X93.078Y-73.25
X93.078Y-75.79
X93.078Y-78.33
X93.078Y-80.87
X93.078Y-83.41
X93.078Y-85.95
X93.078Y-88.49
X93.078Y-91.03
T4
X99.4Y-37.315
X99.4Y-39.815
X99.4Y-42.315
X99.4Y-44.815
X99.4Y-68.075
X99.4Y-70.575
X99.4Y-73.075
X99.4Y-75.575
T5
X99.4Y-50.175
X99.4Y-52.715
X99.4Y-55.255
X99.4Y-57.795
X99.4Y-60.335
X99.4Y-62.875
T6
X27.3Y-33.925
X27.3Y-38.925
X27.3Y-43.925
X27.3Y-50.275
X27.3Y-55.275
X27.3Y-60.275
X27.3Y-65.275
T7
X35.41Y-27.275
X40.49Y-27.275
X45.57Y-27.275
X50.65Y-27.275
X55.73Y-27.275
X60.81Y-27.275
X65.89Y-27.275
X70.97Y-27.275
X76.05Y-27.275
X81.13Y-27.275
X86.21Y-27.275
X91.29Y-27.275
T5
G00X29.0Y-74.167
M15
G01X29.0Y-76.167
M16
G05
G00X31.0Y-79.867
M15
G01X33.0Y-79.867
M16
G05
G00X35.0Y-74.167
M15
G01X35.0Y-76.167
M16
G05
M30
