%TF.GenerationSoftware,KiCad,Pcbnew,9.0.6*%
%TF.CreationDate,2026-03-14T06:17:06-04:00*%
%TF.ProjectId,FigCNC,46696743-4e43-42e6-9b69-6361645f7063,rev?*%
%TF.SameCoordinates,Original*%
%TF.FileFunction,Soldermask,Top*%
%TF.FilePolarity,Negative*%
%FSLAX46Y46*%
G04 Gerber Fmt 4.6, Leading zero omitted, Abs format (unit mm)*
G04 Created by KiCad (PCBNEW 9.0.6) date 2026-03-14 06:17:06*
%MOMM*%
%LPD*%
G01*
G04 APERTURE LIST*
G04 Aperture macros list*
%AMRoundRect*
0 Rectangle with rounded corners*
0 $1 Rounding radius*
0 $2 $3 $4 $5 $6 $7 $8 $9 X,Y pos of 4 corners*
0 Add a 4 corners polygon primitive as box body*
4,1,4,$2,$3,$4,$5,$6,$7,$8,$9,$2,$3,0*
0 Add four circle primitives for the rounded corners*
1,1,$1+$1,$2,$3*
1,1,$1+$1,$4,$5*
1,1,$1+$1,$6,$7*
1,1,$1+$1,$8,$9*
0 Add four rect primitives between the rounded corners*
20,1,$1+$1,$2,$3,$4,$5,0*
20,1,$1+$1,$4,$5,$6,$7,0*
20,1,$1+$1,$6,$7,$8,$9,0*
20,1,$1+$1,$8,$9,$2,$3,0*%
G04 Aperture macros list end*
%ADD10C,3.200000*%
%ADD11RoundRect,0.250000X-0.550000X0.650000X-0.550000X-0.650000X0.550000X-0.650000X0.550000X0.650000X0*%
%ADD12C,1.800000*%
%ADD13RoundRect,0.250000X0.625000X-0.400000X0.625000X0.400000X-0.625000X0.400000X-0.625000X-0.400000X0*%
%ADD14R,0.600000X1.550000*%
%ADD15R,3.100000X2.600000*%
%ADD16RoundRect,0.250000X0.650000X-0.412500X0.650000X0.412500X-0.650000X0.412500X-0.650000X-0.412500X0*%
%ADD17RoundRect,0.250000X0.412500X0.650000X-0.412500X0.650000X-0.412500X-0.650000X0.412500X-0.650000X0*%
%ADD18R,1.500000X2.200000*%
%ADD19RoundRect,0.250000X-0.412500X-0.650000X0.412500X-0.650000X0.412500X0.650000X-0.412500X0.650000X0*%
%ADD20RoundRect,0.250000X-0.400000X-0.625000X0.400000X-0.625000X0.400000X0.625000X-0.400000X0.625000X0*%
%ADD21RoundRect,0.438500X-0.438500X0.828500X-0.438500X-0.828500X0.438500X-0.828500X0.438500X0.828500X0*%
%ADD22R,1.800000X1.800000*%
%ADD23C,2.000000*%
%ADD24RoundRect,0.250000X-1.050000X1.050000X-1.050000X-1.050000X1.050000X-1.050000X1.050000X1.050000X0*%
%ADD25C,2.600000*%
%ADD26R,3.500000X3.500000*%
%ADD27RoundRect,0.750000X-0.750000X-1.000000X0.750000X-1.000000X0.750000X1.000000X-0.750000X1.000000X0*%
%ADD28RoundRect,0.875000X-0.875000X-0.875000X0.875000X-0.875000X0.875000X0.875000X-0.875000X0.875000X0*%
%ADD29RoundRect,0.102000X-0.900000X-0.900000X0.900000X-0.900000X0.900000X0.900000X-0.900000X0.900000X0*%
%ADD30C,2.004000*%
%ADD31RoundRect,0.150000X0.825000X0.150000X-0.825000X0.150000X-0.825000X-0.150000X0.825000X-0.150000X0*%
%ADD32RoundRect,0.250000X-0.725000X0.600000X-0.725000X-0.600000X0.725000X-0.600000X0.725000X0.600000X0*%
%ADD33O,1.950000X1.700000*%
%ADD34RoundRect,0.250000X0.550000X-1.412500X0.550000X1.412500X-0.550000X1.412500X-0.550000X-1.412500X0*%
%ADD35RoundRect,0.249999X0.790001X1.550001X-0.790001X1.550001X-0.790001X-1.550001X0.790001X-1.550001X0*%
%ADD36O,2.080000X3.600000*%
%ADD37C,0.900000*%
%ADD38C,0.600000*%
G04 APERTURE END LIST*
D10*
%TO.C,REF\u002A\u002A*%
X144650000Y-60350000D03*
%TD*%
D11*
%TO.C,U4*%
X91575000Y-72145000D03*
D12*
X89035000Y-72145000D03*
X89035000Y-79765000D03*
X91575000Y-79765000D03*
%TD*%
D13*
%TO.C,R2*%
X97275000Y-103050000D03*
X97275000Y-99950000D03*
%TD*%
D14*
%TO.C,U2*%
X90120000Y-101975000D03*
X91390000Y-101975000D03*
X92660000Y-101975000D03*
X93930000Y-101975000D03*
X93930000Y-96575000D03*
X92660000Y-96575000D03*
X91390000Y-96575000D03*
X90120000Y-96575000D03*
D15*
X92025000Y-99275000D03*
%TD*%
D11*
%TO.C,U6*%
X104175000Y-72145000D03*
D12*
X101635000Y-72145000D03*
X101635000Y-79765000D03*
X104175000Y-79765000D03*
%TD*%
D16*
%TO.C,C6*%
X79450000Y-91162500D03*
X79450000Y-88037500D03*
%TD*%
D17*
%TO.C,C3*%
X93962500Y-91000000D03*
X90837500Y-91000000D03*
%TD*%
D18*
%TO.C,L1*%
X84075000Y-112125000D03*
X90475000Y-112125000D03*
%TD*%
D19*
%TO.C,C1*%
X130037500Y-108150000D03*
X133162500Y-108150000D03*
%TD*%
D20*
%TO.C,R6*%
X71600000Y-65100000D03*
X74700000Y-65100000D03*
%TD*%
D10*
%TO.C,REF\u002A\u002A*%
X71150000Y-123100000D03*
%TD*%
D13*
%TO.C,R1*%
X97300000Y-108650000D03*
X97300000Y-105550000D03*
%TD*%
D21*
%TO.C,D2*%
X87150000Y-100485000D03*
X87150000Y-96215000D03*
%TD*%
D13*
%TO.C,R3*%
X78227183Y-78894143D03*
X78227183Y-75794143D03*
%TD*%
D11*
%TO.C,U5*%
X97875000Y-72100000D03*
D12*
X95335000Y-72100000D03*
X95335000Y-79720000D03*
X97875000Y-79720000D03*
%TD*%
D22*
%TO.C,GND1*%
X143850000Y-98400000D03*
D23*
X143850000Y-95860000D03*
X143850000Y-93320000D03*
X143850000Y-90780000D03*
X143850000Y-88240000D03*
X143850000Y-85700000D03*
%TD*%
D24*
%TO.C,J2*%
X71750000Y-69450000D03*
D25*
X71750000Y-74450000D03*
X71750000Y-79450000D03*
%TD*%
D19*
%TO.C,C4*%
X84537500Y-104650000D03*
X87662500Y-104650000D03*
%TD*%
D26*
%TO.C,12-36V*%
X79450000Y-110692500D03*
D27*
X73450000Y-110692500D03*
D28*
X76450000Y-115392500D03*
%TD*%
D10*
%TO.C,REF\u002A\u002A*%
X71150000Y-60350000D03*
%TD*%
D24*
%TO.C,J1*%
X71750000Y-85800000D03*
D25*
X71750000Y-90800000D03*
X71750000Y-95800000D03*
X71750000Y-100800000D03*
%TD*%
D29*
%TO.C,U1*%
X112127500Y-80835000D03*
D30*
X112127500Y-83375000D03*
X112127500Y-85915000D03*
X112127500Y-88455000D03*
X112127500Y-90995000D03*
X112127500Y-93535000D03*
X112127500Y-96075000D03*
X112127500Y-98615000D03*
X112127500Y-101155000D03*
X112127500Y-103695000D03*
X112127500Y-106235000D03*
X112127500Y-108775000D03*
X112127500Y-111315000D03*
X112127500Y-113855000D03*
X112127500Y-116395000D03*
X112127500Y-118935000D03*
X112127500Y-121475000D03*
X112127500Y-124015000D03*
X112127500Y-126555000D03*
X137527500Y-80835000D03*
X137527500Y-83375000D03*
X137527500Y-85915000D03*
X137527500Y-88455000D03*
X137527500Y-90995000D03*
X137527500Y-93535000D03*
X137527500Y-96075000D03*
X137527500Y-98615000D03*
X137527500Y-101155000D03*
X137527500Y-103695000D03*
X137527500Y-106235000D03*
X137527500Y-108775000D03*
X137527500Y-111315000D03*
X137527500Y-113855000D03*
X137527500Y-116395000D03*
X137527500Y-118935000D03*
X137527500Y-121475000D03*
X137527500Y-124015000D03*
X137527500Y-126555000D03*
%TD*%
D13*
%TO.C,R5*%
X78050000Y-72250000D03*
X78050000Y-69150000D03*
%TD*%
D31*
%TO.C,U8*%
X87175000Y-87655000D03*
X87175000Y-86385000D03*
X87175000Y-85115000D03*
X87175000Y-83845000D03*
X82225000Y-83845000D03*
X82225000Y-85115000D03*
X82225000Y-86385000D03*
X82225000Y-87655000D03*
%TD*%
D32*
%TO.C,J5*%
X143850000Y-103600000D03*
D33*
X143850000Y-106100000D03*
X143850000Y-108600000D03*
X143850000Y-111100000D03*
%TD*%
D22*
%TO.C,J4*%
X143850000Y-72840000D03*
D23*
X143850000Y-75380000D03*
X143850000Y-77920000D03*
X143850000Y-80460000D03*
%TD*%
D11*
%TO.C,U3*%
X85275000Y-72145000D03*
D12*
X82735000Y-72145000D03*
X82735000Y-79765000D03*
X85275000Y-79765000D03*
%TD*%
D10*
%TO.C,REF\u002A\u002A*%
X144550000Y-123200000D03*
%TD*%
D34*
%TO.C,C5*%
X103250000Y-111737500D03*
X103250000Y-106662500D03*
%TD*%
D35*
%TO.C,J8*%
X135740000Y-62800000D03*
D36*
X130660000Y-62800000D03*
X125580000Y-62800000D03*
X120500000Y-62800000D03*
X115420000Y-62800000D03*
X110340000Y-62800000D03*
X105260000Y-62800000D03*
X100180000Y-62800000D03*
X95100000Y-62800000D03*
X90020000Y-62800000D03*
X84940000Y-62800000D03*
X79860000Y-62800000D03*
%TD*%
D17*
%TO.C,C2*%
X93962500Y-93450000D03*
X90837500Y-93450000D03*
%TD*%
D11*
%TO.C,U7*%
X99500000Y-119970000D03*
D12*
X96960000Y-119970000D03*
X96960000Y-127590000D03*
X99500000Y-127590000D03*
%TD*%
D37*
%TO.C,J6*%
X120850000Y-128462500D03*
X128850000Y-128462500D03*
%TD*%
D38*
X108150000Y-128800000D03*
X131950000Y-114100000D03*
X77700000Y-85050000D03*
X107450000Y-78750000D03*
X128450000Y-110250000D03*
X75250000Y-69650000D03*
M02*
