G04 #@! TF.GenerationSoftware,KiCad,Pcbnew,9.0.6*
G04 #@! TF.CreationDate,2026-03-19T13:41:58-04:00*
G04 #@! TF.ProjectId,FigCNC-Pro,46696743-4e43-42d5-9072-6f2e6b696361,rev?*
G04 #@! TF.SameCoordinates,Original*
G04 #@! TF.FileFunction,Copper,L2,Bot*
G04 #@! TF.FilePolarity,Positive*
%FSLAX46Y46*%
G04 Gerber Fmt 4.6, Leading zero omitted, Abs format (unit mm)*
G04 Created by KiCad (PCBNEW 9.0.6) date 2026-03-19 13:41:58*
%MOMM*%
%LPD*%
G01*
G04 APERTURE LIST*
G04 Aperture macros list*
%AMRoundRect*
0 Rectangle with rounded corners*
0 $1 Rounding radius*
0 $2 $3 $4 $5 $6 $7 $8 $9 X,Y pos of 4 corners*
0 Add a 4 corners polygon primitive as box body*
4,1,4,$2,$3,$4,$5,$6,$7,$8,$9,$2,$3,0*
0 Add four circle primitives for the rounded corners*
1,1,$1+$1,$2,$3*
1,1,$1+$1,$4,$5*
1,1,$1+$1,$6,$7*
1,1,$1+$1,$8,$9*
0 Add four rect primitives between the rounded corners*
20,1,$1+$1,$2,$3,$4,$5,0*
20,1,$1+$1,$4,$5,$6,$7,0*
20,1,$1+$1,$6,$7,$8,$9,0*
20,1,$1+$1,$8,$9,$2,$3,0*%
G04 Aperture macros list end*
G04 #@! TA.AperFunction,ComponentPad*
%ADD10C,0.600000*%
G04 #@! TD*
G04 #@! TA.AperFunction,SMDPad,CuDef*
%ADD11R,4.500000X2.950000*%
G04 #@! TD*
G04 #@! TA.AperFunction,ComponentPad*
%ADD12R,1.700000X1.700000*%
G04 #@! TD*
G04 #@! TA.AperFunction,ComponentPad*
%ADD13C,1.700000*%
G04 #@! TD*
G04 #@! TA.AperFunction,ComponentPad*
%ADD14RoundRect,0.250000X-1.050000X1.050000X-1.050000X-1.050000X1.050000X-1.050000X1.050000X1.050000X0*%
G04 #@! TD*
G04 #@! TA.AperFunction,ComponentPad*
%ADD15C,2.600000*%
G04 #@! TD*
G04 #@! TA.AperFunction,ComponentPad*
%ADD16R,3.500000X3.500000*%
G04 #@! TD*
G04 #@! TA.AperFunction,ComponentPad*
%ADD17RoundRect,0.750000X-0.750000X-1.000000X0.750000X-1.000000X0.750000X1.000000X-0.750000X1.000000X0*%
G04 #@! TD*
G04 #@! TA.AperFunction,ComponentPad*
%ADD18RoundRect,0.875000X-0.875000X-0.875000X0.875000X-0.875000X0.875000X0.875000X-0.875000X0.875000X0*%
G04 #@! TD*
G04 #@! TA.AperFunction,ComponentPad*
%ADD19R,1.800000X1.800000*%
G04 #@! TD*
G04 #@! TA.AperFunction,ComponentPad*
%ADD20C,1.800000*%
G04 #@! TD*
G04 #@! TA.AperFunction,ComponentPad*
%ADD21RoundRect,0.250000X-0.725000X0.600000X-0.725000X-0.600000X0.725000X-0.600000X0.725000X0.600000X0*%
G04 #@! TD*
G04 #@! TA.AperFunction,ComponentPad*
%ADD22O,1.950000X1.700000*%
G04 #@! TD*
G04 #@! TA.AperFunction,ComponentPad*
%ADD23RoundRect,0.249999X0.790001X1.550001X-0.790001X1.550001X-0.790001X-1.550001X0.790001X-1.550001X0*%
G04 #@! TD*
G04 #@! TA.AperFunction,ComponentPad*
%ADD24O,2.080000X3.600000*%
G04 #@! TD*
G04 #@! TA.AperFunction,ViaPad*
%ADD25C,0.600000*%
G04 #@! TD*
G04 #@! TA.AperFunction,Conductor*
%ADD26C,0.700000*%
G04 #@! TD*
G04 #@! TA.AperFunction,Conductor*
%ADD27C,0.400000*%
G04 #@! TD*
G04 APERTURE END LIST*
D10*
G04 #@! TO.P,U2,9,GNDPAD*
G04 #@! TO.N,GND*
X45775000Y-64350000D03*
X46975000Y-64350000D03*
X48275000Y-64350000D03*
X49375000Y-64350000D03*
D11*
X47575000Y-63750000D03*
D10*
X45775000Y-63150000D03*
X46975000Y-63150000D03*
X48275000Y-63150000D03*
X49375000Y-63150000D03*
G04 #@! TD*
D12*
G04 #@! TO.P,J6,1,Pin_1*
G04 #@! TO.N,GND*
X99400000Y-62875000D03*
D13*
G04 #@! TO.P,J6,2,Pin_2*
G04 #@! TO.N,unconnected-(J6-Pin_2-Pad2)*
X99400000Y-60335000D03*
G04 #@! TO.P,J6,3,Pin_3*
G04 #@! TO.N,unconnected-(J6-Pin_3-Pad3)*
X99400000Y-57795000D03*
G04 #@! TO.P,J6,4,Pin_4*
G04 #@! TO.N,/RX*
X99400000Y-55255000D03*
G04 #@! TO.P,J6,5,Pin_5*
G04 #@! TO.N,/TX*
X99400000Y-52715000D03*
G04 #@! TO.P,J6,6,Pin_6*
G04 #@! TO.N,unconnected-(J6-Pin_6-Pad6)*
X99400000Y-50175000D03*
G04 #@! TD*
D14*
G04 #@! TO.P,J3,1,Pin_1*
G04 #@! TO.N,Net-(J3-Pin_1)*
X27300000Y-33925000D03*
D15*
G04 #@! TO.P,J3,2,Pin_2*
G04 #@! TO.N,Net-(J3-Pin_2)*
X27300000Y-38925000D03*
G04 #@! TO.P,J3,3,Pin_3*
G04 #@! TO.N,GND*
X27300000Y-43925000D03*
G04 #@! TD*
D16*
G04 #@! TO.P,J1,1*
G04 #@! TO.N,/VIN*
X35000000Y-75167500D03*
D17*
G04 #@! TO.P,J1,2*
G04 #@! TO.N,GND*
X29000000Y-75167500D03*
D18*
G04 #@! TO.P,J1,3*
G04 #@! TO.N,N/C*
X32000000Y-79867500D03*
G04 #@! TD*
D14*
G04 #@! TO.P,J2,1,Pin_1*
G04 #@! TO.N,/Z-PROBE-IN*
X27300000Y-50275000D03*
D15*
G04 #@! TO.P,J2,2,Pin_2*
G04 #@! TO.N,VCC*
X27300000Y-55275000D03*
G04 #@! TO.P,J2,3,Pin_3*
G04 #@! TO.N,GND*
X27300000Y-60275000D03*
G04 #@! TO.P,J2,4,Pin_4*
G04 #@! TO.N,/VIN*
X27300000Y-65275000D03*
G04 #@! TD*
D19*
G04 #@! TO.P,U1,J2_1,3V3*
G04 #@! TO.N,VCC*
X67677500Y-45310000D03*
D20*
G04 #@! TO.P,U1,J2_2,EN*
G04 #@! TO.N,unconnected-(U1-EN-PadJ2_2)*
X67677500Y-47850000D03*
G04 #@! TO.P,U1,J2_3,SENSOR_VP*
G04 #@! TO.N,/Z-PROBE*
X67677500Y-50390000D03*
G04 #@! TO.P,U1,J2_4,SENSOR_VN*
G04 #@! TO.N,/Z-LIMIT*
X67677500Y-52930000D03*
G04 #@! TO.P,U1,J2_5,IO34*
G04 #@! TO.N,/Y2-LIMIT*
X67677500Y-55470000D03*
G04 #@! TO.P,U1,J2_6,IO35*
G04 #@! TO.N,/Y1-LIMIT*
X67677500Y-58010000D03*
G04 #@! TO.P,U1,J2_7,IO32*
G04 #@! TO.N,/X-LIMIT*
X67677500Y-60550000D03*
G04 #@! TO.P,U1,J2_8,IO33*
G04 #@! TO.N,/Z-DIR*
X67677500Y-63090000D03*
G04 #@! TO.P,U1,J2_9,IO25*
G04 #@! TO.N,/Z-STEP*
X67677500Y-65630000D03*
G04 #@! TO.P,U1,J2_10,IO26*
G04 #@! TO.N,/Y2-STEP*
X67677500Y-68170000D03*
G04 #@! TO.P,U1,J2_11,IO27*
G04 #@! TO.N,/Y-DIR*
X67677500Y-70710000D03*
G04 #@! TO.P,U1,J2_12,IO14*
G04 #@! TO.N,/Y1-STEP*
X67677500Y-73250000D03*
G04 #@! TO.P,U1,J2_13,IO12*
G04 #@! TO.N,unconnected-(U1-IO12-PadJ2_13)*
X67677500Y-75790000D03*
G04 #@! TO.P,U1,J2_14,GND_J2_14*
G04 #@! TO.N,GND*
X67677500Y-78330000D03*
G04 #@! TO.P,U1,J2_15,IO13*
G04 #@! TO.N,/X-DIR*
X67677500Y-80870000D03*
G04 #@! TO.P,U1,J2_16,SD2*
G04 #@! TO.N,unconnected-(U1-SD2-PadJ2_16)*
X67677500Y-83410000D03*
G04 #@! TO.P,U1,J2_17,SD3*
G04 #@! TO.N,unconnected-(U1-SD3-PadJ2_17)*
X67677500Y-85950000D03*
G04 #@! TO.P,U1,J2_18,CMD*
G04 #@! TO.N,unconnected-(U1-CMD-PadJ2_18)*
X67677500Y-88490000D03*
G04 #@! TO.P,U1,J2_19,EXT_5V*
G04 #@! TO.N,/5V*
X67677500Y-91030000D03*
G04 #@! TO.P,U1,J3_1,GND_J3_1*
G04 #@! TO.N,GND*
X93077500Y-45310000D03*
G04 #@! TO.P,U1,J3_2,IO23*
G04 #@! TO.N,/MOSI*
X93077500Y-47850000D03*
G04 #@! TO.P,U1,J3_3,IO22*
G04 #@! TO.N,/X-STEP*
X93077500Y-50390000D03*
G04 #@! TO.P,U1,J3_4,TXD0*
G04 #@! TO.N,/TX*
X93077500Y-52930000D03*
G04 #@! TO.P,U1,J3_5,RXD0*
G04 #@! TO.N,/RX*
X93077500Y-55470000D03*
G04 #@! TO.P,U1,J3_6,IO21*
G04 #@! TO.N,/RS485-DIR*
X93077500Y-58010000D03*
G04 #@! TO.P,U1,J3_7,GND_J3_7*
G04 #@! TO.N,unconnected-(U1-GND_J3_7-PadJ3_7)*
X93077500Y-60550000D03*
G04 #@! TO.P,U1,J3_8,IO19*
G04 #@! TO.N,/MISO*
X93077500Y-63090000D03*
G04 #@! TO.P,U1,J3_9,IO18*
G04 #@! TO.N,/SCK*
X93077500Y-65630000D03*
G04 #@! TO.P,U1,J3_10,IO5*
G04 #@! TO.N,/CS_SD*
X93077500Y-68170000D03*
G04 #@! TO.P,U1,J3_11,IO17*
G04 #@! TO.N,/PENDANT-TX*
X93077500Y-70710000D03*
G04 #@! TO.P,U1,J3_12,IO16*
G04 #@! TO.N,/PENDANT-RX*
X93077500Y-73250000D03*
G04 #@! TO.P,U1,J3_13,IO4*
G04 #@! TO.N,/RS485-RX*
X93077500Y-75790000D03*
G04 #@! TO.P,U1,J3_14,IO0*
G04 #@! TO.N,unconnected-(U1-IO0-PadJ3_14)*
X93077500Y-78330000D03*
G04 #@! TO.P,U1,J3_15,IO2*
G04 #@! TO.N,unconnected-(U1-IO2-PadJ3_15)*
X93077500Y-80870000D03*
G04 #@! TO.P,U1,J3_16,IO15*
G04 #@! TO.N,/RS485-TX*
X93077500Y-83410000D03*
G04 #@! TO.P,U1,J3_17,SD1*
G04 #@! TO.N,unconnected-(U1-SD1-PadJ3_17)*
X93077500Y-85950000D03*
G04 #@! TO.P,U1,J3_18,SD0*
G04 #@! TO.N,unconnected-(U1-SD0-PadJ3_18)*
X93077500Y-88490000D03*
G04 #@! TO.P,U1,J3_19,CLK*
G04 #@! TO.N,unconnected-(U1-CLK-PadJ3_19)*
X93077500Y-91030000D03*
G04 #@! TD*
D21*
G04 #@! TO.P,J7,1,Pin_1*
G04 #@! TO.N,/5V*
X99400000Y-68075000D03*
D22*
G04 #@! TO.P,J7,2,Pin_2*
G04 #@! TO.N,GND*
X99400000Y-70575000D03*
G04 #@! TO.P,J7,3,Pin_3*
G04 #@! TO.N,/PENDANT-TX*
X99400000Y-73075000D03*
G04 #@! TO.P,J7,4,Pin_4*
G04 #@! TO.N,/PENDANT-RX*
X99400000Y-75575000D03*
G04 #@! TD*
D21*
G04 #@! TO.P,J5,1,Pin_1*
G04 #@! TO.N,/5V*
X99400000Y-37315000D03*
D22*
G04 #@! TO.P,J5,2,Pin_2*
G04 #@! TO.N,GND*
X99400000Y-39815000D03*
G04 #@! TO.P,J5,3,Pin_3*
G04 #@! TO.N,/TX*
X99400000Y-42315000D03*
G04 #@! TO.P,J5,4,Pin_4*
G04 #@! TO.N,/RX*
X99400000Y-44815000D03*
G04 #@! TD*
D23*
G04 #@! TO.P,J4,1,Pin_1*
G04 #@! TO.N,/X-STEP*
X91290000Y-27275000D03*
D24*
G04 #@! TO.P,J4,2,Pin_2*
G04 #@! TO.N,/X-DIR*
X86210000Y-27275000D03*
G04 #@! TO.P,J4,3,Pin_3*
G04 #@! TO.N,/Y1-STEP*
X81130000Y-27275000D03*
G04 #@! TO.P,J4,4,Pin_4*
G04 #@! TO.N,/Y-DIR*
X76050000Y-27275000D03*
G04 #@! TO.P,J4,5,Pin_5*
G04 #@! TO.N,/Y2-STEP*
X70970000Y-27275000D03*
G04 #@! TO.P,J4,6,Pin_6*
G04 #@! TO.N,/Y-DIR*
X65890000Y-27275000D03*
G04 #@! TO.P,J4,7,Pin_7*
G04 #@! TO.N,/Z-STEP*
X60810000Y-27275000D03*
G04 #@! TO.P,J4,8,Pin_8*
G04 #@! TO.N,/Z-DIR*
X55730000Y-27275000D03*
G04 #@! TO.P,J4,9,Pin_9*
G04 #@! TO.N,/Z-LIMIT-INPUT*
X50650000Y-27275000D03*
G04 #@! TO.P,J4,10,Pin_10*
G04 #@! TO.N,/Y2-LIMIT-INPUT*
X45570000Y-27275000D03*
G04 #@! TO.P,J4,11,Pin_11*
G04 #@! TO.N,/Y1-LIMIT-INPUT*
X40490000Y-27275000D03*
G04 #@! TO.P,J4,12,Pin_12*
G04 #@! TO.N,/X-LIMIT-INPUT*
X35410000Y-27275000D03*
G04 #@! TD*
D25*
G04 #@! TO.N,/Z-PROBE*
X61600000Y-84000000D03*
G04 #@! TO.N,/5V*
X40250000Y-39200000D03*
G04 #@! TO.N,GND*
X100000000Y-30000000D03*
X23413615Y-50030046D03*
X103495631Y-27473272D03*
X99407719Y-93555334D03*
X50000000Y-22500000D03*
X95008532Y-95626066D03*
X100747182Y-82677271D03*
X46122757Y-73028119D03*
X30439859Y-55373583D03*
X103350419Y-82499999D03*
X73343918Y-30244907D03*
X83612893Y-34898827D03*
X65010823Y-95687556D03*
X83562307Y-38085751D03*
X88000000Y-59000000D03*
X53318585Y-89944706D03*
X23529568Y-82526735D03*
X97512798Y-95659017D03*
X51758436Y-30584026D03*
X80335739Y-74632484D03*
X57500000Y-20000000D03*
X23016842Y-32428437D03*
X90045023Y-32638282D03*
X32939781Y-54164830D03*
X37163431Y-82217877D03*
X31291573Y-30339195D03*
X94073836Y-34907383D03*
X102477104Y-18214167D03*
X37578023Y-95644993D03*
X57451161Y-18256248D03*
X23002440Y-37527913D03*
X39532220Y-46566870D03*
X28348178Y-71992935D03*
X24969281Y-18253838D03*
X40095274Y-18241411D03*
X103915716Y-72611767D03*
X50863098Y-70076408D03*
X37545655Y-85296514D03*
X54494358Y-30235897D03*
X87439095Y-18264140D03*
X69371584Y-92269001D03*
X40030437Y-85249631D03*
X68822485Y-94209278D03*
X54872531Y-82028941D03*
X103938808Y-34977808D03*
X49541437Y-30475880D03*
X42226919Y-77500000D03*
X39643872Y-48351103D03*
X60208507Y-80089360D03*
X90030299Y-95634445D03*
X27372116Y-79623711D03*
X28794615Y-45794615D03*
X59565857Y-18242244D03*
X23358960Y-77482725D03*
X28497300Y-85624693D03*
X29183949Y-58637892D03*
X103938808Y-44973740D03*
X80000000Y-92500000D03*
X63985492Y-30143735D03*
X37000000Y-46500000D03*
X27000000Y-68000000D03*
X78706043Y-37883406D03*
X88000000Y-62000000D03*
X23400066Y-20007667D03*
X39411735Y-30457855D03*
X23381538Y-52467922D03*
X23415450Y-22438411D03*
X56552107Y-37366711D03*
X57000000Y-90000000D03*
X79069851Y-75775866D03*
X93055056Y-31249036D03*
X97629616Y-39018370D03*
X42261054Y-75299077D03*
X23366415Y-67445785D03*
X42515218Y-88718949D03*
X62109770Y-63309165D03*
X42500000Y-20000000D03*
X26997055Y-84030682D03*
X47500000Y-20000000D03*
X39996748Y-95644993D03*
X103938808Y-40001017D03*
X57675731Y-55260825D03*
X61511563Y-93726196D03*
X51233572Y-64444871D03*
X103370020Y-22472690D03*
X52486323Y-18211165D03*
X102521330Y-95560164D03*
X53934194Y-58234382D03*
X31652905Y-75170557D03*
X30632161Y-57598788D03*
X54496188Y-18270253D03*
X32498699Y-95564369D03*
X81819975Y-93863337D03*
X32500000Y-25000000D03*
X67488798Y-18250497D03*
X23542935Y-85053204D03*
X62571341Y-92445630D03*
X72481826Y-18251958D03*
X87775922Y-34953691D03*
X92500000Y-20000000D03*
X103568483Y-32427148D03*
X103458112Y-67456938D03*
X72456157Y-95602723D03*
X94313092Y-27925503D03*
X91110112Y-37593258D03*
X23674218Y-30506525D03*
X39000000Y-54000000D03*
X83511721Y-30447252D03*
X42490605Y-18222401D03*
X29984615Y-18330760D03*
X56098192Y-58275153D03*
X49395289Y-69496111D03*
X50351072Y-74036079D03*
X42495393Y-95677475D03*
X23542935Y-80387925D03*
X23016397Y-40012202D03*
X43247430Y-36974715D03*
X40181575Y-40458964D03*
X101883696Y-93392975D03*
X48780857Y-72943756D03*
X55000000Y-22500000D03*
X23345016Y-69957749D03*
X23663806Y-24921400D03*
X82500000Y-25000000D03*
X103938808Y-47472723D03*
X67500000Y-20000000D03*
X70000000Y-22500000D03*
X97500000Y-82500000D03*
X51000000Y-60000000D03*
X54773954Y-69724332D03*
X41486912Y-34809544D03*
X31122729Y-83561855D03*
X85971264Y-93715077D03*
X97500000Y-20000000D03*
X94073836Y-38148956D03*
X58730561Y-45557964D03*
X103913566Y-37476791D03*
X103378053Y-87454250D03*
X62650000Y-38150000D03*
X84960801Y-18264140D03*
X56544725Y-79880852D03*
X30044428Y-87359351D03*
X26065879Y-75193796D03*
X71236127Y-93799726D03*
X76311111Y-47301851D03*
X67513529Y-95632552D03*
X63234224Y-67960012D03*
X39013469Y-91740935D03*
X64978004Y-35952465D03*
X45183204Y-18265870D03*
X68386481Y-30244907D03*
X35013991Y-85296514D03*
X46967184Y-83628489D03*
X70000000Y-75000000D03*
X56288035Y-63589893D03*
X88000000Y-56000000D03*
X88000000Y-50000000D03*
X54693633Y-59989759D03*
X37545655Y-88718949D03*
X29023028Y-62070876D03*
X30890276Y-72077672D03*
X49368137Y-18238517D03*
X68942928Y-35252930D03*
X97500000Y-27500000D03*
X42297023Y-70810370D03*
X103935549Y-52489296D03*
X103927253Y-57470406D03*
X85000000Y-22500000D03*
X103312151Y-89925566D03*
X51067909Y-72738945D03*
X77499999Y-95602723D03*
X47500000Y-92500000D03*
X70016235Y-95577547D03*
X37509837Y-18222401D03*
X48686734Y-81162929D03*
X59213258Y-34605928D03*
X45000000Y-95636416D03*
X32523235Y-32161333D03*
X50403046Y-58387708D03*
X36509713Y-30791805D03*
X29594506Y-31871060D03*
X23635114Y-90016398D03*
X25202210Y-95644993D03*
X101499609Y-39870139D03*
X55000000Y-46000000D03*
X103461601Y-19977104D03*
X49916249Y-37061908D03*
X32500000Y-20000000D03*
X47050375Y-68391253D03*
X46969072Y-88578301D03*
X47500000Y-25000000D03*
X29954945Y-27485719D03*
X23276163Y-62481949D03*
X78657088Y-94258698D03*
X97500000Y-87500000D03*
X34967108Y-88625184D03*
X47244778Y-73933674D03*
X29200540Y-81686549D03*
X23306298Y-54981181D03*
X23591219Y-92499999D03*
X43440693Y-79299833D03*
X60808010Y-71010780D03*
X71402825Y-92136529D03*
X59483649Y-30334109D03*
X73445090Y-34645897D03*
X29665381Y-69564996D03*
X82482506Y-18264140D03*
X40000000Y-22500000D03*
X23294213Y-64972892D03*
X32472404Y-18244689D03*
X32810506Y-85296514D03*
X87500000Y-92500000D03*
X89953383Y-18237063D03*
X43946120Y-91624873D03*
X57272451Y-93637881D03*
X88000000Y-44000000D03*
X26710859Y-91740935D03*
X54590175Y-67764029D03*
X42515218Y-85296514D03*
X67172415Y-32774212D03*
X47437898Y-85390279D03*
X51653654Y-91772233D03*
X96357523Y-29969934D03*
X88000000Y-47000000D03*
X44480393Y-81113443D03*
X63302117Y-58390735D03*
X103447064Y-24996335D03*
X44650511Y-71919703D03*
X47480814Y-18224841D03*
X63234224Y-64463917D03*
X25590574Y-82577319D03*
X103902574Y-59982377D03*
X65659598Y-94159858D03*
X25485516Y-45540021D03*
X50287961Y-55483584D03*
X74305054Y-38085751D03*
X64779212Y-92578103D03*
X103495631Y-29950210D03*
X97500000Y-91870325D03*
X32435444Y-88531418D03*
X45000000Y-88578301D03*
X77500000Y-25000000D03*
X41471920Y-30641889D03*
X94509545Y-18259958D03*
X23400393Y-60005827D03*
X103935549Y-54955704D03*
X56689410Y-67725513D03*
X70000000Y-77500000D03*
X46675561Y-30439831D03*
X97229413Y-36524141D03*
X35000000Y-22500000D03*
X72500000Y-20000000D03*
X52493288Y-95656945D03*
X46010579Y-69961557D03*
X60005411Y-95632552D03*
X43973428Y-70407184D03*
X63350277Y-70091889D03*
X85032282Y-91590012D03*
X93934396Y-94631206D03*
X82543842Y-95697890D03*
X52861836Y-62228622D03*
X96695278Y-94001531D03*
X87500000Y-20000000D03*
X44082035Y-67304673D03*
X45868282Y-45604736D03*
X42500000Y-25000000D03*
X101568985Y-58761341D03*
X43417153Y-72959332D03*
X43548803Y-40159263D03*
X97500000Y-85000000D03*
X42671852Y-81082220D03*
X53390735Y-55111782D03*
X51086823Y-81113443D03*
X50000000Y-90000000D03*
X46435104Y-81113443D03*
X54997894Y-95636416D03*
X62107754Y-33037367D03*
X26017430Y-77592025D03*
X23419824Y-45000000D03*
X92536359Y-95697890D03*
X27538486Y-18330760D03*
X72500000Y-25000000D03*
X26334527Y-20165940D03*
X87636997Y-38010032D03*
X23016397Y-35057580D03*
X44368440Y-30349709D03*
X95855910Y-22532919D03*
X74993940Y-95666167D03*
X34000000Y-58000000D03*
X103943658Y-69994553D03*
X103899490Y-65023978D03*
X56936435Y-32439274D03*
X62500000Y-25000000D03*
X43793307Y-83628489D03*
X92494760Y-18237063D03*
X60656597Y-55484390D03*
X45000000Y-22500000D03*
X60000000Y-22500000D03*
X62500000Y-20000000D03*
X96898696Y-33487559D03*
X68405147Y-25181029D03*
X103961512Y-49996925D03*
X36344805Y-33265413D03*
X57745037Y-72174710D03*
X40757032Y-54719843D03*
X58810128Y-68094333D03*
X41183675Y-83769550D03*
X90000000Y-22500000D03*
X66987083Y-92843047D03*
X40000000Y-51000000D03*
X75000000Y-22500000D03*
X51470046Y-32963244D03*
X80000000Y-22500000D03*
X62459348Y-18239295D03*
X34254913Y-91566841D03*
X26114328Y-72601770D03*
X64654832Y-18250497D03*
X25908912Y-62099009D03*
X49901925Y-32855098D03*
X87775922Y-30230256D03*
X49968152Y-95636416D03*
X78706043Y-34898827D03*
X62508117Y-95632552D03*
X91318824Y-94631206D03*
X78503699Y-30295493D03*
X101564090Y-63875300D03*
X54835213Y-72082821D03*
X99951162Y-95593115D03*
X82500000Y-20000000D03*
X47484076Y-95677475D03*
X77501527Y-18250146D03*
X31000000Y-61000000D03*
X56901472Y-82845466D03*
X69704182Y-18267304D03*
X45000000Y-85343397D03*
X34978257Y-18271867D03*
X37755255Y-43789504D03*
X25989111Y-58302961D03*
X91000000Y-45000000D03*
X52500000Y-20000000D03*
X79897157Y-18262245D03*
X67399777Y-38374238D03*
X42261054Y-73626458D03*
X103514697Y-74958863D03*
X23471001Y-87554704D03*
X103312151Y-92495733D03*
X43592323Y-76152455D03*
X30000000Y-22500000D03*
X62370126Y-72144080D03*
X32000000Y-68000000D03*
X44764976Y-32891147D03*
X74783740Y-18251958D03*
X47756804Y-71578352D03*
X54557945Y-64354412D03*
X77500000Y-20000000D03*
X103913566Y-42474757D03*
X37500000Y-25000000D03*
X44957727Y-73967809D03*
X34624329Y-83134775D03*
X103387393Y-77434460D03*
X35038361Y-95604681D03*
X23362755Y-57502913D03*
X79974337Y-95634445D03*
X99988961Y-80487744D03*
X51293825Y-43920947D03*
X52500000Y-25000000D03*
X78064046Y-91837112D03*
X25284290Y-42680911D03*
X57500000Y-44000000D03*
X57500000Y-25000000D03*
X88000000Y-53000000D03*
X93359205Y-24962916D03*
X57530208Y-95605049D03*
X103934852Y-62478481D03*
X53223862Y-93548370D03*
X87500000Y-25000000D03*
X42763503Y-63315698D03*
X29999349Y-95644993D03*
X51233572Y-62500000D03*
X23385114Y-42518209D03*
X29844543Y-91450779D03*
X84986457Y-95666167D03*
X90402269Y-47055519D03*
X35000000Y-79000000D03*
X37500000Y-20000000D03*
X87492517Y-95666167D03*
X103312151Y-84949984D03*
X50449801Y-46291769D03*
X99958623Y-18168377D03*
X38785635Y-83557958D03*
X46567414Y-32945220D03*
X65000000Y-22500000D03*
X23419824Y-48071867D03*
X58540444Y-81608489D03*
X53511655Y-81138186D03*
X23420645Y-75048972D03*
X103350419Y-79948742D03*
X27488432Y-95635091D03*
X82413016Y-91935953D03*
X73041668Y-43999384D03*
X97485932Y-18305748D03*
X40030437Y-88625184D03*
X53000000Y-60000000D03*
X23429517Y-72492798D03*
X23573898Y-95046179D03*
G04 #@! TO.N,VCC*
X80150000Y-78400000D03*
X33250000Y-49525000D03*
X74550000Y-78400000D03*
X30800000Y-34125000D03*
X63700000Y-43400000D03*
G04 #@! TO.N,/MOSI*
X81550000Y-80150000D03*
G04 #@! TO.N,Net-(R9-Pad2)*
X41650000Y-46550000D03*
X61600000Y-57750000D03*
G04 #@! TD*
D26*
G04 #@! TO.N,/X-DIR*
X69455000Y-80870000D02*
X67677500Y-80870000D01*
X86210000Y-64115000D02*
X69455000Y-80870000D01*
X86210000Y-64115000D02*
X86210000Y-27275000D01*
G04 #@! TO.N,/X-STEP*
X95550000Y-31535000D02*
X91290000Y-27275000D01*
X94685000Y-50390000D02*
X93077500Y-50390000D01*
X95550000Y-49525000D02*
X94685000Y-50390000D01*
X95550000Y-49525000D02*
X95550000Y-31535000D01*
G04 #@! TO.N,/Y1-STEP*
X81130000Y-41055000D02*
X81130000Y-27275000D01*
X84000000Y-63525000D02*
X84000000Y-43925000D01*
X67677500Y-73250000D02*
X74275000Y-73250000D01*
X84000000Y-43925000D02*
X81130000Y-41055000D01*
X74275000Y-73250000D02*
X84000000Y-63525000D01*
G04 #@! TO.N,/Y2-STEP*
X74105000Y-68170000D02*
X67677500Y-68170000D01*
X70970000Y-36845000D02*
X80150000Y-46025000D01*
X80150000Y-62125000D02*
X74105000Y-68170000D01*
X80150000Y-46025000D02*
X80150000Y-62125000D01*
X70970000Y-36845000D02*
X70970000Y-27275000D01*
G04 #@! TO.N,/Y-DIR*
X74015000Y-70710000D02*
X67677500Y-70710000D01*
X82250000Y-44975000D02*
X82250000Y-62475000D01*
X65890000Y-25285000D02*
X65890000Y-27275000D01*
X76050000Y-38775000D02*
X76050000Y-27275000D01*
X67550000Y-23625000D02*
X65890000Y-25285000D01*
X76050000Y-27275000D02*
X76050000Y-25125000D01*
X82250000Y-62475000D02*
X74015000Y-70710000D01*
X76050000Y-25125000D02*
X74550000Y-23625000D01*
X76050000Y-38775000D02*
X82250000Y-44975000D01*
X74550000Y-23625000D02*
X67550000Y-23625000D01*
G04 #@! TO.N,/Z-DIR*
X76300000Y-61425000D02*
X76300000Y-49175000D01*
X67677500Y-63090000D02*
X74635000Y-63090000D01*
X74635000Y-63090000D02*
X76300000Y-61425000D01*
X76300000Y-49175000D02*
X55730000Y-28605000D01*
G04 #@! TO.N,/Z-STEP*
X78050000Y-47075000D02*
X78050000Y-62125000D01*
X78050000Y-62125000D02*
X74545000Y-65630000D01*
X60810000Y-29835000D02*
X60810000Y-27275000D01*
X74545000Y-65630000D02*
X67677500Y-65630000D01*
X78050000Y-47075000D02*
X60810000Y-29835000D01*
G04 #@! TO.N,/Z-PROBE*
X65810000Y-50390000D02*
X67677500Y-50390000D01*
X61600000Y-84000000D02*
X65100000Y-80500000D01*
X65100000Y-51100000D02*
X65810000Y-50390000D01*
X65100000Y-80500000D02*
X65100000Y-51100000D01*
G04 #@! TO.N,/5V*
X37800000Y-80675000D02*
X39550000Y-82425000D01*
X40250000Y-39200000D02*
X37100000Y-39200000D01*
X102737780Y-64777220D02*
X102697780Y-64777220D01*
X101150000Y-37275000D02*
X101110000Y-37315000D01*
X95550000Y-81375000D02*
X98000000Y-78925000D01*
X102737780Y-64777220D02*
X102737780Y-38862780D01*
X37800000Y-56175000D02*
X37800000Y-80675000D01*
X102697780Y-64777220D02*
X99400000Y-68075000D01*
X100450000Y-78925000D02*
X101500000Y-77875000D01*
X102737780Y-38862780D02*
X101150000Y-37275000D01*
X100800000Y-68075000D02*
X99400000Y-68075000D01*
X95553304Y-92571696D02*
X95553304Y-81378304D01*
X91700000Y-93275000D02*
X94850000Y-93275000D01*
X88550000Y-90125000D02*
X91700000Y-93275000D01*
X101500000Y-77875000D02*
X101500000Y-68775000D01*
X31850000Y-50225000D02*
X37800000Y-56175000D01*
X67677500Y-91030000D02*
X68582500Y-90125000D01*
X101110000Y-37315000D02*
X99400000Y-37315000D01*
X37100000Y-39200000D02*
X31850000Y-44450000D01*
X39550000Y-82425000D02*
X53030000Y-82425000D01*
X53030000Y-82425000D02*
X61635000Y-91030000D01*
X61635000Y-91030000D02*
X67677500Y-91030000D01*
X101500000Y-68775000D02*
X100800000Y-68075000D01*
X98000000Y-78925000D02*
X100450000Y-78925000D01*
X95553304Y-81378304D02*
X95550000Y-81375000D01*
X31850000Y-44450000D02*
X31850000Y-50225000D01*
X68582500Y-90125000D02*
X88550000Y-90125000D01*
X94850000Y-93275000D02*
X95553304Y-92571696D01*
G04 #@! TO.N,/TX*
X93292500Y-52715000D02*
X97300000Y-52715000D01*
X97300000Y-43575000D02*
X97300000Y-52715000D01*
X97300000Y-52715000D02*
X99400000Y-52715000D01*
X93077500Y-52930000D02*
X93292500Y-52715000D01*
X98480000Y-42395000D02*
X97300000Y-43575000D01*
X99400000Y-42395000D02*
X98480000Y-42395000D01*
G04 #@! TO.N,VCC*
X62125000Y-41825000D02*
X63700000Y-43400000D01*
X30100000Y-34825000D02*
X30800000Y-34125000D01*
X60375000Y-41825000D02*
X62125000Y-41825000D01*
X33250000Y-45325000D02*
X33250000Y-49525000D01*
X30100000Y-53375000D02*
X28200000Y-55275000D01*
X80150000Y-78400000D02*
X74550000Y-78400000D01*
X30100000Y-53375000D02*
X30100000Y-34825000D01*
X36750000Y-41825000D02*
X33250000Y-45325000D01*
X28200000Y-55275000D02*
X27300000Y-55275000D01*
X60375000Y-41825000D02*
X36750000Y-41825000D01*
G04 #@! TO.N,/RX*
X93292500Y-55255000D02*
X93077500Y-55470000D01*
X99400000Y-44935000D02*
X101402503Y-46937503D01*
X100670000Y-55255000D02*
X99400000Y-55255000D01*
X101402503Y-46937503D02*
X101402503Y-54522497D01*
X99400000Y-55255000D02*
X93292500Y-55255000D01*
X101402503Y-54522497D02*
X100670000Y-55255000D01*
G04 #@! TO.N,/PENDANT-TX*
X95385000Y-70710000D02*
X97750000Y-73075000D01*
X97750000Y-73075000D02*
X99400000Y-73075000D01*
X93077500Y-70710000D02*
X95385000Y-70710000D01*
G04 #@! TO.N,/PENDANT-RX*
X95125000Y-73250000D02*
X97450000Y-75575000D01*
X93077500Y-73250000D02*
X95125000Y-73250000D01*
X97450000Y-75575000D02*
X99400000Y-75575000D01*
D27*
G04 #@! TO.N,/MOSI*
X89950000Y-64750000D02*
X89950000Y-49700000D01*
X91800000Y-47850000D02*
X93077500Y-47850000D01*
X89950000Y-49700000D02*
X91800000Y-47850000D01*
X81550000Y-80150000D02*
X81550000Y-73150000D01*
X81550000Y-73150000D02*
X89950000Y-64750000D01*
G04 #@! TO.N,Net-(R9-Pad2)*
X47999206Y-57050000D02*
X40825000Y-49875794D01*
X61600000Y-57750000D02*
X61600000Y-57400000D01*
X40825000Y-47375000D02*
X40825000Y-49875794D01*
X41650000Y-46550000D02*
X40825000Y-47375000D01*
X61250000Y-57050000D02*
X47999206Y-57050000D01*
X61600000Y-57400000D02*
X61250000Y-57050000D01*
G04 #@! TD*
G04 #@! TA.AperFunction,Conductor*
G04 #@! TO.N,GND*
G36*
X101806613Y-55423689D02*
G01*
X101862547Y-55465560D01*
X101886964Y-55531025D01*
X101887280Y-55539871D01*
X101887280Y-64333568D01*
X101867595Y-64400607D01*
X101850961Y-64421249D01*
X99584028Y-66688181D01*
X99522705Y-66721666D01*
X99496347Y-66724500D01*
X98624998Y-66724500D01*
X98624980Y-66724501D01*
X98522203Y-66735000D01*
X98522200Y-66735001D01*
X98355668Y-66790185D01*
X98355663Y-66790187D01*
X98206342Y-66882289D01*
X98082289Y-67006342D01*
X97990187Y-67155663D01*
X97990186Y-67155666D01*
X97935001Y-67322203D01*
X97935001Y-67322204D01*
X97935000Y-67322204D01*
X97924500Y-67424983D01*
X97924500Y-68725001D01*
X97924501Y-68725018D01*
X97935000Y-68827796D01*
X97935001Y-68827799D01*
X97966781Y-68923704D01*
X97990186Y-68994334D01*
X98044482Y-69082363D01*
X98082289Y-69143657D01*
X98206344Y-69267712D01*
X98361558Y-69363448D01*
X98408283Y-69415396D01*
X98419506Y-69484358D01*
X98391663Y-69548441D01*
X98384144Y-69556668D01*
X98245271Y-69695541D01*
X98120379Y-69867442D01*
X98023904Y-70056782D01*
X97958242Y-70258870D01*
X97958242Y-70258873D01*
X97947769Y-70325000D01*
X98995854Y-70325000D01*
X98957370Y-70391657D01*
X98925000Y-70512465D01*
X98925000Y-70637535D01*
X98957370Y-70758343D01*
X98995854Y-70825000D01*
X97947769Y-70825000D01*
X97958242Y-70891126D01*
X97958242Y-70891129D01*
X98023904Y-71093217D01*
X98120379Y-71282557D01*
X98245272Y-71454459D01*
X98245276Y-71454464D01*
X98395535Y-71604723D01*
X98395540Y-71604727D01*
X98560218Y-71724372D01*
X98602884Y-71779701D01*
X98608863Y-71849315D01*
X98576258Y-71911110D01*
X98560218Y-71925008D01*
X98395214Y-72044890D01*
X98395209Y-72044894D01*
X98251923Y-72188181D01*
X98224995Y-72202884D01*
X98199177Y-72219477D01*
X98192976Y-72220368D01*
X98190600Y-72221666D01*
X98164242Y-72224500D01*
X98153650Y-72224500D01*
X98086611Y-72204815D01*
X98065969Y-72188181D01*
X95927165Y-70049375D01*
X95927161Y-70049372D01*
X95787866Y-69956297D01*
X95787863Y-69956296D01*
X95678416Y-69910962D01*
X95678414Y-69910961D01*
X95633086Y-69892185D01*
X95633074Y-69892182D01*
X95468771Y-69859500D01*
X95468767Y-69859500D01*
X94253871Y-69859500D01*
X94186832Y-69839815D01*
X94153554Y-69808387D01*
X94145746Y-69797641D01*
X94145742Y-69797635D01*
X93989865Y-69641758D01*
X93989863Y-69641756D01*
X93989858Y-69641752D01*
X93850245Y-69540318D01*
X93807579Y-69484989D01*
X93801600Y-69415375D01*
X93834205Y-69353580D01*
X93850245Y-69339682D01*
X93989858Y-69238247D01*
X93989856Y-69238247D01*
X93989865Y-69238242D01*
X94145742Y-69082365D01*
X94275315Y-68904022D01*
X94375395Y-68707606D01*
X94443515Y-68497951D01*
X94478000Y-68280222D01*
X94478000Y-68059778D01*
X94443515Y-67842049D01*
X94375395Y-67632394D01*
X94375395Y-67632393D01*
X94288920Y-67462680D01*
X94275315Y-67435978D01*
X94192653Y-67322203D01*
X94145747Y-67257641D01*
X94145743Y-67257636D01*
X93989863Y-67101756D01*
X93989858Y-67101752D01*
X93850245Y-67000318D01*
X93807579Y-66944989D01*
X93801600Y-66875375D01*
X93834205Y-66813580D01*
X93850245Y-66799682D01*
X93989858Y-66698247D01*
X93989856Y-66698247D01*
X93989865Y-66698242D01*
X94145742Y-66542365D01*
X94275315Y-66364022D01*
X94375395Y-66167606D01*
X94443515Y-65957951D01*
X94478000Y-65740222D01*
X94478000Y-65519778D01*
X94443515Y-65302049D01*
X94409235Y-65196543D01*
X94375396Y-65092396D01*
X94375395Y-65092393D01*
X94305043Y-64954322D01*
X94275315Y-64895978D01*
X94219383Y-64818994D01*
X94145747Y-64717641D01*
X94145743Y-64717636D01*
X93989863Y-64561756D01*
X93989858Y-64561752D01*
X93850245Y-64460318D01*
X93807579Y-64404989D01*
X93801600Y-64335375D01*
X93834205Y-64273580D01*
X93850245Y-64259682D01*
X93989858Y-64158247D01*
X93989856Y-64158247D01*
X93989865Y-64158242D01*
X94145742Y-64002365D01*
X94275315Y-63824022D01*
X94375395Y-63627606D01*
X94443515Y-63417951D01*
X94478000Y-63200222D01*
X94478000Y-62979778D01*
X94443515Y-62762049D01*
X94398986Y-62625000D01*
X94375396Y-62552396D01*
X94375395Y-62552393D01*
X94321411Y-62446446D01*
X94275315Y-62355978D01*
X94232812Y-62297477D01*
X94145747Y-62177641D01*
X94145743Y-62177636D01*
X93989863Y-62021756D01*
X93989858Y-62021752D01*
X93850245Y-61920318D01*
X93807579Y-61864989D01*
X93801600Y-61795375D01*
X93834205Y-61733580D01*
X93850245Y-61719682D01*
X93989858Y-61618247D01*
X93989856Y-61618247D01*
X93989865Y-61618242D01*
X94145742Y-61462365D01*
X94275315Y-61284022D01*
X94375395Y-61087606D01*
X94443515Y-60877951D01*
X94478000Y-60660222D01*
X94478000Y-60439778D01*
X94443515Y-60222049D01*
X94399116Y-60085402D01*
X94375396Y-60012396D01*
X94375395Y-60012393D01*
X94298076Y-59860649D01*
X94275315Y-59815978D01*
X94187538Y-59695162D01*
X94145747Y-59637641D01*
X94145743Y-59637636D01*
X93989863Y-59481756D01*
X93989858Y-59481752D01*
X93850245Y-59380318D01*
X93807579Y-59324989D01*
X93801600Y-59255375D01*
X93834205Y-59193580D01*
X93850245Y-59179682D01*
X93989858Y-59078247D01*
X93989856Y-59078247D01*
X93989865Y-59078242D01*
X94145742Y-58922365D01*
X94275315Y-58744022D01*
X94375395Y-58547606D01*
X94443515Y-58337951D01*
X94478000Y-58120222D01*
X94478000Y-57899778D01*
X94443515Y-57682049D01*
X94389727Y-57516503D01*
X94375396Y-57472396D01*
X94375395Y-57472393D01*
X94316858Y-57357510D01*
X94275315Y-57275978D01*
X94258760Y-57253192D01*
X94145747Y-57097641D01*
X94145743Y-57097636D01*
X93989863Y-56941756D01*
X93989858Y-56941752D01*
X93850245Y-56840318D01*
X93807579Y-56784989D01*
X93801600Y-56715375D01*
X93834205Y-56653580D01*
X93850245Y-56639682D01*
X93989858Y-56538247D01*
X93989856Y-56538247D01*
X93989865Y-56538242D01*
X94145742Y-56382365D01*
X94275315Y-56204022D01*
X94291017Y-56173204D01*
X94338992Y-56122409D01*
X94401502Y-56105500D01*
X98289242Y-56105500D01*
X98356281Y-56125185D01*
X98376923Y-56141819D01*
X98520213Y-56285109D01*
X98692182Y-56410050D01*
X98700946Y-56414516D01*
X98751742Y-56462491D01*
X98768536Y-56530312D01*
X98745998Y-56596447D01*
X98700946Y-56635484D01*
X98692182Y-56639949D01*
X98520213Y-56764890D01*
X98369890Y-56915213D01*
X98244951Y-57087179D01*
X98148444Y-57276585D01*
X98082753Y-57478760D01*
X98049500Y-57688713D01*
X98049500Y-57901286D01*
X98062521Y-57983501D01*
X98082754Y-58111243D01*
X98131183Y-58260292D01*
X98148444Y-58313414D01*
X98244951Y-58502820D01*
X98369890Y-58674786D01*
X98520213Y-58825109D01*
X98692182Y-58950050D01*
X98700946Y-58954516D01*
X98751742Y-59002491D01*
X98768536Y-59070312D01*
X98745998Y-59136447D01*
X98700946Y-59175484D01*
X98692182Y-59179949D01*
X98520213Y-59304890D01*
X98369890Y-59455213D01*
X98244951Y-59627179D01*
X98148444Y-59816585D01*
X98082753Y-60018760D01*
X98049500Y-60228713D01*
X98049500Y-60441286D01*
X98078900Y-60626914D01*
X98082754Y-60651243D01*
X98147666Y-60851022D01*
X98148444Y-60853414D01*
X98244951Y-61042820D01*
X98369890Y-61214786D01*
X98483818Y-61328714D01*
X98517303Y-61390037D01*
X98512319Y-61459729D01*
X98470447Y-61515662D01*
X98439471Y-61532577D01*
X98307912Y-61581646D01*
X98307906Y-61581649D01*
X98192812Y-61667809D01*
X98192809Y-61667812D01*
X98106649Y-61782906D01*
X98106645Y-61782913D01*
X98056403Y-61917620D01*
X98056401Y-61917627D01*
X98050000Y-61977155D01*
X98050000Y-62625000D01*
X98966988Y-62625000D01*
X98934075Y-62682007D01*
X98900000Y-62809174D01*
X98900000Y-62940826D01*
X98934075Y-63067993D01*
X98966988Y-63125000D01*
X98050000Y-63125000D01*
X98050000Y-63772844D01*
X98056401Y-63832372D01*
X98056403Y-63832379D01*
X98106645Y-63967086D01*
X98106649Y-63967093D01*
X98192809Y-64082187D01*
X98192812Y-64082190D01*
X98307906Y-64168350D01*
X98307913Y-64168354D01*
X98442620Y-64218596D01*
X98442627Y-64218598D01*
X98502155Y-64224999D01*
X98502172Y-64225000D01*
X99150000Y-64225000D01*
X99150000Y-63308012D01*
X99207007Y-63340925D01*
X99334174Y-63375000D01*
X99465826Y-63375000D01*
X99592993Y-63340925D01*
X99650000Y-63308012D01*
X99650000Y-64225000D01*
X100297828Y-64225000D01*
X100297844Y-64224999D01*
X100357372Y-64218598D01*
X100357379Y-64218596D01*
X100492086Y-64168354D01*
X100492093Y-64168350D01*
X100607187Y-64082190D01*
X100607190Y-64082187D01*
X100693350Y-63967093D01*
X100693354Y-63967086D01*
X100743596Y-63832379D01*
X100743598Y-63832372D01*
X100749999Y-63772844D01*
X100750000Y-63772827D01*
X100750000Y-63125000D01*
X99833012Y-63125000D01*
X99865925Y-63067993D01*
X99900000Y-62940826D01*
X99900000Y-62809174D01*
X99865925Y-62682007D01*
X99833012Y-62625000D01*
X100750000Y-62625000D01*
X100750000Y-61977172D01*
X100749999Y-61977155D01*
X100743598Y-61917627D01*
X100743596Y-61917620D01*
X100693354Y-61782913D01*
X100693350Y-61782906D01*
X100607190Y-61667812D01*
X100607187Y-61667809D01*
X100492093Y-61581649D01*
X100492088Y-61581646D01*
X100360528Y-61532577D01*
X100304595Y-61490705D01*
X100280178Y-61425241D01*
X100295030Y-61356968D01*
X100316175Y-61328720D01*
X100430104Y-61214792D01*
X100555051Y-61042816D01*
X100651557Y-60853412D01*
X100717246Y-60651243D01*
X100750500Y-60441287D01*
X100750500Y-60228713D01*
X100717246Y-60018757D01*
X100651557Y-59816588D01*
X100555051Y-59627184D01*
X100555049Y-59627181D01*
X100555048Y-59627179D01*
X100430109Y-59455213D01*
X100279786Y-59304890D01*
X100107820Y-59179951D01*
X100107115Y-59179591D01*
X100099054Y-59175485D01*
X100048259Y-59127512D01*
X100031463Y-59059692D01*
X100053999Y-58993556D01*
X100099054Y-58954515D01*
X100107816Y-58950051D01*
X100145926Y-58922363D01*
X100279786Y-58825109D01*
X100279788Y-58825106D01*
X100279792Y-58825104D01*
X100430104Y-58674792D01*
X100430106Y-58674788D01*
X100430109Y-58674786D01*
X100555048Y-58502820D01*
X100555047Y-58502820D01*
X100555051Y-58502816D01*
X100651557Y-58313412D01*
X100717246Y-58111243D01*
X100750500Y-57901287D01*
X100750500Y-57688713D01*
X100717246Y-57478757D01*
X100651557Y-57276588D01*
X100555051Y-57087184D01*
X100555049Y-57087181D01*
X100555048Y-57087179D01*
X100430109Y-56915213D01*
X100279786Y-56764890D01*
X100107820Y-56639951D01*
X100107115Y-56639591D01*
X100099054Y-56635485D01*
X100048259Y-56587512D01*
X100031463Y-56519692D01*
X100053999Y-56453556D01*
X100099054Y-56414515D01*
X100107816Y-56410051D01*
X100145926Y-56382363D01*
X100279786Y-56285109D01*
X100279788Y-56285106D01*
X100279792Y-56285104D01*
X100423077Y-56141819D01*
X100484400Y-56108334D01*
X100510758Y-56105500D01*
X100753768Y-56105500D01*
X100753769Y-56105499D01*
X100825518Y-56091228D01*
X100918074Y-56072818D01*
X100918078Y-56072816D01*
X100918082Y-56072816D01*
X100963415Y-56054037D01*
X101072863Y-56008704D01*
X101212162Y-55915627D01*
X101675599Y-55452190D01*
X101736922Y-55418705D01*
X101806613Y-55423689D01*
G37*
G04 #@! TD.AperFunction*
G04 #@! TA.AperFunction,Conductor*
G36*
X94228566Y-46107514D02*
G01*
X94228566Y-46107513D01*
X94274886Y-46043760D01*
X94374932Y-45847410D01*
X94443026Y-45637835D01*
X94453027Y-45574697D01*
X94482956Y-45511562D01*
X94542268Y-45474631D01*
X94612130Y-45475629D01*
X94670363Y-45514239D01*
X94698477Y-45578202D01*
X94699500Y-45594095D01*
X94699500Y-47562706D01*
X94679815Y-47629745D01*
X94627011Y-47675500D01*
X94557853Y-47685444D01*
X94494297Y-47656419D01*
X94456523Y-47597641D01*
X94453027Y-47582104D01*
X94449954Y-47562706D01*
X94443515Y-47522049D01*
X94400926Y-47390970D01*
X94375396Y-47312396D01*
X94375395Y-47312393D01*
X94333016Y-47229222D01*
X94275315Y-47115978D01*
X94234854Y-47060288D01*
X94145747Y-46937641D01*
X94145743Y-46937636D01*
X93989863Y-46781756D01*
X93989858Y-46781752D01*
X93849819Y-46680008D01*
X93807153Y-46624678D01*
X93801174Y-46555065D01*
X93833779Y-46493270D01*
X93849819Y-46479372D01*
X93875013Y-46461066D01*
X93875014Y-46461066D01*
X93166085Y-45752138D01*
X93251194Y-45729333D01*
X93353806Y-45670090D01*
X93437590Y-45586306D01*
X93496833Y-45483694D01*
X93519637Y-45398585D01*
X94228566Y-46107514D01*
G37*
G04 #@! TD.AperFunction*
G04 #@! TA.AperFunction,Conductor*
G36*
X100949378Y-38277876D02*
G01*
X100957607Y-38285396D01*
X101850961Y-39178750D01*
X101884446Y-39240073D01*
X101887280Y-39266431D01*
X101887280Y-45920129D01*
X101867595Y-45987168D01*
X101814791Y-46032923D01*
X101745633Y-46042867D01*
X101682077Y-46013842D01*
X101675599Y-46007810D01*
X100881013Y-45213224D01*
X100847528Y-45151901D01*
X100846221Y-45106145D01*
X100870967Y-44949910D01*
X100875500Y-44921287D01*
X100875500Y-44708713D01*
X100842246Y-44498757D01*
X100776557Y-44296588D01*
X100680051Y-44107184D01*
X100680049Y-44107181D01*
X100680048Y-44107179D01*
X100555109Y-43935213D01*
X100404792Y-43784896D01*
X100240204Y-43665316D01*
X100197540Y-43609989D01*
X100191561Y-43540376D01*
X100224166Y-43478580D01*
X100240199Y-43464686D01*
X100404792Y-43345104D01*
X100555104Y-43194792D01*
X100555106Y-43194788D01*
X100555109Y-43194786D01*
X100680048Y-43022820D01*
X100680047Y-43022820D01*
X100680051Y-43022816D01*
X100776557Y-42833412D01*
X100842246Y-42631243D01*
X100875500Y-42421287D01*
X100875500Y-42208713D01*
X100842246Y-41998757D01*
X100776557Y-41796588D01*
X100680051Y-41607184D01*
X100680049Y-41607181D01*
X100680048Y-41607179D01*
X100555109Y-41435213D01*
X100404790Y-41284894D01*
X100404785Y-41284890D01*
X100239781Y-41165008D01*
X100197115Y-41109678D01*
X100191136Y-41040065D01*
X100223741Y-40978270D01*
X100239781Y-40964371D01*
X100404466Y-40844721D01*
X100554723Y-40694464D01*
X100554727Y-40694459D01*
X100679620Y-40522557D01*
X100776095Y-40333217D01*
X100841757Y-40131129D01*
X100841757Y-40131126D01*
X100852231Y-40065000D01*
X99804146Y-40065000D01*
X99842630Y-39998343D01*
X99875000Y-39877535D01*
X99875000Y-39752465D01*
X99842630Y-39631657D01*
X99804146Y-39565000D01*
X100852231Y-39565000D01*
X100841757Y-39498873D01*
X100841757Y-39498870D01*
X100776095Y-39296782D01*
X100679620Y-39107442D01*
X100554727Y-38935540D01*
X100554723Y-38935535D01*
X100415856Y-38796668D01*
X100382371Y-38735345D01*
X100387355Y-38665653D01*
X100429227Y-38609720D01*
X100438441Y-38603448D01*
X100444331Y-38599814D01*
X100444334Y-38599814D01*
X100593656Y-38507712D01*
X100717712Y-38383656D01*
X100764390Y-38307978D01*
X100816333Y-38261256D01*
X100885296Y-38250033D01*
X100949378Y-38277876D01*
G37*
G04 #@! TD.AperFunction*
G04 #@! TA.AperFunction,Conductor*
G36*
X104243039Y-17694685D02*
G01*
X104288794Y-17747489D01*
X104300000Y-17799000D01*
X104300000Y-96301000D01*
X104280315Y-96368039D01*
X104227511Y-96413794D01*
X104176000Y-96425000D01*
X22874000Y-96425000D01*
X22806961Y-96405315D01*
X22761206Y-96352511D01*
X22750000Y-96301000D01*
X22750000Y-93006495D01*
X75729563Y-93006495D01*
X75756482Y-93141822D01*
X75756485Y-93141832D01*
X75809285Y-93269304D01*
X75809292Y-93269317D01*
X75885949Y-93384041D01*
X75885952Y-93384045D01*
X75983518Y-93481611D01*
X75983522Y-93481614D01*
X76098246Y-93558271D01*
X76098259Y-93558278D01*
X76225731Y-93611078D01*
X76225736Y-93611080D01*
X76225740Y-93611080D01*
X76225741Y-93611081D01*
X76361068Y-93638000D01*
X76361071Y-93638000D01*
X76499059Y-93638000D01*
X76590105Y-93619889D01*
X76634392Y-93611080D01*
X76761875Y-93558275D01*
X76876606Y-93481614D01*
X76974178Y-93384042D01*
X77050839Y-93269311D01*
X77103644Y-93141828D01*
X77130564Y-93006495D01*
X83729563Y-93006495D01*
X83756482Y-93141822D01*
X83756485Y-93141832D01*
X83809285Y-93269304D01*
X83809292Y-93269317D01*
X83885949Y-93384041D01*
X83885952Y-93384045D01*
X83983518Y-93481611D01*
X83983522Y-93481614D01*
X84098246Y-93558271D01*
X84098259Y-93558278D01*
X84225731Y-93611078D01*
X84225736Y-93611080D01*
X84225740Y-93611080D01*
X84225741Y-93611081D01*
X84361068Y-93638000D01*
X84361071Y-93638000D01*
X84499059Y-93638000D01*
X84590105Y-93619889D01*
X84634392Y-93611080D01*
X84761875Y-93558275D01*
X84876606Y-93481614D01*
X84974178Y-93384042D01*
X85050839Y-93269311D01*
X85103644Y-93141828D01*
X85130564Y-93006493D01*
X85130564Y-92868507D01*
X85130564Y-92868504D01*
X85103645Y-92733177D01*
X85103644Y-92733176D01*
X85103644Y-92733172D01*
X85071458Y-92655467D01*
X85050842Y-92605695D01*
X85050835Y-92605682D01*
X84974178Y-92490958D01*
X84974175Y-92490954D01*
X84876609Y-92393388D01*
X84876605Y-92393385D01*
X84761881Y-92316728D01*
X84761868Y-92316721D01*
X84634396Y-92263921D01*
X84634386Y-92263918D01*
X84499059Y-92237000D01*
X84499057Y-92237000D01*
X84361071Y-92237000D01*
X84361069Y-92237000D01*
X84225741Y-92263918D01*
X84225731Y-92263921D01*
X84098259Y-92316721D01*
X84098246Y-92316728D01*
X83983522Y-92393385D01*
X83983518Y-92393388D01*
X83885952Y-92490954D01*
X83885949Y-92490958D01*
X83809292Y-92605682D01*
X83809285Y-92605695D01*
X83756485Y-92733167D01*
X83756482Y-92733177D01*
X83729564Y-92868504D01*
X83729564Y-92868507D01*
X83729564Y-93006493D01*
X83729564Y-93006495D01*
X83729563Y-93006495D01*
X77130564Y-93006495D01*
X77130564Y-93006493D01*
X77130564Y-92868507D01*
X77130564Y-92868504D01*
X77103645Y-92733177D01*
X77103644Y-92733176D01*
X77103644Y-92733172D01*
X77071458Y-92655467D01*
X77050842Y-92605695D01*
X77050835Y-92605682D01*
X76974178Y-92490958D01*
X76974175Y-92490954D01*
X76876609Y-92393388D01*
X76876605Y-92393385D01*
X76761881Y-92316728D01*
X76761868Y-92316721D01*
X76634396Y-92263921D01*
X76634386Y-92263918D01*
X76499059Y-92237000D01*
X76499057Y-92237000D01*
X76361071Y-92237000D01*
X76361069Y-92237000D01*
X76225741Y-92263918D01*
X76225731Y-92263921D01*
X76098259Y-92316721D01*
X76098246Y-92316728D01*
X75983522Y-92393385D01*
X75983518Y-92393388D01*
X75885952Y-92490954D01*
X75885949Y-92490958D01*
X75809292Y-92605682D01*
X75809285Y-92605695D01*
X75756485Y-92733167D01*
X75756482Y-92733177D01*
X75729564Y-92868504D01*
X75729564Y-92868507D01*
X75729564Y-93006493D01*
X75729564Y-93006495D01*
X75729563Y-93006495D01*
X22750000Y-93006495D01*
X22750000Y-87453711D01*
X24849500Y-87453711D01*
X24849500Y-87696288D01*
X24881161Y-87936785D01*
X24943947Y-88171104D01*
X25012399Y-88336361D01*
X25036776Y-88395212D01*
X25158064Y-88605289D01*
X25158066Y-88605292D01*
X25158067Y-88605293D01*
X25305733Y-88797736D01*
X25305739Y-88797743D01*
X25477256Y-88969260D01*
X25477262Y-88969265D01*
X25669711Y-89116936D01*
X25879788Y-89238224D01*
X26103900Y-89331054D01*
X26338211Y-89393838D01*
X26518586Y-89417584D01*
X26578711Y-89425500D01*
X26578712Y-89425500D01*
X26821289Y-89425500D01*
X26869388Y-89419167D01*
X27061789Y-89393838D01*
X27296100Y-89331054D01*
X27520212Y-89238224D01*
X27730289Y-89116936D01*
X27922738Y-88969265D01*
X28094265Y-88797738D01*
X28241936Y-88605289D01*
X28363224Y-88395212D01*
X28456054Y-88171100D01*
X28518838Y-87936789D01*
X28550500Y-87696288D01*
X28550500Y-87453712D01*
X28546292Y-87421752D01*
X28542584Y-87393586D01*
X28518838Y-87213211D01*
X28456054Y-86978900D01*
X28363224Y-86754788D01*
X28241936Y-86544711D01*
X28094265Y-86352262D01*
X28094260Y-86352256D01*
X27922743Y-86180739D01*
X27922736Y-86180733D01*
X27730293Y-86033067D01*
X27730292Y-86033066D01*
X27730289Y-86033064D01*
X27520212Y-85911776D01*
X27520205Y-85911773D01*
X27296104Y-85818947D01*
X27061785Y-85756161D01*
X26821289Y-85724500D01*
X26821288Y-85724500D01*
X26578712Y-85724500D01*
X26578711Y-85724500D01*
X26338214Y-85756161D01*
X26103895Y-85818947D01*
X25879794Y-85911773D01*
X25879785Y-85911777D01*
X25669706Y-86033067D01*
X25477263Y-86180733D01*
X25477256Y-86180739D01*
X25305739Y-86352256D01*
X25305733Y-86352263D01*
X25158067Y-86544706D01*
X25036777Y-86754785D01*
X25036773Y-86754794D01*
X24943947Y-86978895D01*
X24881161Y-87213214D01*
X24849500Y-87453711D01*
X22750000Y-87453711D01*
X22750000Y-74103303D01*
X27000000Y-74103303D01*
X27000000Y-74917500D01*
X28500000Y-74917500D01*
X28500000Y-75417500D01*
X27000001Y-75417500D01*
X27000001Y-76231697D01*
X27010400Y-76363832D01*
X27065377Y-76582019D01*
X27158428Y-76786874D01*
X27158431Y-76786880D01*
X27286559Y-76971823D01*
X27286569Y-76971835D01*
X27445664Y-77130930D01*
X27445676Y-77130940D01*
X27630619Y-77259068D01*
X27630625Y-77259071D01*
X27835480Y-77352122D01*
X28053667Y-77407099D01*
X28185810Y-77417499D01*
X28749999Y-77417499D01*
X28750000Y-77417498D01*
X28750000Y-76600512D01*
X28807007Y-76633425D01*
X28934174Y-76667500D01*
X29065826Y-76667500D01*
X29192993Y-76633425D01*
X29250000Y-76600512D01*
X29250000Y-77417499D01*
X29814182Y-77417499D01*
X29814197Y-77417498D01*
X29946332Y-77407099D01*
X30164519Y-77352122D01*
X30369374Y-77259071D01*
X30369380Y-77259068D01*
X30554323Y-77130940D01*
X30554335Y-77130930D01*
X30713430Y-76971835D01*
X30713440Y-76971823D01*
X30841568Y-76786880D01*
X30841571Y-76786874D01*
X30934622Y-76582019D01*
X30989599Y-76363832D01*
X30999999Y-76231696D01*
X31000000Y-76231684D01*
X31000000Y-75417500D01*
X29500000Y-75417500D01*
X29500000Y-74917500D01*
X30999999Y-74917500D01*
X30999999Y-74103317D01*
X30999998Y-74103302D01*
X30989599Y-73971167D01*
X30934622Y-73752980D01*
X30841571Y-73548125D01*
X30841568Y-73548119D01*
X30713440Y-73363176D01*
X30713430Y-73363164D01*
X30554335Y-73204069D01*
X30554323Y-73204059D01*
X30369380Y-73075931D01*
X30369374Y-73075928D01*
X30164519Y-72982877D01*
X29946332Y-72927900D01*
X29814196Y-72917500D01*
X29250000Y-72917500D01*
X29250000Y-73734488D01*
X29192993Y-73701575D01*
X29065826Y-73667500D01*
X28934174Y-73667500D01*
X28807007Y-73701575D01*
X28750000Y-73734488D01*
X28750000Y-72917500D01*
X28185817Y-72917500D01*
X28185802Y-72917501D01*
X28053667Y-72927900D01*
X27835480Y-72982877D01*
X27630625Y-73075928D01*
X27630619Y-73075931D01*
X27445676Y-73204059D01*
X27445664Y-73204069D01*
X27286569Y-73363164D01*
X27286559Y-73363176D01*
X27158431Y-73548119D01*
X27158428Y-73548125D01*
X27065377Y-73752980D01*
X27010400Y-73971167D01*
X27000000Y-74103303D01*
X22750000Y-74103303D01*
X22750000Y-65156995D01*
X25499500Y-65156995D01*
X25499500Y-65393004D01*
X25499501Y-65393020D01*
X25530306Y-65627010D01*
X25591394Y-65854993D01*
X25681714Y-66073045D01*
X25681719Y-66073056D01*
X25752677Y-66195957D01*
X25799727Y-66277450D01*
X25799729Y-66277453D01*
X25799730Y-66277454D01*
X25943406Y-66464697D01*
X25943412Y-66464704D01*
X26110295Y-66631587D01*
X26110301Y-66631592D01*
X26297550Y-66775273D01*
X26428918Y-66851118D01*
X26501943Y-66893280D01*
X26501948Y-66893282D01*
X26501951Y-66893284D01*
X26720007Y-66983606D01*
X26947986Y-67044693D01*
X27181989Y-67075500D01*
X27181996Y-67075500D01*
X27418004Y-67075500D01*
X27418011Y-67075500D01*
X27652014Y-67044693D01*
X27879993Y-66983606D01*
X28098049Y-66893284D01*
X28302450Y-66775273D01*
X28489699Y-66631592D01*
X28656592Y-66464699D01*
X28800273Y-66277450D01*
X28918284Y-66073049D01*
X29008606Y-65854993D01*
X29069693Y-65627014D01*
X29100500Y-65393011D01*
X29100500Y-65156989D01*
X29069693Y-64922986D01*
X29008606Y-64695007D01*
X28918284Y-64476951D01*
X28918282Y-64476948D01*
X28918280Y-64476943D01*
X28874207Y-64400607D01*
X28800273Y-64272550D01*
X28656592Y-64085301D01*
X28656587Y-64085295D01*
X28489704Y-63918412D01*
X28489697Y-63918406D01*
X28302454Y-63774730D01*
X28302453Y-63774729D01*
X28302450Y-63774727D01*
X28220957Y-63727677D01*
X28098056Y-63656719D01*
X28098045Y-63656714D01*
X27879993Y-63566394D01*
X27652010Y-63505306D01*
X27418020Y-63474501D01*
X27418017Y-63474500D01*
X27418011Y-63474500D01*
X27181989Y-63474500D01*
X27181983Y-63474500D01*
X27181979Y-63474501D01*
X26947989Y-63505306D01*
X26720006Y-63566394D01*
X26501954Y-63656714D01*
X26501943Y-63656719D01*
X26339292Y-63750627D01*
X26300812Y-63772844D01*
X26297545Y-63774730D01*
X26110302Y-63918406D01*
X26110295Y-63918412D01*
X25943412Y-64085295D01*
X25943406Y-64085302D01*
X25799730Y-64272545D01*
X25681719Y-64476943D01*
X25681714Y-64476954D01*
X25591394Y-64695006D01*
X25530306Y-64922989D01*
X25499501Y-65156979D01*
X25499500Y-65156995D01*
X22750000Y-65156995D01*
X22750000Y-60157014D01*
X25500000Y-60157014D01*
X25500000Y-60392985D01*
X25530799Y-60626914D01*
X25591870Y-60854837D01*
X25682160Y-61072819D01*
X25682165Y-61072828D01*
X25800144Y-61277171D01*
X25800145Y-61277172D01*
X25862721Y-61358723D01*
X26698958Y-60522487D01*
X26723978Y-60582890D01*
X26795112Y-60689351D01*
X26885649Y-60779888D01*
X26992110Y-60851022D01*
X27052511Y-60876041D01*
X26216275Y-61712277D01*
X26297827Y-61774854D01*
X26297828Y-61774855D01*
X26502171Y-61892834D01*
X26502180Y-61892839D01*
X26720163Y-61983129D01*
X26720161Y-61983129D01*
X26948085Y-62044200D01*
X27182014Y-62074999D01*
X27182029Y-62075000D01*
X27417971Y-62075000D01*
X27417985Y-62074999D01*
X27651914Y-62044200D01*
X27879837Y-61983129D01*
X28097819Y-61892839D01*
X28097828Y-61892834D01*
X28302181Y-61774850D01*
X28383723Y-61712279D01*
X28383723Y-61712276D01*
X27547487Y-60876041D01*
X27607890Y-60851022D01*
X27714351Y-60779888D01*
X27804888Y-60689351D01*
X27876022Y-60582890D01*
X27901041Y-60522487D01*
X28737276Y-61358723D01*
X28737279Y-61358723D01*
X28799850Y-61277181D01*
X28917834Y-61072828D01*
X28917839Y-61072819D01*
X29008129Y-60854837D01*
X29069200Y-60626914D01*
X29099999Y-60392985D01*
X29100000Y-60392971D01*
X29100000Y-60157028D01*
X29099999Y-60157014D01*
X29069200Y-59923085D01*
X29008129Y-59695162D01*
X28917839Y-59477180D01*
X28917834Y-59477171D01*
X28799855Y-59272828D01*
X28799854Y-59272827D01*
X28737277Y-59191275D01*
X27901041Y-60027511D01*
X27876022Y-59967110D01*
X27804888Y-59860649D01*
X27714351Y-59770112D01*
X27607890Y-59698978D01*
X27547488Y-59673958D01*
X28383723Y-58837721D01*
X28302172Y-58775145D01*
X28302171Y-58775144D01*
X28097828Y-58657165D01*
X28097819Y-58657160D01*
X27879836Y-58566870D01*
X27879838Y-58566870D01*
X27651914Y-58505799D01*
X27417985Y-58475000D01*
X27182014Y-58475000D01*
X26948085Y-58505799D01*
X26720162Y-58566870D01*
X26502180Y-58657160D01*
X26502171Y-58657165D01*
X26297828Y-58775144D01*
X26297818Y-58775150D01*
X26216275Y-58837720D01*
X26216275Y-58837721D01*
X27052512Y-59673958D01*
X26992110Y-59698978D01*
X26885649Y-59770112D01*
X26795112Y-59860649D01*
X26723978Y-59967110D01*
X26698958Y-60027512D01*
X25862721Y-59191275D01*
X25862720Y-59191275D01*
X25800150Y-59272818D01*
X25800144Y-59272828D01*
X25682165Y-59477171D01*
X25682160Y-59477180D01*
X25591870Y-59695162D01*
X25530799Y-59923085D01*
X25500000Y-60157014D01*
X22750000Y-60157014D01*
X22750000Y-32824983D01*
X25499500Y-32824983D01*
X25499500Y-35025001D01*
X25499501Y-35025018D01*
X25510000Y-35127796D01*
X25510001Y-35127799D01*
X25565185Y-35294331D01*
X25565187Y-35294336D01*
X25597287Y-35346378D01*
X25657288Y-35443656D01*
X25781344Y-35567712D01*
X25930666Y-35659814D01*
X26097203Y-35714999D01*
X26199991Y-35725500D01*
X28400008Y-35725499D01*
X28502797Y-35714999D01*
X28669334Y-35659814D01*
X28818656Y-35567712D01*
X28942712Y-35443656D01*
X29019961Y-35318413D01*
X29071909Y-35271689D01*
X29140871Y-35260466D01*
X29204953Y-35288309D01*
X29243810Y-35346378D01*
X29249500Y-35383510D01*
X29249500Y-38303601D01*
X29229815Y-38370640D01*
X29177011Y-38416395D01*
X29107853Y-38426339D01*
X29044297Y-38397314D01*
X29011316Y-38348277D01*
X29010159Y-38348757D01*
X29008605Y-38345006D01*
X28918284Y-38126951D01*
X28918282Y-38126948D01*
X28918280Y-38126943D01*
X28876118Y-38053918D01*
X28800273Y-37922550D01*
X28656592Y-37735301D01*
X28656587Y-37735295D01*
X28489704Y-37568412D01*
X28489697Y-37568406D01*
X28302454Y-37424730D01*
X28302453Y-37424729D01*
X28302450Y-37424727D01*
X28220957Y-37377677D01*
X28098056Y-37306719D01*
X28098045Y-37306714D01*
X27879993Y-37216394D01*
X27652010Y-37155306D01*
X27418020Y-37124501D01*
X27418017Y-37124500D01*
X27418011Y-37124500D01*
X27181989Y-37124500D01*
X27181983Y-37124500D01*
X27181979Y-37124501D01*
X26947989Y-37155306D01*
X26720006Y-37216394D01*
X26501954Y-37306714D01*
X26501943Y-37306719D01*
X26297545Y-37424730D01*
X26110302Y-37568406D01*
X26110295Y-37568412D01*
X25943412Y-37735295D01*
X25943406Y-37735302D01*
X25799730Y-37922545D01*
X25681719Y-38126943D01*
X25681714Y-38126954D01*
X25591394Y-38345006D01*
X25530306Y-38572989D01*
X25499501Y-38806979D01*
X25499500Y-38806995D01*
X25499500Y-39043004D01*
X25499501Y-39043020D01*
X25528913Y-39266431D01*
X25530307Y-39277014D01*
X25547184Y-39340000D01*
X25591394Y-39504993D01*
X25681714Y-39723045D01*
X25681719Y-39723056D01*
X25698699Y-39752465D01*
X25799727Y-39927450D01*
X25799729Y-39927453D01*
X25799730Y-39927454D01*
X25943406Y-40114697D01*
X25943412Y-40114704D01*
X26110295Y-40281587D01*
X26110302Y-40281593D01*
X26177580Y-40333217D01*
X26297550Y-40425273D01*
X26428918Y-40501118D01*
X26501943Y-40543280D01*
X26501948Y-40543282D01*
X26501951Y-40543284D01*
X26720007Y-40633606D01*
X26947986Y-40694693D01*
X27181989Y-40725500D01*
X27181996Y-40725500D01*
X27418004Y-40725500D01*
X27418011Y-40725500D01*
X27652014Y-40694693D01*
X27879993Y-40633606D01*
X28098049Y-40543284D01*
X28302450Y-40425273D01*
X28489699Y-40281592D01*
X28656592Y-40114699D01*
X28800273Y-39927450D01*
X28918284Y-39723049D01*
X29008606Y-39504993D01*
X29008606Y-39504990D01*
X29010159Y-39501243D01*
X29011434Y-39501771D01*
X29048267Y-39449387D01*
X29112976Y-39423032D01*
X29181660Y-39435845D01*
X29232515Y-39483757D01*
X29249500Y-39546398D01*
X29249500Y-43305160D01*
X29229815Y-43372199D01*
X29177011Y-43417954D01*
X29107853Y-43427898D01*
X29044297Y-43398873D01*
X29010480Y-43348588D01*
X29009685Y-43348918D01*
X28917839Y-43127180D01*
X28917834Y-43127171D01*
X28799855Y-42922828D01*
X28799854Y-42922827D01*
X28737277Y-42841275D01*
X27901041Y-43677511D01*
X27876022Y-43617110D01*
X27804888Y-43510649D01*
X27714351Y-43420112D01*
X27607890Y-43348978D01*
X27547488Y-43323958D01*
X28383723Y-42487721D01*
X28302172Y-42425145D01*
X28302171Y-42425144D01*
X28097828Y-42307165D01*
X28097819Y-42307160D01*
X27879836Y-42216870D01*
X27879838Y-42216870D01*
X27651914Y-42155799D01*
X27417985Y-42125000D01*
X27182014Y-42125000D01*
X26948085Y-42155799D01*
X26720162Y-42216870D01*
X26502180Y-42307160D01*
X26502171Y-42307165D01*
X26297828Y-42425144D01*
X26297818Y-42425150D01*
X26216275Y-42487720D01*
X26216275Y-42487721D01*
X27052512Y-43323958D01*
X26992110Y-43348978D01*
X26885649Y-43420112D01*
X26795112Y-43510649D01*
X26723978Y-43617110D01*
X26698958Y-43677512D01*
X25862721Y-42841275D01*
X25862720Y-42841275D01*
X25800150Y-42922818D01*
X25800144Y-42922828D01*
X25682165Y-43127171D01*
X25682160Y-43127180D01*
X25591870Y-43345162D01*
X25530799Y-43573085D01*
X25500000Y-43807014D01*
X25500000Y-44042985D01*
X25530799Y-44276914D01*
X25591870Y-44504837D01*
X25682160Y-44722819D01*
X25682165Y-44722828D01*
X25800144Y-44927171D01*
X25800145Y-44927172D01*
X25862721Y-45008723D01*
X26698958Y-44172487D01*
X26723978Y-44232890D01*
X26795112Y-44339351D01*
X26885649Y-44429888D01*
X26992110Y-44501022D01*
X27052511Y-44526041D01*
X26216275Y-45362277D01*
X26297827Y-45424854D01*
X26297828Y-45424855D01*
X26502171Y-45542834D01*
X26502180Y-45542839D01*
X26720163Y-45633129D01*
X26720161Y-45633129D01*
X26948085Y-45694200D01*
X27182014Y-45724999D01*
X27182029Y-45725000D01*
X27417971Y-45725000D01*
X27417985Y-45724999D01*
X27651914Y-45694200D01*
X27879837Y-45633129D01*
X28097819Y-45542839D01*
X28097828Y-45542834D01*
X28302181Y-45424850D01*
X28383723Y-45362279D01*
X28383723Y-45362276D01*
X27547487Y-44526041D01*
X27607890Y-44501022D01*
X27714351Y-44429888D01*
X27804888Y-44339351D01*
X27876022Y-44232890D01*
X27901041Y-44172487D01*
X28737276Y-45008723D01*
X28737279Y-45008723D01*
X28799850Y-44927181D01*
X28917834Y-44722828D01*
X28917839Y-44722819D01*
X29009685Y-44501082D01*
X29010567Y-44501447D01*
X29048263Y-44447832D01*
X29112970Y-44421474D01*
X29181656Y-44434283D01*
X29232512Y-44482194D01*
X29249500Y-44544839D01*
X29249500Y-48816489D01*
X29229815Y-48883528D01*
X29177011Y-48929283D01*
X29107853Y-48939227D01*
X29044297Y-48910202D01*
X29019961Y-48881586D01*
X28942712Y-48756344D01*
X28818656Y-48632288D01*
X28669334Y-48540186D01*
X28502797Y-48485001D01*
X28502795Y-48485000D01*
X28400010Y-48474500D01*
X26199998Y-48474500D01*
X26199981Y-48474501D01*
X26097203Y-48485000D01*
X26097200Y-48485001D01*
X25930668Y-48540185D01*
X25930663Y-48540187D01*
X25781342Y-48632289D01*
X25657289Y-48756342D01*
X25565187Y-48905663D01*
X25565185Y-48905668D01*
X25561018Y-48918243D01*
X25510001Y-49072203D01*
X25510001Y-49072204D01*
X25510000Y-49072204D01*
X25499500Y-49174983D01*
X25499500Y-51375001D01*
X25499501Y-51375018D01*
X25510000Y-51477796D01*
X25510001Y-51477799D01*
X25565185Y-51644331D01*
X25565187Y-51644336D01*
X25590201Y-51684890D01*
X25657288Y-51793656D01*
X25781344Y-51917712D01*
X25930666Y-52009814D01*
X26097203Y-52064999D01*
X26199991Y-52075500D01*
X28400008Y-52075499D01*
X28502797Y-52064999D01*
X28669334Y-52009814D01*
X28818656Y-51917712D01*
X28942712Y-51793656D01*
X29019961Y-51668413D01*
X29071909Y-51621689D01*
X29140871Y-51610466D01*
X29204953Y-51638309D01*
X29243810Y-51696378D01*
X29249500Y-51733510D01*
X29249500Y-52971348D01*
X29229815Y-53038387D01*
X29213181Y-53059029D01*
X28489699Y-53782510D01*
X28428376Y-53815995D01*
X28358684Y-53811011D01*
X28326533Y-53793206D01*
X28302448Y-53774725D01*
X28098056Y-53656719D01*
X28098045Y-53656714D01*
X27879993Y-53566394D01*
X27652010Y-53505306D01*
X27418020Y-53474501D01*
X27418017Y-53474500D01*
X27418011Y-53474500D01*
X27181989Y-53474500D01*
X27181983Y-53474500D01*
X27181979Y-53474501D01*
X26947989Y-53505306D01*
X26720006Y-53566394D01*
X26501954Y-53656714D01*
X26501943Y-53656719D01*
X26317153Y-53763409D01*
X26297554Y-53774725D01*
X26297545Y-53774730D01*
X26110302Y-53918406D01*
X26110295Y-53918412D01*
X25943412Y-54085295D01*
X25943406Y-54085302D01*
X25799730Y-54272545D01*
X25681719Y-54476943D01*
X25681714Y-54476954D01*
X25591394Y-54695006D01*
X25530306Y-54922989D01*
X25499501Y-55156979D01*
X25499500Y-55156995D01*
X25499500Y-55393004D01*
X25499501Y-55393020D01*
X25527438Y-55605227D01*
X25530307Y-55627014D01*
X25531868Y-55632838D01*
X25591394Y-55854993D01*
X25681714Y-56073045D01*
X25681719Y-56073056D01*
X25717363Y-56134792D01*
X25799727Y-56277450D01*
X25799729Y-56277453D01*
X25799730Y-56277454D01*
X25943406Y-56464697D01*
X25943412Y-56464704D01*
X26110295Y-56631587D01*
X26110302Y-56631593D01*
X26138956Y-56653580D01*
X26297550Y-56775273D01*
X26410211Y-56840318D01*
X26501943Y-56893280D01*
X26501948Y-56893282D01*
X26501951Y-56893284D01*
X26720007Y-56983606D01*
X26947986Y-57044693D01*
X27181989Y-57075500D01*
X27181996Y-57075500D01*
X27418004Y-57075500D01*
X27418011Y-57075500D01*
X27652014Y-57044693D01*
X27879993Y-56983606D01*
X28098049Y-56893284D01*
X28302450Y-56775273D01*
X28489699Y-56631592D01*
X28656592Y-56464699D01*
X28800273Y-56277450D01*
X28918284Y-56073049D01*
X29008606Y-55854993D01*
X29068019Y-55633261D01*
X29100110Y-55577677D01*
X30760627Y-53917162D01*
X30853704Y-53777863D01*
X30917816Y-53623081D01*
X30922083Y-53601632D01*
X30950500Y-53458767D01*
X30950500Y-50818437D01*
X30970185Y-50751398D01*
X31022989Y-50705643D01*
X31092147Y-50695699D01*
X31155703Y-50724724D01*
X31177602Y-50749546D01*
X31189372Y-50767161D01*
X31189375Y-50767165D01*
X36913181Y-56490970D01*
X36946666Y-56552293D01*
X36949500Y-56578651D01*
X36949500Y-72795256D01*
X36929815Y-72862295D01*
X36877011Y-72908050D01*
X36812247Y-72918545D01*
X36797873Y-72917000D01*
X36797864Y-72917000D01*
X33202129Y-72917000D01*
X33202123Y-72917001D01*
X33142516Y-72923408D01*
X33007671Y-72973702D01*
X33007664Y-72973706D01*
X32892455Y-73059952D01*
X32892452Y-73059955D01*
X32806206Y-73175164D01*
X32806202Y-73175171D01*
X32755908Y-73310017D01*
X32749501Y-73369616D01*
X32749500Y-73369635D01*
X32749500Y-76965370D01*
X32749501Y-76965376D01*
X32755908Y-77024983D01*
X32806202Y-77159828D01*
X32806206Y-77159835D01*
X32892452Y-77275044D01*
X32892455Y-77275047D01*
X33007664Y-77361293D01*
X33007673Y-77361298D01*
X33054937Y-77378926D01*
X33110871Y-77420796D01*
X33135289Y-77486260D01*
X33120438Y-77554533D01*
X33071033Y-77603939D01*
X33005028Y-77618933D01*
X32968657Y-77617001D01*
X32968628Y-77617000D01*
X32968622Y-77617000D01*
X31031378Y-77617000D01*
X31031370Y-77617000D01*
X31031347Y-77617001D01*
X30978756Y-77619795D01*
X30978755Y-77619795D01*
X30748878Y-77664254D01*
X30748876Y-77664254D01*
X30748874Y-77664255D01*
X30674933Y-77692159D01*
X30529810Y-77746925D01*
X30327868Y-77865429D01*
X30327861Y-77865434D01*
X30148858Y-78016356D01*
X30148856Y-78016358D01*
X29997934Y-78195361D01*
X29997929Y-78195368D01*
X29879425Y-78397310D01*
X29824659Y-78542433D01*
X29796755Y-78616374D01*
X29796754Y-78616376D01*
X29796754Y-78616378D01*
X29752295Y-78846255D01*
X29752295Y-78846256D01*
X29749501Y-78898847D01*
X29749500Y-78898886D01*
X29749500Y-80836113D01*
X29749501Y-80836152D01*
X29752295Y-80888743D01*
X29752295Y-80888744D01*
X29781967Y-81042162D01*
X29796755Y-81118626D01*
X29833941Y-81217162D01*
X29879425Y-81337689D01*
X29997929Y-81539631D01*
X29997934Y-81539638D01*
X30148856Y-81718641D01*
X30148858Y-81718643D01*
X30327861Y-81869565D01*
X30327868Y-81869570D01*
X30529810Y-81988074D01*
X30748874Y-82070745D01*
X30978759Y-82115205D01*
X31031378Y-82118000D01*
X31031386Y-82118000D01*
X32968614Y-82118000D01*
X32968622Y-82118000D01*
X33021241Y-82115205D01*
X33251126Y-82070745D01*
X33470190Y-81988074D01*
X33672132Y-81869570D01*
X33672138Y-81869565D01*
X33851141Y-81718643D01*
X33851143Y-81718641D01*
X34002065Y-81539638D01*
X34002065Y-81539637D01*
X34002070Y-81539632D01*
X34120574Y-81337690D01*
X34203245Y-81118626D01*
X34247705Y-80888741D01*
X34250500Y-80836122D01*
X34250500Y-78898878D01*
X34247705Y-78846259D01*
X34203245Y-78616374D01*
X34120574Y-78397310D01*
X34002070Y-78195368D01*
X34002065Y-78195361D01*
X33851143Y-78016358D01*
X33851141Y-78016356D01*
X33672138Y-77865434D01*
X33672131Y-77865429D01*
X33470189Y-77746925D01*
X33372513Y-77710064D01*
X33251126Y-77664255D01*
X33251121Y-77664254D01*
X33251116Y-77664252D01*
X33248470Y-77663740D01*
X33247451Y-77663213D01*
X33246050Y-77662817D01*
X33246130Y-77662531D01*
X33186392Y-77631677D01*
X33151503Y-77571141D01*
X33154881Y-77501353D01*
X33195452Y-77444470D01*
X33260337Y-77418552D01*
X33272009Y-77417999D01*
X36797872Y-77417999D01*
X36812242Y-77416454D01*
X36881001Y-77428857D01*
X36932140Y-77476466D01*
X36949500Y-77539743D01*
X36949500Y-80758771D01*
X36982181Y-80923073D01*
X36982184Y-80923082D01*
X37046296Y-81077863D01*
X37046297Y-81077866D01*
X37139372Y-81217161D01*
X37139375Y-81217165D01*
X39007834Y-83085624D01*
X39007838Y-83085627D01*
X39147137Y-83178704D01*
X39147139Y-83178705D01*
X39147143Y-83178707D01*
X39224158Y-83210606D01*
X39256584Y-83224037D01*
X39301918Y-83242816D01*
X39466228Y-83275499D01*
X39466232Y-83275500D01*
X39466233Y-83275500D01*
X52626349Y-83275500D01*
X52693388Y-83295185D01*
X52714030Y-83311819D01*
X61092834Y-91690624D01*
X61092838Y-91690627D01*
X61232132Y-91783701D01*
X61232133Y-91783701D01*
X61232137Y-91783704D01*
X61314917Y-91817992D01*
X61386918Y-91847816D01*
X61551228Y-91880499D01*
X61551232Y-91880500D01*
X61551233Y-91880500D01*
X61551234Y-91880500D01*
X61718767Y-91880500D01*
X66501129Y-91880500D01*
X66568168Y-91900185D01*
X66601446Y-91931613D01*
X66609257Y-91942363D01*
X66609259Y-91942366D01*
X66765136Y-92098243D01*
X66765141Y-92098247D01*
X66861211Y-92168045D01*
X66943478Y-92227815D01*
X67051495Y-92282853D01*
X67139893Y-92327895D01*
X67139896Y-92327896D01*
X67244721Y-92361955D01*
X67349549Y-92396015D01*
X67567278Y-92430500D01*
X67567279Y-92430500D01*
X67787721Y-92430500D01*
X67787722Y-92430500D01*
X68005451Y-92396015D01*
X68215106Y-92327895D01*
X68411522Y-92227815D01*
X68589865Y-92098242D01*
X68745742Y-91942365D01*
X68875315Y-91764022D01*
X68975395Y-91567606D01*
X69043515Y-91357951D01*
X69078000Y-91140222D01*
X69078000Y-91099500D01*
X69097685Y-91032461D01*
X69150489Y-90986706D01*
X69202000Y-90975500D01*
X88146349Y-90975500D01*
X88213388Y-90995185D01*
X88234030Y-91011819D01*
X91157834Y-93935624D01*
X91157838Y-93935627D01*
X91297137Y-94028704D01*
X91297139Y-94028705D01*
X91297143Y-94028707D01*
X91379222Y-94062703D01*
X91406584Y-94074037D01*
X91451918Y-94092816D01*
X91616228Y-94125499D01*
X91616232Y-94125500D01*
X91616233Y-94125500D01*
X94933768Y-94125500D01*
X94933769Y-94125499D01*
X94988538Y-94114605D01*
X95098074Y-94092818D01*
X95098078Y-94092816D01*
X95098082Y-94092816D01*
X95143415Y-94074037D01*
X95252863Y-94028704D01*
X95392162Y-93935627D01*
X96213930Y-93113858D01*
X96307008Y-92974559D01*
X96371120Y-92819777D01*
X96403804Y-92655463D01*
X96403804Y-92487929D01*
X96403804Y-87553711D01*
X98249500Y-87553711D01*
X98249500Y-87796288D01*
X98281161Y-88036785D01*
X98343947Y-88271104D01*
X98436773Y-88495205D01*
X98436776Y-88495212D01*
X98558064Y-88705289D01*
X98558066Y-88705292D01*
X98558067Y-88705293D01*
X98705733Y-88897736D01*
X98705739Y-88897743D01*
X98877256Y-89069260D01*
X98877263Y-89069266D01*
X98939383Y-89116932D01*
X99069711Y-89216936D01*
X99279788Y-89338224D01*
X99503900Y-89431054D01*
X99738211Y-89493838D01*
X99918586Y-89517584D01*
X99978711Y-89525500D01*
X99978712Y-89525500D01*
X100221289Y-89525500D01*
X100269388Y-89519167D01*
X100461789Y-89493838D01*
X100696100Y-89431054D01*
X100920212Y-89338224D01*
X101130289Y-89216936D01*
X101322738Y-89069265D01*
X101494265Y-88897738D01*
X101641936Y-88705289D01*
X101763224Y-88495212D01*
X101856054Y-88271100D01*
X101918838Y-88036789D01*
X101950500Y-87796288D01*
X101950500Y-87553712D01*
X101918838Y-87313211D01*
X101856054Y-87078900D01*
X101763224Y-86854788D01*
X101641936Y-86644711D01*
X101581018Y-86565321D01*
X101494266Y-86452263D01*
X101494260Y-86452256D01*
X101322743Y-86280739D01*
X101322736Y-86280733D01*
X101130293Y-86133067D01*
X101130292Y-86133066D01*
X101130289Y-86133064D01*
X100920212Y-86011776D01*
X100920205Y-86011773D01*
X100696104Y-85918947D01*
X100461785Y-85856161D01*
X100221289Y-85824500D01*
X100221288Y-85824500D01*
X99978712Y-85824500D01*
X99978711Y-85824500D01*
X99738214Y-85856161D01*
X99503895Y-85918947D01*
X99279794Y-86011773D01*
X99279785Y-86011777D01*
X99069706Y-86133067D01*
X98877263Y-86280733D01*
X98877256Y-86280739D01*
X98705739Y-86452256D01*
X98705733Y-86452263D01*
X98558067Y-86644706D01*
X98436777Y-86854785D01*
X98436773Y-86854794D01*
X98343947Y-87078895D01*
X98281161Y-87313214D01*
X98249500Y-87553711D01*
X96403804Y-87553711D01*
X96403804Y-81775346D01*
X96423489Y-81708307D01*
X96440123Y-81687665D01*
X98315969Y-79811819D01*
X98377292Y-79778334D01*
X98403650Y-79775500D01*
X100533768Y-79775500D01*
X100533769Y-79775499D01*
X100624210Y-79757510D01*
X100698074Y-79742818D01*
X100698078Y-79742816D01*
X100698082Y-79742816D01*
X100743415Y-79724037D01*
X100852863Y-79678704D01*
X100992162Y-79585627D01*
X102160626Y-78417162D01*
X102253704Y-78277863D01*
X102287874Y-78195368D01*
X102317816Y-78123082D01*
X102350500Y-77958767D01*
X102350500Y-68691233D01*
X102317816Y-68526918D01*
X102253703Y-68372137D01*
X102192287Y-68280222D01*
X102160627Y-68232839D01*
X102160626Y-68232838D01*
X102042162Y-68114374D01*
X101390469Y-67462680D01*
X101356984Y-67401357D01*
X101361968Y-67331665D01*
X101390467Y-67287320D01*
X103150763Y-65527023D01*
X103169543Y-65511611D01*
X103279942Y-65437846D01*
X103398406Y-65319382D01*
X103491483Y-65180083D01*
X103555596Y-65025302D01*
X103588280Y-64860987D01*
X103588280Y-38779013D01*
X103555596Y-38614698D01*
X103528590Y-38549500D01*
X103524398Y-38539380D01*
X103511281Y-38507712D01*
X103491484Y-38459917D01*
X103491482Y-38459915D01*
X103491482Y-38459913D01*
X103398407Y-38320618D01*
X103398404Y-38320614D01*
X101692165Y-36614375D01*
X101692161Y-36614372D01*
X101552869Y-36521299D01*
X101552856Y-36521292D01*
X101415747Y-36464501D01*
X101398082Y-36457184D01*
X101398074Y-36457182D01*
X101233771Y-36424500D01*
X101233767Y-36424500D01*
X101066233Y-36424500D01*
X101066228Y-36424500D01*
X100938177Y-36449971D01*
X100868585Y-36443744D01*
X100813408Y-36400880D01*
X100808447Y-36393450D01*
X100717712Y-36246344D01*
X100593657Y-36122289D01*
X100593656Y-36122288D01*
X100444334Y-36030186D01*
X100277797Y-35975001D01*
X100277795Y-35975000D01*
X100175010Y-35964500D01*
X98624998Y-35964500D01*
X98624981Y-35964501D01*
X98522203Y-35975000D01*
X98522200Y-35975001D01*
X98355668Y-36030185D01*
X98355663Y-36030187D01*
X98206342Y-36122289D01*
X98082289Y-36246342D01*
X97990187Y-36395663D01*
X97990185Y-36395668D01*
X97969801Y-36457184D01*
X97935001Y-36562203D01*
X97935001Y-36562204D01*
X97935000Y-36562204D01*
X97924500Y-36664983D01*
X97924500Y-37965001D01*
X97924501Y-37965018D01*
X97935000Y-38067796D01*
X97935001Y-38067799D01*
X97990185Y-38234331D01*
X97990187Y-38234336D01*
X98017043Y-38277876D01*
X98082288Y-38383656D01*
X98206344Y-38507712D01*
X98312175Y-38572989D01*
X98361558Y-38603448D01*
X98408283Y-38655396D01*
X98419506Y-38724358D01*
X98391663Y-38788441D01*
X98384144Y-38796668D01*
X98245271Y-38935541D01*
X98120379Y-39107442D01*
X98023904Y-39296782D01*
X97958242Y-39498870D01*
X97958242Y-39498873D01*
X97947769Y-39565000D01*
X98995854Y-39565000D01*
X98957370Y-39631657D01*
X98925000Y-39752465D01*
X98925000Y-39877535D01*
X98957370Y-39998343D01*
X98995854Y-40065000D01*
X97947769Y-40065000D01*
X97958242Y-40131126D01*
X97958242Y-40131129D01*
X98023904Y-40333217D01*
X98120379Y-40522557D01*
X98245272Y-40694459D01*
X98245276Y-40694464D01*
X98395535Y-40844723D01*
X98395540Y-40844727D01*
X98560218Y-40964372D01*
X98602884Y-41019701D01*
X98608863Y-41089315D01*
X98576258Y-41151110D01*
X98560218Y-41165008D01*
X98395214Y-41284890D01*
X98395209Y-41284894D01*
X98244894Y-41435209D01*
X98244890Y-41435214D01*
X98123354Y-41602496D01*
X98081497Y-41638965D01*
X98077140Y-41641294D01*
X97937837Y-41734372D01*
X96639373Y-43032836D01*
X96627601Y-43050455D01*
X96573988Y-43095259D01*
X96504662Y-43103965D01*
X96441636Y-43073809D01*
X96404918Y-43014365D01*
X96400500Y-42981562D01*
X96400500Y-31451232D01*
X96400499Y-31451228D01*
X96367817Y-31286924D01*
X96367816Y-31286918D01*
X96349037Y-31241584D01*
X96303704Y-31132137D01*
X96210627Y-30992838D01*
X96210624Y-30992834D01*
X92866819Y-27649029D01*
X92833334Y-27587706D01*
X92830500Y-27561348D01*
X92830500Y-25674995D01*
X92830499Y-25674982D01*
X92819999Y-25572203D01*
X92799863Y-25511437D01*
X92764814Y-25405665D01*
X92672712Y-25256344D01*
X92548656Y-25132288D01*
X92455890Y-25075070D01*
X92399337Y-25040187D01*
X92399332Y-25040185D01*
X92389473Y-25036918D01*
X92232798Y-24985001D01*
X92232796Y-24985000D01*
X92130017Y-24974500D01*
X92130010Y-24974500D01*
X90449990Y-24974500D01*
X90449982Y-24974500D01*
X90347203Y-24985000D01*
X90347202Y-24985001D01*
X90264669Y-25012349D01*
X90180667Y-25040185D01*
X90180662Y-25040187D01*
X90031342Y-25132289D01*
X89907289Y-25256342D01*
X89815187Y-25405662D01*
X89815185Y-25405667D01*
X89810071Y-25421100D01*
X89760001Y-25572202D01*
X89760001Y-25572203D01*
X89760000Y-25572203D01*
X89749500Y-25674982D01*
X89749500Y-28875017D01*
X89760000Y-28977796D01*
X89815185Y-29144332D01*
X89815186Y-29144335D01*
X89907288Y-29293656D01*
X90031344Y-29417712D01*
X90180665Y-29509814D01*
X90347202Y-29564999D01*
X90449990Y-29575500D01*
X90449995Y-29575500D01*
X92130005Y-29575500D01*
X92130010Y-29575500D01*
X92232798Y-29564999D01*
X92268663Y-29553113D01*
X92338490Y-29550711D01*
X92395349Y-29583138D01*
X94663181Y-31850970D01*
X94696666Y-31912293D01*
X94699500Y-31938651D01*
X94699500Y-45025904D01*
X94679815Y-45092943D01*
X94627011Y-45138698D01*
X94557853Y-45148642D01*
X94494297Y-45119617D01*
X94456523Y-45060839D01*
X94453027Y-45045302D01*
X94443026Y-44982164D01*
X94374932Y-44772589D01*
X94274888Y-44576243D01*
X94228566Y-44512485D01*
X94228565Y-44512485D01*
X93519637Y-45221413D01*
X93496833Y-45136306D01*
X93437590Y-45033694D01*
X93353806Y-44949910D01*
X93251194Y-44890667D01*
X93166083Y-44867861D01*
X93875013Y-44158932D01*
X93811256Y-44112611D01*
X93614910Y-44012567D01*
X93405335Y-43944473D01*
X93187681Y-43910000D01*
X92967319Y-43910000D01*
X92749664Y-43944473D01*
X92540089Y-44012567D01*
X92343733Y-44112616D01*
X92279985Y-44158931D01*
X92279985Y-44158932D01*
X92988914Y-44867861D01*
X92903806Y-44890667D01*
X92801194Y-44949910D01*
X92717410Y-45033694D01*
X92658167Y-45136306D01*
X92635361Y-45221414D01*
X91926432Y-44512485D01*
X91926431Y-44512485D01*
X91880116Y-44576233D01*
X91780067Y-44772589D01*
X91711973Y-44982164D01*
X91677500Y-45199818D01*
X91677500Y-45420181D01*
X91711973Y-45637835D01*
X91780067Y-45847410D01*
X91880111Y-46043756D01*
X91926432Y-46107513D01*
X92635361Y-45398584D01*
X92658167Y-45483694D01*
X92717410Y-45586306D01*
X92801194Y-45670090D01*
X92903806Y-45729333D01*
X92988914Y-45752137D01*
X92279985Y-46461065D01*
X92279985Y-46461066D01*
X92305180Y-46479371D01*
X92347846Y-46534701D01*
X92353825Y-46604314D01*
X92321220Y-46666110D01*
X92305181Y-46680008D01*
X92165136Y-46781756D01*
X92009258Y-46937634D01*
X91970318Y-46991232D01*
X91892465Y-47098386D01*
X91837138Y-47141051D01*
X91792149Y-47149500D01*
X91731004Y-47149500D01*
X91595677Y-47176418D01*
X91595667Y-47176421D01*
X91468192Y-47229222D01*
X91353454Y-47305887D01*
X89405887Y-49253454D01*
X89378497Y-49294447D01*
X89351230Y-49335256D01*
X89329225Y-49368189D01*
X89329222Y-49368194D01*
X89276421Y-49495667D01*
X89276418Y-49495677D01*
X89249500Y-49631004D01*
X89249500Y-64408480D01*
X89229815Y-64475519D01*
X89213181Y-64496161D01*
X81005889Y-72703452D01*
X81005888Y-72703453D01*
X81002959Y-72707838D01*
X80929223Y-72818191D01*
X80876421Y-72945667D01*
X80876418Y-72945677D01*
X80849500Y-73081004D01*
X80849500Y-77612515D01*
X80829815Y-77679554D01*
X80777011Y-77725309D01*
X80707853Y-77735253D01*
X80656610Y-77715618D01*
X80578179Y-77663213D01*
X80552863Y-77646297D01*
X80552860Y-77646295D01*
X80552859Y-77646295D01*
X80398082Y-77582184D01*
X80398074Y-77582182D01*
X80233771Y-77549500D01*
X80233767Y-77549500D01*
X74466233Y-77549500D01*
X74466228Y-77549500D01*
X74301925Y-77582182D01*
X74301922Y-77582183D01*
X74301921Y-77582183D01*
X74301918Y-77582184D01*
X74269590Y-77595575D01*
X74200120Y-77603043D01*
X74137641Y-77571767D01*
X74101989Y-77511678D01*
X74104484Y-77441853D01*
X74134457Y-77393332D01*
X86870620Y-64657169D01*
X86870620Y-64657168D01*
X86870619Y-64657168D01*
X86870626Y-64657162D01*
X86963704Y-64517863D01*
X86993296Y-64446420D01*
X86999177Y-64432222D01*
X86999193Y-64432182D01*
X87027814Y-64363087D01*
X87027814Y-64363086D01*
X87027816Y-64363082D01*
X87060500Y-64198767D01*
X87060500Y-29384419D01*
X87080185Y-29317380D01*
X87111614Y-29284101D01*
X87213569Y-29210028D01*
X87385028Y-29038569D01*
X87527554Y-28842398D01*
X87637638Y-28626347D01*
X87712568Y-28395735D01*
X87732110Y-28272347D01*
X87750500Y-28156245D01*
X87750500Y-26393754D01*
X87722862Y-26219260D01*
X87712568Y-26154265D01*
X87637638Y-25923653D01*
X87527554Y-25707602D01*
X87482220Y-25645205D01*
X87385033Y-25511437D01*
X87385029Y-25511432D01*
X87213567Y-25339970D01*
X87213562Y-25339966D01*
X87017401Y-25197448D01*
X87017400Y-25197447D01*
X87017398Y-25197446D01*
X86889519Y-25132288D01*
X86801344Y-25087360D01*
X86570736Y-25012432D01*
X86331245Y-24974500D01*
X86331240Y-24974500D01*
X86088760Y-24974500D01*
X86088755Y-24974500D01*
X85849263Y-25012432D01*
X85618655Y-25087360D01*
X85402598Y-25197448D01*
X85206437Y-25339966D01*
X85206432Y-25339970D01*
X85034970Y-25511432D01*
X85034966Y-25511437D01*
X84892448Y-25707598D01*
X84782360Y-25923655D01*
X84707432Y-26154263D01*
X84669500Y-26393754D01*
X84669500Y-28156245D01*
X84707432Y-28395736D01*
X84782360Y-28626344D01*
X84892448Y-28842401D01*
X85034966Y-29038562D01*
X85034970Y-29038567D01*
X85206434Y-29210031D01*
X85273204Y-29258541D01*
X85308384Y-29284100D01*
X85351051Y-29339429D01*
X85359500Y-29384419D01*
X85359500Y-63711349D01*
X85339815Y-63778388D01*
X85323181Y-63799030D01*
X69139030Y-79983181D01*
X69077707Y-80016666D01*
X69051349Y-80019500D01*
X68853871Y-80019500D01*
X68786832Y-79999815D01*
X68753554Y-79968387D01*
X68745746Y-79957641D01*
X68745742Y-79957635D01*
X68589865Y-79801758D01*
X68589863Y-79801756D01*
X68589858Y-79801752D01*
X68449819Y-79700008D01*
X68407153Y-79644678D01*
X68401174Y-79575065D01*
X68433779Y-79513270D01*
X68449819Y-79499372D01*
X68475013Y-79481066D01*
X68475014Y-79481066D01*
X67766085Y-78772138D01*
X67851194Y-78749333D01*
X67953806Y-78690090D01*
X68037590Y-78606306D01*
X68096833Y-78503694D01*
X68119637Y-78418585D01*
X68828566Y-79127514D01*
X68828566Y-79127513D01*
X68874886Y-79063760D01*
X68974932Y-78867410D01*
X69043026Y-78657835D01*
X69077500Y-78440181D01*
X69077500Y-78219818D01*
X69043026Y-78002164D01*
X68974932Y-77792589D01*
X68874888Y-77596243D01*
X68828566Y-77532485D01*
X68828565Y-77532485D01*
X68119637Y-78241413D01*
X68096833Y-78156306D01*
X68037590Y-78053694D01*
X67953806Y-77969910D01*
X67851194Y-77910667D01*
X67766083Y-77887861D01*
X68475013Y-77178932D01*
X68449819Y-77160628D01*
X68407153Y-77105298D01*
X68401174Y-77035685D01*
X68433779Y-76973889D01*
X68449813Y-76959994D01*
X68589865Y-76858242D01*
X68745742Y-76702365D01*
X68875315Y-76524022D01*
X68975395Y-76327606D01*
X69043515Y-76117951D01*
X69078000Y-75900222D01*
X69078000Y-75679778D01*
X69043515Y-75462049D01*
X68975395Y-75252394D01*
X68975395Y-75252393D01*
X68940737Y-75184375D01*
X68875315Y-75055978D01*
X68858760Y-75033192D01*
X68745747Y-74877641D01*
X68745743Y-74877636D01*
X68589863Y-74721756D01*
X68589858Y-74721752D01*
X68450245Y-74620318D01*
X68407579Y-74564989D01*
X68401600Y-74495375D01*
X68434205Y-74433580D01*
X68450245Y-74419682D01*
X68589858Y-74318247D01*
X68589856Y-74318247D01*
X68589865Y-74318242D01*
X68745742Y-74162365D01*
X68753554Y-74151613D01*
X68808885Y-74108948D01*
X68853871Y-74100500D01*
X74358768Y-74100500D01*
X74358769Y-74100499D01*
X74413538Y-74089605D01*
X74523074Y-74067818D01*
X74523078Y-74067816D01*
X74523082Y-74067816D01*
X74568415Y-74049037D01*
X74677863Y-74003704D01*
X74817162Y-73910627D01*
X84660627Y-64067162D01*
X84753704Y-63927863D01*
X84799035Y-63818418D01*
X84799037Y-63818417D01*
X84817133Y-63774730D01*
X84817816Y-63773082D01*
X84817864Y-63772844D01*
X84850499Y-63608771D01*
X84850500Y-63608768D01*
X84850500Y-43841232D01*
X84850499Y-43841228D01*
X84817817Y-43676925D01*
X84817816Y-43676918D01*
X84770813Y-43563443D01*
X84753704Y-43522137D01*
X84753703Y-43522135D01*
X84753702Y-43522133D01*
X84660627Y-43382838D01*
X84660624Y-43382834D01*
X82016819Y-40739029D01*
X81983334Y-40677706D01*
X81980500Y-40651348D01*
X81980500Y-29384419D01*
X82000185Y-29317380D01*
X82031614Y-29284101D01*
X82133569Y-29210028D01*
X82305028Y-29038569D01*
X82447554Y-28842398D01*
X82557638Y-28626347D01*
X82632568Y-28395735D01*
X82652110Y-28272347D01*
X82670500Y-28156245D01*
X82670500Y-26393754D01*
X82642862Y-26219260D01*
X82632568Y-26154265D01*
X82557638Y-25923653D01*
X82447554Y-25707602D01*
X82402220Y-25645205D01*
X82305033Y-25511437D01*
X82305029Y-25511432D01*
X82133567Y-25339970D01*
X82133562Y-25339966D01*
X81937401Y-25197448D01*
X81937400Y-25197447D01*
X81937398Y-25197446D01*
X81809519Y-25132288D01*
X81721344Y-25087360D01*
X81490736Y-25012432D01*
X81251245Y-24974500D01*
X81251240Y-24974500D01*
X81008760Y-24974500D01*
X81008755Y-24974500D01*
X80769263Y-25012432D01*
X80538655Y-25087360D01*
X80322598Y-25197448D01*
X80126437Y-25339966D01*
X80126432Y-25339970D01*
X79954970Y-25511432D01*
X79954966Y-25511437D01*
X79812448Y-25707598D01*
X79702360Y-25923655D01*
X79627432Y-26154263D01*
X79589500Y-26393754D01*
X79589500Y-28156245D01*
X79627432Y-28395736D01*
X79702360Y-28626344D01*
X79812448Y-28842401D01*
X79954966Y-29038562D01*
X79954970Y-29038567D01*
X80126434Y-29210031D01*
X80193204Y-29258541D01*
X80228384Y-29284100D01*
X80271051Y-29339429D01*
X80279500Y-29384419D01*
X80279500Y-41138771D01*
X80312181Y-41303073D01*
X80312184Y-41303082D01*
X80376296Y-41457863D01*
X80376297Y-41457866D01*
X80469372Y-41597161D01*
X80469375Y-41597165D01*
X83113181Y-44240970D01*
X83146666Y-44302293D01*
X83149500Y-44328651D01*
X83149500Y-44381565D01*
X83129815Y-44448604D01*
X83077011Y-44494359D01*
X83007853Y-44504303D01*
X82944297Y-44475278D01*
X82922399Y-44450458D01*
X82910626Y-44432838D01*
X82910621Y-44432833D01*
X82910620Y-44432831D01*
X76936819Y-38459030D01*
X76903334Y-38397707D01*
X76900500Y-38371349D01*
X76900500Y-29384419D01*
X76920185Y-29317380D01*
X76951614Y-29284101D01*
X77053569Y-29210028D01*
X77225028Y-29038569D01*
X77367554Y-28842398D01*
X77477638Y-28626347D01*
X77552568Y-28395735D01*
X77572110Y-28272347D01*
X77590500Y-28156245D01*
X77590500Y-26393754D01*
X77562862Y-26219260D01*
X77552568Y-26154265D01*
X77477638Y-25923653D01*
X77367554Y-25707602D01*
X77322220Y-25645205D01*
X77225033Y-25511437D01*
X77225029Y-25511432D01*
X77053571Y-25339974D01*
X77053565Y-25339969D01*
X76951615Y-25265898D01*
X76908949Y-25210568D01*
X76900500Y-25165580D01*
X76900500Y-25041232D01*
X76900499Y-25041228D01*
X76867817Y-24876925D01*
X76867816Y-24876918D01*
X76803703Y-24722137D01*
X76791391Y-24703711D01*
X98349500Y-24703711D01*
X98349500Y-24946288D01*
X98378369Y-25165580D01*
X98381162Y-25186789D01*
X98396603Y-25244415D01*
X98443947Y-25421104D01*
X98536773Y-25645205D01*
X98536776Y-25645212D01*
X98658064Y-25855289D01*
X98658066Y-25855292D01*
X98658067Y-25855293D01*
X98805733Y-26047736D01*
X98805739Y-26047743D01*
X98977256Y-26219260D01*
X98977262Y-26219265D01*
X99169711Y-26366936D01*
X99379788Y-26488224D01*
X99603900Y-26581054D01*
X99838211Y-26643838D01*
X100018586Y-26667584D01*
X100078711Y-26675500D01*
X100078712Y-26675500D01*
X100321289Y-26675500D01*
X100369388Y-26669167D01*
X100561789Y-26643838D01*
X100796100Y-26581054D01*
X101020212Y-26488224D01*
X101230289Y-26366936D01*
X101422738Y-26219265D01*
X101594265Y-26047738D01*
X101741936Y-25855289D01*
X101863224Y-25645212D01*
X101956054Y-25421100D01*
X102018838Y-25186789D01*
X102050500Y-24946288D01*
X102050500Y-24703712D01*
X102018838Y-24463211D01*
X101956054Y-24228900D01*
X101863224Y-24004788D01*
X101741936Y-23794711D01*
X101594265Y-23602262D01*
X101594260Y-23602256D01*
X101422743Y-23430739D01*
X101422736Y-23430733D01*
X101230293Y-23283067D01*
X101230292Y-23283066D01*
X101230289Y-23283064D01*
X101020212Y-23161776D01*
X101020205Y-23161773D01*
X100796104Y-23068947D01*
X100561785Y-23006161D01*
X100321289Y-22974500D01*
X100321288Y-22974500D01*
X100078712Y-22974500D01*
X100078711Y-22974500D01*
X99838214Y-23006161D01*
X99603895Y-23068947D01*
X99379794Y-23161773D01*
X99379785Y-23161777D01*
X99169706Y-23283067D01*
X98977263Y-23430733D01*
X98977256Y-23430739D01*
X98805739Y-23602256D01*
X98805733Y-23602263D01*
X98658067Y-23794706D01*
X98536777Y-24004785D01*
X98536773Y-24004794D01*
X98443947Y-24228895D01*
X98381161Y-24463214D01*
X98349500Y-24703711D01*
X76791391Y-24703711D01*
X76710626Y-24582838D01*
X76592162Y-24464374D01*
X76356683Y-24228895D01*
X75092165Y-22964375D01*
X75092161Y-22964372D01*
X74952866Y-22871297D01*
X74952863Y-22871296D01*
X74843416Y-22825962D01*
X74843414Y-22825961D01*
X74798086Y-22807185D01*
X74798074Y-22807182D01*
X74633771Y-22774500D01*
X74633767Y-22774500D01*
X67466233Y-22774500D01*
X67466228Y-22774500D01*
X67301925Y-22807182D01*
X67301913Y-22807185D01*
X67237805Y-22833739D01*
X67237806Y-22833740D01*
X67147140Y-22871294D01*
X67147131Y-22871299D01*
X67007838Y-22964372D01*
X67007834Y-22964375D01*
X65229375Y-24742834D01*
X65229372Y-24742838D01*
X65136297Y-24882133D01*
X65136296Y-24882136D01*
X65096984Y-24977044D01*
X65096982Y-24977049D01*
X65093689Y-24985001D01*
X65072184Y-25036918D01*
X65041874Y-25189295D01*
X65040969Y-25192783D01*
X65024782Y-25219809D01*
X65010181Y-25247723D01*
X65005763Y-25251564D01*
X65005069Y-25252724D01*
X65003584Y-25253459D01*
X64993835Y-25261938D01*
X64886429Y-25339973D01*
X64714970Y-25511432D01*
X64714966Y-25511437D01*
X64572448Y-25707598D01*
X64462360Y-25923655D01*
X64387432Y-26154263D01*
X64349500Y-26393754D01*
X64349500Y-28156245D01*
X64387432Y-28395736D01*
X64462360Y-28626344D01*
X64572448Y-28842401D01*
X64714966Y-29038562D01*
X64714970Y-29038567D01*
X64886432Y-29210029D01*
X64886437Y-29210033D01*
X65001537Y-29293657D01*
X65082602Y-29352554D01*
X65293637Y-29460082D01*
X65298655Y-29462639D01*
X65389331Y-29492101D01*
X65529265Y-29537568D01*
X65636808Y-29554601D01*
X65768755Y-29575500D01*
X65768760Y-29575500D01*
X66011245Y-29575500D01*
X66127347Y-29557110D01*
X66250735Y-29537568D01*
X66481347Y-29462638D01*
X66697398Y-29352554D01*
X66893569Y-29210028D01*
X67065028Y-29038569D01*
X67207554Y-28842398D01*
X67317638Y-28626347D01*
X67392568Y-28395735D01*
X67412110Y-28272347D01*
X67430500Y-28156245D01*
X67430500Y-26393754D01*
X67402862Y-26219260D01*
X67392568Y-26154265D01*
X67317638Y-25923653D01*
X67207554Y-25707602D01*
X67162220Y-25645205D01*
X67065033Y-25511437D01*
X67065029Y-25511432D01*
X67053374Y-25499777D01*
X67019889Y-25438454D01*
X67024873Y-25368762D01*
X67053374Y-25324415D01*
X67865970Y-24511819D01*
X67927293Y-24478334D01*
X67953651Y-24475500D01*
X74146349Y-24475500D01*
X74213388Y-24495185D01*
X74234030Y-24511819D01*
X74966626Y-25244415D01*
X75000111Y-25305738D01*
X74995127Y-25375430D01*
X74966626Y-25419777D01*
X74874970Y-25511432D01*
X74874966Y-25511437D01*
X74732448Y-25707598D01*
X74622360Y-25923655D01*
X74547432Y-26154263D01*
X74509500Y-26393754D01*
X74509500Y-28156245D01*
X74547432Y-28395736D01*
X74622360Y-28626344D01*
X74732448Y-28842401D01*
X74874966Y-29038562D01*
X74874970Y-29038567D01*
X75046434Y-29210031D01*
X75113204Y-29258541D01*
X75148384Y-29284100D01*
X75191051Y-29339429D01*
X75199500Y-29384419D01*
X75199500Y-38858771D01*
X75232181Y-39023073D01*
X75232184Y-39023082D01*
X75296296Y-39177863D01*
X75296297Y-39177866D01*
X75389372Y-39317161D01*
X75389375Y-39317165D01*
X81363181Y-45290969D01*
X81396666Y-45352292D01*
X81399500Y-45378650D01*
X81399500Y-62071349D01*
X81379815Y-62138388D01*
X81363185Y-62159025D01*
X81285545Y-62236666D01*
X81211362Y-62310849D01*
X81150039Y-62344333D01*
X81080347Y-62339349D01*
X81024414Y-62297477D01*
X80999997Y-62232013D01*
X81000279Y-62211002D01*
X81000498Y-62208773D01*
X81000500Y-62208767D01*
X81000500Y-45941233D01*
X80967816Y-45776918D01*
X80927454Y-45679477D01*
X80926547Y-45677288D01*
X80903707Y-45622145D01*
X80903706Y-45622144D01*
X80903704Y-45622138D01*
X80884966Y-45594095D01*
X80810630Y-45482842D01*
X80810624Y-45482834D01*
X71856819Y-36529029D01*
X71823334Y-36467706D01*
X71820500Y-36441348D01*
X71820500Y-29384419D01*
X71840185Y-29317380D01*
X71871614Y-29284101D01*
X71973569Y-29210028D01*
X72145028Y-29038569D01*
X72287554Y-28842398D01*
X72397638Y-28626347D01*
X72472568Y-28395735D01*
X72492110Y-28272347D01*
X72510500Y-28156245D01*
X72510500Y-26393754D01*
X72482862Y-26219260D01*
X72472568Y-26154265D01*
X72397638Y-25923653D01*
X72287554Y-25707602D01*
X72242220Y-25645205D01*
X72145033Y-25511437D01*
X72145029Y-25511432D01*
X71973567Y-25339970D01*
X71973562Y-25339966D01*
X71777401Y-25197448D01*
X71777400Y-25197447D01*
X71777398Y-25197446D01*
X71649519Y-25132288D01*
X71561344Y-25087360D01*
X71330736Y-25012432D01*
X71091245Y-24974500D01*
X71091240Y-24974500D01*
X70848760Y-24974500D01*
X70848755Y-24974500D01*
X70609263Y-25012432D01*
X70378655Y-25087360D01*
X70162598Y-25197448D01*
X69966437Y-25339966D01*
X69966432Y-25339970D01*
X69794970Y-25511432D01*
X69794966Y-25511437D01*
X69652448Y-25707598D01*
X69542360Y-25923655D01*
X69467432Y-26154263D01*
X69429500Y-26393754D01*
X69429500Y-28156245D01*
X69467432Y-28395736D01*
X69542360Y-28626344D01*
X69652448Y-28842401D01*
X69794966Y-29038562D01*
X69794970Y-29038567D01*
X69966434Y-29210031D01*
X70033204Y-29258541D01*
X70068384Y-29284100D01*
X70111051Y-29339429D01*
X70119500Y-29384419D01*
X70119500Y-36928771D01*
X70139023Y-37026919D01*
X70152182Y-37093073D01*
X70152185Y-37093085D01*
X70216296Y-37247863D01*
X70216297Y-37247866D01*
X70309372Y-37387161D01*
X70309375Y-37387165D01*
X79263181Y-46340970D01*
X79296666Y-46402293D01*
X79299500Y-46428651D01*
X79299500Y-61721349D01*
X79290855Y-61750789D01*
X79284332Y-61780776D01*
X79280577Y-61785791D01*
X79279815Y-61788388D01*
X79263181Y-61809030D01*
X79112181Y-61960030D01*
X79050858Y-61993515D01*
X78981166Y-61988531D01*
X78925233Y-61946659D01*
X78900816Y-61881195D01*
X78900500Y-61872349D01*
X78900500Y-46991232D01*
X78900499Y-46991228D01*
X78889839Y-46937635D01*
X78867816Y-46826918D01*
X78847845Y-46778704D01*
X78803704Y-46672137D01*
X78803703Y-46672135D01*
X78803702Y-46672133D01*
X78710627Y-46532838D01*
X78710624Y-46532834D01*
X61696819Y-29519029D01*
X61682115Y-29492101D01*
X61665523Y-29466283D01*
X61664631Y-29460082D01*
X61663334Y-29457706D01*
X61660500Y-29431348D01*
X61660500Y-29384419D01*
X61680185Y-29317380D01*
X61711614Y-29284101D01*
X61813569Y-29210028D01*
X61985028Y-29038569D01*
X62127554Y-28842398D01*
X62237638Y-28626347D01*
X62312568Y-28395735D01*
X62332110Y-28272347D01*
X62350500Y-28156245D01*
X62350500Y-26393754D01*
X62322862Y-26219260D01*
X62312568Y-26154265D01*
X62237638Y-25923653D01*
X62127554Y-25707602D01*
X62082220Y-25645205D01*
X61985033Y-25511437D01*
X61985029Y-25511432D01*
X61813567Y-25339970D01*
X61813562Y-25339966D01*
X61617401Y-25197448D01*
X61617400Y-25197447D01*
X61617398Y-25197446D01*
X61489519Y-25132288D01*
X61401344Y-25087360D01*
X61170736Y-25012432D01*
X60931245Y-24974500D01*
X60931240Y-24974500D01*
X60688760Y-24974500D01*
X60688755Y-24974500D01*
X60449263Y-25012432D01*
X60218655Y-25087360D01*
X60002598Y-25197448D01*
X59806437Y-25339966D01*
X59806432Y-25339970D01*
X59634970Y-25511432D01*
X59634966Y-25511437D01*
X59492448Y-25707598D01*
X59382360Y-25923655D01*
X59307432Y-26154263D01*
X59269500Y-26393754D01*
X59269500Y-28156245D01*
X59307432Y-28395736D01*
X59382360Y-28626344D01*
X59492448Y-28842401D01*
X59634966Y-29038562D01*
X59634970Y-29038567D01*
X59806434Y-29210031D01*
X59873204Y-29258541D01*
X59908384Y-29284100D01*
X59951051Y-29339429D01*
X59959500Y-29384419D01*
X59959500Y-29918771D01*
X59992181Y-30083073D01*
X59992184Y-30083082D01*
X60056296Y-30237863D01*
X60056297Y-30237866D01*
X60149372Y-30377161D01*
X60149375Y-30377165D01*
X77163181Y-47390970D01*
X77196666Y-47452293D01*
X77199500Y-47478651D01*
X77199500Y-48581562D01*
X77179815Y-48648601D01*
X77127011Y-48694356D01*
X77057853Y-48704300D01*
X76994297Y-48675275D01*
X76972399Y-48650455D01*
X76960626Y-48632836D01*
X76960624Y-48632834D01*
X57152651Y-28824862D01*
X57119166Y-28763539D01*
X57124150Y-28693847D01*
X57129838Y-28680904D01*
X57157638Y-28626347D01*
X57232568Y-28395735D01*
X57253735Y-28262084D01*
X57270500Y-28156245D01*
X57270500Y-26393754D01*
X57242862Y-26219260D01*
X57232568Y-26154265D01*
X57157638Y-25923653D01*
X57047554Y-25707602D01*
X57002220Y-25645205D01*
X56905033Y-25511437D01*
X56905029Y-25511432D01*
X56733567Y-25339970D01*
X56733562Y-25339966D01*
X56537401Y-25197448D01*
X56537400Y-25197447D01*
X56537398Y-25197446D01*
X56409519Y-25132288D01*
X56321344Y-25087360D01*
X56090736Y-25012432D01*
X55851245Y-24974500D01*
X55851240Y-24974500D01*
X55608760Y-24974500D01*
X55608755Y-24974500D01*
X55369263Y-25012432D01*
X55138655Y-25087360D01*
X54922598Y-25197448D01*
X54726437Y-25339966D01*
X54726432Y-25339970D01*
X54554970Y-25511432D01*
X54554966Y-25511437D01*
X54412448Y-25707598D01*
X54302360Y-25923655D01*
X54227432Y-26154263D01*
X54189500Y-26393754D01*
X54189500Y-28156245D01*
X54227432Y-28395736D01*
X54302360Y-28626344D01*
X54412448Y-28842401D01*
X54554966Y-29038562D01*
X54554970Y-29038567D01*
X54726432Y-29210029D01*
X54726437Y-29210033D01*
X54841537Y-29293657D01*
X54922602Y-29352554D01*
X55133637Y-29460082D01*
X55138655Y-29462639D01*
X55369258Y-29537566D01*
X55369259Y-29537566D01*
X55369265Y-29537568D01*
X55437019Y-29548298D01*
X55500151Y-29578226D01*
X55505301Y-29583090D01*
X75413181Y-49490970D01*
X75446666Y-49552293D01*
X75449500Y-49578651D01*
X75449500Y-61021349D01*
X75429815Y-61088388D01*
X75413181Y-61109030D01*
X74319030Y-62203181D01*
X74257707Y-62236666D01*
X74231349Y-62239500D01*
X68853871Y-62239500D01*
X68786832Y-62219815D01*
X68753554Y-62188387D01*
X68745746Y-62177641D01*
X68745742Y-62177635D01*
X68589865Y-62021758D01*
X68589863Y-62021756D01*
X68589858Y-62021752D01*
X68450245Y-61920318D01*
X68407579Y-61864989D01*
X68401600Y-61795375D01*
X68434205Y-61733580D01*
X68450245Y-61719682D01*
X68589858Y-61618247D01*
X68589856Y-61618247D01*
X68589865Y-61618242D01*
X68745742Y-61462365D01*
X68875315Y-61284022D01*
X68975395Y-61087606D01*
X69043515Y-60877951D01*
X69078000Y-60660222D01*
X69078000Y-60439778D01*
X69043515Y-60222049D01*
X68999116Y-60085402D01*
X68975396Y-60012396D01*
X68975395Y-60012393D01*
X68898076Y-59860649D01*
X68875315Y-59815978D01*
X68787538Y-59695162D01*
X68745747Y-59637641D01*
X68745743Y-59637636D01*
X68589863Y-59481756D01*
X68589858Y-59481752D01*
X68450245Y-59380318D01*
X68407579Y-59324989D01*
X68401600Y-59255375D01*
X68434205Y-59193580D01*
X68450245Y-59179682D01*
X68589858Y-59078247D01*
X68589856Y-59078247D01*
X68589865Y-59078242D01*
X68745742Y-58922365D01*
X68875315Y-58744022D01*
X68975395Y-58547606D01*
X69043515Y-58337951D01*
X69078000Y-58120222D01*
X69078000Y-57899778D01*
X69043515Y-57682049D01*
X68989727Y-57516503D01*
X68975396Y-57472396D01*
X68975395Y-57472393D01*
X68916858Y-57357510D01*
X68875315Y-57275978D01*
X68858760Y-57253192D01*
X68745747Y-57097641D01*
X68745743Y-57097636D01*
X68589863Y-56941756D01*
X68589858Y-56941752D01*
X68450245Y-56840318D01*
X68407579Y-56784989D01*
X68401600Y-56715375D01*
X68434205Y-56653580D01*
X68450245Y-56639682D01*
X68589858Y-56538247D01*
X68589856Y-56538247D01*
X68589865Y-56538242D01*
X68745742Y-56382365D01*
X68875315Y-56204022D01*
X68975395Y-56007606D01*
X69043515Y-55797951D01*
X69078000Y-55580222D01*
X69078000Y-55359778D01*
X69043515Y-55142049D01*
X68975395Y-54932394D01*
X68975395Y-54932393D01*
X68940737Y-54864375D01*
X68875315Y-54735978D01*
X68845547Y-54695006D01*
X68745747Y-54557641D01*
X68745743Y-54557636D01*
X68589863Y-54401756D01*
X68589858Y-54401752D01*
X68450245Y-54300318D01*
X68407579Y-54244989D01*
X68401600Y-54175375D01*
X68434205Y-54113580D01*
X68450245Y-54099682D01*
X68589858Y-53998247D01*
X68589856Y-53998247D01*
X68589865Y-53998242D01*
X68745742Y-53842365D01*
X68875315Y-53664022D01*
X68975395Y-53467606D01*
X69043515Y-53257951D01*
X69078000Y-53040222D01*
X69078000Y-52819778D01*
X69043515Y-52602049D01*
X68975395Y-52392394D01*
X68975395Y-52392393D01*
X68940737Y-52324375D01*
X68875315Y-52195978D01*
X68858760Y-52173192D01*
X68745747Y-52017641D01*
X68745743Y-52017636D01*
X68589863Y-51861756D01*
X68589858Y-51861752D01*
X68450245Y-51760318D01*
X68407579Y-51704989D01*
X68401600Y-51635375D01*
X68434205Y-51573580D01*
X68450245Y-51559682D01*
X68589858Y-51458247D01*
X68589856Y-51458247D01*
X68589865Y-51458242D01*
X68745742Y-51302365D01*
X68875315Y-51124022D01*
X68975395Y-50927606D01*
X69043515Y-50717951D01*
X69078000Y-50500222D01*
X69078000Y-50279778D01*
X69043515Y-50062049D01*
X68975395Y-49852394D01*
X68975395Y-49852393D01*
X68934983Y-49773082D01*
X68875315Y-49655978D01*
X68841015Y-49608768D01*
X68745747Y-49477641D01*
X68745743Y-49477636D01*
X68589863Y-49321756D01*
X68589858Y-49321752D01*
X68450245Y-49220318D01*
X68407579Y-49164989D01*
X68401600Y-49095375D01*
X68434205Y-49033580D01*
X68450245Y-49019682D01*
X68589858Y-48918247D01*
X68589856Y-48918247D01*
X68589865Y-48918242D01*
X68745742Y-48762365D01*
X68875315Y-48584022D01*
X68975395Y-48387606D01*
X69043515Y-48177951D01*
X69078000Y-47960222D01*
X69078000Y-47739778D01*
X69043515Y-47522049D01*
X69000926Y-47390970D01*
X68975396Y-47312396D01*
X68975395Y-47312393D01*
X68933016Y-47229222D01*
X68875315Y-47115978D01*
X68834854Y-47060288D01*
X68745747Y-46937641D01*
X68745743Y-46937636D01*
X68695571Y-46887464D01*
X68662086Y-46826141D01*
X68667070Y-46756449D01*
X68708942Y-46700516D01*
X68739920Y-46683601D01*
X68819826Y-46653798D01*
X68819826Y-46653797D01*
X68819831Y-46653796D01*
X68935046Y-46567546D01*
X69021296Y-46452331D01*
X69071591Y-46317483D01*
X69078000Y-46257873D01*
X69077999Y-44362128D01*
X69071591Y-44302517D01*
X69071507Y-44302293D01*
X69021297Y-44167671D01*
X69021293Y-44167664D01*
X68935047Y-44052455D01*
X68935044Y-44052452D01*
X68819835Y-43966206D01*
X68819828Y-43966202D01*
X68684982Y-43915908D01*
X68684983Y-43915908D01*
X68625383Y-43909501D01*
X68625381Y-43909500D01*
X68625373Y-43909500D01*
X68625364Y-43909500D01*
X66729629Y-43909500D01*
X66729623Y-43909501D01*
X66670016Y-43915908D01*
X66535171Y-43966202D01*
X66535164Y-43966206D01*
X66419955Y-44052452D01*
X66419952Y-44052455D01*
X66333706Y-44167664D01*
X66333702Y-44167671D01*
X66283408Y-44302517D01*
X66277001Y-44362116D01*
X66277001Y-44362123D01*
X66277000Y-44362135D01*
X66277000Y-46257870D01*
X66277001Y-46257876D01*
X66283408Y-46317483D01*
X66333702Y-46452328D01*
X66333706Y-46452335D01*
X66419952Y-46567544D01*
X66419955Y-46567547D01*
X66535164Y-46653793D01*
X66535171Y-46653797D01*
X66615080Y-46683601D01*
X66671014Y-46725472D01*
X66695431Y-46790936D01*
X66680580Y-46859209D01*
X66659429Y-46887463D01*
X66609256Y-46937636D01*
X66609252Y-46937641D01*
X66479687Y-47115974D01*
X66379604Y-47312393D01*
X66379603Y-47312396D01*
X66311485Y-47522047D01*
X66277000Y-47739778D01*
X66277000Y-47960221D01*
X66311485Y-48177952D01*
X66379603Y-48387603D01*
X66379604Y-48387606D01*
X66479687Y-48584025D01*
X66609252Y-48762358D01*
X66609256Y-48762363D01*
X66765136Y-48918243D01*
X66765141Y-48918247D01*
X66904754Y-49019682D01*
X66947420Y-49075012D01*
X66953399Y-49144625D01*
X66920793Y-49206420D01*
X66904754Y-49220318D01*
X66765141Y-49321752D01*
X66765136Y-49321756D01*
X66609259Y-49477633D01*
X66609257Y-49477636D01*
X66601446Y-49488387D01*
X66546115Y-49531052D01*
X66501129Y-49539500D01*
X65726228Y-49539500D01*
X65561925Y-49572182D01*
X65561913Y-49572185D01*
X65521153Y-49589069D01*
X65407143Y-49636292D01*
X65407130Y-49636299D01*
X65267838Y-49729372D01*
X65267834Y-49729375D01*
X64439375Y-50557834D01*
X64439372Y-50557838D01*
X64346299Y-50697130D01*
X64346292Y-50697143D01*
X64300962Y-50806583D01*
X64282185Y-50851913D01*
X64282182Y-50851925D01*
X64249500Y-51016228D01*
X64249500Y-80096348D01*
X64229815Y-80163387D01*
X64213181Y-80184029D01*
X60939375Y-83457834D01*
X60939372Y-83457838D01*
X60846297Y-83597133D01*
X60846296Y-83597136D01*
X60782184Y-83751917D01*
X60782181Y-83751926D01*
X60749500Y-83916228D01*
X60749500Y-84083771D01*
X60782181Y-84248073D01*
X60782184Y-84248082D01*
X60846296Y-84402863D01*
X60846297Y-84402866D01*
X60939372Y-84542161D01*
X60939375Y-84542165D01*
X61057834Y-84660624D01*
X61057838Y-84660627D01*
X61197133Y-84753702D01*
X61197135Y-84753702D01*
X61197137Y-84753704D01*
X61351919Y-84817816D01*
X61351921Y-84817816D01*
X61351926Y-84817818D01*
X61516228Y-84850499D01*
X61516232Y-84850500D01*
X61516233Y-84850500D01*
X61683768Y-84850500D01*
X61683769Y-84850499D01*
X61738538Y-84839605D01*
X61848073Y-84817818D01*
X61848076Y-84817816D01*
X61848081Y-84817816D01*
X62002863Y-84753704D01*
X62142162Y-84660627D01*
X65760626Y-81042162D01*
X65853703Y-80902863D01*
X65917816Y-80748082D01*
X65950500Y-80583767D01*
X65950500Y-51503651D01*
X65970185Y-51436612D01*
X65986819Y-51415970D01*
X66125970Y-51276819D01*
X66187293Y-51243334D01*
X66213651Y-51240500D01*
X66501129Y-51240500D01*
X66568168Y-51260185D01*
X66601446Y-51291613D01*
X66609257Y-51302363D01*
X66609259Y-51302366D01*
X66765136Y-51458243D01*
X66765141Y-51458247D01*
X66904754Y-51559682D01*
X66947420Y-51615012D01*
X66953399Y-51684625D01*
X66920793Y-51746420D01*
X66904754Y-51760318D01*
X66765141Y-51861752D01*
X66765136Y-51861756D01*
X66609256Y-52017636D01*
X66609252Y-52017641D01*
X66479687Y-52195974D01*
X66379604Y-52392393D01*
X66379603Y-52392396D01*
X66311485Y-52602047D01*
X66277000Y-52819778D01*
X66277000Y-53040221D01*
X66311485Y-53257952D01*
X66379603Y-53467603D01*
X66379604Y-53467606D01*
X66438101Y-53582409D01*
X66475962Y-53656716D01*
X66479687Y-53664025D01*
X66609252Y-53842358D01*
X66609256Y-53842363D01*
X66765136Y-53998243D01*
X66765141Y-53998247D01*
X66904754Y-54099682D01*
X66947420Y-54155012D01*
X66953399Y-54224625D01*
X66920793Y-54286420D01*
X66904754Y-54300318D01*
X66765141Y-54401752D01*
X66765136Y-54401756D01*
X66609256Y-54557636D01*
X66609252Y-54557641D01*
X66479687Y-54735974D01*
X66379604Y-54932393D01*
X66379603Y-54932396D01*
X66311485Y-55142047D01*
X66295890Y-55240509D01*
X66277000Y-55359778D01*
X66277000Y-55580222D01*
X66284411Y-55627010D01*
X66311485Y-55797952D01*
X66379603Y-56007603D01*
X66379604Y-56007606D01*
X66479687Y-56204025D01*
X66609252Y-56382358D01*
X66609256Y-56382363D01*
X66765136Y-56538243D01*
X66765141Y-56538247D01*
X66904754Y-56639682D01*
X66947420Y-56695012D01*
X66953399Y-56764625D01*
X66920793Y-56826420D01*
X66904754Y-56840318D01*
X66765141Y-56941752D01*
X66765136Y-56941756D01*
X66609256Y-57097636D01*
X66609252Y-57097641D01*
X66479687Y-57275974D01*
X66379604Y-57472393D01*
X66379603Y-57472396D01*
X66311485Y-57682047D01*
X66277000Y-57899778D01*
X66277000Y-58120221D01*
X66311485Y-58337952D01*
X66379603Y-58547603D01*
X66379604Y-58547606D01*
X66479687Y-58744025D01*
X66609252Y-58922358D01*
X66609256Y-58922363D01*
X66765136Y-59078243D01*
X66765141Y-59078247D01*
X66904754Y-59179682D01*
X66947420Y-59235012D01*
X66953399Y-59304625D01*
X66920793Y-59366420D01*
X66904754Y-59380318D01*
X66765141Y-59481752D01*
X66765136Y-59481756D01*
X66609256Y-59637636D01*
X66609252Y-59637641D01*
X66479687Y-59815974D01*
X66379604Y-60012393D01*
X66379603Y-60012396D01*
X66311485Y-60222047D01*
X66277000Y-60439778D01*
X66277000Y-60660221D01*
X66311485Y-60877952D01*
X66379603Y-61087603D01*
X66379604Y-61087606D01*
X66444406Y-61214784D01*
X66476199Y-61277181D01*
X66479687Y-61284025D01*
X66609252Y-61462358D01*
X66609256Y-61462363D01*
X66765136Y-61618243D01*
X66765141Y-61618247D01*
X66904754Y-61719682D01*
X66947420Y-61775012D01*
X66953399Y-61844625D01*
X66920793Y-61906420D01*
X66904754Y-61920318D01*
X66765141Y-62021752D01*
X66765136Y-62021756D01*
X66609256Y-62177636D01*
X66609252Y-62177641D01*
X66479687Y-62355974D01*
X66379604Y-62552393D01*
X66379603Y-62552396D01*
X66311485Y-62762047D01*
X66281154Y-62953553D01*
X66277000Y-62979778D01*
X66277000Y-63200222D01*
X66292803Y-63300000D01*
X66311485Y-63417952D01*
X66379603Y-63627603D01*
X66379604Y-63627606D01*
X66442288Y-63750627D01*
X66476830Y-63818419D01*
X66479687Y-63824025D01*
X66609252Y-64002358D01*
X66609256Y-64002363D01*
X66765136Y-64158243D01*
X66765141Y-64158247D01*
X66904754Y-64259682D01*
X66947420Y-64315012D01*
X66953399Y-64384625D01*
X66920793Y-64446420D01*
X66904754Y-64460318D01*
X66765141Y-64561752D01*
X66765136Y-64561756D01*
X66609256Y-64717636D01*
X66609252Y-64717641D01*
X66479687Y-64895974D01*
X66379604Y-65092393D01*
X66379603Y-65092396D01*
X66311485Y-65302047D01*
X66277000Y-65519778D01*
X66277000Y-65740221D01*
X66311485Y-65957952D01*
X66379603Y-66167603D01*
X66379604Y-66167606D01*
X66479687Y-66364025D01*
X66609252Y-66542358D01*
X66609256Y-66542363D01*
X66765136Y-66698243D01*
X66765141Y-66698247D01*
X66904754Y-66799682D01*
X66947420Y-66855012D01*
X66953399Y-66924625D01*
X66920793Y-66986420D01*
X66904754Y-67000318D01*
X66765141Y-67101752D01*
X66765136Y-67101756D01*
X66609256Y-67257636D01*
X66609252Y-67257641D01*
X66479687Y-67435974D01*
X66379604Y-67632393D01*
X66379603Y-67632396D01*
X66311485Y-67842047D01*
X66277000Y-68059778D01*
X66277000Y-68280221D01*
X66311485Y-68497952D01*
X66379603Y-68707603D01*
X66379604Y-68707606D01*
X66479687Y-68904025D01*
X66609252Y-69082358D01*
X66609256Y-69082363D01*
X66765136Y-69238243D01*
X66765141Y-69238247D01*
X66904754Y-69339682D01*
X66947420Y-69395012D01*
X66953399Y-69464625D01*
X66920793Y-69526420D01*
X66904754Y-69540318D01*
X66765141Y-69641752D01*
X66765136Y-69641756D01*
X66609256Y-69797636D01*
X66609252Y-69797641D01*
X66479687Y-69975974D01*
X66379604Y-70172393D01*
X66379603Y-70172396D01*
X66311485Y-70382047D01*
X66277000Y-70599778D01*
X66277000Y-70820221D01*
X66311485Y-71037952D01*
X66379603Y-71247603D01*
X66379604Y-71247606D01*
X66479687Y-71444025D01*
X66609252Y-71622358D01*
X66609256Y-71622363D01*
X66765136Y-71778243D01*
X66765141Y-71778247D01*
X66904754Y-71879682D01*
X66947420Y-71935012D01*
X66953399Y-72004625D01*
X66920793Y-72066420D01*
X66904754Y-72080318D01*
X66765141Y-72181752D01*
X66765136Y-72181756D01*
X66609256Y-72337636D01*
X66609252Y-72337641D01*
X66479687Y-72515974D01*
X66379604Y-72712393D01*
X66379603Y-72712396D01*
X66311485Y-72922047D01*
X66277000Y-73139778D01*
X66277000Y-73360221D01*
X66311485Y-73577952D01*
X66379603Y-73787603D01*
X66379604Y-73787606D01*
X66423644Y-73874037D01*
X66464791Y-73954792D01*
X66479687Y-73984025D01*
X66609252Y-74162358D01*
X66609256Y-74162363D01*
X66765136Y-74318243D01*
X66765141Y-74318247D01*
X66904754Y-74419682D01*
X66947420Y-74475012D01*
X66953399Y-74544625D01*
X66920793Y-74606420D01*
X66904754Y-74620318D01*
X66765141Y-74721752D01*
X66765136Y-74721756D01*
X66609256Y-74877636D01*
X66609252Y-74877641D01*
X66479687Y-75055974D01*
X66379604Y-75252393D01*
X66379603Y-75252396D01*
X66311485Y-75462047D01*
X66277000Y-75679778D01*
X66277000Y-75900221D01*
X66311485Y-76117952D01*
X66379603Y-76327603D01*
X66379604Y-76327606D01*
X66479687Y-76524025D01*
X66609252Y-76702358D01*
X66609256Y-76702363D01*
X66765140Y-76858247D01*
X66905179Y-76959990D01*
X66947845Y-77015319D01*
X66953824Y-77084933D01*
X66921219Y-77146728D01*
X66905179Y-77160626D01*
X66879985Y-77178930D01*
X66879985Y-77178932D01*
X67588914Y-77887861D01*
X67503806Y-77910667D01*
X67401194Y-77969910D01*
X67317410Y-78053694D01*
X67258167Y-78156306D01*
X67235361Y-78241414D01*
X66526432Y-77532485D01*
X66526431Y-77532485D01*
X66480116Y-77596233D01*
X66380067Y-77792589D01*
X66311973Y-78002164D01*
X66277500Y-78219818D01*
X66277500Y-78440181D01*
X66311973Y-78657835D01*
X66380067Y-78867410D01*
X66480111Y-79063756D01*
X66526432Y-79127513D01*
X67235361Y-78418584D01*
X67258167Y-78503694D01*
X67317410Y-78606306D01*
X67401194Y-78690090D01*
X67503806Y-78749333D01*
X67588914Y-78772137D01*
X66879985Y-79481065D01*
X66879985Y-79481066D01*
X66905180Y-79499371D01*
X66947846Y-79554701D01*
X66953825Y-79624314D01*
X66921220Y-79686110D01*
X66905181Y-79700008D01*
X66765136Y-79801756D01*
X66609256Y-79957636D01*
X66609252Y-79957641D01*
X66479687Y-80135974D01*
X66379604Y-80332393D01*
X66379603Y-80332396D01*
X66311485Y-80542047D01*
X66277000Y-80759778D01*
X66277000Y-80980221D01*
X66311485Y-81197952D01*
X66379603Y-81407603D01*
X66379604Y-81407606D01*
X66479687Y-81604025D01*
X66609252Y-81782358D01*
X66609256Y-81782363D01*
X66765136Y-81938243D01*
X66765141Y-81938247D01*
X66904754Y-82039682D01*
X66947420Y-82095012D01*
X66953399Y-82164625D01*
X66920793Y-82226420D01*
X66904754Y-82240318D01*
X66765141Y-82341752D01*
X66765136Y-82341756D01*
X66609256Y-82497636D01*
X66609252Y-82497641D01*
X66479687Y-82675974D01*
X66379604Y-82872393D01*
X66379603Y-82872396D01*
X66311485Y-83082047D01*
X66288996Y-83224036D01*
X66277000Y-83299778D01*
X66277000Y-83520222D01*
X66289093Y-83596576D01*
X66311485Y-83737952D01*
X66379603Y-83947603D01*
X66379604Y-83947606D01*
X66479687Y-84144025D01*
X66609252Y-84322358D01*
X66609256Y-84322363D01*
X66765136Y-84478243D01*
X66765141Y-84478247D01*
X66904754Y-84579682D01*
X66947420Y-84635012D01*
X66953399Y-84704625D01*
X66920793Y-84766420D01*
X66904754Y-84780318D01*
X66765141Y-84881752D01*
X66765136Y-84881756D01*
X66609256Y-85037636D01*
X66609252Y-85037641D01*
X66479687Y-85215974D01*
X66379604Y-85412393D01*
X66379603Y-85412396D01*
X66311485Y-85622047D01*
X66286899Y-85777280D01*
X66277000Y-85839778D01*
X66277000Y-86060222D01*
X66289093Y-86136576D01*
X66311485Y-86277952D01*
X66379603Y-86487603D01*
X66379604Y-86487606D01*
X66479687Y-86684025D01*
X66609252Y-86862358D01*
X66609256Y-86862363D01*
X66765136Y-87018243D01*
X66765141Y-87018247D01*
X66904754Y-87119682D01*
X66947420Y-87175012D01*
X66953399Y-87244625D01*
X66920793Y-87306420D01*
X66904754Y-87320318D01*
X66765141Y-87421752D01*
X66765136Y-87421756D01*
X66609256Y-87577636D01*
X66609252Y-87577641D01*
X66479687Y-87755974D01*
X66379604Y-87952393D01*
X66379603Y-87952396D01*
X66311485Y-88162047D01*
X66286899Y-88317280D01*
X66277000Y-88379778D01*
X66277000Y-88600222D01*
X66289093Y-88676576D01*
X66311485Y-88817952D01*
X66379603Y-89027603D01*
X66379604Y-89027606D01*
X66447622Y-89161096D01*
X66476074Y-89216936D01*
X66479687Y-89224025D01*
X66609252Y-89402358D01*
X66609256Y-89402363D01*
X66765136Y-89558243D01*
X66765141Y-89558247D01*
X66904754Y-89659682D01*
X66947420Y-89715012D01*
X66953399Y-89784625D01*
X66920793Y-89846420D01*
X66904754Y-89860318D01*
X66765141Y-89961752D01*
X66765136Y-89961756D01*
X66609259Y-90117633D01*
X66609257Y-90117636D01*
X66601446Y-90128387D01*
X66546115Y-90171052D01*
X66501129Y-90179500D01*
X62038651Y-90179500D01*
X61971612Y-90159815D01*
X61950970Y-90143181D01*
X53572165Y-81764375D01*
X53572161Y-81764372D01*
X53432866Y-81671297D01*
X53432863Y-81671296D01*
X53316461Y-81623081D01*
X53316459Y-81623080D01*
X53278086Y-81607185D01*
X53278074Y-81607182D01*
X53113771Y-81574500D01*
X53113767Y-81574500D01*
X39953651Y-81574500D01*
X39886612Y-81554815D01*
X39865970Y-81538181D01*
X38686819Y-80359030D01*
X38653334Y-80297707D01*
X38650500Y-80271349D01*
X38650500Y-65272844D01*
X44825000Y-65272844D01*
X44831401Y-65332372D01*
X44831403Y-65332379D01*
X44881645Y-65467086D01*
X44881649Y-65467093D01*
X44967809Y-65582187D01*
X44967812Y-65582190D01*
X45082906Y-65668350D01*
X45082913Y-65668354D01*
X45217620Y-65718596D01*
X45217627Y-65718598D01*
X45277155Y-65724999D01*
X45277172Y-65725000D01*
X47325000Y-65725000D01*
X47325000Y-65153552D01*
X47825000Y-65153552D01*
X47825000Y-65725000D01*
X49872828Y-65725000D01*
X49872844Y-65724999D01*
X49932372Y-65718598D01*
X49932379Y-65718596D01*
X50067086Y-65668354D01*
X50067093Y-65668350D01*
X50182187Y-65582190D01*
X50182190Y-65582187D01*
X50268350Y-65467093D01*
X50268354Y-65467086D01*
X50318596Y-65332379D01*
X50318598Y-65332372D01*
X50324999Y-65272844D01*
X50325000Y-65272827D01*
X50325000Y-64000000D01*
X50078552Y-64000000D01*
X49551777Y-64526777D01*
X48981848Y-65096704D01*
X48920525Y-65130189D01*
X48894167Y-65133023D01*
X48755832Y-65133023D01*
X48734586Y-65126784D01*
X48712498Y-65125205D01*
X48698441Y-65116171D01*
X48688793Y-65113338D01*
X48682207Y-65105737D01*
X48668151Y-65096704D01*
X48275000Y-64703553D01*
X47825000Y-65153552D01*
X47325000Y-65153552D01*
X47325000Y-65053553D01*
X46975000Y-64703553D01*
X46581848Y-65096704D01*
X46520525Y-65130189D01*
X46494167Y-65133023D01*
X46255832Y-65133023D01*
X46234586Y-65126784D01*
X46212498Y-65125205D01*
X46198441Y-65116171D01*
X46188793Y-65113338D01*
X46182207Y-65105737D01*
X46168151Y-65096704D01*
X45598223Y-64526777D01*
X45457765Y-64386319D01*
X45391609Y-64320163D01*
X45625000Y-64320163D01*
X45625000Y-64379837D01*
X45647836Y-64434968D01*
X45690032Y-64477164D01*
X45745163Y-64500000D01*
X45804837Y-64500000D01*
X45859968Y-64477164D01*
X45902164Y-64434968D01*
X45925000Y-64379837D01*
X45925000Y-64349999D01*
X46128553Y-64349999D01*
X46375000Y-64596446D01*
X46621446Y-64350001D01*
X46621446Y-64350000D01*
X46591609Y-64320163D01*
X46825000Y-64320163D01*
X46825000Y-64379837D01*
X46847836Y-64434968D01*
X46890032Y-64477164D01*
X46945163Y-64500000D01*
X47004837Y-64500000D01*
X47059968Y-64477164D01*
X47090686Y-64446446D01*
X47825000Y-64446446D01*
X47921446Y-64350001D01*
X47921446Y-64350000D01*
X47891609Y-64320163D01*
X48125000Y-64320163D01*
X48125000Y-64379837D01*
X48147836Y-64434968D01*
X48190032Y-64477164D01*
X48245163Y-64500000D01*
X48304837Y-64500000D01*
X48359968Y-64477164D01*
X48402164Y-64434968D01*
X48425000Y-64379837D01*
X48425000Y-64349999D01*
X48628553Y-64349999D01*
X48825000Y-64546446D01*
X49021446Y-64350001D01*
X49021446Y-64350000D01*
X48991609Y-64320163D01*
X49225000Y-64320163D01*
X49225000Y-64379837D01*
X49247836Y-64434968D01*
X49290032Y-64477164D01*
X49345163Y-64500000D01*
X49404837Y-64500000D01*
X49459968Y-64477164D01*
X49502164Y-64434968D01*
X49525000Y-64379837D01*
X49525000Y-64320163D01*
X49502164Y-64265032D01*
X49459968Y-64222836D01*
X49404837Y-64200000D01*
X49345163Y-64200000D01*
X49290032Y-64222836D01*
X49247836Y-64265032D01*
X49225000Y-64320163D01*
X48991609Y-64320163D01*
X48825000Y-64153553D01*
X48628553Y-64349999D01*
X48425000Y-64349999D01*
X48425000Y-64320163D01*
X48402164Y-64265032D01*
X48359968Y-64222836D01*
X48304837Y-64200000D01*
X48245163Y-64200000D01*
X48190032Y-64222836D01*
X48147836Y-64265032D01*
X48125000Y-64320163D01*
X47891609Y-64320163D01*
X47825000Y-64253554D01*
X47825000Y-64446446D01*
X47090686Y-64446446D01*
X47102164Y-64434968D01*
X47125000Y-64379837D01*
X47125000Y-64320163D01*
X47102164Y-64265032D01*
X47059968Y-64222836D01*
X47004837Y-64200000D01*
X46945163Y-64200000D01*
X46890032Y-64222836D01*
X46847836Y-64265032D01*
X46825000Y-64320163D01*
X46591609Y-64320163D01*
X46529826Y-64258380D01*
X46529824Y-64258377D01*
X46375001Y-64103553D01*
X46375000Y-64103553D01*
X46128553Y-64349999D01*
X45925000Y-64349999D01*
X45925000Y-64320163D01*
X45902164Y-64265032D01*
X45859968Y-64222836D01*
X45804837Y-64200000D01*
X45745163Y-64200000D01*
X45690032Y-64222836D01*
X45647836Y-64265032D01*
X45625000Y-64320163D01*
X45391609Y-64320163D01*
X45071447Y-64000000D01*
X44825000Y-64000000D01*
X44825000Y-65272844D01*
X38650500Y-65272844D01*
X38650500Y-62227155D01*
X44825000Y-62227155D01*
X44825000Y-63500000D01*
X45071447Y-63500000D01*
X45071447Y-63499999D01*
X45451283Y-63120163D01*
X45625000Y-63120163D01*
X45625000Y-63179837D01*
X45647836Y-63234968D01*
X45690032Y-63277164D01*
X45745163Y-63300000D01*
X45804837Y-63300000D01*
X45859968Y-63277164D01*
X45902164Y-63234968D01*
X45925000Y-63179837D01*
X45925000Y-63149999D01*
X46128553Y-63149999D01*
X46375000Y-63396446D01*
X46621446Y-63150001D01*
X46621446Y-63150000D01*
X46591609Y-63120163D01*
X46825000Y-63120163D01*
X46825000Y-63179837D01*
X46847836Y-63234968D01*
X46890032Y-63277164D01*
X46945163Y-63300000D01*
X47004837Y-63300000D01*
X47059968Y-63277164D01*
X47090686Y-63246446D01*
X47825000Y-63246446D01*
X47921446Y-63150001D01*
X47921446Y-63150000D01*
X47891609Y-63120163D01*
X48125000Y-63120163D01*
X48125000Y-63179837D01*
X48147836Y-63234968D01*
X48190032Y-63277164D01*
X48245163Y-63300000D01*
X48304837Y-63300000D01*
X48359968Y-63277164D01*
X48402164Y-63234968D01*
X48425000Y-63179837D01*
X48425000Y-63149999D01*
X48628553Y-63149999D01*
X48825000Y-63346446D01*
X49021446Y-63150001D01*
X49021446Y-63150000D01*
X48991609Y-63120163D01*
X49225000Y-63120163D01*
X49225000Y-63179837D01*
X49247836Y-63234968D01*
X49290032Y-63277164D01*
X49345163Y-63300000D01*
X49404837Y-63300000D01*
X49459968Y-63277164D01*
X49502164Y-63234968D01*
X49525000Y-63179837D01*
X49525000Y-63120163D01*
X49502164Y-63065032D01*
X49459968Y-63022836D01*
X49404837Y-63000000D01*
X49345163Y-63000000D01*
X49290032Y-63022836D01*
X49247836Y-63065032D01*
X49225000Y-63120163D01*
X48991609Y-63120163D01*
X48825000Y-62953553D01*
X48628553Y-63149999D01*
X48425000Y-63149999D01*
X48425000Y-63120163D01*
X48402164Y-63065032D01*
X48359968Y-63022836D01*
X48304837Y-63000000D01*
X48245163Y-63000000D01*
X48190032Y-63022836D01*
X48147836Y-63065032D01*
X48125000Y-63120163D01*
X47891609Y-63120163D01*
X47825000Y-63053554D01*
X47825000Y-63246446D01*
X47090686Y-63246446D01*
X47102164Y-63234968D01*
X47125000Y-63179837D01*
X47125000Y-63120163D01*
X47102164Y-63065032D01*
X47059968Y-63022836D01*
X47004837Y-63000000D01*
X46945163Y-63000000D01*
X46890032Y-63022836D01*
X46847836Y-63065032D01*
X46825000Y-63120163D01*
X46591609Y-63120163D01*
X46529826Y-63058380D01*
X46529824Y-63058377D01*
X46375001Y-62903553D01*
X46375000Y-62903553D01*
X46128553Y-63149999D01*
X45925000Y-63149999D01*
X45925000Y-63120163D01*
X45902164Y-63065032D01*
X45859968Y-63022836D01*
X45804837Y-63000000D01*
X45745163Y-63000000D01*
X45690032Y-63022836D01*
X45647836Y-63065032D01*
X45625000Y-63120163D01*
X45451283Y-63120163D01*
X45598223Y-62973223D01*
X46168151Y-62403294D01*
X46229474Y-62369809D01*
X46255832Y-62366975D01*
X46494167Y-62366975D01*
X46515412Y-62373213D01*
X46537500Y-62374793D01*
X46551556Y-62383826D01*
X46561206Y-62386660D01*
X46567792Y-62394260D01*
X46581848Y-62403294D01*
X46975000Y-62796446D01*
X46975001Y-62796446D01*
X47324999Y-62446446D01*
X47325000Y-62446445D01*
X47325000Y-62346446D01*
X47825000Y-62346446D01*
X48274999Y-62796446D01*
X48275000Y-62796446D01*
X48668151Y-62403294D01*
X48729474Y-62369809D01*
X48755832Y-62366975D01*
X48894167Y-62366975D01*
X48915411Y-62373213D01*
X48937497Y-62374792D01*
X48951554Y-62383825D01*
X48961206Y-62386660D01*
X48967792Y-62394261D01*
X48981848Y-62403294D01*
X49551777Y-62973223D01*
X50078552Y-63499999D01*
X50078553Y-63500000D01*
X50325000Y-63500000D01*
X50325000Y-62227172D01*
X50324999Y-62227155D01*
X50318598Y-62167627D01*
X50318596Y-62167620D01*
X50268354Y-62032913D01*
X50268350Y-62032906D01*
X50182190Y-61917812D01*
X50182187Y-61917809D01*
X50067093Y-61831649D01*
X50067086Y-61831645D01*
X49932379Y-61781403D01*
X49932372Y-61781401D01*
X49872844Y-61775000D01*
X47825000Y-61775000D01*
X47825000Y-62346446D01*
X47325000Y-62346446D01*
X47325000Y-61775000D01*
X45277155Y-61775000D01*
X45217627Y-61781401D01*
X45217620Y-61781403D01*
X45082913Y-61831645D01*
X45082906Y-61831649D01*
X44967812Y-61917809D01*
X44967809Y-61917812D01*
X44881649Y-62032906D01*
X44881645Y-62032913D01*
X44831403Y-62167620D01*
X44831401Y-62167627D01*
X44825000Y-62227155D01*
X38650500Y-62227155D01*
X38650500Y-56091232D01*
X38650499Y-56091228D01*
X38634083Y-56008700D01*
X38617816Y-55926918D01*
X38597551Y-55877994D01*
X38564397Y-55797952D01*
X38553707Y-55772143D01*
X38553700Y-55772130D01*
X38460627Y-55632838D01*
X38460624Y-55632834D01*
X33388976Y-50561187D01*
X33355491Y-50499864D01*
X33360475Y-50430172D01*
X33402347Y-50374239D01*
X33452463Y-50351890D01*
X33498082Y-50342816D01*
X33652863Y-50278703D01*
X33792162Y-50185626D01*
X33910626Y-50067162D01*
X33992393Y-49944790D01*
X40124499Y-49944790D01*
X40151418Y-50080116D01*
X40151421Y-50080126D01*
X40204222Y-50207601D01*
X40280887Y-50322339D01*
X40280888Y-50322340D01*
X47455092Y-57496542D01*
X47552664Y-57594114D01*
X47552665Y-57594115D01*
X47667388Y-57670771D01*
X47667401Y-57670778D01*
X47710701Y-57688713D01*
X47729402Y-57696459D01*
X47794877Y-57723580D01*
X47821797Y-57728934D01*
X47916328Y-57747738D01*
X47930212Y-57750500D01*
X47930213Y-57750500D01*
X60682152Y-57750500D01*
X60749191Y-57770185D01*
X60794946Y-57822989D01*
X60803769Y-57850308D01*
X60830261Y-57983491D01*
X60830264Y-57983501D01*
X60890602Y-58129172D01*
X60890609Y-58129185D01*
X60978210Y-58260288D01*
X60978213Y-58260292D01*
X61089707Y-58371786D01*
X61089711Y-58371789D01*
X61220814Y-58459390D01*
X61220827Y-58459397D01*
X61325661Y-58502820D01*
X61366503Y-58519737D01*
X61506594Y-58547603D01*
X61521153Y-58550499D01*
X61521156Y-58550500D01*
X61521158Y-58550500D01*
X61678844Y-58550500D01*
X61678845Y-58550499D01*
X61833497Y-58519737D01*
X61979179Y-58459394D01*
X62110289Y-58371789D01*
X62221789Y-58260289D01*
X62309394Y-58129179D01*
X62313105Y-58120221D01*
X62369735Y-57983501D01*
X62369737Y-57983497D01*
X62400500Y-57828842D01*
X62400500Y-57671158D01*
X62400500Y-57671155D01*
X62400499Y-57671153D01*
X62369738Y-57516510D01*
X62369737Y-57516503D01*
X62309908Y-57372062D01*
X62302569Y-57347329D01*
X62300500Y-57336227D01*
X62300500Y-57331007D01*
X62285247Y-57254328D01*
X62273580Y-57195672D01*
X62220775Y-57068189D01*
X62144114Y-56953457D01*
X62144112Y-56953454D01*
X61696545Y-56505887D01*
X61581807Y-56429222D01*
X61454332Y-56376421D01*
X61454322Y-56376418D01*
X61318996Y-56349500D01*
X61318994Y-56349500D01*
X61318993Y-56349500D01*
X48340724Y-56349500D01*
X48273685Y-56329815D01*
X48253043Y-56313181D01*
X41561819Y-49621956D01*
X41528334Y-49560633D01*
X41525500Y-49534275D01*
X41525500Y-47716518D01*
X41545185Y-47649479D01*
X41561815Y-47628841D01*
X41844586Y-47346069D01*
X41884810Y-47319192D01*
X41955791Y-47289792D01*
X42029173Y-47259397D01*
X42029176Y-47259395D01*
X42029179Y-47259394D01*
X42160289Y-47171789D01*
X42271789Y-47060289D01*
X42359394Y-46929179D01*
X42419737Y-46783497D01*
X42450500Y-46628842D01*
X42450500Y-46471158D01*
X42450500Y-46471155D01*
X42450499Y-46471153D01*
X42431828Y-46377289D01*
X42419737Y-46316503D01*
X42395452Y-46257873D01*
X42359397Y-46170827D01*
X42359390Y-46170814D01*
X42271789Y-46039711D01*
X42271786Y-46039707D01*
X42160292Y-45928213D01*
X42160288Y-45928210D01*
X42029185Y-45840609D01*
X42029172Y-45840602D01*
X41883501Y-45780264D01*
X41883489Y-45780261D01*
X41728845Y-45749500D01*
X41728842Y-45749500D01*
X41571158Y-45749500D01*
X41571155Y-45749500D01*
X41416510Y-45780261D01*
X41416498Y-45780264D01*
X41270827Y-45840602D01*
X41270814Y-45840609D01*
X41139711Y-45928210D01*
X41139707Y-45928213D01*
X41028213Y-46039707D01*
X41028210Y-46039711D01*
X40940609Y-46170814D01*
X40940604Y-46170823D01*
X40880809Y-46315184D01*
X40853929Y-46355412D01*
X40280890Y-46928451D01*
X40280884Y-46928458D01*
X40238941Y-46991232D01*
X40238941Y-46991233D01*
X40221583Y-47017211D01*
X40204225Y-47043188D01*
X40204221Y-47043195D01*
X40151421Y-47170667D01*
X40151418Y-47170677D01*
X40124500Y-47306004D01*
X40124500Y-47306007D01*
X40124500Y-49806800D01*
X40124500Y-49944788D01*
X40124500Y-49944790D01*
X40124499Y-49944790D01*
X33992393Y-49944790D01*
X34003703Y-49927863D01*
X34067816Y-49773082D01*
X34100500Y-49608767D01*
X34100500Y-45728650D01*
X34120185Y-45661611D01*
X34136819Y-45640969D01*
X37065969Y-42711819D01*
X37127292Y-42678334D01*
X37153650Y-42675500D01*
X60291233Y-42675500D01*
X61721349Y-42675500D01*
X61788388Y-42695185D01*
X61809030Y-42711819D01*
X63157834Y-44060623D01*
X63157838Y-44060626D01*
X63297130Y-44153699D01*
X63297143Y-44153706D01*
X63413222Y-44201787D01*
X63451918Y-44217815D01*
X63451920Y-44217815D01*
X63451925Y-44217817D01*
X63616228Y-44250498D01*
X63616232Y-44250499D01*
X63616233Y-44250499D01*
X63783767Y-44250499D01*
X63783768Y-44250498D01*
X63838537Y-44239604D01*
X63948073Y-44217817D01*
X63948076Y-44217815D01*
X63948081Y-44217815D01*
X64102863Y-44153703D01*
X64242162Y-44060626D01*
X64360626Y-43942162D01*
X64453703Y-43802863D01*
X64517815Y-43648081D01*
X64523976Y-43617110D01*
X64550498Y-43483770D01*
X64550499Y-43483767D01*
X64550499Y-43316232D01*
X64550498Y-43316228D01*
X64517817Y-43151925D01*
X64517814Y-43151916D01*
X64507564Y-43127171D01*
X64494346Y-43095259D01*
X64453706Y-42997143D01*
X64453699Y-42997130D01*
X64360626Y-42857838D01*
X64360623Y-42857834D01*
X62667165Y-41164375D01*
X62667161Y-41164372D01*
X62527866Y-41071297D01*
X62527863Y-41071296D01*
X62418416Y-41025962D01*
X62418414Y-41025961D01*
X62373086Y-41007185D01*
X62373074Y-41007182D01*
X62208771Y-40974500D01*
X62208767Y-40974500D01*
X60458767Y-40974500D01*
X36827649Y-40974500D01*
X36760610Y-40954815D01*
X36714855Y-40902011D01*
X36704911Y-40832853D01*
X36733936Y-40769297D01*
X36739968Y-40762819D01*
X36980231Y-40522557D01*
X37415969Y-40086819D01*
X37477292Y-40053334D01*
X37503650Y-40050500D01*
X40333768Y-40050500D01*
X40333769Y-40050499D01*
X40498082Y-40017816D01*
X40652863Y-39953703D01*
X40792162Y-39860626D01*
X40910626Y-39742162D01*
X41003703Y-39602863D01*
X41067816Y-39448082D01*
X41100500Y-39283767D01*
X41100500Y-39116233D01*
X41067816Y-38951918D01*
X41003703Y-38797137D01*
X40962415Y-38735345D01*
X40910626Y-38657837D01*
X40792162Y-38539373D01*
X40652860Y-38446295D01*
X40498082Y-38382184D01*
X40498074Y-38382182D01*
X40333771Y-38349500D01*
X40333767Y-38349500D01*
X37016233Y-38349500D01*
X37016228Y-38349500D01*
X36851925Y-38382182D01*
X36851917Y-38382184D01*
X36810114Y-38399500D01*
X36810113Y-38399500D01*
X36697143Y-38446292D01*
X36697137Y-38446295D01*
X36697137Y-38446296D01*
X36557840Y-38539373D01*
X36557831Y-38539379D01*
X36557830Y-38539380D01*
X31189375Y-43907834D01*
X31189373Y-43907836D01*
X31177601Y-43925455D01*
X31123988Y-43970259D01*
X31054662Y-43978965D01*
X30991636Y-43948809D01*
X30954918Y-43889365D01*
X30950500Y-43856562D01*
X30950500Y-35228650D01*
X30970185Y-35161611D01*
X30986819Y-35140969D01*
X31460623Y-34667165D01*
X31460626Y-34667162D01*
X31553703Y-34527863D01*
X31617815Y-34373082D01*
X31635766Y-34282838D01*
X31650498Y-34208771D01*
X31650499Y-34208768D01*
X31650499Y-34041233D01*
X31650498Y-34041229D01*
X31617817Y-33876926D01*
X31617814Y-33876917D01*
X31553704Y-33722139D01*
X31553702Y-33722136D01*
X31460629Y-33582842D01*
X31460623Y-33582834D01*
X31342165Y-33464376D01*
X31342157Y-33464370D01*
X31202863Y-33371297D01*
X31202860Y-33371295D01*
X31048082Y-33307185D01*
X31048073Y-33307182D01*
X30883770Y-33274501D01*
X30883766Y-33274501D01*
X30716233Y-33274501D01*
X30716228Y-33274501D01*
X30551925Y-33307182D01*
X30551916Y-33307185D01*
X30397143Y-33371293D01*
X30397130Y-33371300D01*
X30257838Y-33464373D01*
X30257834Y-33464376D01*
X29439375Y-34282834D01*
X29439372Y-34282838D01*
X29346297Y-34422133D01*
X29339059Y-34439608D01*
X29295216Y-34494010D01*
X29228921Y-34516073D01*
X29161223Y-34498792D01*
X29113614Y-34447654D01*
X29100499Y-34392155D01*
X29100499Y-32824992D01*
X29089999Y-32722203D01*
X29034814Y-32555666D01*
X28942712Y-32406344D01*
X28818656Y-32282288D01*
X28669334Y-32190186D01*
X28502797Y-32135001D01*
X28502795Y-32135000D01*
X28400010Y-32124500D01*
X26199998Y-32124500D01*
X26199981Y-32124501D01*
X26097203Y-32135000D01*
X26097200Y-32135001D01*
X25930668Y-32190185D01*
X25930663Y-32190187D01*
X25781342Y-32282289D01*
X25657289Y-32406342D01*
X25565187Y-32555663D01*
X25565186Y-32555666D01*
X25510001Y-32722203D01*
X25510001Y-32722204D01*
X25510000Y-32722204D01*
X25499500Y-32824983D01*
X22750000Y-32824983D01*
X22750000Y-24703711D01*
X24849500Y-24703711D01*
X24849500Y-24946288D01*
X24878369Y-25165580D01*
X24881162Y-25186789D01*
X24896603Y-25244415D01*
X24943947Y-25421104D01*
X25036773Y-25645205D01*
X25036776Y-25645212D01*
X25158064Y-25855289D01*
X25158066Y-25855292D01*
X25158067Y-25855293D01*
X25305733Y-26047736D01*
X25305739Y-26047743D01*
X25477256Y-26219260D01*
X25477262Y-26219265D01*
X25669711Y-26366936D01*
X25879788Y-26488224D01*
X26103900Y-26581054D01*
X26338211Y-26643838D01*
X26518586Y-26667584D01*
X26578711Y-26675500D01*
X26578712Y-26675500D01*
X26821289Y-26675500D01*
X26869388Y-26669167D01*
X27061789Y-26643838D01*
X27296100Y-26581054D01*
X27520212Y-26488224D01*
X27683839Y-26393754D01*
X33869500Y-26393754D01*
X33869500Y-28156245D01*
X33907432Y-28395736D01*
X33982360Y-28626344D01*
X34092448Y-28842401D01*
X34234966Y-29038562D01*
X34234970Y-29038567D01*
X34406432Y-29210029D01*
X34406437Y-29210033D01*
X34521537Y-29293657D01*
X34602602Y-29352554D01*
X34813637Y-29460082D01*
X34818655Y-29462639D01*
X34909331Y-29492101D01*
X35049265Y-29537568D01*
X35156808Y-29554601D01*
X35288755Y-29575500D01*
X35288760Y-29575500D01*
X35531245Y-29575500D01*
X35647347Y-29557110D01*
X35770735Y-29537568D01*
X36001347Y-29462638D01*
X36217398Y-29352554D01*
X36413569Y-29210028D01*
X36585028Y-29038569D01*
X36727554Y-28842398D01*
X36837638Y-28626347D01*
X36912568Y-28395735D01*
X36932110Y-28272347D01*
X36950500Y-28156245D01*
X36950500Y-26393754D01*
X38949500Y-26393754D01*
X38949500Y-28156245D01*
X38987432Y-28395736D01*
X39062360Y-28626344D01*
X39172448Y-28842401D01*
X39314966Y-29038562D01*
X39314970Y-29038567D01*
X39486432Y-29210029D01*
X39486437Y-29210033D01*
X39601537Y-29293657D01*
X39682602Y-29352554D01*
X39893637Y-29460082D01*
X39898655Y-29462639D01*
X39989331Y-29492101D01*
X40129265Y-29537568D01*
X40236808Y-29554601D01*
X40368755Y-29575500D01*
X40368760Y-29575500D01*
X40611245Y-29575500D01*
X40727347Y-29557110D01*
X40850735Y-29537568D01*
X41081347Y-29462638D01*
X41297398Y-29352554D01*
X41493569Y-29210028D01*
X41665028Y-29038569D01*
X41807554Y-28842398D01*
X41917638Y-28626347D01*
X41992568Y-28395735D01*
X42012110Y-28272347D01*
X42030500Y-28156245D01*
X42030500Y-26393754D01*
X44029500Y-26393754D01*
X44029500Y-28156245D01*
X44067432Y-28395736D01*
X44142360Y-28626344D01*
X44252448Y-28842401D01*
X44394966Y-29038562D01*
X44394970Y-29038567D01*
X44566432Y-29210029D01*
X44566437Y-29210033D01*
X44681537Y-29293657D01*
X44762602Y-29352554D01*
X44973637Y-29460082D01*
X44978655Y-29462639D01*
X45069331Y-29492101D01*
X45209265Y-29537568D01*
X45316808Y-29554601D01*
X45448755Y-29575500D01*
X45448760Y-29575500D01*
X45691245Y-29575500D01*
X45807347Y-29557110D01*
X45930735Y-29537568D01*
X46161347Y-29462638D01*
X46377398Y-29352554D01*
X46573569Y-29210028D01*
X46745028Y-29038569D01*
X46887554Y-28842398D01*
X46997638Y-28626347D01*
X47072568Y-28395735D01*
X47092110Y-28272347D01*
X47110500Y-28156245D01*
X47110500Y-26393754D01*
X49109500Y-26393754D01*
X49109500Y-28156245D01*
X49147432Y-28395736D01*
X49222360Y-28626344D01*
X49332448Y-28842401D01*
X49474966Y-29038562D01*
X49474970Y-29038567D01*
X49646432Y-29210029D01*
X49646437Y-29210033D01*
X49761537Y-29293657D01*
X49842602Y-29352554D01*
X50053637Y-29460082D01*
X50058655Y-29462639D01*
X50149331Y-29492101D01*
X50289265Y-29537568D01*
X50396808Y-29554601D01*
X50528755Y-29575500D01*
X50528760Y-29575500D01*
X50771245Y-29575500D01*
X50887347Y-29557110D01*
X51010735Y-29537568D01*
X51241347Y-29462638D01*
X51457398Y-29352554D01*
X51653569Y-29210028D01*
X51825028Y-29038569D01*
X51967554Y-28842398D01*
X52077638Y-28626347D01*
X52152568Y-28395735D01*
X52172110Y-28272347D01*
X52190500Y-28156245D01*
X52190500Y-26393754D01*
X52162862Y-26219260D01*
X52152568Y-26154265D01*
X52077638Y-25923653D01*
X51967554Y-25707602D01*
X51922220Y-25645205D01*
X51825033Y-25511437D01*
X51825029Y-25511432D01*
X51653567Y-25339970D01*
X51653562Y-25339966D01*
X51457401Y-25197448D01*
X51457400Y-25197447D01*
X51457398Y-25197446D01*
X51329519Y-25132288D01*
X51241344Y-25087360D01*
X51010736Y-25012432D01*
X50771245Y-24974500D01*
X50771240Y-24974500D01*
X50528760Y-24974500D01*
X50528755Y-24974500D01*
X50289263Y-25012432D01*
X50058655Y-25087360D01*
X49842598Y-25197448D01*
X49646437Y-25339966D01*
X49646432Y-25339970D01*
X49474970Y-25511432D01*
X49474966Y-25511437D01*
X49332448Y-25707598D01*
X49222360Y-25923655D01*
X49147432Y-26154263D01*
X49109500Y-26393754D01*
X47110500Y-26393754D01*
X47082862Y-26219260D01*
X47072568Y-26154265D01*
X46997638Y-25923653D01*
X46887554Y-25707602D01*
X46842220Y-25645205D01*
X46745033Y-25511437D01*
X46745029Y-25511432D01*
X46573567Y-25339970D01*
X46573562Y-25339966D01*
X46377401Y-25197448D01*
X46377400Y-25197447D01*
X46377398Y-25197446D01*
X46249519Y-25132288D01*
X46161344Y-25087360D01*
X45930736Y-25012432D01*
X45691245Y-24974500D01*
X45691240Y-24974500D01*
X45448760Y-24974500D01*
X45448755Y-24974500D01*
X45209263Y-25012432D01*
X44978655Y-25087360D01*
X44762598Y-25197448D01*
X44566437Y-25339966D01*
X44566432Y-25339970D01*
X44394970Y-25511432D01*
X44394966Y-25511437D01*
X44252448Y-25707598D01*
X44142360Y-25923655D01*
X44067432Y-26154263D01*
X44029500Y-26393754D01*
X42030500Y-26393754D01*
X42002862Y-26219260D01*
X41992568Y-26154265D01*
X41917638Y-25923653D01*
X41807554Y-25707602D01*
X41762220Y-25645205D01*
X41665033Y-25511437D01*
X41665029Y-25511432D01*
X41493567Y-25339970D01*
X41493562Y-25339966D01*
X41297401Y-25197448D01*
X41297400Y-25197447D01*
X41297398Y-25197446D01*
X41169519Y-25132288D01*
X41081344Y-25087360D01*
X40850736Y-25012432D01*
X40611245Y-24974500D01*
X40611240Y-24974500D01*
X40368760Y-24974500D01*
X40368755Y-24974500D01*
X40129263Y-25012432D01*
X39898655Y-25087360D01*
X39682598Y-25197448D01*
X39486437Y-25339966D01*
X39486432Y-25339970D01*
X39314970Y-25511432D01*
X39314966Y-25511437D01*
X39172448Y-25707598D01*
X39062360Y-25923655D01*
X38987432Y-26154263D01*
X38949500Y-26393754D01*
X36950500Y-26393754D01*
X36922862Y-26219260D01*
X36912568Y-26154265D01*
X36837638Y-25923653D01*
X36727554Y-25707602D01*
X36682220Y-25645205D01*
X36585033Y-25511437D01*
X36585029Y-25511432D01*
X36413567Y-25339970D01*
X36413562Y-25339966D01*
X36217401Y-25197448D01*
X36217400Y-25197447D01*
X36217398Y-25197446D01*
X36089519Y-25132288D01*
X36001344Y-25087360D01*
X35770736Y-25012432D01*
X35531245Y-24974500D01*
X35531240Y-24974500D01*
X35288760Y-24974500D01*
X35288755Y-24974500D01*
X35049263Y-25012432D01*
X34818655Y-25087360D01*
X34602598Y-25197448D01*
X34406437Y-25339966D01*
X34406432Y-25339970D01*
X34234970Y-25511432D01*
X34234966Y-25511437D01*
X34092448Y-25707598D01*
X33982360Y-25923655D01*
X33907432Y-26154263D01*
X33869500Y-26393754D01*
X27683839Y-26393754D01*
X27730289Y-26366936D01*
X27922738Y-26219265D01*
X28094265Y-26047738D01*
X28241936Y-25855289D01*
X28363224Y-25645212D01*
X28456054Y-25421100D01*
X28518838Y-25186789D01*
X28550500Y-24946288D01*
X28550500Y-24703712D01*
X28518838Y-24463211D01*
X28456054Y-24228900D01*
X28363224Y-24004788D01*
X28241936Y-23794711D01*
X28094265Y-23602262D01*
X28094260Y-23602256D01*
X27922743Y-23430739D01*
X27922736Y-23430733D01*
X27730293Y-23283067D01*
X27730292Y-23283066D01*
X27730289Y-23283064D01*
X27520212Y-23161776D01*
X27520205Y-23161773D01*
X27296104Y-23068947D01*
X27061785Y-23006161D01*
X26821289Y-22974500D01*
X26821288Y-22974500D01*
X26578712Y-22974500D01*
X26578711Y-22974500D01*
X26338214Y-23006161D01*
X26103895Y-23068947D01*
X25879794Y-23161773D01*
X25879785Y-23161777D01*
X25669706Y-23283067D01*
X25477263Y-23430733D01*
X25477256Y-23430739D01*
X25305739Y-23602256D01*
X25305733Y-23602263D01*
X25158067Y-23794706D01*
X25036777Y-24004785D01*
X25036773Y-24004794D01*
X24943947Y-24228895D01*
X24881161Y-24463214D01*
X24849500Y-24703711D01*
X22750000Y-24703711D01*
X22750000Y-17799000D01*
X22769685Y-17731961D01*
X22822489Y-17686206D01*
X22874000Y-17675000D01*
X104176000Y-17675000D01*
X104243039Y-17694685D01*
G37*
G04 #@! TD.AperFunction*
G04 #@! TD*
M02*
