%TF.GenerationSoftware,KiCad,Pcbnew,9.0.6*%
%TF.CreationDate,2026-03-14T06:17:06-04:00*%
%TF.ProjectId,FigCNC,46696743-4e43-42e6-9b69-6361645f7063,rev?*%
%TF.SameCoordinates,Original*%
%TF.FileFunction,Copper,L2,Bot*%
%TF.FilePolarity,Positive*%
%FSLAX46Y46*%
G04 Gerber Fmt 4.6, Leading zero omitted, Abs format (unit mm)*
G04 Created by KiCad (PCBNEW 9.0.6) date 2026-03-14 06:17:06*
%MOMM*%
%LPD*%
G01*
G04 APERTURE LIST*
G04 Aperture macros list*
%AMRoundRect*
0 Rectangle with rounded corners*
0 $1 Rounding radius*
0 $2 $3 $4 $5 $6 $7 $8 $9 X,Y pos of 4 corners*
0 Add a 4 corners polygon primitive as box body*
4,1,4,$2,$3,$4,$5,$6,$7,$8,$9,$2,$3,0*
0 Add four circle primitives for the rounded corners*
1,1,$1+$1,$2,$3*
1,1,$1+$1,$4,$5*
1,1,$1+$1,$6,$7*
1,1,$1+$1,$8,$9*
0 Add four rect primitives between the rounded corners*
20,1,$1+$1,$2,$3,$4,$5,0*
20,1,$1+$1,$4,$5,$6,$7,0*
20,1,$1+$1,$6,$7,$8,$9,0*
20,1,$1+$1,$8,$9,$2,$3,0*%
G04 Aperture macros list end*
%TA.AperFunction,ComponentPad*%
%ADD10RoundRect,0.250000X-0.550000X0.650000X-0.550000X-0.650000X0.550000X-0.650000X0.550000X0.650000X0*%
%TD*%
%TA.AperFunction,ComponentPad*%
%ADD11C,1.800000*%
%TD*%
%TA.AperFunction,ComponentPad*%
%ADD12C,0.600000*%
%TD*%
%TA.AperFunction,SMDPad,CuDef*%
%ADD13R,4.500000X2.950000*%
%TD*%
%TA.AperFunction,ComponentPad*%
%ADD14R,1.800000X1.800000*%
%TD*%
%TA.AperFunction,ComponentPad*%
%ADD15C,2.000000*%
%TD*%
%TA.AperFunction,ComponentPad*%
%ADD16RoundRect,0.250000X-1.050000X1.050000X-1.050000X-1.050000X1.050000X-1.050000X1.050000X1.050000X0*%
%TD*%
%TA.AperFunction,ComponentPad*%
%ADD17C,2.600000*%
%TD*%
%TA.AperFunction,ComponentPad*%
%ADD18R,3.500000X3.500000*%
%TD*%
%TA.AperFunction,ComponentPad*%
%ADD19RoundRect,0.750000X-0.750000X-1.000000X0.750000X-1.000000X0.750000X1.000000X-0.750000X1.000000X0*%
%TD*%
%TA.AperFunction,ComponentPad*%
%ADD20RoundRect,0.875000X-0.875000X-0.875000X0.875000X-0.875000X0.875000X0.875000X-0.875000X0.875000X0*%
%TD*%
%TA.AperFunction,ComponentPad*%
%ADD21RoundRect,0.250000X-0.725000X0.600000X-0.725000X-0.600000X0.725000X-0.600000X0.725000X0.600000X0*%
%TD*%
%TA.AperFunction,ComponentPad*%
%ADD22O,1.950000X1.700000*%
%TD*%
%TA.AperFunction,ComponentPad*%
%ADD23RoundRect,0.249999X0.790001X1.550001X-0.790001X1.550001X-0.790001X-1.550001X0.790001X-1.550001X0*%
%TD*%
%TA.AperFunction,ComponentPad*%
%ADD24O,2.080000X3.600000*%
%TD*%
%TA.AperFunction,SMDPad,CuDef*%
%ADD25RoundRect,0.250000X-0.400000X-0.625000X0.400000X-0.625000X0.400000X0.625000X-0.400000X0.625000X0*%
%TD*%
%TA.AperFunction,SMDPad,CuDef*%
%ADD26RoundRect,0.250000X0.400000X0.625000X-0.400000X0.625000X-0.400000X-0.625000X0.400000X-0.625000X0*%
%TD*%
%TA.AperFunction,SMDPad,CuDef*%
%ADD27RoundRect,0.250000X0.625000X-0.400000X0.625000X0.400000X-0.625000X0.400000X-0.625000X-0.400000X0*%
%TD*%
%TA.AperFunction,SMDPad,CuDef*%
%ADD28RoundRect,0.250000X-0.625000X0.400000X-0.625000X-0.400000X0.625000X-0.400000X0.625000X0.400000X0*%
%TD*%
%TA.AperFunction,SMDPad,CuDef*%
%ADD29R,0.700000X1.600000*%
%TD*%
%TA.AperFunction,SMDPad,CuDef*%
%ADD30R,1.200000X2.200000*%
%TD*%
%TA.AperFunction,SMDPad,CuDef*%
%ADD31R,1.600000X1.400000*%
%TD*%
%TA.AperFunction,SMDPad,CuDef*%
%ADD32R,1.200000X1.400000*%
%TD*%
%TA.AperFunction,ViaPad*%
%ADD33C,0.600000*%
%TD*%
%TA.AperFunction,Conductor*%
%ADD34C,0.700000*%
%TD*%
G04 APERTURE END LIST*
D10*
%TO.P,U4,1*%
%TO.N,/5V*%
X91575000Y-72145000D03*
D11*
%TO.P,U4,2*%
%TO.N,Net-(R11-Pad1)*%
X89035000Y-72145000D03*
%TO.P,U4,3*%
%TO.N,GND*%
X89035000Y-79765000D03*
%TO.P,U4,4*%
%TO.N,Net-(R12-Pad2)*%
X91575000Y-79765000D03*
%TD*%
D12*
%TO.P,U2,9,GNDPAD*%
%TO.N,GND*%
X90225000Y-99875000D03*
X91425000Y-99875000D03*
X92725000Y-99875000D03*
X93825000Y-99875000D03*
D13*
X92025000Y-99275000D03*
D12*
X90225000Y-98675000D03*
X91425000Y-98675000D03*
X92725000Y-98675000D03*
X93825000Y-98675000D03*
%TD*%
D10*
%TO.P,U6,1*%
%TO.N,/5V*%
X104175000Y-72145000D03*
D11*
%TO.P,U6,2*%
%TO.N,Net-(R17-Pad1)*%
X101635000Y-72145000D03*
%TO.P,U6,3*%
%TO.N,GND*%
X101635000Y-79765000D03*
%TO.P,U6,4*%
%TO.N,Net-(R18-Pad2)*%
X104175000Y-79765000D03*
%TD*%
D10*
%TO.P,U5,1*%
%TO.N,/5V*%
X97875000Y-72100000D03*
D11*
%TO.P,U5,2*%
%TO.N,Net-(R14-Pad1)*%
X95335000Y-72100000D03*
%TO.P,U5,3*%
%TO.N,GND*%
X95335000Y-79720000D03*
%TO.P,U5,4*%
%TO.N,Net-(R15-Pad2)*%
X97875000Y-79720000D03*
%TD*%
D14*
%TO.P,GND1,1,Pin_1*%
%TO.N,GND*%
X143850000Y-98400000D03*
D15*
%TO.P,GND1,2,Pin_2*%
%TO.N,unconnected-(GND1-Pin_2-Pad2)*%
X143850000Y-95860000D03*
%TO.P,GND1,3,Pin_3*%
%TO.N,unconnected-(GND1-Pin_3-Pad3)*%
X143850000Y-93320000D03*
%TO.P,GND1,4,Pin_4*%
%TO.N,/RX*%
X143850000Y-90780000D03*
%TO.P,GND1,5,Pin_5*%
%TO.N,/TX*%
X143850000Y-88240000D03*
%TO.P,GND1,6,Pin_6*%
%TO.N,unconnected-(GND1-Pin_6-Pad6)*%
X143850000Y-85700000D03*
%TD*%
D16*
%TO.P,J2,1,Pin_1*%
%TO.N,Net-(J2-Pin_1)*%
X71750000Y-69450000D03*
D17*
%TO.P,J2,2,Pin_2*%
%TO.N,Net-(J2-Pin_2)*%
X71750000Y-74450000D03*
%TO.P,J2,3,Pin_3*%
%TO.N,GND*%
X71750000Y-79450000D03*
%TD*%
D18*
%TO.P,12-36V,1*%
%TO.N,/VIN*%
X79450000Y-110692500D03*
D19*
%TO.P,12-36V,2*%
%TO.N,GND*%
X73450000Y-110692500D03*
D20*
%TO.P,12-36V,3*%
%TO.N,N/C*%
X76450000Y-115392500D03*
%TD*%
D16*
%TO.P,J1,1,Pin_1*%
%TO.N,/Z-PROBE-IN*%
X71750000Y-85800000D03*
D17*
%TO.P,J1,2,Pin_2*%
%TO.N,VCC*%
X71750000Y-90800000D03*
%TO.P,J1,3,Pin_3*%
%TO.N,GND*%
X71750000Y-95800000D03*
%TO.P,J1,4,Pin_4*%
%TO.N,/VIN*%
X71750000Y-100800000D03*
%TD*%
D14*
%TO.P,U1,J2_1,3V3*%
%TO.N,VCC*%
X112127500Y-80835000D03*
D11*
%TO.P,U1,J2_2,EN*%
%TO.N,unconnected-(U1-EN-PadJ2_2)*%
X112127500Y-83375000D03*
%TO.P,U1,J2_3,SENSOR_VP*%
%TO.N,/Z-PROBE*%
X112127500Y-85915000D03*
%TO.P,U1,J2_4,SENSOR_VN*%
%TO.N,/Z-LIMIT*%
X112127500Y-88455000D03*
%TO.P,U1,J2_5,IO34*%
%TO.N,/Y2-LIMIT*%
X112127500Y-90995000D03*
%TO.P,U1,J2_6,IO35*%
%TO.N,/Y1-LIMIT*%
X112127500Y-93535000D03*
%TO.P,U1,J2_7,IO32*%
%TO.N,/X-LIMIT*%
X112127500Y-96075000D03*
%TO.P,U1,J2_8,IO33*%
%TO.N,/Z-DIR*%
X112127500Y-98615000D03*
%TO.P,U1,J2_9,IO25*%
%TO.N,/Z-STEP*%
X112127500Y-101155000D03*
%TO.P,U1,J2_10,IO26*%
%TO.N,/Y2-STEP*%
X112127500Y-103695000D03*
%TO.P,U1,J2_11,IO27*%
%TO.N,/Y-DIR*%
X112127500Y-106235000D03*
%TO.P,U1,J2_12,IO14*%
%TO.N,/Y1-STEP*%
X112127500Y-108775000D03*
%TO.P,U1,J2_13,IO12*%
%TO.N,unconnected-(U1-IO12-PadJ2_13)*%
X112127500Y-111315000D03*
%TO.P,U1,J2_14,GND_J2_14*%
%TO.N,GND*%
X112127500Y-113855000D03*
%TO.P,U1,J2_15,IO13*%
%TO.N,/X-DIR*%
X112127500Y-116395000D03*
%TO.P,U1,J2_16,SD2*%
%TO.N,unconnected-(U1-SD2-PadJ2_16)*%
X112127500Y-118935000D03*
%TO.P,U1,J2_17,SD3*%
%TO.N,unconnected-(U1-SD3-PadJ2_17)*%
X112127500Y-121475000D03*
%TO.P,U1,J2_18,CMD*%
%TO.N,unconnected-(U1-CMD-PadJ2_18)*%
X112127500Y-124015000D03*
%TO.P,U1,J2_19,EXT_5V*%
%TO.N,/5V*%
X112127500Y-126555000D03*
%TO.P,U1,J3_1,GND_J3_1*%
%TO.N,GND*%
X137527500Y-80835000D03*
%TO.P,U1,J3_2,IO23*%
%TO.N,/MOSI*%
X137527500Y-83375000D03*
%TO.P,U1,J3_3,IO22*%
%TO.N,/X-STEP*%
X137527500Y-85915000D03*
%TO.P,U1,J3_4,TXD0*%
%TO.N,/TX*%
X137527500Y-88455000D03*
%TO.P,U1,J3_5,RXD0*%
%TO.N,/RX*%
X137527500Y-90995000D03*
%TO.P,U1,J3_6,IO21*%
%TO.N,/RS485-DIR*%
X137527500Y-93535000D03*
%TO.P,U1,J3_7,GND_J3_7*%
%TO.N,unconnected-(U1-GND_J3_7-PadJ3_7)*%
X137527500Y-96075000D03*
%TO.P,U1,J3_8,IO19*%
%TO.N,/MISO*%
X137527500Y-98615000D03*
%TO.P,U1,J3_9,IO18*%
%TO.N,/SCK*%
X137527500Y-101155000D03*
%TO.P,U1,J3_10,IO5*%
%TO.N,/CS_SD*%
X137527500Y-103695000D03*
%TO.P,U1,J3_11,IO17*%
%TO.N,/PENDANT-TX*%
X137527500Y-106235000D03*
%TO.P,U1,J3_12,IO16*%
%TO.N,/PENDANT-RX*%
X137527500Y-108775000D03*
%TO.P,U1,J3_13,IO4*%
%TO.N,/RS485-RX*%
X137527500Y-111315000D03*
%TO.P,U1,J3_14,IO0*%
%TO.N,unconnected-(U1-IO0-PadJ3_14)*%
X137527500Y-113855000D03*
%TO.P,U1,J3_15,IO2*%
%TO.N,unconnected-(U1-IO2-PadJ3_15)*%
X137527500Y-116395000D03*
%TO.P,U1,J3_16,IO15*%
%TO.N,/RS485-TX*%
X137527500Y-118935000D03*
%TO.P,U1,J3_17,SD1*%
%TO.N,unconnected-(U1-SD1-PadJ3_17)*%
X137527500Y-121475000D03*
%TO.P,U1,J3_18,SD0*%
%TO.N,unconnected-(U1-SD0-PadJ3_18)*%
X137527500Y-124015000D03*
%TO.P,U1,J3_19,CLK*%
%TO.N,unconnected-(U1-CLK-PadJ3_19)*%
X137527500Y-126555000D03*
%TD*%
D21*
%TO.P,J5,1,Pin_1*%
%TO.N,/5V*%
X143850000Y-103600000D03*
D22*
%TO.P,J5,2,Pin_2*%
%TO.N,GND*%
X143850000Y-106100000D03*
%TO.P,J5,3,Pin_3*%
%TO.N,/PENDANT-TX*%
X143850000Y-108600000D03*
%TO.P,J5,4,Pin_4*%
%TO.N,/PENDANT-RX*%
X143850000Y-111100000D03*
%TD*%
D14*
%TO.P,J4,1,Pin_1*%
%TO.N,/5V*%
X143850000Y-72840000D03*
D15*
%TO.P,J4,2,Pin_2*%
%TO.N,GND*%
X143850000Y-75380000D03*
%TO.P,J4,3,Pin_3*%
%TO.N,/TX*%
X143850000Y-77920000D03*
%TO.P,J4,4,Pin_4*%
%TO.N,/RX*%
X143850000Y-80460000D03*
%TD*%
D10*
%TO.P,U3,1*%
%TO.N,/5V*%
X85275000Y-72145000D03*
D11*
%TO.P,U3,2*%
%TO.N,Net-(R8-Pad1)*%
X82735000Y-72145000D03*
%TO.P,U3,3*%
%TO.N,GND*%
X82735000Y-79765000D03*
%TO.P,U3,4*%
%TO.N,Net-(R9-Pad2)*%
X85275000Y-79765000D03*
%TD*%
D23*
%TO.P,J8,1,Pin_1*%
%TO.N,/X-STEP*%
X135740000Y-62800000D03*
D24*
%TO.P,J8,2,Pin_2*%
%TO.N,/X-DIR*%
X130660000Y-62800000D03*
%TO.P,J8,3,Pin_3*%
%TO.N,/Y1-STEP*%
X125580000Y-62800000D03*
%TO.P,J8,4,Pin_4*%
%TO.N,/Y-DIR*%
X120500000Y-62800000D03*
%TO.P,J8,5,Pin_5*%
%TO.N,/Y2-STEP*%
X115420000Y-62800000D03*
%TO.P,J8,6,Pin_6*%
%TO.N,/Y-DIR*%
X110340000Y-62800000D03*
%TO.P,J8,7,Pin_7*%
%TO.N,/Z-STEP*%
X105260000Y-62800000D03*
%TO.P,J8,8,Pin_8*%
%TO.N,/Z-DIR*%
X100180000Y-62800000D03*
%TO.P,J8,9,Pin_9*%
%TO.N,/Z-LIMIT-INPUT*%
X95100000Y-62800000D03*
%TO.P,J8,10,Pin_10*%
%TO.N,/Y2-LIMIT-INPUT*%
X90020000Y-62800000D03*
%TO.P,J8,11,Pin_11*%
%TO.N,/Y1-LIMIT-INPUT*%
X84940000Y-62800000D03*
%TO.P,J8,12,Pin_12*%
%TO.N,/X-LIMIT-INPUT*%
X79860000Y-62800000D03*
%TD*%
D10*
%TO.P,U7,1*%
%TO.N,/5V*%
X99500000Y-119970000D03*
D11*
%TO.P,U7,2*%
%TO.N,Net-(R20-Pad1)*%
X96960000Y-119970000D03*
%TO.P,U7,3*%
%TO.N,GND*%
X96960000Y-127590000D03*
%TO.P,U7,4*%
%TO.N,Net-(R21-Pad2)*%
X99500000Y-127590000D03*
%TD*%
D25*
%TO.P,R13,1*%
%TO.N,/Y1-LIMIT*%
X115200000Y-93450000D03*
%TO.P,R13,2*%
%TO.N,VCC*%
X118300000Y-93450000D03*
%TD*%
%TO.P,R19,1*%
%TO.N,/Z-LIMIT*%
X115200000Y-88550000D03*
%TO.P,R19,2*%
%TO.N,VCC*%
X118300000Y-88550000D03*
%TD*%
D26*
%TO.P,R21,1*%
%TO.N,/Z-PROBE*%
X105500000Y-127625000D03*
%TO.P,R21,2*%
%TO.N,Net-(R21-Pad2)*%
X102400000Y-127625000D03*
%TD*%
D25*
%TO.P,R7,1*%
%TO.N,/CS_SD*%
X121300000Y-121800000D03*
%TO.P,R7,2*%
%TO.N,VCC*%
X124400000Y-121800000D03*
%TD*%
D27*
%TO.P,R18,1*%
%TO.N,/Z-LIMIT*%
X103600000Y-85550000D03*
%TO.P,R18,2*%
%TO.N,Net-(R18-Pad2)*%
X103600000Y-82450000D03*
%TD*%
D28*
%TO.P,R20,1*%
%TO.N,Net-(R20-Pad1)*%
X93450000Y-119900000D03*
%TO.P,R20,2*%
%TO.N,/Z-PROBE-IN*%
X93450000Y-123000000D03*
%TD*%
D25*
%TO.P,R10,1*%
%TO.N,/X-LIMIT*%
X115170629Y-96065941D03*
%TO.P,R10,2*%
%TO.N,VCC*%
X118270629Y-96065941D03*
%TD*%
D27*
%TO.P,R15,1*%
%TO.N,/Y2-LIMIT*%
X98000000Y-85550000D03*
%TO.P,R15,2*%
%TO.N,Net-(R15-Pad2)*%
X98000000Y-82450000D03*
%TD*%
D25*
%TO.P,R16,1*%
%TO.N,/Y2-LIMIT*%
X115200000Y-91000000D03*
%TO.P,R16,2*%
%TO.N,VCC*%
X118300000Y-91000000D03*
%TD*%
D27*
%TO.P,R17,1*%
%TO.N,Net-(R17-Pad1)*%
X95200000Y-69450000D03*
%TO.P,R17,2*%
%TO.N,/Z-LIMIT-INPUT*%
X95200000Y-66350000D03*
%TD*%
D29*
%TO.P,J6,1,DAT2*%
%TO.N,/DAT2*%
X121650000Y-117962500D03*
%TO.P,J6,2,CD/DAT3*%
%TO.N,/CS_SD*%
X122750000Y-117962500D03*
%TO.P,J6,3,CMD*%
%TO.N,/MOSI*%
X123850000Y-117962500D03*
%TO.P,J6,4,VDD*%
%TO.N,VCC*%
X124950000Y-117962500D03*
%TO.P,J6,5,CLK*%
%TO.N,/SCK*%
X126050000Y-117962500D03*
%TO.P,J6,6,VSS*%
%TO.N,GND*%
X127150000Y-117962500D03*
%TO.P,J6,7,DAT0*%
%TO.N,/MISO*%
X128250000Y-117962500D03*
%TO.P,J6,8,DAT1*%
%TO.N,/DAT1*%
X129350000Y-117962500D03*
%TO.P,J6,9,GND*%
%TO.N,GND*%
X130450000Y-117962500D03*
D30*
%TO.P,J6,SH*%
%TO.N,N/C*%
X116150000Y-128062500D03*
D31*
X117050000Y-118462500D03*
D32*
X131650000Y-118462500D03*
D30*
X131650000Y-128062500D03*
%TD*%
D27*
%TO.P,R8,1*%
%TO.N,Net-(R8-Pad1)*%
X79800000Y-69450000D03*
%TO.P,R8,2*%
%TO.N,/X-LIMIT-INPUT*%
X79800000Y-66350000D03*
%TD*%
%TO.P,R11,1*%
%TO.N,Net-(R11-Pad1)*%
X85050000Y-69450000D03*
%TO.P,R11,2*%
%TO.N,/Y1-LIMIT-INPUT*%
X85050000Y-66350000D03*
%TD*%
%TO.P,R14,1*%
%TO.N,Net-(R14-Pad1)*%
X89950000Y-69450000D03*
%TO.P,R14,2*%
%TO.N,/Y2-LIMIT-INPUT*%
X89950000Y-66350000D03*
%TD*%
%TO.P,R22,1*%
%TO.N,/Z-PROBE*%
X108500000Y-83100000D03*
%TO.P,R22,2*%
%TO.N,VCC*%
X108500000Y-80000000D03*
%TD*%
D26*
%TO.P,R4,1*%
%TO.N,/MISO*%
X128950000Y-114100000D03*
%TO.P,R4,2*%
%TO.N,VCC*%
X125850000Y-114100000D03*
%TD*%
D27*
%TO.P,R12,1*%
%TO.N,/Y1-LIMIT*%
X91700000Y-85550000D03*
%TO.P,R12,2*%
%TO.N,Net-(R12-Pad2)*%
X91700000Y-82450000D03*
%TD*%
%TO.P,R9,1*%
%TO.N,/X-LIMIT*%
X85050000Y-85550000D03*
%TO.P,R9,2*%
%TO.N,Net-(R9-Pad2)*%
X85050000Y-82450000D03*
%TD*%
D33*
%TO.N,/Z-PROBE*%
X108150000Y-128800000D03*
%TO.N,GND*%
X131950000Y-114100000D03*
%TO.N,VCC*%
X77700000Y-85050000D03*
X107450000Y-78750000D03*
X128450000Y-110250000D03*
X75250000Y-69650000D03*
%TD*%
D34*
%TO.N,/X-DIR*%
X113905000Y-116395000D02*
X112127500Y-116395000D01*
X130660000Y-99640000D02*
X113905000Y-116395000D01*
X130660000Y-99640000D02*
X130660000Y-62800000D01*
%TO.N,/X-LIMIT*%
X112136559Y-96065941D02*
X112127500Y-96075000D01*
X112127500Y-96075000D02*
X109725000Y-96075000D01*
X105000000Y-91350000D02*
X89950000Y-91350000D01*
X115170629Y-96065941D02*
X112136559Y-96065941D01*
X109725000Y-96075000D02*
X105000000Y-91350000D01*
X85050000Y-86450000D02*
X85050000Y-85550000D01*
X89950000Y-91350000D02*
X85050000Y-86450000D01*
%TO.N,/X-STEP*%
X140000000Y-67060000D02*
X135740000Y-62800000D01*
X139135000Y-85915000D02*
X137527500Y-85915000D01*
X140000000Y-85050000D02*
X139135000Y-85915000D01*
X140000000Y-85050000D02*
X140000000Y-67060000D01*
%TO.N,/Y1-STEP*%
X125580000Y-76580000D02*
X125580000Y-62800000D01*
X128450000Y-99050000D02*
X128450000Y-79450000D01*
X112127500Y-108775000D02*
X118725000Y-108775000D01*
X128450000Y-79450000D02*
X125580000Y-76580000D01*
X118725000Y-108775000D02*
X128450000Y-99050000D01*
%TO.N,/Z-LIMIT*%
X112222500Y-88550000D02*
X112127500Y-88455000D01*
X107950000Y-85550000D02*
X103600000Y-85550000D01*
X115200000Y-88550000D02*
X112222500Y-88550000D01*
X112127500Y-88455000D02*
X110855000Y-88455000D01*
X107950000Y-85550000D02*
X110855000Y-88455000D01*
%TO.N,/Y2-STEP*%
X118555000Y-103695000D02*
X112127500Y-103695000D01*
X115420000Y-72370000D02*
X124600000Y-81550000D01*
X124600000Y-97650000D02*
X118555000Y-103695000D01*
X124600000Y-81550000D02*
X124600000Y-97650000D01*
X115420000Y-72370000D02*
X115420000Y-62800000D01*
%TO.N,/Y-DIR*%
X118465000Y-106235000D02*
X112127500Y-106235000D01*
X126700000Y-80500000D02*
X126700000Y-98000000D01*
X110340000Y-60810000D02*
X110340000Y-62800000D01*
X120500000Y-74300000D02*
X120500000Y-62800000D01*
X112000000Y-59150000D02*
X110340000Y-60810000D01*
X120500000Y-62800000D02*
X120500000Y-60650000D01*
X126700000Y-98000000D02*
X118465000Y-106235000D01*
X120500000Y-60650000D02*
X119000000Y-59150000D01*
X120500000Y-74300000D02*
X126700000Y-80500000D01*
X119000000Y-59150000D02*
X112000000Y-59150000D01*
%TO.N,/Y1-LIMIT*%
X95400000Y-89250000D02*
X105700000Y-89250000D01*
X112212500Y-93450000D02*
X112127500Y-93535000D01*
X112127500Y-93535000D02*
X109985000Y-93535000D01*
X91700000Y-85550000D02*
X95400000Y-89250000D01*
X109985000Y-93535000D02*
X105700000Y-89250000D01*
X115200000Y-93450000D02*
X112212500Y-93450000D01*
%TO.N,/Z-DIR*%
X120750000Y-96950000D02*
X120750000Y-84700000D01*
X112127500Y-98615000D02*
X119085000Y-98615000D01*
X119085000Y-98615000D02*
X120750000Y-96950000D01*
X120750000Y-84700000D02*
X100180000Y-64130000D01*
%TO.N,/Y2-LIMIT*%
X112122500Y-91000000D02*
X110250000Y-91000000D01*
X98000000Y-85550000D02*
X99950000Y-87500000D01*
X110250000Y-91000000D02*
X106750000Y-87500000D01*
X112127500Y-90995000D02*
X112122500Y-91000000D01*
X115200000Y-91000000D02*
X112132500Y-91000000D01*
X99950000Y-87500000D02*
X106750000Y-87500000D01*
X112132500Y-91000000D02*
X112127500Y-90995000D01*
%TO.N,/Z-STEP*%
X122500000Y-82600000D02*
X122500000Y-97650000D01*
X122500000Y-97650000D02*
X118995000Y-101155000D01*
X105260000Y-65360000D02*
X105260000Y-62800000D01*
X118995000Y-101155000D02*
X112127500Y-101155000D01*
X122500000Y-82600000D02*
X105260000Y-65360000D01*
%TO.N,/Z-PROBE*%
X105500000Y-127625000D02*
X106975000Y-127625000D01*
X108500000Y-83100000D02*
X108500000Y-83300000D01*
X111115000Y-85915000D02*
X112127500Y-85915000D01*
X106975000Y-127625000D02*
X108150000Y-128800000D01*
X108500000Y-83300000D02*
X111115000Y-85915000D01*
X112642500Y-85400000D02*
X112127500Y-85915000D01*
%TO.N,/5V*%
X110105000Y-126555000D02*
X112127500Y-126555000D01*
X104175000Y-74675000D02*
X104175000Y-72145000D01*
X76300000Y-80500000D02*
X81550000Y-75250000D01*
X147187780Y-100302220D02*
X147147780Y-100302220D01*
X81550000Y-75250000D02*
X84000000Y-75250000D01*
X145600000Y-72800000D02*
X145560000Y-72840000D01*
X140000000Y-116900000D02*
X142450000Y-114450000D01*
X85275000Y-73975000D02*
X84000000Y-75250000D01*
X82250000Y-91700000D02*
X76300000Y-85750000D01*
X85275000Y-72145000D02*
X85275000Y-73975000D01*
X147187780Y-100302220D02*
X147187780Y-74387780D01*
X147147780Y-100302220D02*
X143850000Y-103600000D01*
X144900000Y-114450000D02*
X145950000Y-113400000D01*
X147187780Y-74387780D02*
X145600000Y-72800000D01*
X145250000Y-103600000D02*
X143850000Y-103600000D01*
X140003304Y-128096696D02*
X140003304Y-116903304D01*
X84350000Y-75250000D02*
X90300000Y-75250000D01*
X99500000Y-119970000D02*
X97480000Y-117950000D01*
X96250000Y-75250000D02*
X103600000Y-75250000D01*
X136150000Y-128800000D02*
X139300000Y-128800000D01*
X91575000Y-72145000D02*
X91575000Y-73975000D01*
X82250000Y-116200000D02*
X82250000Y-91700000D01*
X133000000Y-125650000D02*
X136150000Y-128800000D01*
X145950000Y-113400000D02*
X145950000Y-104300000D01*
X108500000Y-124950000D02*
X110105000Y-126555000D01*
X99500000Y-119970000D02*
X103520000Y-119970000D01*
X97480000Y-117950000D02*
X84000000Y-117950000D01*
X84000000Y-117950000D02*
X82250000Y-116200000D01*
X97875000Y-72100000D02*
X97875000Y-73625000D01*
X112127500Y-126555000D02*
X113032500Y-125650000D01*
X145560000Y-72840000D02*
X143850000Y-72840000D01*
X91575000Y-73975000D02*
X90300000Y-75250000D01*
X103520000Y-119970000D02*
X108500000Y-124950000D01*
X84000000Y-75250000D02*
X84350000Y-75250000D01*
X103600000Y-75250000D02*
X104175000Y-74675000D01*
X90300000Y-75250000D02*
X96250000Y-75250000D01*
X145950000Y-104300000D02*
X145250000Y-103600000D01*
X76300000Y-85750000D02*
X76300000Y-80500000D01*
X142450000Y-114450000D02*
X144900000Y-114450000D01*
X140003304Y-116903304D02*
X140000000Y-116900000D01*
X97875000Y-73625000D02*
X96250000Y-75250000D01*
X113032500Y-125650000D02*
X133000000Y-125650000D01*
X139300000Y-128800000D02*
X140003304Y-128096696D01*
%TO.N,GND*%
X130450000Y-115600000D02*
X130450000Y-117962500D01*
X131950000Y-114100000D02*
X130450000Y-115600000D01*
%TO.N,/TX*%
X137742500Y-88240000D02*
X141750000Y-88240000D01*
X141750000Y-79100000D02*
X141750000Y-88240000D01*
X141750000Y-88240000D02*
X143850000Y-88240000D01*
X137527500Y-88455000D02*
X137742500Y-88240000D01*
X142930000Y-77920000D02*
X141750000Y-79100000D01*
X143850000Y-77920000D02*
X142930000Y-77920000D01*
%TO.N,VCC*%
X124950000Y-117962500D02*
X124950000Y-121250000D01*
X74550000Y-70350000D02*
X75250000Y-69650000D01*
X81200000Y-77350000D02*
X105850000Y-77350000D01*
X110250000Y-80850000D02*
X110265000Y-80835000D01*
X125850000Y-114100000D02*
X125850000Y-112850000D01*
X118300000Y-93450000D02*
X118300000Y-91000000D01*
X110265000Y-80835000D02*
X112127500Y-80835000D01*
X77700000Y-80850000D02*
X77700000Y-85050000D01*
X114435000Y-80835000D02*
X118300000Y-84700000D01*
X72100000Y-91350000D02*
X71750000Y-91000000D01*
X74550000Y-88900000D02*
X72650000Y-90800000D01*
X118270629Y-93479371D02*
X118300000Y-93450000D01*
X108500000Y-80000000D02*
X109400000Y-80000000D01*
X107450000Y-78750000D02*
X107450000Y-78950000D01*
X125850000Y-114100000D02*
X124950000Y-115000000D01*
X81200000Y-77350000D02*
X77700000Y-80850000D01*
X105850000Y-77350000D02*
X107450000Y-78950000D01*
X118270629Y-96065941D02*
X118270629Y-93479371D01*
X124950000Y-121250000D02*
X124400000Y-121800000D01*
X74550000Y-88900000D02*
X74550000Y-70350000D01*
X124950000Y-115000000D02*
X124950000Y-117962500D01*
X118300000Y-91000000D02*
X118300000Y-88550000D01*
X118300000Y-84700000D02*
X118300000Y-88550000D01*
X111930000Y-80637500D02*
X112127500Y-80835000D01*
X125850000Y-112850000D02*
X128450000Y-110250000D01*
X72650000Y-90800000D02*
X71750000Y-90800000D01*
X107450000Y-78950000D02*
X108500000Y-80000000D01*
X112127500Y-80835000D02*
X114435000Y-80835000D01*
X109400000Y-80000000D02*
X110250000Y-80850000D01*
%TO.N,/RX*%
X137742500Y-90780000D02*
X137527500Y-90995000D01*
X143850000Y-80460000D02*
X145852503Y-82462503D01*
X145120000Y-90780000D02*
X143850000Y-90780000D01*
X145852503Y-82462503D02*
X145852503Y-90047497D01*
X143850000Y-90780000D02*
X137742500Y-90780000D01*
X145852503Y-90047497D02*
X145120000Y-90780000D01*
%TO.N,/PENDANT-TX*%
X139835000Y-106235000D02*
X142200000Y-108600000D01*
X142200000Y-108600000D02*
X143850000Y-108600000D01*
X137527500Y-106235000D02*
X139835000Y-106235000D01*
%TO.N,/PENDANT-RX*%
X139575000Y-108775000D02*
X141900000Y-111100000D01*
X137527500Y-108775000D02*
X139575000Y-108775000D01*
X141900000Y-111100000D02*
X143850000Y-111100000D01*
%TO.N,/MOSI*%
X135100000Y-84350000D02*
X135100000Y-97650000D01*
X123850000Y-108900000D02*
X123850000Y-117962500D01*
X136075000Y-83375000D02*
X135100000Y-84350000D01*
X137527500Y-83375000D02*
X136075000Y-83375000D01*
X135100000Y-97650000D02*
X123850000Y-108900000D01*
%TO.N,/MISO*%
X128950000Y-113250000D02*
X132300000Y-109900000D01*
X128250000Y-114800000D02*
X128250000Y-117962500D01*
X132300000Y-109900000D02*
X132300000Y-102900000D01*
X132300000Y-102900000D02*
X136585000Y-98615000D01*
X136585000Y-98615000D02*
X137527500Y-98615000D01*
X128950000Y-114100000D02*
X128950000Y-113250000D01*
X128950000Y-114100000D02*
X128250000Y-114800000D01*
%TO.N,/SCK*%
X133873170Y-103776830D02*
X133873170Y-120126830D01*
X127400000Y-122100000D02*
X126050000Y-120750000D01*
X136495000Y-101155000D02*
X133873170Y-103776830D01*
X131900000Y-122100000D02*
X127400000Y-122100000D01*
X133873170Y-120126830D02*
X131900000Y-122100000D01*
X137527500Y-101155000D02*
X136495000Y-101155000D01*
X126050000Y-120750000D02*
X126050000Y-117962500D01*
%TO.N,/CS_SD*%
X135450000Y-121050000D02*
X132650000Y-123850000D01*
X135450000Y-105772500D02*
X135450000Y-121050000D01*
X122750000Y-117962500D02*
X122750000Y-120350000D01*
X137527500Y-103695000D02*
X135450000Y-105772500D01*
X121300000Y-121800000D02*
X123350000Y-123850000D01*
X122750000Y-120350000D02*
X121300000Y-121800000D01*
X123350000Y-123850000D02*
X132650000Y-123850000D01*
%TO.N,/Z-PROBE-IN*%
X68600000Y-114100000D02*
X68600000Y-88950000D01*
X77500000Y-123000000D02*
X68600000Y-114100000D01*
X93450000Y-123000000D02*
X77500000Y-123000000D01*
X68600000Y-88950000D02*
X71750000Y-85800000D01*
%TO.N,Net-(R8-Pad1)*%
X80040000Y-69450000D02*
X82735000Y-72145000D01*
X79800000Y-69450000D02*
X80040000Y-69450000D01*
%TO.N,Net-(R9-Pad2)*%
X85050000Y-79990000D02*
X85275000Y-79765000D01*
X85050000Y-82450000D02*
X85050000Y-79990000D01*
%TO.N,Net-(R11-Pad1)*%
X86340000Y-69450000D02*
X89035000Y-72145000D01*
X85050000Y-69450000D02*
X86340000Y-69450000D01*
%TO.N,Net-(R12-Pad2)*%
X91700000Y-79890000D02*
X91575000Y-79765000D01*
X91700000Y-82450000D02*
X91700000Y-79890000D01*
%TO.N,Net-(R14-Pad1)*%
X89950000Y-69450000D02*
X92200000Y-69450000D01*
X93800000Y-71050000D02*
X93800000Y-71750000D01*
X94150000Y-72100000D02*
X95335000Y-72100000D01*
X93800000Y-71750000D02*
X94150000Y-72100000D01*
X92200000Y-69450000D02*
X93800000Y-71050000D01*
%TO.N,Net-(R15-Pad2)*%
X98000000Y-79845000D02*
X97875000Y-79720000D01*
X98000000Y-82450000D02*
X98000000Y-79845000D01*
%TO.N,Net-(R17-Pad1)*%
X98940000Y-69450000D02*
X101635000Y-72145000D01*
X95200000Y-69450000D02*
X98940000Y-69450000D01*
%TO.N,Net-(R18-Pad2)*%
X104175000Y-81325000D02*
X104175000Y-79765000D01*
X103600000Y-82450000D02*
X103600000Y-81900000D01*
X103600000Y-81900000D02*
X104175000Y-81325000D01*
%TO.N,Net-(R20-Pad1)*%
X93520000Y-119970000D02*
X93450000Y-119900000D01*
X96960000Y-119970000D02*
X93520000Y-119970000D01*
%TO.N,Net-(R21-Pad2)*%
X99500000Y-127590000D02*
X102365000Y-127590000D01*
X102365000Y-127590000D02*
X102400000Y-127625000D01*
%TO.N,/Z-LIMIT-INPUT*%
X95200000Y-63330000D02*
X95415000Y-63115000D01*
X95415000Y-63115000D02*
X95100000Y-62800000D01*
X95200000Y-66350000D02*
X95200000Y-63330000D01*
%TO.N,/Y2-LIMIT-INPUT*%
X89950000Y-62870000D02*
X90020000Y-62800000D01*
X89950000Y-66350000D02*
X89950000Y-62870000D01*
%TO.N,/X-LIMIT-INPUT*%
X79800000Y-66350000D02*
X79800000Y-62860000D01*
X79800000Y-62860000D02*
X79860000Y-62800000D01*
%TO.N,/Y1-LIMIT-INPUT*%
X85050000Y-66350000D02*
X85050000Y-62910000D01*
X85050000Y-62910000D02*
X84940000Y-62800000D01*
%TD*%
%TA.AperFunction,Conductor*%
%TO.N,GND*%
G36*
X82303674Y-78220185D02*
G01*
X82349429Y-78272989D01*
X82359373Y-78342147D01*
X82330348Y-78405703D01*
X82274953Y-78442431D01*
X82197589Y-78467567D01*
X82001233Y-78567616D01*
X81937485Y-78613931D01*
X81937485Y-78613932D01*
X82688553Y-79365000D01*
X82682339Y-79365000D01*
X82580606Y-79392259D01*
X82489394Y-79444920D01*
X82414920Y-79519394D01*
X82362259Y-79610606D01*
X82335000Y-79712339D01*
X82335000Y-79718553D01*
X81583932Y-78967485D01*
X81583931Y-78967485D01*
X81537616Y-79031233D01*
X81437567Y-79227589D01*
X81369473Y-79437164D01*
X81335000Y-79654818D01*
X81335000Y-79875181D01*
X81369473Y-80092835D01*
X81437567Y-80302410D01*
X81537611Y-80498756D01*
X81583932Y-80562513D01*
X82335000Y-79811445D01*
X82335000Y-79817661D01*
X82362259Y-79919394D01*
X82414920Y-80010606D01*
X82489394Y-80085080D01*
X82580606Y-80137741D01*
X82682339Y-80165000D01*
X82688553Y-80165000D01*
X81937485Y-80916065D01*
X81937485Y-80916066D01*
X82001243Y-80962388D01*
X82197589Y-81062432D01*
X82407164Y-81130526D01*
X82624819Y-81165000D01*
X82845181Y-81165000D01*
X83062835Y-81130526D01*
X83272410Y-81062432D01*
X83468760Y-80962386D01*
X83532513Y-80916066D01*
X83532514Y-80916066D01*
X82781447Y-80165000D01*
X82787661Y-80165000D01*
X82889394Y-80137741D01*
X82980606Y-80085080D01*
X83055080Y-80010606D01*
X83107741Y-79919394D01*
X83135000Y-79817661D01*
X83135000Y-79811448D01*
X83886066Y-80562514D01*
X83886066Y-80562513D01*
X83904372Y-80537319D01*
X83926648Y-80520141D01*
X83946822Y-80500535D01*
X83953945Y-80499091D01*
X83959701Y-80494653D01*
X83987729Y-80492245D01*
X84015300Y-80486659D01*
X84022073Y-80489295D01*
X84029315Y-80488674D01*
X84054197Y-80501802D01*
X84080410Y-80512008D01*
X84087641Y-80519449D01*
X84091110Y-80521279D01*
X84105008Y-80537318D01*
X84116256Y-80552799D01*
X84175818Y-80634780D01*
X84199298Y-80700584D01*
X84199500Y-80707664D01*
X84199500Y-81244551D01*
X84179815Y-81311590D01*
X84127011Y-81357345D01*
X84114507Y-81362256D01*
X84105667Y-81365185D01*
X83956342Y-81457289D01*
X83832289Y-81581342D01*
X83740187Y-81730663D01*
X83740185Y-81730668D01*
X83722886Y-81782873D01*
X83685001Y-81897203D01*
X83685001Y-81897204D01*
X83685000Y-81897204D01*
X83674500Y-81999983D01*
X83674500Y-82900001D01*
X83674501Y-82900019D01*
X83685000Y-83002796D01*
X83685001Y-83002799D01*
X83713137Y-83087706D01*
X83740186Y-83169334D01*
X83832288Y-83318656D01*
X83956344Y-83442712D01*
X84105666Y-83534814D01*
X84272203Y-83589999D01*
X84374991Y-83600500D01*
X85725008Y-83600499D01*
X85827797Y-83589999D01*
X85994334Y-83534814D01*
X86143656Y-83442712D01*
X86267712Y-83318656D01*
X86359814Y-83169334D01*
X86414999Y-83002797D01*
X86425500Y-82900009D01*
X86425499Y-81999992D01*
X86424076Y-81986066D01*
X86414999Y-81897203D01*
X86414998Y-81897200D01*
X86404649Y-81865970D01*
X86359814Y-81730666D01*
X86267712Y-81581344D01*
X86143656Y-81457288D01*
X85994334Y-81365186D01*
X85994333Y-81365185D01*
X85994332Y-81365185D01*
X85985493Y-81362256D01*
X85965461Y-81348385D01*
X85943297Y-81338264D01*
X85937247Y-81328851D01*
X85928049Y-81322482D01*
X85918696Y-81299983D01*
X85905523Y-81279486D01*
X85903063Y-81262380D01*
X85901228Y-81257965D01*
X85900500Y-81244551D01*
X85900500Y-81094097D01*
X85920185Y-81027058D01*
X85968203Y-80983612D01*
X86009022Y-80962815D01*
X86187365Y-80833242D01*
X86343242Y-80677365D01*
X86472815Y-80499022D01*
X86572895Y-80302606D01*
X86641015Y-80092951D01*
X86675500Y-79875222D01*
X86675500Y-79654778D01*
X86641015Y-79437049D01*
X86575363Y-79234989D01*
X86572896Y-79227396D01*
X86572895Y-79227393D01*
X86529440Y-79142110D01*
X86472815Y-79030978D01*
X86393991Y-78922485D01*
X86343247Y-78852641D01*
X86343243Y-78852636D01*
X86187363Y-78696756D01*
X86187358Y-78696752D01*
X86009025Y-78567187D01*
X86009024Y-78567186D01*
X86009022Y-78567185D01*
X85946096Y-78535122D01*
X85812606Y-78467104D01*
X85812603Y-78467103D01*
X85736667Y-78442431D01*
X85678992Y-78402994D01*
X85651793Y-78338636D01*
X85663707Y-78269789D01*
X85710951Y-78218313D01*
X85774985Y-78200500D01*
X88536635Y-78200500D01*
X88603674Y-78220185D01*
X88649429Y-78272989D01*
X88659373Y-78342147D01*
X88630348Y-78405703D01*
X88574953Y-78442431D01*
X88497589Y-78467567D01*
X88301233Y-78567616D01*
X88237485Y-78613931D01*
X88237485Y-78613932D01*
X88988553Y-79365000D01*
X88982339Y-79365000D01*
X88880606Y-79392259D01*
X88789394Y-79444920D01*
X88714920Y-79519394D01*
X88662259Y-79610606D01*
X88635000Y-79712339D01*
X88635000Y-79718553D01*
X87883932Y-78967485D01*
X87883931Y-78967485D01*
X87837616Y-79031233D01*
X87737567Y-79227589D01*
X87669473Y-79437164D01*
X87635000Y-79654818D01*
X87635000Y-79875181D01*
X87669473Y-80092835D01*
X87737567Y-80302410D01*
X87837611Y-80498756D01*
X87883932Y-80562513D01*
X88635000Y-79811445D01*
X88635000Y-79817661D01*
X88662259Y-79919394D01*
X88714920Y-80010606D01*
X88789394Y-80085080D01*
X88880606Y-80137741D01*
X88982339Y-80165000D01*
X88988553Y-80165000D01*
X88237485Y-80916065D01*
X88237485Y-80916066D01*
X88301243Y-80962388D01*
X88497589Y-81062432D01*
X88707164Y-81130526D01*
X88924819Y-81165000D01*
X89145181Y-81165000D01*
X89362835Y-81130526D01*
X89572410Y-81062432D01*
X89768760Y-80962386D01*
X89832513Y-80916066D01*
X89832514Y-80916066D01*
X89081447Y-80165000D01*
X89087661Y-80165000D01*
X89189394Y-80137741D01*
X89280606Y-80085080D01*
X89355080Y-80010606D01*
X89407741Y-79919394D01*
X89435000Y-79817661D01*
X89435000Y-79811448D01*
X90186066Y-80562514D01*
X90186066Y-80562513D01*
X90204372Y-80537319D01*
X90259701Y-80494653D01*
X90329315Y-80488674D01*
X90391110Y-80521279D01*
X90405008Y-80537319D01*
X90506752Y-80677358D01*
X90506756Y-80677363D01*
X90662638Y-80833245D01*
X90719189Y-80874331D01*
X90798385Y-80931869D01*
X90801725Y-80936200D01*
X90806703Y-80938474D01*
X90822833Y-80963573D01*
X90841051Y-80987198D01*
X90842304Y-80993871D01*
X90844477Y-80997252D01*
X90849500Y-81032187D01*
X90849500Y-81244551D01*
X90829815Y-81311590D01*
X90777011Y-81357345D01*
X90764507Y-81362256D01*
X90755667Y-81365185D01*
X90606342Y-81457289D01*
X90482289Y-81581342D01*
X90390187Y-81730663D01*
X90390185Y-81730668D01*
X90372886Y-81782873D01*
X90335001Y-81897203D01*
X90335001Y-81897204D01*
X90335000Y-81897204D01*
X90324500Y-81999983D01*
X90324500Y-82900001D01*
X90324501Y-82900019D01*
X90335000Y-83002796D01*
X90335001Y-83002799D01*
X90363137Y-83087706D01*
X90390186Y-83169334D01*
X90482288Y-83318656D01*
X90606344Y-83442712D01*
X90755666Y-83534814D01*
X90922203Y-83589999D01*
X91024991Y-83600500D01*
X92375008Y-83600499D01*
X92477797Y-83589999D01*
X92644334Y-83534814D01*
X92793656Y-83442712D01*
X92917712Y-83318656D01*
X93009814Y-83169334D01*
X93064999Y-83002797D01*
X93075500Y-82900009D01*
X93075499Y-81999992D01*
X93074076Y-81986066D01*
X93064999Y-81897203D01*
X93064998Y-81897200D01*
X93054649Y-81865970D01*
X93009814Y-81730666D01*
X92917712Y-81581344D01*
X92793656Y-81457288D01*
X92644334Y-81365186D01*
X92644333Y-81365185D01*
X92644332Y-81365185D01*
X92635493Y-81362256D01*
X92578049Y-81322482D01*
X92551228Y-81257965D01*
X92550500Y-81244551D01*
X92550500Y-80821469D01*
X92570185Y-80754430D01*
X92586819Y-80733788D01*
X92612943Y-80707664D01*
X92643242Y-80677365D01*
X92772815Y-80499022D01*
X92872895Y-80302606D01*
X92941015Y-80092951D01*
X92975500Y-79875222D01*
X92975500Y-79654778D01*
X92941015Y-79437049D01*
X92875363Y-79234989D01*
X92872896Y-79227396D01*
X92872895Y-79227393D01*
X92829440Y-79142110D01*
X92772815Y-79030978D01*
X92693991Y-78922485D01*
X92643247Y-78852641D01*
X92643243Y-78852636D01*
X92487363Y-78696756D01*
X92487358Y-78696752D01*
X92309025Y-78567187D01*
X92309024Y-78567186D01*
X92309022Y-78567185D01*
X92246096Y-78535122D01*
X92112606Y-78467104D01*
X92112603Y-78467103D01*
X92036667Y-78442431D01*
X91978992Y-78402994D01*
X91951793Y-78338636D01*
X91963707Y-78269789D01*
X92010951Y-78218313D01*
X92074985Y-78200500D01*
X94716924Y-78200500D01*
X94783963Y-78220185D01*
X94829718Y-78272989D01*
X94839662Y-78342147D01*
X94810637Y-78405703D01*
X94773219Y-78434985D01*
X94601233Y-78522616D01*
X94537485Y-78568931D01*
X94537485Y-78568932D01*
X95288553Y-79320000D01*
X95282339Y-79320000D01*
X95180606Y-79347259D01*
X95089394Y-79399920D01*
X95014920Y-79474394D01*
X94962259Y-79565606D01*
X94935000Y-79667339D01*
X94935000Y-79673553D01*
X94183932Y-78922485D01*
X94183931Y-78922485D01*
X94137616Y-78986233D01*
X94037567Y-79182589D01*
X93969473Y-79392164D01*
X93935000Y-79609818D01*
X93935000Y-79830181D01*
X93969473Y-80047835D01*
X94037567Y-80257410D01*
X94137611Y-80453756D01*
X94183932Y-80517513D01*
X94935000Y-79766445D01*
X94935000Y-79772661D01*
X94962259Y-79874394D01*
X95014920Y-79965606D01*
X95089394Y-80040080D01*
X95180606Y-80092741D01*
X95282339Y-80120000D01*
X95288553Y-80120000D01*
X94537485Y-80871065D01*
X94537485Y-80871066D01*
X94601243Y-80917388D01*
X94797589Y-81017432D01*
X95007164Y-81085526D01*
X95224819Y-81120000D01*
X95445181Y-81120000D01*
X95662835Y-81085526D01*
X95872410Y-81017432D01*
X96068760Y-80917386D01*
X96132513Y-80871066D01*
X96132514Y-80871066D01*
X95381447Y-80120000D01*
X95387661Y-80120000D01*
X95489394Y-80092741D01*
X95580606Y-80040080D01*
X95655080Y-79965606D01*
X95707741Y-79874394D01*
X95735000Y-79772661D01*
X95735000Y-79766448D01*
X96486066Y-80517514D01*
X96486066Y-80517513D01*
X96504372Y-80492319D01*
X96559701Y-80449653D01*
X96629315Y-80443674D01*
X96691110Y-80476279D01*
X96705008Y-80492319D01*
X96806752Y-80632358D01*
X96806756Y-80632363D01*
X96962638Y-80788245D01*
X97024574Y-80833243D01*
X97098385Y-80886869D01*
X97141051Y-80942198D01*
X97149500Y-80987187D01*
X97149500Y-81244551D01*
X97129815Y-81311590D01*
X97077011Y-81357345D01*
X97064507Y-81362256D01*
X97055667Y-81365185D01*
X96906342Y-81457289D01*
X96782289Y-81581342D01*
X96690187Y-81730663D01*
X96690185Y-81730668D01*
X96672886Y-81782873D01*
X96635001Y-81897203D01*
X96635001Y-81897204D01*
X96635000Y-81897204D01*
X96624500Y-81999983D01*
X96624500Y-82900001D01*
X96624501Y-82900019D01*
X96635000Y-83002796D01*
X96635001Y-83002799D01*
X96663137Y-83087706D01*
X96690186Y-83169334D01*
X96782288Y-83318656D01*
X96906344Y-83442712D01*
X97055666Y-83534814D01*
X97222203Y-83589999D01*
X97324991Y-83600500D01*
X98675008Y-83600499D01*
X98777797Y-83589999D01*
X98944334Y-83534814D01*
X99093656Y-83442712D01*
X99217712Y-83318656D01*
X99309814Y-83169334D01*
X99364999Y-83002797D01*
X99375500Y-82900009D01*
X99375499Y-81999992D01*
X99374076Y-81986066D01*
X99364999Y-81897203D01*
X99364998Y-81897200D01*
X99354649Y-81865970D01*
X99309814Y-81730666D01*
X99217712Y-81581344D01*
X99093656Y-81457288D01*
X98944334Y-81365186D01*
X98944333Y-81365185D01*
X98944332Y-81365185D01*
X98935493Y-81362256D01*
X98878049Y-81322482D01*
X98851228Y-81257965D01*
X98850500Y-81244551D01*
X98850500Y-80776469D01*
X98870185Y-80709430D01*
X98886819Y-80688788D01*
X98914301Y-80661306D01*
X98943242Y-80632365D01*
X99072815Y-80454022D01*
X99172895Y-80257606D01*
X99241015Y-80047951D01*
X99275500Y-79830222D01*
X99275500Y-79609778D01*
X99241015Y-79392049D01*
X99187516Y-79227393D01*
X99172896Y-79182396D01*
X99172895Y-79182393D01*
X99112833Y-79064517D01*
X99072815Y-78985978D01*
X99043124Y-78945112D01*
X98943247Y-78807641D01*
X98943243Y-78807636D01*
X98787363Y-78651756D01*
X98787358Y-78651752D01*
X98609025Y-78522187D01*
X98609024Y-78522186D01*
X98609022Y-78522185D01*
X98437883Y-78434984D01*
X98387088Y-78387010D01*
X98370293Y-78319189D01*
X98392831Y-78253054D01*
X98447546Y-78209603D01*
X98494179Y-78200500D01*
X101136635Y-78200500D01*
X101203674Y-78220185D01*
X101249429Y-78272989D01*
X101259373Y-78342147D01*
X101230348Y-78405703D01*
X101174953Y-78442431D01*
X101097589Y-78467567D01*
X100901233Y-78567616D01*
X100837485Y-78613931D01*
X100837485Y-78613932D01*
X101588553Y-79365000D01*
X101582339Y-79365000D01*
X101480606Y-79392259D01*
X101389394Y-79444920D01*
X101314920Y-79519394D01*
X101262259Y-79610606D01*
X101235000Y-79712339D01*
X101235000Y-79718553D01*
X100483932Y-78967485D01*
X100483931Y-78967485D01*
X100437616Y-79031233D01*
X100337567Y-79227589D01*
X100269473Y-79437164D01*
X100235000Y-79654818D01*
X100235000Y-79875181D01*
X100269473Y-80092835D01*
X100337567Y-80302410D01*
X100437611Y-80498756D01*
X100483932Y-80562513D01*
X101235000Y-79811445D01*
X101235000Y-79817661D01*
X101262259Y-79919394D01*
X101314920Y-80010606D01*
X101389394Y-80085080D01*
X101480606Y-80137741D01*
X101582339Y-80165000D01*
X101588553Y-80165000D01*
X100837485Y-80916065D01*
X100837485Y-80916066D01*
X100901243Y-80962388D01*
X101097589Y-81062432D01*
X101307164Y-81130526D01*
X101524819Y-81165000D01*
X101745181Y-81165000D01*
X101962835Y-81130526D01*
X102172410Y-81062432D01*
X102368760Y-80962386D01*
X102432513Y-80916066D01*
X102432514Y-80916066D01*
X101681447Y-80165000D01*
X101687661Y-80165000D01*
X101789394Y-80137741D01*
X101880606Y-80085080D01*
X101955080Y-80010606D01*
X102007741Y-79919394D01*
X102035000Y-79817661D01*
X102035000Y-79811448D01*
X102786066Y-80562514D01*
X102786066Y-80562513D01*
X102804372Y-80537319D01*
X102859701Y-80494653D01*
X102929315Y-80488674D01*
X102991110Y-80521279D01*
X103005008Y-80537319D01*
X103106752Y-80677358D01*
X103106756Y-80677363D01*
X103106758Y-80677365D01*
X103262635Y-80833242D01*
X103262637Y-80833243D01*
X103266342Y-80836408D01*
X103265481Y-80837415D01*
X103304455Y-80887959D01*
X103310433Y-80957572D01*
X103277826Y-81019367D01*
X103276584Y-81020626D01*
X103034028Y-81263181D01*
X102972705Y-81296666D01*
X102946352Y-81299500D01*
X102925001Y-81299500D01*
X102924980Y-81299501D01*
X102822203Y-81310000D01*
X102822200Y-81310001D01*
X102655668Y-81365185D01*
X102655663Y-81365187D01*
X102506342Y-81457289D01*
X102382289Y-81581342D01*
X102290187Y-81730663D01*
X102290185Y-81730668D01*
X102272886Y-81782873D01*
X102235001Y-81897203D01*
X102235001Y-81897204D01*
X102235000Y-81897204D01*
X102224500Y-81999983D01*
X102224500Y-82900001D01*
X102224501Y-82900019D01*
X102235000Y-83002796D01*
X102235001Y-83002799D01*
X102263137Y-83087706D01*
X102290186Y-83169334D01*
X102382288Y-83318656D01*
X102506344Y-83442712D01*
X102655666Y-83534814D01*
X102822203Y-83589999D01*
X102924991Y-83600500D01*
X104275008Y-83600499D01*
X104377797Y-83589999D01*
X104544334Y-83534814D01*
X104693656Y-83442712D01*
X104817712Y-83318656D01*
X104909814Y-83169334D01*
X104964999Y-83002797D01*
X104975500Y-82900009D01*
X104975499Y-81999992D01*
X104974076Y-81986066D01*
X104964999Y-81897202D01*
X104932212Y-81798258D01*
X104931306Y-81771926D01*
X104926628Y-81746000D01*
X104929964Y-81732926D01*
X104929810Y-81728430D01*
X104935353Y-81711809D01*
X104986345Y-81588704D01*
X104992816Y-81573082D01*
X105025500Y-81408767D01*
X105025500Y-80941370D01*
X105045185Y-80874331D01*
X105076614Y-80841052D01*
X105087365Y-80833242D01*
X105243242Y-80677365D01*
X105372815Y-80499022D01*
X105472895Y-80302606D01*
X105541015Y-80092951D01*
X105575500Y-79875222D01*
X105575500Y-79654778D01*
X105541015Y-79437049D01*
X105475363Y-79234989D01*
X105472896Y-79227396D01*
X105472895Y-79227393D01*
X105429440Y-79142110D01*
X105372815Y-79030978D01*
X105293991Y-78922485D01*
X105243247Y-78852641D01*
X105243243Y-78852636D01*
X105087363Y-78696756D01*
X105087358Y-78696752D01*
X104909025Y-78567187D01*
X104909024Y-78567186D01*
X104909022Y-78567185D01*
X104846096Y-78535122D01*
X104712606Y-78467104D01*
X104712603Y-78467103D01*
X104636667Y-78442431D01*
X104578992Y-78402994D01*
X104551793Y-78338636D01*
X104563707Y-78269789D01*
X104610951Y-78218313D01*
X104674985Y-78200500D01*
X105446349Y-78200500D01*
X105513388Y-78220185D01*
X105534030Y-78236819D01*
X107088181Y-79790970D01*
X107121666Y-79852293D01*
X107124500Y-79878651D01*
X107124500Y-80450001D01*
X107124501Y-80450019D01*
X107135000Y-80552796D01*
X107135001Y-80552799D01*
X107190185Y-80719331D01*
X107190187Y-80719336D01*
X107193747Y-80725107D01*
X107282288Y-80868656D01*
X107406344Y-80992712D01*
X107555666Y-81084814D01*
X107722203Y-81139999D01*
X107824991Y-81150500D01*
X109175008Y-81150499D01*
X109273086Y-81140480D01*
X109341778Y-81153250D01*
X109373368Y-81176157D01*
X109589373Y-81392162D01*
X109654499Y-81457288D01*
X109707839Y-81510628D01*
X109847133Y-81603702D01*
X109847135Y-81603702D01*
X109847137Y-81603704D01*
X110001919Y-81667816D01*
X110001921Y-81667816D01*
X110001926Y-81667818D01*
X110166228Y-81700499D01*
X110166232Y-81700500D01*
X110166233Y-81700500D01*
X110333768Y-81700500D01*
X110333768Y-81700499D01*
X110397198Y-81687882D01*
X110421389Y-81685500D01*
X110605149Y-81685500D01*
X110672188Y-81705185D01*
X110717943Y-81757989D01*
X110728439Y-81796248D01*
X110733408Y-81842483D01*
X110783702Y-81977328D01*
X110783706Y-81977335D01*
X110869952Y-82092544D01*
X110869955Y-82092547D01*
X110985164Y-82178793D01*
X110985171Y-82178797D01*
X111065080Y-82208601D01*
X111121014Y-82250472D01*
X111145431Y-82315936D01*
X111130580Y-82384209D01*
X111109429Y-82412463D01*
X111059256Y-82462636D01*
X111059252Y-82462641D01*
X110929687Y-82640974D01*
X110829604Y-82837393D01*
X110829603Y-82837396D01*
X110761485Y-83047047D01*
X110727000Y-83264778D01*
X110727000Y-83485221D01*
X110761485Y-83702952D01*
X110829603Y-83912603D01*
X110829604Y-83912606D01*
X110892287Y-84035625D01*
X110926065Y-84101918D01*
X110929687Y-84109025D01*
X111059252Y-84287358D01*
X111059256Y-84287363D01*
X111215136Y-84443243D01*
X111215141Y-84443247D01*
X111354755Y-84544682D01*
X111397421Y-84600011D01*
X111403400Y-84669625D01*
X111370795Y-84731420D01*
X111354753Y-84745320D01*
X111320742Y-84770029D01*
X111254935Y-84793507D01*
X111186881Y-84777680D01*
X111160178Y-84757390D01*
X109911818Y-83509030D01*
X109878333Y-83447707D01*
X109875499Y-83421349D01*
X109875499Y-82649998D01*
X109875498Y-82649981D01*
X109864999Y-82547203D01*
X109864998Y-82547200D01*
X109857476Y-82524500D01*
X109809814Y-82380666D01*
X109717712Y-82231344D01*
X109593656Y-82107288D01*
X109444334Y-82015186D01*
X109277797Y-81960001D01*
X109277795Y-81960000D01*
X109175010Y-81949500D01*
X107824998Y-81949500D01*
X107824981Y-81949501D01*
X107722203Y-81960000D01*
X107722200Y-81960001D01*
X107555668Y-82015185D01*
X107555663Y-82015187D01*
X107406342Y-82107289D01*
X107282289Y-82231342D01*
X107190187Y-82380663D01*
X107190186Y-82380666D01*
X107135001Y-82547203D01*
X107135001Y-82547204D01*
X107135000Y-82547204D01*
X107124500Y-82649983D01*
X107124500Y-83550001D01*
X107124501Y-83550019D01*
X107135000Y-83652796D01*
X107135001Y-83652799D01*
X107186375Y-83807834D01*
X107190186Y-83819334D01*
X107282288Y-83968656D01*
X107406344Y-84092712D01*
X107555666Y-84184814D01*
X107722203Y-84239999D01*
X107824991Y-84250500D01*
X108196348Y-84250499D01*
X108263387Y-84270183D01*
X108284029Y-84286818D01*
X110454374Y-86457162D01*
X110513813Y-86516601D01*
X110572839Y-86575627D01*
X110590143Y-86587189D01*
X110712137Y-86668703D01*
X110866918Y-86732816D01*
X110963853Y-86752097D01*
X111025761Y-86784479D01*
X111039976Y-86800825D01*
X111050103Y-86814765D01*
X111059256Y-86827363D01*
X111215136Y-86983243D01*
X111215141Y-86983247D01*
X111354754Y-87084682D01*
X111370792Y-87105481D01*
X111389682Y-87123743D01*
X111391793Y-87132714D01*
X111397420Y-87140012D01*
X111399667Y-87166181D01*
X111405685Y-87191755D01*
X111402610Y-87200443D01*
X111403399Y-87209625D01*
X111391140Y-87232857D01*
X111382377Y-87257623D01*
X111373238Y-87266785D01*
X111370793Y-87271420D01*
X111357846Y-87282997D01*
X111356287Y-87284205D01*
X111215135Y-87386758D01*
X111184505Y-87417387D01*
X111178316Y-87422186D01*
X111152774Y-87432207D01*
X111128693Y-87445356D01*
X111120717Y-87444785D01*
X111113274Y-87447706D01*
X111086366Y-87442327D01*
X111059001Y-87440369D01*
X111051069Y-87435271D01*
X111044759Y-87434010D01*
X111036136Y-87425674D01*
X111014658Y-87411870D01*
X108492165Y-84889375D01*
X108492161Y-84889372D01*
X108352869Y-84796299D01*
X108352856Y-84796292D01*
X108221473Y-84741873D01*
X108198082Y-84732184D01*
X108198074Y-84732182D01*
X108033771Y-84699500D01*
X108033767Y-84699500D01*
X104887231Y-84699500D01*
X104820192Y-84679815D01*
X104799550Y-84663182D01*
X104749197Y-84612829D01*
X104693656Y-84557288D01*
X104544334Y-84465186D01*
X104377797Y-84410001D01*
X104377795Y-84410000D01*
X104275010Y-84399500D01*
X102924998Y-84399500D01*
X102924981Y-84399501D01*
X102822203Y-84410000D01*
X102822200Y-84410001D01*
X102655668Y-84465185D01*
X102655663Y-84465187D01*
X102506342Y-84557289D01*
X102382289Y-84681342D01*
X102290187Y-84830663D01*
X102290185Y-84830668D01*
X102281183Y-84857834D01*
X102235001Y-84997203D01*
X102235001Y-84997204D01*
X102235000Y-84997204D01*
X102224500Y-85099983D01*
X102224500Y-86000001D01*
X102224501Y-86000019D01*
X102235000Y-86102796D01*
X102235001Y-86102799D01*
X102281444Y-86242952D01*
X102290186Y-86269334D01*
X102372837Y-86403334D01*
X102382289Y-86418657D01*
X102401451Y-86437819D01*
X102434936Y-86499142D01*
X102429952Y-86568834D01*
X102388080Y-86624767D01*
X102322616Y-86649184D01*
X102313770Y-86649500D01*
X100353650Y-86649500D01*
X100286611Y-86629815D01*
X100265969Y-86613181D01*
X99411818Y-85759030D01*
X99378333Y-85697707D01*
X99375499Y-85671349D01*
X99375499Y-85099998D01*
X99375498Y-85099981D01*
X99364999Y-84997203D01*
X99364998Y-84997200D01*
X99329268Y-84889375D01*
X99309814Y-84830666D01*
X99217712Y-84681344D01*
X99093656Y-84557288D01*
X98944334Y-84465186D01*
X98777797Y-84410001D01*
X98777795Y-84410000D01*
X98675010Y-84399500D01*
X97324998Y-84399500D01*
X97324981Y-84399501D01*
X97222203Y-84410000D01*
X97222200Y-84410001D01*
X97055668Y-84465185D01*
X97055663Y-84465187D01*
X96906342Y-84557289D01*
X96782289Y-84681342D01*
X96690187Y-84830663D01*
X96690185Y-84830668D01*
X96681183Y-84857834D01*
X96635001Y-84997203D01*
X96635001Y-84997204D01*
X96635000Y-84997204D01*
X96624500Y-85099983D01*
X96624500Y-86000001D01*
X96624501Y-86000019D01*
X96635000Y-86102796D01*
X96635001Y-86102799D01*
X96681444Y-86242952D01*
X96690186Y-86269334D01*
X96782288Y-86418656D01*
X96906344Y-86542712D01*
X97055666Y-86634814D01*
X97222203Y-86689999D01*
X97324991Y-86700500D01*
X97896348Y-86700499D01*
X97963387Y-86720183D01*
X97984029Y-86736818D01*
X98636712Y-87389500D01*
X99289374Y-88042162D01*
X99407838Y-88160626D01*
X99434017Y-88178118D01*
X99441518Y-88185173D01*
X99454193Y-88206783D01*
X99470260Y-88226009D01*
X99471565Y-88236404D01*
X99476866Y-88245441D01*
X99475845Y-88270471D01*
X99478969Y-88295334D01*
X99474446Y-88304786D01*
X99474020Y-88315252D01*
X99459628Y-88335758D01*
X99448814Y-88358362D01*
X99439901Y-88363867D01*
X99433883Y-88372443D01*
X99410686Y-88381914D01*
X99389372Y-88395081D01*
X99373059Y-88397278D01*
X99369198Y-88398855D01*
X99365899Y-88398242D01*
X99356565Y-88399500D01*
X95803650Y-88399500D01*
X95736611Y-88379815D01*
X95715969Y-88363181D01*
X93111818Y-85759029D01*
X93078333Y-85697706D01*
X93075499Y-85671348D01*
X93075499Y-85099998D01*
X93075498Y-85099981D01*
X93064999Y-84997203D01*
X93064998Y-84997200D01*
X93029268Y-84889375D01*
X93009814Y-84830666D01*
X92917712Y-84681344D01*
X92793656Y-84557288D01*
X92644334Y-84465186D01*
X92477797Y-84410001D01*
X92477795Y-84410000D01*
X92375010Y-84399500D01*
X91024998Y-84399500D01*
X91024981Y-84399501D01*
X90922203Y-84410000D01*
X90922200Y-84410001D01*
X90755668Y-84465185D01*
X90755663Y-84465187D01*
X90606342Y-84557289D01*
X90482289Y-84681342D01*
X90390187Y-84830663D01*
X90390185Y-84830668D01*
X90381183Y-84857834D01*
X90335001Y-84997203D01*
X90335001Y-84997204D01*
X90335000Y-84997204D01*
X90324500Y-85099983D01*
X90324500Y-86000001D01*
X90324501Y-86000019D01*
X90335000Y-86102796D01*
X90335001Y-86102799D01*
X90381444Y-86242952D01*
X90390186Y-86269334D01*
X90482288Y-86418656D01*
X90606344Y-86542712D01*
X90755666Y-86634814D01*
X90922203Y-86689999D01*
X91024991Y-86700500D01*
X91596348Y-86700499D01*
X91663387Y-86720183D01*
X91684029Y-86736818D01*
X94857831Y-89910620D01*
X94857834Y-89910622D01*
X94857838Y-89910626D01*
X94997137Y-90003704D01*
X95099967Y-90046297D01*
X95151918Y-90067816D01*
X95305600Y-90098385D01*
X95316228Y-90100499D01*
X95316232Y-90100500D01*
X95316233Y-90100500D01*
X105296349Y-90100500D01*
X105363388Y-90120185D01*
X105384030Y-90136819D01*
X109442831Y-94195620D01*
X109442834Y-94195622D01*
X109442838Y-94195626D01*
X109582137Y-94288704D01*
X109670972Y-94325500D01*
X109736918Y-94352816D01*
X109901198Y-94385493D01*
X109901228Y-94385499D01*
X109901232Y-94385500D01*
X109901233Y-94385500D01*
X110951129Y-94385500D01*
X111018168Y-94405185D01*
X111051446Y-94436613D01*
X111059255Y-94447361D01*
X111059257Y-94447363D01*
X111059259Y-94447366D01*
X111215136Y-94603243D01*
X111215141Y-94603247D01*
X111354754Y-94704682D01*
X111397420Y-94760012D01*
X111403399Y-94829625D01*
X111370793Y-94891420D01*
X111354754Y-94905318D01*
X111215141Y-95006752D01*
X111215136Y-95006756D01*
X111059259Y-95162633D01*
X111059257Y-95162636D01*
X111051446Y-95173387D01*
X110996115Y-95216052D01*
X110951129Y-95224500D01*
X110128650Y-95224500D01*
X110061611Y-95204815D01*
X110040969Y-95188181D01*
X105542165Y-90689375D01*
X105542161Y-90689372D01*
X105402866Y-90596297D01*
X105402863Y-90596296D01*
X105293416Y-90550962D01*
X105293414Y-90550961D01*
X105248086Y-90532185D01*
X105248074Y-90532182D01*
X105083771Y-90499500D01*
X105083767Y-90499500D01*
X90353650Y-90499500D01*
X90286611Y-90479815D01*
X90265969Y-90463181D01*
X86319390Y-86516601D01*
X86285905Y-86455278D01*
X86290889Y-86385586D01*
X86301527Y-86363831D01*
X86359814Y-86269334D01*
X86414999Y-86102797D01*
X86425500Y-86000009D01*
X86425499Y-85099992D01*
X86421873Y-85064500D01*
X86414999Y-84997203D01*
X86414998Y-84997200D01*
X86379268Y-84889375D01*
X86359814Y-84830666D01*
X86267712Y-84681344D01*
X86143656Y-84557288D01*
X85994334Y-84465186D01*
X85827797Y-84410001D01*
X85827795Y-84410000D01*
X85725010Y-84399500D01*
X84374998Y-84399500D01*
X84374981Y-84399501D01*
X84272203Y-84410000D01*
X84272200Y-84410001D01*
X84105668Y-84465185D01*
X84105663Y-84465187D01*
X83956342Y-84557289D01*
X83832289Y-84681342D01*
X83740187Y-84830663D01*
X83740185Y-84830668D01*
X83731183Y-84857834D01*
X83685001Y-84997203D01*
X83685001Y-84997204D01*
X83685000Y-84997204D01*
X83674500Y-85099983D01*
X83674500Y-86000001D01*
X83674501Y-86000019D01*
X83685000Y-86102796D01*
X83685001Y-86102799D01*
X83731444Y-86242952D01*
X83740186Y-86269334D01*
X83832288Y-86418656D01*
X83956344Y-86542712D01*
X84105666Y-86634814D01*
X84168087Y-86655498D01*
X84168153Y-86655543D01*
X84168234Y-86655546D01*
X84168240Y-86655548D01*
X84197240Y-86675682D01*
X84225531Y-86695269D01*
X84225585Y-86695360D01*
X84225632Y-86695393D01*
X84243642Y-86725746D01*
X84249338Y-86739496D01*
X84249340Y-86739501D01*
X84296292Y-86852856D01*
X84296299Y-86852869D01*
X84389372Y-86992161D01*
X84389375Y-86992165D01*
X89289374Y-91892162D01*
X89360792Y-91963580D01*
X89407839Y-92010627D01*
X89429911Y-92025375D01*
X89547137Y-92103703D01*
X89701918Y-92167816D01*
X89827598Y-92192815D01*
X89866228Y-92200499D01*
X89866232Y-92200500D01*
X89866233Y-92200500D01*
X104596349Y-92200500D01*
X104663388Y-92220185D01*
X104684030Y-92236819D01*
X109182831Y-96735620D01*
X109182834Y-96735622D01*
X109182838Y-96735626D01*
X109322137Y-96828704D01*
X109431584Y-96874037D01*
X109476918Y-96892816D01*
X109519254Y-96901237D01*
X109641228Y-96925499D01*
X109641232Y-96925500D01*
X109641233Y-96925500D01*
X110951129Y-96925500D01*
X111018168Y-96945185D01*
X111051446Y-96976613D01*
X111059257Y-96987363D01*
X111059259Y-96987366D01*
X111215136Y-97143243D01*
X111215141Y-97143247D01*
X111354754Y-97244682D01*
X111397420Y-97300012D01*
X111403399Y-97369625D01*
X111370793Y-97431420D01*
X111354754Y-97445318D01*
X111215141Y-97546752D01*
X111215136Y-97546756D01*
X111059256Y-97702636D01*
X111059252Y-97702641D01*
X110929687Y-97880974D01*
X110829604Y-98077393D01*
X110829603Y-98077396D01*
X110761485Y-98287047D01*
X110731154Y-98478553D01*
X110727000Y-98504778D01*
X110727000Y-98725222D01*
X110739493Y-98804101D01*
X110761485Y-98942952D01*
X110829603Y-99152603D01*
X110829604Y-99152606D01*
X110892288Y-99275627D01*
X110929076Y-99347827D01*
X110929687Y-99349025D01*
X111059252Y-99527358D01*
X111059256Y-99527363D01*
X111215136Y-99683243D01*
X111215141Y-99683247D01*
X111354754Y-99784682D01*
X111397420Y-99840012D01*
X111403399Y-99909625D01*
X111370793Y-99971420D01*
X111354754Y-99985318D01*
X111215141Y-100086752D01*
X111215136Y-100086756D01*
X111059256Y-100242636D01*
X111059252Y-100242641D01*
X110929687Y-100420974D01*
X110829604Y-100617393D01*
X110829603Y-100617396D01*
X110761485Y-100827047D01*
X110727000Y-101044778D01*
X110727000Y-101265221D01*
X110761485Y-101482952D01*
X110829603Y-101692603D01*
X110829604Y-101692606D01*
X110929687Y-101889025D01*
X111059252Y-102067358D01*
X111059256Y-102067363D01*
X111215136Y-102223243D01*
X111215141Y-102223247D01*
X111354754Y-102324682D01*
X111397420Y-102380012D01*
X111403399Y-102449625D01*
X111370793Y-102511420D01*
X111354754Y-102525318D01*
X111215141Y-102626752D01*
X111215136Y-102626756D01*
X111059256Y-102782636D01*
X111059252Y-102782641D01*
X110929687Y-102960974D01*
X110829604Y-103157393D01*
X110829603Y-103157396D01*
X110761485Y-103367047D01*
X110727000Y-103584778D01*
X110727000Y-103805221D01*
X110761485Y-104022952D01*
X110829603Y-104232603D01*
X110829604Y-104232606D01*
X110929687Y-104429025D01*
X111059252Y-104607358D01*
X111059256Y-104607363D01*
X111215136Y-104763243D01*
X111215141Y-104763247D01*
X111354754Y-104864682D01*
X111397420Y-104920012D01*
X111403399Y-104989625D01*
X111370793Y-105051420D01*
X111354754Y-105065318D01*
X111215141Y-105166752D01*
X111215136Y-105166756D01*
X111059256Y-105322636D01*
X111059252Y-105322641D01*
X110929687Y-105500974D01*
X110829604Y-105697393D01*
X110829603Y-105697396D01*
X110761485Y-105907047D01*
X110727000Y-106124778D01*
X110727000Y-106345221D01*
X110761485Y-106562952D01*
X110829603Y-106772603D01*
X110829604Y-106772606D01*
X110929687Y-106969025D01*
X111059252Y-107147358D01*
X111059256Y-107147363D01*
X111215136Y-107303243D01*
X111215141Y-107303247D01*
X111354754Y-107404682D01*
X111397420Y-107460012D01*
X111403399Y-107529625D01*
X111370793Y-107591420D01*
X111354754Y-107605318D01*
X111215141Y-107706752D01*
X111215136Y-107706756D01*
X111059256Y-107862636D01*
X111059252Y-107862641D01*
X110929687Y-108040974D01*
X110829604Y-108237393D01*
X110829603Y-108237396D01*
X110761485Y-108447047D01*
X110727000Y-108664778D01*
X110727000Y-108885221D01*
X110761485Y-109102952D01*
X110829603Y-109312603D01*
X110829604Y-109312606D01*
X110883212Y-109417814D01*
X110923227Y-109496348D01*
X110929687Y-109509025D01*
X111059252Y-109687358D01*
X111059256Y-109687363D01*
X111215136Y-109843243D01*
X111215141Y-109843247D01*
X111354754Y-109944682D01*
X111397420Y-110000012D01*
X111403399Y-110069625D01*
X111370793Y-110131420D01*
X111354754Y-110145318D01*
X111215141Y-110246752D01*
X111215136Y-110246756D01*
X111059256Y-110402636D01*
X111059252Y-110402641D01*
X110929687Y-110580974D01*
X110829604Y-110777393D01*
X110829603Y-110777396D01*
X110761485Y-110987047D01*
X110727000Y-111204778D01*
X110727000Y-111425221D01*
X110761485Y-111642952D01*
X110829603Y-111852603D01*
X110829604Y-111852606D01*
X110929687Y-112049025D01*
X111059252Y-112227358D01*
X111059256Y-112227363D01*
X111215140Y-112383247D01*
X111355179Y-112484990D01*
X111397845Y-112540319D01*
X111403824Y-112609933D01*
X111371219Y-112671728D01*
X111355179Y-112685626D01*
X111329985Y-112703930D01*
X111329985Y-112703932D01*
X112038914Y-113412861D01*
X111953806Y-113435667D01*
X111851194Y-113494910D01*
X111767410Y-113578694D01*
X111708167Y-113681306D01*
X111685361Y-113766414D01*
X110976432Y-113057485D01*
X110976431Y-113057485D01*
X110930116Y-113121233D01*
X110830067Y-113317589D01*
X110761973Y-113527164D01*
X110727500Y-113744818D01*
X110727500Y-113965181D01*
X110761973Y-114182835D01*
X110830067Y-114392410D01*
X110930111Y-114588756D01*
X110976432Y-114652513D01*
X111685361Y-113943584D01*
X111708167Y-114028694D01*
X111767410Y-114131306D01*
X111851194Y-114215090D01*
X111953806Y-114274333D01*
X112038914Y-114297137D01*
X111329985Y-115006065D01*
X111329985Y-115006066D01*
X111355180Y-115024371D01*
X111397846Y-115079701D01*
X111403825Y-115149314D01*
X111371220Y-115211110D01*
X111355181Y-115225008D01*
X111215136Y-115326756D01*
X111059256Y-115482636D01*
X111059252Y-115482641D01*
X110929687Y-115660974D01*
X110829604Y-115857393D01*
X110829603Y-115857396D01*
X110761485Y-116067047D01*
X110727000Y-116284778D01*
X110727000Y-116505221D01*
X110761485Y-116722952D01*
X110829603Y-116932603D01*
X110829604Y-116932606D01*
X110858031Y-116988395D01*
X110922373Y-117114672D01*
X110929687Y-117129025D01*
X111059252Y-117307358D01*
X111059256Y-117307363D01*
X111215136Y-117463243D01*
X111215141Y-117463247D01*
X111354754Y-117564682D01*
X111397420Y-117620012D01*
X111403399Y-117689625D01*
X111370793Y-117751420D01*
X111354754Y-117765318D01*
X111215141Y-117866752D01*
X111215136Y-117866756D01*
X111059256Y-118022636D01*
X111059252Y-118022641D01*
X110929687Y-118200974D01*
X110829604Y-118397393D01*
X110829603Y-118397396D01*
X110761485Y-118607047D01*
X110738996Y-118749036D01*
X110727000Y-118824778D01*
X110727000Y-119045222D01*
X110738765Y-119119500D01*
X110761485Y-119262952D01*
X110829603Y-119472603D01*
X110829604Y-119472606D01*
X110897622Y-119606096D01*
X110926616Y-119662999D01*
X110929687Y-119669025D01*
X111059252Y-119847358D01*
X111059256Y-119847363D01*
X111215136Y-120003243D01*
X111215141Y-120003247D01*
X111354754Y-120104682D01*
X111397420Y-120160012D01*
X111403399Y-120229625D01*
X111370793Y-120291420D01*
X111354754Y-120305318D01*
X111215141Y-120406752D01*
X111215136Y-120406756D01*
X111059256Y-120562636D01*
X111059252Y-120562641D01*
X110929687Y-120740974D01*
X110829604Y-120937393D01*
X110829603Y-120937396D01*
X110761485Y-121147047D01*
X110736899Y-121302280D01*
X110727000Y-121364778D01*
X110727000Y-121585222D01*
X110739093Y-121661576D01*
X110761485Y-121802952D01*
X110829603Y-122012603D01*
X110829604Y-122012606D01*
X110929687Y-122209025D01*
X111059252Y-122387358D01*
X111059256Y-122387363D01*
X111215136Y-122543243D01*
X111215141Y-122543247D01*
X111354754Y-122644682D01*
X111397420Y-122700012D01*
X111403399Y-122769625D01*
X111370793Y-122831420D01*
X111354754Y-122845318D01*
X111215141Y-122946752D01*
X111215136Y-122946756D01*
X111059256Y-123102636D01*
X111059252Y-123102641D01*
X110929687Y-123280974D01*
X110829604Y-123477393D01*
X110829603Y-123477396D01*
X110761485Y-123687047D01*
X110740774Y-123817814D01*
X110727000Y-123904778D01*
X110727000Y-124125222D01*
X110739093Y-124201576D01*
X110761485Y-124342952D01*
X110829603Y-124552603D01*
X110829604Y-124552606D01*
X110897622Y-124686096D01*
X110926074Y-124741936D01*
X110929687Y-124749025D01*
X111059252Y-124927358D01*
X111059256Y-124927363D01*
X111215136Y-125083243D01*
X111215141Y-125083247D01*
X111354754Y-125184682D01*
X111397420Y-125240012D01*
X111403399Y-125309625D01*
X111370793Y-125371420D01*
X111354754Y-125385318D01*
X111215141Y-125486752D01*
X111215136Y-125486756D01*
X111059259Y-125642633D01*
X111059257Y-125642636D01*
X111051446Y-125653387D01*
X110996115Y-125696052D01*
X110951129Y-125704500D01*
X110508651Y-125704500D01*
X110441612Y-125684815D01*
X110420970Y-125668181D01*
X109042162Y-124289373D01*
X104062165Y-119309375D01*
X104062161Y-119309372D01*
X103922869Y-119216299D01*
X103922856Y-119216292D01*
X103804341Y-119167203D01*
X103804339Y-119167202D01*
X103768086Y-119152185D01*
X103768074Y-119152182D01*
X103603771Y-119119500D01*
X103603767Y-119119500D01*
X100863733Y-119119500D01*
X100796694Y-119099815D01*
X100750939Y-119047011D01*
X100746028Y-119034506D01*
X100741495Y-119020829D01*
X100734814Y-119000666D01*
X100642712Y-118851344D01*
X100518656Y-118727288D01*
X100369334Y-118635186D01*
X100202797Y-118580001D01*
X100202795Y-118580000D01*
X100100016Y-118569500D01*
X100100009Y-118569500D01*
X99353651Y-118569500D01*
X99286612Y-118549815D01*
X99265970Y-118533181D01*
X98022165Y-117289375D01*
X98022161Y-117289372D01*
X97882866Y-117196297D01*
X97882863Y-117196296D01*
X97758260Y-117144684D01*
X97758258Y-117144683D01*
X97728086Y-117132185D01*
X97728074Y-117132182D01*
X97563771Y-117099500D01*
X97563767Y-117099500D01*
X84403651Y-117099500D01*
X84336612Y-117079815D01*
X84315970Y-117063181D01*
X83136819Y-115884030D01*
X83103334Y-115822707D01*
X83100500Y-115796349D01*
X83100500Y-100797844D01*
X89275000Y-100797844D01*
X89281401Y-100857372D01*
X89281403Y-100857379D01*
X89331645Y-100992086D01*
X89331649Y-100992093D01*
X89417809Y-101107187D01*
X89417812Y-101107190D01*
X89532906Y-101193350D01*
X89532913Y-101193354D01*
X89667620Y-101243596D01*
X89667627Y-101243598D01*
X89727155Y-101249999D01*
X89727172Y-101250000D01*
X91775000Y-101250000D01*
X91775000Y-100678552D01*
X92275000Y-100678552D01*
X92275000Y-101250000D01*
X94322828Y-101250000D01*
X94322844Y-101249999D01*
X94382372Y-101243598D01*
X94382379Y-101243596D01*
X94517086Y-101193354D01*
X94517093Y-101193350D01*
X94632187Y-101107190D01*
X94632190Y-101107187D01*
X94718350Y-100992093D01*
X94718354Y-100992086D01*
X94768596Y-100857379D01*
X94768598Y-100857372D01*
X94774999Y-100797844D01*
X94775000Y-100797827D01*
X94775000Y-99525000D01*
X94528552Y-99525000D01*
X94001777Y-100051777D01*
X93431848Y-100621704D01*
X93370525Y-100655189D01*
X93344167Y-100658023D01*
X93205832Y-100658023D01*
X93184586Y-100651784D01*
X93162498Y-100650205D01*
X93148441Y-100641171D01*
X93138793Y-100638338D01*
X93132207Y-100630737D01*
X93118151Y-100621704D01*
X92725000Y-100228553D01*
X92275000Y-100678552D01*
X91775000Y-100678552D01*
X91775000Y-100578553D01*
X91425000Y-100228553D01*
X91031848Y-100621704D01*
X90970525Y-100655189D01*
X90944167Y-100658023D01*
X90705832Y-100658023D01*
X90684586Y-100651784D01*
X90662498Y-100650205D01*
X90648441Y-100641171D01*
X90638793Y-100638338D01*
X90632207Y-100630737D01*
X90618151Y-100621704D01*
X90048223Y-100051777D01*
X89907765Y-99911319D01*
X89841609Y-99845163D01*
X90075000Y-99845163D01*
X90075000Y-99904837D01*
X90097836Y-99959968D01*
X90140032Y-100002164D01*
X90195163Y-100025000D01*
X90254837Y-100025000D01*
X90309968Y-100002164D01*
X90352164Y-99959968D01*
X90375000Y-99904837D01*
X90375000Y-99874999D01*
X90578553Y-99874999D01*
X90825000Y-100121446D01*
X91071446Y-99875001D01*
X91071446Y-99875000D01*
X91041609Y-99845163D01*
X91275000Y-99845163D01*
X91275000Y-99904837D01*
X91297836Y-99959968D01*
X91340032Y-100002164D01*
X91395163Y-100025000D01*
X91454837Y-100025000D01*
X91509968Y-100002164D01*
X91540686Y-99971446D01*
X92275000Y-99971446D01*
X92371446Y-99875001D01*
X92371446Y-99875000D01*
X92341609Y-99845163D01*
X92575000Y-99845163D01*
X92575000Y-99904837D01*
X92597836Y-99959968D01*
X92640032Y-100002164D01*
X92695163Y-100025000D01*
X92754837Y-100025000D01*
X92809968Y-100002164D01*
X92852164Y-99959968D01*
X92875000Y-99904837D01*
X92875000Y-99874999D01*
X93078553Y-99874999D01*
X93275000Y-100071446D01*
X93471446Y-99875001D01*
X93471446Y-99875000D01*
X93441609Y-99845163D01*
X93675000Y-99845163D01*
X93675000Y-99904837D01*
X93697836Y-99959968D01*
X93740032Y-100002164D01*
X93795163Y-100025000D01*
X93854837Y-100025000D01*
X93909968Y-100002164D01*
X93952164Y-99959968D01*
X93975000Y-99904837D01*
X93975000Y-99845163D01*
X93952164Y-99790032D01*
X93909968Y-99747836D01*
X93854837Y-99725000D01*
X93795163Y-99725000D01*
X93740032Y-99747836D01*
X93697836Y-99790032D01*
X93675000Y-99845163D01*
X93441609Y-99845163D01*
X93275000Y-99678553D01*
X93078553Y-99874999D01*
X92875000Y-99874999D01*
X92875000Y-99845163D01*
X92852164Y-99790032D01*
X92809968Y-99747836D01*
X92754837Y-99725000D01*
X92695163Y-99725000D01*
X92640032Y-99747836D01*
X92597836Y-99790032D01*
X92575000Y-99845163D01*
X92341609Y-99845163D01*
X92275000Y-99778554D01*
X92275000Y-99971446D01*
X91540686Y-99971446D01*
X91552164Y-99959968D01*
X91575000Y-99904837D01*
X91575000Y-99845163D01*
X91552164Y-99790032D01*
X91509968Y-99747836D01*
X91454837Y-99725000D01*
X91395163Y-99725000D01*
X91340032Y-99747836D01*
X91297836Y-99790032D01*
X91275000Y-99845163D01*
X91041609Y-99845163D01*
X90979826Y-99783380D01*
X90979824Y-99783377D01*
X90825001Y-99628553D01*
X90825000Y-99628553D01*
X90578553Y-99874999D01*
X90375000Y-99874999D01*
X90375000Y-99845163D01*
X90352164Y-99790032D01*
X90309968Y-99747836D01*
X90254837Y-99725000D01*
X90195163Y-99725000D01*
X90140032Y-99747836D01*
X90097836Y-99790032D01*
X90075000Y-99845163D01*
X89841609Y-99845163D01*
X89521447Y-99525000D01*
X89275000Y-99525000D01*
X89275000Y-100797844D01*
X83100500Y-100797844D01*
X83100500Y-97752155D01*
X89275000Y-97752155D01*
X89275000Y-99025000D01*
X89521447Y-99025000D01*
X89521447Y-99024999D01*
X89901283Y-98645163D01*
X90075000Y-98645163D01*
X90075000Y-98704837D01*
X90097836Y-98759968D01*
X90140032Y-98802164D01*
X90195163Y-98825000D01*
X90254837Y-98825000D01*
X90309968Y-98802164D01*
X90352164Y-98759968D01*
X90375000Y-98704837D01*
X90375000Y-98674999D01*
X90578553Y-98674999D01*
X90825000Y-98921446D01*
X91071446Y-98675001D01*
X91071446Y-98675000D01*
X91041609Y-98645163D01*
X91275000Y-98645163D01*
X91275000Y-98704837D01*
X91297836Y-98759968D01*
X91340032Y-98802164D01*
X91395163Y-98825000D01*
X91454837Y-98825000D01*
X91509968Y-98802164D01*
X91540686Y-98771446D01*
X92275000Y-98771446D01*
X92371446Y-98675001D01*
X92371446Y-98675000D01*
X92341609Y-98645163D01*
X92575000Y-98645163D01*
X92575000Y-98704837D01*
X92597836Y-98759968D01*
X92640032Y-98802164D01*
X92695163Y-98825000D01*
X92754837Y-98825000D01*
X92809968Y-98802164D01*
X92852164Y-98759968D01*
X92875000Y-98704837D01*
X92875000Y-98674999D01*
X93078553Y-98674999D01*
X93275000Y-98871446D01*
X93471446Y-98675001D01*
X93471446Y-98675000D01*
X93441609Y-98645163D01*
X93675000Y-98645163D01*
X93675000Y-98704837D01*
X93697836Y-98759968D01*
X93740032Y-98802164D01*
X93795163Y-98825000D01*
X93854837Y-98825000D01*
X93909968Y-98802164D01*
X93952164Y-98759968D01*
X93975000Y-98704837D01*
X93975000Y-98645163D01*
X93952164Y-98590032D01*
X93909968Y-98547836D01*
X93854837Y-98525000D01*
X93795163Y-98525000D01*
X93740032Y-98547836D01*
X93697836Y-98590032D01*
X93675000Y-98645163D01*
X93441609Y-98645163D01*
X93275000Y-98478553D01*
X93078553Y-98674999D01*
X92875000Y-98674999D01*
X92875000Y-98645163D01*
X92852164Y-98590032D01*
X92809968Y-98547836D01*
X92754837Y-98525000D01*
X92695163Y-98525000D01*
X92640032Y-98547836D01*
X92597836Y-98590032D01*
X92575000Y-98645163D01*
X92341609Y-98645163D01*
X92275000Y-98578554D01*
X92275000Y-98771446D01*
X91540686Y-98771446D01*
X91552164Y-98759968D01*
X91575000Y-98704837D01*
X91575000Y-98645163D01*
X91552164Y-98590032D01*
X91509968Y-98547836D01*
X91454837Y-98525000D01*
X91395163Y-98525000D01*
X91340032Y-98547836D01*
X91297836Y-98590032D01*
X91275000Y-98645163D01*
X91041609Y-98645163D01*
X90979826Y-98583380D01*
X90979824Y-98583377D01*
X90825001Y-98428553D01*
X90825000Y-98428553D01*
X90578553Y-98674999D01*
X90375000Y-98674999D01*
X90375000Y-98645163D01*
X90352164Y-98590032D01*
X90309968Y-98547836D01*
X90254837Y-98525000D01*
X90195163Y-98525000D01*
X90140032Y-98547836D01*
X90097836Y-98590032D01*
X90075000Y-98645163D01*
X89901283Y-98645163D01*
X90048223Y-98498223D01*
X90618151Y-97928294D01*
X90679474Y-97894809D01*
X90705832Y-97891975D01*
X90944167Y-97891975D01*
X90965412Y-97898213D01*
X90987500Y-97899793D01*
X91001556Y-97908826D01*
X91011206Y-97911660D01*
X91017792Y-97919260D01*
X91031848Y-97928294D01*
X91425000Y-98321446D01*
X91425001Y-98321446D01*
X91774999Y-97971446D01*
X91775000Y-97971445D01*
X91775000Y-97871446D01*
X92275000Y-97871446D01*
X92724999Y-98321446D01*
X92725000Y-98321446D01*
X93118151Y-97928294D01*
X93179474Y-97894809D01*
X93205832Y-97891975D01*
X93344167Y-97891975D01*
X93365411Y-97898213D01*
X93387497Y-97899792D01*
X93401554Y-97908825D01*
X93411206Y-97911660D01*
X93417792Y-97919261D01*
X93431848Y-97928294D01*
X94001777Y-98498223D01*
X94528552Y-99024999D01*
X94528553Y-99025000D01*
X94775000Y-99025000D01*
X94775000Y-97752172D01*
X94774999Y-97752155D01*
X94768598Y-97692627D01*
X94768596Y-97692620D01*
X94718354Y-97557913D01*
X94718350Y-97557906D01*
X94632190Y-97442812D01*
X94632187Y-97442809D01*
X94517093Y-97356649D01*
X94517086Y-97356645D01*
X94382379Y-97306403D01*
X94382372Y-97306401D01*
X94322844Y-97300000D01*
X92275000Y-97300000D01*
X92275000Y-97871446D01*
X91775000Y-97871446D01*
X91775000Y-97300000D01*
X89727155Y-97300000D01*
X89667627Y-97306401D01*
X89667620Y-97306403D01*
X89532913Y-97356645D01*
X89532906Y-97356649D01*
X89417812Y-97442809D01*
X89417809Y-97442812D01*
X89331649Y-97557906D01*
X89331645Y-97557913D01*
X89281403Y-97692620D01*
X89281401Y-97692627D01*
X89275000Y-97752155D01*
X83100500Y-97752155D01*
X83100500Y-91616232D01*
X83100499Y-91616228D01*
X83084084Y-91533704D01*
X83067816Y-91451918D01*
X83047496Y-91402862D01*
X83040728Y-91386523D01*
X83027536Y-91354674D01*
X83003704Y-91297137D01*
X83003702Y-91297135D01*
X83003702Y-91297133D01*
X82910627Y-91157838D01*
X82910624Y-91157834D01*
X77838976Y-86086187D01*
X77805491Y-86024864D01*
X77810475Y-85955172D01*
X77852347Y-85899239D01*
X77902463Y-85876890D01*
X77948082Y-85867816D01*
X78102863Y-85803703D01*
X78242162Y-85710626D01*
X78360626Y-85592162D01*
X78453703Y-85452863D01*
X78517816Y-85298082D01*
X78550500Y-85133767D01*
X78550500Y-81253650D01*
X78570185Y-81186611D01*
X78586819Y-81165969D01*
X81515969Y-78236819D01*
X81577292Y-78203334D01*
X81603650Y-78200500D01*
X82236635Y-78200500D01*
X82303674Y-78220185D01*
G37*
%TD.AperFunction*%
%TA.AperFunction,Conductor*%
G36*
X131369652Y-102685651D02*
G01*
X131425585Y-102727523D01*
X131450002Y-102792987D01*
X131449721Y-102813983D01*
X131449500Y-102816227D01*
X131449500Y-109496348D01*
X131429815Y-109563387D01*
X131413181Y-109584029D01*
X128289375Y-112707834D01*
X128289370Y-112707840D01*
X128251940Y-112763858D01*
X128213936Y-112800505D01*
X128081342Y-112882289D01*
X127957289Y-113006342D01*
X127865187Y-113155663D01*
X127865185Y-113155668D01*
X127837349Y-113239670D01*
X127810001Y-113322203D01*
X127810001Y-113322204D01*
X127810000Y-113322204D01*
X127799500Y-113424983D01*
X127799500Y-113996348D01*
X127779815Y-114063387D01*
X127763181Y-114084029D01*
X127589375Y-114257834D01*
X127589372Y-114257838D01*
X127496299Y-114397131D01*
X127496292Y-114397144D01*
X127469882Y-114460907D01*
X127469882Y-114460908D01*
X127432184Y-114551917D01*
X127432182Y-114551925D01*
X127399500Y-114716228D01*
X127399500Y-118810363D01*
X127399679Y-118813680D01*
X127399572Y-118813685D01*
X127400000Y-118821656D01*
X127400000Y-119262500D01*
X127547828Y-119262500D01*
X127547844Y-119262499D01*
X127607372Y-119256098D01*
X127607375Y-119256097D01*
X127655949Y-119237980D01*
X127725640Y-119232994D01*
X127742610Y-119237977D01*
X127792517Y-119256591D01*
X127852127Y-119263000D01*
X128647872Y-119262999D01*
X128707483Y-119256591D01*
X128756665Y-119238246D01*
X128826355Y-119233261D01*
X128843333Y-119238247D01*
X128892508Y-119256588D01*
X128892511Y-119256588D01*
X128892517Y-119256591D01*
X128952127Y-119263000D01*
X129747872Y-119262999D01*
X129807483Y-119256591D01*
X129857382Y-119237979D01*
X129927069Y-119232994D01*
X129944048Y-119237979D01*
X129992628Y-119256098D01*
X129992627Y-119256098D01*
X130052155Y-119262499D01*
X130052172Y-119262500D01*
X130200000Y-119262500D01*
X130200000Y-118821667D01*
X130200427Y-118813688D01*
X130200322Y-118813683D01*
X130200497Y-118810398D01*
X130200500Y-118810373D01*
X130200499Y-117714635D01*
X130549500Y-117714635D01*
X130549500Y-119210370D01*
X130549501Y-119210376D01*
X130555908Y-119269983D01*
X130606202Y-119404828D01*
X130606206Y-119404835D01*
X130692452Y-119520044D01*
X130692455Y-119520047D01*
X130807664Y-119606293D01*
X130807671Y-119606297D01*
X130942517Y-119656591D01*
X130942516Y-119656591D01*
X130949444Y-119657335D01*
X131002127Y-119663000D01*
X132297872Y-119662999D01*
X132357483Y-119656591D01*
X132492331Y-119606296D01*
X132607546Y-119520046D01*
X132693796Y-119404831D01*
X132744091Y-119269983D01*
X132750500Y-119210373D01*
X132750499Y-117714628D01*
X132744091Y-117655017D01*
X132739608Y-117642998D01*
X132693797Y-117520171D01*
X132693793Y-117520164D01*
X132607547Y-117404955D01*
X132607544Y-117404952D01*
X132492335Y-117318706D01*
X132492328Y-117318702D01*
X132357482Y-117268408D01*
X132357483Y-117268408D01*
X132297883Y-117262001D01*
X132297881Y-117262000D01*
X132297873Y-117262000D01*
X132297865Y-117262000D01*
X131424000Y-117262000D01*
X131356961Y-117242315D01*
X131311206Y-117189511D01*
X131300000Y-117138000D01*
X131300000Y-117114672D01*
X131299999Y-117114655D01*
X131293598Y-117055127D01*
X131293596Y-117055120D01*
X131243354Y-116920413D01*
X131243350Y-116920406D01*
X131157190Y-116805312D01*
X131157187Y-116805309D01*
X131042093Y-116719149D01*
X131042086Y-116719145D01*
X130907379Y-116668903D01*
X130907372Y-116668901D01*
X130847844Y-116662500D01*
X130700000Y-116662500D01*
X130700000Y-117353602D01*
X130680315Y-117420641D01*
X130675267Y-117427913D01*
X130606203Y-117520169D01*
X130606202Y-117520171D01*
X130555908Y-117655017D01*
X130549501Y-117714616D01*
X130549501Y-117714623D01*
X130549500Y-117714635D01*
X130200499Y-117714635D01*
X130200499Y-117114628D01*
X130200498Y-117114616D01*
X130200321Y-117111304D01*
X130200426Y-117111298D01*
X130200000Y-117103336D01*
X130200000Y-116662500D01*
X130052155Y-116662500D01*
X129992627Y-116668901D01*
X129992623Y-116668902D01*
X129944046Y-116687020D01*
X129874354Y-116692003D01*
X129857382Y-116687019D01*
X129807485Y-116668409D01*
X129807483Y-116668408D01*
X129747883Y-116662001D01*
X129747881Y-116662000D01*
X129747873Y-116662000D01*
X129747865Y-116662000D01*
X129224500Y-116662000D01*
X129157461Y-116642315D01*
X129111706Y-116589511D01*
X129100500Y-116538000D01*
X129100500Y-115599499D01*
X129120185Y-115532460D01*
X129172989Y-115486705D01*
X129224500Y-115475499D01*
X129400002Y-115475499D01*
X129400008Y-115475499D01*
X129502797Y-115464999D01*
X129669334Y-115409814D01*
X129818656Y-115317712D01*
X129942712Y-115193656D01*
X130034814Y-115044334D01*
X130089999Y-114877797D01*
X130100500Y-114775009D01*
X130100499Y-113424992D01*
X130095114Y-113372277D01*
X130107883Y-113303586D01*
X130130788Y-113271999D01*
X132810989Y-110591799D01*
X132872312Y-110558314D01*
X132942004Y-110563298D01*
X132997937Y-110605170D01*
X133022354Y-110670634D01*
X133022670Y-110679480D01*
X133022670Y-119723179D01*
X133002985Y-119790218D01*
X132986351Y-119810860D01*
X131584030Y-121213181D01*
X131522707Y-121246666D01*
X131496349Y-121249500D01*
X127803650Y-121249500D01*
X127736611Y-121229815D01*
X127715969Y-121213181D01*
X126936819Y-120434030D01*
X126903334Y-120372707D01*
X126900500Y-120346349D01*
X126900500Y-117868744D01*
X126900499Y-117868730D01*
X126900499Y-117114629D01*
X126900321Y-117111304D01*
X126900426Y-117111298D01*
X126900000Y-117103336D01*
X126900000Y-116662500D01*
X126752155Y-116662500D01*
X126692627Y-116668901D01*
X126692623Y-116668902D01*
X126644046Y-116687020D01*
X126574354Y-116692003D01*
X126557382Y-116687019D01*
X126507485Y-116668409D01*
X126507483Y-116668408D01*
X126447883Y-116662001D01*
X126447881Y-116662000D01*
X126447873Y-116662000D01*
X126447865Y-116662000D01*
X125924500Y-116662000D01*
X125857461Y-116642315D01*
X125811706Y-116589511D01*
X125800500Y-116538000D01*
X125800500Y-115599499D01*
X125820185Y-115532460D01*
X125872989Y-115486705D01*
X125924500Y-115475499D01*
X126300002Y-115475499D01*
X126300008Y-115475499D01*
X126402797Y-115464999D01*
X126569334Y-115409814D01*
X126718656Y-115317712D01*
X126842712Y-115193656D01*
X126934814Y-115044334D01*
X126989999Y-114877797D01*
X127000500Y-114775009D01*
X127000499Y-113424992D01*
X126996968Y-113390430D01*
X126989999Y-113322203D01*
X126989998Y-113322200D01*
X126945944Y-113189255D01*
X126934814Y-113155666D01*
X126914680Y-113123024D01*
X126896241Y-113055633D01*
X126917164Y-112988970D01*
X126932534Y-112970253D01*
X129110626Y-110792162D01*
X129203704Y-110652863D01*
X129267815Y-110498082D01*
X129300499Y-110333767D01*
X129300499Y-110166233D01*
X129283800Y-110082281D01*
X129267816Y-110001921D01*
X129267813Y-110001913D01*
X129203706Y-109847142D01*
X129203705Y-109847140D01*
X129203704Y-109847137D01*
X129110626Y-109707838D01*
X129110622Y-109707834D01*
X129110620Y-109707831D01*
X128992168Y-109589379D01*
X128992164Y-109589376D01*
X128992162Y-109589374D01*
X128852863Y-109496296D01*
X128852860Y-109496294D01*
X128852859Y-109496294D01*
X128852857Y-109496293D01*
X128698086Y-109432186D01*
X128698078Y-109432183D01*
X128533771Y-109399501D01*
X128533767Y-109399501D01*
X128366233Y-109399501D01*
X128366228Y-109399501D01*
X128201924Y-109432183D01*
X128201907Y-109432188D01*
X128047142Y-109496293D01*
X128047140Y-109496294D01*
X128047137Y-109496295D01*
X128047137Y-109496296D01*
X127915838Y-109584029D01*
X127907831Y-109589379D01*
X127907830Y-109589380D01*
X125189375Y-112307834D01*
X125189372Y-112307838D01*
X125096299Y-112447131D01*
X125096292Y-112447143D01*
X125075934Y-112496296D01*
X125075934Y-112496297D01*
X125032184Y-112601917D01*
X125032182Y-112601925D01*
X124999500Y-112766228D01*
X124999500Y-112812769D01*
X124990855Y-112842209D01*
X124984332Y-112872196D01*
X124980577Y-112877211D01*
X124979815Y-112879808D01*
X124963181Y-112900450D01*
X124912181Y-112951450D01*
X124850858Y-112984935D01*
X124781166Y-112979951D01*
X124725233Y-112938079D01*
X124700816Y-112872615D01*
X124700500Y-112863769D01*
X124700500Y-109303651D01*
X124720185Y-109236612D01*
X124736819Y-109215970D01*
X131238637Y-102714152D01*
X131299960Y-102680667D01*
X131369652Y-102685651D01*
G37*
%TD.AperFunction*%
%TA.AperFunction,Conductor*%
G36*
X146256613Y-90948689D02*
G01*
X146312547Y-90990560D01*
X146336964Y-91056025D01*
X146337280Y-91064871D01*
X146337280Y-99858568D01*
X146317595Y-99925607D01*
X146300961Y-99946249D01*
X144034028Y-102213181D01*
X143972705Y-102246666D01*
X143946347Y-102249500D01*
X143074998Y-102249500D01*
X143074980Y-102249501D01*
X142972203Y-102260000D01*
X142972200Y-102260001D01*
X142805668Y-102315185D01*
X142805663Y-102315187D01*
X142656342Y-102407289D01*
X142532289Y-102531342D01*
X142440187Y-102680663D01*
X142440186Y-102680665D01*
X142440186Y-102680666D01*
X142385001Y-102847203D01*
X142385001Y-102847204D01*
X142385000Y-102847204D01*
X142374500Y-102949983D01*
X142374500Y-104250001D01*
X142374501Y-104250018D01*
X142385000Y-104352796D01*
X142385001Y-104352799D01*
X142416781Y-104448704D01*
X142440186Y-104519334D01*
X142494482Y-104607363D01*
X142532289Y-104668657D01*
X142656344Y-104792712D01*
X142811558Y-104888448D01*
X142858283Y-104940396D01*
X142869506Y-105009358D01*
X142841663Y-105073441D01*
X142834144Y-105081668D01*
X142695271Y-105220541D01*
X142570379Y-105392442D01*
X142473904Y-105581782D01*
X142408242Y-105783870D01*
X142408242Y-105783873D01*
X142397769Y-105850000D01*
X143445854Y-105850000D01*
X143407370Y-105916657D01*
X143375000Y-106037465D01*
X143375000Y-106162535D01*
X143407370Y-106283343D01*
X143445854Y-106350000D01*
X142397769Y-106350000D01*
X142408242Y-106416126D01*
X142408242Y-106416129D01*
X142473904Y-106618217D01*
X142570379Y-106807557D01*
X142695272Y-106979459D01*
X142695276Y-106979464D01*
X142845535Y-107129723D01*
X142845540Y-107129727D01*
X143010218Y-107249372D01*
X143052884Y-107304701D01*
X143058863Y-107374315D01*
X143026258Y-107436110D01*
X143010218Y-107450008D01*
X142845214Y-107569890D01*
X142845209Y-107569894D01*
X142701923Y-107713181D01*
X142674995Y-107727884D01*
X142649177Y-107744477D01*
X142642976Y-107745368D01*
X142640600Y-107746666D01*
X142614242Y-107749500D01*
X142603650Y-107749500D01*
X142536611Y-107729815D01*
X142515969Y-107713181D01*
X140377165Y-105574375D01*
X140377161Y-105574372D01*
X140237866Y-105481297D01*
X140237863Y-105481296D01*
X140128416Y-105435962D01*
X140128414Y-105435961D01*
X140083086Y-105417185D01*
X140083074Y-105417182D01*
X139918771Y-105384500D01*
X139918767Y-105384500D01*
X138703871Y-105384500D01*
X138636832Y-105364815D01*
X138603554Y-105333387D01*
X138595746Y-105322641D01*
X138595742Y-105322635D01*
X138439865Y-105166758D01*
X138439863Y-105166756D01*
X138439858Y-105166752D01*
X138300245Y-105065318D01*
X138257579Y-105009989D01*
X138251600Y-104940375D01*
X138284205Y-104878580D01*
X138300245Y-104864682D01*
X138439858Y-104763247D01*
X138439856Y-104763247D01*
X138439865Y-104763242D01*
X138595742Y-104607365D01*
X138725315Y-104429022D01*
X138825395Y-104232606D01*
X138893515Y-104022951D01*
X138928000Y-103805222D01*
X138928000Y-103584778D01*
X138893515Y-103367049D01*
X138856227Y-103252288D01*
X138825396Y-103157396D01*
X138825395Y-103157393D01*
X138738920Y-102987680D01*
X138725315Y-102960978D01*
X138642653Y-102847203D01*
X138595747Y-102782641D01*
X138595743Y-102782636D01*
X138439863Y-102626756D01*
X138439858Y-102626752D01*
X138300245Y-102525318D01*
X138257579Y-102469989D01*
X138251600Y-102400375D01*
X138284205Y-102338580D01*
X138300245Y-102324682D01*
X138439858Y-102223247D01*
X138439856Y-102223247D01*
X138439865Y-102223242D01*
X138595742Y-102067365D01*
X138725315Y-101889022D01*
X138825395Y-101692606D01*
X138893515Y-101482951D01*
X138928000Y-101265222D01*
X138928000Y-101044778D01*
X138893515Y-100827049D01*
X138859455Y-100722221D01*
X138825396Y-100617396D01*
X138825395Y-100617393D01*
X138762712Y-100494373D01*
X138725315Y-100420978D01*
X138699893Y-100385987D01*
X138595747Y-100242641D01*
X138595743Y-100242636D01*
X138439863Y-100086756D01*
X138439858Y-100086752D01*
X138300245Y-99985318D01*
X138257579Y-99929989D01*
X138251600Y-99860375D01*
X138284205Y-99798580D01*
X138300245Y-99784682D01*
X138439858Y-99683247D01*
X138439856Y-99683247D01*
X138439865Y-99683242D01*
X138595742Y-99527365D01*
X138725315Y-99349022D01*
X138825395Y-99152606D01*
X138893515Y-98942951D01*
X138928000Y-98725222D01*
X138928000Y-98504778D01*
X138893515Y-98287049D01*
X138829466Y-98089922D01*
X138825396Y-98077396D01*
X138825395Y-98077393D01*
X138771411Y-97971446D01*
X138725315Y-97880978D01*
X138708760Y-97858192D01*
X138595747Y-97702641D01*
X138595743Y-97702636D01*
X138439863Y-97546756D01*
X138439858Y-97546752D01*
X138300245Y-97445318D01*
X138257579Y-97389989D01*
X138251600Y-97320375D01*
X138284205Y-97258580D01*
X138300245Y-97244682D01*
X138439858Y-97143247D01*
X138439856Y-97143247D01*
X138439865Y-97143242D01*
X138595742Y-96987365D01*
X138725315Y-96809022D01*
X138825395Y-96612606D01*
X138893515Y-96402951D01*
X138928000Y-96185222D01*
X138928000Y-95964778D01*
X138893515Y-95747049D01*
X138859455Y-95642221D01*
X138825396Y-95537396D01*
X138825395Y-95537393D01*
X138779054Y-95446446D01*
X138725315Y-95340978D01*
X138683924Y-95284008D01*
X138595747Y-95162641D01*
X138595743Y-95162636D01*
X138439863Y-95006756D01*
X138439858Y-95006752D01*
X138300245Y-94905318D01*
X138257579Y-94849989D01*
X138251600Y-94780375D01*
X138284205Y-94718580D01*
X138300245Y-94704682D01*
X138439858Y-94603247D01*
X138439856Y-94603247D01*
X138439865Y-94603242D01*
X138595742Y-94447365D01*
X138725315Y-94269022D01*
X138825395Y-94072606D01*
X138893515Y-93862951D01*
X138928000Y-93645222D01*
X138928000Y-93424778D01*
X138893515Y-93207049D01*
X138859455Y-93102221D01*
X138825396Y-92997396D01*
X138825395Y-92997393D01*
X138790737Y-92929375D01*
X138725315Y-92800978D01*
X138683924Y-92744008D01*
X138595747Y-92622641D01*
X138595743Y-92622636D01*
X138439863Y-92466756D01*
X138439858Y-92466752D01*
X138300245Y-92365318D01*
X138257579Y-92309989D01*
X138251600Y-92240375D01*
X138284205Y-92178580D01*
X138300245Y-92164682D01*
X138439858Y-92063247D01*
X138439856Y-92063247D01*
X138439865Y-92063242D01*
X138595742Y-91907365D01*
X138725315Y-91729022D01*
X138741017Y-91698204D01*
X138788992Y-91647409D01*
X138851502Y-91630500D01*
X142550024Y-91630500D01*
X142617063Y-91650185D01*
X142650342Y-91681615D01*
X142705483Y-91757510D01*
X142872490Y-91924517D01*
X142907127Y-91949683D01*
X142949792Y-92005013D01*
X142955771Y-92074626D01*
X142923165Y-92136421D01*
X142907130Y-92150315D01*
X142898498Y-92156587D01*
X142872488Y-92175484D01*
X142705485Y-92342487D01*
X142705485Y-92342488D01*
X142705483Y-92342490D01*
X142650418Y-92418280D01*
X142566657Y-92533566D01*
X142459433Y-92744003D01*
X142386446Y-92968631D01*
X142349500Y-93201902D01*
X142349500Y-93438097D01*
X142386446Y-93671368D01*
X142459433Y-93895996D01*
X142549418Y-94072600D01*
X142566657Y-94106433D01*
X142705483Y-94297510D01*
X142872490Y-94464517D01*
X142907127Y-94489683D01*
X142949792Y-94545013D01*
X142955771Y-94614626D01*
X142923165Y-94676421D01*
X142907130Y-94690315D01*
X142897894Y-94697026D01*
X142872488Y-94715484D01*
X142705485Y-94882487D01*
X142705485Y-94882488D01*
X142705483Y-94882490D01*
X142645862Y-94964550D01*
X142566657Y-95073566D01*
X142459433Y-95284003D01*
X142386446Y-95508631D01*
X142349500Y-95741902D01*
X142349500Y-95978097D01*
X142386446Y-96211368D01*
X142459433Y-96435996D01*
X142549418Y-96612600D01*
X142566657Y-96646433D01*
X142705483Y-96837510D01*
X142705485Y-96837512D01*
X142730952Y-96862979D01*
X142764437Y-96924302D01*
X142759453Y-96993994D01*
X142717581Y-97049927D01*
X142712660Y-97053090D01*
X142592812Y-97142809D01*
X142592809Y-97142812D01*
X142506649Y-97257906D01*
X142506645Y-97257913D01*
X142456403Y-97392620D01*
X142456401Y-97392627D01*
X142450000Y-97452155D01*
X142450000Y-98150000D01*
X143411213Y-98150000D01*
X143379415Y-98205077D01*
X143345000Y-98333515D01*
X143345000Y-98466485D01*
X143379415Y-98594923D01*
X143411213Y-98650000D01*
X142450000Y-98650000D01*
X142450000Y-99347844D01*
X142456401Y-99407372D01*
X142456403Y-99407379D01*
X142506645Y-99542086D01*
X142506649Y-99542093D01*
X142592809Y-99657187D01*
X142592812Y-99657190D01*
X142707906Y-99743350D01*
X142707913Y-99743354D01*
X142842620Y-99793596D01*
X142842627Y-99793598D01*
X142902155Y-99799999D01*
X142902172Y-99800000D01*
X143600000Y-99800000D01*
X143600000Y-98838786D01*
X143655077Y-98870585D01*
X143783515Y-98905000D01*
X143916485Y-98905000D01*
X144044923Y-98870585D01*
X144100000Y-98838786D01*
X144100000Y-99800000D01*
X144797828Y-99800000D01*
X144797844Y-99799999D01*
X144857372Y-99793598D01*
X144857379Y-99793596D01*
X144992086Y-99743354D01*
X144992093Y-99743350D01*
X145107187Y-99657190D01*
X145107190Y-99657187D01*
X145193350Y-99542093D01*
X145193354Y-99542086D01*
X145243596Y-99407379D01*
X145243598Y-99407372D01*
X145249999Y-99347844D01*
X145250000Y-99347827D01*
X145250000Y-98650000D01*
X144288787Y-98650000D01*
X144320585Y-98594923D01*
X144355000Y-98466485D01*
X144355000Y-98333515D01*
X144320585Y-98205077D01*
X144288787Y-98150000D01*
X145250000Y-98150000D01*
X145250000Y-97452172D01*
X145249999Y-97452155D01*
X145243598Y-97392627D01*
X145243596Y-97392620D01*
X145193354Y-97257913D01*
X145193350Y-97257906D01*
X145107190Y-97142812D01*
X145107187Y-97142809D01*
X144984989Y-97051331D01*
X144986763Y-97048960D01*
X144947885Y-97010068D01*
X144933045Y-96941792D01*
X144957474Y-96876332D01*
X144969035Y-96862991D01*
X144994517Y-96837510D01*
X145133343Y-96646433D01*
X145240568Y-96435992D01*
X145313553Y-96211368D01*
X145322970Y-96151914D01*
X145350500Y-95978097D01*
X145350500Y-95741902D01*
X145313553Y-95508631D01*
X145240566Y-95284003D01*
X145178724Y-95162633D01*
X145133343Y-95073567D01*
X144994517Y-94882490D01*
X144827510Y-94715483D01*
X144792872Y-94690317D01*
X144750207Y-94634989D01*
X144744228Y-94565375D01*
X144776833Y-94503580D01*
X144792873Y-94489682D01*
X144827510Y-94464517D01*
X144994517Y-94297510D01*
X145133343Y-94106433D01*
X145240568Y-93895992D01*
X145313553Y-93671368D01*
X145317694Y-93645221D01*
X145350500Y-93438097D01*
X145350500Y-93201902D01*
X145313553Y-92968631D01*
X145250632Y-92774983D01*
X145240568Y-92744008D01*
X145240566Y-92744005D01*
X145240566Y-92744003D01*
X145167446Y-92600498D01*
X145133343Y-92533567D01*
X144994517Y-92342490D01*
X144827510Y-92175483D01*
X144792872Y-92150317D01*
X144750207Y-92094989D01*
X144744228Y-92025375D01*
X144776833Y-91963580D01*
X144792873Y-91949682D01*
X144827510Y-91924517D01*
X144994517Y-91757510D01*
X145049658Y-91681615D01*
X145104988Y-91638949D01*
X145149976Y-91630500D01*
X145203768Y-91630500D01*
X145203769Y-91630499D01*
X145368082Y-91597816D01*
X145443847Y-91566433D01*
X145522863Y-91533704D01*
X145662162Y-91440627D01*
X146125599Y-90977190D01*
X146186922Y-90943705D01*
X146256613Y-90948689D01*
G37*
%TD.AperFunction*%
%TA.AperFunction,Conductor*%
G36*
X138678566Y-81632514D02*
G01*
X138678566Y-81632513D01*
X138724886Y-81568760D01*
X138824932Y-81372410D01*
X138893026Y-81162835D01*
X138903027Y-81099697D01*
X138932956Y-81036562D01*
X138992268Y-80999631D01*
X139062130Y-81000629D01*
X139120363Y-81039239D01*
X139148477Y-81103202D01*
X139149500Y-81119095D01*
X139149500Y-83087706D01*
X139129815Y-83154745D01*
X139077011Y-83200500D01*
X139007853Y-83210444D01*
X138944297Y-83181419D01*
X138906523Y-83122641D01*
X138903027Y-83107104D01*
X138899954Y-83087706D01*
X138893515Y-83047049D01*
X138834740Y-82866154D01*
X138825396Y-82837396D01*
X138825395Y-82837393D01*
X138790737Y-82769375D01*
X138725315Y-82640978D01*
X138708760Y-82618192D01*
X138595747Y-82462641D01*
X138595743Y-82462636D01*
X138439863Y-82306756D01*
X138439858Y-82306752D01*
X138299819Y-82205008D01*
X138257153Y-82149678D01*
X138251174Y-82080065D01*
X138283779Y-82018270D01*
X138299819Y-82004372D01*
X138325013Y-81986066D01*
X138325014Y-81986066D01*
X137616085Y-81277138D01*
X137701194Y-81254333D01*
X137803806Y-81195090D01*
X137887590Y-81111306D01*
X137946833Y-81008694D01*
X137969637Y-80923585D01*
X138678566Y-81632514D01*
G37*
%TD.AperFunction*%
%TA.AperFunction,Conductor*%
G36*
X145406766Y-73816658D02*
G01*
X145435021Y-73837810D01*
X146300961Y-74703750D01*
X146334446Y-74765073D01*
X146337280Y-74791431D01*
X146337280Y-81445129D01*
X146317595Y-81512168D01*
X146264791Y-81557923D01*
X146195633Y-81567867D01*
X146132077Y-81538842D01*
X146125599Y-81532810D01*
X145370616Y-80777827D01*
X145337131Y-80716504D01*
X145335824Y-80670751D01*
X145350500Y-80578092D01*
X145350500Y-80341908D01*
X145350500Y-80341902D01*
X145313553Y-80108631D01*
X145264556Y-79957836D01*
X145240568Y-79884008D01*
X145240566Y-79884005D01*
X145240566Y-79884003D01*
X145138624Y-79683932D01*
X145133343Y-79673567D01*
X144994517Y-79482490D01*
X144827510Y-79315483D01*
X144792872Y-79290317D01*
X144750207Y-79234989D01*
X144744228Y-79165375D01*
X144776833Y-79103580D01*
X144792873Y-79089682D01*
X144827510Y-79064517D01*
X144994517Y-78897510D01*
X145133343Y-78706433D01*
X145240568Y-78495992D01*
X145313553Y-78271368D01*
X145323615Y-78207837D01*
X145350500Y-78038097D01*
X145350500Y-77801902D01*
X145313553Y-77568631D01*
X145240566Y-77344003D01*
X145150019Y-77166296D01*
X145133343Y-77133567D01*
X144994517Y-76942490D01*
X144827510Y-76775483D01*
X144768282Y-76732451D01*
X144725617Y-76677122D01*
X144717550Y-76622404D01*
X144719104Y-76602657D01*
X143983491Y-75867045D01*
X144044923Y-75850585D01*
X144160078Y-75784101D01*
X144254101Y-75690078D01*
X144320585Y-75574923D01*
X144337045Y-75513492D01*
X145072658Y-76249105D01*
X145072658Y-76249104D01*
X145132914Y-76166169D01*
X145132918Y-76166163D01*
X145240102Y-75955802D01*
X145313065Y-75731247D01*
X145350000Y-75498052D01*
X145350000Y-75261947D01*
X145313065Y-75028752D01*
X145240102Y-74804197D01*
X145132914Y-74593828D01*
X145072658Y-74510894D01*
X145072658Y-74510893D01*
X144337045Y-75246507D01*
X144320585Y-75185077D01*
X144254101Y-75069922D01*
X144160078Y-74975899D01*
X144044923Y-74909415D01*
X143983492Y-74892954D01*
X144599627Y-74276818D01*
X144660950Y-74243333D01*
X144687307Y-74240499D01*
X144797872Y-74240499D01*
X144857483Y-74234091D01*
X144992331Y-74183796D01*
X145107546Y-74097546D01*
X145193796Y-73982331D01*
X145231158Y-73882157D01*
X145273029Y-73826225D01*
X145338493Y-73801807D01*
X145406766Y-73816658D01*
G37*
%TD.AperFunction*%
%TA.AperFunction,Conductor*%
G36*
X84842054Y-78220185D02*
G01*
X84887809Y-78272989D01*
X84897753Y-78342147D01*
X84868728Y-78405703D01*
X84813333Y-78442431D01*
X84737396Y-78467103D01*
X84737393Y-78467104D01*
X84540974Y-78567187D01*
X84362641Y-78696752D01*
X84362636Y-78696756D01*
X84206756Y-78852636D01*
X84105008Y-78992681D01*
X84049678Y-79035346D01*
X83980065Y-79041325D01*
X83918270Y-79008719D01*
X83904371Y-78992680D01*
X83886066Y-78967485D01*
X83886065Y-78967485D01*
X83135000Y-79718551D01*
X83135000Y-79712339D01*
X83107741Y-79610606D01*
X83055080Y-79519394D01*
X82980606Y-79444920D01*
X82889394Y-79392259D01*
X82787661Y-79365000D01*
X82781445Y-79365000D01*
X83532513Y-78613932D01*
X83468756Y-78567611D01*
X83272410Y-78467567D01*
X83195047Y-78442431D01*
X83137372Y-78402994D01*
X83110173Y-78338635D01*
X83122087Y-78269789D01*
X83169331Y-78218313D01*
X83233365Y-78200500D01*
X84775015Y-78200500D01*
X84842054Y-78220185D01*
G37*
%TD.AperFunction*%
%TA.AperFunction,Conductor*%
G36*
X91142054Y-78220185D02*
G01*
X91187809Y-78272989D01*
X91197753Y-78342147D01*
X91168728Y-78405703D01*
X91113333Y-78442431D01*
X91037396Y-78467103D01*
X91037393Y-78467104D01*
X90840974Y-78567187D01*
X90662641Y-78696752D01*
X90662636Y-78696756D01*
X90506756Y-78852636D01*
X90405008Y-78992681D01*
X90349678Y-79035346D01*
X90280065Y-79041325D01*
X90218270Y-79008719D01*
X90204371Y-78992680D01*
X90186066Y-78967485D01*
X90186065Y-78967485D01*
X89435000Y-79718551D01*
X89435000Y-79712339D01*
X89407741Y-79610606D01*
X89355080Y-79519394D01*
X89280606Y-79444920D01*
X89189394Y-79392259D01*
X89087661Y-79365000D01*
X89081445Y-79365000D01*
X89832513Y-78613932D01*
X89768756Y-78567611D01*
X89572410Y-78467567D01*
X89495047Y-78442431D01*
X89437372Y-78402994D01*
X89410173Y-78338635D01*
X89422087Y-78269789D01*
X89469331Y-78218313D01*
X89533365Y-78200500D01*
X91075015Y-78200500D01*
X91142054Y-78220185D01*
G37*
%TD.AperFunction*%
%TA.AperFunction,Conductor*%
G36*
X103742054Y-78220185D02*
G01*
X103787809Y-78272989D01*
X103797753Y-78342147D01*
X103768728Y-78405703D01*
X103713333Y-78442431D01*
X103637396Y-78467103D01*
X103637393Y-78467104D01*
X103440974Y-78567187D01*
X103262641Y-78696752D01*
X103262636Y-78696756D01*
X103106756Y-78852636D01*
X103005008Y-78992681D01*
X102949678Y-79035346D01*
X102880065Y-79041325D01*
X102818270Y-79008719D01*
X102804371Y-78992680D01*
X102786066Y-78967485D01*
X102786065Y-78967485D01*
X102035000Y-79718551D01*
X102035000Y-79712339D01*
X102007741Y-79610606D01*
X101955080Y-79519394D01*
X101880606Y-79444920D01*
X101789394Y-79392259D01*
X101687661Y-79365000D01*
X101681445Y-79365000D01*
X102432513Y-78613932D01*
X102368756Y-78567611D01*
X102172410Y-78467567D01*
X102095047Y-78442431D01*
X102037372Y-78402994D01*
X102010173Y-78338635D01*
X102022087Y-78269789D01*
X102069331Y-78218313D01*
X102133365Y-78200500D01*
X103675015Y-78200500D01*
X103742054Y-78220185D01*
G37*
%TD.AperFunction*%
%TA.AperFunction,Conductor*%
G36*
X97322860Y-78220185D02*
G01*
X97368615Y-78272989D01*
X97378559Y-78342147D01*
X97349534Y-78405703D01*
X97312116Y-78434984D01*
X97248171Y-78467567D01*
X97140974Y-78522187D01*
X96962641Y-78651752D01*
X96962636Y-78651756D01*
X96806756Y-78807636D01*
X96705008Y-78947681D01*
X96649678Y-78990346D01*
X96580065Y-78996325D01*
X96518270Y-78963719D01*
X96504371Y-78947680D01*
X96486066Y-78922485D01*
X96486065Y-78922485D01*
X95735000Y-79673551D01*
X95735000Y-79667339D01*
X95707741Y-79565606D01*
X95655080Y-79474394D01*
X95580606Y-79399920D01*
X95489394Y-79347259D01*
X95387661Y-79320000D01*
X95381445Y-79320000D01*
X96132513Y-78568932D01*
X96068756Y-78522611D01*
X95896781Y-78434985D01*
X95845985Y-78387010D01*
X95829190Y-78319189D01*
X95851728Y-78253054D01*
X95906443Y-78209603D01*
X95953076Y-78200500D01*
X97255821Y-78200500D01*
X97322860Y-78220185D01*
G37*
%TD.AperFunction*%
%TA.AperFunction,Conductor*%
G36*
X148693039Y-53219685D02*
G01*
X148738794Y-53272489D01*
X148750000Y-53324000D01*
X148750000Y-131826000D01*
X148730315Y-131893039D01*
X148677511Y-131938794D01*
X148626000Y-131950000D01*
X67324000Y-131950000D01*
X67256961Y-131930315D01*
X67211206Y-131877511D01*
X67200000Y-131826000D01*
X67200000Y-127479818D01*
X95560000Y-127479818D01*
X95560000Y-127700181D01*
X95594473Y-127917835D01*
X95662567Y-128127410D01*
X95762611Y-128323756D01*
X95808932Y-128387513D01*
X96560000Y-127636445D01*
X96560000Y-127642661D01*
X96587259Y-127744394D01*
X96639920Y-127835606D01*
X96714394Y-127910080D01*
X96805606Y-127962741D01*
X96907339Y-127990000D01*
X96913553Y-127990000D01*
X96162485Y-128741065D01*
X96162485Y-128741066D01*
X96226243Y-128787388D01*
X96422589Y-128887432D01*
X96632164Y-128955526D01*
X96849819Y-128990000D01*
X97070181Y-128990000D01*
X97287835Y-128955526D01*
X97497410Y-128887432D01*
X97693760Y-128787386D01*
X97757513Y-128741066D01*
X97757514Y-128741066D01*
X97006447Y-127990000D01*
X97012661Y-127990000D01*
X97114394Y-127962741D01*
X97205606Y-127910080D01*
X97280080Y-127835606D01*
X97332741Y-127744394D01*
X97360000Y-127642661D01*
X97360000Y-127636448D01*
X98111066Y-128387514D01*
X98111066Y-128387513D01*
X98129372Y-128362319D01*
X98184701Y-128319653D01*
X98254315Y-128313674D01*
X98316110Y-128346279D01*
X98330008Y-128362319D01*
X98431752Y-128502358D01*
X98431756Y-128502363D01*
X98587636Y-128658243D01*
X98587641Y-128658247D01*
X98701632Y-128741065D01*
X98765978Y-128787815D01*
X98894375Y-128853237D01*
X98962393Y-128887895D01*
X98962396Y-128887896D01*
X99027488Y-128909045D01*
X99172049Y-128956015D01*
X99389778Y-128990500D01*
X99389779Y-128990500D01*
X99610221Y-128990500D01*
X99610222Y-128990500D01*
X99827951Y-128956015D01*
X100037606Y-128887895D01*
X100234022Y-128787815D01*
X100412365Y-128658242D01*
X100568242Y-128502365D01*
X100576054Y-128491613D01*
X100631385Y-128448948D01*
X100676371Y-128440500D01*
X101182954Y-128440500D01*
X101249993Y-128460185D01*
X101295748Y-128512989D01*
X101300660Y-128525496D01*
X101315185Y-128569331D01*
X101315187Y-128569336D01*
X101328691Y-128591229D01*
X101407288Y-128718656D01*
X101531344Y-128842712D01*
X101680666Y-128934814D01*
X101847203Y-128989999D01*
X101949991Y-129000500D01*
X102850008Y-129000499D01*
X102850016Y-129000498D01*
X102850019Y-129000498D01*
X102947892Y-128990500D01*
X102952797Y-128989999D01*
X103119334Y-128934814D01*
X103268656Y-128842712D01*
X103392712Y-128718656D01*
X103484814Y-128569334D01*
X103539999Y-128402797D01*
X103550500Y-128300009D01*
X103550499Y-126949992D01*
X103550498Y-126949983D01*
X104349500Y-126949983D01*
X104349500Y-128300001D01*
X104349501Y-128300018D01*
X104360000Y-128402796D01*
X104360001Y-128402799D01*
X104415185Y-128569331D01*
X104415187Y-128569336D01*
X104428691Y-128591229D01*
X104507288Y-128718656D01*
X104631344Y-128842712D01*
X104780666Y-128934814D01*
X104947203Y-128989999D01*
X105049991Y-129000500D01*
X105950008Y-129000499D01*
X105950016Y-129000498D01*
X105950019Y-129000498D01*
X106047892Y-128990500D01*
X106052797Y-128989999D01*
X106219334Y-128934814D01*
X106368656Y-128842712D01*
X106492712Y-128718656D01*
X106552740Y-128621333D01*
X106604688Y-128574609D01*
X106673650Y-128563386D01*
X106737732Y-128591229D01*
X106745960Y-128598749D01*
X107607834Y-129460624D01*
X107607838Y-129460627D01*
X107747133Y-129553702D01*
X107747135Y-129553702D01*
X107747137Y-129553704D01*
X107901919Y-129617816D01*
X107901921Y-129617816D01*
X107901926Y-129617818D01*
X108066228Y-129650499D01*
X108066232Y-129650500D01*
X108066233Y-129650500D01*
X108233768Y-129650500D01*
X108233769Y-129650499D01*
X108288538Y-129639605D01*
X108398073Y-129617818D01*
X108398076Y-129617816D01*
X108398081Y-129617816D01*
X108552863Y-129553704D01*
X108692162Y-129460627D01*
X108810627Y-129342162D01*
X108903704Y-129202863D01*
X108967816Y-129048081D01*
X108976065Y-129006614D01*
X108995472Y-128909045D01*
X109000500Y-128883767D01*
X109000500Y-128716233D01*
X108985111Y-128638865D01*
X108967818Y-128551926D01*
X108967815Y-128551917D01*
X108951691Y-128512989D01*
X108903704Y-128397137D01*
X108903702Y-128397135D01*
X108903702Y-128397133D01*
X108810627Y-128257838D01*
X108810624Y-128257834D01*
X107517165Y-126964375D01*
X107517161Y-126964372D01*
X107377866Y-126871297D01*
X107377863Y-126871296D01*
X107268416Y-126825962D01*
X107268414Y-126825961D01*
X107223086Y-126807185D01*
X107223074Y-126807182D01*
X107058771Y-126774500D01*
X107058767Y-126774500D01*
X106705449Y-126774500D01*
X106638410Y-126754815D01*
X106592655Y-126702011D01*
X106587744Y-126689507D01*
X106586267Y-126685053D01*
X106584814Y-126680666D01*
X106492712Y-126531344D01*
X106368656Y-126407288D01*
X106275888Y-126350069D01*
X106219336Y-126315187D01*
X106219331Y-126315185D01*
X106217862Y-126314698D01*
X106052797Y-126260001D01*
X106052795Y-126260000D01*
X105950010Y-126249500D01*
X105049998Y-126249500D01*
X105049980Y-126249501D01*
X104947203Y-126260000D01*
X104947200Y-126260001D01*
X104780668Y-126315185D01*
X104780663Y-126315187D01*
X104631342Y-126407289D01*
X104507289Y-126531342D01*
X104415187Y-126680663D01*
X104415185Y-126680668D01*
X104412256Y-126689507D01*
X104360001Y-126847203D01*
X104360001Y-126847204D01*
X104360000Y-126847204D01*
X104349500Y-126949983D01*
X103550498Y-126949983D01*
X103546886Y-126914627D01*
X103539999Y-126847203D01*
X103539998Y-126847200D01*
X103517096Y-126778087D01*
X103484814Y-126680666D01*
X103392712Y-126531344D01*
X103268656Y-126407288D01*
X103175888Y-126350069D01*
X103119336Y-126315187D01*
X103119331Y-126315185D01*
X103117862Y-126314698D01*
X102952797Y-126260001D01*
X102952795Y-126260000D01*
X102850010Y-126249500D01*
X101949998Y-126249500D01*
X101949980Y-126249501D01*
X101847203Y-126260000D01*
X101847200Y-126260001D01*
X101680668Y-126315185D01*
X101680663Y-126315187D01*
X101531342Y-126407289D01*
X101407289Y-126531342D01*
X101407288Y-126531344D01*
X101324713Y-126665221D01*
X101315229Y-126680597D01*
X101263281Y-126727321D01*
X101209690Y-126739500D01*
X100676371Y-126739500D01*
X100609332Y-126719815D01*
X100576054Y-126688387D01*
X100573712Y-126685164D01*
X100568242Y-126677635D01*
X100412365Y-126521758D01*
X100412363Y-126521756D01*
X100412358Y-126521752D01*
X100234025Y-126392187D01*
X100234024Y-126392186D01*
X100234022Y-126392185D01*
X100171096Y-126360122D01*
X100037606Y-126292104D01*
X100037603Y-126292103D01*
X99827952Y-126223985D01*
X99719086Y-126206742D01*
X99610222Y-126189500D01*
X99389778Y-126189500D01*
X99317201Y-126200995D01*
X99172047Y-126223985D01*
X98962396Y-126292103D01*
X98962393Y-126292104D01*
X98765974Y-126392187D01*
X98587641Y-126521752D01*
X98587636Y-126521756D01*
X98431756Y-126677636D01*
X98330008Y-126817681D01*
X98274678Y-126860346D01*
X98205065Y-126866325D01*
X98143270Y-126833719D01*
X98129371Y-126817680D01*
X98111066Y-126792485D01*
X98111065Y-126792485D01*
X97360000Y-127543551D01*
X97360000Y-127537339D01*
X97332741Y-127435606D01*
X97280080Y-127344394D01*
X97205606Y-127269920D01*
X97114394Y-127217259D01*
X97012661Y-127190000D01*
X97006445Y-127190000D01*
X97757513Y-126438932D01*
X97693756Y-126392611D01*
X97497410Y-126292567D01*
X97287835Y-126224473D01*
X97070181Y-126190000D01*
X96849819Y-126190000D01*
X96632164Y-126224473D01*
X96422589Y-126292567D01*
X96226233Y-126392616D01*
X96162485Y-126438931D01*
X96162485Y-126438932D01*
X96913553Y-127190000D01*
X96907339Y-127190000D01*
X96805606Y-127217259D01*
X96714394Y-127269920D01*
X96639920Y-127344394D01*
X96587259Y-127435606D01*
X96560000Y-127537339D01*
X96560000Y-127543553D01*
X95808932Y-126792485D01*
X95808931Y-126792485D01*
X95762616Y-126856233D01*
X95662567Y-127052589D01*
X95594473Y-127262164D01*
X95560000Y-127479818D01*
X67200000Y-127479818D01*
X67200000Y-122978711D01*
X69299500Y-122978711D01*
X69299500Y-123221288D01*
X69331161Y-123461785D01*
X69393947Y-123696104D01*
X69457900Y-123850499D01*
X69486776Y-123920212D01*
X69608064Y-124130289D01*
X69608066Y-124130292D01*
X69608067Y-124130293D01*
X69755733Y-124322736D01*
X69755739Y-124322743D01*
X69927256Y-124494260D01*
X69927263Y-124494266D01*
X69948585Y-124510627D01*
X70119711Y-124641936D01*
X70329788Y-124763224D01*
X70553900Y-124856054D01*
X70788211Y-124918838D01*
X70968586Y-124942584D01*
X71028711Y-124950500D01*
X71028712Y-124950500D01*
X71271289Y-124950500D01*
X71319388Y-124944167D01*
X71511789Y-124918838D01*
X71746100Y-124856054D01*
X71970212Y-124763224D01*
X72180289Y-124641936D01*
X72372738Y-124494265D01*
X72544265Y-124322738D01*
X72691936Y-124130289D01*
X72813224Y-123920212D01*
X72906054Y-123696100D01*
X72968838Y-123461789D01*
X73000500Y-123221288D01*
X73000500Y-122978712D01*
X72996292Y-122946752D01*
X72984043Y-122853704D01*
X72968838Y-122738211D01*
X72906054Y-122503900D01*
X72813224Y-122279788D01*
X72691936Y-122069711D01*
X72544265Y-121877262D01*
X72544260Y-121877256D01*
X72372743Y-121705739D01*
X72372736Y-121705733D01*
X72180293Y-121558067D01*
X72180292Y-121558066D01*
X72180289Y-121558064D01*
X71970212Y-121436776D01*
X71970205Y-121436773D01*
X71746104Y-121343947D01*
X71511785Y-121281161D01*
X71271289Y-121249500D01*
X71271288Y-121249500D01*
X71028712Y-121249500D01*
X71028711Y-121249500D01*
X70788214Y-121281161D01*
X70553895Y-121343947D01*
X70329794Y-121436773D01*
X70329785Y-121436777D01*
X70119706Y-121558067D01*
X69927263Y-121705733D01*
X69927256Y-121705739D01*
X69755739Y-121877256D01*
X69755733Y-121877263D01*
X69608067Y-122069706D01*
X69486777Y-122279785D01*
X69486773Y-122279794D01*
X69393947Y-122503895D01*
X69331161Y-122738214D01*
X69299500Y-122978711D01*
X67200000Y-122978711D01*
X67200000Y-88866228D01*
X67749500Y-88866228D01*
X67749500Y-114183771D01*
X67782182Y-114348075D01*
X67782185Y-114348085D01*
X67800376Y-114392001D01*
X67846296Y-114502863D01*
X67846297Y-114502866D01*
X67939372Y-114642161D01*
X67939375Y-114642165D01*
X76957834Y-123660624D01*
X76957838Y-123660627D01*
X77097130Y-123753700D01*
X77097137Y-123753704D01*
X77199491Y-123796100D01*
X77199492Y-123796100D01*
X77199493Y-123796101D01*
X77251913Y-123817814D01*
X77251918Y-123817816D01*
X77374908Y-123842280D01*
X77416228Y-123850499D01*
X77416232Y-123850500D01*
X77416233Y-123850500D01*
X77416234Y-123850500D01*
X77583767Y-123850500D01*
X92162769Y-123850500D01*
X92229808Y-123870185D01*
X92250450Y-123886818D01*
X92356344Y-123992712D01*
X92505666Y-124084814D01*
X92672203Y-124139999D01*
X92774991Y-124150500D01*
X94125008Y-124150499D01*
X94227797Y-124139999D01*
X94394334Y-124084814D01*
X94543656Y-123992712D01*
X94667712Y-123868656D01*
X94759814Y-123719334D01*
X94814999Y-123552797D01*
X94825500Y-123450009D01*
X94825499Y-122549992D01*
X94824809Y-122543242D01*
X94814999Y-122447203D01*
X94814998Y-122447200D01*
X94759814Y-122280666D01*
X94667712Y-122131344D01*
X94543656Y-122007288D01*
X94394334Y-121915186D01*
X94227797Y-121860001D01*
X94227795Y-121860000D01*
X94125010Y-121849500D01*
X92774998Y-121849500D01*
X92774981Y-121849501D01*
X92672203Y-121860000D01*
X92672200Y-121860001D01*
X92505668Y-121915185D01*
X92505663Y-121915187D01*
X92356345Y-122007287D01*
X92250450Y-122113182D01*
X92189127Y-122146666D01*
X92162769Y-122149500D01*
X77903651Y-122149500D01*
X77836612Y-122129815D01*
X77815970Y-122113181D01*
X69486819Y-113784030D01*
X69453334Y-113722707D01*
X69450500Y-113696349D01*
X69450500Y-109628303D01*
X71450000Y-109628303D01*
X71450000Y-110442500D01*
X72950000Y-110442500D01*
X72950000Y-110942500D01*
X71450001Y-110942500D01*
X71450001Y-111756697D01*
X71460400Y-111888832D01*
X71515377Y-112107019D01*
X71608428Y-112311874D01*
X71608431Y-112311880D01*
X71736559Y-112496823D01*
X71736569Y-112496835D01*
X71895664Y-112655930D01*
X71895676Y-112655940D01*
X72080619Y-112784068D01*
X72080625Y-112784071D01*
X72285480Y-112877122D01*
X72503667Y-112932099D01*
X72635810Y-112942499D01*
X73199999Y-112942499D01*
X73200000Y-112942498D01*
X73200000Y-112125512D01*
X73257007Y-112158425D01*
X73384174Y-112192500D01*
X73515826Y-112192500D01*
X73642993Y-112158425D01*
X73700000Y-112125512D01*
X73700000Y-112942499D01*
X74264182Y-112942499D01*
X74264197Y-112942498D01*
X74396332Y-112932099D01*
X74614519Y-112877122D01*
X74819374Y-112784071D01*
X74819380Y-112784068D01*
X75004323Y-112655940D01*
X75004335Y-112655930D01*
X75163430Y-112496835D01*
X75163440Y-112496823D01*
X75291568Y-112311880D01*
X75291571Y-112311874D01*
X75384622Y-112107019D01*
X75439599Y-111888832D01*
X75449999Y-111756696D01*
X75450000Y-111756684D01*
X75450000Y-110942500D01*
X73950000Y-110942500D01*
X73950000Y-110442500D01*
X75449999Y-110442500D01*
X75449999Y-109628317D01*
X75449998Y-109628302D01*
X75439599Y-109496167D01*
X75384622Y-109277980D01*
X75291571Y-109073125D01*
X75291568Y-109073119D01*
X75163440Y-108888176D01*
X75163430Y-108888164D01*
X75004335Y-108729069D01*
X75004323Y-108729059D01*
X74819380Y-108600931D01*
X74819374Y-108600928D01*
X74614519Y-108507877D01*
X74396332Y-108452900D01*
X74264196Y-108442500D01*
X73700000Y-108442500D01*
X73700000Y-109259488D01*
X73642993Y-109226575D01*
X73515826Y-109192500D01*
X73384174Y-109192500D01*
X73257007Y-109226575D01*
X73200000Y-109259488D01*
X73200000Y-108442500D01*
X72635817Y-108442500D01*
X72635802Y-108442501D01*
X72503667Y-108452900D01*
X72285480Y-108507877D01*
X72080625Y-108600928D01*
X72080619Y-108600931D01*
X71895676Y-108729059D01*
X71895664Y-108729069D01*
X71736569Y-108888164D01*
X71736559Y-108888176D01*
X71608431Y-109073119D01*
X71608428Y-109073125D01*
X71515377Y-109277980D01*
X71460400Y-109496167D01*
X71450000Y-109628303D01*
X69450500Y-109628303D01*
X69450500Y-100681995D01*
X69949500Y-100681995D01*
X69949500Y-100918004D01*
X69949501Y-100918020D01*
X69980306Y-101152010D01*
X70041394Y-101379993D01*
X70131714Y-101598045D01*
X70131719Y-101598056D01*
X70202677Y-101720957D01*
X70249727Y-101802450D01*
X70249729Y-101802453D01*
X70249730Y-101802454D01*
X70393406Y-101989697D01*
X70393412Y-101989704D01*
X70560295Y-102156587D01*
X70560301Y-102156592D01*
X70747550Y-102300273D01*
X70878918Y-102376118D01*
X70951943Y-102418280D01*
X70951948Y-102418282D01*
X70951951Y-102418284D01*
X71170007Y-102508606D01*
X71397986Y-102569693D01*
X71631989Y-102600500D01*
X71631996Y-102600500D01*
X71868004Y-102600500D01*
X71868011Y-102600500D01*
X72102014Y-102569693D01*
X72329993Y-102508606D01*
X72548049Y-102418284D01*
X72752450Y-102300273D01*
X72939699Y-102156592D01*
X73106592Y-101989699D01*
X73250273Y-101802450D01*
X73368284Y-101598049D01*
X73458606Y-101379993D01*
X73519693Y-101152014D01*
X73550500Y-100918011D01*
X73550500Y-100681989D01*
X73519693Y-100447986D01*
X73458606Y-100220007D01*
X73368284Y-100001951D01*
X73368282Y-100001948D01*
X73368280Y-100001943D01*
X73322382Y-99922447D01*
X73250273Y-99797550D01*
X73106592Y-99610301D01*
X73106587Y-99610295D01*
X72939704Y-99443412D01*
X72939697Y-99443406D01*
X72752454Y-99299730D01*
X72752453Y-99299729D01*
X72752450Y-99299727D01*
X72670957Y-99252677D01*
X72548056Y-99181719D01*
X72548045Y-99181714D01*
X72329993Y-99091394D01*
X72102010Y-99030306D01*
X71868020Y-98999501D01*
X71868017Y-98999500D01*
X71868011Y-98999500D01*
X71631989Y-98999500D01*
X71631983Y-98999500D01*
X71631979Y-98999501D01*
X71397989Y-99030306D01*
X71170006Y-99091394D01*
X70951954Y-99181714D01*
X70951943Y-99181719D01*
X70747545Y-99299730D01*
X70560302Y-99443406D01*
X70560295Y-99443412D01*
X70393412Y-99610295D01*
X70393406Y-99610302D01*
X70249730Y-99797545D01*
X70249727Y-99797549D01*
X70249727Y-99797550D01*
X70242014Y-99810909D01*
X70131719Y-100001943D01*
X70131714Y-100001954D01*
X70041394Y-100220006D01*
X69980306Y-100447989D01*
X69949501Y-100681979D01*
X69949500Y-100681995D01*
X69450500Y-100681995D01*
X69450500Y-95682014D01*
X69950000Y-95682014D01*
X69950000Y-95917985D01*
X69980799Y-96151914D01*
X70041870Y-96379837D01*
X70132160Y-96597819D01*
X70132165Y-96597828D01*
X70250144Y-96802171D01*
X70250145Y-96802172D01*
X70312721Y-96883723D01*
X71148958Y-96047487D01*
X71173978Y-96107890D01*
X71245112Y-96214351D01*
X71335649Y-96304888D01*
X71442110Y-96376022D01*
X71502511Y-96401041D01*
X70666275Y-97237277D01*
X70747827Y-97299854D01*
X70747828Y-97299855D01*
X70952171Y-97417834D01*
X70952180Y-97417839D01*
X71170163Y-97508129D01*
X71170161Y-97508129D01*
X71398085Y-97569200D01*
X71632014Y-97599999D01*
X71632029Y-97600000D01*
X71867971Y-97600000D01*
X71867985Y-97599999D01*
X72101914Y-97569200D01*
X72329837Y-97508129D01*
X72547819Y-97417839D01*
X72547828Y-97417834D01*
X72752181Y-97299850D01*
X72833723Y-97237279D01*
X72833723Y-97237276D01*
X71997487Y-96401041D01*
X72057890Y-96376022D01*
X72164351Y-96304888D01*
X72254888Y-96214351D01*
X72326022Y-96107890D01*
X72351041Y-96047487D01*
X73187276Y-96883723D01*
X73187279Y-96883723D01*
X73249850Y-96802181D01*
X73367834Y-96597828D01*
X73367839Y-96597819D01*
X73458129Y-96379837D01*
X73519200Y-96151914D01*
X73549999Y-95917985D01*
X73550000Y-95917971D01*
X73550000Y-95682028D01*
X73549999Y-95682014D01*
X73519200Y-95448085D01*
X73458129Y-95220162D01*
X73367839Y-95002180D01*
X73367834Y-95002171D01*
X73249855Y-94797828D01*
X73249854Y-94797827D01*
X73187277Y-94716275D01*
X72351041Y-95552511D01*
X72326022Y-95492110D01*
X72254888Y-95385649D01*
X72164351Y-95295112D01*
X72057890Y-95223978D01*
X71997488Y-95198958D01*
X72833723Y-94362721D01*
X72752172Y-94300145D01*
X72752171Y-94300144D01*
X72547828Y-94182165D01*
X72547819Y-94182160D01*
X72329836Y-94091870D01*
X72329838Y-94091870D01*
X72101914Y-94030799D01*
X71867985Y-94000000D01*
X71632014Y-94000000D01*
X71398085Y-94030799D01*
X71170162Y-94091870D01*
X70952180Y-94182160D01*
X70952171Y-94182165D01*
X70747828Y-94300144D01*
X70747818Y-94300150D01*
X70666275Y-94362720D01*
X70666275Y-94362721D01*
X71502512Y-95198958D01*
X71442110Y-95223978D01*
X71335649Y-95295112D01*
X71245112Y-95385649D01*
X71173978Y-95492110D01*
X71148958Y-95552512D01*
X70312721Y-94716275D01*
X70312720Y-94716275D01*
X70250150Y-94797818D01*
X70250144Y-94797828D01*
X70132165Y-95002171D01*
X70132160Y-95002180D01*
X70041870Y-95220162D01*
X69980799Y-95448085D01*
X69950000Y-95682014D01*
X69450500Y-95682014D01*
X69450500Y-89353650D01*
X69470185Y-89286611D01*
X69486814Y-89265974D01*
X71115970Y-87636817D01*
X71177293Y-87603333D01*
X71203651Y-87600499D01*
X72850002Y-87600499D01*
X72850008Y-87600499D01*
X72952797Y-87589999D01*
X73119334Y-87534814D01*
X73268656Y-87442712D01*
X73392712Y-87318656D01*
X73469961Y-87193413D01*
X73521909Y-87146689D01*
X73590871Y-87135466D01*
X73654953Y-87163309D01*
X73693810Y-87221378D01*
X73699500Y-87258510D01*
X73699500Y-88496348D01*
X73679815Y-88563387D01*
X73663181Y-88584029D01*
X72939699Y-89307510D01*
X72878376Y-89340995D01*
X72808684Y-89336011D01*
X72776533Y-89318206D01*
X72752448Y-89299725D01*
X72548056Y-89181719D01*
X72548045Y-89181714D01*
X72329993Y-89091394D01*
X72102010Y-89030306D01*
X71868020Y-88999501D01*
X71868017Y-88999500D01*
X71868011Y-88999500D01*
X71631989Y-88999500D01*
X71631983Y-88999500D01*
X71631979Y-88999501D01*
X71397989Y-89030306D01*
X71170006Y-89091394D01*
X70951954Y-89181714D01*
X70951947Y-89181718D01*
X70806021Y-89265969D01*
X70747554Y-89299725D01*
X70747545Y-89299730D01*
X70560302Y-89443406D01*
X70560295Y-89443412D01*
X70393412Y-89610295D01*
X70393406Y-89610302D01*
X70249730Y-89797545D01*
X70249727Y-89797549D01*
X70249727Y-89797550D01*
X70246877Y-89802487D01*
X70131719Y-90001943D01*
X70131714Y-90001954D01*
X70041394Y-90220006D01*
X69980306Y-90447989D01*
X69949501Y-90681979D01*
X69949500Y-90681995D01*
X69949500Y-90918004D01*
X69949501Y-90918020D01*
X69977438Y-91130227D01*
X69980307Y-91152014D01*
X69981868Y-91157838D01*
X70041394Y-91379993D01*
X70131714Y-91598045D01*
X70131719Y-91598056D01*
X70176153Y-91675016D01*
X70249727Y-91802450D01*
X70249729Y-91802453D01*
X70249730Y-91802454D01*
X70393406Y-91989697D01*
X70393412Y-91989704D01*
X70560295Y-92156587D01*
X70560302Y-92156593D01*
X70584923Y-92175485D01*
X70747550Y-92300273D01*
X70844668Y-92356344D01*
X70951943Y-92418280D01*
X70951948Y-92418282D01*
X70951951Y-92418284D01*
X71170007Y-92508606D01*
X71397986Y-92569693D01*
X71631989Y-92600500D01*
X71631996Y-92600500D01*
X71868004Y-92600500D01*
X71868011Y-92600500D01*
X72102014Y-92569693D01*
X72329993Y-92508606D01*
X72548049Y-92418284D01*
X72752450Y-92300273D01*
X72939699Y-92156592D01*
X73106592Y-91989699D01*
X73250273Y-91802450D01*
X73368284Y-91598049D01*
X73458606Y-91379993D01*
X73518019Y-91158261D01*
X73550110Y-91102677D01*
X75210627Y-89442162D01*
X75303704Y-89302863D01*
X75353884Y-89181716D01*
X75367816Y-89148082D01*
X75400500Y-88983767D01*
X75400500Y-86343437D01*
X75420185Y-86276398D01*
X75472989Y-86230643D01*
X75542147Y-86220699D01*
X75605703Y-86249724D01*
X75627602Y-86274546D01*
X75639372Y-86292161D01*
X75639375Y-86292165D01*
X81363181Y-92015970D01*
X81396666Y-92077293D01*
X81399500Y-92103651D01*
X81399500Y-108320256D01*
X81379815Y-108387295D01*
X81327011Y-108433050D01*
X81262247Y-108443545D01*
X81247873Y-108442000D01*
X81247864Y-108442000D01*
X77652129Y-108442000D01*
X77652123Y-108442001D01*
X77592516Y-108448408D01*
X77457671Y-108498702D01*
X77457664Y-108498706D01*
X77342455Y-108584952D01*
X77342452Y-108584955D01*
X77256206Y-108700164D01*
X77256202Y-108700171D01*
X77205908Y-108835017D01*
X77199501Y-108894616D01*
X77199500Y-108894635D01*
X77199500Y-112490370D01*
X77199501Y-112490376D01*
X77205908Y-112549983D01*
X77256202Y-112684828D01*
X77256206Y-112684835D01*
X77342452Y-112800044D01*
X77342455Y-112800047D01*
X77457664Y-112886293D01*
X77457673Y-112886298D01*
X77504937Y-112903926D01*
X77560871Y-112945796D01*
X77585289Y-113011260D01*
X77570438Y-113079533D01*
X77521033Y-113128939D01*
X77455028Y-113143933D01*
X77418657Y-113142001D01*
X77418628Y-113142000D01*
X77418622Y-113142000D01*
X75481378Y-113142000D01*
X75481370Y-113142000D01*
X75481347Y-113142001D01*
X75428756Y-113144795D01*
X75428755Y-113144795D01*
X75198878Y-113189254D01*
X75198876Y-113189254D01*
X75198874Y-113189255D01*
X75124933Y-113217159D01*
X74979810Y-113271925D01*
X74777868Y-113390429D01*
X74777861Y-113390434D01*
X74598858Y-113541356D01*
X74598856Y-113541358D01*
X74447934Y-113720361D01*
X74447929Y-113720368D01*
X74329425Y-113922310D01*
X74282102Y-114047710D01*
X74246755Y-114141374D01*
X74246754Y-114141376D01*
X74246754Y-114141378D01*
X74202295Y-114371255D01*
X74202295Y-114371256D01*
X74199501Y-114423847D01*
X74199500Y-114423886D01*
X74199500Y-116361113D01*
X74199501Y-116361152D01*
X74202295Y-116413743D01*
X74202295Y-116413744D01*
X74226327Y-116538000D01*
X74246755Y-116643626D01*
X74283941Y-116742162D01*
X74329425Y-116862689D01*
X74447929Y-117064631D01*
X74447934Y-117064638D01*
X74598856Y-117243641D01*
X74598858Y-117243643D01*
X74777861Y-117394565D01*
X74777868Y-117394570D01*
X74979810Y-117513074D01*
X75198874Y-117595745D01*
X75428759Y-117640205D01*
X75481378Y-117643000D01*
X75481386Y-117643000D01*
X77418614Y-117643000D01*
X77418622Y-117643000D01*
X77471241Y-117640205D01*
X77701126Y-117595745D01*
X77920190Y-117513074D01*
X78122132Y-117394570D01*
X78204372Y-117325231D01*
X78301141Y-117243643D01*
X78301143Y-117243641D01*
X78452065Y-117064638D01*
X78452065Y-117064637D01*
X78452070Y-117064632D01*
X78570574Y-116862690D01*
X78653245Y-116643626D01*
X78697705Y-116413741D01*
X78700500Y-116361122D01*
X78700500Y-114423878D01*
X78697705Y-114371259D01*
X78653245Y-114141374D01*
X78570574Y-113922310D01*
X78452070Y-113720368D01*
X78452065Y-113720361D01*
X78301143Y-113541358D01*
X78301141Y-113541356D01*
X78122138Y-113390434D01*
X78122131Y-113390429D01*
X77920189Y-113271925D01*
X77822513Y-113235064D01*
X77701126Y-113189255D01*
X77701121Y-113189254D01*
X77701116Y-113189252D01*
X77698470Y-113188740D01*
X77697451Y-113188213D01*
X77696050Y-113187817D01*
X77696130Y-113187531D01*
X77636392Y-113156677D01*
X77601503Y-113096141D01*
X77604881Y-113026353D01*
X77645452Y-112969470D01*
X77710337Y-112943552D01*
X77722009Y-112942999D01*
X81247872Y-112942999D01*
X81262242Y-112941454D01*
X81331001Y-112953857D01*
X81382140Y-113001466D01*
X81399500Y-113064743D01*
X81399500Y-116283771D01*
X81432181Y-116448073D01*
X81432184Y-116448082D01*
X81496296Y-116602863D01*
X81496297Y-116602866D01*
X81589372Y-116742161D01*
X81589375Y-116742165D01*
X83457834Y-118610624D01*
X83457838Y-118610627D01*
X83597137Y-118703704D01*
X83597139Y-118703705D01*
X83597143Y-118703707D01*
X83654078Y-118727289D01*
X83706584Y-118749037D01*
X83751918Y-118767816D01*
X83916228Y-118800499D01*
X83916232Y-118800500D01*
X83916233Y-118800500D01*
X84083767Y-118800500D01*
X92163770Y-118800500D01*
X92230809Y-118820185D01*
X92276564Y-118872989D01*
X92286508Y-118942147D01*
X92257483Y-119005703D01*
X92251451Y-119012181D01*
X92232289Y-119031342D01*
X92140187Y-119180663D01*
X92140185Y-119180668D01*
X92115191Y-119256097D01*
X92085001Y-119347203D01*
X92085001Y-119347204D01*
X92085000Y-119347204D01*
X92074500Y-119449983D01*
X92074500Y-120350001D01*
X92074501Y-120350019D01*
X92085000Y-120452796D01*
X92085001Y-120452799D01*
X92118681Y-120554437D01*
X92140186Y-120619334D01*
X92232288Y-120768656D01*
X92356344Y-120892712D01*
X92505666Y-120984814D01*
X92672203Y-121039999D01*
X92774991Y-121050500D01*
X94125008Y-121050499D01*
X94227797Y-121039999D01*
X94394334Y-120984814D01*
X94543656Y-120892712D01*
X94579549Y-120856819D01*
X94640872Y-120823334D01*
X94667230Y-120820500D01*
X95783629Y-120820500D01*
X95850668Y-120840185D01*
X95883946Y-120871613D01*
X95891757Y-120882363D01*
X95891759Y-120882366D01*
X96047636Y-121038243D01*
X96047641Y-121038247D01*
X96167024Y-121124983D01*
X96225978Y-121167815D01*
X96315013Y-121213181D01*
X96422393Y-121267895D01*
X96422396Y-121267896D01*
X96463223Y-121281161D01*
X96632049Y-121336015D01*
X96849778Y-121370500D01*
X96849779Y-121370500D01*
X97070221Y-121370500D01*
X97070222Y-121370500D01*
X97287951Y-121336015D01*
X97497606Y-121267895D01*
X97694022Y-121167815D01*
X97872365Y-121038242D01*
X98028242Y-120882365D01*
X98035978Y-120871717D01*
X98091305Y-120829049D01*
X98160918Y-120823066D01*
X98222715Y-120855669D01*
X98254004Y-120905591D01*
X98265184Y-120939328D01*
X98265186Y-120939334D01*
X98357288Y-121088656D01*
X98481344Y-121212712D01*
X98630666Y-121304814D01*
X98797203Y-121359999D01*
X98899991Y-121370500D01*
X100100008Y-121370499D01*
X100202797Y-121359999D01*
X100369334Y-121304814D01*
X100518656Y-121212712D01*
X100642712Y-121088656D01*
X100734814Y-120939334D01*
X100742543Y-120916009D01*
X100746028Y-120905494D01*
X100785801Y-120848050D01*
X100850317Y-120821228D01*
X100863733Y-120820500D01*
X103116349Y-120820500D01*
X103183388Y-120840185D01*
X103204030Y-120856819D01*
X107839373Y-125492162D01*
X109562834Y-127215624D01*
X109562838Y-127215627D01*
X109702132Y-127308701D01*
X109702133Y-127308701D01*
X109702137Y-127308704D01*
X109784917Y-127342992D01*
X109856918Y-127372816D01*
X110021228Y-127405499D01*
X110021232Y-127405500D01*
X110021233Y-127405500D01*
X110188767Y-127405500D01*
X110951129Y-127405500D01*
X111018168Y-127425185D01*
X111051446Y-127456613D01*
X111059257Y-127467363D01*
X111059259Y-127467366D01*
X111215136Y-127623243D01*
X111215141Y-127623247D01*
X111351732Y-127722485D01*
X111393478Y-127752815D01*
X111501495Y-127807853D01*
X111589893Y-127852895D01*
X111589896Y-127852896D01*
X111694721Y-127886955D01*
X111799549Y-127921015D01*
X112017278Y-127955500D01*
X112017279Y-127955500D01*
X112237721Y-127955500D01*
X112237722Y-127955500D01*
X112455451Y-127921015D01*
X112665106Y-127852895D01*
X112861522Y-127752815D01*
X113039865Y-127623242D01*
X113195742Y-127467365D01*
X113325315Y-127289022D01*
X113425395Y-127092606D01*
X113493515Y-126882951D01*
X113528000Y-126665222D01*
X113528000Y-126624500D01*
X113547685Y-126557461D01*
X113600489Y-126511706D01*
X113652000Y-126500500D01*
X115022926Y-126500500D01*
X115089965Y-126520185D01*
X115135720Y-126572989D01*
X115145664Y-126642147D01*
X115122192Y-126698812D01*
X115106204Y-126720168D01*
X115106202Y-126720171D01*
X115055908Y-126855017D01*
X115049863Y-126911251D01*
X115049501Y-126914623D01*
X115049500Y-126914635D01*
X115049500Y-129210370D01*
X115049501Y-129210376D01*
X115055908Y-129269983D01*
X115106202Y-129404828D01*
X115106206Y-129404835D01*
X115192452Y-129520044D01*
X115192455Y-129520047D01*
X115307664Y-129606293D01*
X115307671Y-129606297D01*
X115442517Y-129656591D01*
X115442516Y-129656591D01*
X115449444Y-129657335D01*
X115502127Y-129663000D01*
X116797872Y-129662999D01*
X116857483Y-129656591D01*
X116992331Y-129606296D01*
X117107546Y-129520046D01*
X117193796Y-129404831D01*
X117244091Y-129269983D01*
X117250500Y-129210373D01*
X117250499Y-128531495D01*
X120149499Y-128531495D01*
X120176418Y-128666822D01*
X120176421Y-128666832D01*
X120229221Y-128794304D01*
X120229228Y-128794317D01*
X120305885Y-128909041D01*
X120305888Y-128909045D01*
X120403454Y-129006611D01*
X120403458Y-129006614D01*
X120518182Y-129083271D01*
X120518195Y-129083278D01*
X120645667Y-129136078D01*
X120645672Y-129136080D01*
X120645676Y-129136080D01*
X120645677Y-129136081D01*
X120781004Y-129163000D01*
X120781007Y-129163000D01*
X120918995Y-129163000D01*
X121010041Y-129144889D01*
X121054328Y-129136080D01*
X121181811Y-129083275D01*
X121296542Y-129006614D01*
X121394114Y-128909042D01*
X121470775Y-128794311D01*
X121523580Y-128666828D01*
X121542973Y-128569334D01*
X121550500Y-128531495D01*
X128149499Y-128531495D01*
X128176418Y-128666822D01*
X128176421Y-128666832D01*
X128229221Y-128794304D01*
X128229228Y-128794317D01*
X128305885Y-128909041D01*
X128305888Y-128909045D01*
X128403454Y-129006611D01*
X128403458Y-129006614D01*
X128518182Y-129083271D01*
X128518195Y-129083278D01*
X128645667Y-129136078D01*
X128645672Y-129136080D01*
X128645676Y-129136080D01*
X128645677Y-129136081D01*
X128781004Y-129163000D01*
X128781007Y-129163000D01*
X128918995Y-129163000D01*
X129010041Y-129144889D01*
X129054328Y-129136080D01*
X129181811Y-129083275D01*
X129296542Y-129006614D01*
X129394114Y-128909042D01*
X129470775Y-128794311D01*
X129523580Y-128666828D01*
X129542973Y-128569334D01*
X129550500Y-128531495D01*
X129550500Y-128393504D01*
X129523581Y-128258177D01*
X129523580Y-128258176D01*
X129523580Y-128258172D01*
X129491394Y-128180467D01*
X129470778Y-128130695D01*
X129470771Y-128130682D01*
X129394114Y-128015958D01*
X129394111Y-128015954D01*
X129296545Y-127918388D01*
X129296541Y-127918385D01*
X129181817Y-127841728D01*
X129181804Y-127841721D01*
X129054332Y-127788921D01*
X129054322Y-127788918D01*
X128918995Y-127762000D01*
X128918993Y-127762000D01*
X128781007Y-127762000D01*
X128781005Y-127762000D01*
X128645677Y-127788918D01*
X128645667Y-127788921D01*
X128518195Y-127841721D01*
X128518182Y-127841728D01*
X128403458Y-127918385D01*
X128403454Y-127918388D01*
X128305888Y-128015954D01*
X128305885Y-128015958D01*
X128229228Y-128130682D01*
X128229221Y-128130695D01*
X128176421Y-128258167D01*
X128176418Y-128258177D01*
X128149500Y-128393504D01*
X128149500Y-128393507D01*
X128149500Y-128531493D01*
X128149500Y-128531495D01*
X128149499Y-128531495D01*
X121550500Y-128531495D01*
X121550500Y-128393504D01*
X121523581Y-128258177D01*
X121523580Y-128258176D01*
X121523580Y-128258172D01*
X121491394Y-128180467D01*
X121470778Y-128130695D01*
X121470771Y-128130682D01*
X121394114Y-128015958D01*
X121394111Y-128015954D01*
X121296545Y-127918388D01*
X121296541Y-127918385D01*
X121181817Y-127841728D01*
X121181804Y-127841721D01*
X121054332Y-127788921D01*
X121054322Y-127788918D01*
X120918995Y-127762000D01*
X120918993Y-127762000D01*
X120781007Y-127762000D01*
X120781005Y-127762000D01*
X120645677Y-127788918D01*
X120645667Y-127788921D01*
X120518195Y-127841721D01*
X120518182Y-127841728D01*
X120403458Y-127918385D01*
X120403454Y-127918388D01*
X120305888Y-128015954D01*
X120305885Y-128015958D01*
X120229228Y-128130682D01*
X120229221Y-128130695D01*
X120176421Y-128258167D01*
X120176418Y-128258177D01*
X120149500Y-128393504D01*
X120149500Y-128393507D01*
X120149500Y-128531493D01*
X120149500Y-128531495D01*
X120149499Y-128531495D01*
X117250499Y-128531495D01*
X117250499Y-128015958D01*
X117250499Y-126914629D01*
X117250498Y-126914623D01*
X117250497Y-126914616D01*
X117244091Y-126855017D01*
X117241175Y-126847200D01*
X117193797Y-126720171D01*
X117193795Y-126720168D01*
X117177808Y-126698812D01*
X117153390Y-126633348D01*
X117168241Y-126565075D01*
X117217646Y-126515669D01*
X117277074Y-126500500D01*
X130522926Y-126500500D01*
X130589965Y-126520185D01*
X130635720Y-126572989D01*
X130645664Y-126642147D01*
X130622192Y-126698812D01*
X130606204Y-126720168D01*
X130606202Y-126720171D01*
X130555908Y-126855017D01*
X130549863Y-126911251D01*
X130549501Y-126914623D01*
X130549500Y-126914635D01*
X130549500Y-129210370D01*
X130549501Y-129210376D01*
X130555908Y-129269983D01*
X130606202Y-129404828D01*
X130606206Y-129404835D01*
X130692452Y-129520044D01*
X130692455Y-129520047D01*
X130807664Y-129606293D01*
X130807671Y-129606297D01*
X130942517Y-129656591D01*
X130942516Y-129656591D01*
X130949444Y-129657335D01*
X131002127Y-129663000D01*
X132297872Y-129662999D01*
X132357483Y-129656591D01*
X132492331Y-129606296D01*
X132607546Y-129520046D01*
X132693796Y-129404831D01*
X132744091Y-129269983D01*
X132750500Y-129210373D01*
X132750499Y-126914628D01*
X132750498Y-126914627D01*
X132750321Y-126911304D01*
X132751292Y-126911251D01*
X132762970Y-126846510D01*
X132810577Y-126795370D01*
X132878275Y-126778087D01*
X132944571Y-126800148D01*
X132961538Y-126814327D01*
X135607834Y-129460624D01*
X135607838Y-129460627D01*
X135747137Y-129553704D01*
X135747139Y-129553705D01*
X135747143Y-129553707D01*
X135829222Y-129587703D01*
X135856584Y-129599037D01*
X135901918Y-129617816D01*
X136066228Y-129650499D01*
X136066232Y-129650500D01*
X136066233Y-129650500D01*
X139383768Y-129650500D01*
X139383769Y-129650499D01*
X139438538Y-129639605D01*
X139548074Y-129617818D01*
X139548078Y-129617816D01*
X139548082Y-129617816D01*
X139593415Y-129599037D01*
X139702863Y-129553704D01*
X139842162Y-129460627D01*
X140663930Y-128638858D01*
X140757008Y-128499559D01*
X140821120Y-128344777D01*
X140825249Y-128324022D01*
X140827308Y-128313674D01*
X140853803Y-128180467D01*
X140853804Y-128180464D01*
X140853804Y-123078711D01*
X142699500Y-123078711D01*
X142699500Y-123321288D01*
X142731161Y-123561785D01*
X142793946Y-123796100D01*
X142831522Y-123886818D01*
X142886776Y-124020212D01*
X143008064Y-124230289D01*
X143008066Y-124230292D01*
X143008067Y-124230293D01*
X143155733Y-124422736D01*
X143155739Y-124422743D01*
X143327256Y-124594260D01*
X143327263Y-124594266D01*
X143368633Y-124626010D01*
X143519711Y-124741936D01*
X143729788Y-124863224D01*
X143953900Y-124956054D01*
X144188211Y-125018838D01*
X144368586Y-125042584D01*
X144428711Y-125050500D01*
X144428712Y-125050500D01*
X144671289Y-125050500D01*
X144719388Y-125044167D01*
X144911789Y-125018838D01*
X145146100Y-124956054D01*
X145370212Y-124863224D01*
X145580289Y-124741936D01*
X145772738Y-124594265D01*
X145944265Y-124422738D01*
X146091936Y-124230289D01*
X146213224Y-124020212D01*
X146306054Y-123796100D01*
X146368838Y-123561789D01*
X146400500Y-123321288D01*
X146400500Y-123078712D01*
X146368838Y-122838211D01*
X146306054Y-122603900D01*
X146213224Y-122379788D01*
X146091936Y-122169711D01*
X146031018Y-122090321D01*
X145944266Y-121977263D01*
X145944260Y-121977256D01*
X145772743Y-121805739D01*
X145772736Y-121805733D01*
X145580293Y-121658067D01*
X145580292Y-121658066D01*
X145580289Y-121658064D01*
X145370212Y-121536776D01*
X145370205Y-121536773D01*
X145146104Y-121443947D01*
X144911785Y-121381161D01*
X144671289Y-121349500D01*
X144671288Y-121349500D01*
X144428712Y-121349500D01*
X144428711Y-121349500D01*
X144188214Y-121381161D01*
X143953895Y-121443947D01*
X143729794Y-121536773D01*
X143729785Y-121536777D01*
X143547851Y-121641817D01*
X143528720Y-121652863D01*
X143519706Y-121658067D01*
X143327263Y-121805733D01*
X143327256Y-121805739D01*
X143155739Y-121977256D01*
X143155733Y-121977263D01*
X143008067Y-122169706D01*
X142886777Y-122379785D01*
X142886773Y-122379794D01*
X142793947Y-122603895D01*
X142731161Y-122838214D01*
X142699500Y-123078711D01*
X140853804Y-123078711D01*
X140853804Y-117300346D01*
X140873489Y-117233307D01*
X140890123Y-117212665D01*
X142765969Y-115336819D01*
X142827292Y-115303334D01*
X142853650Y-115300500D01*
X144983768Y-115300500D01*
X144983769Y-115300499D01*
X145148082Y-115267816D01*
X145195726Y-115248081D01*
X145302863Y-115203704D01*
X145442162Y-115110627D01*
X146610626Y-113942162D01*
X146703704Y-113802863D01*
X146727763Y-113744778D01*
X146737874Y-113720369D01*
X146737874Y-113720368D01*
X146747845Y-113696296D01*
X146767816Y-113648082D01*
X146800500Y-113483767D01*
X146800500Y-104216233D01*
X146767816Y-104051918D01*
X146703703Y-103897137D01*
X146642287Y-103805222D01*
X146610627Y-103757839D01*
X146610626Y-103757838D01*
X146492162Y-103639374D01*
X145840469Y-102987680D01*
X145806984Y-102926357D01*
X145811968Y-102856665D01*
X145840467Y-102812320D01*
X147600763Y-101052023D01*
X147619543Y-101036611D01*
X147729942Y-100962846D01*
X147848406Y-100844382D01*
X147941483Y-100705083D01*
X148005596Y-100550302D01*
X148038280Y-100385987D01*
X148038280Y-74304013D01*
X148005596Y-74139698D01*
X147972073Y-74058767D01*
X147941484Y-73984917D01*
X147941482Y-73984915D01*
X147941482Y-73984913D01*
X147848407Y-73845618D01*
X147848404Y-73845614D01*
X146142165Y-72139375D01*
X146142161Y-72139372D01*
X146002869Y-72046299D01*
X146002856Y-72046292D01*
X145886463Y-71998082D01*
X145886461Y-71998081D01*
X145848086Y-71982185D01*
X145848074Y-71982182D01*
X145683771Y-71949500D01*
X145683767Y-71949500D01*
X145516233Y-71949500D01*
X145432069Y-71966241D01*
X145395088Y-71973597D01*
X145325496Y-71967369D01*
X145270319Y-71924505D01*
X145247607Y-71865231D01*
X145244091Y-71832517D01*
X145193796Y-71697669D01*
X145193795Y-71697668D01*
X145193793Y-71697664D01*
X145107547Y-71582455D01*
X145107544Y-71582452D01*
X144992335Y-71496206D01*
X144992328Y-71496202D01*
X144857482Y-71445908D01*
X144857483Y-71445908D01*
X144797883Y-71439501D01*
X144797881Y-71439500D01*
X144797873Y-71439500D01*
X144797864Y-71439500D01*
X142902129Y-71439500D01*
X142902123Y-71439501D01*
X142842516Y-71445908D01*
X142707671Y-71496202D01*
X142707664Y-71496206D01*
X142592455Y-71582452D01*
X142592452Y-71582455D01*
X142506206Y-71697664D01*
X142506202Y-71697671D01*
X142455908Y-71832517D01*
X142449501Y-71892116D01*
X142449500Y-71892135D01*
X142449500Y-73787870D01*
X142449501Y-73787876D01*
X142455908Y-73847483D01*
X142506202Y-73982328D01*
X142506206Y-73982335D01*
X142592452Y-74097544D01*
X142592455Y-74097547D01*
X142707664Y-74183793D01*
X142707671Y-74183797D01*
X142752618Y-74200561D01*
X142842517Y-74234091D01*
X142902127Y-74240500D01*
X143012693Y-74240499D01*
X143079730Y-74260183D01*
X143100372Y-74276818D01*
X143716508Y-74892954D01*
X143655077Y-74909415D01*
X143539922Y-74975899D01*
X143445899Y-75069922D01*
X143379415Y-75185077D01*
X143362954Y-75246508D01*
X142627340Y-74510894D01*
X142567084Y-74593830D01*
X142459897Y-74804197D01*
X142386934Y-75028752D01*
X142350000Y-75261947D01*
X142350000Y-75498052D01*
X142386934Y-75731247D01*
X142459897Y-75955802D01*
X142567087Y-76166174D01*
X142627338Y-76249104D01*
X142627340Y-76249105D01*
X143362954Y-75513491D01*
X143379415Y-75574923D01*
X143445899Y-75690078D01*
X143539922Y-75784101D01*
X143655077Y-75850585D01*
X143716508Y-75867045D01*
X142980893Y-76602658D01*
X142982448Y-76622405D01*
X142968084Y-76690783D01*
X142931717Y-76732451D01*
X142872490Y-76775482D01*
X142872489Y-76775484D01*
X142705485Y-76942487D01*
X142705485Y-76942488D01*
X142705483Y-76942490D01*
X142676148Y-76982866D01*
X142569615Y-77129495D01*
X142531856Y-77162395D01*
X142532202Y-77162912D01*
X142528176Y-77165601D01*
X142527770Y-77165956D01*
X142527150Y-77166287D01*
X142387837Y-77259372D01*
X141089373Y-78557836D01*
X141077601Y-78575455D01*
X141023988Y-78620259D01*
X140954662Y-78628965D01*
X140891636Y-78598809D01*
X140854918Y-78539365D01*
X140850500Y-78506562D01*
X140850500Y-66976232D01*
X140850499Y-66976228D01*
X140817817Y-66811924D01*
X140817816Y-66811918D01*
X140799037Y-66766584D01*
X140753704Y-66657137D01*
X140660627Y-66517838D01*
X140660624Y-66517834D01*
X137316819Y-63174029D01*
X137283334Y-63112706D01*
X137280500Y-63086348D01*
X137280500Y-61199995D01*
X137280499Y-61199982D01*
X137269999Y-61097203D01*
X137249863Y-61036437D01*
X137214814Y-60930665D01*
X137122712Y-60781344D01*
X136998656Y-60657288D01*
X136905890Y-60600070D01*
X136849337Y-60565187D01*
X136849332Y-60565185D01*
X136839473Y-60561918D01*
X136682798Y-60510001D01*
X136682796Y-60510000D01*
X136580017Y-60499500D01*
X136580010Y-60499500D01*
X134899990Y-60499500D01*
X134899982Y-60499500D01*
X134797203Y-60510000D01*
X134797202Y-60510001D01*
X134714669Y-60537349D01*
X134630667Y-60565185D01*
X134630662Y-60565187D01*
X134481342Y-60657289D01*
X134357289Y-60781342D01*
X134265187Y-60930662D01*
X134265185Y-60930667D01*
X134260071Y-60946100D01*
X134210001Y-61097202D01*
X134210001Y-61097203D01*
X134210000Y-61097203D01*
X134199500Y-61199982D01*
X134199500Y-64400017D01*
X134210000Y-64502796D01*
X134265185Y-64669332D01*
X134265186Y-64669335D01*
X134357288Y-64818656D01*
X134481344Y-64942712D01*
X134630665Y-65034814D01*
X134797202Y-65089999D01*
X134899990Y-65100500D01*
X134899995Y-65100500D01*
X136580005Y-65100500D01*
X136580010Y-65100500D01*
X136682798Y-65089999D01*
X136718663Y-65078113D01*
X136788490Y-65075711D01*
X136845349Y-65108138D01*
X139113181Y-67375970D01*
X139146666Y-67437293D01*
X139149500Y-67463651D01*
X139149500Y-80550904D01*
X139129815Y-80617943D01*
X139077011Y-80663698D01*
X139007853Y-80673642D01*
X138944297Y-80644617D01*
X138906523Y-80585839D01*
X138903027Y-80570302D01*
X138893026Y-80507164D01*
X138824932Y-80297589D01*
X138724888Y-80101243D01*
X138678566Y-80037485D01*
X138678565Y-80037485D01*
X137969637Y-80746413D01*
X137946833Y-80661306D01*
X137887590Y-80558694D01*
X137803806Y-80474910D01*
X137701194Y-80415667D01*
X137616083Y-80392861D01*
X138325013Y-79683932D01*
X138261256Y-79637611D01*
X138064910Y-79537567D01*
X137855335Y-79469473D01*
X137637681Y-79435000D01*
X137417319Y-79435000D01*
X137199664Y-79469473D01*
X136990089Y-79537567D01*
X136793733Y-79637616D01*
X136729985Y-79683931D01*
X136729985Y-79683932D01*
X137438914Y-80392861D01*
X137353806Y-80415667D01*
X137251194Y-80474910D01*
X137167410Y-80558694D01*
X137108167Y-80661306D01*
X137085361Y-80746414D01*
X136376432Y-80037485D01*
X136376431Y-80037485D01*
X136330116Y-80101233D01*
X136230067Y-80297589D01*
X136161973Y-80507164D01*
X136127500Y-80724818D01*
X136127500Y-80945181D01*
X136161973Y-81162835D01*
X136230067Y-81372410D01*
X136330111Y-81568756D01*
X136376432Y-81632513D01*
X137085361Y-80923584D01*
X137108167Y-81008694D01*
X137167410Y-81111306D01*
X137251194Y-81195090D01*
X137353806Y-81254333D01*
X137438914Y-81277137D01*
X136729985Y-81986065D01*
X136729985Y-81986066D01*
X136755180Y-82004371D01*
X136797846Y-82059701D01*
X136803825Y-82129314D01*
X136771220Y-82191110D01*
X136755181Y-82205008D01*
X136615136Y-82306756D01*
X136459259Y-82462633D01*
X136459257Y-82462636D01*
X136451446Y-82473387D01*
X136396115Y-82516052D01*
X136351129Y-82524500D01*
X135991228Y-82524500D01*
X135826925Y-82557181D01*
X135826916Y-82557184D01*
X135672143Y-82621292D01*
X135532831Y-82714379D01*
X135532830Y-82714380D01*
X134439375Y-83807834D01*
X134439372Y-83807838D01*
X134346299Y-83947130D01*
X134346292Y-83947143D01*
X134309643Y-84035625D01*
X134282185Y-84101913D01*
X134282182Y-84101925D01*
X134249500Y-84266228D01*
X134249500Y-97246348D01*
X134229815Y-97313387D01*
X134213181Y-97334029D01*
X131721362Y-99825847D01*
X131660039Y-99859332D01*
X131590347Y-99854348D01*
X131534414Y-99812476D01*
X131509997Y-99747012D01*
X131510279Y-99726000D01*
X131510498Y-99723775D01*
X131510500Y-99723767D01*
X131510500Y-64909419D01*
X131530185Y-64842380D01*
X131561614Y-64809101D01*
X131658827Y-64738473D01*
X131663565Y-64735031D01*
X131663565Y-64735030D01*
X131663569Y-64735028D01*
X131835028Y-64563569D01*
X131977554Y-64367398D01*
X132087638Y-64151347D01*
X132162568Y-63920735D01*
X132182110Y-63797347D01*
X132200500Y-63681245D01*
X132200500Y-61918754D01*
X132172862Y-61744260D01*
X132162568Y-61679265D01*
X132087638Y-61448653D01*
X131977554Y-61232602D01*
X131932220Y-61170205D01*
X131835033Y-61036437D01*
X131835029Y-61036432D01*
X131663567Y-60864970D01*
X131663562Y-60864966D01*
X131467401Y-60722448D01*
X131467400Y-60722447D01*
X131467398Y-60722446D01*
X131339519Y-60657288D01*
X131251344Y-60612360D01*
X131020736Y-60537432D01*
X130781245Y-60499500D01*
X130781240Y-60499500D01*
X130538760Y-60499500D01*
X130538755Y-60499500D01*
X130299263Y-60537432D01*
X130068655Y-60612360D01*
X129852598Y-60722448D01*
X129656437Y-60864966D01*
X129656432Y-60864970D01*
X129484970Y-61036432D01*
X129484966Y-61036437D01*
X129342448Y-61232598D01*
X129232360Y-61448655D01*
X129157432Y-61679263D01*
X129119500Y-61918754D01*
X129119500Y-63681245D01*
X129157432Y-63920736D01*
X129232360Y-64151344D01*
X129342448Y-64367401D01*
X129484966Y-64563562D01*
X129484970Y-64563567D01*
X129656434Y-64735031D01*
X129704189Y-64769726D01*
X129758384Y-64809100D01*
X129801051Y-64864429D01*
X129809500Y-64909419D01*
X129809500Y-99236349D01*
X129789815Y-99303388D01*
X129773181Y-99324030D01*
X113589030Y-115508181D01*
X113527707Y-115541666D01*
X113501349Y-115544500D01*
X113303871Y-115544500D01*
X113236832Y-115524815D01*
X113203554Y-115493387D01*
X113195746Y-115482641D01*
X113195742Y-115482635D01*
X113039865Y-115326758D01*
X113039863Y-115326756D01*
X113039858Y-115326752D01*
X112899819Y-115225008D01*
X112857153Y-115169678D01*
X112851174Y-115100065D01*
X112883779Y-115038270D01*
X112899819Y-115024372D01*
X112925013Y-115006066D01*
X112925014Y-115006066D01*
X112216085Y-114297138D01*
X112301194Y-114274333D01*
X112403806Y-114215090D01*
X112487590Y-114131306D01*
X112546833Y-114028694D01*
X112569637Y-113943585D01*
X113278566Y-114652514D01*
X113278566Y-114652513D01*
X113324886Y-114588760D01*
X113424932Y-114392410D01*
X113493026Y-114182835D01*
X113527500Y-113965181D01*
X113527500Y-113744818D01*
X113493026Y-113527164D01*
X113424932Y-113317589D01*
X113324888Y-113121243D01*
X113278566Y-113057485D01*
X113278565Y-113057485D01*
X112569637Y-113766413D01*
X112546833Y-113681306D01*
X112487590Y-113578694D01*
X112403806Y-113494910D01*
X112301194Y-113435667D01*
X112216083Y-113412861D01*
X112925013Y-112703932D01*
X112899819Y-112685628D01*
X112857153Y-112630298D01*
X112851174Y-112560685D01*
X112883779Y-112498889D01*
X112899813Y-112484994D01*
X113039865Y-112383242D01*
X113195742Y-112227365D01*
X113325315Y-112049022D01*
X113425395Y-111852606D01*
X113493515Y-111642951D01*
X113528000Y-111425222D01*
X113528000Y-111204778D01*
X113493515Y-110987049D01*
X113459455Y-110882221D01*
X113425396Y-110777396D01*
X113425395Y-110777393D01*
X113370997Y-110670634D01*
X113325315Y-110580978D01*
X113265083Y-110498075D01*
X113195747Y-110402641D01*
X113195743Y-110402636D01*
X113039863Y-110246756D01*
X113039858Y-110246752D01*
X112900245Y-110145318D01*
X112857579Y-110089989D01*
X112851600Y-110020375D01*
X112884205Y-109958580D01*
X112900245Y-109944682D01*
X113039858Y-109843247D01*
X113039856Y-109843247D01*
X113039865Y-109843242D01*
X113195742Y-109687365D01*
X113203554Y-109676613D01*
X113258885Y-109633948D01*
X113303871Y-109625500D01*
X118808768Y-109625500D01*
X118808769Y-109625499D01*
X118863538Y-109614605D01*
X118973074Y-109592818D01*
X118973078Y-109592816D01*
X118973082Y-109592816D01*
X119018415Y-109574037D01*
X119127863Y-109528704D01*
X119267162Y-109435627D01*
X129110627Y-99592162D01*
X129203704Y-99452863D01*
X129249035Y-99343418D01*
X129249037Y-99343417D01*
X129267133Y-99299730D01*
X129267816Y-99298082D01*
X129280096Y-99236349D01*
X129300499Y-99133771D01*
X129300500Y-99133768D01*
X129300500Y-79366232D01*
X129300499Y-79366228D01*
X129276643Y-79246296D01*
X129267816Y-79201918D01*
X129244639Y-79145965D01*
X129203704Y-79047137D01*
X129203701Y-79047132D01*
X129203700Y-79047130D01*
X129110627Y-78907838D01*
X129110624Y-78907834D01*
X126466819Y-76264029D01*
X126433334Y-76202706D01*
X126430500Y-76176348D01*
X126430500Y-64909419D01*
X126450185Y-64842380D01*
X126481614Y-64809101D01*
X126578827Y-64738473D01*
X126583565Y-64735031D01*
X126583565Y-64735030D01*
X126583569Y-64735028D01*
X126755028Y-64563569D01*
X126897554Y-64367398D01*
X127007638Y-64151347D01*
X127082568Y-63920735D01*
X127102110Y-63797347D01*
X127120500Y-63681245D01*
X127120500Y-61918754D01*
X127092862Y-61744260D01*
X127082568Y-61679265D01*
X127007638Y-61448653D01*
X126897554Y-61232602D01*
X126852220Y-61170205D01*
X126755033Y-61036437D01*
X126755029Y-61036432D01*
X126583567Y-60864970D01*
X126583562Y-60864966D01*
X126387401Y-60722448D01*
X126387400Y-60722447D01*
X126387398Y-60722446D01*
X126259519Y-60657288D01*
X126171344Y-60612360D01*
X125940736Y-60537432D01*
X125701245Y-60499500D01*
X125701240Y-60499500D01*
X125458760Y-60499500D01*
X125458755Y-60499500D01*
X125219263Y-60537432D01*
X124988655Y-60612360D01*
X124772598Y-60722448D01*
X124576437Y-60864966D01*
X124576432Y-60864970D01*
X124404970Y-61036432D01*
X124404966Y-61036437D01*
X124262448Y-61232598D01*
X124152360Y-61448655D01*
X124077432Y-61679263D01*
X124039500Y-61918754D01*
X124039500Y-63681245D01*
X124077432Y-63920736D01*
X124152360Y-64151344D01*
X124262448Y-64367401D01*
X124404966Y-64563562D01*
X124404970Y-64563567D01*
X124576434Y-64735031D01*
X124624189Y-64769726D01*
X124678384Y-64809100D01*
X124721051Y-64864429D01*
X124729500Y-64909419D01*
X124729500Y-76663771D01*
X124751721Y-76775484D01*
X124762181Y-76828074D01*
X124762184Y-76828083D01*
X124826296Y-76982863D01*
X124826297Y-76982866D01*
X124919372Y-77122161D01*
X124919375Y-77122165D01*
X127563181Y-79765970D01*
X127596666Y-79827293D01*
X127599500Y-79853651D01*
X127599500Y-79906565D01*
X127579815Y-79973604D01*
X127527011Y-80019359D01*
X127457853Y-80029303D01*
X127394297Y-80000278D01*
X127372399Y-79975458D01*
X127372397Y-79975455D01*
X127360626Y-79957838D01*
X127360621Y-79957833D01*
X127360620Y-79957831D01*
X121386819Y-73984030D01*
X121353334Y-73922707D01*
X121350500Y-73896349D01*
X121350500Y-64909419D01*
X121370185Y-64842380D01*
X121401614Y-64809101D01*
X121498827Y-64738473D01*
X121503565Y-64735031D01*
X121503565Y-64735030D01*
X121503569Y-64735028D01*
X121675028Y-64563569D01*
X121817554Y-64367398D01*
X121927638Y-64151347D01*
X122002568Y-63920735D01*
X122022110Y-63797347D01*
X122040500Y-63681245D01*
X122040500Y-61918754D01*
X122012862Y-61744260D01*
X122002568Y-61679265D01*
X121927638Y-61448653D01*
X121817554Y-61232602D01*
X121772220Y-61170205D01*
X121675033Y-61036437D01*
X121675029Y-61036432D01*
X121503571Y-60864974D01*
X121503565Y-60864969D01*
X121401615Y-60790898D01*
X121358949Y-60735568D01*
X121350500Y-60690580D01*
X121350500Y-60566232D01*
X121350499Y-60566228D01*
X121317817Y-60401925D01*
X121317816Y-60401918D01*
X121253703Y-60247137D01*
X121241391Y-60228711D01*
X142799500Y-60228711D01*
X142799500Y-60471288D01*
X142828369Y-60690580D01*
X142831162Y-60711789D01*
X142846603Y-60769415D01*
X142893947Y-60946104D01*
X142986773Y-61170205D01*
X142986776Y-61170212D01*
X143108064Y-61380289D01*
X143108066Y-61380292D01*
X143108067Y-61380293D01*
X143255733Y-61572736D01*
X143255739Y-61572743D01*
X143427256Y-61744260D01*
X143427262Y-61744265D01*
X143619711Y-61891936D01*
X143829788Y-62013224D01*
X144053900Y-62106054D01*
X144288211Y-62168838D01*
X144468586Y-62192584D01*
X144528711Y-62200500D01*
X144528712Y-62200500D01*
X144771289Y-62200500D01*
X144819388Y-62194167D01*
X145011789Y-62168838D01*
X145246100Y-62106054D01*
X145470212Y-62013224D01*
X145680289Y-61891936D01*
X145872738Y-61744265D01*
X146044265Y-61572738D01*
X146191936Y-61380289D01*
X146313224Y-61170212D01*
X146406054Y-60946100D01*
X146468838Y-60711789D01*
X146500500Y-60471288D01*
X146500500Y-60228712D01*
X146468838Y-59988211D01*
X146406054Y-59753900D01*
X146313224Y-59529788D01*
X146191936Y-59319711D01*
X146044265Y-59127262D01*
X146044260Y-59127256D01*
X145872743Y-58955739D01*
X145872736Y-58955733D01*
X145680293Y-58808067D01*
X145680292Y-58808066D01*
X145680289Y-58808064D01*
X145470212Y-58686776D01*
X145470205Y-58686773D01*
X145246104Y-58593947D01*
X145011785Y-58531161D01*
X144771289Y-58499500D01*
X144771288Y-58499500D01*
X144528712Y-58499500D01*
X144528711Y-58499500D01*
X144288214Y-58531161D01*
X144053895Y-58593947D01*
X143829794Y-58686773D01*
X143829785Y-58686777D01*
X143619706Y-58808067D01*
X143427263Y-58955733D01*
X143427256Y-58955739D01*
X143255739Y-59127256D01*
X143255733Y-59127263D01*
X143108067Y-59319706D01*
X142986777Y-59529785D01*
X142986773Y-59529794D01*
X142893947Y-59753895D01*
X142831161Y-59988214D01*
X142799500Y-60228711D01*
X121241391Y-60228711D01*
X121160626Y-60107838D01*
X121042162Y-59989374D01*
X120806683Y-59753895D01*
X119542165Y-58489375D01*
X119542161Y-58489372D01*
X119402866Y-58396297D01*
X119402863Y-58396296D01*
X119293416Y-58350962D01*
X119293414Y-58350961D01*
X119248086Y-58332185D01*
X119248074Y-58332182D01*
X119083771Y-58299500D01*
X119083767Y-58299500D01*
X111916233Y-58299500D01*
X111916228Y-58299500D01*
X111751925Y-58332182D01*
X111751913Y-58332185D01*
X111687805Y-58358739D01*
X111687806Y-58358740D01*
X111597140Y-58396294D01*
X111597131Y-58396299D01*
X111457838Y-58489372D01*
X111457834Y-58489375D01*
X109679375Y-60267834D01*
X109679372Y-60267838D01*
X109586297Y-60407133D01*
X109586296Y-60407136D01*
X109546984Y-60502044D01*
X109546982Y-60502049D01*
X109543689Y-60510001D01*
X109522184Y-60561918D01*
X109491874Y-60714295D01*
X109490969Y-60717783D01*
X109474782Y-60744809D01*
X109460181Y-60772723D01*
X109455763Y-60776564D01*
X109455069Y-60777724D01*
X109453584Y-60778459D01*
X109443835Y-60786938D01*
X109336429Y-60864973D01*
X109164970Y-61036432D01*
X109164966Y-61036437D01*
X109022448Y-61232598D01*
X108912360Y-61448655D01*
X108837432Y-61679263D01*
X108799500Y-61918754D01*
X108799500Y-63681245D01*
X108837432Y-63920736D01*
X108912360Y-64151344D01*
X109022448Y-64367401D01*
X109164966Y-64563562D01*
X109164970Y-64563567D01*
X109336432Y-64735029D01*
X109336437Y-64735033D01*
X109484189Y-64842380D01*
X109532602Y-64877554D01*
X109743637Y-64985082D01*
X109748655Y-64987639D01*
X109839331Y-65017101D01*
X109979265Y-65062568D01*
X110086808Y-65079601D01*
X110218755Y-65100500D01*
X110218760Y-65100500D01*
X110461245Y-65100500D01*
X110577347Y-65082110D01*
X110700735Y-65062568D01*
X110931347Y-64987638D01*
X111147398Y-64877554D01*
X111343569Y-64735028D01*
X111515028Y-64563569D01*
X111657554Y-64367398D01*
X111767638Y-64151347D01*
X111842568Y-63920735D01*
X111862110Y-63797347D01*
X111880500Y-63681245D01*
X111880500Y-61918754D01*
X111852862Y-61744260D01*
X111842568Y-61679265D01*
X111767638Y-61448653D01*
X111657554Y-61232602D01*
X111612220Y-61170205D01*
X111515033Y-61036437D01*
X111515029Y-61036432D01*
X111503374Y-61024777D01*
X111469889Y-60963454D01*
X111474873Y-60893762D01*
X111503374Y-60849415D01*
X112315970Y-60036819D01*
X112377293Y-60003334D01*
X112403651Y-60000500D01*
X118596349Y-60000500D01*
X118663388Y-60020185D01*
X118684030Y-60036819D01*
X119416626Y-60769415D01*
X119450111Y-60830738D01*
X119445127Y-60900430D01*
X119416626Y-60944777D01*
X119324970Y-61036432D01*
X119324966Y-61036437D01*
X119182448Y-61232598D01*
X119072360Y-61448655D01*
X118997432Y-61679263D01*
X118959500Y-61918754D01*
X118959500Y-63681245D01*
X118997432Y-63920736D01*
X119072360Y-64151344D01*
X119182448Y-64367401D01*
X119324966Y-64563562D01*
X119324970Y-64563567D01*
X119496434Y-64735031D01*
X119544189Y-64769726D01*
X119598384Y-64809100D01*
X119641051Y-64864429D01*
X119649500Y-64909419D01*
X119649500Y-74383771D01*
X119671883Y-74496297D01*
X119682181Y-74548074D01*
X119682184Y-74548083D01*
X119746296Y-74702863D01*
X119746297Y-74702866D01*
X119839372Y-74842161D01*
X119839375Y-74842165D01*
X125813181Y-80815969D01*
X125846666Y-80877292D01*
X125849500Y-80903650D01*
X125849500Y-97596349D01*
X125829815Y-97663388D01*
X125813185Y-97684025D01*
X125735545Y-97761666D01*
X125661362Y-97835849D01*
X125600039Y-97869333D01*
X125530347Y-97864349D01*
X125474414Y-97822477D01*
X125449997Y-97757013D01*
X125450279Y-97736002D01*
X125450498Y-97733773D01*
X125450500Y-97733767D01*
X125450500Y-81466233D01*
X125417816Y-81301918D01*
X125417014Y-81299983D01*
X125396310Y-81250000D01*
X125391259Y-81237806D01*
X125353704Y-81147138D01*
X125349255Y-81140480D01*
X125260630Y-81007842D01*
X125260624Y-81007834D01*
X116306819Y-72054029D01*
X116273334Y-71992706D01*
X116270500Y-71966348D01*
X116270500Y-64909419D01*
X116290185Y-64842380D01*
X116321614Y-64809101D01*
X116418827Y-64738473D01*
X116423565Y-64735031D01*
X116423565Y-64735030D01*
X116423569Y-64735028D01*
X116595028Y-64563569D01*
X116737554Y-64367398D01*
X116847638Y-64151347D01*
X116922568Y-63920735D01*
X116942110Y-63797347D01*
X116960500Y-63681245D01*
X116960500Y-61918754D01*
X116932862Y-61744260D01*
X116922568Y-61679265D01*
X116847638Y-61448653D01*
X116737554Y-61232602D01*
X116692220Y-61170205D01*
X116595033Y-61036437D01*
X116595029Y-61036432D01*
X116423567Y-60864970D01*
X116423562Y-60864966D01*
X116227401Y-60722448D01*
X116227400Y-60722447D01*
X116227398Y-60722446D01*
X116099519Y-60657288D01*
X116011344Y-60612360D01*
X115780736Y-60537432D01*
X115541245Y-60499500D01*
X115541240Y-60499500D01*
X115298760Y-60499500D01*
X115298755Y-60499500D01*
X115059263Y-60537432D01*
X114828655Y-60612360D01*
X114612598Y-60722448D01*
X114416437Y-60864966D01*
X114416432Y-60864970D01*
X114244970Y-61036432D01*
X114244966Y-61036437D01*
X114102448Y-61232598D01*
X113992360Y-61448655D01*
X113917432Y-61679263D01*
X113879500Y-61918754D01*
X113879500Y-63681245D01*
X113917432Y-63920736D01*
X113992360Y-64151344D01*
X114102448Y-64367401D01*
X114244966Y-64563562D01*
X114244970Y-64563567D01*
X114416434Y-64735031D01*
X114464189Y-64769726D01*
X114518384Y-64809100D01*
X114561051Y-64864429D01*
X114569500Y-64909419D01*
X114569500Y-72453771D01*
X114602182Y-72618074D01*
X114602184Y-72618082D01*
X114615198Y-72649500D01*
X114615198Y-72649501D01*
X114666296Y-72772863D01*
X114666297Y-72772866D01*
X114759372Y-72912161D01*
X114759375Y-72912165D01*
X123713181Y-81865970D01*
X123746666Y-81927293D01*
X123749500Y-81953651D01*
X123749500Y-97246349D01*
X123740855Y-97275789D01*
X123734332Y-97305776D01*
X123730577Y-97310791D01*
X123729815Y-97313388D01*
X123713182Y-97334029D01*
X123562181Y-97485030D01*
X123500858Y-97518515D01*
X123431166Y-97513531D01*
X123375233Y-97471659D01*
X123350816Y-97406195D01*
X123350500Y-97397349D01*
X123350500Y-82516232D01*
X123350499Y-82516228D01*
X123324239Y-82384209D01*
X123317816Y-82351918D01*
X123269594Y-82235500D01*
X123266939Y-82229091D01*
X123253702Y-82197133D01*
X123160627Y-82057838D01*
X123160624Y-82057834D01*
X106146819Y-65044029D01*
X106132115Y-65017101D01*
X106115523Y-64991283D01*
X106114631Y-64985082D01*
X106113334Y-64982706D01*
X106110500Y-64956348D01*
X106110500Y-64909419D01*
X106130185Y-64842380D01*
X106161614Y-64809101D01*
X106258827Y-64738473D01*
X106263565Y-64735031D01*
X106263565Y-64735030D01*
X106263569Y-64735028D01*
X106435028Y-64563569D01*
X106577554Y-64367398D01*
X106687638Y-64151347D01*
X106762568Y-63920735D01*
X106782110Y-63797347D01*
X106800500Y-63681245D01*
X106800500Y-61918754D01*
X106772862Y-61744260D01*
X106762568Y-61679265D01*
X106687638Y-61448653D01*
X106577554Y-61232602D01*
X106532220Y-61170205D01*
X106435033Y-61036437D01*
X106435029Y-61036432D01*
X106263567Y-60864970D01*
X106263562Y-60864966D01*
X106067401Y-60722448D01*
X106067400Y-60722447D01*
X106067398Y-60722446D01*
X105939519Y-60657288D01*
X105851344Y-60612360D01*
X105620736Y-60537432D01*
X105381245Y-60499500D01*
X105381240Y-60499500D01*
X105138760Y-60499500D01*
X105138755Y-60499500D01*
X104899263Y-60537432D01*
X104668655Y-60612360D01*
X104452598Y-60722448D01*
X104256437Y-60864966D01*
X104256432Y-60864970D01*
X104084970Y-61036432D01*
X104084966Y-61036437D01*
X103942448Y-61232598D01*
X103832360Y-61448655D01*
X103757432Y-61679263D01*
X103719500Y-61918754D01*
X103719500Y-63681245D01*
X103757432Y-63920736D01*
X103832360Y-64151344D01*
X103942448Y-64367401D01*
X104084966Y-64563562D01*
X104084970Y-64563567D01*
X104256434Y-64735031D01*
X104304189Y-64769726D01*
X104358384Y-64809100D01*
X104401051Y-64864429D01*
X104409500Y-64909419D01*
X104409500Y-65443770D01*
X104416974Y-65481344D01*
X104442181Y-65608073D01*
X104442184Y-65608082D01*
X104506296Y-65762863D01*
X104506297Y-65762866D01*
X104599372Y-65902161D01*
X104599375Y-65902165D01*
X121613181Y-82915970D01*
X121646666Y-82977293D01*
X121649500Y-83003651D01*
X121649500Y-84106562D01*
X121629815Y-84173601D01*
X121577011Y-84219356D01*
X121507853Y-84229300D01*
X121444297Y-84200275D01*
X121422399Y-84175455D01*
X121410626Y-84157836D01*
X121410624Y-84157834D01*
X101602651Y-64349862D01*
X101569166Y-64288539D01*
X101574150Y-64218847D01*
X101579838Y-64205904D01*
X101607638Y-64151347D01*
X101682568Y-63920735D01*
X101703735Y-63787084D01*
X101720500Y-63681245D01*
X101720500Y-61918754D01*
X101692862Y-61744260D01*
X101682568Y-61679265D01*
X101607638Y-61448653D01*
X101497554Y-61232602D01*
X101452220Y-61170205D01*
X101355033Y-61036437D01*
X101355029Y-61036432D01*
X101183567Y-60864970D01*
X101183562Y-60864966D01*
X100987401Y-60722448D01*
X100987400Y-60722447D01*
X100987398Y-60722446D01*
X100859519Y-60657288D01*
X100771344Y-60612360D01*
X100540736Y-60537432D01*
X100301245Y-60499500D01*
X100301240Y-60499500D01*
X100058760Y-60499500D01*
X100058755Y-60499500D01*
X99819263Y-60537432D01*
X99588655Y-60612360D01*
X99372598Y-60722448D01*
X99176437Y-60864966D01*
X99176432Y-60864970D01*
X99004970Y-61036432D01*
X99004966Y-61036437D01*
X98862448Y-61232598D01*
X98752360Y-61448655D01*
X98677432Y-61679263D01*
X98639500Y-61918754D01*
X98639500Y-63681245D01*
X98677432Y-63920736D01*
X98752360Y-64151344D01*
X98862448Y-64367401D01*
X99004966Y-64563562D01*
X99004970Y-64563567D01*
X99176432Y-64735029D01*
X99176437Y-64735033D01*
X99324189Y-64842380D01*
X99372602Y-64877554D01*
X99583637Y-64985082D01*
X99588655Y-64987639D01*
X99819258Y-65062566D01*
X99819259Y-65062566D01*
X99819265Y-65062568D01*
X99887019Y-65073298D01*
X99950151Y-65103226D01*
X99955301Y-65108090D01*
X114620848Y-79773637D01*
X114654333Y-79834960D01*
X114649349Y-79904652D01*
X114607477Y-79960585D01*
X114542013Y-79985002D01*
X114521017Y-79984721D01*
X114518772Y-79984500D01*
X114518767Y-79984500D01*
X113649851Y-79984500D01*
X113582812Y-79964815D01*
X113537057Y-79912011D01*
X113526561Y-79873752D01*
X113525550Y-79864351D01*
X113521591Y-79827517D01*
X113521507Y-79827293D01*
X113471297Y-79692671D01*
X113471293Y-79692664D01*
X113385047Y-79577455D01*
X113385044Y-79577452D01*
X113269835Y-79491206D01*
X113269828Y-79491202D01*
X113134982Y-79440908D01*
X113134983Y-79440908D01*
X113075383Y-79434501D01*
X113075381Y-79434500D01*
X113075373Y-79434500D01*
X113075364Y-79434500D01*
X111179629Y-79434500D01*
X111179623Y-79434501D01*
X111120016Y-79440908D01*
X110985171Y-79491202D01*
X110985164Y-79491206D01*
X110869955Y-79577452D01*
X110869952Y-79577455D01*
X110783706Y-79692664D01*
X110783702Y-79692671D01*
X110733409Y-79827516D01*
X110731689Y-79843509D01*
X110704948Y-79908059D01*
X110647554Y-79947905D01*
X110577729Y-79950396D01*
X110520719Y-79917930D01*
X109942165Y-79339375D01*
X109942161Y-79339372D01*
X109801090Y-79245111D01*
X109764442Y-79207106D01*
X109717712Y-79131344D01*
X109593656Y-79007288D01*
X109444334Y-78915186D01*
X109277797Y-78860001D01*
X109277795Y-78860000D01*
X109175016Y-78849500D01*
X109175009Y-78849500D01*
X108603650Y-78849500D01*
X108536611Y-78829815D01*
X108515969Y-78813181D01*
X108310084Y-78607295D01*
X108276599Y-78545972D01*
X108276159Y-78543864D01*
X108267816Y-78501918D01*
X108203703Y-78347137D01*
X108152021Y-78269789D01*
X108110626Y-78207837D01*
X107992162Y-78089373D01*
X107852860Y-77996295D01*
X107698082Y-77932184D01*
X107656194Y-77923852D01*
X107594284Y-77891468D01*
X107592705Y-77889916D01*
X106392165Y-76689375D01*
X106392161Y-76689372D01*
X106252866Y-76596297D01*
X106252863Y-76596296D01*
X106143416Y-76550962D01*
X106143414Y-76550961D01*
X106098086Y-76532185D01*
X106098074Y-76532182D01*
X105933771Y-76499500D01*
X105933767Y-76499500D01*
X81802650Y-76499500D01*
X81781404Y-76493261D01*
X81759316Y-76491682D01*
X81748532Y-76483609D01*
X81735611Y-76479815D01*
X81721111Y-76463081D01*
X81703383Y-76449810D01*
X81698675Y-76437189D01*
X81689856Y-76427011D01*
X81686704Y-76405093D01*
X81678966Y-76384346D01*
X81681828Y-76371185D01*
X81679912Y-76357853D01*
X81689111Y-76337709D01*
X81693818Y-76316073D01*
X81707086Y-76298347D01*
X81708937Y-76294297D01*
X81714969Y-76287819D01*
X81865969Y-76136819D01*
X81927292Y-76103334D01*
X81953650Y-76100500D01*
X103683768Y-76100500D01*
X103683769Y-76100499D01*
X103848082Y-76067816D01*
X103920455Y-76037838D01*
X104002863Y-76003704D01*
X104142162Y-75910627D01*
X104835627Y-75217162D01*
X104928704Y-75077863D01*
X104992816Y-74923081D01*
X105003211Y-74870822D01*
X105019161Y-74790641D01*
X105021543Y-74778660D01*
X105025500Y-74758767D01*
X105025500Y-73560638D01*
X105045185Y-73493599D01*
X105084401Y-73455100D01*
X105193656Y-73387712D01*
X105317712Y-73263656D01*
X105409814Y-73114334D01*
X105464999Y-72947797D01*
X105475500Y-72845009D01*
X105475499Y-71444992D01*
X105472024Y-71410978D01*
X105464999Y-71342203D01*
X105464998Y-71342200D01*
X105444837Y-71281359D01*
X105409814Y-71175666D01*
X105317712Y-71026344D01*
X105193656Y-70902288D01*
X105100888Y-70845069D01*
X105044336Y-70810187D01*
X105044331Y-70810185D01*
X105019383Y-70801918D01*
X104877797Y-70755001D01*
X104877795Y-70755000D01*
X104775010Y-70744500D01*
X103574998Y-70744500D01*
X103574981Y-70744501D01*
X103472203Y-70755000D01*
X103472200Y-70755001D01*
X103305668Y-70810185D01*
X103305663Y-70810187D01*
X103156342Y-70902289D01*
X103032289Y-71026342D01*
X102940187Y-71175663D01*
X102940185Y-71175668D01*
X102929006Y-71209406D01*
X102889233Y-71266851D01*
X102824717Y-71293674D01*
X102755941Y-71281359D01*
X102710981Y-71243287D01*
X102708592Y-71239999D01*
X102703242Y-71232635D01*
X102547365Y-71076758D01*
X102547363Y-71076756D01*
X102547358Y-71076752D01*
X102369025Y-70947187D01*
X102369024Y-70947186D01*
X102369022Y-70947185D01*
X102280902Y-70902285D01*
X102172606Y-70847104D01*
X102172603Y-70847103D01*
X101962952Y-70778985D01*
X101854086Y-70761742D01*
X101745222Y-70744500D01*
X101524778Y-70744500D01*
X101524771Y-70744500D01*
X101511647Y-70746578D01*
X101442354Y-70737620D01*
X101404574Y-70711785D01*
X99482165Y-68789375D01*
X99482161Y-68789372D01*
X99342866Y-68696297D01*
X99342863Y-68696296D01*
X99233416Y-68650962D01*
X99233414Y-68650961D01*
X99188086Y-68632185D01*
X99188074Y-68632182D01*
X99023771Y-68599500D01*
X99023767Y-68599500D01*
X96487231Y-68599500D01*
X96420192Y-68579815D01*
X96399550Y-68563182D01*
X96293656Y-68457288D01*
X96144334Y-68365186D01*
X95977797Y-68310001D01*
X95977795Y-68310000D01*
X95875010Y-68299500D01*
X94524998Y-68299500D01*
X94524981Y-68299501D01*
X94422203Y-68310000D01*
X94422200Y-68310001D01*
X94255668Y-68365185D01*
X94255663Y-68365187D01*
X94106342Y-68457289D01*
X93982289Y-68581342D01*
X93890187Y-68730663D01*
X93890186Y-68730666D01*
X93835001Y-68897203D01*
X93835001Y-68897204D01*
X93835000Y-68897204D01*
X93824500Y-68999983D01*
X93824500Y-69572348D01*
X93804815Y-69639387D01*
X93752011Y-69685142D01*
X93682853Y-69695086D01*
X93619297Y-69666061D01*
X93612819Y-69660029D01*
X92742165Y-68789375D01*
X92742161Y-68789372D01*
X92602866Y-68696297D01*
X92602863Y-68696296D01*
X92493416Y-68650962D01*
X92493414Y-68650961D01*
X92448086Y-68632185D01*
X92448074Y-68632182D01*
X92283771Y-68599500D01*
X92283767Y-68599500D01*
X91237231Y-68599500D01*
X91170192Y-68579815D01*
X91149550Y-68563182D01*
X91043656Y-68457288D01*
X90894334Y-68365186D01*
X90727797Y-68310001D01*
X90727795Y-68310000D01*
X90625010Y-68299500D01*
X89274998Y-68299500D01*
X89274981Y-68299501D01*
X89172203Y-68310000D01*
X89172200Y-68310001D01*
X89005668Y-68365185D01*
X89005663Y-68365187D01*
X88856342Y-68457289D01*
X88732289Y-68581342D01*
X88640187Y-68730663D01*
X88640186Y-68730666D01*
X88585001Y-68897203D01*
X88585001Y-68897204D01*
X88585000Y-68897204D01*
X88574500Y-68999983D01*
X88574500Y-69900001D01*
X88574501Y-69900019D01*
X88585000Y-70002796D01*
X88585001Y-70002799D01*
X88640185Y-70169331D01*
X88640189Y-70169340D01*
X88691799Y-70253013D01*
X88710239Y-70320405D01*
X88689316Y-70387069D01*
X88635674Y-70431838D01*
X88566343Y-70440499D01*
X88503336Y-70410302D01*
X88498579Y-70405790D01*
X86882165Y-68789375D01*
X86882161Y-68789372D01*
X86742866Y-68696297D01*
X86742863Y-68696296D01*
X86633416Y-68650962D01*
X86633414Y-68650961D01*
X86588086Y-68632185D01*
X86588074Y-68632182D01*
X86423771Y-68599500D01*
X86423767Y-68599500D01*
X86337231Y-68599500D01*
X86270192Y-68579815D01*
X86249550Y-68563182D01*
X86143656Y-68457288D01*
X85994334Y-68365186D01*
X85827797Y-68310001D01*
X85827795Y-68310000D01*
X85725010Y-68299500D01*
X84374998Y-68299500D01*
X84374981Y-68299501D01*
X84272203Y-68310000D01*
X84272200Y-68310001D01*
X84105668Y-68365185D01*
X84105663Y-68365187D01*
X83956342Y-68457289D01*
X83832289Y-68581342D01*
X83740187Y-68730663D01*
X83740186Y-68730666D01*
X83685001Y-68897203D01*
X83685001Y-68897204D01*
X83685000Y-68897204D01*
X83674500Y-68999983D01*
X83674500Y-69900001D01*
X83674501Y-69900019D01*
X83685000Y-70002796D01*
X83685001Y-70002799D01*
X83740185Y-70169331D01*
X83740187Y-70169336D01*
X83754266Y-70192161D01*
X83832288Y-70318656D01*
X83956344Y-70442712D01*
X84105666Y-70534814D01*
X84272203Y-70589999D01*
X84329552Y-70595857D01*
X84394242Y-70622252D01*
X84434394Y-70679432D01*
X84437258Y-70749243D01*
X84401925Y-70809520D01*
X84382046Y-70824753D01*
X84256347Y-70902285D01*
X84256343Y-70902288D01*
X84132289Y-71026342D01*
X84040187Y-71175663D01*
X84040185Y-71175668D01*
X84029006Y-71209406D01*
X83989233Y-71266851D01*
X83924717Y-71293674D01*
X83855941Y-71281359D01*
X83810981Y-71243287D01*
X83808592Y-71239999D01*
X83803242Y-71232635D01*
X83647365Y-71076758D01*
X83647363Y-71076756D01*
X83647358Y-71076752D01*
X83469025Y-70947187D01*
X83469024Y-70947186D01*
X83469022Y-70947185D01*
X83380902Y-70902285D01*
X83272606Y-70847104D01*
X83272603Y-70847103D01*
X83062952Y-70778985D01*
X82954086Y-70761742D01*
X82845222Y-70744500D01*
X82624778Y-70744500D01*
X82624771Y-70744500D01*
X82611647Y-70746578D01*
X82542354Y-70737620D01*
X82504574Y-70711785D01*
X81211818Y-69419029D01*
X81178333Y-69357706D01*
X81175499Y-69331348D01*
X81175499Y-68999998D01*
X81175498Y-68999981D01*
X81164999Y-68897203D01*
X81164998Y-68897200D01*
X81143453Y-68832182D01*
X81109814Y-68730666D01*
X81017712Y-68581344D01*
X80893656Y-68457288D01*
X80744334Y-68365186D01*
X80577797Y-68310001D01*
X80577795Y-68310000D01*
X80475010Y-68299500D01*
X79124998Y-68299500D01*
X79124981Y-68299501D01*
X79022203Y-68310000D01*
X79022200Y-68310001D01*
X78855668Y-68365185D01*
X78855663Y-68365187D01*
X78706342Y-68457289D01*
X78582289Y-68581342D01*
X78490187Y-68730663D01*
X78490186Y-68730666D01*
X78435001Y-68897203D01*
X78435001Y-68897204D01*
X78435000Y-68897204D01*
X78424500Y-68999983D01*
X78424500Y-69900001D01*
X78424501Y-69900019D01*
X78435000Y-70002796D01*
X78435001Y-70002799D01*
X78490185Y-70169331D01*
X78490187Y-70169336D01*
X78504266Y-70192161D01*
X78582288Y-70318656D01*
X78706344Y-70442712D01*
X78855666Y-70534814D01*
X79022203Y-70589999D01*
X79124991Y-70600500D01*
X79936348Y-70600499D01*
X80003387Y-70620183D01*
X80024029Y-70636818D01*
X81301785Y-71914574D01*
X81335270Y-71975897D01*
X81336578Y-72021647D01*
X81334500Y-72034771D01*
X81334500Y-72255221D01*
X81368985Y-72472952D01*
X81437103Y-72682603D01*
X81437104Y-72682606D01*
X81483095Y-72772866D01*
X81519854Y-72845009D01*
X81537187Y-72879025D01*
X81666752Y-73057358D01*
X81666756Y-73057363D01*
X81822636Y-73213243D01*
X81822641Y-73213247D01*
X81939036Y-73297812D01*
X82000978Y-73342815D01*
X82129375Y-73408237D01*
X82197393Y-73442895D01*
X82197396Y-73442896D01*
X82258305Y-73462686D01*
X82407049Y-73511015D01*
X82624778Y-73545500D01*
X82624779Y-73545500D01*
X82845221Y-73545500D01*
X82845222Y-73545500D01*
X83062951Y-73511015D01*
X83272606Y-73442895D01*
X83469022Y-73342815D01*
X83647365Y-73213242D01*
X83803242Y-73057365D01*
X83810978Y-73046717D01*
X83866305Y-73004049D01*
X83935918Y-72998066D01*
X83997715Y-73030669D01*
X84029004Y-73080591D01*
X84033253Y-73093412D01*
X84040186Y-73114334D01*
X84132288Y-73263656D01*
X84256344Y-73387712D01*
X84365597Y-73455099D01*
X84372421Y-73462686D01*
X84381703Y-73466925D01*
X84395391Y-73488224D01*
X84412321Y-73507047D01*
X84414965Y-73518682D01*
X84419477Y-73525703D01*
X84424500Y-73560638D01*
X84424500Y-73571349D01*
X84404815Y-73638388D01*
X84388181Y-73659030D01*
X83684030Y-74363181D01*
X83622707Y-74396666D01*
X83596349Y-74399500D01*
X81466228Y-74399500D01*
X81301925Y-74432182D01*
X81301913Y-74432185D01*
X81256583Y-74450962D01*
X81147143Y-74496292D01*
X81147137Y-74496295D01*
X81147137Y-74496296D01*
X81069634Y-74548083D01*
X81007831Y-74589379D01*
X81007830Y-74589380D01*
X75639375Y-79957834D01*
X75639373Y-79957836D01*
X75627601Y-79975455D01*
X75573988Y-80020259D01*
X75504662Y-80028965D01*
X75441636Y-79998809D01*
X75404918Y-79939365D01*
X75400500Y-79906562D01*
X75400500Y-70753650D01*
X75420185Y-70686611D01*
X75436819Y-70665969D01*
X75910623Y-70192165D01*
X75910626Y-70192162D01*
X76003703Y-70052863D01*
X76067815Y-69898082D01*
X76073061Y-69871711D01*
X76100498Y-69733771D01*
X76100499Y-69733768D01*
X76100499Y-69566233D01*
X76100498Y-69566229D01*
X76067817Y-69401926D01*
X76067814Y-69401917D01*
X76003704Y-69247139D01*
X76003702Y-69247136D01*
X75910629Y-69107842D01*
X75910623Y-69107834D01*
X75792165Y-68989376D01*
X75792157Y-68989370D01*
X75652863Y-68896297D01*
X75652860Y-68896295D01*
X75498082Y-68832185D01*
X75498073Y-68832182D01*
X75333770Y-68799501D01*
X75333766Y-68799501D01*
X75166233Y-68799501D01*
X75166228Y-68799501D01*
X75001925Y-68832182D01*
X75001916Y-68832185D01*
X74847143Y-68896293D01*
X74847130Y-68896300D01*
X74707838Y-68989373D01*
X74707834Y-68989376D01*
X73889375Y-69807834D01*
X73889372Y-69807838D01*
X73796297Y-69947133D01*
X73789059Y-69964608D01*
X73745216Y-70019010D01*
X73678921Y-70041073D01*
X73611223Y-70023792D01*
X73563614Y-69972654D01*
X73550499Y-69917155D01*
X73550499Y-68349992D01*
X73539999Y-68247203D01*
X73484814Y-68080666D01*
X73392712Y-67931344D01*
X73268656Y-67807288D01*
X73119334Y-67715186D01*
X72952797Y-67660001D01*
X72952795Y-67660000D01*
X72850010Y-67649500D01*
X70649998Y-67649500D01*
X70649981Y-67649501D01*
X70547203Y-67660000D01*
X70547200Y-67660001D01*
X70380668Y-67715185D01*
X70380663Y-67715187D01*
X70231342Y-67807289D01*
X70107289Y-67931342D01*
X70015187Y-68080663D01*
X70015186Y-68080666D01*
X69960001Y-68247203D01*
X69960001Y-68247204D01*
X69960000Y-68247204D01*
X69949500Y-68349983D01*
X69949500Y-70550001D01*
X69949501Y-70550018D01*
X69960000Y-70652796D01*
X69960001Y-70652799D01*
X70015185Y-70819331D01*
X70015187Y-70819336D01*
X70032315Y-70847105D01*
X70107288Y-70968656D01*
X70231344Y-71092712D01*
X70380666Y-71184814D01*
X70547203Y-71239999D01*
X70649991Y-71250500D01*
X72850008Y-71250499D01*
X72952797Y-71239999D01*
X73119334Y-71184814D01*
X73268656Y-71092712D01*
X73392712Y-70968656D01*
X73469961Y-70843413D01*
X73521909Y-70796689D01*
X73590871Y-70785466D01*
X73654953Y-70813309D01*
X73693810Y-70871378D01*
X73699500Y-70908510D01*
X73699500Y-73828601D01*
X73679815Y-73895640D01*
X73627011Y-73941395D01*
X73557853Y-73951339D01*
X73494297Y-73922314D01*
X73461316Y-73873277D01*
X73460159Y-73873757D01*
X73458605Y-73870006D01*
X73368284Y-73651951D01*
X73368282Y-73651948D01*
X73368280Y-73651943D01*
X73306824Y-73545500D01*
X73250273Y-73447550D01*
X73140206Y-73304108D01*
X73106593Y-73260302D01*
X73106587Y-73260295D01*
X72939704Y-73093412D01*
X72939697Y-73093406D01*
X72752454Y-72949730D01*
X72752453Y-72949729D01*
X72752450Y-72949727D01*
X72629991Y-72879025D01*
X72548056Y-72831719D01*
X72548045Y-72831714D01*
X72329993Y-72741394D01*
X72102010Y-72680306D01*
X71868020Y-72649501D01*
X71868017Y-72649500D01*
X71868011Y-72649500D01*
X71631989Y-72649500D01*
X71631983Y-72649500D01*
X71631979Y-72649501D01*
X71397989Y-72680306D01*
X71170006Y-72741394D01*
X70951954Y-72831714D01*
X70951943Y-72831719D01*
X70747545Y-72949730D01*
X70560302Y-73093406D01*
X70560295Y-73093412D01*
X70393412Y-73260295D01*
X70393406Y-73260302D01*
X70249730Y-73447545D01*
X70131719Y-73651943D01*
X70131714Y-73651954D01*
X70041394Y-73870006D01*
X69980306Y-74097989D01*
X69949501Y-74331979D01*
X69949500Y-74331995D01*
X69949500Y-74568004D01*
X69949501Y-74568020D01*
X69978913Y-74791431D01*
X69980307Y-74802014D01*
X69999864Y-74875000D01*
X70041394Y-75029993D01*
X70131714Y-75248045D01*
X70131719Y-75248056D01*
X70202677Y-75370957D01*
X70249727Y-75452450D01*
X70249729Y-75452453D01*
X70249730Y-75452454D01*
X70393406Y-75639697D01*
X70393412Y-75639704D01*
X70560295Y-75806587D01*
X70560301Y-75806592D01*
X70747550Y-75950273D01*
X70878918Y-76026118D01*
X70951943Y-76068280D01*
X70951948Y-76068282D01*
X70951951Y-76068284D01*
X71170007Y-76158606D01*
X71397986Y-76219693D01*
X71631989Y-76250500D01*
X71631996Y-76250500D01*
X71868004Y-76250500D01*
X71868011Y-76250500D01*
X72102014Y-76219693D01*
X72329993Y-76158606D01*
X72548049Y-76068284D01*
X72752450Y-75950273D01*
X72939699Y-75806592D01*
X73106592Y-75639699D01*
X73250273Y-75452450D01*
X73368284Y-75248049D01*
X73458606Y-75029993D01*
X73458606Y-75029990D01*
X73460159Y-75026243D01*
X73461434Y-75026771D01*
X73498267Y-74974387D01*
X73562976Y-74948032D01*
X73631660Y-74960845D01*
X73682515Y-75008757D01*
X73699500Y-75071398D01*
X73699500Y-78830160D01*
X73679815Y-78897199D01*
X73627011Y-78942954D01*
X73557853Y-78952898D01*
X73494297Y-78923873D01*
X73460480Y-78873588D01*
X73459685Y-78873918D01*
X73367839Y-78652180D01*
X73367834Y-78652171D01*
X73249855Y-78447828D01*
X73249854Y-78447827D01*
X73187277Y-78366275D01*
X72351041Y-79202511D01*
X72326022Y-79142110D01*
X72254888Y-79035649D01*
X72164351Y-78945112D01*
X72057890Y-78873978D01*
X71997488Y-78848958D01*
X72833723Y-78012721D01*
X72752172Y-77950145D01*
X72752171Y-77950144D01*
X72547828Y-77832165D01*
X72547819Y-77832160D01*
X72329836Y-77741870D01*
X72329838Y-77741870D01*
X72101914Y-77680799D01*
X71867985Y-77650000D01*
X71632014Y-77650000D01*
X71398085Y-77680799D01*
X71170162Y-77741870D01*
X70952180Y-77832160D01*
X70952171Y-77832165D01*
X70747828Y-77950144D01*
X70747818Y-77950150D01*
X70666275Y-78012720D01*
X70666275Y-78012721D01*
X71502512Y-78848958D01*
X71442110Y-78873978D01*
X71335649Y-78945112D01*
X71245112Y-79035649D01*
X71173978Y-79142110D01*
X71148958Y-79202512D01*
X70312721Y-78366275D01*
X70312720Y-78366275D01*
X70250150Y-78447818D01*
X70250144Y-78447828D01*
X70132165Y-78652171D01*
X70132160Y-78652180D01*
X70041870Y-78870162D01*
X69980799Y-79098085D01*
X69950000Y-79332014D01*
X69950000Y-79567985D01*
X69980799Y-79801914D01*
X70041870Y-80029837D01*
X70132160Y-80247819D01*
X70132165Y-80247828D01*
X70250144Y-80452171D01*
X70250145Y-80452172D01*
X70312721Y-80533723D01*
X71148958Y-79697487D01*
X71173978Y-79757890D01*
X71245112Y-79864351D01*
X71335649Y-79954888D01*
X71442110Y-80026022D01*
X71502511Y-80051041D01*
X70666275Y-80887277D01*
X70747827Y-80949854D01*
X70747828Y-80949855D01*
X70952171Y-81067834D01*
X70952180Y-81067839D01*
X71170163Y-81158129D01*
X71170161Y-81158129D01*
X71398085Y-81219200D01*
X71632014Y-81249999D01*
X71632029Y-81250000D01*
X71867971Y-81250000D01*
X71867985Y-81249999D01*
X72101914Y-81219200D01*
X72329837Y-81158129D01*
X72547819Y-81067839D01*
X72547828Y-81067834D01*
X72752181Y-80949850D01*
X72833723Y-80887279D01*
X72833723Y-80887276D01*
X71997487Y-80051041D01*
X72057890Y-80026022D01*
X72164351Y-79954888D01*
X72254888Y-79864351D01*
X72326022Y-79757890D01*
X72351041Y-79697487D01*
X73187276Y-80533723D01*
X73187279Y-80533723D01*
X73249850Y-80452181D01*
X73367834Y-80247828D01*
X73367839Y-80247819D01*
X73459685Y-80026082D01*
X73460567Y-80026447D01*
X73498263Y-79972832D01*
X73562970Y-79946474D01*
X73631656Y-79959283D01*
X73682512Y-80007194D01*
X73699500Y-80069839D01*
X73699500Y-84341489D01*
X73679815Y-84408528D01*
X73627011Y-84454283D01*
X73557853Y-84464227D01*
X73494297Y-84435202D01*
X73469961Y-84406586D01*
X73465591Y-84399501D01*
X73392712Y-84281344D01*
X73268656Y-84157288D01*
X73119334Y-84065186D01*
X72952797Y-84010001D01*
X72952795Y-84010000D01*
X72850010Y-83999500D01*
X70649998Y-83999500D01*
X70649981Y-83999501D01*
X70547203Y-84010000D01*
X70547200Y-84010001D01*
X70380668Y-84065185D01*
X70380663Y-84065187D01*
X70231342Y-84157289D01*
X70107289Y-84281342D01*
X70015187Y-84430663D01*
X70015185Y-84430668D01*
X70003747Y-84465186D01*
X69960001Y-84597203D01*
X69960001Y-84597204D01*
X69960000Y-84597204D01*
X69949500Y-84699983D01*
X69949500Y-86346348D01*
X69929815Y-86413387D01*
X69913181Y-86434029D01*
X67939375Y-88407834D01*
X67939372Y-88407838D01*
X67846297Y-88547133D01*
X67846296Y-88547136D01*
X67802895Y-88651917D01*
X67802895Y-88651918D01*
X67782184Y-88701917D01*
X67782182Y-88701925D01*
X67749500Y-88866228D01*
X67200000Y-88866228D01*
X67200000Y-60228711D01*
X69299500Y-60228711D01*
X69299500Y-60471288D01*
X69328369Y-60690580D01*
X69331162Y-60711789D01*
X69346603Y-60769415D01*
X69393947Y-60946104D01*
X69486773Y-61170205D01*
X69486776Y-61170212D01*
X69608064Y-61380289D01*
X69608066Y-61380292D01*
X69608067Y-61380293D01*
X69755733Y-61572736D01*
X69755739Y-61572743D01*
X69927256Y-61744260D01*
X69927262Y-61744265D01*
X70119711Y-61891936D01*
X70329788Y-62013224D01*
X70553900Y-62106054D01*
X70788211Y-62168838D01*
X70968586Y-62192584D01*
X71028711Y-62200500D01*
X71028712Y-62200500D01*
X71271289Y-62200500D01*
X71319388Y-62194167D01*
X71511789Y-62168838D01*
X71746100Y-62106054D01*
X71970212Y-62013224D01*
X72133839Y-61918754D01*
X78319500Y-61918754D01*
X78319500Y-63681245D01*
X78357432Y-63920736D01*
X78432360Y-64151344D01*
X78542448Y-64367401D01*
X78684966Y-64563562D01*
X78684970Y-64563567D01*
X78684972Y-64563569D01*
X78856431Y-64735028D01*
X78856432Y-64735029D01*
X78856431Y-64735029D01*
X78881891Y-64753525D01*
X78898384Y-64765508D01*
X78941050Y-64820837D01*
X78949500Y-64865827D01*
X78949500Y-65144551D01*
X78929815Y-65211590D01*
X78877011Y-65257345D01*
X78864507Y-65262256D01*
X78855667Y-65265185D01*
X78706342Y-65357289D01*
X78582289Y-65481342D01*
X78490187Y-65630663D01*
X78490186Y-65630666D01*
X78435001Y-65797203D01*
X78435001Y-65797204D01*
X78435000Y-65797204D01*
X78424500Y-65899983D01*
X78424500Y-66800001D01*
X78424501Y-66800019D01*
X78435000Y-66902796D01*
X78435001Y-66902799D01*
X78459335Y-66976232D01*
X78490186Y-67069334D01*
X78582288Y-67218656D01*
X78706344Y-67342712D01*
X78855666Y-67434814D01*
X79022203Y-67489999D01*
X79124991Y-67500500D01*
X80475008Y-67500499D01*
X80577797Y-67489999D01*
X80744334Y-67434814D01*
X80893656Y-67342712D01*
X81017712Y-67218656D01*
X81109814Y-67069334D01*
X81164999Y-66902797D01*
X81175500Y-66800009D01*
X81175499Y-65899992D01*
X81164999Y-65797203D01*
X81109814Y-65630666D01*
X81017712Y-65481344D01*
X80893656Y-65357288D01*
X80744334Y-65265186D01*
X80744333Y-65265185D01*
X80744332Y-65265185D01*
X80735493Y-65262256D01*
X80715461Y-65248385D01*
X80693297Y-65238264D01*
X80687247Y-65228851D01*
X80678049Y-65222482D01*
X80668696Y-65199983D01*
X80655523Y-65179486D01*
X80653063Y-65162380D01*
X80651228Y-65157965D01*
X80650500Y-65144551D01*
X80650500Y-64953012D01*
X80670185Y-64885973D01*
X80701612Y-64852696D01*
X80863569Y-64735028D01*
X81035028Y-64563569D01*
X81177554Y-64367398D01*
X81287638Y-64151347D01*
X81362568Y-63920735D01*
X81382110Y-63797347D01*
X81400500Y-63681245D01*
X81400500Y-61918754D01*
X83399500Y-61918754D01*
X83399500Y-63681245D01*
X83437432Y-63920736D01*
X83512360Y-64151344D01*
X83622448Y-64367401D01*
X83764966Y-64563562D01*
X83764970Y-64563567D01*
X83936432Y-64735029D01*
X83936437Y-64735033D01*
X84132602Y-64877554D01*
X84136754Y-64880099D01*
X84136081Y-64881196D01*
X84142849Y-64887587D01*
X84156703Y-64893914D01*
X84167739Y-64911087D01*
X84182582Y-64925101D01*
X84186826Y-64940787D01*
X84194477Y-64952692D01*
X84199500Y-64987627D01*
X84199500Y-65144551D01*
X84179815Y-65211590D01*
X84127011Y-65257345D01*
X84114507Y-65262256D01*
X84105667Y-65265185D01*
X83956342Y-65357289D01*
X83832289Y-65481342D01*
X83740187Y-65630663D01*
X83740186Y-65630666D01*
X83685001Y-65797203D01*
X83685001Y-65797204D01*
X83685000Y-65797204D01*
X83674500Y-65899983D01*
X83674500Y-66800001D01*
X83674501Y-66800019D01*
X83685000Y-66902796D01*
X83685001Y-66902799D01*
X83709335Y-66976232D01*
X83740186Y-67069334D01*
X83832288Y-67218656D01*
X83956344Y-67342712D01*
X84105666Y-67434814D01*
X84272203Y-67489999D01*
X84374991Y-67500500D01*
X85725008Y-67500499D01*
X85827797Y-67489999D01*
X85994334Y-67434814D01*
X86143656Y-67342712D01*
X86267712Y-67218656D01*
X86359814Y-67069334D01*
X86414999Y-66902797D01*
X86425500Y-66800009D01*
X86425499Y-65899992D01*
X86414999Y-65797203D01*
X86359814Y-65630666D01*
X86267712Y-65481344D01*
X86143656Y-65357288D01*
X85994334Y-65265186D01*
X85994333Y-65265185D01*
X85994332Y-65265185D01*
X85985493Y-65262256D01*
X85928049Y-65222482D01*
X85901228Y-65157965D01*
X85900500Y-65144551D01*
X85900500Y-64828976D01*
X85920185Y-64761937D01*
X85940413Y-64738762D01*
X85940124Y-64738473D01*
X86009265Y-64669332D01*
X86115028Y-64563569D01*
X86257554Y-64367398D01*
X86367638Y-64151347D01*
X86442568Y-63920735D01*
X86462110Y-63797347D01*
X86480500Y-63681245D01*
X86480500Y-61918754D01*
X88479500Y-61918754D01*
X88479500Y-63681245D01*
X88517432Y-63920736D01*
X88592360Y-64151344D01*
X88702448Y-64367401D01*
X88844966Y-64563562D01*
X88844970Y-64563567D01*
X88844972Y-64563569D01*
X89016431Y-64735028D01*
X89048384Y-64758243D01*
X89091050Y-64813570D01*
X89099500Y-64858561D01*
X89099500Y-65144551D01*
X89079815Y-65211590D01*
X89027011Y-65257345D01*
X89014507Y-65262256D01*
X89005667Y-65265185D01*
X88856342Y-65357289D01*
X88732289Y-65481342D01*
X88640187Y-65630663D01*
X88640186Y-65630666D01*
X88585001Y-65797203D01*
X88585001Y-65797204D01*
X88585000Y-65797204D01*
X88574500Y-65899983D01*
X88574500Y-66800001D01*
X88574501Y-66800019D01*
X88585000Y-66902796D01*
X88585001Y-66902799D01*
X88609335Y-66976232D01*
X88640186Y-67069334D01*
X88732288Y-67218656D01*
X88856344Y-67342712D01*
X89005666Y-67434814D01*
X89172203Y-67489999D01*
X89274991Y-67500500D01*
X90625008Y-67500499D01*
X90727797Y-67489999D01*
X90894334Y-67434814D01*
X91043656Y-67342712D01*
X91167712Y-67218656D01*
X91259814Y-67069334D01*
X91314999Y-66902797D01*
X91325500Y-66800009D01*
X91325499Y-65899992D01*
X91314999Y-65797203D01*
X91259814Y-65630666D01*
X91167712Y-65481344D01*
X91043656Y-65357288D01*
X90894334Y-65265186D01*
X90894333Y-65265185D01*
X90894332Y-65265185D01*
X90885493Y-65262256D01*
X90865461Y-65248385D01*
X90843297Y-65238264D01*
X90837247Y-65228851D01*
X90828049Y-65222482D01*
X90818696Y-65199983D01*
X90805523Y-65179486D01*
X90803063Y-65162380D01*
X90801228Y-65157965D01*
X90800500Y-65144551D01*
X90800500Y-64960278D01*
X90820185Y-64893239D01*
X90851615Y-64859960D01*
X91002348Y-64750445D01*
X91023569Y-64735028D01*
X91195028Y-64563569D01*
X91337554Y-64367398D01*
X91447638Y-64151347D01*
X91522568Y-63920735D01*
X91542110Y-63797347D01*
X91560500Y-63681245D01*
X91560500Y-61918754D01*
X93559500Y-61918754D01*
X93559500Y-63681245D01*
X93597432Y-63920736D01*
X93672360Y-64151344D01*
X93782448Y-64367401D01*
X93924966Y-64563562D01*
X93924970Y-64563567D01*
X94096432Y-64735029D01*
X94096437Y-64735033D01*
X94296543Y-64880418D01*
X94295477Y-64881884D01*
X94297238Y-64883828D01*
X94306703Y-64888151D01*
X94320286Y-64909287D01*
X94337149Y-64927914D01*
X94339856Y-64939738D01*
X94344477Y-64946929D01*
X94349500Y-64981864D01*
X94349500Y-65144551D01*
X94329815Y-65211590D01*
X94277011Y-65257345D01*
X94264507Y-65262256D01*
X94255667Y-65265185D01*
X94106342Y-65357289D01*
X93982289Y-65481342D01*
X93890187Y-65630663D01*
X93890186Y-65630666D01*
X93835001Y-65797203D01*
X93835001Y-65797204D01*
X93835000Y-65797204D01*
X93824500Y-65899983D01*
X93824500Y-66800001D01*
X93824501Y-66800019D01*
X93835000Y-66902796D01*
X93835001Y-66902799D01*
X93859335Y-66976232D01*
X93890186Y-67069334D01*
X93982288Y-67218656D01*
X94106344Y-67342712D01*
X94255666Y-67434814D01*
X94422203Y-67489999D01*
X94524991Y-67500500D01*
X95875008Y-67500499D01*
X95977797Y-67489999D01*
X96144334Y-67434814D01*
X96293656Y-67342712D01*
X96417712Y-67218656D01*
X96509814Y-67069334D01*
X96564999Y-66902797D01*
X96575500Y-66800009D01*
X96575499Y-65899992D01*
X96564999Y-65797203D01*
X96509814Y-65630666D01*
X96417712Y-65481344D01*
X96293656Y-65357288D01*
X96144334Y-65265186D01*
X96144333Y-65265185D01*
X96144332Y-65265185D01*
X96135493Y-65262256D01*
X96078049Y-65222482D01*
X96051228Y-65157965D01*
X96050500Y-65144551D01*
X96050500Y-64836765D01*
X96070185Y-64769726D01*
X96099912Y-64738252D01*
X96099862Y-64738194D01*
X96100407Y-64737728D01*
X96101620Y-64736443D01*
X96103569Y-64735028D01*
X96275028Y-64563569D01*
X96417554Y-64367398D01*
X96527638Y-64151347D01*
X96602568Y-63920735D01*
X96622110Y-63797347D01*
X96640500Y-63681245D01*
X96640500Y-61918754D01*
X96612862Y-61744260D01*
X96602568Y-61679265D01*
X96527638Y-61448653D01*
X96417554Y-61232602D01*
X96372220Y-61170205D01*
X96275033Y-61036437D01*
X96275029Y-61036432D01*
X96103567Y-60864970D01*
X96103562Y-60864966D01*
X95907401Y-60722448D01*
X95907400Y-60722447D01*
X95907398Y-60722446D01*
X95779519Y-60657288D01*
X95691344Y-60612360D01*
X95460736Y-60537432D01*
X95221245Y-60499500D01*
X95221240Y-60499500D01*
X94978760Y-60499500D01*
X94978755Y-60499500D01*
X94739263Y-60537432D01*
X94508655Y-60612360D01*
X94292598Y-60722448D01*
X94096437Y-60864966D01*
X94096432Y-60864970D01*
X93924970Y-61036432D01*
X93924966Y-61036437D01*
X93782448Y-61232598D01*
X93672360Y-61448655D01*
X93597432Y-61679263D01*
X93559500Y-61918754D01*
X91560500Y-61918754D01*
X91532862Y-61744260D01*
X91522568Y-61679265D01*
X91447638Y-61448653D01*
X91337554Y-61232602D01*
X91292220Y-61170205D01*
X91195033Y-61036437D01*
X91195029Y-61036432D01*
X91023567Y-60864970D01*
X91023562Y-60864966D01*
X90827401Y-60722448D01*
X90827400Y-60722447D01*
X90827398Y-60722446D01*
X90699519Y-60657288D01*
X90611344Y-60612360D01*
X90380736Y-60537432D01*
X90141245Y-60499500D01*
X90141240Y-60499500D01*
X89898760Y-60499500D01*
X89898755Y-60499500D01*
X89659263Y-60537432D01*
X89428655Y-60612360D01*
X89212598Y-60722448D01*
X89016437Y-60864966D01*
X89016432Y-60864970D01*
X88844970Y-61036432D01*
X88844966Y-61036437D01*
X88702448Y-61232598D01*
X88592360Y-61448655D01*
X88517432Y-61679263D01*
X88479500Y-61918754D01*
X86480500Y-61918754D01*
X86452862Y-61744260D01*
X86442568Y-61679265D01*
X86367638Y-61448653D01*
X86257554Y-61232602D01*
X86212220Y-61170205D01*
X86115033Y-61036437D01*
X86115029Y-61036432D01*
X85943567Y-60864970D01*
X85943562Y-60864966D01*
X85747401Y-60722448D01*
X85747400Y-60722447D01*
X85747398Y-60722446D01*
X85619519Y-60657288D01*
X85531344Y-60612360D01*
X85300736Y-60537432D01*
X85061245Y-60499500D01*
X85061240Y-60499500D01*
X84818760Y-60499500D01*
X84818755Y-60499500D01*
X84579263Y-60537432D01*
X84348655Y-60612360D01*
X84132598Y-60722448D01*
X83936437Y-60864966D01*
X83936432Y-60864970D01*
X83764970Y-61036432D01*
X83764966Y-61036437D01*
X83622448Y-61232598D01*
X83512360Y-61448655D01*
X83437432Y-61679263D01*
X83399500Y-61918754D01*
X81400500Y-61918754D01*
X81372862Y-61744260D01*
X81362568Y-61679265D01*
X81287638Y-61448653D01*
X81177554Y-61232602D01*
X81132220Y-61170205D01*
X81035033Y-61036437D01*
X81035029Y-61036432D01*
X80863567Y-60864970D01*
X80863562Y-60864966D01*
X80667401Y-60722448D01*
X80667400Y-60722447D01*
X80667398Y-60722446D01*
X80539519Y-60657288D01*
X80451344Y-60612360D01*
X80220736Y-60537432D01*
X79981245Y-60499500D01*
X79981240Y-60499500D01*
X79738760Y-60499500D01*
X79738755Y-60499500D01*
X79499263Y-60537432D01*
X79268655Y-60612360D01*
X79052598Y-60722448D01*
X78856437Y-60864966D01*
X78856432Y-60864970D01*
X78684970Y-61036432D01*
X78684966Y-61036437D01*
X78542448Y-61232598D01*
X78432360Y-61448655D01*
X78357432Y-61679263D01*
X78319500Y-61918754D01*
X72133839Y-61918754D01*
X72180289Y-61891936D01*
X72372738Y-61744265D01*
X72544265Y-61572738D01*
X72691936Y-61380289D01*
X72813224Y-61170212D01*
X72906054Y-60946100D01*
X72968838Y-60711789D01*
X73000500Y-60471288D01*
X73000500Y-60228712D01*
X72968838Y-59988211D01*
X72906054Y-59753900D01*
X72813224Y-59529788D01*
X72691936Y-59319711D01*
X72544265Y-59127262D01*
X72544260Y-59127256D01*
X72372743Y-58955739D01*
X72372736Y-58955733D01*
X72180293Y-58808067D01*
X72180292Y-58808066D01*
X72180289Y-58808064D01*
X71970212Y-58686776D01*
X71970205Y-58686773D01*
X71746104Y-58593947D01*
X71511785Y-58531161D01*
X71271289Y-58499500D01*
X71271288Y-58499500D01*
X71028712Y-58499500D01*
X71028711Y-58499500D01*
X70788214Y-58531161D01*
X70553895Y-58593947D01*
X70329794Y-58686773D01*
X70329785Y-58686777D01*
X70119706Y-58808067D01*
X69927263Y-58955733D01*
X69927256Y-58955739D01*
X69755739Y-59127256D01*
X69755733Y-59127263D01*
X69608067Y-59319706D01*
X69486777Y-59529785D01*
X69486773Y-59529794D01*
X69393947Y-59753895D01*
X69331161Y-59988214D01*
X69299500Y-60228711D01*
X67200000Y-60228711D01*
X67200000Y-53324000D01*
X67219685Y-53256961D01*
X67272489Y-53211206D01*
X67324000Y-53200000D01*
X148626000Y-53200000D01*
X148693039Y-53219685D01*
G37*
%TD.AperFunction*%
%TD*%
M02*
