%TF.GenerationSoftware,KiCad,Pcbnew,9.0.6*%
%TF.CreationDate,2026-03-14T08:37:53-04:00*%
%TF.ProjectId,FigCNC-NoSpindle,46696743-4e43-42d4-9e6f-5370696e646c,rev?*%
%TF.SameCoordinates,Original*%
%TF.FileFunction,Paste,Bot*%
%TF.FilePolarity,Positive*%
%FSLAX46Y46*%
G04 Gerber Fmt 4.6, Leading zero omitted, Abs format (unit mm)*
G04 Created by KiCad (PCBNEW 9.0.6) date 2026-03-14 08:37:53*
%MOMM*%
%LPD*%
G01*
G04 APERTURE LIST*
G04 Aperture macros list*
%AMRoundRect*
0 Rectangle with rounded corners*
0 $1 Rounding radius*
0 $2 $3 $4 $5 $6 $7 $8 $9 X,Y pos of 4 corners*
0 Add a 4 corners polygon primitive as box body*
4,1,4,$2,$3,$4,$5,$6,$7,$8,$9,$2,$3,0*
0 Add four circle primitives for the rounded corners*
1,1,$1+$1,$2,$3*
1,1,$1+$1,$4,$5*
1,1,$1+$1,$6,$7*
1,1,$1+$1,$8,$9*
0 Add four rect primitives between the rounded corners*
20,1,$1+$1,$2,$3,$4,$5,0*
20,1,$1+$1,$4,$5,$6,$7,0*
20,1,$1+$1,$6,$7,$8,$9,0*
20,1,$1+$1,$8,$9,$2,$3,0*%
G04 Aperture macros list end*
%ADD10RoundRect,0.250000X-0.400000X-0.625000X0.400000X-0.625000X0.400000X0.625000X-0.400000X0.625000X0*%
%ADD11RoundRect,0.250000X0.400000X0.625000X-0.400000X0.625000X-0.400000X-0.625000X0.400000X-0.625000X0*%
%ADD12RoundRect,0.250000X0.625000X-0.400000X0.625000X0.400000X-0.625000X0.400000X-0.625000X-0.400000X0*%
%ADD13RoundRect,0.250000X-0.625000X0.400000X-0.625000X-0.400000X0.625000X-0.400000X0.625000X0.400000X0*%
%ADD14R,0.700000X1.600000*%
%ADD15R,1.200000X2.200000*%
%ADD16R,1.600000X1.400000*%
%ADD17R,1.200000X1.400000*%
G04 APERTURE END LIST*
D10*
%TO.C,R13*%
X411300000Y-443100000D03*
X414400000Y-443100000D03*
%TD*%
%TO.C,R19*%
X411300000Y-438200000D03*
X414400000Y-438200000D03*
%TD*%
D11*
%TO.C,R21*%
X401600000Y-477275000D03*
X398500000Y-477275000D03*
%TD*%
D10*
%TO.C,R7*%
X417400000Y-471450000D03*
X420500000Y-471450000D03*
%TD*%
D12*
%TO.C,R18*%
X397600000Y-435200000D03*
X397600000Y-432100000D03*
%TD*%
D13*
%TO.C,R20*%
X389550000Y-469550000D03*
X389550000Y-472650000D03*
%TD*%
D10*
%TO.C,R10*%
X411270629Y-445715941D03*
X414370629Y-445715941D03*
%TD*%
D12*
%TO.C,R15*%
X390600000Y-435200000D03*
X390600000Y-432100000D03*
%TD*%
D10*
%TO.C,R16*%
X411300000Y-440650000D03*
X414400000Y-440650000D03*
%TD*%
D12*
%TO.C,R17*%
X391300000Y-419450000D03*
X391300000Y-416350000D03*
%TD*%
D14*
%TO.C,J6*%
X417750000Y-467612500D03*
X418850000Y-467612500D03*
X419950000Y-467612500D03*
X421050000Y-467612500D03*
X422150000Y-467612500D03*
X423250000Y-467612500D03*
X424350000Y-467612500D03*
X425450000Y-467612500D03*
X426550000Y-467612500D03*
D15*
X412250000Y-477712500D03*
D16*
X413150000Y-468112500D03*
D17*
X427750000Y-468112500D03*
D15*
X427750000Y-477712500D03*
%TD*%
D12*
%TO.C,R8*%
X375900000Y-419450000D03*
X375900000Y-416350000D03*
%TD*%
%TO.C,R11*%
X381150000Y-419450000D03*
X381150000Y-416350000D03*
%TD*%
%TO.C,R14*%
X386050000Y-419450000D03*
X386050000Y-416350000D03*
%TD*%
%TO.C,R22*%
X404600000Y-432750000D03*
X404600000Y-429650000D03*
%TD*%
D11*
%TO.C,R4*%
X425050000Y-463750000D03*
X421950000Y-463750000D03*
%TD*%
D12*
%TO.C,R12*%
X383600000Y-435200000D03*
X383600000Y-432100000D03*
%TD*%
%TO.C,R9*%
X376250000Y-435550000D03*
X376250000Y-432450000D03*
%TD*%
M02*
