%TF.GenerationSoftware,KiCad,Pcbnew,9.0.6*%
%TF.CreationDate,2026-03-14T08:37:53-04:00*%
%TF.ProjectId,FigCNC-NoSpindle,46696743-4e43-42d4-9e6f-5370696e646c,rev?*%
%TF.SameCoordinates,Original*%
%TF.FileFunction,Legend,Top*%
%TF.FilePolarity,Positive*%
%FSLAX46Y46*%
G04 Gerber Fmt 4.6, Leading zero omitted, Abs format (unit mm)*
G04 Created by KiCad (PCBNEW 9.0.6) date 2026-03-14 08:37:53*
%MOMM*%
%LPD*%
G01*
G04 APERTURE LIST*
%ADD10C,0.100000*%
%ADD11C,0.200000*%
%ADD12C,0.250000*%
%ADD13C,0.150000*%
%ADD14C,0.120000*%
%ADD15C,0.127000*%
%ADD16C,0.000000*%
G04 APERTURE END LIST*
D10*
X395675000Y-432600000D02*
X404425000Y-432600000D01*
X404425000Y-453600000D01*
X395675000Y-453600000D01*
X395675000Y-432600000D01*
D11*
X373993482Y-435364838D02*
X373898244Y-435317219D01*
X373898244Y-435317219D02*
X373755387Y-435317219D01*
X373755387Y-435317219D02*
X373612530Y-435364838D01*
X373612530Y-435364838D02*
X373517292Y-435460076D01*
X373517292Y-435460076D02*
X373469673Y-435555314D01*
X373469673Y-435555314D02*
X373422054Y-435745790D01*
X373422054Y-435745790D02*
X373422054Y-435888647D01*
X373422054Y-435888647D02*
X373469673Y-436079123D01*
X373469673Y-436079123D02*
X373517292Y-436174361D01*
X373517292Y-436174361D02*
X373612530Y-436269600D01*
X373612530Y-436269600D02*
X373755387Y-436317219D01*
X373755387Y-436317219D02*
X373850625Y-436317219D01*
X373850625Y-436317219D02*
X373993482Y-436269600D01*
X373993482Y-436269600D02*
X374041101Y-436221980D01*
X374041101Y-436221980D02*
X374041101Y-435888647D01*
X374041101Y-435888647D02*
X373850625Y-435888647D01*
X374469673Y-436317219D02*
X374469673Y-435317219D01*
X374469673Y-435317219D02*
X375041101Y-436317219D01*
X375041101Y-436317219D02*
X375041101Y-435317219D01*
X375517292Y-436317219D02*
X375517292Y-435317219D01*
X375517292Y-435317219D02*
X375755387Y-435317219D01*
X375755387Y-435317219D02*
X375898244Y-435364838D01*
X375898244Y-435364838D02*
X375993482Y-435460076D01*
X375993482Y-435460076D02*
X376041101Y-435555314D01*
X376041101Y-435555314D02*
X376088720Y-435745790D01*
X376088720Y-435745790D02*
X376088720Y-435888647D01*
X376088720Y-435888647D02*
X376041101Y-436079123D01*
X376041101Y-436079123D02*
X375993482Y-436174361D01*
X375993482Y-436174361D02*
X375898244Y-436269600D01*
X375898244Y-436269600D02*
X375755387Y-436317219D01*
X375755387Y-436317219D02*
X375517292Y-436317219D01*
X373993482Y-451017219D02*
X373422054Y-451017219D01*
X373707768Y-451017219D02*
X373707768Y-450017219D01*
X373707768Y-450017219D02*
X373612530Y-450160076D01*
X373612530Y-450160076D02*
X373517292Y-450255314D01*
X373517292Y-450255314D02*
X373422054Y-450302933D01*
X374374435Y-450112457D02*
X374422054Y-450064838D01*
X374422054Y-450064838D02*
X374517292Y-450017219D01*
X374517292Y-450017219D02*
X374755387Y-450017219D01*
X374755387Y-450017219D02*
X374850625Y-450064838D01*
X374850625Y-450064838D02*
X374898244Y-450112457D01*
X374898244Y-450112457D02*
X374945863Y-450207695D01*
X374945863Y-450207695D02*
X374945863Y-450302933D01*
X374945863Y-450302933D02*
X374898244Y-450445790D01*
X374898244Y-450445790D02*
X374326816Y-451017219D01*
X374326816Y-451017219D02*
X374945863Y-451017219D01*
X375374435Y-450636266D02*
X376136340Y-450636266D01*
X376517292Y-450017219D02*
X377136339Y-450017219D01*
X377136339Y-450017219D02*
X376803006Y-450398171D01*
X376803006Y-450398171D02*
X376945863Y-450398171D01*
X376945863Y-450398171D02*
X377041101Y-450445790D01*
X377041101Y-450445790D02*
X377088720Y-450493409D01*
X377088720Y-450493409D02*
X377136339Y-450588647D01*
X377136339Y-450588647D02*
X377136339Y-450826742D01*
X377136339Y-450826742D02*
X377088720Y-450921980D01*
X377088720Y-450921980D02*
X377041101Y-450969600D01*
X377041101Y-450969600D02*
X376945863Y-451017219D01*
X376945863Y-451017219D02*
X376660149Y-451017219D01*
X376660149Y-451017219D02*
X376564911Y-450969600D01*
X376564911Y-450969600D02*
X376517292Y-450921980D01*
X377993482Y-450017219D02*
X377803006Y-450017219D01*
X377803006Y-450017219D02*
X377707768Y-450064838D01*
X377707768Y-450064838D02*
X377660149Y-450112457D01*
X377660149Y-450112457D02*
X377564911Y-450255314D01*
X377564911Y-450255314D02*
X377517292Y-450445790D01*
X377517292Y-450445790D02*
X377517292Y-450826742D01*
X377517292Y-450826742D02*
X377564911Y-450921980D01*
X377564911Y-450921980D02*
X377612530Y-450969600D01*
X377612530Y-450969600D02*
X377707768Y-451017219D01*
X377707768Y-451017219D02*
X377898244Y-451017219D01*
X377898244Y-451017219D02*
X377993482Y-450969600D01*
X377993482Y-450969600D02*
X378041101Y-450921980D01*
X378041101Y-450921980D02*
X378088720Y-450826742D01*
X378088720Y-450826742D02*
X378088720Y-450588647D01*
X378088720Y-450588647D02*
X378041101Y-450493409D01*
X378041101Y-450493409D02*
X377993482Y-450445790D01*
X377993482Y-450445790D02*
X377898244Y-450398171D01*
X377898244Y-450398171D02*
X377707768Y-450398171D01*
X377707768Y-450398171D02*
X377612530Y-450445790D01*
X377612530Y-450445790D02*
X377564911Y-450493409D01*
X377564911Y-450493409D02*
X377517292Y-450588647D01*
X378374435Y-450017219D02*
X378707768Y-451017219D01*
X378707768Y-451017219D02*
X379041101Y-450017219D01*
X401017219Y-419725564D02*
X401017219Y-419058898D01*
X401017219Y-419058898D02*
X402017219Y-419725564D01*
X402017219Y-419725564D02*
X402017219Y-419058898D01*
X401636266Y-418677945D02*
X401636266Y-417916041D01*
X401969600Y-417487469D02*
X402017219Y-417344612D01*
X402017219Y-417344612D02*
X402017219Y-417106517D01*
X402017219Y-417106517D02*
X401969600Y-417011279D01*
X401969600Y-417011279D02*
X401921980Y-416963660D01*
X401921980Y-416963660D02*
X401826742Y-416916041D01*
X401826742Y-416916041D02*
X401731504Y-416916041D01*
X401731504Y-416916041D02*
X401636266Y-416963660D01*
X401636266Y-416963660D02*
X401588647Y-417011279D01*
X401588647Y-417011279D02*
X401541028Y-417106517D01*
X401541028Y-417106517D02*
X401493409Y-417296993D01*
X401493409Y-417296993D02*
X401445790Y-417392231D01*
X401445790Y-417392231D02*
X401398171Y-417439850D01*
X401398171Y-417439850D02*
X401302933Y-417487469D01*
X401302933Y-417487469D02*
X401207695Y-417487469D01*
X401207695Y-417487469D02*
X401112457Y-417439850D01*
X401112457Y-417439850D02*
X401064838Y-417392231D01*
X401064838Y-417392231D02*
X401017219Y-417296993D01*
X401017219Y-417296993D02*
X401017219Y-417058898D01*
X401017219Y-417058898D02*
X401064838Y-416916041D01*
X401017219Y-416630326D02*
X401017219Y-416058898D01*
X402017219Y-416344612D02*
X401017219Y-416344612D01*
X402017219Y-415725564D02*
X401017219Y-415725564D01*
X401017219Y-415725564D02*
X401017219Y-415344612D01*
X401017219Y-415344612D02*
X401064838Y-415249374D01*
X401064838Y-415249374D02*
X401112457Y-415201755D01*
X401112457Y-415201755D02*
X401207695Y-415154136D01*
X401207695Y-415154136D02*
X401350552Y-415154136D01*
X401350552Y-415154136D02*
X401445790Y-415201755D01*
X401445790Y-415201755D02*
X401493409Y-415249374D01*
X401493409Y-415249374D02*
X401541028Y-415344612D01*
X401541028Y-415344612D02*
X401541028Y-415725564D01*
X381234640Y-420053699D02*
X381710831Y-420053699D01*
X380710831Y-420387032D02*
X381234640Y-420053699D01*
X381234640Y-420053699D02*
X380710831Y-419720366D01*
X381710831Y-418863223D02*
X381710831Y-419434651D01*
X381710831Y-419148937D02*
X380710831Y-419148937D01*
X380710831Y-419148937D02*
X380853688Y-419244175D01*
X380853688Y-419244175D02*
X380948926Y-419339413D01*
X380948926Y-419339413D02*
X380996545Y-419434651D01*
X381329878Y-418434651D02*
X381329878Y-417672747D01*
X381710831Y-416720366D02*
X381710831Y-417196556D01*
X381710831Y-417196556D02*
X380710831Y-417196556D01*
X381710831Y-416387032D02*
X380710831Y-416387032D01*
X381710831Y-415910842D02*
X380710831Y-415910842D01*
X380710831Y-415910842D02*
X381425116Y-415577509D01*
X381425116Y-415577509D02*
X380710831Y-415244176D01*
X380710831Y-415244176D02*
X381710831Y-415244176D01*
X444017219Y-460230326D02*
X443017219Y-460230326D01*
X443017219Y-460230326D02*
X443017219Y-459849374D01*
X443017219Y-459849374D02*
X443064838Y-459754136D01*
X443064838Y-459754136D02*
X443112457Y-459706517D01*
X443112457Y-459706517D02*
X443207695Y-459658898D01*
X443207695Y-459658898D02*
X443350552Y-459658898D01*
X443350552Y-459658898D02*
X443445790Y-459706517D01*
X443445790Y-459706517D02*
X443493409Y-459754136D01*
X443493409Y-459754136D02*
X443541028Y-459849374D01*
X443541028Y-459849374D02*
X443541028Y-460230326D01*
X443493409Y-459230326D02*
X443493409Y-458896993D01*
X444017219Y-458754136D02*
X444017219Y-459230326D01*
X444017219Y-459230326D02*
X443017219Y-459230326D01*
X443017219Y-459230326D02*
X443017219Y-458754136D01*
X444017219Y-458325564D02*
X443017219Y-458325564D01*
X443017219Y-458325564D02*
X444017219Y-457754136D01*
X444017219Y-457754136D02*
X443017219Y-457754136D01*
X444017219Y-457277945D02*
X443017219Y-457277945D01*
X443017219Y-457277945D02*
X443017219Y-457039850D01*
X443017219Y-457039850D02*
X443064838Y-456896993D01*
X443064838Y-456896993D02*
X443160076Y-456801755D01*
X443160076Y-456801755D02*
X443255314Y-456754136D01*
X443255314Y-456754136D02*
X443445790Y-456706517D01*
X443445790Y-456706517D02*
X443588647Y-456706517D01*
X443588647Y-456706517D02*
X443779123Y-456754136D01*
X443779123Y-456754136D02*
X443874361Y-456801755D01*
X443874361Y-456801755D02*
X443969600Y-456896993D01*
X443969600Y-456896993D02*
X444017219Y-457039850D01*
X444017219Y-457039850D02*
X444017219Y-457277945D01*
X443731504Y-456325564D02*
X443731504Y-455849374D01*
X444017219Y-456420802D02*
X443017219Y-456087469D01*
X443017219Y-456087469D02*
X444017219Y-455754136D01*
X444017219Y-455420802D02*
X443017219Y-455420802D01*
X443017219Y-455420802D02*
X444017219Y-454849374D01*
X444017219Y-454849374D02*
X443017219Y-454849374D01*
X443017219Y-454516040D02*
X443017219Y-453944612D01*
X444017219Y-454230326D02*
X443017219Y-454230326D01*
X436717219Y-427561279D02*
X437526742Y-427662469D01*
X437526742Y-427662469D02*
X437621980Y-427626755D01*
X437621980Y-427626755D02*
X437669600Y-427585088D01*
X437669600Y-427585088D02*
X437717219Y-427495802D01*
X437717219Y-427495802D02*
X437717219Y-427305326D01*
X437717219Y-427305326D02*
X437669600Y-427204136D01*
X437669600Y-427204136D02*
X437621980Y-427150564D01*
X437621980Y-427150564D02*
X437526742Y-427091041D01*
X437526742Y-427091041D02*
X436717219Y-426989850D01*
X437431504Y-426650564D02*
X437431504Y-426174374D01*
X437717219Y-426781517D02*
X436717219Y-426323183D01*
X436717219Y-426323183D02*
X437717219Y-426114850D01*
X437717219Y-425210088D02*
X437241028Y-425483898D01*
X437717219Y-425781517D02*
X436717219Y-425656517D01*
X436717219Y-425656517D02*
X436717219Y-425275564D01*
X436717219Y-425275564D02*
X436764838Y-425186279D01*
X436764838Y-425186279D02*
X436812457Y-425144612D01*
X436812457Y-425144612D02*
X436907695Y-425108898D01*
X436907695Y-425108898D02*
X437050552Y-425126755D01*
X437050552Y-425126755D02*
X437145790Y-425186279D01*
X437145790Y-425186279D02*
X437193409Y-425239850D01*
X437193409Y-425239850D02*
X437241028Y-425341040D01*
X437241028Y-425341040D02*
X437241028Y-425721993D01*
X436717219Y-424799374D02*
X436717219Y-424227945D01*
X437717219Y-424638660D02*
X436717219Y-424513660D01*
X426217219Y-419725564D02*
X427217219Y-419058898D01*
X426217219Y-419058898D02*
X427217219Y-419725564D01*
X426836266Y-418677945D02*
X426836266Y-417916041D01*
X427217219Y-417439850D02*
X426217219Y-417439850D01*
X426217219Y-417439850D02*
X426217219Y-417201755D01*
X426217219Y-417201755D02*
X426264838Y-417058898D01*
X426264838Y-417058898D02*
X426360076Y-416963660D01*
X426360076Y-416963660D02*
X426455314Y-416916041D01*
X426455314Y-416916041D02*
X426645790Y-416868422D01*
X426645790Y-416868422D02*
X426788647Y-416868422D01*
X426788647Y-416868422D02*
X426979123Y-416916041D01*
X426979123Y-416916041D02*
X427074361Y-416963660D01*
X427074361Y-416963660D02*
X427169600Y-417058898D01*
X427169600Y-417058898D02*
X427217219Y-417201755D01*
X427217219Y-417201755D02*
X427217219Y-417439850D01*
X427217219Y-416439850D02*
X426217219Y-416439850D01*
X427217219Y-415392232D02*
X426741028Y-415725565D01*
X427217219Y-415963660D02*
X426217219Y-415963660D01*
X426217219Y-415963660D02*
X426217219Y-415582708D01*
X426217219Y-415582708D02*
X426264838Y-415487470D01*
X426264838Y-415487470D02*
X426312457Y-415439851D01*
X426312457Y-415439851D02*
X426407695Y-415392232D01*
X426407695Y-415392232D02*
X426550552Y-415392232D01*
X426550552Y-415392232D02*
X426645790Y-415439851D01*
X426645790Y-415439851D02*
X426693409Y-415487470D01*
X426693409Y-415487470D02*
X426741028Y-415582708D01*
X426741028Y-415582708D02*
X426741028Y-415963660D01*
G36*
X398883769Y-445565826D02*
G01*
X401674000Y-446145928D01*
X401674000Y-446707393D01*
X398883769Y-446127292D01*
X398883769Y-445565826D01*
G37*
G36*
X400077653Y-444728586D02*
G01*
X400525081Y-444821594D01*
X400525081Y-446059246D01*
X400077653Y-445966238D01*
X400077653Y-444728586D01*
G37*
G36*
X398883769Y-444348349D02*
G01*
X399332394Y-444441699D01*
X399332394Y-445811339D01*
X398883769Y-445717990D01*
X398883769Y-444348349D01*
G37*
G36*
X399605946Y-443591978D02*
G01*
X401674000Y-444021967D01*
X401674000Y-444562575D01*
X399605946Y-444132585D01*
X399605946Y-443591978D01*
G37*
G36*
X399065852Y-444054110D02*
G01*
X398956001Y-444010868D01*
X398866672Y-443930327D01*
X398808250Y-443822934D01*
X398788197Y-443693534D01*
X398797957Y-443605584D01*
X398824607Y-443539419D01*
X398866672Y-443489738D01*
X398922219Y-443455952D01*
X398987268Y-443441575D01*
X399065852Y-443447850D01*
X399175508Y-443491348D01*
X399264861Y-443572487D01*
X399323320Y-443680075D01*
X399343337Y-443808939D01*
X399333552Y-443897346D01*
X399306881Y-443963585D01*
X399264861Y-444013077D01*
X399209370Y-444046457D01*
X399144374Y-444060563D01*
X399065852Y-444054110D01*
G37*
G36*
X401609715Y-441770122D02*
G01*
X401792913Y-441822459D01*
X401952389Y-441896850D01*
X402091337Y-441992896D01*
X402212833Y-442110431D01*
X402312722Y-442244501D01*
X402392073Y-442396898D01*
X402448331Y-442559903D01*
X402482820Y-442736133D01*
X402494655Y-442927759D01*
X402486227Y-443054510D01*
X402460120Y-443188660D01*
X402415723Y-443318343D01*
X402352579Y-443435711D01*
X402269637Y-443536112D01*
X402168445Y-443611127D01*
X401844286Y-443306629D01*
X401942646Y-443226076D01*
X402016281Y-443125914D01*
X402062028Y-443007970D01*
X402078173Y-442864501D01*
X402064022Y-442724798D01*
X402023633Y-442606336D01*
X401956924Y-442503183D01*
X401864631Y-442417585D01*
X401751947Y-442353904D01*
X401612792Y-442310900D01*
X401486809Y-442284696D01*
X401544919Y-442345458D01*
X401635873Y-442488196D01*
X401692747Y-442646612D01*
X401712297Y-442826374D01*
X401702992Y-442949462D01*
X401676480Y-443055897D01*
X401633993Y-443148482D01*
X401540261Y-443268133D01*
X401414125Y-443360143D01*
X401263936Y-443421125D01*
X401081588Y-443454005D01*
X400886663Y-443455202D01*
X400664764Y-443423914D01*
X400624757Y-443415537D01*
X400395470Y-443353408D01*
X400193741Y-443269528D01*
X400011067Y-443161439D01*
X399860179Y-443037351D01*
X399735592Y-442892898D01*
X399644073Y-442734392D01*
X399586908Y-442561870D01*
X399567649Y-442376552D01*
X399570977Y-442330390D01*
X400000887Y-442330390D01*
X400013192Y-442432181D01*
X400049614Y-442524612D01*
X400106574Y-442607538D01*
X400182286Y-442681905D01*
X400272008Y-442744723D01*
X400379928Y-442800045D01*
X400496887Y-442843558D01*
X400625270Y-442876810D01*
X400665448Y-442885188D01*
X400791578Y-442904984D01*
X400904122Y-442910321D01*
X401010840Y-442900357D01*
X401099882Y-442875272D01*
X401176169Y-442832388D01*
X401231700Y-442773715D01*
X401265935Y-442699088D01*
X401278375Y-442599668D01*
X401261681Y-442459340D01*
X401214432Y-442345265D01*
X401139008Y-442248429D01*
X401077040Y-442199469D01*
X400200197Y-442017095D01*
X400146041Y-442038374D01*
X400085280Y-442083698D01*
X400039184Y-442147452D01*
X400011230Y-442225675D01*
X400000887Y-442330390D01*
X399570977Y-442330390D01*
X399577248Y-442243414D01*
X399603576Y-442137457D01*
X399644073Y-442053419D01*
X399701703Y-441980260D01*
X399773379Y-441920861D01*
X399803616Y-441904838D01*
X399605946Y-441842784D01*
X399605946Y-441353468D01*
X401609715Y-441770122D01*
G37*
G36*
X400749394Y-439510753D02*
G01*
X400749394Y-438951168D01*
X400931170Y-439014035D01*
X401097149Y-439099081D01*
X401249139Y-439206769D01*
X401383549Y-439335110D01*
X401496827Y-439482197D01*
X401589882Y-439649923D01*
X401656748Y-439829661D01*
X401698024Y-440027852D01*
X401712297Y-440247634D01*
X401701159Y-440420518D01*
X401669575Y-440569709D01*
X401619460Y-440698824D01*
X401547926Y-440816564D01*
X401459275Y-440915460D01*
X401352234Y-440997337D01*
X401231878Y-441059557D01*
X401092519Y-441105097D01*
X400930964Y-441132745D01*
X400766553Y-441140000D01*
X400582954Y-441128103D01*
X400377534Y-441094619D01*
X400184167Y-441054441D01*
X399888519Y-440972633D01*
X399629711Y-440859706D01*
X399469927Y-440764637D01*
X399329710Y-440659503D01*
X399207415Y-440544267D01*
X399099621Y-440415678D01*
X399010558Y-440278501D01*
X398939334Y-440131887D01*
X398887391Y-439977470D01*
X398856060Y-439816496D01*
X398845472Y-439647529D01*
X398861344Y-439423370D01*
X398905051Y-439243189D01*
X398972503Y-439098715D01*
X399068639Y-438972790D01*
X399184432Y-438876529D01*
X399322478Y-438807212D01*
X399473375Y-438765561D01*
X399641493Y-438748301D01*
X399830259Y-438757630D01*
X399830259Y-439317215D01*
X399666155Y-439306746D01*
X399540465Y-439323883D01*
X399466590Y-439352826D01*
X399407285Y-439396345D01*
X399360263Y-439455530D01*
X399316399Y-439568670D01*
X399299226Y-439741905D01*
X399312960Y-439878160D01*
X399352911Y-439999214D01*
X399419384Y-440108355D01*
X399516016Y-440208824D01*
X399635440Y-440293534D01*
X399791107Y-440371074D01*
X399965083Y-440432665D01*
X400179380Y-440486479D01*
X400377021Y-440527512D01*
X400587989Y-440562893D01*
X400757600Y-440575383D01*
X400914153Y-440565693D01*
X401033717Y-440534521D01*
X401132980Y-440477412D01*
X401202464Y-440396891D01*
X401243742Y-440293948D01*
X401259055Y-440153258D01*
X401243794Y-439985435D01*
X401201609Y-439852009D01*
X401130475Y-439736983D01*
X401031152Y-439642229D01*
X400907993Y-439569120D01*
X400749394Y-439510753D01*
G37*
G36*
X398883769Y-435922435D02*
G01*
X401674000Y-436502536D01*
X401674000Y-437063147D01*
X399803588Y-437769424D01*
X401674000Y-438158210D01*
X401674000Y-438719675D01*
X398883769Y-438139574D01*
X398883769Y-437578108D01*
X400756062Y-436870635D01*
X398883769Y-436481336D01*
X398883769Y-435922435D01*
G37*
G36*
X400749394Y-434181960D02*
G01*
X400749394Y-433622376D01*
X400931170Y-433685242D01*
X401097149Y-433770288D01*
X401249139Y-433877976D01*
X401383549Y-434006317D01*
X401496827Y-434153405D01*
X401589882Y-434321130D01*
X401656748Y-434500868D01*
X401698024Y-434699059D01*
X401712297Y-434918841D01*
X401701159Y-435091725D01*
X401669575Y-435240916D01*
X401619460Y-435370031D01*
X401547926Y-435487771D01*
X401459275Y-435586668D01*
X401352234Y-435668545D01*
X401231878Y-435730764D01*
X401092519Y-435776305D01*
X400930964Y-435803953D01*
X400766553Y-435811207D01*
X400582954Y-435799310D01*
X400377534Y-435765826D01*
X400184167Y-435725648D01*
X399888519Y-435643840D01*
X399629711Y-435530914D01*
X399469927Y-435435844D01*
X399329710Y-435330710D01*
X399207415Y-435215474D01*
X399099621Y-435086885D01*
X399010558Y-434949709D01*
X398939334Y-434803094D01*
X398887391Y-434648677D01*
X398856060Y-434487703D01*
X398845472Y-434318736D01*
X398861344Y-434094577D01*
X398905051Y-433914396D01*
X398972503Y-433769923D01*
X399068639Y-433643997D01*
X399184432Y-433547736D01*
X399322478Y-433478419D01*
X399473375Y-433436768D01*
X399641493Y-433419509D01*
X399830259Y-433428838D01*
X399830259Y-433988422D01*
X399666155Y-433977953D01*
X399540465Y-433995090D01*
X399466590Y-434024033D01*
X399407285Y-434067552D01*
X399360263Y-434126737D01*
X399316399Y-434239878D01*
X399299226Y-434413112D01*
X399312960Y-434549367D01*
X399352911Y-434670422D01*
X399419384Y-434779562D01*
X399516016Y-434880031D01*
X399635440Y-434964742D01*
X399791107Y-435042281D01*
X399965083Y-435103872D01*
X400179380Y-435157686D01*
X400377021Y-435198719D01*
X400587989Y-435234101D01*
X400757600Y-435246591D01*
X400914153Y-435236901D01*
X401033717Y-435205729D01*
X401132980Y-435148619D01*
X401202464Y-435068098D01*
X401243742Y-434965155D01*
X401259055Y-434824466D01*
X401243794Y-434656642D01*
X401201609Y-434523217D01*
X401130475Y-434408190D01*
X401031152Y-434313436D01*
X400907993Y-434240327D01*
X400749394Y-434181960D01*
G37*
X443317219Y-440758898D02*
X442841028Y-441092231D01*
X443317219Y-441330326D02*
X442317219Y-441330326D01*
X442317219Y-441330326D02*
X442317219Y-440949374D01*
X442317219Y-440949374D02*
X442364838Y-440854136D01*
X442364838Y-440854136D02*
X442412457Y-440806517D01*
X442412457Y-440806517D02*
X442507695Y-440758898D01*
X442507695Y-440758898D02*
X442650552Y-440758898D01*
X442650552Y-440758898D02*
X442745790Y-440806517D01*
X442745790Y-440806517D02*
X442793409Y-440854136D01*
X442793409Y-440854136D02*
X442841028Y-440949374D01*
X442841028Y-440949374D02*
X442841028Y-441330326D01*
X442317219Y-440425564D02*
X443317219Y-439758898D01*
X442317219Y-439758898D02*
X443317219Y-440425564D01*
X431527759Y-420216336D02*
X432527759Y-419549670D01*
X431527759Y-419549670D02*
X432527759Y-420216336D01*
X432146806Y-419168717D02*
X432146806Y-418406813D01*
X432480140Y-417978241D02*
X432527759Y-417835384D01*
X432527759Y-417835384D02*
X432527759Y-417597289D01*
X432527759Y-417597289D02*
X432480140Y-417502051D01*
X432480140Y-417502051D02*
X432432520Y-417454432D01*
X432432520Y-417454432D02*
X432337282Y-417406813D01*
X432337282Y-417406813D02*
X432242044Y-417406813D01*
X432242044Y-417406813D02*
X432146806Y-417454432D01*
X432146806Y-417454432D02*
X432099187Y-417502051D01*
X432099187Y-417502051D02*
X432051568Y-417597289D01*
X432051568Y-417597289D02*
X432003949Y-417787765D01*
X432003949Y-417787765D02*
X431956330Y-417883003D01*
X431956330Y-417883003D02*
X431908711Y-417930622D01*
X431908711Y-417930622D02*
X431813473Y-417978241D01*
X431813473Y-417978241D02*
X431718235Y-417978241D01*
X431718235Y-417978241D02*
X431622997Y-417930622D01*
X431622997Y-417930622D02*
X431575378Y-417883003D01*
X431575378Y-417883003D02*
X431527759Y-417787765D01*
X431527759Y-417787765D02*
X431527759Y-417549670D01*
X431527759Y-417549670D02*
X431575378Y-417406813D01*
X431527759Y-417121098D02*
X431527759Y-416549670D01*
X432527759Y-416835384D02*
X431527759Y-416835384D01*
X432527759Y-416216336D02*
X431527759Y-416216336D01*
X431527759Y-416216336D02*
X431527759Y-415835384D01*
X431527759Y-415835384D02*
X431575378Y-415740146D01*
X431575378Y-415740146D02*
X431622997Y-415692527D01*
X431622997Y-415692527D02*
X431718235Y-415644908D01*
X431718235Y-415644908D02*
X431861092Y-415644908D01*
X431861092Y-415644908D02*
X431956330Y-415692527D01*
X431956330Y-415692527D02*
X432003949Y-415740146D01*
X432003949Y-415740146D02*
X432051568Y-415835384D01*
X432051568Y-415835384D02*
X432051568Y-416216336D01*
X364741101Y-466791695D02*
X364283958Y-466791695D01*
X364512530Y-466791695D02*
X364512530Y-465991695D01*
X364512530Y-465991695D02*
X364436339Y-466105980D01*
X364436339Y-466105980D02*
X364360149Y-466182171D01*
X364360149Y-466182171D02*
X364283958Y-466220266D01*
X365045863Y-466067885D02*
X365083959Y-466029790D01*
X365083959Y-466029790D02*
X365160149Y-465991695D01*
X365160149Y-465991695D02*
X365350625Y-465991695D01*
X365350625Y-465991695D02*
X365426816Y-466029790D01*
X365426816Y-466029790D02*
X365464911Y-466067885D01*
X365464911Y-466067885D02*
X365503006Y-466144076D01*
X365503006Y-466144076D02*
X365503006Y-466220266D01*
X365503006Y-466220266D02*
X365464911Y-466334552D01*
X365464911Y-466334552D02*
X365007768Y-466791695D01*
X365007768Y-466791695D02*
X365503006Y-466791695D01*
X365845864Y-466486933D02*
X366455388Y-466486933D01*
X366760149Y-465991695D02*
X367255387Y-465991695D01*
X367255387Y-465991695D02*
X366988721Y-466296457D01*
X366988721Y-466296457D02*
X367103006Y-466296457D01*
X367103006Y-466296457D02*
X367179197Y-466334552D01*
X367179197Y-466334552D02*
X367217292Y-466372647D01*
X367217292Y-466372647D02*
X367255387Y-466448838D01*
X367255387Y-466448838D02*
X367255387Y-466639314D01*
X367255387Y-466639314D02*
X367217292Y-466715504D01*
X367217292Y-466715504D02*
X367179197Y-466753600D01*
X367179197Y-466753600D02*
X367103006Y-466791695D01*
X367103006Y-466791695D02*
X366874435Y-466791695D01*
X366874435Y-466791695D02*
X366798244Y-466753600D01*
X366798244Y-466753600D02*
X366760149Y-466715504D01*
X367941102Y-465991695D02*
X367788721Y-465991695D01*
X367788721Y-465991695D02*
X367712530Y-466029790D01*
X367712530Y-466029790D02*
X367674435Y-466067885D01*
X367674435Y-466067885D02*
X367598245Y-466182171D01*
X367598245Y-466182171D02*
X367560149Y-466334552D01*
X367560149Y-466334552D02*
X367560149Y-466639314D01*
X367560149Y-466639314D02*
X367598245Y-466715504D01*
X367598245Y-466715504D02*
X367636340Y-466753600D01*
X367636340Y-466753600D02*
X367712530Y-466791695D01*
X367712530Y-466791695D02*
X367864911Y-466791695D01*
X367864911Y-466791695D02*
X367941102Y-466753600D01*
X367941102Y-466753600D02*
X367979197Y-466715504D01*
X367979197Y-466715504D02*
X368017292Y-466639314D01*
X368017292Y-466639314D02*
X368017292Y-466448838D01*
X368017292Y-466448838D02*
X367979197Y-466372647D01*
X367979197Y-466372647D02*
X367941102Y-466334552D01*
X367941102Y-466334552D02*
X367864911Y-466296457D01*
X367864911Y-466296457D02*
X367712530Y-466296457D01*
X367712530Y-466296457D02*
X367636340Y-466334552D01*
X367636340Y-466334552D02*
X367598245Y-466372647D01*
X367598245Y-466372647D02*
X367560149Y-466448838D01*
X368245864Y-465991695D02*
X368512531Y-466791695D01*
X368512531Y-466791695D02*
X368779197Y-465991695D01*
X411691028Y-420489850D02*
X412167219Y-420489850D01*
X411167219Y-420823183D02*
X411691028Y-420489850D01*
X411691028Y-420489850D02*
X411167219Y-420156517D01*
X411262457Y-419870802D02*
X411214838Y-419823183D01*
X411214838Y-419823183D02*
X411167219Y-419727945D01*
X411167219Y-419727945D02*
X411167219Y-419489850D01*
X411167219Y-419489850D02*
X411214838Y-419394612D01*
X411214838Y-419394612D02*
X411262457Y-419346993D01*
X411262457Y-419346993D02*
X411357695Y-419299374D01*
X411357695Y-419299374D02*
X411452933Y-419299374D01*
X411452933Y-419299374D02*
X411595790Y-419346993D01*
X411595790Y-419346993D02*
X412167219Y-419918421D01*
X412167219Y-419918421D02*
X412167219Y-419299374D01*
X411786266Y-418870802D02*
X411786266Y-418108898D01*
X412119600Y-417680326D02*
X412167219Y-417537469D01*
X412167219Y-417537469D02*
X412167219Y-417299374D01*
X412167219Y-417299374D02*
X412119600Y-417204136D01*
X412119600Y-417204136D02*
X412071980Y-417156517D01*
X412071980Y-417156517D02*
X411976742Y-417108898D01*
X411976742Y-417108898D02*
X411881504Y-417108898D01*
X411881504Y-417108898D02*
X411786266Y-417156517D01*
X411786266Y-417156517D02*
X411738647Y-417204136D01*
X411738647Y-417204136D02*
X411691028Y-417299374D01*
X411691028Y-417299374D02*
X411643409Y-417489850D01*
X411643409Y-417489850D02*
X411595790Y-417585088D01*
X411595790Y-417585088D02*
X411548171Y-417632707D01*
X411548171Y-417632707D02*
X411452933Y-417680326D01*
X411452933Y-417680326D02*
X411357695Y-417680326D01*
X411357695Y-417680326D02*
X411262457Y-417632707D01*
X411262457Y-417632707D02*
X411214838Y-417585088D01*
X411214838Y-417585088D02*
X411167219Y-417489850D01*
X411167219Y-417489850D02*
X411167219Y-417251755D01*
X411167219Y-417251755D02*
X411214838Y-417108898D01*
X411167219Y-416823183D02*
X411167219Y-416251755D01*
X412167219Y-416537469D02*
X411167219Y-416537469D01*
X412167219Y-415918421D02*
X411167219Y-415918421D01*
X411167219Y-415918421D02*
X411167219Y-415537469D01*
X411167219Y-415537469D02*
X411214838Y-415442231D01*
X411214838Y-415442231D02*
X411262457Y-415394612D01*
X411262457Y-415394612D02*
X411357695Y-415346993D01*
X411357695Y-415346993D02*
X411500552Y-415346993D01*
X411500552Y-415346993D02*
X411595790Y-415394612D01*
X411595790Y-415394612D02*
X411643409Y-415442231D01*
X411643409Y-415442231D02*
X411691028Y-415537469D01*
X411691028Y-415537469D02*
X411691028Y-415918421D01*
X406441028Y-420139850D02*
X406917219Y-420139850D01*
X405917219Y-420473183D02*
X406441028Y-420139850D01*
X406441028Y-420139850D02*
X405917219Y-419806517D01*
X406012457Y-419520802D02*
X405964838Y-419473183D01*
X405964838Y-419473183D02*
X405917219Y-419377945D01*
X405917219Y-419377945D02*
X405917219Y-419139850D01*
X405917219Y-419139850D02*
X405964838Y-419044612D01*
X405964838Y-419044612D02*
X406012457Y-418996993D01*
X406012457Y-418996993D02*
X406107695Y-418949374D01*
X406107695Y-418949374D02*
X406202933Y-418949374D01*
X406202933Y-418949374D02*
X406345790Y-418996993D01*
X406345790Y-418996993D02*
X406917219Y-419568421D01*
X406917219Y-419568421D02*
X406917219Y-418949374D01*
X406536266Y-418520802D02*
X406536266Y-417758898D01*
X406917219Y-417282707D02*
X405917219Y-417282707D01*
X405917219Y-417282707D02*
X405917219Y-417044612D01*
X405917219Y-417044612D02*
X405964838Y-416901755D01*
X405964838Y-416901755D02*
X406060076Y-416806517D01*
X406060076Y-416806517D02*
X406155314Y-416758898D01*
X406155314Y-416758898D02*
X406345790Y-416711279D01*
X406345790Y-416711279D02*
X406488647Y-416711279D01*
X406488647Y-416711279D02*
X406679123Y-416758898D01*
X406679123Y-416758898D02*
X406774361Y-416806517D01*
X406774361Y-416806517D02*
X406869600Y-416901755D01*
X406869600Y-416901755D02*
X406917219Y-417044612D01*
X406917219Y-417044612D02*
X406917219Y-417282707D01*
X406917219Y-416282707D02*
X405917219Y-416282707D01*
X406917219Y-415235089D02*
X406441028Y-415568422D01*
X406917219Y-415806517D02*
X405917219Y-415806517D01*
X405917219Y-415806517D02*
X405917219Y-415425565D01*
X405917219Y-415425565D02*
X405964838Y-415330327D01*
X405964838Y-415330327D02*
X406012457Y-415282708D01*
X406012457Y-415282708D02*
X406107695Y-415235089D01*
X406107695Y-415235089D02*
X406250552Y-415235089D01*
X406250552Y-415235089D02*
X406345790Y-415282708D01*
X406345790Y-415282708D02*
X406393409Y-415330327D01*
X406393409Y-415330327D02*
X406441028Y-415425565D01*
X406441028Y-415425565D02*
X406441028Y-415806517D01*
X375442252Y-419622455D02*
X376442252Y-418955789D01*
X375442252Y-418955789D02*
X376442252Y-419622455D01*
X376061299Y-418574836D02*
X376061299Y-417812932D01*
X376442252Y-416860551D02*
X376442252Y-417336741D01*
X376442252Y-417336741D02*
X375442252Y-417336741D01*
X376442252Y-416527217D02*
X375442252Y-416527217D01*
X376442252Y-416051027D02*
X375442252Y-416051027D01*
X375442252Y-416051027D02*
X376156537Y-415717694D01*
X376156537Y-415717694D02*
X375442252Y-415384361D01*
X375442252Y-415384361D02*
X376442252Y-415384361D01*
X442317219Y-422304136D02*
X442317219Y-422780326D01*
X442317219Y-422780326D02*
X442793409Y-422827945D01*
X442793409Y-422827945D02*
X442745790Y-422780326D01*
X442745790Y-422780326D02*
X442698171Y-422685088D01*
X442698171Y-422685088D02*
X442698171Y-422446993D01*
X442698171Y-422446993D02*
X442745790Y-422351755D01*
X442745790Y-422351755D02*
X442793409Y-422304136D01*
X442793409Y-422304136D02*
X442888647Y-422256517D01*
X442888647Y-422256517D02*
X443126742Y-422256517D01*
X443126742Y-422256517D02*
X443221980Y-422304136D01*
X443221980Y-422304136D02*
X443269600Y-422351755D01*
X443269600Y-422351755D02*
X443317219Y-422446993D01*
X443317219Y-422446993D02*
X443317219Y-422685088D01*
X443317219Y-422685088D02*
X443269600Y-422780326D01*
X443269600Y-422780326D02*
X443221980Y-422827945D01*
X442317219Y-421970802D02*
X443317219Y-421637469D01*
X443317219Y-421637469D02*
X442317219Y-421304136D01*
X442317219Y-428173183D02*
X442317219Y-427601755D01*
X443317219Y-427887469D02*
X442317219Y-427887469D01*
X442317219Y-427363659D02*
X443317219Y-426696993D01*
X442317219Y-426696993D02*
X443317219Y-427363659D01*
X367767219Y-424275564D02*
X367767219Y-423608898D01*
X367767219Y-423608898D02*
X368767219Y-424275564D01*
X368767219Y-424275564D02*
X368767219Y-423608898D01*
X368386266Y-423227945D02*
X368386266Y-422466041D01*
X368767219Y-421989850D02*
X367767219Y-421989850D01*
X367767219Y-421989850D02*
X367767219Y-421608898D01*
X367767219Y-421608898D02*
X367814838Y-421513660D01*
X367814838Y-421513660D02*
X367862457Y-421466041D01*
X367862457Y-421466041D02*
X367957695Y-421418422D01*
X367957695Y-421418422D02*
X368100552Y-421418422D01*
X368100552Y-421418422D02*
X368195790Y-421466041D01*
X368195790Y-421466041D02*
X368243409Y-421513660D01*
X368243409Y-421513660D02*
X368291028Y-421608898D01*
X368291028Y-421608898D02*
X368291028Y-421989850D01*
X368767219Y-420418422D02*
X368291028Y-420751755D01*
X368767219Y-420989850D02*
X367767219Y-420989850D01*
X367767219Y-420989850D02*
X367767219Y-420608898D01*
X367767219Y-420608898D02*
X367814838Y-420513660D01*
X367814838Y-420513660D02*
X367862457Y-420466041D01*
X367862457Y-420466041D02*
X367957695Y-420418422D01*
X367957695Y-420418422D02*
X368100552Y-420418422D01*
X368100552Y-420418422D02*
X368195790Y-420466041D01*
X368195790Y-420466041D02*
X368243409Y-420513660D01*
X368243409Y-420513660D02*
X368291028Y-420608898D01*
X368291028Y-420608898D02*
X368291028Y-420989850D01*
X367767219Y-419799374D02*
X367767219Y-419608898D01*
X367767219Y-419608898D02*
X367814838Y-419513660D01*
X367814838Y-419513660D02*
X367910076Y-419418422D01*
X367910076Y-419418422D02*
X368100552Y-419370803D01*
X368100552Y-419370803D02*
X368433885Y-419370803D01*
X368433885Y-419370803D02*
X368624361Y-419418422D01*
X368624361Y-419418422D02*
X368719600Y-419513660D01*
X368719600Y-419513660D02*
X368767219Y-419608898D01*
X368767219Y-419608898D02*
X368767219Y-419799374D01*
X368767219Y-419799374D02*
X368719600Y-419894612D01*
X368719600Y-419894612D02*
X368624361Y-419989850D01*
X368624361Y-419989850D02*
X368433885Y-420037469D01*
X368433885Y-420037469D02*
X368100552Y-420037469D01*
X368100552Y-420037469D02*
X367910076Y-419989850D01*
X367910076Y-419989850D02*
X367814838Y-419894612D01*
X367814838Y-419894612D02*
X367767219Y-419799374D01*
X368243409Y-418608898D02*
X368291028Y-418466041D01*
X368291028Y-418466041D02*
X368338647Y-418418422D01*
X368338647Y-418418422D02*
X368433885Y-418370803D01*
X368433885Y-418370803D02*
X368576742Y-418370803D01*
X368576742Y-418370803D02*
X368671980Y-418418422D01*
X368671980Y-418418422D02*
X368719600Y-418466041D01*
X368719600Y-418466041D02*
X368767219Y-418561279D01*
X368767219Y-418561279D02*
X368767219Y-418942231D01*
X368767219Y-418942231D02*
X367767219Y-418942231D01*
X367767219Y-418942231D02*
X367767219Y-418608898D01*
X367767219Y-418608898D02*
X367814838Y-418513660D01*
X367814838Y-418513660D02*
X367862457Y-418466041D01*
X367862457Y-418466041D02*
X367957695Y-418418422D01*
X367957695Y-418418422D02*
X368052933Y-418418422D01*
X368052933Y-418418422D02*
X368148171Y-418466041D01*
X368148171Y-418466041D02*
X368195790Y-418513660D01*
X368195790Y-418513660D02*
X368243409Y-418608898D01*
X368243409Y-418608898D02*
X368243409Y-418942231D01*
X368243409Y-417942231D02*
X368243409Y-417608898D01*
X368767219Y-417466041D02*
X368767219Y-417942231D01*
X368767219Y-417942231D02*
X367767219Y-417942231D01*
X367767219Y-417942231D02*
X367767219Y-417466041D01*
X437193409Y-439887469D02*
X437193409Y-440220802D01*
X437717219Y-440286279D02*
X436717219Y-440161279D01*
X436717219Y-440161279D02*
X436717219Y-439685088D01*
X436717219Y-439446993D02*
X436717219Y-438875564D01*
X437717219Y-439286279D02*
X436717219Y-439161279D01*
X437717219Y-438667231D02*
X436717219Y-438542231D01*
X436717219Y-438542231D02*
X436717219Y-438304135D01*
X436717219Y-438304135D02*
X436764838Y-438167231D01*
X436764838Y-438167231D02*
X436860076Y-438083897D01*
X436860076Y-438083897D02*
X436955314Y-438048183D01*
X436955314Y-438048183D02*
X437145790Y-438024374D01*
X437145790Y-438024374D02*
X437288647Y-438042231D01*
X437288647Y-438042231D02*
X437479123Y-438113659D01*
X437479123Y-438113659D02*
X437574361Y-438173183D01*
X437574361Y-438173183D02*
X437669600Y-438280326D01*
X437669600Y-438280326D02*
X437717219Y-438429135D01*
X437717219Y-438429135D02*
X437717219Y-438667231D01*
X437717219Y-437667231D02*
X436717219Y-437542231D01*
X390867219Y-419375564D02*
X390867219Y-418708898D01*
X390867219Y-418708898D02*
X391867219Y-419375564D01*
X391867219Y-419375564D02*
X391867219Y-418708898D01*
X391486266Y-418327945D02*
X391486266Y-417566041D01*
X391867219Y-416613660D02*
X391867219Y-417089850D01*
X391867219Y-417089850D02*
X390867219Y-417089850D01*
X391867219Y-416280326D02*
X390867219Y-416280326D01*
X391867219Y-415804136D02*
X390867219Y-415804136D01*
X390867219Y-415804136D02*
X391581504Y-415470803D01*
X391581504Y-415470803D02*
X390867219Y-415137470D01*
X390867219Y-415137470D02*
X391867219Y-415137470D01*
X442317219Y-438673183D02*
X442317219Y-438101755D01*
X443317219Y-438387469D02*
X442317219Y-438387469D01*
X442317219Y-437863659D02*
X443317219Y-437196993D01*
X442317219Y-437196993D02*
X443317219Y-437863659D01*
X442364838Y-447806517D02*
X442317219Y-447901755D01*
X442317219Y-447901755D02*
X442317219Y-448044612D01*
X442317219Y-448044612D02*
X442364838Y-448187469D01*
X442364838Y-448187469D02*
X442460076Y-448282707D01*
X442460076Y-448282707D02*
X442555314Y-448330326D01*
X442555314Y-448330326D02*
X442745790Y-448377945D01*
X442745790Y-448377945D02*
X442888647Y-448377945D01*
X442888647Y-448377945D02*
X443079123Y-448330326D01*
X443079123Y-448330326D02*
X443174361Y-448282707D01*
X443174361Y-448282707D02*
X443269600Y-448187469D01*
X443269600Y-448187469D02*
X443317219Y-448044612D01*
X443317219Y-448044612D02*
X443317219Y-447949374D01*
X443317219Y-447949374D02*
X443269600Y-447806517D01*
X443269600Y-447806517D02*
X443221980Y-447758898D01*
X443221980Y-447758898D02*
X442888647Y-447758898D01*
X442888647Y-447758898D02*
X442888647Y-447949374D01*
X443317219Y-430258898D02*
X442841028Y-430592231D01*
X443317219Y-430830326D02*
X442317219Y-430830326D01*
X442317219Y-430830326D02*
X442317219Y-430449374D01*
X442317219Y-430449374D02*
X442364838Y-430354136D01*
X442364838Y-430354136D02*
X442412457Y-430306517D01*
X442412457Y-430306517D02*
X442507695Y-430258898D01*
X442507695Y-430258898D02*
X442650552Y-430258898D01*
X442650552Y-430258898D02*
X442745790Y-430306517D01*
X442745790Y-430306517D02*
X442793409Y-430354136D01*
X442793409Y-430354136D02*
X442841028Y-430449374D01*
X442841028Y-430449374D02*
X442841028Y-430830326D01*
X442317219Y-429925564D02*
X443317219Y-429258898D01*
X442317219Y-429258898D02*
X443317219Y-429925564D01*
X373993482Y-445164838D02*
X373898244Y-445117219D01*
X373898244Y-445117219D02*
X373755387Y-445117219D01*
X373755387Y-445117219D02*
X373612530Y-445164838D01*
X373612530Y-445164838D02*
X373517292Y-445260076D01*
X373517292Y-445260076D02*
X373469673Y-445355314D01*
X373469673Y-445355314D02*
X373422054Y-445545790D01*
X373422054Y-445545790D02*
X373422054Y-445688647D01*
X373422054Y-445688647D02*
X373469673Y-445879123D01*
X373469673Y-445879123D02*
X373517292Y-445974361D01*
X373517292Y-445974361D02*
X373612530Y-446069600D01*
X373612530Y-446069600D02*
X373755387Y-446117219D01*
X373755387Y-446117219D02*
X373850625Y-446117219D01*
X373850625Y-446117219D02*
X373993482Y-446069600D01*
X373993482Y-446069600D02*
X374041101Y-446021980D01*
X374041101Y-446021980D02*
X374041101Y-445688647D01*
X374041101Y-445688647D02*
X373850625Y-445688647D01*
X374469673Y-446117219D02*
X374469673Y-445117219D01*
X374469673Y-445117219D02*
X375041101Y-446117219D01*
X375041101Y-446117219D02*
X375041101Y-445117219D01*
X375517292Y-446117219D02*
X375517292Y-445117219D01*
X375517292Y-445117219D02*
X375755387Y-445117219D01*
X375755387Y-445117219D02*
X375898244Y-445164838D01*
X375898244Y-445164838D02*
X375993482Y-445260076D01*
X375993482Y-445260076D02*
X376041101Y-445355314D01*
X376041101Y-445355314D02*
X376088720Y-445545790D01*
X376088720Y-445545790D02*
X376088720Y-445688647D01*
X376088720Y-445688647D02*
X376041101Y-445879123D01*
X376041101Y-445879123D02*
X375993482Y-445974361D01*
X375993482Y-445974361D02*
X375898244Y-446069600D01*
X375898244Y-446069600D02*
X375755387Y-446117219D01*
X375755387Y-446117219D02*
X375517292Y-446117219D01*
X373374435Y-440217219D02*
X373993482Y-440217219D01*
X373993482Y-440217219D02*
X373660149Y-440598171D01*
X373660149Y-440598171D02*
X373803006Y-440598171D01*
X373803006Y-440598171D02*
X373898244Y-440645790D01*
X373898244Y-440645790D02*
X373945863Y-440693409D01*
X373945863Y-440693409D02*
X373993482Y-440788647D01*
X373993482Y-440788647D02*
X373993482Y-441026742D01*
X373993482Y-441026742D02*
X373945863Y-441121980D01*
X373945863Y-441121980D02*
X373898244Y-441169600D01*
X373898244Y-441169600D02*
X373803006Y-441217219D01*
X373803006Y-441217219D02*
X373517292Y-441217219D01*
X373517292Y-441217219D02*
X373422054Y-441169600D01*
X373422054Y-441169600D02*
X373374435Y-441121980D01*
X374279197Y-440217219D02*
X374612530Y-441217219D01*
X374612530Y-441217219D02*
X374945863Y-440217219D01*
X375183959Y-440217219D02*
X375803006Y-440217219D01*
X375803006Y-440217219D02*
X375469673Y-440598171D01*
X375469673Y-440598171D02*
X375612530Y-440598171D01*
X375612530Y-440598171D02*
X375707768Y-440645790D01*
X375707768Y-440645790D02*
X375755387Y-440693409D01*
X375755387Y-440693409D02*
X375803006Y-440788647D01*
X375803006Y-440788647D02*
X375803006Y-441026742D01*
X375803006Y-441026742D02*
X375755387Y-441121980D01*
X375755387Y-441121980D02*
X375707768Y-441169600D01*
X375707768Y-441169600D02*
X375612530Y-441217219D01*
X375612530Y-441217219D02*
X375326816Y-441217219D01*
X375326816Y-441217219D02*
X375231578Y-441169600D01*
X375231578Y-441169600D02*
X375183959Y-441121980D01*
X421841028Y-420489850D02*
X422317219Y-420489850D01*
X421317219Y-420823183D02*
X421841028Y-420489850D01*
X421841028Y-420489850D02*
X421317219Y-420156517D01*
X422317219Y-419299374D02*
X422317219Y-419870802D01*
X422317219Y-419585088D02*
X421317219Y-419585088D01*
X421317219Y-419585088D02*
X421460076Y-419680326D01*
X421460076Y-419680326D02*
X421555314Y-419775564D01*
X421555314Y-419775564D02*
X421602933Y-419870802D01*
X421936266Y-418870802D02*
X421936266Y-418108898D01*
X422269600Y-417680326D02*
X422317219Y-417537469D01*
X422317219Y-417537469D02*
X422317219Y-417299374D01*
X422317219Y-417299374D02*
X422269600Y-417204136D01*
X422269600Y-417204136D02*
X422221980Y-417156517D01*
X422221980Y-417156517D02*
X422126742Y-417108898D01*
X422126742Y-417108898D02*
X422031504Y-417108898D01*
X422031504Y-417108898D02*
X421936266Y-417156517D01*
X421936266Y-417156517D02*
X421888647Y-417204136D01*
X421888647Y-417204136D02*
X421841028Y-417299374D01*
X421841028Y-417299374D02*
X421793409Y-417489850D01*
X421793409Y-417489850D02*
X421745790Y-417585088D01*
X421745790Y-417585088D02*
X421698171Y-417632707D01*
X421698171Y-417632707D02*
X421602933Y-417680326D01*
X421602933Y-417680326D02*
X421507695Y-417680326D01*
X421507695Y-417680326D02*
X421412457Y-417632707D01*
X421412457Y-417632707D02*
X421364838Y-417585088D01*
X421364838Y-417585088D02*
X421317219Y-417489850D01*
X421317219Y-417489850D02*
X421317219Y-417251755D01*
X421317219Y-417251755D02*
X421364838Y-417108898D01*
X421317219Y-416823183D02*
X421317219Y-416251755D01*
X422317219Y-416537469D02*
X421317219Y-416537469D01*
X422317219Y-415918421D02*
X421317219Y-415918421D01*
X421317219Y-415918421D02*
X421317219Y-415537469D01*
X421317219Y-415537469D02*
X421364838Y-415442231D01*
X421364838Y-415442231D02*
X421412457Y-415394612D01*
X421412457Y-415394612D02*
X421507695Y-415346993D01*
X421507695Y-415346993D02*
X421650552Y-415346993D01*
X421650552Y-415346993D02*
X421745790Y-415394612D01*
X421745790Y-415394612D02*
X421793409Y-415442231D01*
X421793409Y-415442231D02*
X421841028Y-415537469D01*
X421841028Y-415537469D02*
X421841028Y-415918421D01*
X442364838Y-424706517D02*
X442317219Y-424801755D01*
X442317219Y-424801755D02*
X442317219Y-424944612D01*
X442317219Y-424944612D02*
X442364838Y-425087469D01*
X442364838Y-425087469D02*
X442460076Y-425182707D01*
X442460076Y-425182707D02*
X442555314Y-425230326D01*
X442555314Y-425230326D02*
X442745790Y-425277945D01*
X442745790Y-425277945D02*
X442888647Y-425277945D01*
X442888647Y-425277945D02*
X443079123Y-425230326D01*
X443079123Y-425230326D02*
X443174361Y-425182707D01*
X443174361Y-425182707D02*
X443269600Y-425087469D01*
X443269600Y-425087469D02*
X443317219Y-424944612D01*
X443317219Y-424944612D02*
X443317219Y-424849374D01*
X443317219Y-424849374D02*
X443269600Y-424706517D01*
X443269600Y-424706517D02*
X443221980Y-424658898D01*
X443221980Y-424658898D02*
X442888647Y-424658898D01*
X442888647Y-424658898D02*
X442888647Y-424849374D01*
D12*
X368202568Y-425568428D02*
X368202568Y-427092238D01*
X368583520Y-426711285D02*
X368202568Y-427092238D01*
X368202568Y-427092238D02*
X367821615Y-426711285D01*
D11*
X416591028Y-420139850D02*
X417067219Y-420139850D01*
X416067219Y-420473183D02*
X416591028Y-420139850D01*
X416591028Y-420139850D02*
X416067219Y-419806517D01*
X417067219Y-418949374D02*
X417067219Y-419520802D01*
X417067219Y-419235088D02*
X416067219Y-419235088D01*
X416067219Y-419235088D02*
X416210076Y-419330326D01*
X416210076Y-419330326D02*
X416305314Y-419425564D01*
X416305314Y-419425564D02*
X416352933Y-419520802D01*
X416686266Y-418520802D02*
X416686266Y-417758898D01*
X417067219Y-417282707D02*
X416067219Y-417282707D01*
X416067219Y-417282707D02*
X416067219Y-417044612D01*
X416067219Y-417044612D02*
X416114838Y-416901755D01*
X416114838Y-416901755D02*
X416210076Y-416806517D01*
X416210076Y-416806517D02*
X416305314Y-416758898D01*
X416305314Y-416758898D02*
X416495790Y-416711279D01*
X416495790Y-416711279D02*
X416638647Y-416711279D01*
X416638647Y-416711279D02*
X416829123Y-416758898D01*
X416829123Y-416758898D02*
X416924361Y-416806517D01*
X416924361Y-416806517D02*
X417019600Y-416901755D01*
X417019600Y-416901755D02*
X417067219Y-417044612D01*
X417067219Y-417044612D02*
X417067219Y-417282707D01*
X417067219Y-416282707D02*
X416067219Y-416282707D01*
X417067219Y-415235089D02*
X416591028Y-415568422D01*
X417067219Y-415806517D02*
X416067219Y-415806517D01*
X416067219Y-415806517D02*
X416067219Y-415425565D01*
X416067219Y-415425565D02*
X416114838Y-415330327D01*
X416114838Y-415330327D02*
X416162457Y-415282708D01*
X416162457Y-415282708D02*
X416257695Y-415235089D01*
X416257695Y-415235089D02*
X416400552Y-415235089D01*
X416400552Y-415235089D02*
X416495790Y-415282708D01*
X416495790Y-415282708D02*
X416543409Y-415330327D01*
X416543409Y-415330327D02*
X416591028Y-415425565D01*
X416591028Y-415425565D02*
X416591028Y-415806517D01*
X386141028Y-420139850D02*
X386617219Y-420139850D01*
X385617219Y-420473183D02*
X386141028Y-420139850D01*
X386141028Y-420139850D02*
X385617219Y-419806517D01*
X385712457Y-419520802D02*
X385664838Y-419473183D01*
X385664838Y-419473183D02*
X385617219Y-419377945D01*
X385617219Y-419377945D02*
X385617219Y-419139850D01*
X385617219Y-419139850D02*
X385664838Y-419044612D01*
X385664838Y-419044612D02*
X385712457Y-418996993D01*
X385712457Y-418996993D02*
X385807695Y-418949374D01*
X385807695Y-418949374D02*
X385902933Y-418949374D01*
X385902933Y-418949374D02*
X386045790Y-418996993D01*
X386045790Y-418996993D02*
X386617219Y-419568421D01*
X386617219Y-419568421D02*
X386617219Y-418949374D01*
X386236266Y-418520802D02*
X386236266Y-417758898D01*
X386617219Y-416806517D02*
X386617219Y-417282707D01*
X386617219Y-417282707D02*
X385617219Y-417282707D01*
X386617219Y-416473183D02*
X385617219Y-416473183D01*
X386617219Y-415996993D02*
X385617219Y-415996993D01*
X385617219Y-415996993D02*
X386331504Y-415663660D01*
X386331504Y-415663660D02*
X385617219Y-415330327D01*
X385617219Y-415330327D02*
X386617219Y-415330327D01*
X395767219Y-419280564D02*
X395767219Y-418613898D01*
X395767219Y-418613898D02*
X396767219Y-419280564D01*
X396767219Y-419280564D02*
X396767219Y-418613898D01*
X396386266Y-418232945D02*
X396386266Y-417471041D01*
X396767219Y-416994850D02*
X395767219Y-416994850D01*
X395767219Y-416994850D02*
X395767219Y-416756755D01*
X395767219Y-416756755D02*
X395814838Y-416613898D01*
X395814838Y-416613898D02*
X395910076Y-416518660D01*
X395910076Y-416518660D02*
X396005314Y-416471041D01*
X396005314Y-416471041D02*
X396195790Y-416423422D01*
X396195790Y-416423422D02*
X396338647Y-416423422D01*
X396338647Y-416423422D02*
X396529123Y-416471041D01*
X396529123Y-416471041D02*
X396624361Y-416518660D01*
X396624361Y-416518660D02*
X396719600Y-416613898D01*
X396719600Y-416613898D02*
X396767219Y-416756755D01*
X396767219Y-416756755D02*
X396767219Y-416994850D01*
X396767219Y-415994850D02*
X395767219Y-415994850D01*
X396767219Y-414947232D02*
X396291028Y-415280565D01*
X396767219Y-415518660D02*
X395767219Y-415518660D01*
X395767219Y-415518660D02*
X395767219Y-415137708D01*
X395767219Y-415137708D02*
X395814838Y-415042470D01*
X395814838Y-415042470D02*
X395862457Y-414994851D01*
X395862457Y-414994851D02*
X395957695Y-414947232D01*
X395957695Y-414947232D02*
X396100552Y-414947232D01*
X396100552Y-414947232D02*
X396195790Y-414994851D01*
X396195790Y-414994851D02*
X396243409Y-415042470D01*
X396243409Y-415042470D02*
X396291028Y-415137708D01*
X396291028Y-415137708D02*
X396291028Y-415518660D01*
D13*
X383538095Y-431004819D02*
X383538095Y-431814342D01*
X383538095Y-431814342D02*
X383585714Y-431909580D01*
X383585714Y-431909580D02*
X383633333Y-431957200D01*
X383633333Y-431957200D02*
X383728571Y-432004819D01*
X383728571Y-432004819D02*
X383919047Y-432004819D01*
X383919047Y-432004819D02*
X384014285Y-431957200D01*
X384014285Y-431957200D02*
X384061904Y-431909580D01*
X384061904Y-431909580D02*
X384109523Y-431814342D01*
X384109523Y-431814342D02*
X384109523Y-431004819D01*
X385014285Y-431338152D02*
X385014285Y-432004819D01*
X384776190Y-430957200D02*
X384538095Y-431671485D01*
X384538095Y-431671485D02*
X385157142Y-431671485D01*
X391999819Y-451316666D02*
X391523628Y-451649999D01*
X391999819Y-451888094D02*
X390999819Y-451888094D01*
X390999819Y-451888094D02*
X390999819Y-451507142D01*
X390999819Y-451507142D02*
X391047438Y-451411904D01*
X391047438Y-451411904D02*
X391095057Y-451364285D01*
X391095057Y-451364285D02*
X391190295Y-451316666D01*
X391190295Y-451316666D02*
X391333152Y-451316666D01*
X391333152Y-451316666D02*
X391428390Y-451364285D01*
X391428390Y-451364285D02*
X391476009Y-451411904D01*
X391476009Y-451411904D02*
X391523628Y-451507142D01*
X391523628Y-451507142D02*
X391523628Y-451888094D01*
X391095057Y-450935713D02*
X391047438Y-450888094D01*
X391047438Y-450888094D02*
X390999819Y-450792856D01*
X390999819Y-450792856D02*
X390999819Y-450554761D01*
X390999819Y-450554761D02*
X391047438Y-450459523D01*
X391047438Y-450459523D02*
X391095057Y-450411904D01*
X391095057Y-450411904D02*
X391190295Y-450364285D01*
X391190295Y-450364285D02*
X391285533Y-450364285D01*
X391285533Y-450364285D02*
X391428390Y-450411904D01*
X391428390Y-450411904D02*
X391999819Y-450983332D01*
X391999819Y-450983332D02*
X391999819Y-450364285D01*
X391588095Y-446054819D02*
X391588095Y-446864342D01*
X391588095Y-446864342D02*
X391635714Y-446959580D01*
X391635714Y-446959580D02*
X391683333Y-447007200D01*
X391683333Y-447007200D02*
X391778571Y-447054819D01*
X391778571Y-447054819D02*
X391969047Y-447054819D01*
X391969047Y-447054819D02*
X392064285Y-447007200D01*
X392064285Y-447007200D02*
X392111904Y-446959580D01*
X392111904Y-446959580D02*
X392159523Y-446864342D01*
X392159523Y-446864342D02*
X392159523Y-446054819D01*
X392588095Y-446150057D02*
X392635714Y-446102438D01*
X392635714Y-446102438D02*
X392730952Y-446054819D01*
X392730952Y-446054819D02*
X392969047Y-446054819D01*
X392969047Y-446054819D02*
X393064285Y-446102438D01*
X393064285Y-446102438D02*
X393111904Y-446150057D01*
X393111904Y-446150057D02*
X393159523Y-446245295D01*
X393159523Y-446245295D02*
X393159523Y-446340533D01*
X393159523Y-446340533D02*
X393111904Y-446483390D01*
X393111904Y-446483390D02*
X392540476Y-447054819D01*
X392540476Y-447054819D02*
X393159523Y-447054819D01*
X397188095Y-431004819D02*
X397188095Y-431814342D01*
X397188095Y-431814342D02*
X397235714Y-431909580D01*
X397235714Y-431909580D02*
X397283333Y-431957200D01*
X397283333Y-431957200D02*
X397378571Y-432004819D01*
X397378571Y-432004819D02*
X397569047Y-432004819D01*
X397569047Y-432004819D02*
X397664285Y-431957200D01*
X397664285Y-431957200D02*
X397711904Y-431909580D01*
X397711904Y-431909580D02*
X397759523Y-431814342D01*
X397759523Y-431814342D02*
X397759523Y-431004819D01*
X398664285Y-431004819D02*
X398473809Y-431004819D01*
X398473809Y-431004819D02*
X398378571Y-431052438D01*
X398378571Y-431052438D02*
X398330952Y-431100057D01*
X398330952Y-431100057D02*
X398235714Y-431242914D01*
X398235714Y-431242914D02*
X398188095Y-431433390D01*
X398188095Y-431433390D02*
X398188095Y-431814342D01*
X398188095Y-431814342D02*
X398235714Y-431909580D01*
X398235714Y-431909580D02*
X398283333Y-431957200D01*
X398283333Y-431957200D02*
X398378571Y-432004819D01*
X398378571Y-432004819D02*
X398569047Y-432004819D01*
X398569047Y-432004819D02*
X398664285Y-431957200D01*
X398664285Y-431957200D02*
X398711904Y-431909580D01*
X398711904Y-431909580D02*
X398759523Y-431814342D01*
X398759523Y-431814342D02*
X398759523Y-431576247D01*
X398759523Y-431576247D02*
X398711904Y-431481009D01*
X398711904Y-431481009D02*
X398664285Y-431433390D01*
X398664285Y-431433390D02*
X398569047Y-431385771D01*
X398569047Y-431385771D02*
X398378571Y-431385771D01*
X398378571Y-431385771D02*
X398283333Y-431433390D01*
X398283333Y-431433390D02*
X398235714Y-431481009D01*
X398235714Y-431481009D02*
X398188095Y-431576247D01*
X392183333Y-441009580D02*
X392135714Y-441057200D01*
X392135714Y-441057200D02*
X391992857Y-441104819D01*
X391992857Y-441104819D02*
X391897619Y-441104819D01*
X391897619Y-441104819D02*
X391754762Y-441057200D01*
X391754762Y-441057200D02*
X391659524Y-440961961D01*
X391659524Y-440961961D02*
X391611905Y-440866723D01*
X391611905Y-440866723D02*
X391564286Y-440676247D01*
X391564286Y-440676247D02*
X391564286Y-440533390D01*
X391564286Y-440533390D02*
X391611905Y-440342914D01*
X391611905Y-440342914D02*
X391659524Y-440247676D01*
X391659524Y-440247676D02*
X391754762Y-440152438D01*
X391754762Y-440152438D02*
X391897619Y-440104819D01*
X391897619Y-440104819D02*
X391992857Y-440104819D01*
X391992857Y-440104819D02*
X392135714Y-440152438D01*
X392135714Y-440152438D02*
X392183333Y-440200057D01*
X392516667Y-440104819D02*
X393135714Y-440104819D01*
X393135714Y-440104819D02*
X392802381Y-440485771D01*
X392802381Y-440485771D02*
X392945238Y-440485771D01*
X392945238Y-440485771D02*
X393040476Y-440533390D01*
X393040476Y-440533390D02*
X393088095Y-440581009D01*
X393088095Y-440581009D02*
X393135714Y-440676247D01*
X393135714Y-440676247D02*
X393135714Y-440914342D01*
X393135714Y-440914342D02*
X393088095Y-441009580D01*
X393088095Y-441009580D02*
X393040476Y-441057200D01*
X393040476Y-441057200D02*
X392945238Y-441104819D01*
X392945238Y-441104819D02*
X392659524Y-441104819D01*
X392659524Y-441104819D02*
X392564286Y-441057200D01*
X392564286Y-441057200D02*
X392516667Y-441009580D01*
X383208333Y-457779819D02*
X382732143Y-457779819D01*
X382732143Y-457779819D02*
X382732143Y-456779819D01*
X384065476Y-457779819D02*
X383494048Y-457779819D01*
X383779762Y-457779819D02*
X383779762Y-456779819D01*
X383779762Y-456779819D02*
X383684524Y-456922676D01*
X383684524Y-456922676D02*
X383589286Y-457017914D01*
X383589286Y-457017914D02*
X383494048Y-457065533D01*
X427533333Y-455709580D02*
X427485714Y-455757200D01*
X427485714Y-455757200D02*
X427342857Y-455804819D01*
X427342857Y-455804819D02*
X427247619Y-455804819D01*
X427247619Y-455804819D02*
X427104762Y-455757200D01*
X427104762Y-455757200D02*
X427009524Y-455661961D01*
X427009524Y-455661961D02*
X426961905Y-455566723D01*
X426961905Y-455566723D02*
X426914286Y-455376247D01*
X426914286Y-455376247D02*
X426914286Y-455233390D01*
X426914286Y-455233390D02*
X426961905Y-455042914D01*
X426961905Y-455042914D02*
X427009524Y-454947676D01*
X427009524Y-454947676D02*
X427104762Y-454852438D01*
X427104762Y-454852438D02*
X427247619Y-454804819D01*
X427247619Y-454804819D02*
X427342857Y-454804819D01*
X427342857Y-454804819D02*
X427485714Y-454852438D01*
X427485714Y-454852438D02*
X427533333Y-454900057D01*
X428485714Y-455804819D02*
X427914286Y-455804819D01*
X428200000Y-455804819D02*
X428200000Y-454804819D01*
X428200000Y-454804819D02*
X428104762Y-454947676D01*
X428104762Y-454947676D02*
X428009524Y-455042914D01*
X428009524Y-455042914D02*
X427914286Y-455090533D01*
X392024819Y-456916666D02*
X391548628Y-457249999D01*
X392024819Y-457488094D02*
X391024819Y-457488094D01*
X391024819Y-457488094D02*
X391024819Y-457107142D01*
X391024819Y-457107142D02*
X391072438Y-457011904D01*
X391072438Y-457011904D02*
X391120057Y-456964285D01*
X391120057Y-456964285D02*
X391215295Y-456916666D01*
X391215295Y-456916666D02*
X391358152Y-456916666D01*
X391358152Y-456916666D02*
X391453390Y-456964285D01*
X391453390Y-456964285D02*
X391501009Y-457011904D01*
X391501009Y-457011904D02*
X391548628Y-457107142D01*
X391548628Y-457107142D02*
X391548628Y-457488094D01*
X392024819Y-455964285D02*
X392024819Y-456535713D01*
X392024819Y-456249999D02*
X391024819Y-456249999D01*
X391024819Y-456249999D02*
X391167676Y-456345237D01*
X391167676Y-456345237D02*
X391262914Y-456440475D01*
X391262914Y-456440475D02*
X391310533Y-456535713D01*
X380462295Y-448940475D02*
X379662295Y-448940475D01*
X379662295Y-448940475D02*
X379662295Y-448749999D01*
X379662295Y-448749999D02*
X379700390Y-448635713D01*
X379700390Y-448635713D02*
X379776580Y-448559523D01*
X379776580Y-448559523D02*
X379852771Y-448521428D01*
X379852771Y-448521428D02*
X380005152Y-448483332D01*
X380005152Y-448483332D02*
X380119438Y-448483332D01*
X380119438Y-448483332D02*
X380271819Y-448521428D01*
X380271819Y-448521428D02*
X380348009Y-448559523D01*
X380348009Y-448559523D02*
X380424200Y-448635713D01*
X380424200Y-448635713D02*
X380462295Y-448749999D01*
X380462295Y-448749999D02*
X380462295Y-448940475D01*
X379738485Y-448178571D02*
X379700390Y-448140475D01*
X379700390Y-448140475D02*
X379662295Y-448064285D01*
X379662295Y-448064285D02*
X379662295Y-447873809D01*
X379662295Y-447873809D02*
X379700390Y-447797618D01*
X379700390Y-447797618D02*
X379738485Y-447759523D01*
X379738485Y-447759523D02*
X379814676Y-447721428D01*
X379814676Y-447721428D02*
X379890866Y-447721428D01*
X379890866Y-447721428D02*
X380005152Y-447759523D01*
X380005152Y-447759523D02*
X380462295Y-448216666D01*
X380462295Y-448216666D02*
X380462295Y-447721428D01*
X390538095Y-430654819D02*
X390538095Y-431464342D01*
X390538095Y-431464342D02*
X390585714Y-431559580D01*
X390585714Y-431559580D02*
X390633333Y-431607200D01*
X390633333Y-431607200D02*
X390728571Y-431654819D01*
X390728571Y-431654819D02*
X390919047Y-431654819D01*
X390919047Y-431654819D02*
X391014285Y-431607200D01*
X391014285Y-431607200D02*
X391061904Y-431559580D01*
X391061904Y-431559580D02*
X391109523Y-431464342D01*
X391109523Y-431464342D02*
X391109523Y-430654819D01*
X392061904Y-430654819D02*
X391585714Y-430654819D01*
X391585714Y-430654819D02*
X391538095Y-431131009D01*
X391538095Y-431131009D02*
X391585714Y-431083390D01*
X391585714Y-431083390D02*
X391680952Y-431035771D01*
X391680952Y-431035771D02*
X391919047Y-431035771D01*
X391919047Y-431035771D02*
X392014285Y-431083390D01*
X392014285Y-431083390D02*
X392061904Y-431131009D01*
X392061904Y-431131009D02*
X392109523Y-431226247D01*
X392109523Y-431226247D02*
X392109523Y-431464342D01*
X392109523Y-431464342D02*
X392061904Y-431559580D01*
X392061904Y-431559580D02*
X392014285Y-431607200D01*
X392014285Y-431607200D02*
X391919047Y-431654819D01*
X391919047Y-431654819D02*
X391680952Y-431654819D01*
X391680952Y-431654819D02*
X391585714Y-431607200D01*
X391585714Y-431607200D02*
X391538095Y-431559580D01*
X382033333Y-452809580D02*
X381985714Y-452857200D01*
X381985714Y-452857200D02*
X381842857Y-452904819D01*
X381842857Y-452904819D02*
X381747619Y-452904819D01*
X381747619Y-452904819D02*
X381604762Y-452857200D01*
X381604762Y-452857200D02*
X381509524Y-452761961D01*
X381509524Y-452761961D02*
X381461905Y-452666723D01*
X381461905Y-452666723D02*
X381414286Y-452476247D01*
X381414286Y-452476247D02*
X381414286Y-452333390D01*
X381414286Y-452333390D02*
X381461905Y-452142914D01*
X381461905Y-452142914D02*
X381509524Y-452047676D01*
X381509524Y-452047676D02*
X381604762Y-451952438D01*
X381604762Y-451952438D02*
X381747619Y-451904819D01*
X381747619Y-451904819D02*
X381842857Y-451904819D01*
X381842857Y-451904819D02*
X381985714Y-451952438D01*
X381985714Y-451952438D02*
X382033333Y-452000057D01*
X382890476Y-452238152D02*
X382890476Y-452904819D01*
X382652381Y-451857200D02*
X382414286Y-452571485D01*
X382414286Y-452571485D02*
X383033333Y-452571485D01*
X376188095Y-431004819D02*
X376188095Y-431814342D01*
X376188095Y-431814342D02*
X376235714Y-431909580D01*
X376235714Y-431909580D02*
X376283333Y-431957200D01*
X376283333Y-431957200D02*
X376378571Y-432004819D01*
X376378571Y-432004819D02*
X376569047Y-432004819D01*
X376569047Y-432004819D02*
X376664285Y-431957200D01*
X376664285Y-431957200D02*
X376711904Y-431909580D01*
X376711904Y-431909580D02*
X376759523Y-431814342D01*
X376759523Y-431814342D02*
X376759523Y-431004819D01*
X377140476Y-431004819D02*
X377759523Y-431004819D01*
X377759523Y-431004819D02*
X377426190Y-431385771D01*
X377426190Y-431385771D02*
X377569047Y-431385771D01*
X377569047Y-431385771D02*
X377664285Y-431433390D01*
X377664285Y-431433390D02*
X377711904Y-431481009D01*
X377711904Y-431481009D02*
X377759523Y-431576247D01*
X377759523Y-431576247D02*
X377759523Y-431814342D01*
X377759523Y-431814342D02*
X377711904Y-431909580D01*
X377711904Y-431909580D02*
X377664285Y-431957200D01*
X377664285Y-431957200D02*
X377569047Y-432004819D01*
X377569047Y-432004819D02*
X377283333Y-432004819D01*
X377283333Y-432004819D02*
X377188095Y-431957200D01*
X377188095Y-431957200D02*
X377140476Y-431909580D01*
X399183333Y-464809580D02*
X399135714Y-464857200D01*
X399135714Y-464857200D02*
X398992857Y-464904819D01*
X398992857Y-464904819D02*
X398897619Y-464904819D01*
X398897619Y-464904819D02*
X398754762Y-464857200D01*
X398754762Y-464857200D02*
X398659524Y-464761961D01*
X398659524Y-464761961D02*
X398611905Y-464666723D01*
X398611905Y-464666723D02*
X398564286Y-464476247D01*
X398564286Y-464476247D02*
X398564286Y-464333390D01*
X398564286Y-464333390D02*
X398611905Y-464142914D01*
X398611905Y-464142914D02*
X398659524Y-464047676D01*
X398659524Y-464047676D02*
X398754762Y-463952438D01*
X398754762Y-463952438D02*
X398897619Y-463904819D01*
X398897619Y-463904819D02*
X398992857Y-463904819D01*
X398992857Y-463904819D02*
X399135714Y-463952438D01*
X399135714Y-463952438D02*
X399183333Y-464000057D01*
X400088095Y-463904819D02*
X399611905Y-463904819D01*
X399611905Y-463904819D02*
X399564286Y-464381009D01*
X399564286Y-464381009D02*
X399611905Y-464333390D01*
X399611905Y-464333390D02*
X399707143Y-464285771D01*
X399707143Y-464285771D02*
X399945238Y-464285771D01*
X399945238Y-464285771D02*
X400040476Y-464333390D01*
X400040476Y-464333390D02*
X400088095Y-464381009D01*
X400088095Y-464381009D02*
X400135714Y-464476247D01*
X400135714Y-464476247D02*
X400135714Y-464714342D01*
X400135714Y-464714342D02*
X400088095Y-464809580D01*
X400088095Y-464809580D02*
X400040476Y-464857200D01*
X400040476Y-464857200D02*
X399945238Y-464904819D01*
X399945238Y-464904819D02*
X399707143Y-464904819D01*
X399707143Y-464904819D02*
X399611905Y-464857200D01*
X399611905Y-464857200D02*
X399564286Y-464809580D01*
X392183333Y-443459580D02*
X392135714Y-443507200D01*
X392135714Y-443507200D02*
X391992857Y-443554819D01*
X391992857Y-443554819D02*
X391897619Y-443554819D01*
X391897619Y-443554819D02*
X391754762Y-443507200D01*
X391754762Y-443507200D02*
X391659524Y-443411961D01*
X391659524Y-443411961D02*
X391611905Y-443316723D01*
X391611905Y-443316723D02*
X391564286Y-443126247D01*
X391564286Y-443126247D02*
X391564286Y-442983390D01*
X391564286Y-442983390D02*
X391611905Y-442792914D01*
X391611905Y-442792914D02*
X391659524Y-442697676D01*
X391659524Y-442697676D02*
X391754762Y-442602438D01*
X391754762Y-442602438D02*
X391897619Y-442554819D01*
X391897619Y-442554819D02*
X391992857Y-442554819D01*
X391992857Y-442554819D02*
X392135714Y-442602438D01*
X392135714Y-442602438D02*
X392183333Y-442650057D01*
X392564286Y-442650057D02*
X392611905Y-442602438D01*
X392611905Y-442602438D02*
X392707143Y-442554819D01*
X392707143Y-442554819D02*
X392945238Y-442554819D01*
X392945238Y-442554819D02*
X393040476Y-442602438D01*
X393040476Y-442602438D02*
X393088095Y-442650057D01*
X393088095Y-442650057D02*
X393135714Y-442745295D01*
X393135714Y-442745295D02*
X393135714Y-442840533D01*
X393135714Y-442840533D02*
X393088095Y-442983390D01*
X393088095Y-442983390D02*
X392516667Y-443554819D01*
X392516667Y-443554819D02*
X393135714Y-443554819D01*
X395438095Y-478954819D02*
X395438095Y-479764342D01*
X395438095Y-479764342D02*
X395485714Y-479859580D01*
X395485714Y-479859580D02*
X395533333Y-479907200D01*
X395533333Y-479907200D02*
X395628571Y-479954819D01*
X395628571Y-479954819D02*
X395819047Y-479954819D01*
X395819047Y-479954819D02*
X395914285Y-479907200D01*
X395914285Y-479907200D02*
X395961904Y-479859580D01*
X395961904Y-479859580D02*
X396009523Y-479764342D01*
X396009523Y-479764342D02*
X396009523Y-478954819D01*
X396390476Y-478954819D02*
X397057142Y-478954819D01*
X397057142Y-478954819D02*
X396628571Y-479954819D01*
D14*
%TO.C,U4*%
X379605000Y-422955000D02*
X379605000Y-428255000D01*
X379605000Y-428255000D02*
X384805000Y-428255000D01*
X384805000Y-422955000D02*
X379605000Y-422955000D01*
X384805000Y-424605000D02*
X384805000Y-422955000D01*
X384805000Y-428255000D02*
X384805000Y-426605000D01*
X384805000Y-426605000D02*
G75*
G02*
X384805000Y-424605000I0J1000000D01*
G01*
%TO.C,R2*%
X392465000Y-451877064D02*
X392465000Y-450422936D01*
X394285000Y-451877064D02*
X394285000Y-450422936D01*
D13*
%TO.C,U2*%
X385550000Y-451000000D02*
X385550000Y-446850000D01*
X390700000Y-451000000D02*
X390700000Y-446850000D01*
D14*
X385625000Y-451425000D02*
X385295000Y-451665000D01*
X385295000Y-451185000D01*
X385625000Y-451425000D01*
G36*
X385625000Y-451425000D02*
G01*
X385295000Y-451665000D01*
X385295000Y-451185000D01*
X385625000Y-451425000D01*
G37*
%TO.C,U6*%
X393605000Y-422955000D02*
X393605000Y-428255000D01*
X393605000Y-428255000D02*
X398805000Y-428255000D01*
X398805000Y-422955000D02*
X393605000Y-422955000D01*
X398805000Y-424605000D02*
X398805000Y-422955000D01*
X398805000Y-428255000D02*
X398805000Y-426605000D01*
X398805000Y-426605000D02*
G75*
G02*
X398805000Y-424605000I0J1000000D01*
G01*
%TO.C,C3*%
X389211252Y-439740000D02*
X387788748Y-439740000D01*
X389211252Y-441560000D02*
X387788748Y-441560000D01*
%TO.C,L1*%
X379675000Y-458075000D02*
X387075000Y-458075000D01*
X379675000Y-460375000D02*
X379675000Y-458075000D01*
X379675000Y-465475000D02*
X379675000Y-463175000D01*
X387075000Y-458075000D02*
X387075000Y-460375000D01*
X387075000Y-463175000D02*
X387075000Y-465475000D01*
X387075000Y-465475000D02*
X379675000Y-465475000D01*
%TO.C,C1*%
X426988748Y-456890000D02*
X428411252Y-456890000D01*
X426988748Y-458710000D02*
X428411252Y-458710000D01*
%TO.C,R1*%
X392490000Y-457477064D02*
X392490000Y-456022936D01*
X394310000Y-457477064D02*
X394310000Y-456022936D01*
D15*
%TO.C,D2*%
X381790000Y-445400000D02*
X381790000Y-450600000D01*
X384710000Y-445400000D02*
X384710000Y-450600000D01*
D11*
X383350000Y-444000000D02*
G75*
G02*
X383150000Y-444000000I-100000J0D01*
G01*
X383150000Y-444000000D02*
G75*
G02*
X383350000Y-444000000I100000J0D01*
G01*
D14*
%TO.C,U5*%
X386730000Y-422910000D02*
X386730000Y-428210000D01*
X386730000Y-428210000D02*
X391930000Y-428210000D01*
X391930000Y-422910000D02*
X386730000Y-422910000D01*
X391930000Y-424560000D02*
X391930000Y-422910000D01*
X391930000Y-428210000D02*
X391930000Y-426560000D01*
X391930000Y-426560000D02*
G75*
G02*
X391930000Y-424560000I0J1000000D01*
G01*
%TO.C,G1*%
X438570000Y-446780000D02*
X438570000Y-433970000D01*
X441330000Y-433970000D02*
X438570000Y-433970000D01*
X441330000Y-446780000D02*
X438570000Y-446780000D01*
X441330000Y-446780000D02*
X441330000Y-433970000D01*
X441330000Y-448050000D02*
X441330000Y-449430000D01*
X441330000Y-449430000D02*
X439950000Y-449430000D01*
%TO.C,C4*%
X381488748Y-453390000D02*
X382911252Y-453390000D01*
X381488748Y-455210000D02*
X382911252Y-455210000D01*
%TO.C,J7*%
X364550000Y-455742500D02*
X376450000Y-455742500D01*
X364550000Y-464942500D02*
X364550000Y-455742500D01*
X370550000Y-464942500D02*
X364550000Y-464942500D01*
X375600000Y-455542500D02*
X376650000Y-455542500D01*
X376450000Y-455742500D02*
X376450000Y-458342500D01*
X376450000Y-462242500D02*
X376450000Y-464942500D01*
X376450000Y-464942500D02*
X374550000Y-464942500D01*
X376650000Y-456592500D02*
X376650000Y-455542500D01*
D16*
%TO.C,G\u002A\u002A\u002A*%
G36*
X370660000Y-479150000D02*
G01*
X370660000Y-480170000D01*
X370374583Y-480175551D01*
X370254965Y-480176972D01*
X370170420Y-480175617D01*
X370116095Y-480171157D01*
X370087140Y-480163264D01*
X370079379Y-480155551D01*
X370077559Y-480131058D01*
X370076054Y-480070483D01*
X370074880Y-479977743D01*
X370074055Y-479856753D01*
X370073598Y-479711431D01*
X370073525Y-479545693D01*
X370073853Y-479363456D01*
X370074602Y-479168637D01*
X370074795Y-479130000D01*
X370080000Y-478130000D01*
X370370000Y-478130000D01*
X370660000Y-478130000D01*
X370660000Y-479150000D01*
G37*
G36*
X383855000Y-478124773D02*
G01*
X384660000Y-478130000D01*
X384665655Y-478355000D01*
X384671310Y-478580000D01*
X384150655Y-478580000D01*
X383630000Y-478580000D01*
X383630000Y-478750000D01*
X383630000Y-478920000D01*
X384090676Y-478920000D01*
X384551353Y-478920000D01*
X384545676Y-479135000D01*
X384540000Y-479350000D01*
X384085000Y-479355375D01*
X383630000Y-479360750D01*
X383630000Y-479540048D01*
X383630000Y-479719346D01*
X384165000Y-479724673D01*
X384700000Y-479730000D01*
X384700000Y-479950000D01*
X384700000Y-480170000D01*
X383875000Y-480175221D01*
X383050000Y-480180443D01*
X383050000Y-479149994D01*
X383050000Y-478119546D01*
X383855000Y-478124773D01*
G37*
G36*
X369810000Y-478349773D02*
G01*
X369810000Y-478580000D01*
X369290000Y-478580000D01*
X368770000Y-478580000D01*
X368770000Y-478800000D01*
X368770000Y-479020000D01*
X369230655Y-479020000D01*
X369691310Y-479020000D01*
X369685655Y-479245000D01*
X369680000Y-479470000D01*
X369225000Y-479475375D01*
X368770000Y-479480750D01*
X368770000Y-479830375D01*
X368770000Y-480180000D01*
X368489372Y-480180000D01*
X368368188Y-480178911D01*
X368282807Y-480175408D01*
X368229086Y-480169133D01*
X368202879Y-480159729D01*
X368199168Y-480155000D01*
X368197389Y-480130618D01*
X368195922Y-480070151D01*
X368194784Y-479977512D01*
X368193991Y-479856617D01*
X368193559Y-479711377D01*
X368193506Y-479545708D01*
X368193847Y-479363522D01*
X368194601Y-479168734D01*
X368194795Y-479130000D01*
X368200000Y-478130000D01*
X369005000Y-478124773D01*
X369810000Y-478119546D01*
X369810000Y-478349773D01*
G37*
G36*
X365624642Y-478745951D02*
G01*
X365710205Y-478827193D01*
X365797850Y-478910070D01*
X365877161Y-478984752D01*
X365936616Y-479040380D01*
X366053232Y-479148859D01*
X365936616Y-479258781D01*
X365875440Y-479316566D01*
X365795730Y-479392027D01*
X365707929Y-479475272D01*
X365624642Y-479554352D01*
X365429284Y-479740000D01*
X365239642Y-479740000D01*
X365158080Y-479739085D01*
X365094101Y-479736627D01*
X365056400Y-479733054D01*
X365050000Y-479730649D01*
X365063659Y-479714086D01*
X365100870Y-479675847D01*
X365155982Y-479621590D01*
X365223345Y-479556975D01*
X365224743Y-479555649D01*
X365309443Y-479475321D01*
X365398964Y-479390361D01*
X365480728Y-479312709D01*
X365526157Y-479269528D01*
X365652828Y-479149056D01*
X365516414Y-479020367D01*
X365381647Y-478893088D01*
X365273678Y-478790762D01*
X365190074Y-478711039D01*
X365128403Y-478651564D01*
X365086231Y-478609987D01*
X365061127Y-478583954D01*
X365050658Y-478571114D01*
X365050000Y-478569350D01*
X365068549Y-478565329D01*
X365118402Y-478562174D01*
X365190862Y-478560315D01*
X365239642Y-478560000D01*
X365429284Y-478560000D01*
X365624642Y-478745951D01*
G37*
G36*
X366453510Y-478772700D02*
G01*
X366563743Y-478863020D01*
X366664573Y-478945821D01*
X366751605Y-479017479D01*
X366820447Y-479074373D01*
X366866707Y-479112881D01*
X366885481Y-479128895D01*
X366889347Y-479143315D01*
X366875268Y-479167296D01*
X366839855Y-479204314D01*
X366779722Y-479257845D01*
X366691483Y-479331367D01*
X366675481Y-479344442D01*
X366570880Y-479429832D01*
X366456190Y-479523588D01*
X366344735Y-479614812D01*
X366249839Y-479692603D01*
X366242964Y-479698247D01*
X366045929Y-479860000D01*
X365812964Y-479859413D01*
X365580000Y-479858827D01*
X365640873Y-479804413D01*
X365674921Y-479775141D01*
X365734144Y-479725444D01*
X365812711Y-479660163D01*
X365904790Y-479584143D01*
X366004550Y-479502226D01*
X366019486Y-479490000D01*
X366118843Y-479408643D01*
X366210468Y-479333517D01*
X366288790Y-479269198D01*
X366348239Y-479220259D01*
X366383247Y-479191275D01*
X366386397Y-479188636D01*
X366435570Y-479147273D01*
X366276092Y-479018636D01*
X366149078Y-478915826D01*
X366026274Y-478815755D01*
X365911471Y-478721571D01*
X365808460Y-478636424D01*
X365721032Y-478563462D01*
X365652980Y-478505836D01*
X365608093Y-478466694D01*
X365590164Y-478449186D01*
X365590000Y-478448737D01*
X365608679Y-478445286D01*
X365659435Y-478442479D01*
X365734348Y-478440617D01*
X365818510Y-478440000D01*
X366047021Y-478440000D01*
X366453510Y-478772700D01*
G37*
G36*
X366820000Y-478280076D02*
G01*
X367120000Y-478499892D01*
X367309784Y-478639016D01*
X367469740Y-478756458D01*
X367602357Y-478854105D01*
X367710128Y-478933844D01*
X367795541Y-478997561D01*
X367861088Y-479047144D01*
X367909258Y-479084479D01*
X367942543Y-479111454D01*
X367963432Y-479129955D01*
X367974416Y-479141869D01*
X367977986Y-479149083D01*
X367978034Y-479150000D01*
X367962341Y-479166047D01*
X367917923Y-479202832D01*
X367848404Y-479257567D01*
X367757411Y-479327467D01*
X367648568Y-479409745D01*
X367525502Y-479501614D01*
X367399038Y-479595000D01*
X366820551Y-480020000D01*
X366525275Y-480020000D01*
X366421754Y-480018975D01*
X366334089Y-480016153D01*
X366269249Y-480011913D01*
X366234200Y-480006635D01*
X366230000Y-480003936D01*
X366245403Y-479987761D01*
X366288383Y-479951956D01*
X366354091Y-479900316D01*
X366437679Y-479836636D01*
X366534301Y-479764712D01*
X366555000Y-479749498D01*
X366757274Y-479600989D01*
X366928142Y-479475210D01*
X367068589Y-479371427D01*
X367179602Y-479288903D01*
X367262170Y-479226906D01*
X367317277Y-479184698D01*
X367345911Y-479161547D01*
X367350480Y-479157073D01*
X367348722Y-479150461D01*
X367336328Y-479136903D01*
X367310899Y-479114570D01*
X367270038Y-479081633D01*
X367211344Y-479036262D01*
X367132420Y-478976629D01*
X367030866Y-478900905D01*
X366904285Y-478807261D01*
X366750278Y-478693868D01*
X366566445Y-478558897D01*
X366555000Y-478550501D01*
X366456330Y-478477370D01*
X366369714Y-478411716D01*
X366299998Y-478357335D01*
X366252030Y-478318020D01*
X366230656Y-478297568D01*
X366230000Y-478296063D01*
X366248836Y-478290432D01*
X366300699Y-478285668D01*
X366378616Y-478282150D01*
X366475617Y-478280258D01*
X366525000Y-478280038D01*
X366820000Y-478280076D01*
G37*
G36*
X376458391Y-478711427D02*
G01*
X376816783Y-479303650D01*
X376863304Y-479226825D01*
X376885267Y-479190180D01*
X376924578Y-479124204D01*
X376978214Y-479033986D01*
X377043149Y-478924619D01*
X377116359Y-478801194D01*
X377194820Y-478668803D01*
X377214912Y-478634883D01*
X377520000Y-478119767D01*
X377760000Y-478124883D01*
X378000000Y-478130000D01*
X378005181Y-479155000D01*
X378010363Y-480180000D01*
X377740181Y-480180000D01*
X377470000Y-480180000D01*
X377470000Y-479646666D01*
X377469464Y-479506214D01*
X377467955Y-479380659D01*
X377465617Y-479275004D01*
X377462594Y-479194252D01*
X377459031Y-479143404D01*
X377455073Y-479127465D01*
X377455000Y-479127528D01*
X377440860Y-479147979D01*
X377409160Y-479197840D01*
X377362923Y-479272222D01*
X377305173Y-479366239D01*
X377238935Y-479475001D01*
X377190000Y-479555861D01*
X376940000Y-479970000D01*
X376810283Y-479970000D01*
X376680567Y-479970000D01*
X376620283Y-479875910D01*
X376589889Y-479827685D01*
X376543471Y-479753059D01*
X376485825Y-479659786D01*
X376421745Y-479555620D01*
X376370000Y-479471173D01*
X376308706Y-479372229D01*
X376253977Y-479286273D01*
X376209370Y-479218703D01*
X376178444Y-479174916D01*
X376165000Y-479160263D01*
X376160938Y-479179305D01*
X376157294Y-479233048D01*
X376154223Y-479316193D01*
X376151882Y-479423441D01*
X376150425Y-479549493D01*
X376150000Y-479670000D01*
X376150000Y-480180000D01*
X375889372Y-480180000D01*
X375772600Y-480178780D01*
X375691628Y-480174865D01*
X375642319Y-480167873D01*
X375620540Y-480157421D01*
X375619168Y-480155000D01*
X375617389Y-480130618D01*
X375615922Y-480070151D01*
X375614784Y-479977512D01*
X375613991Y-479856617D01*
X375613559Y-479711377D01*
X375613506Y-479545708D01*
X375613847Y-479363522D01*
X375614601Y-479168734D01*
X375614795Y-479130000D01*
X375620000Y-478130000D01*
X375860000Y-478124602D01*
X376100000Y-478119204D01*
X376458391Y-478711427D01*
G37*
G36*
X372248203Y-478091120D02*
G01*
X372442114Y-478125692D01*
X372623528Y-478186681D01*
X372785398Y-478272248D01*
X372920678Y-478380557D01*
X372930000Y-478390004D01*
X373000000Y-478462244D01*
X372900000Y-478551501D01*
X372831436Y-478612086D01*
X372759699Y-478674538D01*
X372716690Y-478711403D01*
X372633380Y-478782048D01*
X372502848Y-478692682D01*
X372361708Y-478616150D01*
X372218854Y-478575116D01*
X372078821Y-478567404D01*
X371946145Y-478590835D01*
X371825359Y-478643235D01*
X371721001Y-478722426D01*
X371637603Y-478826232D01*
X371579703Y-478952476D01*
X371551834Y-479098982D01*
X371550000Y-479150000D01*
X371567592Y-479305393D01*
X371618191Y-479441566D01*
X371698531Y-479555147D01*
X371805342Y-479642768D01*
X371935358Y-479701060D01*
X372085312Y-479726653D01*
X372110000Y-479727474D01*
X372197183Y-479724058D01*
X372284972Y-479713115D01*
X372335000Y-479702152D01*
X372430000Y-479674801D01*
X372430000Y-479387400D01*
X372430000Y-479100000D01*
X372690000Y-479100000D01*
X372950000Y-479100000D01*
X372950000Y-479528284D01*
X372950000Y-479956569D01*
X372855000Y-480013835D01*
X372778661Y-480057984D01*
X372712090Y-480090671D01*
X372641774Y-480117282D01*
X372554203Y-480143206D01*
X372484985Y-480161382D01*
X372394857Y-480180169D01*
X372288367Y-480195854D01*
X372176604Y-480207506D01*
X372070659Y-480214194D01*
X371981622Y-480214987D01*
X371920583Y-480208953D01*
X371920000Y-480208820D01*
X371878211Y-480199796D01*
X371814343Y-480186628D01*
X371770000Y-480177708D01*
X371611057Y-480128040D01*
X371453995Y-480045895D01*
X371308548Y-479938018D01*
X371184451Y-479811153D01*
X371126144Y-479731608D01*
X371046277Y-479585498D01*
X370995206Y-479434578D01*
X370969838Y-479267639D01*
X370965661Y-479150000D01*
X370983502Y-478938717D01*
X371036019Y-478746258D01*
X371121703Y-478574397D01*
X371239046Y-478424908D01*
X371386538Y-478299567D01*
X371562671Y-478200148D01*
X371765936Y-478128425D01*
X371851075Y-478108579D01*
X372048841Y-478084803D01*
X372248203Y-478091120D01*
G37*
G36*
X381405000Y-478120697D02*
G01*
X381624569Y-478122464D01*
X381808887Y-478127772D01*
X381962620Y-478137601D01*
X382090436Y-478152932D01*
X382197000Y-478174746D01*
X382286979Y-478204024D01*
X382365040Y-478241745D01*
X382435849Y-478288892D01*
X382504074Y-478346443D01*
X382511340Y-478353189D01*
X382602766Y-478450235D01*
X382665151Y-478547601D01*
X382703472Y-478656586D01*
X382722705Y-478788488D01*
X382725756Y-478840000D01*
X382722134Y-479004947D01*
X382693438Y-479144730D01*
X382636217Y-479266032D01*
X382547021Y-479375540D01*
X382422401Y-479479939D01*
X382380296Y-479509432D01*
X382358522Y-479526726D01*
X382354219Y-479545309D01*
X382369424Y-479575885D01*
X382401943Y-479623171D01*
X382465613Y-479714004D01*
X382531991Y-479809939D01*
X382597150Y-479905154D01*
X382657164Y-479993829D01*
X382708105Y-480070144D01*
X382746047Y-480128278D01*
X382767064Y-480162411D01*
X382770000Y-480168720D01*
X382751141Y-480172608D01*
X382699127Y-480175917D01*
X382620803Y-480178394D01*
X382523011Y-480179787D01*
X382463879Y-480180000D01*
X382157759Y-480180000D01*
X381972929Y-479910000D01*
X381788099Y-479640000D01*
X381629049Y-479640000D01*
X381470000Y-479640000D01*
X381470000Y-479910000D01*
X381470000Y-480180000D01*
X381180000Y-480180000D01*
X380890000Y-480180000D01*
X380890000Y-479184213D01*
X381470000Y-479184213D01*
X381705000Y-479177100D01*
X381814190Y-479172544D01*
X381892310Y-479165674D01*
X381948275Y-479155091D01*
X381991004Y-479139400D01*
X382010000Y-479129314D01*
X382087910Y-479062787D01*
X382133121Y-478974866D01*
X382143490Y-478869968D01*
X382142299Y-478856527D01*
X382126493Y-478770937D01*
X382095205Y-478709491D01*
X382039470Y-478656867D01*
X382015423Y-478639672D01*
X381980772Y-478618778D01*
X381942933Y-478604402D01*
X381892934Y-478594907D01*
X381821809Y-478588655D01*
X381720587Y-478584011D01*
X381707952Y-478583553D01*
X381470000Y-478575069D01*
X381470000Y-478879641D01*
X381470000Y-479184213D01*
X380890000Y-479184213D01*
X380890000Y-479150000D01*
X380890000Y-478879641D01*
X380890000Y-478120000D01*
X381405000Y-478120697D01*
G37*
G36*
X379550724Y-478093080D02*
G01*
X379634232Y-478097723D01*
X379703270Y-478107607D01*
X379770583Y-478124490D01*
X379840000Y-478147041D01*
X380037986Y-478233417D01*
X380205899Y-478345978D01*
X380344339Y-478485237D01*
X380453906Y-478651705D01*
X380470957Y-478685315D01*
X380544371Y-478871450D01*
X380580226Y-479053380D01*
X380579588Y-479237295D01*
X380574014Y-479283188D01*
X380525739Y-479489390D01*
X380444170Y-479674421D01*
X380331165Y-479836198D01*
X380188582Y-479972638D01*
X380018278Y-480081657D01*
X379822112Y-480161174D01*
X379780103Y-480173309D01*
X379707199Y-480187588D01*
X379609785Y-480199439D01*
X379501438Y-480207972D01*
X379395736Y-480212296D01*
X379306258Y-480211524D01*
X379260000Y-480207389D01*
X379095426Y-480168929D01*
X378932339Y-480107239D01*
X378782112Y-480027757D01*
X378656116Y-479935918D01*
X378618953Y-479900952D01*
X378499445Y-479764783D01*
X378413455Y-479630031D01*
X378356601Y-479486545D01*
X378324498Y-479324172D01*
X378314486Y-479195782D01*
X378315054Y-479146098D01*
X378897488Y-479146098D01*
X378911185Y-479287614D01*
X378951837Y-479420218D01*
X379018153Y-479534012D01*
X379046072Y-479566400D01*
X379157026Y-479654750D01*
X379285973Y-479710002D01*
X379426838Y-479731007D01*
X379573547Y-479716616D01*
X379675154Y-479685389D01*
X379752046Y-479639095D01*
X379829920Y-479566050D01*
X379898716Y-479477949D01*
X379948377Y-479386487D01*
X379959802Y-479354426D01*
X379988080Y-479199294D01*
X379982074Y-479047458D01*
X379943085Y-478906026D01*
X379872416Y-478782103D01*
X379849867Y-478754596D01*
X379746064Y-478659268D01*
X379631388Y-478600094D01*
X379498643Y-478573866D01*
X379440000Y-478571876D01*
X379291486Y-478589967D01*
X379163020Y-478642610D01*
X379055518Y-478729229D01*
X378969900Y-478849247D01*
X378956114Y-478875918D01*
X378912034Y-479005566D01*
X378897488Y-479146098D01*
X378315054Y-479146098D01*
X378316499Y-479019731D01*
X378340228Y-478867983D01*
X378388412Y-478729633D01*
X378463790Y-478593771D01*
X378466796Y-478589169D01*
X378584628Y-478435697D01*
X378718822Y-478313168D01*
X378876510Y-478216112D01*
X379044629Y-478145944D01*
X379119390Y-478121751D01*
X379185398Y-478105972D01*
X379255231Y-478096889D01*
X379341466Y-478092784D01*
X379440000Y-478091923D01*
X379550724Y-478093080D01*
G37*
G36*
X374264607Y-478120000D02*
G01*
X374552041Y-478120000D01*
X374580330Y-478187706D01*
X374595070Y-478221940D01*
X374623866Y-478287900D01*
X374664584Y-478380730D01*
X374715091Y-478495578D01*
X374773254Y-478627592D01*
X374836938Y-478771917D01*
X374881466Y-478872706D01*
X374992014Y-479122841D01*
X375087458Y-479338869D01*
X375168878Y-479523259D01*
X375237357Y-479678482D01*
X375293978Y-479807007D01*
X375339823Y-479911306D01*
X375375975Y-479993849D01*
X375403515Y-480057104D01*
X375423527Y-480103544D01*
X375437093Y-480135637D01*
X375445296Y-480155855D01*
X375449217Y-480166667D01*
X375450000Y-480170136D01*
X375431156Y-480173579D01*
X375379248Y-480176498D01*
X375301211Y-480178664D01*
X375203980Y-480179848D01*
X375151866Y-480180000D01*
X374853732Y-480180000D01*
X374792253Y-480032320D01*
X374760170Y-479954688D01*
X374731835Y-479885132D01*
X374712685Y-479837019D01*
X374710882Y-479832320D01*
X374690990Y-479780000D01*
X374255495Y-479780382D01*
X373820000Y-479780765D01*
X373743673Y-479980382D01*
X373667346Y-480180000D01*
X373369168Y-480180000D01*
X373070990Y-480180000D01*
X373088268Y-480135000D01*
X373100975Y-480104630D01*
X373127457Y-480043312D01*
X373165261Y-479956658D01*
X373211934Y-479850280D01*
X373265020Y-479729790D01*
X373304708Y-479640000D01*
X373369955Y-479492564D01*
X373446351Y-479319918D01*
X373446544Y-479319482D01*
X374016236Y-479319482D01*
X374025835Y-479329324D01*
X374053406Y-479335410D01*
X374104993Y-479338624D01*
X374186642Y-479339850D01*
X374257860Y-479340000D01*
X374353002Y-479339438D01*
X374431715Y-479337904D01*
X374486457Y-479335624D01*
X374509687Y-479332824D01*
X374510000Y-479332447D01*
X374502892Y-479312251D01*
X374483316Y-479261652D01*
X374453888Y-479187291D01*
X374417225Y-479095811D01*
X374397694Y-479047447D01*
X374357151Y-478947113D01*
X374321212Y-478857853D01*
X374292918Y-478787243D01*
X374275312Y-478742864D01*
X374271785Y-478733736D01*
X374260356Y-478738559D01*
X374237315Y-478776617D01*
X374204612Y-478843516D01*
X374164195Y-478934860D01*
X374118012Y-479046252D01*
X374068012Y-479173296D01*
X374018562Y-479305000D01*
X374016236Y-479319482D01*
X373446544Y-479319482D01*
X373528864Y-479133430D01*
X373612465Y-478944471D01*
X373692122Y-478764412D01*
X373740521Y-478654999D01*
X373977173Y-478119999D01*
X374264607Y-478120000D01*
G37*
D14*
%TO.C,J1*%
X362730000Y-428030000D02*
X371970000Y-428030000D01*
X362730000Y-430350000D02*
X362730000Y-428030000D01*
X362730000Y-453270000D02*
X362730000Y-430950000D01*
X363250000Y-428030000D02*
X363250000Y-453270000D01*
X364350000Y-428030000D02*
X364350000Y-453270000D01*
X371970000Y-428030000D02*
X371970000Y-453270000D01*
X371970000Y-453270000D02*
X362730000Y-453270000D01*
D15*
%TO.C,U1*%
X406957500Y-476450000D02*
X406957500Y-430190000D01*
X407957500Y-429190000D02*
X411927500Y-429190000D01*
X407957500Y-477450000D02*
X416877500Y-477450000D01*
X411927500Y-422450000D02*
X429927500Y-422450000D01*
X411927500Y-429190000D02*
X411927500Y-422450000D01*
X424977500Y-477450000D02*
X433897500Y-477450000D01*
X429927500Y-422450000D02*
X429927500Y-429190000D01*
X429927500Y-429190000D02*
X433897500Y-429190000D01*
X434897500Y-476450000D02*
X434897500Y-430190000D01*
X407957500Y-477450000D02*
G75*
G02*
X406957500Y-476450000I-1J999999D01*
G01*
X434897500Y-476450000D02*
G75*
G02*
X433897500Y-477450000I-1000000J0D01*
G01*
D11*
X406527500Y-430485000D02*
G75*
G02*
X406327500Y-430485000I-100000J0D01*
G01*
X406327500Y-430485000D02*
G75*
G02*
X406527500Y-430485000I100000J0D01*
G01*
D14*
%TO.C,J5*%
X436440000Y-450690000D02*
X436440000Y-463310000D01*
X436440000Y-463310000D02*
X442410000Y-463310000D01*
X437200000Y-451450000D02*
X437200000Y-457000000D01*
X437200000Y-462550000D02*
X437200000Y-457000000D01*
X440150000Y-450700000D02*
X440150000Y-451450000D01*
X440150000Y-451450000D02*
X437200000Y-451450000D01*
X440150000Y-462550000D02*
X437200000Y-462550000D01*
X440150000Y-463300000D02*
X440150000Y-462550000D01*
X441650000Y-450700000D02*
X441650000Y-452500000D01*
X441650000Y-452500000D02*
X442400000Y-452500000D01*
X441650000Y-454000000D02*
X441650000Y-460000000D01*
X441650000Y-460000000D02*
X442400000Y-460000000D01*
X441650000Y-461500000D02*
X441650000Y-463300000D01*
X441650000Y-463300000D02*
X442400000Y-463300000D01*
X442400000Y-450700000D02*
X441650000Y-450700000D01*
X442400000Y-452500000D02*
X442400000Y-450700000D01*
X442400000Y-454000000D02*
X441650000Y-454000000D01*
X442400000Y-460000000D02*
X442400000Y-454000000D01*
X442400000Y-461500000D02*
X441650000Y-461500000D01*
X442400000Y-463300000D02*
X442400000Y-461500000D01*
X442410000Y-450690000D02*
X436440000Y-450690000D01*
X442410000Y-463310000D02*
X442410000Y-450690000D01*
X442700000Y-450400000D02*
X441450000Y-450400000D01*
X442700000Y-451650000D02*
X442700000Y-450400000D01*
%TO.C,J4*%
X438570000Y-421110000D02*
X439950000Y-421110000D01*
X438570000Y-422490000D02*
X438570000Y-421110000D01*
X438570000Y-423760000D02*
X438570000Y-431490000D01*
X438570000Y-423760000D02*
X441330000Y-423760000D01*
X438570000Y-431490000D02*
X441330000Y-431490000D01*
X441330000Y-423760000D02*
X441330000Y-431490000D01*
%TO.C,U3*%
X372605000Y-422955000D02*
X372605000Y-428255000D01*
X372605000Y-428255000D02*
X377805000Y-428255000D01*
X377805000Y-422955000D02*
X372605000Y-422955000D01*
X377805000Y-424605000D02*
X377805000Y-422955000D01*
X377805000Y-428255000D02*
X377805000Y-426605000D01*
X377805000Y-426605000D02*
G75*
G02*
X377805000Y-424605000I0J1000000D01*
G01*
D16*
%TO.C,G\u002A\u002A\u002A*%
G36*
X398778036Y-448492363D02*
G01*
X398825028Y-448495360D01*
X398857706Y-448499960D01*
X398869840Y-448504067D01*
X398865933Y-448511456D01*
X398846623Y-448525729D01*
X398815567Y-448544342D01*
X398799394Y-448553107D01*
X398722670Y-448596855D01*
X398649029Y-448646358D01*
X398573164Y-448705460D01*
X398493593Y-448774545D01*
X398456713Y-448807337D01*
X398425930Y-448833749D01*
X398404401Y-448851139D01*
X398395285Y-448856865D01*
X398395238Y-448856830D01*
X398395049Y-448845354D01*
X398398346Y-448819828D01*
X398401572Y-448801144D01*
X398406457Y-448770438D01*
X398408155Y-448749703D01*
X398407396Y-448744947D01*
X398401595Y-448752189D01*
X398389182Y-448774870D01*
X398372245Y-448809028D01*
X398360543Y-448833895D01*
X398335343Y-448883081D01*
X398302173Y-448940453D01*
X398266141Y-448997427D01*
X398244306Y-449029203D01*
X398208715Y-449079660D01*
X398171602Y-449133498D01*
X398138258Y-449182988D01*
X398120915Y-449209470D01*
X398098257Y-449243861D01*
X398080235Y-449269647D01*
X398069593Y-449282967D01*
X398067965Y-449283894D01*
X398068115Y-449272582D01*
X398070928Y-449245136D01*
X398075864Y-449206447D01*
X398078906Y-449184785D01*
X398085137Y-449129430D01*
X398089876Y-449064015D01*
X398092385Y-448999729D01*
X398092599Y-448977459D01*
X398092471Y-448865823D01*
X398067768Y-448988091D01*
X398035037Y-449137188D01*
X398000613Y-449267841D01*
X397963621Y-449382854D01*
X397923183Y-449485033D01*
X397891767Y-449551591D01*
X397865251Y-449601844D01*
X397843484Y-449638991D01*
X397827660Y-449661236D01*
X397818970Y-449666781D01*
X397817696Y-449663227D01*
X397816047Y-449648825D01*
X397812122Y-449618257D01*
X397806560Y-449576421D01*
X397801747Y-449540959D01*
X397791073Y-449435216D01*
X397786877Y-449326129D01*
X397789155Y-449220809D01*
X397797902Y-449126367D01*
X397802056Y-449099658D01*
X397808802Y-449057752D01*
X397813095Y-449024500D01*
X397814339Y-449004899D01*
X397813743Y-449001859D01*
X397809448Y-449009422D01*
X397801601Y-449033482D01*
X397791494Y-449069828D01*
X397784741Y-449096352D01*
X397775643Y-449139184D01*
X397768716Y-449186561D01*
X397763867Y-449241049D01*
X397761005Y-449305215D01*
X397760039Y-449381626D01*
X397760877Y-449472848D01*
X397763427Y-449581449D01*
X397765280Y-449641963D01*
X397766671Y-449698798D01*
X397766069Y-449740607D01*
X397762777Y-449773586D01*
X397756098Y-449803935D01*
X397745336Y-449837850D01*
X397742272Y-449846631D01*
X397730292Y-449882974D01*
X397722918Y-449910092D01*
X397721407Y-449923189D01*
X397722027Y-449923713D01*
X397733126Y-449916642D01*
X397751417Y-449899271D01*
X397754707Y-449895763D01*
X397778190Y-449873392D01*
X397803428Y-449857538D01*
X397834251Y-449847390D01*
X397874488Y-449842140D01*
X397927972Y-449840980D01*
X397998532Y-449843100D01*
X398003156Y-449843303D01*
X398062655Y-449845144D01*
X398119424Y-449845464D01*
X398167655Y-449844322D01*
X398201542Y-449841781D01*
X398205765Y-449841165D01*
X398227349Y-449837335D01*
X398237183Y-449834299D01*
X398233285Y-449831443D01*
X398213672Y-449828156D01*
X398176362Y-449823824D01*
X398135833Y-449819547D01*
X398068324Y-449811024D01*
X398010585Y-449800851D01*
X397964564Y-449789695D01*
X397932209Y-449778224D01*
X397915466Y-449767102D01*
X397916284Y-449756998D01*
X397931990Y-449749777D01*
X397953750Y-449745045D01*
X397986057Y-449739466D01*
X397998440Y-449737594D01*
X398094640Y-449719127D01*
X398192710Y-449692111D01*
X398287342Y-449658510D01*
X398373223Y-449620289D01*
X398445045Y-449579411D01*
X398466251Y-449564561D01*
X398501404Y-449537193D01*
X398538131Y-449506802D01*
X398572669Y-449476739D01*
X398601257Y-449450353D01*
X398620133Y-449430993D01*
X398625732Y-449422575D01*
X398618131Y-449423902D01*
X398598194Y-449435888D01*
X398570219Y-449455944D01*
X398569913Y-449456177D01*
X398522529Y-449488433D01*
X398462964Y-449523483D01*
X398398422Y-449557539D01*
X398336108Y-449586813D01*
X398283225Y-449607517D01*
X398280190Y-449608507D01*
X398219816Y-449625277D01*
X398147230Y-449641455D01*
X398071449Y-449655185D01*
X398015472Y-449663052D01*
X397952764Y-449670467D01*
X397982893Y-449619003D01*
X398001946Y-449587584D01*
X398028548Y-449545171D01*
X398058463Y-449498473D01*
X398075807Y-449471850D01*
X398138592Y-449376162D01*
X398287772Y-449304526D01*
X398341249Y-449277959D01*
X398397383Y-449248548D01*
X398453190Y-449218036D01*
X398505686Y-449188166D01*
X398551885Y-449160681D01*
X398588804Y-449137324D01*
X398613458Y-449119838D01*
X398622863Y-449109966D01*
X398622579Y-449108980D01*
X398611890Y-449111527D01*
X398586234Y-449121665D01*
X398549759Y-449137669D01*
X398517114Y-449152809D01*
X398476273Y-449171424D01*
X398428561Y-449192033D01*
X398377859Y-449213101D01*
X398328049Y-449233092D01*
X398283010Y-449250472D01*
X398246625Y-449263705D01*
X398222774Y-449271257D01*
X398215327Y-449272178D01*
X398219743Y-449262398D01*
X398235149Y-449238829D01*
X398259371Y-449204382D01*
X398290238Y-449161971D01*
X398325578Y-449114507D01*
X398363216Y-449064903D01*
X398400982Y-449016069D01*
X398436703Y-448970919D01*
X398468205Y-448932364D01*
X398473862Y-448925637D01*
X398528538Y-448863476D01*
X398588520Y-448799493D01*
X398650710Y-448736649D01*
X398712010Y-448677902D01*
X398769323Y-448626211D01*
X398819549Y-448584535D01*
X398859592Y-448555834D01*
X398863640Y-448553358D01*
X398894603Y-448535705D01*
X398917424Y-448524245D01*
X398927074Y-448521462D01*
X398925215Y-448532728D01*
X398917435Y-448558409D01*
X398905393Y-448593053D01*
X398904788Y-448594705D01*
X398885015Y-448659224D01*
X398872770Y-448726774D01*
X398867721Y-448801830D01*
X398869535Y-448888871D01*
X398876369Y-448977116D01*
X398881903Y-449039568D01*
X398886527Y-449101401D01*
X398889816Y-449156211D01*
X398891345Y-449197594D01*
X398891403Y-449203839D01*
X398881213Y-449325204D01*
X398851082Y-449443755D01*
X398802329Y-449556209D01*
X398736273Y-449659280D01*
X398684101Y-449720297D01*
X398607328Y-449791529D01*
X398525807Y-449848605D01*
X398437008Y-449892389D01*
X398338403Y-449923746D01*
X398227462Y-449943543D01*
X398101656Y-449952644D01*
X398003756Y-449953121D01*
X397943628Y-449952336D01*
X397894376Y-449953362D01*
X397852925Y-449957726D01*
X397816197Y-449966957D01*
X397781115Y-449982582D01*
X397744601Y-450006130D01*
X397703579Y-450039129D01*
X397654971Y-450083107D01*
X397595700Y-450139591D01*
X397561251Y-450172860D01*
X397510914Y-450221797D01*
X397466038Y-450265951D01*
X397428788Y-450303149D01*
X397401328Y-450331219D01*
X397385823Y-450347986D01*
X397383164Y-450351654D01*
X397392523Y-450354989D01*
X397419570Y-450357326D01*
X397460755Y-450358717D01*
X397512528Y-450359214D01*
X397571340Y-450358870D01*
X397633641Y-450357738D01*
X397695879Y-450355871D01*
X397754507Y-450353320D01*
X397805973Y-450350139D01*
X397846728Y-450346381D01*
X397860223Y-450344577D01*
X397901103Y-450338449D01*
X397932779Y-450333996D01*
X397950336Y-450331896D01*
X397952305Y-450331867D01*
X397949978Y-450341709D01*
X397942278Y-450366792D01*
X397930720Y-450402236D01*
X397927188Y-450412788D01*
X397907103Y-450501182D01*
X397906826Y-450586509D01*
X397926314Y-450666533D01*
X397932452Y-450681419D01*
X397943635Y-450709570D01*
X397948453Y-450727835D01*
X397947340Y-450731747D01*
X397934862Y-450728356D01*
X397906893Y-450719191D01*
X397867919Y-450705757D01*
X397833643Y-450693597D01*
X397730020Y-450658931D01*
X397628380Y-450629658D01*
X397533371Y-450606931D01*
X397449637Y-450591902D01*
X397403044Y-450586777D01*
X397307678Y-450587424D01*
X397218490Y-450604559D01*
X397132729Y-450639271D01*
X397047642Y-450692649D01*
X396967570Y-450759201D01*
X396921145Y-450801110D01*
X396886593Y-450829791D01*
X396860844Y-450847143D01*
X396840830Y-450855066D01*
X396823481Y-450855463D01*
X396815221Y-450853544D01*
X396769492Y-450831389D01*
X396722507Y-450793593D01*
X396679728Y-450744692D01*
X396673405Y-450735801D01*
X396633705Y-450678159D01*
X396654441Y-450650386D01*
X396676907Y-450629376D01*
X396715849Y-450602583D01*
X396767860Y-450571758D01*
X396829531Y-450538651D01*
X396897454Y-450505012D01*
X396968220Y-450472593D01*
X397038422Y-450443144D01*
X397104651Y-450418416D01*
X397108846Y-450416977D01*
X397157003Y-450399264D01*
X397196264Y-450380841D01*
X397231615Y-450358270D01*
X397268045Y-450328113D01*
X397310540Y-450286929D01*
X397337078Y-450259611D01*
X397434308Y-450150750D01*
X397514873Y-450044403D01*
X397578153Y-449941694D01*
X397623531Y-449843749D01*
X397650388Y-449751693D01*
X397658214Y-449675160D01*
X397656659Y-449642774D01*
X397652452Y-449596222D01*
X397646281Y-449542340D01*
X397640569Y-449499775D01*
X397632565Y-449438199D01*
X397628725Y-449389062D01*
X397628846Y-449343992D01*
X397632723Y-449294617D01*
X397635076Y-449273521D01*
X397660933Y-449139277D01*
X397705490Y-449014747D01*
X397768073Y-448900882D01*
X397848007Y-448798629D01*
X397944621Y-448708938D01*
X398057239Y-448632756D01*
X398110077Y-448604556D01*
X398187633Y-448569346D01*
X398263115Y-448542514D01*
X398342420Y-448522555D01*
X398431452Y-448507965D01*
X398528301Y-448497883D01*
X398591862Y-448493729D01*
X398657384Y-448491474D01*
X398720798Y-448491043D01*
X398778036Y-448492363D01*
G37*
G36*
X401420253Y-448074619D02*
G01*
X401593722Y-448115187D01*
X401766012Y-448176674D01*
X401846949Y-448212930D01*
X402009819Y-448302330D01*
X402162765Y-448409955D01*
X402305329Y-448534990D01*
X402437051Y-448676618D01*
X402557472Y-448834023D01*
X402666133Y-449006389D01*
X402762574Y-449192900D01*
X402846338Y-449392741D01*
X402916964Y-449605094D01*
X402973993Y-449829143D01*
X403016967Y-450064074D01*
X403045427Y-450309069D01*
X403048591Y-450348996D01*
X403052477Y-450401923D01*
X403055204Y-450443755D01*
X403056759Y-450479258D01*
X403057128Y-450513197D01*
X403056297Y-450550338D01*
X403054254Y-450595447D01*
X403050983Y-450653290D01*
X403047562Y-450710486D01*
X403025140Y-450947024D01*
X402987056Y-451176766D01*
X402933916Y-451398506D01*
X402866329Y-451611040D01*
X402784902Y-451813161D01*
X402690244Y-452003663D01*
X402582961Y-452181341D01*
X402463661Y-452344989D01*
X402332953Y-452493401D01*
X402191444Y-452625372D01*
X402039742Y-452739696D01*
X402017360Y-452754460D01*
X401934684Y-452805581D01*
X401858790Y-452846434D01*
X401780958Y-452881309D01*
X401692465Y-452914490D01*
X401690232Y-452915269D01*
X401516136Y-452964764D01*
X401338527Y-452993428D01*
X401256356Y-452997012D01*
X401157946Y-453001305D01*
X400974934Y-452988437D01*
X400790032Y-452954868D01*
X400603781Y-452900642D01*
X400416720Y-452825802D01*
X400383802Y-452810522D01*
X400222570Y-452723967D01*
X400061048Y-452617325D01*
X399900386Y-452491724D01*
X399741733Y-452348292D01*
X399586239Y-452188159D01*
X399435054Y-452012451D01*
X399289328Y-451822297D01*
X399150212Y-451618826D01*
X399118531Y-451569086D01*
X399062687Y-451481910D01*
X399014026Y-451410080D01*
X398969881Y-451350098D01*
X398927586Y-451298465D01*
X398884474Y-451251682D01*
X398852477Y-451220037D01*
X398763552Y-451141051D01*
X398667589Y-451066656D01*
X398568513Y-450999336D01*
X398470252Y-450941576D01*
X398376733Y-450895862D01*
X398291883Y-450864679D01*
X398290187Y-450864188D01*
X398219347Y-450840121D01*
X398165214Y-450811955D01*
X398123234Y-450776035D01*
X398088854Y-450728709D01*
X398065492Y-450683906D01*
X398049947Y-450647289D01*
X398041815Y-450617768D01*
X398370562Y-450617768D01*
X398380055Y-450623165D01*
X398405751Y-450633115D01*
X398443479Y-450646093D01*
X398479440Y-450657604D01*
X398683404Y-450729599D01*
X398874616Y-450814644D01*
X399051197Y-450911788D01*
X399211264Y-451020081D01*
X399240247Y-451042301D01*
X399265464Y-451063756D01*
X399303493Y-451098427D01*
X399352276Y-451144331D01*
X399409754Y-451199485D01*
X399473867Y-451261906D01*
X399542557Y-451329612D01*
X399613764Y-451400620D01*
X399646410Y-451433454D01*
X399740249Y-451527599D01*
X399821593Y-451607952D01*
X399892462Y-451676258D01*
X399954876Y-451734267D01*
X400010853Y-451783727D01*
X400062414Y-451826383D01*
X400111578Y-451863985D01*
X400160363Y-451898280D01*
X400210790Y-451931015D01*
X400247121Y-451953320D01*
X400359898Y-452015411D01*
X400484852Y-452073827D01*
X400559419Y-452104331D01*
X400727066Y-452158934D01*
X400901203Y-452196135D01*
X401078682Y-452215853D01*
X401256356Y-452218008D01*
X401431076Y-452202518D01*
X401599696Y-452169302D01*
X401716462Y-452134049D01*
X401888863Y-452062675D01*
X402049470Y-451974065D01*
X402197466Y-451869194D01*
X402332030Y-451749039D01*
X402452347Y-451614576D01*
X402557597Y-451466780D01*
X402646962Y-451306629D01*
X402719624Y-451135097D01*
X402774764Y-450953161D01*
X402798371Y-450843387D01*
X402806412Y-450781161D01*
X402810950Y-450705239D01*
X402812134Y-450621289D01*
X402810110Y-450534980D01*
X402805026Y-450451979D01*
X402797030Y-450377955D01*
X402786267Y-450318578D01*
X402784555Y-450311783D01*
X402774344Y-450279598D01*
X402758668Y-450237998D01*
X402739212Y-450190650D01*
X402717658Y-450141224D01*
X402695689Y-450093390D01*
X402674987Y-450050815D01*
X402657235Y-450017170D01*
X402644116Y-449996122D01*
X402637489Y-449991124D01*
X402637386Y-450002848D01*
X402640836Y-450030621D01*
X402647180Y-450069651D01*
X402651865Y-450095253D01*
X402658300Y-450133818D01*
X402663167Y-450175284D01*
X402666648Y-450223182D01*
X402668922Y-450281041D01*
X402670172Y-450352394D01*
X402670578Y-450440771D01*
X402670574Y-450460632D01*
X402670315Y-450546442D01*
X402669534Y-450614711D01*
X402667993Y-450669160D01*
X402665451Y-450713510D01*
X402661669Y-450751484D01*
X402656407Y-450786801D01*
X402649426Y-450823184D01*
X402646270Y-450838070D01*
X402596492Y-451024426D01*
X402530701Y-451197236D01*
X402449302Y-451356084D01*
X402352702Y-451500553D01*
X402241305Y-451630226D01*
X402213347Y-451655666D01*
X402115516Y-451744686D01*
X401976315Y-451843108D01*
X401975740Y-451843515D01*
X401822382Y-451926297D01*
X401811138Y-451930775D01*
X401714830Y-451969126D01*
X401655847Y-451992614D01*
X401617412Y-452003217D01*
X401501464Y-452035204D01*
X401477068Y-452041934D01*
X401406603Y-452053558D01*
X401387836Y-452055303D01*
X401321249Y-452061496D01*
X401249193Y-452064712D01*
X401227065Y-452065699D01*
X401130115Y-452066116D01*
X401103568Y-452065147D01*
X401063776Y-452063694D01*
X401036457Y-452062697D01*
X400997129Y-452059289D01*
X400952155Y-452055392D01*
X400895677Y-452046747D01*
X400869871Y-452040269D01*
X400709775Y-452000080D01*
X400701839Y-451997155D01*
X400653113Y-451979195D01*
X400530848Y-451934130D01*
X400497153Y-451917429D01*
X400358022Y-451848467D01*
X400276964Y-451797296D01*
X400197468Y-451747112D01*
X401235903Y-451747112D01*
X401240079Y-451770378D01*
X401249193Y-451781666D01*
X401258834Y-451776381D01*
X401262442Y-451751495D01*
X401262484Y-451747112D01*
X401259586Y-451719797D01*
X401250692Y-451712181D01*
X401249193Y-451712558D01*
X401239543Y-451725240D01*
X401235903Y-451747112D01*
X400197468Y-451747112D01*
X400190422Y-451742664D01*
X400039334Y-451626533D01*
X400017508Y-451607274D01*
X400677720Y-451607274D01*
X400684594Y-451632084D01*
X400701839Y-451642415D01*
X400724389Y-451638414D01*
X400747177Y-451620226D01*
X400757569Y-451604976D01*
X400769241Y-451572773D01*
X400767648Y-451546758D01*
X400753346Y-451532153D01*
X400749735Y-451531190D01*
X400728124Y-451536429D01*
X400704833Y-451554965D01*
X400685995Y-451580316D01*
X400677745Y-451606003D01*
X400677720Y-451607274D01*
X400017508Y-451607274D01*
X400005236Y-451596446D01*
X399959564Y-451553836D01*
X399905336Y-451501644D01*
X399874519Y-451471308D01*
X401027598Y-451471308D01*
X401038804Y-451496820D01*
X401060738Y-451507768D01*
X401063776Y-451507890D01*
X401082909Y-451498761D01*
X401095571Y-451475885D01*
X401100892Y-451446030D01*
X401100162Y-451438448D01*
X401443229Y-451438448D01*
X401449253Y-451470659D01*
X401464477Y-451496892D01*
X401484622Y-451511760D01*
X401501464Y-451511828D01*
X401513908Y-451497012D01*
X401518098Y-451470615D01*
X401514387Y-451440500D01*
X401503127Y-451414532D01*
X401496785Y-451407244D01*
X401472469Y-451393516D01*
X401454143Y-451399324D01*
X401444266Y-451423236D01*
X401443229Y-451438448D01*
X401100162Y-451438448D01*
X401097996Y-451415963D01*
X401086014Y-451392452D01*
X401079373Y-451386938D01*
X401058872Y-451381965D01*
X401042813Y-451396391D01*
X401030367Y-451431021D01*
X401029268Y-451435725D01*
X401027598Y-451471308D01*
X399874519Y-451471308D01*
X399845572Y-451442813D01*
X399783290Y-451380287D01*
X399721509Y-451317007D01*
X399716941Y-451312272D01*
X399630727Y-451223751D01*
X399555884Y-451149127D01*
X399554752Y-451148048D01*
X400624560Y-451148048D01*
X400627698Y-451169971D01*
X400641292Y-451177688D01*
X400653113Y-451178297D01*
X400681021Y-451171511D01*
X400705343Y-451154328D01*
X400723123Y-451131502D01*
X400731408Y-451107792D01*
X400727242Y-451087955D01*
X400714932Y-451078763D01*
X400685065Y-451077424D01*
X400682939Y-451078462D01*
X400655821Y-451091706D01*
X400633540Y-451116750D01*
X400624561Y-451147696D01*
X400624560Y-451148048D01*
X399554752Y-451148048D01*
X399489891Y-451086198D01*
X399468966Y-451067456D01*
X400980374Y-451067456D01*
X400981557Y-451096313D01*
X400982966Y-451100540D01*
X400997129Y-451113730D01*
X401019119Y-451113399D01*
X401033758Y-451105429D01*
X401327023Y-451105429D01*
X401341591Y-451139720D01*
X401353303Y-451153130D01*
X401373593Y-451170274D01*
X401387836Y-451172258D01*
X401395832Y-451167293D01*
X401408792Y-451144195D01*
X401409460Y-451117558D01*
X401726223Y-451117558D01*
X401737657Y-451139315D01*
X401759634Y-451159673D01*
X401787511Y-451174090D01*
X401811138Y-451178297D01*
X401839552Y-451172186D01*
X401851361Y-451156172D01*
X401846487Y-451133728D01*
X401824852Y-451108329D01*
X401812903Y-451099101D01*
X401779697Y-451084593D01*
X401748744Y-451086146D01*
X401729975Y-451098940D01*
X401726223Y-451117558D01*
X401409460Y-451117558D01*
X401409594Y-451112229D01*
X401398335Y-451079905D01*
X401394781Y-451074342D01*
X401373961Y-451055804D01*
X401351780Y-451051692D01*
X401335457Y-451062505D01*
X401335078Y-451062756D01*
X401332729Y-451067529D01*
X401327023Y-451105429D01*
X401033758Y-451105429D01*
X401041746Y-451101080D01*
X401054607Y-451085266D01*
X401067333Y-451048572D01*
X401062283Y-451019289D01*
X401047807Y-451004400D01*
X401027207Y-451001807D01*
X401021089Y-451005737D01*
X401006740Y-451014953D01*
X400989949Y-451038586D01*
X400980374Y-451067456D01*
X399468966Y-451067456D01*
X399430617Y-451033108D01*
X400234383Y-451033108D01*
X400249698Y-451046651D01*
X400276964Y-451051557D01*
X400308854Y-451048162D01*
X400338040Y-451036802D01*
X400349744Y-451027830D01*
X400364807Y-451011114D01*
X400365112Y-451000977D01*
X400356082Y-450993236D01*
X402115213Y-450993236D01*
X402116564Y-451002809D01*
X402133627Y-451017609D01*
X402134313Y-451018148D01*
X402175835Y-451041906D01*
X402213347Y-451044816D01*
X402236443Y-451035004D01*
X402256093Y-451020797D01*
X402259260Y-451009829D01*
X402246293Y-450994532D01*
X402238629Y-450987334D01*
X402206147Y-450969930D01*
X402167528Y-450966843D01*
X402132476Y-450978586D01*
X402129289Y-450980825D01*
X402128371Y-450981470D01*
X402115213Y-450993236D01*
X400356082Y-450993236D01*
X400353028Y-450990618D01*
X400349143Y-450988945D01*
X400327239Y-450979514D01*
X400304744Y-450976287D01*
X400275279Y-450982422D01*
X400250086Y-450997657D01*
X400235049Y-451017242D01*
X400234383Y-451033108D01*
X399430617Y-451033108D01*
X399430228Y-451032760D01*
X399374375Y-450986609D01*
X399319813Y-450945543D01*
X399264022Y-450907359D01*
X399226443Y-450883375D01*
X399165912Y-450849357D01*
X401542554Y-450849357D01*
X401547269Y-450859954D01*
X401556344Y-450867051D01*
X401586425Y-450882694D01*
X401617412Y-450889026D01*
X401645491Y-450887368D01*
X401666849Y-450879043D01*
X401677670Y-450865375D01*
X401674143Y-450847686D01*
X401658528Y-450831607D01*
X401629004Y-450819591D01*
X401593693Y-450818583D01*
X401562850Y-450828277D01*
X401555710Y-450833728D01*
X401554446Y-450834693D01*
X401542554Y-450849357D01*
X399165912Y-450849357D01*
X399095888Y-450810004D01*
X398980073Y-450756926D01*
X400775317Y-450756926D01*
X400788808Y-450768993D01*
X400789357Y-450769417D01*
X400829566Y-450790007D01*
X400869871Y-450791700D01*
X400885829Y-450786487D01*
X400907442Y-450769530D01*
X400908459Y-450749173D01*
X400888800Y-450727605D01*
X400887996Y-450727037D01*
X400851023Y-450711832D01*
X400814563Y-450717830D01*
X400793193Y-450731743D01*
X400776508Y-450747169D01*
X400775317Y-450756926D01*
X398980073Y-450756926D01*
X398955978Y-450745883D01*
X398811578Y-450692684D01*
X398760035Y-450678152D01*
X400416802Y-450678152D01*
X400420059Y-450690379D01*
X400432145Y-450703541D01*
X400460867Y-450719900D01*
X400497153Y-450725234D01*
X400531112Y-450718854D01*
X400543826Y-450711310D01*
X400544289Y-450710792D01*
X401264059Y-450710792D01*
X401272969Y-450723572D01*
X401278207Y-450727584D01*
X401306555Y-450740237D01*
X401335457Y-450741160D01*
X401358360Y-450731591D01*
X401368712Y-450712766D01*
X401368804Y-450710486D01*
X401364045Y-450699245D01*
X401900407Y-450699245D01*
X401909077Y-450709028D01*
X401930575Y-450722234D01*
X401937211Y-450725527D01*
X401976315Y-450736607D01*
X402011175Y-450733105D01*
X402035908Y-450715812D01*
X402038451Y-450711957D01*
X402039458Y-450692693D01*
X402024744Y-450674189D01*
X401999511Y-450660998D01*
X401976020Y-450657325D01*
X401949765Y-450662368D01*
X401923385Y-450674601D01*
X401904709Y-450689682D01*
X401900407Y-450699245D01*
X401364045Y-450699245D01*
X401360553Y-450690996D01*
X401351987Y-450685043D01*
X401344424Y-450683689D01*
X401316764Y-450678737D01*
X401285644Y-450685450D01*
X401272161Y-450695688D01*
X401264059Y-450710792D01*
X400544289Y-450710792D01*
X400558519Y-450694869D01*
X400555516Y-450680612D01*
X400534561Y-450663864D01*
X400499163Y-450649607D01*
X400462181Y-450648504D01*
X400432005Y-450660527D01*
X400427824Y-450664202D01*
X400416802Y-450678152D01*
X398760035Y-450678152D01*
X398667551Y-450652077D01*
X398528762Y-450625733D01*
X398452961Y-450617674D01*
X398414210Y-450615603D01*
X398385250Y-450615409D01*
X398371165Y-450617086D01*
X398370562Y-450617768D01*
X398041815Y-450617768D01*
X398040909Y-450614480D01*
X398036759Y-450577021D01*
X398035873Y-450529069D01*
X398036951Y-450480606D01*
X398041111Y-450444867D01*
X398050162Y-450413352D01*
X398065912Y-450377559D01*
X398069804Y-450369588D01*
X398081130Y-450348940D01*
X400252438Y-450348940D01*
X400261902Y-450373831D01*
X400285736Y-450394426D01*
X400317097Y-450407940D01*
X400349143Y-450411586D01*
X400351974Y-450410601D01*
X400954154Y-450410601D01*
X400961093Y-450437880D01*
X400978237Y-450463137D01*
X401000073Y-450480503D01*
X401021089Y-450484114D01*
X401022721Y-450483575D01*
X401036463Y-450468511D01*
X401037569Y-450442999D01*
X401032869Y-450430210D01*
X401677819Y-450430210D01*
X401690961Y-450441878D01*
X401714830Y-450444684D01*
X401746934Y-450438870D01*
X401773555Y-450424033D01*
X401792392Y-450404085D01*
X401793533Y-450401328D01*
X402078790Y-450401328D01*
X402084665Y-450415611D01*
X402109721Y-450422391D01*
X402129289Y-450423257D01*
X402160954Y-450417832D01*
X402186830Y-450403843D01*
X402203984Y-450385229D01*
X402209478Y-450365930D01*
X402200377Y-450349886D01*
X402188377Y-450343967D01*
X402151173Y-450342371D01*
X402114192Y-450357620D01*
X402091301Y-450378606D01*
X402078790Y-450401328D01*
X401793533Y-450401328D01*
X401801145Y-450382935D01*
X401797514Y-450364494D01*
X401779198Y-450352671D01*
X401769972Y-450350938D01*
X401742024Y-450354787D01*
X401713298Y-450375102D01*
X401708928Y-450379358D01*
X401683810Y-450409397D01*
X401677819Y-450430210D01*
X401032869Y-450430210D01*
X401026633Y-450413239D01*
X401014305Y-450395652D01*
X400989685Y-450375594D01*
X400969322Y-450374384D01*
X400956647Y-450391169D01*
X400954154Y-450410601D01*
X400351974Y-450410601D01*
X400375032Y-450402578D01*
X400377896Y-450400029D01*
X400388835Y-450385593D01*
X400386070Y-450372270D01*
X400368014Y-450353247D01*
X400366732Y-450352071D01*
X400362040Y-450348881D01*
X401316452Y-450348881D01*
X401316758Y-450377311D01*
X401328402Y-450400029D01*
X401344424Y-450411224D01*
X401358639Y-450406694D01*
X401375584Y-450384589D01*
X401378733Y-450379493D01*
X401391391Y-450346480D01*
X401388913Y-450318419D01*
X401372273Y-450300393D01*
X401362991Y-450297337D01*
X401341801Y-450302265D01*
X401325544Y-450321655D01*
X401316452Y-450348881D01*
X400362040Y-450348881D01*
X400335817Y-450331054D01*
X400303925Y-450320708D01*
X400276109Y-450321171D01*
X400257424Y-450332583D01*
X400252438Y-450348940D01*
X398081130Y-450348940D01*
X398097812Y-450318529D01*
X398127343Y-450279751D01*
X398163051Y-450249462D01*
X398209591Y-450223870D01*
X398225995Y-450217341D01*
X400605399Y-450217341D01*
X400610830Y-450240389D01*
X400629453Y-450263374D01*
X400655434Y-450282430D01*
X400682939Y-450293692D01*
X400706134Y-450293294D01*
X400713160Y-450288747D01*
X400720394Y-450268135D01*
X400710246Y-450241934D01*
X400686886Y-450216493D01*
X400655665Y-450197017D01*
X400628901Y-450192568D01*
X400610665Y-450203102D01*
X400605399Y-450217341D01*
X398225995Y-450217341D01*
X398271619Y-450199182D01*
X398284537Y-450194628D01*
X398447550Y-450129225D01*
X398594905Y-450051574D01*
X401039210Y-450051574D01*
X401046156Y-450075298D01*
X401063094Y-450099258D01*
X401084181Y-450117302D01*
X401103568Y-450123281D01*
X401106643Y-450122520D01*
X401119638Y-450107419D01*
X401124121Y-450080405D01*
X401120013Y-450049091D01*
X401108057Y-450022525D01*
X401523836Y-450022525D01*
X401527533Y-450054537D01*
X401528285Y-450056614D01*
X401540460Y-450078561D01*
X401555710Y-450080795D01*
X401572776Y-450069904D01*
X401597107Y-450042318D01*
X401610214Y-450010743D01*
X401611000Y-449981163D01*
X401598373Y-449959559D01*
X401593546Y-449956395D01*
X401569969Y-449953620D01*
X401548317Y-449967057D01*
X401531852Y-449991695D01*
X401523836Y-450022525D01*
X401108057Y-450022525D01*
X401107716Y-450021767D01*
X401085123Y-450001030D01*
X401063444Y-449999523D01*
X401046797Y-450015454D01*
X401039300Y-450047031D01*
X401039210Y-450051574D01*
X398594905Y-450051574D01*
X398596556Y-450050704D01*
X398735905Y-449956679D01*
X398777796Y-449924033D01*
X398824536Y-449884669D01*
X398867833Y-449843942D01*
X398909647Y-449799367D01*
X398951935Y-449748458D01*
X398996655Y-449688730D01*
X399045765Y-449617698D01*
X399101224Y-449532878D01*
X399162370Y-449435987D01*
X399292806Y-449235905D01*
X399422682Y-449055526D01*
X399553473Y-448893388D01*
X399686655Y-448748027D01*
X399823703Y-448617982D01*
X399966095Y-448501789D01*
X400115304Y-448397986D01*
X400272808Y-448305110D01*
X400337494Y-448271182D01*
X400524481Y-448185985D01*
X400708448Y-448121778D01*
X400889702Y-448078550D01*
X401068550Y-448056289D01*
X401245298Y-448054982D01*
X401420253Y-448074619D01*
G37*
D14*
%TO.C,C5*%
X395940000Y-455440000D02*
X398290000Y-455440000D01*
X395940000Y-461195563D02*
X395940000Y-455440000D01*
X397004437Y-462260000D02*
X395940000Y-461195563D01*
X397004437Y-462260000D02*
X398290000Y-462260000D01*
X401695563Y-462260000D02*
X400410000Y-462260000D01*
X401695563Y-462260000D02*
X402760000Y-461195563D01*
X402760000Y-455440000D02*
X400410000Y-455440000D01*
X402760000Y-461195563D02*
X402760000Y-455440000D01*
%TO.C,J8*%
X372310000Y-402330000D02*
X372310000Y-414550000D01*
X372310000Y-403830000D02*
X435490000Y-403830000D01*
X372310000Y-405630000D02*
X372310000Y-403830000D01*
X372310000Y-414550000D02*
X435490000Y-414550000D01*
X374960000Y-402330000D02*
X375210000Y-403830000D01*
X375210000Y-403830000D02*
X376710000Y-403830000D01*
X376710000Y-403830000D02*
X376960000Y-402330000D01*
X376960000Y-402330000D02*
X374960000Y-402330000D01*
X380040000Y-402330000D02*
X380290000Y-403830000D01*
X380290000Y-403830000D02*
X381790000Y-403830000D01*
X381790000Y-403830000D02*
X382040000Y-402330000D01*
X382040000Y-402330000D02*
X380040000Y-402330000D01*
X385120000Y-402330000D02*
X385370000Y-403830000D01*
X385370000Y-403830000D02*
X386870000Y-403830000D01*
X386870000Y-403830000D02*
X387120000Y-402330000D01*
X387120000Y-402330000D02*
X385120000Y-402330000D01*
X390200000Y-402330000D02*
X390450000Y-403830000D01*
X390450000Y-403830000D02*
X391950000Y-403830000D01*
X391950000Y-403830000D02*
X392200000Y-402330000D01*
X392200000Y-402330000D02*
X390200000Y-402330000D01*
X395280000Y-402330000D02*
X395530000Y-403830000D01*
X395530000Y-403830000D02*
X397030000Y-403830000D01*
X397030000Y-403830000D02*
X397280000Y-402330000D01*
X397280000Y-402330000D02*
X395280000Y-402330000D01*
X400360000Y-402330000D02*
X400610000Y-403830000D01*
X400610000Y-403830000D02*
X402110000Y-403830000D01*
X402110000Y-403830000D02*
X402360000Y-402330000D01*
X402360000Y-402330000D02*
X400360000Y-402330000D01*
X405440000Y-402330000D02*
X405690000Y-403830000D01*
X405690000Y-403830000D02*
X407190000Y-403830000D01*
X407190000Y-403830000D02*
X407440000Y-402330000D01*
X407440000Y-402330000D02*
X405440000Y-402330000D01*
X410520000Y-402330000D02*
X410770000Y-403830000D01*
X410770000Y-403830000D02*
X412270000Y-403830000D01*
X412270000Y-403830000D02*
X412520000Y-402330000D01*
X412520000Y-402330000D02*
X410520000Y-402330000D01*
X415600000Y-402330000D02*
X415850000Y-403830000D01*
X415850000Y-403830000D02*
X417350000Y-403830000D01*
X417350000Y-403830000D02*
X417600000Y-402330000D01*
X417600000Y-402330000D02*
X415600000Y-402330000D01*
X420680000Y-402330000D02*
X420930000Y-403830000D01*
X420930000Y-403830000D02*
X422430000Y-403830000D01*
X422430000Y-403830000D02*
X422680000Y-402330000D01*
X422680000Y-402330000D02*
X420680000Y-402330000D01*
X425760000Y-402330000D02*
X426010000Y-403830000D01*
X426010000Y-403830000D02*
X427510000Y-403830000D01*
X427510000Y-403830000D02*
X427760000Y-402330000D01*
X427760000Y-402330000D02*
X425760000Y-402330000D01*
X430840000Y-402330000D02*
X431090000Y-403830000D01*
X431090000Y-403830000D02*
X432590000Y-403830000D01*
X431540000Y-415350000D02*
X431840000Y-414750000D01*
X431840000Y-414750000D02*
X432140000Y-415350000D01*
X432140000Y-415350000D02*
X431540000Y-415350000D01*
X432590000Y-403830000D02*
X432840000Y-402330000D01*
X432840000Y-402330000D02*
X430840000Y-402330000D01*
X435490000Y-402330000D02*
X372310000Y-402330000D01*
X435490000Y-403830000D02*
X435490000Y-405630000D01*
X435490000Y-405630000D02*
X372310000Y-405630000D01*
X435490000Y-414550000D02*
X435490000Y-402330000D01*
%TO.C,C2*%
X389211252Y-442190000D02*
X387788748Y-442190000D01*
X389211252Y-444010000D02*
X387788748Y-444010000D01*
%TO.C,U7*%
X391730000Y-470780000D02*
X391730000Y-476080000D01*
X391730000Y-476080000D02*
X396930000Y-476080000D01*
X396930000Y-470780000D02*
X391730000Y-470780000D01*
X396930000Y-472430000D02*
X396930000Y-470780000D01*
X396930000Y-476080000D02*
X396930000Y-474430000D01*
X396930000Y-474430000D02*
G75*
G02*
X396930000Y-472430000I0J1000000D01*
G01*
%TD*%
M02*
