%TF.GenerationSoftware,KiCad,Pcbnew,9.0.6*%
%TF.CreationDate,2026-03-14T08:37:53-04:00*%
%TF.ProjectId,FigCNC-NoSpindle,46696743-4e43-42d4-9e6f-5370696e646c,rev?*%
%TF.SameCoordinates,Original*%
%TF.FileFunction,Soldermask,Top*%
%TF.FilePolarity,Negative*%
%FSLAX46Y46*%
G04 Gerber Fmt 4.6, Leading zero omitted, Abs format (unit mm)*
G04 Created by KiCad (PCBNEW 9.0.6) date 2026-03-14 08:37:53*
%MOMM*%
%LPD*%
G01*
G04 APERTURE LIST*
G04 Aperture macros list*
%AMRoundRect*
0 Rectangle with rounded corners*
0 $1 Rounding radius*
0 $2 $3 $4 $5 $6 $7 $8 $9 X,Y pos of 4 corners*
0 Add a 4 corners polygon primitive as box body*
4,1,4,$2,$3,$4,$5,$6,$7,$8,$9,$2,$3,0*
0 Add four circle primitives for the rounded corners*
1,1,$1+$1,$2,$3*
1,1,$1+$1,$4,$5*
1,1,$1+$1,$6,$7*
1,1,$1+$1,$8,$9*
0 Add four rect primitives between the rounded corners*
20,1,$1+$1,$2,$3,$4,$5,0*
20,1,$1+$1,$4,$5,$6,$7,0*
20,1,$1+$1,$6,$7,$8,$9,0*
20,1,$1+$1,$8,$9,$2,$3,0*%
G04 Aperture macros list end*
%ADD10C,3.200000*%
%ADD11RoundRect,0.250000X-0.550000X0.650000X-0.550000X-0.650000X0.550000X-0.650000X0.550000X0.650000X0*%
%ADD12C,1.800000*%
%ADD13RoundRect,0.250000X0.625000X-0.400000X0.625000X0.400000X-0.625000X0.400000X-0.625000X-0.400000X0*%
%ADD14R,0.600000X1.550000*%
%ADD15R,3.100000X2.600000*%
%ADD16RoundRect,0.250000X0.412500X0.650000X-0.412500X0.650000X-0.412500X-0.650000X0.412500X-0.650000X0*%
%ADD17R,1.500000X2.200000*%
%ADD18RoundRect,0.250000X-0.412500X-0.650000X0.412500X-0.650000X0.412500X0.650000X-0.412500X0.650000X0*%
%ADD19RoundRect,0.438500X-0.438500X0.828500X-0.438500X-0.828500X0.438500X-0.828500X0.438500X0.828500X0*%
%ADD20R,1.800000X1.800000*%
%ADD21C,2.000000*%
%ADD22R,3.500000X3.500000*%
%ADD23RoundRect,0.750000X-0.750000X-1.000000X0.750000X-1.000000X0.750000X1.000000X-0.750000X1.000000X0*%
%ADD24RoundRect,0.875000X-0.875000X-0.875000X0.875000X-0.875000X0.875000X0.875000X-0.875000X0.875000X0*%
%ADD25RoundRect,0.250000X-1.050000X1.050000X-1.050000X-1.050000X1.050000X-1.050000X1.050000X1.050000X0*%
%ADD26C,2.600000*%
%ADD27RoundRect,0.102000X-0.900000X-0.900000X0.900000X-0.900000X0.900000X0.900000X-0.900000X0.900000X0*%
%ADD28C,2.004000*%
%ADD29RoundRect,0.250000X-0.725000X0.600000X-0.725000X-0.600000X0.725000X-0.600000X0.725000X0.600000X0*%
%ADD30O,1.950000X1.700000*%
%ADD31RoundRect,0.250000X0.550000X-1.412500X0.550000X1.412500X-0.550000X1.412500X-0.550000X-1.412500X0*%
%ADD32RoundRect,0.249999X0.790001X1.550001X-0.790001X1.550001X-0.790001X-1.550001X0.790001X-1.550001X0*%
%ADD33O,2.080000X3.600000*%
%ADD34C,0.900000*%
%ADD35C,0.600000*%
G04 APERTURE END LIST*
D10*
%TO.C,REF\u002A\u002A*%
X440750000Y-410000000D03*
%TD*%
D11*
%TO.C,U4*%
X383475000Y-421795000D03*
D12*
X380935000Y-421795000D03*
X380935000Y-429415000D03*
X383475000Y-429415000D03*
%TD*%
D13*
%TO.C,R2*%
X393375000Y-452700000D03*
X393375000Y-449600000D03*
%TD*%
D14*
%TO.C,U2*%
X386220000Y-451625000D03*
X387490000Y-451625000D03*
X388760000Y-451625000D03*
X390030000Y-451625000D03*
X390030000Y-446225000D03*
X388760000Y-446225000D03*
X387490000Y-446225000D03*
X386220000Y-446225000D03*
D15*
X388125000Y-448925000D03*
%TD*%
D11*
%TO.C,U6*%
X397475000Y-421795000D03*
D12*
X394935000Y-421795000D03*
X394935000Y-429415000D03*
X397475000Y-429415000D03*
%TD*%
D16*
%TO.C,C3*%
X390062500Y-440650000D03*
X386937500Y-440650000D03*
%TD*%
D17*
%TO.C,L1*%
X380175000Y-461775000D03*
X386575000Y-461775000D03*
%TD*%
D18*
%TO.C,C1*%
X426137500Y-457800000D03*
X429262500Y-457800000D03*
%TD*%
D10*
%TO.C,REF\u002A\u002A*%
X367250000Y-472750000D03*
%TD*%
D13*
%TO.C,R1*%
X393400000Y-458300000D03*
X393400000Y-455200000D03*
%TD*%
D19*
%TO.C,D2*%
X383250000Y-450135000D03*
X383250000Y-445865000D03*
%TD*%
D11*
%TO.C,U5*%
X390600000Y-421750000D03*
D12*
X388060000Y-421750000D03*
X388060000Y-429370000D03*
X390600000Y-429370000D03*
%TD*%
D20*
%TO.C,G1*%
X439950000Y-448050000D03*
D21*
X439950000Y-445510000D03*
X439950000Y-442970000D03*
X439950000Y-440430000D03*
X439950000Y-437890000D03*
X439950000Y-435350000D03*
%TD*%
D18*
%TO.C,C4*%
X380637500Y-454300000D03*
X383762500Y-454300000D03*
%TD*%
D22*
%TO.C,J7*%
X375550000Y-460342500D03*
D23*
X369550000Y-460342500D03*
D24*
X372550000Y-465042500D03*
%TD*%
D10*
%TO.C,REF\u002A\u002A*%
X367250000Y-410000000D03*
%TD*%
D25*
%TO.C,J1*%
X367850000Y-430650000D03*
D26*
X367850000Y-435650000D03*
X367850000Y-440650000D03*
X367850000Y-445650000D03*
X367850000Y-450650000D03*
%TD*%
D27*
%TO.C,U1*%
X408227500Y-430485000D03*
D28*
X408227500Y-433025000D03*
X408227500Y-435565000D03*
X408227500Y-438105000D03*
X408227500Y-440645000D03*
X408227500Y-443185000D03*
X408227500Y-445725000D03*
X408227500Y-448265000D03*
X408227500Y-450805000D03*
X408227500Y-453345000D03*
X408227500Y-455885000D03*
X408227500Y-458425000D03*
X408227500Y-460965000D03*
X408227500Y-463505000D03*
X408227500Y-466045000D03*
X408227500Y-468585000D03*
X408227500Y-471125000D03*
X408227500Y-473665000D03*
X408227500Y-476205000D03*
X433627500Y-430485000D03*
X433627500Y-433025000D03*
X433627500Y-435565000D03*
X433627500Y-438105000D03*
X433627500Y-440645000D03*
X433627500Y-443185000D03*
X433627500Y-445725000D03*
X433627500Y-448265000D03*
X433627500Y-450805000D03*
X433627500Y-453345000D03*
X433627500Y-455885000D03*
X433627500Y-458425000D03*
X433627500Y-460965000D03*
X433627500Y-463505000D03*
X433627500Y-466045000D03*
X433627500Y-468585000D03*
X433627500Y-471125000D03*
X433627500Y-473665000D03*
X433627500Y-476205000D03*
%TD*%
D29*
%TO.C,J5*%
X439950000Y-453250000D03*
D30*
X439950000Y-455750000D03*
X439950000Y-458250000D03*
X439950000Y-460750000D03*
%TD*%
D20*
%TO.C,J4*%
X439950000Y-422490000D03*
D21*
X439950000Y-425030000D03*
X439950000Y-427570000D03*
X439950000Y-430110000D03*
%TD*%
D11*
%TO.C,U3*%
X376475000Y-421795000D03*
D12*
X373935000Y-421795000D03*
X373935000Y-429415000D03*
X376475000Y-429415000D03*
%TD*%
D10*
%TO.C,REF\u002A\u002A*%
X440650000Y-472850000D03*
%TD*%
D31*
%TO.C,C5*%
X399350000Y-461387500D03*
X399350000Y-456312500D03*
%TD*%
D32*
%TO.C,J8*%
X431840000Y-412440000D03*
D33*
X426760000Y-412440000D03*
X421680000Y-412440000D03*
X416600000Y-412440000D03*
X411520000Y-412440000D03*
X406440000Y-412440000D03*
X401360000Y-412440000D03*
X396280000Y-412440000D03*
X391200000Y-412440000D03*
X386120000Y-412440000D03*
X381040000Y-412440000D03*
X375960000Y-412440000D03*
%TD*%
D16*
%TO.C,C2*%
X390062500Y-443100000D03*
X386937500Y-443100000D03*
%TD*%
D11*
%TO.C,U7*%
X395600000Y-469620000D03*
D12*
X393060000Y-469620000D03*
X393060000Y-477240000D03*
X395600000Y-477240000D03*
%TD*%
D34*
%TO.C,J6*%
X416950000Y-478112500D03*
X424950000Y-478112500D03*
%TD*%
D35*
X404250000Y-478450000D03*
X428050000Y-463750000D03*
X437325000Y-449575000D03*
X403550000Y-428400000D03*
X424550000Y-459900000D03*
M02*
