M48
; DRILL file {KiCad 9.0.6} date 2026-03-14T08:37:56-0400
; FORMAT={-:-/ absolute / metric / decimal}
; #@! TF.CreationDate,2026-03-14T08:37:56-04:00
; #@! TF.GenerationSoftware,Kicad,Pcbnew,9.0.6
; #@! TF.FileFunction,Plated,1,2,PTH
FMAT,2
METRIC
; #@! TA.AperFunction,Plated,PTH,ViaDrill
T1C0.300
; #@! TA.AperFunction,Plated,PTH,ComponentDrill
T2C0.300
; #@! TA.AperFunction,Plated,PTH,ComponentDrill
T3C0.800
; #@! TA.AperFunction,Plated,PTH,ComponentDrill
T4C0.900
; #@! TA.AperFunction,Plated,PTH,ComponentDrill
T5C0.950
; #@! TA.AperFunction,Plated,PTH,ComponentDrill
T6C1.000
; #@! TA.AperFunction,Plated,PTH,ComponentDrill
T7C1.010
; #@! TA.AperFunction,Plated,PTH,ComponentDrill
T8C1.300
; #@! TA.AperFunction,Plated,PTH,ComponentDrill
T9C1.400
%
G90
G05
T1
X403.55Y-428.4
X404.25Y-478.45
X424.55Y-459.9
X428.05Y-463.75
X437.325Y-449.575
T2
X386.325Y-448.325
X386.325Y-449.525
X387.525Y-448.325
X387.525Y-449.525
X388.825Y-448.325
X388.825Y-449.525
X389.925Y-448.325
X389.925Y-449.525
T3
X373.935Y-421.795
X373.935Y-429.415
X376.475Y-421.795
X376.475Y-429.415
X380.935Y-421.795
X380.935Y-429.415
X383.475Y-421.795
X383.475Y-429.415
X388.06Y-421.75
X388.06Y-429.37
X390.6Y-421.75
X390.6Y-429.37
X393.06Y-469.62
X393.06Y-477.24
X394.935Y-421.795
X394.935Y-429.415
X395.6Y-469.62
X395.6Y-477.24
X397.475Y-421.795
X397.475Y-429.415
T4
X408.227Y-430.485
X408.227Y-433.025
X408.227Y-435.565
X408.227Y-438.105
X408.227Y-440.645
X408.227Y-443.185
X408.227Y-445.725
X408.227Y-448.265
X408.227Y-450.805
X408.227Y-453.345
X408.227Y-455.885
X408.227Y-458.425
X408.227Y-460.965
X408.227Y-463.505
X408.227Y-466.045
X408.227Y-468.585
X408.227Y-471.125
X408.227Y-473.665
X408.227Y-476.205
X433.627Y-430.485
X433.627Y-433.025
X433.627Y-435.565
X433.627Y-438.105
X433.627Y-440.645
X433.627Y-443.185
X433.627Y-445.725
X433.627Y-448.265
X433.627Y-450.805
X433.627Y-453.345
X433.627Y-455.885
X433.627Y-458.425
X433.627Y-460.965
X433.627Y-463.505
X433.627Y-466.045
X433.627Y-468.585
X433.627Y-471.125
X433.627Y-473.665
X433.627Y-476.205
T5
X439.95Y-453.25
X439.95Y-455.75
X439.95Y-458.25
X439.95Y-460.75
T7
X439.95Y-422.49
X439.95Y-425.03
X439.95Y-427.57
X439.95Y-430.11
X439.95Y-435.35
X439.95Y-437.89
X439.95Y-440.43
X439.95Y-442.97
X439.95Y-445.51
X439.95Y-448.05
T8
X367.85Y-430.65
X367.85Y-435.65
X367.85Y-440.65
X367.85Y-445.65
X367.85Y-450.65
T9
X375.96Y-412.44
X381.04Y-412.44
X386.12Y-412.44
X391.2Y-412.44
X396.28Y-412.44
X401.36Y-412.44
X406.44Y-412.44
X411.52Y-412.44
X416.6Y-412.44
X421.68Y-412.44
X426.76Y-412.44
X431.84Y-412.44
T6
G00X369.55Y-459.342
M15
G01X369.55Y-461.342
M16
G05
G00X371.55Y-465.042
M15
G01X373.55Y-465.042
M16
G05
G00X375.55Y-459.342
M15
G01X375.55Y-461.342
M16
G05
M30
