%TF.GenerationSoftware,KiCad,Pcbnew,9.0.6*%
%TF.CreationDate,2026-03-14T08:37:53-04:00*%
%TF.ProjectId,FigCNC-NoSpindle,46696743-4e43-42d4-9e6f-5370696e646c,rev?*%
%TF.SameCoordinates,Original*%
%TF.FileFunction,Soldermask,Bot*%
%TF.FilePolarity,Negative*%
%FSLAX46Y46*%
G04 Gerber Fmt 4.6, Leading zero omitted, Abs format (unit mm)*
G04 Created by KiCad (PCBNEW 9.0.6) date 2026-03-14 08:37:53*
%MOMM*%
%LPD*%
G01*
G04 APERTURE LIST*
G04 Aperture macros list*
%AMRoundRect*
0 Rectangle with rounded corners*
0 $1 Rounding radius*
0 $2 $3 $4 $5 $6 $7 $8 $9 X,Y pos of 4 corners*
0 Add a 4 corners polygon primitive as box body*
4,1,4,$2,$3,$4,$5,$6,$7,$8,$9,$2,$3,0*
0 Add four circle primitives for the rounded corners*
1,1,$1+$1,$2,$3*
1,1,$1+$1,$4,$5*
1,1,$1+$1,$6,$7*
1,1,$1+$1,$8,$9*
0 Add four rect primitives between the rounded corners*
20,1,$1+$1,$2,$3,$4,$5,0*
20,1,$1+$1,$4,$5,$6,$7,0*
20,1,$1+$1,$6,$7,$8,$9,0*
20,1,$1+$1,$8,$9,$2,$3,0*%
G04 Aperture macros list end*
%ADD10C,3.200000*%
%ADD11RoundRect,0.250000X-0.550000X0.650000X-0.550000X-0.650000X0.550000X-0.650000X0.550000X0.650000X0*%
%ADD12C,1.800000*%
%ADD13R,1.800000X1.800000*%
%ADD14C,2.000000*%
%ADD15R,3.500000X3.500000*%
%ADD16RoundRect,0.750000X-0.750000X-1.000000X0.750000X-1.000000X0.750000X1.000000X-0.750000X1.000000X0*%
%ADD17RoundRect,0.875000X-0.875000X-0.875000X0.875000X-0.875000X0.875000X0.875000X-0.875000X0.875000X0*%
%ADD18RoundRect,0.250000X-1.050000X1.050000X-1.050000X-1.050000X1.050000X-1.050000X1.050000X1.050000X0*%
%ADD19C,2.600000*%
%ADD20RoundRect,0.102000X-0.900000X-0.900000X0.900000X-0.900000X0.900000X0.900000X-0.900000X0.900000X0*%
%ADD21C,2.004000*%
%ADD22RoundRect,0.250000X-0.725000X0.600000X-0.725000X-0.600000X0.725000X-0.600000X0.725000X0.600000X0*%
%ADD23O,1.950000X1.700000*%
%ADD24RoundRect,0.249999X0.790001X1.550001X-0.790001X1.550001X-0.790001X-1.550001X0.790001X-1.550001X0*%
%ADD25O,2.080000X3.600000*%
%ADD26RoundRect,0.250000X-0.400000X-0.625000X0.400000X-0.625000X0.400000X0.625000X-0.400000X0.625000X0*%
%ADD27RoundRect,0.250000X0.400000X0.625000X-0.400000X0.625000X-0.400000X-0.625000X0.400000X-0.625000X0*%
%ADD28RoundRect,0.250000X0.625000X-0.400000X0.625000X0.400000X-0.625000X0.400000X-0.625000X-0.400000X0*%
%ADD29RoundRect,0.250000X-0.625000X0.400000X-0.625000X-0.400000X0.625000X-0.400000X0.625000X0.400000X0*%
%ADD30C,0.900000*%
%ADD31R,0.700000X1.600000*%
%ADD32R,1.200000X2.200000*%
%ADD33R,1.600000X1.400000*%
%ADD34R,1.200000X1.400000*%
%ADD35C,0.600000*%
G04 APERTURE END LIST*
D10*
%TO.C,REF\u002A\u002A*%
X440750000Y-410000000D03*
%TD*%
D11*
%TO.C,U4*%
X383475000Y-421795000D03*
D12*
X380935000Y-421795000D03*
X380935000Y-429415000D03*
X383475000Y-429415000D03*
%TD*%
D11*
%TO.C,U6*%
X397475000Y-421795000D03*
D12*
X394935000Y-421795000D03*
X394935000Y-429415000D03*
X397475000Y-429415000D03*
%TD*%
D10*
%TO.C,REF\u002A\u002A*%
X367250000Y-472750000D03*
%TD*%
D11*
%TO.C,U5*%
X390600000Y-421750000D03*
D12*
X388060000Y-421750000D03*
X388060000Y-429370000D03*
X390600000Y-429370000D03*
%TD*%
D13*
%TO.C,G1*%
X439950000Y-448050000D03*
D14*
X439950000Y-445510000D03*
X439950000Y-442970000D03*
X439950000Y-440430000D03*
X439950000Y-437890000D03*
X439950000Y-435350000D03*
%TD*%
D15*
%TO.C,J7*%
X375550000Y-460342500D03*
D16*
X369550000Y-460342500D03*
D17*
X372550000Y-465042500D03*
%TD*%
D10*
%TO.C,REF\u002A\u002A*%
X367250000Y-410000000D03*
%TD*%
D18*
%TO.C,J1*%
X367850000Y-430650000D03*
D19*
X367850000Y-435650000D03*
X367850000Y-440650000D03*
X367850000Y-445650000D03*
X367850000Y-450650000D03*
%TD*%
D20*
%TO.C,U1*%
X408227500Y-430485000D03*
D21*
X408227500Y-433025000D03*
X408227500Y-435565000D03*
X408227500Y-438105000D03*
X408227500Y-440645000D03*
X408227500Y-443185000D03*
X408227500Y-445725000D03*
X408227500Y-448265000D03*
X408227500Y-450805000D03*
X408227500Y-453345000D03*
X408227500Y-455885000D03*
X408227500Y-458425000D03*
X408227500Y-460965000D03*
X408227500Y-463505000D03*
X408227500Y-466045000D03*
X408227500Y-468585000D03*
X408227500Y-471125000D03*
X408227500Y-473665000D03*
X408227500Y-476205000D03*
X433627500Y-430485000D03*
X433627500Y-433025000D03*
X433627500Y-435565000D03*
X433627500Y-438105000D03*
X433627500Y-440645000D03*
X433627500Y-443185000D03*
X433627500Y-445725000D03*
X433627500Y-448265000D03*
X433627500Y-450805000D03*
X433627500Y-453345000D03*
X433627500Y-455885000D03*
X433627500Y-458425000D03*
X433627500Y-460965000D03*
X433627500Y-463505000D03*
X433627500Y-466045000D03*
X433627500Y-468585000D03*
X433627500Y-471125000D03*
X433627500Y-473665000D03*
X433627500Y-476205000D03*
%TD*%
D22*
%TO.C,J5*%
X439950000Y-453250000D03*
D23*
X439950000Y-455750000D03*
X439950000Y-458250000D03*
X439950000Y-460750000D03*
%TD*%
D13*
%TO.C,J4*%
X439950000Y-422490000D03*
D14*
X439950000Y-425030000D03*
X439950000Y-427570000D03*
X439950000Y-430110000D03*
%TD*%
D11*
%TO.C,U3*%
X376475000Y-421795000D03*
D12*
X373935000Y-421795000D03*
X373935000Y-429415000D03*
X376475000Y-429415000D03*
%TD*%
D10*
%TO.C,REF\u002A\u002A*%
X440650000Y-472850000D03*
%TD*%
D24*
%TO.C,J8*%
X431840000Y-412440000D03*
D25*
X426760000Y-412440000D03*
X421680000Y-412440000D03*
X416600000Y-412440000D03*
X411520000Y-412440000D03*
X406440000Y-412440000D03*
X401360000Y-412440000D03*
X396280000Y-412440000D03*
X391200000Y-412440000D03*
X386120000Y-412440000D03*
X381040000Y-412440000D03*
X375960000Y-412440000D03*
%TD*%
D11*
%TO.C,U7*%
X395600000Y-469620000D03*
D12*
X393060000Y-469620000D03*
X393060000Y-477240000D03*
X395600000Y-477240000D03*
%TD*%
D26*
%TO.C,R13*%
X411300000Y-443100000D03*
X414400000Y-443100000D03*
%TD*%
%TO.C,R19*%
X411300000Y-438200000D03*
X414400000Y-438200000D03*
%TD*%
D27*
%TO.C,R21*%
X401600000Y-477275000D03*
X398500000Y-477275000D03*
%TD*%
D26*
%TO.C,R7*%
X417400000Y-471450000D03*
X420500000Y-471450000D03*
%TD*%
D28*
%TO.C,R18*%
X397600000Y-435200000D03*
X397600000Y-432100000D03*
%TD*%
D29*
%TO.C,R20*%
X389550000Y-469550000D03*
X389550000Y-472650000D03*
%TD*%
D26*
%TO.C,R10*%
X411270629Y-445715941D03*
X414370629Y-445715941D03*
%TD*%
D28*
%TO.C,R15*%
X390600000Y-435200000D03*
X390600000Y-432100000D03*
%TD*%
D26*
%TO.C,R16*%
X411300000Y-440650000D03*
X414400000Y-440650000D03*
%TD*%
D28*
%TO.C,R17*%
X391300000Y-419450000D03*
X391300000Y-416350000D03*
%TD*%
D30*
%TO.C,J6*%
X416950000Y-478112500D03*
X424950000Y-478112500D03*
D31*
X417750000Y-467612500D03*
X418850000Y-467612500D03*
X419950000Y-467612500D03*
X421050000Y-467612500D03*
X422150000Y-467612500D03*
X423250000Y-467612500D03*
X424350000Y-467612500D03*
X425450000Y-467612500D03*
X426550000Y-467612500D03*
D32*
X412250000Y-477712500D03*
D33*
X413150000Y-468112500D03*
D34*
X427750000Y-468112500D03*
D32*
X427750000Y-477712500D03*
%TD*%
D28*
%TO.C,R8*%
X375900000Y-419450000D03*
X375900000Y-416350000D03*
%TD*%
%TO.C,R11*%
X381150000Y-419450000D03*
X381150000Y-416350000D03*
%TD*%
%TO.C,R14*%
X386050000Y-419450000D03*
X386050000Y-416350000D03*
%TD*%
%TO.C,R22*%
X404600000Y-432750000D03*
X404600000Y-429650000D03*
%TD*%
D27*
%TO.C,R4*%
X425050000Y-463750000D03*
X421950000Y-463750000D03*
%TD*%
D28*
%TO.C,R12*%
X383600000Y-435200000D03*
X383600000Y-432100000D03*
%TD*%
%TO.C,R9*%
X376250000Y-435550000D03*
X376250000Y-432450000D03*
%TD*%
D35*
X404250000Y-478450000D03*
X428050000Y-463750000D03*
X437325000Y-449575000D03*
X403550000Y-428400000D03*
X424550000Y-459900000D03*
M02*
