%TF.GenerationSoftware,KiCad,Pcbnew,9.0.6*%
%TF.CreationDate,2026-03-14T08:37:53-04:00*%
%TF.ProjectId,FigCNC-NoSpindle,46696743-4e43-42d4-9e6f-5370696e646c,rev?*%
%TF.SameCoordinates,Original*%
%TF.FileFunction,Legend,Bot*%
%TF.FilePolarity,Positive*%
%FSLAX46Y46*%
G04 Gerber Fmt 4.6, Leading zero omitted, Abs format (unit mm)*
G04 Created by KiCad (PCBNEW 9.0.6) date 2026-03-14 08:37:53*
%MOMM*%
%LPD*%
G01*
G04 APERTURE LIST*
%ADD10C,0.150000*%
%ADD11C,0.120000*%
G04 APERTURE END LIST*
D10*
X417492857Y-443554819D02*
X417826190Y-443078628D01*
X418064285Y-443554819D02*
X418064285Y-442554819D01*
X418064285Y-442554819D02*
X417683333Y-442554819D01*
X417683333Y-442554819D02*
X417588095Y-442602438D01*
X417588095Y-442602438D02*
X417540476Y-442650057D01*
X417540476Y-442650057D02*
X417492857Y-442745295D01*
X417492857Y-442745295D02*
X417492857Y-442888152D01*
X417492857Y-442888152D02*
X417540476Y-442983390D01*
X417540476Y-442983390D02*
X417588095Y-443031009D01*
X417588095Y-443031009D02*
X417683333Y-443078628D01*
X417683333Y-443078628D02*
X418064285Y-443078628D01*
X416540476Y-443554819D02*
X417111904Y-443554819D01*
X416826190Y-443554819D02*
X416826190Y-442554819D01*
X416826190Y-442554819D02*
X416921428Y-442697676D01*
X416921428Y-442697676D02*
X417016666Y-442792914D01*
X417016666Y-442792914D02*
X417111904Y-442840533D01*
X416207142Y-442554819D02*
X415588095Y-442554819D01*
X415588095Y-442554819D02*
X415921428Y-442935771D01*
X415921428Y-442935771D02*
X415778571Y-442935771D01*
X415778571Y-442935771D02*
X415683333Y-442983390D01*
X415683333Y-442983390D02*
X415635714Y-443031009D01*
X415635714Y-443031009D02*
X415588095Y-443126247D01*
X415588095Y-443126247D02*
X415588095Y-443364342D01*
X415588095Y-443364342D02*
X415635714Y-443459580D01*
X415635714Y-443459580D02*
X415683333Y-443507200D01*
X415683333Y-443507200D02*
X415778571Y-443554819D01*
X415778571Y-443554819D02*
X416064285Y-443554819D01*
X416064285Y-443554819D02*
X416159523Y-443507200D01*
X416159523Y-443507200D02*
X416207142Y-443459580D01*
X417842857Y-438654819D02*
X418176190Y-438178628D01*
X418414285Y-438654819D02*
X418414285Y-437654819D01*
X418414285Y-437654819D02*
X418033333Y-437654819D01*
X418033333Y-437654819D02*
X417938095Y-437702438D01*
X417938095Y-437702438D02*
X417890476Y-437750057D01*
X417890476Y-437750057D02*
X417842857Y-437845295D01*
X417842857Y-437845295D02*
X417842857Y-437988152D01*
X417842857Y-437988152D02*
X417890476Y-438083390D01*
X417890476Y-438083390D02*
X417938095Y-438131009D01*
X417938095Y-438131009D02*
X418033333Y-438178628D01*
X418033333Y-438178628D02*
X418414285Y-438178628D01*
X416890476Y-438654819D02*
X417461904Y-438654819D01*
X417176190Y-438654819D02*
X417176190Y-437654819D01*
X417176190Y-437654819D02*
X417271428Y-437797676D01*
X417271428Y-437797676D02*
X417366666Y-437892914D01*
X417366666Y-437892914D02*
X417461904Y-437940533D01*
X416414285Y-438654819D02*
X416223809Y-438654819D01*
X416223809Y-438654819D02*
X416128571Y-438607200D01*
X416128571Y-438607200D02*
X416080952Y-438559580D01*
X416080952Y-438559580D02*
X415985714Y-438416723D01*
X415985714Y-438416723D02*
X415938095Y-438226247D01*
X415938095Y-438226247D02*
X415938095Y-437845295D01*
X415938095Y-437845295D02*
X415985714Y-437750057D01*
X415985714Y-437750057D02*
X416033333Y-437702438D01*
X416033333Y-437702438D02*
X416128571Y-437654819D01*
X416128571Y-437654819D02*
X416319047Y-437654819D01*
X416319047Y-437654819D02*
X416414285Y-437702438D01*
X416414285Y-437702438D02*
X416461904Y-437750057D01*
X416461904Y-437750057D02*
X416509523Y-437845295D01*
X416509523Y-437845295D02*
X416509523Y-438083390D01*
X416509523Y-438083390D02*
X416461904Y-438178628D01*
X416461904Y-438178628D02*
X416414285Y-438226247D01*
X416414285Y-438226247D02*
X416319047Y-438273866D01*
X416319047Y-438273866D02*
X416128571Y-438273866D01*
X416128571Y-438273866D02*
X416033333Y-438226247D01*
X416033333Y-438226247D02*
X415985714Y-438178628D01*
X415985714Y-438178628D02*
X415938095Y-438083390D01*
X400692857Y-475899819D02*
X401026190Y-475423628D01*
X401264285Y-475899819D02*
X401264285Y-474899819D01*
X401264285Y-474899819D02*
X400883333Y-474899819D01*
X400883333Y-474899819D02*
X400788095Y-474947438D01*
X400788095Y-474947438D02*
X400740476Y-474995057D01*
X400740476Y-474995057D02*
X400692857Y-475090295D01*
X400692857Y-475090295D02*
X400692857Y-475233152D01*
X400692857Y-475233152D02*
X400740476Y-475328390D01*
X400740476Y-475328390D02*
X400788095Y-475376009D01*
X400788095Y-475376009D02*
X400883333Y-475423628D01*
X400883333Y-475423628D02*
X401264285Y-475423628D01*
X400311904Y-474995057D02*
X400264285Y-474947438D01*
X400264285Y-474947438D02*
X400169047Y-474899819D01*
X400169047Y-474899819D02*
X399930952Y-474899819D01*
X399930952Y-474899819D02*
X399835714Y-474947438D01*
X399835714Y-474947438D02*
X399788095Y-474995057D01*
X399788095Y-474995057D02*
X399740476Y-475090295D01*
X399740476Y-475090295D02*
X399740476Y-475185533D01*
X399740476Y-475185533D02*
X399788095Y-475328390D01*
X399788095Y-475328390D02*
X400359523Y-475899819D01*
X400359523Y-475899819D02*
X399740476Y-475899819D01*
X398788095Y-475899819D02*
X399359523Y-475899819D01*
X399073809Y-475899819D02*
X399073809Y-474899819D01*
X399073809Y-474899819D02*
X399169047Y-475042676D01*
X399169047Y-475042676D02*
X399264285Y-475137914D01*
X399264285Y-475137914D02*
X399359523Y-475185533D01*
X419116666Y-473734819D02*
X419449999Y-473258628D01*
X419688094Y-473734819D02*
X419688094Y-472734819D01*
X419688094Y-472734819D02*
X419307142Y-472734819D01*
X419307142Y-472734819D02*
X419211904Y-472782438D01*
X419211904Y-472782438D02*
X419164285Y-472830057D01*
X419164285Y-472830057D02*
X419116666Y-472925295D01*
X419116666Y-472925295D02*
X419116666Y-473068152D01*
X419116666Y-473068152D02*
X419164285Y-473163390D01*
X419164285Y-473163390D02*
X419211904Y-473211009D01*
X419211904Y-473211009D02*
X419307142Y-473258628D01*
X419307142Y-473258628D02*
X419688094Y-473258628D01*
X418783332Y-472734819D02*
X418116666Y-472734819D01*
X418116666Y-472734819D02*
X418545237Y-473734819D01*
X399884819Y-433007142D02*
X399408628Y-432673809D01*
X399884819Y-432435714D02*
X398884819Y-432435714D01*
X398884819Y-432435714D02*
X398884819Y-432816666D01*
X398884819Y-432816666D02*
X398932438Y-432911904D01*
X398932438Y-432911904D02*
X398980057Y-432959523D01*
X398980057Y-432959523D02*
X399075295Y-433007142D01*
X399075295Y-433007142D02*
X399218152Y-433007142D01*
X399218152Y-433007142D02*
X399313390Y-432959523D01*
X399313390Y-432959523D02*
X399361009Y-432911904D01*
X399361009Y-432911904D02*
X399408628Y-432816666D01*
X399408628Y-432816666D02*
X399408628Y-432435714D01*
X399884819Y-433959523D02*
X399884819Y-433388095D01*
X399884819Y-433673809D02*
X398884819Y-433673809D01*
X398884819Y-433673809D02*
X399027676Y-433578571D01*
X399027676Y-433578571D02*
X399122914Y-433483333D01*
X399122914Y-433483333D02*
X399170533Y-433388095D01*
X399313390Y-434530952D02*
X399265771Y-434435714D01*
X399265771Y-434435714D02*
X399218152Y-434388095D01*
X399218152Y-434388095D02*
X399122914Y-434340476D01*
X399122914Y-434340476D02*
X399075295Y-434340476D01*
X399075295Y-434340476D02*
X398980057Y-434388095D01*
X398980057Y-434388095D02*
X398932438Y-434435714D01*
X398932438Y-434435714D02*
X398884819Y-434530952D01*
X398884819Y-434530952D02*
X398884819Y-434721428D01*
X398884819Y-434721428D02*
X398932438Y-434816666D01*
X398932438Y-434816666D02*
X398980057Y-434864285D01*
X398980057Y-434864285D02*
X399075295Y-434911904D01*
X399075295Y-434911904D02*
X399122914Y-434911904D01*
X399122914Y-434911904D02*
X399218152Y-434864285D01*
X399218152Y-434864285D02*
X399265771Y-434816666D01*
X399265771Y-434816666D02*
X399313390Y-434721428D01*
X399313390Y-434721428D02*
X399313390Y-434530952D01*
X399313390Y-434530952D02*
X399361009Y-434435714D01*
X399361009Y-434435714D02*
X399408628Y-434388095D01*
X399408628Y-434388095D02*
X399503866Y-434340476D01*
X399503866Y-434340476D02*
X399694342Y-434340476D01*
X399694342Y-434340476D02*
X399789580Y-434388095D01*
X399789580Y-434388095D02*
X399837200Y-434435714D01*
X399837200Y-434435714D02*
X399884819Y-434530952D01*
X399884819Y-434530952D02*
X399884819Y-434721428D01*
X399884819Y-434721428D02*
X399837200Y-434816666D01*
X399837200Y-434816666D02*
X399789580Y-434864285D01*
X399789580Y-434864285D02*
X399694342Y-434911904D01*
X399694342Y-434911904D02*
X399503866Y-434911904D01*
X399503866Y-434911904D02*
X399408628Y-434864285D01*
X399408628Y-434864285D02*
X399361009Y-434816666D01*
X399361009Y-434816666D02*
X399313390Y-434721428D01*
X388174819Y-470457142D02*
X387698628Y-470123809D01*
X388174819Y-469885714D02*
X387174819Y-469885714D01*
X387174819Y-469885714D02*
X387174819Y-470266666D01*
X387174819Y-470266666D02*
X387222438Y-470361904D01*
X387222438Y-470361904D02*
X387270057Y-470409523D01*
X387270057Y-470409523D02*
X387365295Y-470457142D01*
X387365295Y-470457142D02*
X387508152Y-470457142D01*
X387508152Y-470457142D02*
X387603390Y-470409523D01*
X387603390Y-470409523D02*
X387651009Y-470361904D01*
X387651009Y-470361904D02*
X387698628Y-470266666D01*
X387698628Y-470266666D02*
X387698628Y-469885714D01*
X387270057Y-470838095D02*
X387222438Y-470885714D01*
X387222438Y-470885714D02*
X387174819Y-470980952D01*
X387174819Y-470980952D02*
X387174819Y-471219047D01*
X387174819Y-471219047D02*
X387222438Y-471314285D01*
X387222438Y-471314285D02*
X387270057Y-471361904D01*
X387270057Y-471361904D02*
X387365295Y-471409523D01*
X387365295Y-471409523D02*
X387460533Y-471409523D01*
X387460533Y-471409523D02*
X387603390Y-471361904D01*
X387603390Y-471361904D02*
X388174819Y-470790476D01*
X388174819Y-470790476D02*
X388174819Y-471409523D01*
X387174819Y-472028571D02*
X387174819Y-472123809D01*
X387174819Y-472123809D02*
X387222438Y-472219047D01*
X387222438Y-472219047D02*
X387270057Y-472266666D01*
X387270057Y-472266666D02*
X387365295Y-472314285D01*
X387365295Y-472314285D02*
X387555771Y-472361904D01*
X387555771Y-472361904D02*
X387793866Y-472361904D01*
X387793866Y-472361904D02*
X387984342Y-472314285D01*
X387984342Y-472314285D02*
X388079580Y-472266666D01*
X388079580Y-472266666D02*
X388127200Y-472219047D01*
X388127200Y-472219047D02*
X388174819Y-472123809D01*
X388174819Y-472123809D02*
X388174819Y-472028571D01*
X388174819Y-472028571D02*
X388127200Y-471933333D01*
X388127200Y-471933333D02*
X388079580Y-471885714D01*
X388079580Y-471885714D02*
X387984342Y-471838095D01*
X387984342Y-471838095D02*
X387793866Y-471790476D01*
X387793866Y-471790476D02*
X387555771Y-471790476D01*
X387555771Y-471790476D02*
X387365295Y-471838095D01*
X387365295Y-471838095D02*
X387270057Y-471885714D01*
X387270057Y-471885714D02*
X387222438Y-471933333D01*
X387222438Y-471933333D02*
X387174819Y-472028571D01*
X417492857Y-446354819D02*
X417826190Y-445878628D01*
X418064285Y-446354819D02*
X418064285Y-445354819D01*
X418064285Y-445354819D02*
X417683333Y-445354819D01*
X417683333Y-445354819D02*
X417588095Y-445402438D01*
X417588095Y-445402438D02*
X417540476Y-445450057D01*
X417540476Y-445450057D02*
X417492857Y-445545295D01*
X417492857Y-445545295D02*
X417492857Y-445688152D01*
X417492857Y-445688152D02*
X417540476Y-445783390D01*
X417540476Y-445783390D02*
X417588095Y-445831009D01*
X417588095Y-445831009D02*
X417683333Y-445878628D01*
X417683333Y-445878628D02*
X418064285Y-445878628D01*
X416540476Y-446354819D02*
X417111904Y-446354819D01*
X416826190Y-446354819D02*
X416826190Y-445354819D01*
X416826190Y-445354819D02*
X416921428Y-445497676D01*
X416921428Y-445497676D02*
X417016666Y-445592914D01*
X417016666Y-445592914D02*
X417111904Y-445640533D01*
X415921428Y-445354819D02*
X415826190Y-445354819D01*
X415826190Y-445354819D02*
X415730952Y-445402438D01*
X415730952Y-445402438D02*
X415683333Y-445450057D01*
X415683333Y-445450057D02*
X415635714Y-445545295D01*
X415635714Y-445545295D02*
X415588095Y-445735771D01*
X415588095Y-445735771D02*
X415588095Y-445973866D01*
X415588095Y-445973866D02*
X415635714Y-446164342D01*
X415635714Y-446164342D02*
X415683333Y-446259580D01*
X415683333Y-446259580D02*
X415730952Y-446307200D01*
X415730952Y-446307200D02*
X415826190Y-446354819D01*
X415826190Y-446354819D02*
X415921428Y-446354819D01*
X415921428Y-446354819D02*
X416016666Y-446307200D01*
X416016666Y-446307200D02*
X416064285Y-446259580D01*
X416064285Y-446259580D02*
X416111904Y-446164342D01*
X416111904Y-446164342D02*
X416159523Y-445973866D01*
X416159523Y-445973866D02*
X416159523Y-445735771D01*
X416159523Y-445735771D02*
X416111904Y-445545295D01*
X416111904Y-445545295D02*
X416064285Y-445450057D01*
X416064285Y-445450057D02*
X416016666Y-445402438D01*
X416016666Y-445402438D02*
X415921428Y-445354819D01*
X392884819Y-433007142D02*
X392408628Y-432673809D01*
X392884819Y-432435714D02*
X391884819Y-432435714D01*
X391884819Y-432435714D02*
X391884819Y-432816666D01*
X391884819Y-432816666D02*
X391932438Y-432911904D01*
X391932438Y-432911904D02*
X391980057Y-432959523D01*
X391980057Y-432959523D02*
X392075295Y-433007142D01*
X392075295Y-433007142D02*
X392218152Y-433007142D01*
X392218152Y-433007142D02*
X392313390Y-432959523D01*
X392313390Y-432959523D02*
X392361009Y-432911904D01*
X392361009Y-432911904D02*
X392408628Y-432816666D01*
X392408628Y-432816666D02*
X392408628Y-432435714D01*
X392884819Y-433959523D02*
X392884819Y-433388095D01*
X392884819Y-433673809D02*
X391884819Y-433673809D01*
X391884819Y-433673809D02*
X392027676Y-433578571D01*
X392027676Y-433578571D02*
X392122914Y-433483333D01*
X392122914Y-433483333D02*
X392170533Y-433388095D01*
X391884819Y-434864285D02*
X391884819Y-434388095D01*
X391884819Y-434388095D02*
X392361009Y-434340476D01*
X392361009Y-434340476D02*
X392313390Y-434388095D01*
X392313390Y-434388095D02*
X392265771Y-434483333D01*
X392265771Y-434483333D02*
X392265771Y-434721428D01*
X392265771Y-434721428D02*
X392313390Y-434816666D01*
X392313390Y-434816666D02*
X392361009Y-434864285D01*
X392361009Y-434864285D02*
X392456247Y-434911904D01*
X392456247Y-434911904D02*
X392694342Y-434911904D01*
X392694342Y-434911904D02*
X392789580Y-434864285D01*
X392789580Y-434864285D02*
X392837200Y-434816666D01*
X392837200Y-434816666D02*
X392884819Y-434721428D01*
X392884819Y-434721428D02*
X392884819Y-434483333D01*
X392884819Y-434483333D02*
X392837200Y-434388095D01*
X392837200Y-434388095D02*
X392789580Y-434340476D01*
X417492857Y-441104819D02*
X417826190Y-440628628D01*
X418064285Y-441104819D02*
X418064285Y-440104819D01*
X418064285Y-440104819D02*
X417683333Y-440104819D01*
X417683333Y-440104819D02*
X417588095Y-440152438D01*
X417588095Y-440152438D02*
X417540476Y-440200057D01*
X417540476Y-440200057D02*
X417492857Y-440295295D01*
X417492857Y-440295295D02*
X417492857Y-440438152D01*
X417492857Y-440438152D02*
X417540476Y-440533390D01*
X417540476Y-440533390D02*
X417588095Y-440581009D01*
X417588095Y-440581009D02*
X417683333Y-440628628D01*
X417683333Y-440628628D02*
X418064285Y-440628628D01*
X416540476Y-441104819D02*
X417111904Y-441104819D01*
X416826190Y-441104819D02*
X416826190Y-440104819D01*
X416826190Y-440104819D02*
X416921428Y-440247676D01*
X416921428Y-440247676D02*
X417016666Y-440342914D01*
X417016666Y-440342914D02*
X417111904Y-440390533D01*
X415683333Y-440104819D02*
X415873809Y-440104819D01*
X415873809Y-440104819D02*
X415969047Y-440152438D01*
X415969047Y-440152438D02*
X416016666Y-440200057D01*
X416016666Y-440200057D02*
X416111904Y-440342914D01*
X416111904Y-440342914D02*
X416159523Y-440533390D01*
X416159523Y-440533390D02*
X416159523Y-440914342D01*
X416159523Y-440914342D02*
X416111904Y-441009580D01*
X416111904Y-441009580D02*
X416064285Y-441057200D01*
X416064285Y-441057200D02*
X415969047Y-441104819D01*
X415969047Y-441104819D02*
X415778571Y-441104819D01*
X415778571Y-441104819D02*
X415683333Y-441057200D01*
X415683333Y-441057200D02*
X415635714Y-441009580D01*
X415635714Y-441009580D02*
X415588095Y-440914342D01*
X415588095Y-440914342D02*
X415588095Y-440676247D01*
X415588095Y-440676247D02*
X415635714Y-440581009D01*
X415635714Y-440581009D02*
X415683333Y-440533390D01*
X415683333Y-440533390D02*
X415778571Y-440485771D01*
X415778571Y-440485771D02*
X415969047Y-440485771D01*
X415969047Y-440485771D02*
X416064285Y-440533390D01*
X416064285Y-440533390D02*
X416111904Y-440581009D01*
X416111904Y-440581009D02*
X416159523Y-440676247D01*
X393584819Y-417257142D02*
X393108628Y-416923809D01*
X393584819Y-416685714D02*
X392584819Y-416685714D01*
X392584819Y-416685714D02*
X392584819Y-417066666D01*
X392584819Y-417066666D02*
X392632438Y-417161904D01*
X392632438Y-417161904D02*
X392680057Y-417209523D01*
X392680057Y-417209523D02*
X392775295Y-417257142D01*
X392775295Y-417257142D02*
X392918152Y-417257142D01*
X392918152Y-417257142D02*
X393013390Y-417209523D01*
X393013390Y-417209523D02*
X393061009Y-417161904D01*
X393061009Y-417161904D02*
X393108628Y-417066666D01*
X393108628Y-417066666D02*
X393108628Y-416685714D01*
X393584819Y-418209523D02*
X393584819Y-417638095D01*
X393584819Y-417923809D02*
X392584819Y-417923809D01*
X392584819Y-417923809D02*
X392727676Y-417828571D01*
X392727676Y-417828571D02*
X392822914Y-417733333D01*
X392822914Y-417733333D02*
X392870533Y-417638095D01*
X392584819Y-418542857D02*
X392584819Y-419209523D01*
X392584819Y-419209523D02*
X393584819Y-418780952D01*
X411325895Y-471776167D02*
X411897323Y-471776167D01*
X411897323Y-471776167D02*
X412011609Y-471745690D01*
X412011609Y-471745690D02*
X412087800Y-471684738D01*
X412087800Y-471684738D02*
X412125895Y-471593309D01*
X412125895Y-471593309D02*
X412125895Y-471532357D01*
X411325895Y-472355214D02*
X411325895Y-472233309D01*
X411325895Y-472233309D02*
X411363990Y-472172357D01*
X411363990Y-472172357D02*
X411402085Y-472141881D01*
X411402085Y-472141881D02*
X411516371Y-472080928D01*
X411516371Y-472080928D02*
X411668752Y-472050452D01*
X411668752Y-472050452D02*
X411973514Y-472050452D01*
X411973514Y-472050452D02*
X412049704Y-472080928D01*
X412049704Y-472080928D02*
X412087800Y-472111405D01*
X412087800Y-472111405D02*
X412125895Y-472172357D01*
X412125895Y-472172357D02*
X412125895Y-472294262D01*
X412125895Y-472294262D02*
X412087800Y-472355214D01*
X412087800Y-472355214D02*
X412049704Y-472385690D01*
X412049704Y-472385690D02*
X411973514Y-472416167D01*
X411973514Y-472416167D02*
X411783038Y-472416167D01*
X411783038Y-472416167D02*
X411706847Y-472385690D01*
X411706847Y-472385690D02*
X411668752Y-472355214D01*
X411668752Y-472355214D02*
X411630657Y-472294262D01*
X411630657Y-472294262D02*
X411630657Y-472172357D01*
X411630657Y-472172357D02*
X411668752Y-472111405D01*
X411668752Y-472111405D02*
X411706847Y-472080928D01*
X411706847Y-472080928D02*
X411783038Y-472050452D01*
X378184819Y-417733333D02*
X377708628Y-417400000D01*
X378184819Y-417161905D02*
X377184819Y-417161905D01*
X377184819Y-417161905D02*
X377184819Y-417542857D01*
X377184819Y-417542857D02*
X377232438Y-417638095D01*
X377232438Y-417638095D02*
X377280057Y-417685714D01*
X377280057Y-417685714D02*
X377375295Y-417733333D01*
X377375295Y-417733333D02*
X377518152Y-417733333D01*
X377518152Y-417733333D02*
X377613390Y-417685714D01*
X377613390Y-417685714D02*
X377661009Y-417638095D01*
X377661009Y-417638095D02*
X377708628Y-417542857D01*
X377708628Y-417542857D02*
X377708628Y-417161905D01*
X377613390Y-418304762D02*
X377565771Y-418209524D01*
X377565771Y-418209524D02*
X377518152Y-418161905D01*
X377518152Y-418161905D02*
X377422914Y-418114286D01*
X377422914Y-418114286D02*
X377375295Y-418114286D01*
X377375295Y-418114286D02*
X377280057Y-418161905D01*
X377280057Y-418161905D02*
X377232438Y-418209524D01*
X377232438Y-418209524D02*
X377184819Y-418304762D01*
X377184819Y-418304762D02*
X377184819Y-418495238D01*
X377184819Y-418495238D02*
X377232438Y-418590476D01*
X377232438Y-418590476D02*
X377280057Y-418638095D01*
X377280057Y-418638095D02*
X377375295Y-418685714D01*
X377375295Y-418685714D02*
X377422914Y-418685714D01*
X377422914Y-418685714D02*
X377518152Y-418638095D01*
X377518152Y-418638095D02*
X377565771Y-418590476D01*
X377565771Y-418590476D02*
X377613390Y-418495238D01*
X377613390Y-418495238D02*
X377613390Y-418304762D01*
X377613390Y-418304762D02*
X377661009Y-418209524D01*
X377661009Y-418209524D02*
X377708628Y-418161905D01*
X377708628Y-418161905D02*
X377803866Y-418114286D01*
X377803866Y-418114286D02*
X377994342Y-418114286D01*
X377994342Y-418114286D02*
X378089580Y-418161905D01*
X378089580Y-418161905D02*
X378137200Y-418209524D01*
X378137200Y-418209524D02*
X378184819Y-418304762D01*
X378184819Y-418304762D02*
X378184819Y-418495238D01*
X378184819Y-418495238D02*
X378137200Y-418590476D01*
X378137200Y-418590476D02*
X378089580Y-418638095D01*
X378089580Y-418638095D02*
X377994342Y-418685714D01*
X377994342Y-418685714D02*
X377803866Y-418685714D01*
X377803866Y-418685714D02*
X377708628Y-418638095D01*
X377708628Y-418638095D02*
X377661009Y-418590476D01*
X377661009Y-418590476D02*
X377613390Y-418495238D01*
X383434819Y-417257142D02*
X382958628Y-416923809D01*
X383434819Y-416685714D02*
X382434819Y-416685714D01*
X382434819Y-416685714D02*
X382434819Y-417066666D01*
X382434819Y-417066666D02*
X382482438Y-417161904D01*
X382482438Y-417161904D02*
X382530057Y-417209523D01*
X382530057Y-417209523D02*
X382625295Y-417257142D01*
X382625295Y-417257142D02*
X382768152Y-417257142D01*
X382768152Y-417257142D02*
X382863390Y-417209523D01*
X382863390Y-417209523D02*
X382911009Y-417161904D01*
X382911009Y-417161904D02*
X382958628Y-417066666D01*
X382958628Y-417066666D02*
X382958628Y-416685714D01*
X383434819Y-418209523D02*
X383434819Y-417638095D01*
X383434819Y-417923809D02*
X382434819Y-417923809D01*
X382434819Y-417923809D02*
X382577676Y-417828571D01*
X382577676Y-417828571D02*
X382672914Y-417733333D01*
X382672914Y-417733333D02*
X382720533Y-417638095D01*
X383434819Y-419161904D02*
X383434819Y-418590476D01*
X383434819Y-418876190D02*
X382434819Y-418876190D01*
X382434819Y-418876190D02*
X382577676Y-418780952D01*
X382577676Y-418780952D02*
X382672914Y-418685714D01*
X382672914Y-418685714D02*
X382720533Y-418590476D01*
X388334819Y-417257142D02*
X387858628Y-416923809D01*
X388334819Y-416685714D02*
X387334819Y-416685714D01*
X387334819Y-416685714D02*
X387334819Y-417066666D01*
X387334819Y-417066666D02*
X387382438Y-417161904D01*
X387382438Y-417161904D02*
X387430057Y-417209523D01*
X387430057Y-417209523D02*
X387525295Y-417257142D01*
X387525295Y-417257142D02*
X387668152Y-417257142D01*
X387668152Y-417257142D02*
X387763390Y-417209523D01*
X387763390Y-417209523D02*
X387811009Y-417161904D01*
X387811009Y-417161904D02*
X387858628Y-417066666D01*
X387858628Y-417066666D02*
X387858628Y-416685714D01*
X388334819Y-418209523D02*
X388334819Y-417638095D01*
X388334819Y-417923809D02*
X387334819Y-417923809D01*
X387334819Y-417923809D02*
X387477676Y-417828571D01*
X387477676Y-417828571D02*
X387572914Y-417733333D01*
X387572914Y-417733333D02*
X387620533Y-417638095D01*
X387668152Y-419066666D02*
X388334819Y-419066666D01*
X387287200Y-418828571D02*
X388001485Y-418590476D01*
X388001485Y-418590476D02*
X388001485Y-419209523D01*
X406884819Y-430557142D02*
X406408628Y-430223809D01*
X406884819Y-429985714D02*
X405884819Y-429985714D01*
X405884819Y-429985714D02*
X405884819Y-430366666D01*
X405884819Y-430366666D02*
X405932438Y-430461904D01*
X405932438Y-430461904D02*
X405980057Y-430509523D01*
X405980057Y-430509523D02*
X406075295Y-430557142D01*
X406075295Y-430557142D02*
X406218152Y-430557142D01*
X406218152Y-430557142D02*
X406313390Y-430509523D01*
X406313390Y-430509523D02*
X406361009Y-430461904D01*
X406361009Y-430461904D02*
X406408628Y-430366666D01*
X406408628Y-430366666D02*
X406408628Y-429985714D01*
X405980057Y-430938095D02*
X405932438Y-430985714D01*
X405932438Y-430985714D02*
X405884819Y-431080952D01*
X405884819Y-431080952D02*
X405884819Y-431319047D01*
X405884819Y-431319047D02*
X405932438Y-431414285D01*
X405932438Y-431414285D02*
X405980057Y-431461904D01*
X405980057Y-431461904D02*
X406075295Y-431509523D01*
X406075295Y-431509523D02*
X406170533Y-431509523D01*
X406170533Y-431509523D02*
X406313390Y-431461904D01*
X406313390Y-431461904D02*
X406884819Y-430890476D01*
X406884819Y-430890476D02*
X406884819Y-431509523D01*
X405980057Y-431890476D02*
X405932438Y-431938095D01*
X405932438Y-431938095D02*
X405884819Y-432033333D01*
X405884819Y-432033333D02*
X405884819Y-432271428D01*
X405884819Y-432271428D02*
X405932438Y-432366666D01*
X405932438Y-432366666D02*
X405980057Y-432414285D01*
X405980057Y-432414285D02*
X406075295Y-432461904D01*
X406075295Y-432461904D02*
X406170533Y-432461904D01*
X406170533Y-432461904D02*
X406313390Y-432414285D01*
X406313390Y-432414285D02*
X406884819Y-431842857D01*
X406884819Y-431842857D02*
X406884819Y-432461904D01*
X423666666Y-462374819D02*
X423999999Y-461898628D01*
X424238094Y-462374819D02*
X424238094Y-461374819D01*
X424238094Y-461374819D02*
X423857142Y-461374819D01*
X423857142Y-461374819D02*
X423761904Y-461422438D01*
X423761904Y-461422438D02*
X423714285Y-461470057D01*
X423714285Y-461470057D02*
X423666666Y-461565295D01*
X423666666Y-461565295D02*
X423666666Y-461708152D01*
X423666666Y-461708152D02*
X423714285Y-461803390D01*
X423714285Y-461803390D02*
X423761904Y-461851009D01*
X423761904Y-461851009D02*
X423857142Y-461898628D01*
X423857142Y-461898628D02*
X424238094Y-461898628D01*
X422809523Y-461708152D02*
X422809523Y-462374819D01*
X423047618Y-461327200D02*
X423285713Y-462041485D01*
X423285713Y-462041485D02*
X422666666Y-462041485D01*
X385884819Y-433007142D02*
X385408628Y-432673809D01*
X385884819Y-432435714D02*
X384884819Y-432435714D01*
X384884819Y-432435714D02*
X384884819Y-432816666D01*
X384884819Y-432816666D02*
X384932438Y-432911904D01*
X384932438Y-432911904D02*
X384980057Y-432959523D01*
X384980057Y-432959523D02*
X385075295Y-433007142D01*
X385075295Y-433007142D02*
X385218152Y-433007142D01*
X385218152Y-433007142D02*
X385313390Y-432959523D01*
X385313390Y-432959523D02*
X385361009Y-432911904D01*
X385361009Y-432911904D02*
X385408628Y-432816666D01*
X385408628Y-432816666D02*
X385408628Y-432435714D01*
X385884819Y-433959523D02*
X385884819Y-433388095D01*
X385884819Y-433673809D02*
X384884819Y-433673809D01*
X384884819Y-433673809D02*
X385027676Y-433578571D01*
X385027676Y-433578571D02*
X385122914Y-433483333D01*
X385122914Y-433483333D02*
X385170533Y-433388095D01*
X384980057Y-434340476D02*
X384932438Y-434388095D01*
X384932438Y-434388095D02*
X384884819Y-434483333D01*
X384884819Y-434483333D02*
X384884819Y-434721428D01*
X384884819Y-434721428D02*
X384932438Y-434816666D01*
X384932438Y-434816666D02*
X384980057Y-434864285D01*
X384980057Y-434864285D02*
X385075295Y-434911904D01*
X385075295Y-434911904D02*
X385170533Y-434911904D01*
X385170533Y-434911904D02*
X385313390Y-434864285D01*
X385313390Y-434864285D02*
X385884819Y-434292857D01*
X385884819Y-434292857D02*
X385884819Y-434911904D01*
X378534819Y-433833333D02*
X378058628Y-433500000D01*
X378534819Y-433261905D02*
X377534819Y-433261905D01*
X377534819Y-433261905D02*
X377534819Y-433642857D01*
X377534819Y-433642857D02*
X377582438Y-433738095D01*
X377582438Y-433738095D02*
X377630057Y-433785714D01*
X377630057Y-433785714D02*
X377725295Y-433833333D01*
X377725295Y-433833333D02*
X377868152Y-433833333D01*
X377868152Y-433833333D02*
X377963390Y-433785714D01*
X377963390Y-433785714D02*
X378011009Y-433738095D01*
X378011009Y-433738095D02*
X378058628Y-433642857D01*
X378058628Y-433642857D02*
X378058628Y-433261905D01*
X378534819Y-434309524D02*
X378534819Y-434500000D01*
X378534819Y-434500000D02*
X378487200Y-434595238D01*
X378487200Y-434595238D02*
X378439580Y-434642857D01*
X378439580Y-434642857D02*
X378296723Y-434738095D01*
X378296723Y-434738095D02*
X378106247Y-434785714D01*
X378106247Y-434785714D02*
X377725295Y-434785714D01*
X377725295Y-434785714D02*
X377630057Y-434738095D01*
X377630057Y-434738095D02*
X377582438Y-434690476D01*
X377582438Y-434690476D02*
X377534819Y-434595238D01*
X377534819Y-434595238D02*
X377534819Y-434404762D01*
X377534819Y-434404762D02*
X377582438Y-434309524D01*
X377582438Y-434309524D02*
X377630057Y-434261905D01*
X377630057Y-434261905D02*
X377725295Y-434214286D01*
X377725295Y-434214286D02*
X377963390Y-434214286D01*
X377963390Y-434214286D02*
X378058628Y-434261905D01*
X378058628Y-434261905D02*
X378106247Y-434309524D01*
X378106247Y-434309524D02*
X378153866Y-434404762D01*
X378153866Y-434404762D02*
X378153866Y-434595238D01*
X378153866Y-434595238D02*
X378106247Y-434690476D01*
X378106247Y-434690476D02*
X378058628Y-434738095D01*
X378058628Y-434738095D02*
X377963390Y-434785714D01*
D11*
%TO.C,R13*%
X412122936Y-442190000D02*
X413577064Y-442190000D01*
X412122936Y-444010000D02*
X413577064Y-444010000D01*
%TO.C,R19*%
X412122936Y-437290000D02*
X413577064Y-437290000D01*
X412122936Y-439110000D02*
X413577064Y-439110000D01*
%TO.C,R21*%
X400777064Y-476365000D02*
X399322936Y-476365000D01*
X400777064Y-478185000D02*
X399322936Y-478185000D01*
%TO.C,R7*%
X418222936Y-470540000D02*
X419677064Y-470540000D01*
X418222936Y-472360000D02*
X419677064Y-472360000D01*
%TO.C,R18*%
X396690000Y-434377064D02*
X396690000Y-432922936D01*
X398510000Y-434377064D02*
X398510000Y-432922936D01*
%TO.C,R20*%
X388640000Y-470372936D02*
X388640000Y-471827064D01*
X390460000Y-470372936D02*
X390460000Y-471827064D01*
%TO.C,R10*%
X412093565Y-444805941D02*
X413547693Y-444805941D01*
X412093565Y-446625941D02*
X413547693Y-446625941D01*
%TO.C,R15*%
X389690000Y-434377064D02*
X389690000Y-432922936D01*
X391510000Y-434377064D02*
X391510000Y-432922936D01*
%TO.C,R16*%
X412122936Y-439740000D02*
X413577064Y-439740000D01*
X412122936Y-441560000D02*
X413577064Y-441560000D01*
%TO.C,R17*%
X390390000Y-418627064D02*
X390390000Y-417172936D01*
X392210000Y-418627064D02*
X392210000Y-417172936D01*
D10*
%TO.C,J6*%
X412715032Y-476384355D02*
X412715032Y-469134355D01*
X412715032Y-479612500D02*
X412715032Y-479134355D01*
X412715032Y-482112500D02*
X412715032Y-479612500D01*
X414115032Y-479612500D02*
X412715032Y-479612500D01*
X414215032Y-467634355D02*
X416965032Y-467634355D01*
X415515032Y-482112500D02*
X412715032Y-482112500D01*
X420950000Y-480912500D02*
X420950000Y-482112500D01*
X420950000Y-482112500D02*
X415450000Y-482112500D01*
X426200000Y-479612500D02*
X427465032Y-479612500D01*
X426450000Y-482112500D02*
X420950000Y-482112500D01*
X427465032Y-476384355D02*
X427465032Y-469134355D01*
X427465032Y-479623428D02*
X427465032Y-479145283D01*
X427465032Y-482112500D02*
X426450000Y-482112500D01*
X427465032Y-482112500D02*
X427465032Y-479612500D01*
D11*
%TO.C,R8*%
X374990000Y-418627064D02*
X374990000Y-417172936D01*
X376810000Y-418627064D02*
X376810000Y-417172936D01*
%TO.C,R11*%
X380240000Y-418627064D02*
X380240000Y-417172936D01*
X382060000Y-418627064D02*
X382060000Y-417172936D01*
%TO.C,R14*%
X385140000Y-418627064D02*
X385140000Y-417172936D01*
X386960000Y-418627064D02*
X386960000Y-417172936D01*
%TO.C,R22*%
X403690000Y-431927064D02*
X403690000Y-430472936D01*
X405510000Y-431927064D02*
X405510000Y-430472936D01*
%TO.C,R4*%
X424227064Y-462840000D02*
X422772936Y-462840000D01*
X424227064Y-464660000D02*
X422772936Y-464660000D01*
%TO.C,R12*%
X382690000Y-434377064D02*
X382690000Y-432922936D01*
X384510000Y-434377064D02*
X384510000Y-432922936D01*
%TO.C,R9*%
X375340000Y-434727064D02*
X375340000Y-433272936D01*
X377160000Y-434727064D02*
X377160000Y-433272936D01*
%TD*%
M02*
